%TF.GenerationSoftware,KiCad,Pcbnew,9.0.2-9.0.2-0~ubuntu24.04.1*%
%TF.CreationDate,2025-07-11T12:15:57+05:30*%
%TF.ProjectId,Programmer_rev01,50726f67-7261-46d6-9d65-725f72657630,rev?*%
%TF.SameCoordinates,Original*%
%TF.FileFunction,Legend,Top*%
%TF.FilePolarity,Positive*%
%FSLAX46Y46*%
G04 Gerber Fmt 4.6, Leading zero omitted, Abs format (unit mm)*
G04 Created by KiCad (PCBNEW 9.0.2-9.0.2-0~ubuntu24.04.1) date 2025-07-11 12:15:57*
%MOMM*%
%LPD*%
G01*
G04 APERTURE LIST*
G04 Aperture macros list*
%AMRoundRect*
0 Rectangle with rounded corners*
0 $1 Rounding radius*
0 $2 $3 $4 $5 $6 $7 $8 $9 X,Y pos of 4 corners*
0 Add a 4 corners polygon primitive as box body*
4,1,4,$2,$3,$4,$5,$6,$7,$8,$9,$2,$3,0*
0 Add four circle primitives for the rounded corners*
1,1,$1+$1,$2,$3*
1,1,$1+$1,$4,$5*
1,1,$1+$1,$6,$7*
1,1,$1+$1,$8,$9*
0 Add four rect primitives between the rounded corners*
20,1,$1+$1,$2,$3,$4,$5,0*
20,1,$1+$1,$4,$5,$6,$7,0*
20,1,$1+$1,$6,$7,$8,$9,0*
20,1,$1+$1,$8,$9,$2,$3,0*%
%AMFreePoly0*
4,1,23,0.550000,-0.750000,0.000000,-0.750000,0.000000,-0.745722,-0.065263,-0.745722,-0.191342,-0.711940,-0.304381,-0.646677,-0.396677,-0.554381,-0.461940,-0.441342,-0.495722,-0.315263,-0.495722,-0.250000,-0.500000,-0.250000,-0.500000,0.250000,-0.495722,0.250000,-0.495722,0.315263,-0.461940,0.441342,-0.396677,0.554381,-0.304381,0.646677,-0.191342,0.711940,-0.065263,0.745722,0.000000,0.745722,
0.000000,0.750000,0.550000,0.750000,0.550000,-0.750000,0.550000,-0.750000,$1*%
%AMFreePoly1*
4,1,23,0.000000,0.745722,0.065263,0.745722,0.191342,0.711940,0.304381,0.646677,0.396677,0.554381,0.461940,0.441342,0.495722,0.315263,0.495722,0.250000,0.500000,0.250000,0.500000,-0.250000,0.495722,-0.250000,0.495722,-0.315263,0.461940,-0.441342,0.396677,-0.554381,0.304381,-0.646677,0.191342,-0.711940,0.065263,-0.745722,0.000000,-0.745722,0.000000,-0.750000,-0.550000,-0.750000,
-0.550000,0.750000,0.000000,0.750000,0.000000,0.745722,0.000000,0.745722,$1*%
G04 Aperture macros list end*
%ADD10C,0.150000*%
%ADD11C,0.200000*%
%ADD12C,0.120000*%
%ADD13C,0.100000*%
%ADD14FreePoly0,270.000000*%
%ADD15R,1.500000X1.000000*%
%ADD16FreePoly1,270.000000*%
%ADD17RoundRect,0.250000X-1.000000X-0.650000X1.000000X-0.650000X1.000000X0.650000X-1.000000X0.650000X0*%
%ADD18RoundRect,0.250000X-0.650000X1.000000X-0.650000X-1.000000X0.650000X-1.000000X0.650000X1.000000X0*%
%ADD19RoundRect,0.237500X-0.287500X-0.237500X0.287500X-0.237500X0.287500X0.237500X-0.287500X0.237500X0*%
%ADD20C,2.000000*%
%ADD21C,1.350000*%
%ADD22R,1.350000X1.350000*%
%ADD23O,1.000000X1.800000*%
%ADD24O,1.000000X2.100000*%
%ADD25R,0.600000X1.240000*%
%ADD26R,0.300000X1.240000*%
%ADD27C,0.650000*%
%ADD28RoundRect,0.237500X-0.237500X0.250000X-0.237500X-0.250000X0.237500X-0.250000X0.237500X0.250000X0*%
%ADD29RoundRect,0.150000X0.150000X-0.825000X0.150000X0.825000X-0.150000X0.825000X-0.150000X-0.825000X0*%
%ADD30RoundRect,0.375000X-0.375000X0.625000X-0.375000X-0.625000X0.375000X-0.625000X0.375000X0.625000X0*%
%ADD31RoundRect,0.500000X-1.400000X0.500000X-1.400000X-0.500000X1.400000X-0.500000X1.400000X0.500000X0*%
%ADD32RoundRect,0.162500X0.162500X-0.617500X0.162500X0.617500X-0.162500X0.617500X-0.162500X-0.617500X0*%
%ADD33RoundRect,0.237500X0.237500X-0.250000X0.237500X0.250000X-0.237500X0.250000X-0.237500X-0.250000X0*%
%ADD34R,1.700000X1.700000*%
%ADD35O,1.700000X1.700000*%
%ADD36RoundRect,0.250000X-0.600000X-0.600000X0.600000X-0.600000X0.600000X0.600000X-0.600000X0.600000X0*%
%ADD37C,1.700000*%
%ADD38RoundRect,0.237500X-0.237500X0.300000X-0.237500X-0.300000X0.237500X-0.300000X0.237500X0.300000X0*%
G04 APERTURE END LIST*
D10*
X79214286Y-100254104D02*
X79690476Y-100254104D01*
X79119048Y-100539819D02*
X79452381Y-99539819D01*
X79452381Y-99539819D02*
X79785714Y-100539819D01*
X80119048Y-100539819D02*
X80119048Y-99539819D01*
X80119048Y-99539819D02*
X80452381Y-100254104D01*
X80452381Y-100254104D02*
X80785714Y-99539819D01*
X80785714Y-99539819D02*
X80785714Y-100539819D01*
X81214286Y-100492200D02*
X81357143Y-100539819D01*
X81357143Y-100539819D02*
X81595238Y-100539819D01*
X81595238Y-100539819D02*
X81690476Y-100492200D01*
X81690476Y-100492200D02*
X81738095Y-100444580D01*
X81738095Y-100444580D02*
X81785714Y-100349342D01*
X81785714Y-100349342D02*
X81785714Y-100254104D01*
X81785714Y-100254104D02*
X81738095Y-100158866D01*
X81738095Y-100158866D02*
X81690476Y-100111247D01*
X81690476Y-100111247D02*
X81595238Y-100063628D01*
X81595238Y-100063628D02*
X81404762Y-100016009D01*
X81404762Y-100016009D02*
X81309524Y-99968390D01*
X81309524Y-99968390D02*
X81261905Y-99920771D01*
X81261905Y-99920771D02*
X81214286Y-99825533D01*
X81214286Y-99825533D02*
X81214286Y-99730295D01*
X81214286Y-99730295D02*
X81261905Y-99635057D01*
X81261905Y-99635057D02*
X81309524Y-99587438D01*
X81309524Y-99587438D02*
X81404762Y-99539819D01*
X81404762Y-99539819D02*
X81642857Y-99539819D01*
X81642857Y-99539819D02*
X81785714Y-99587438D01*
X77619819Y-98738095D02*
X78619819Y-98404762D01*
X78619819Y-98404762D02*
X77619819Y-98071429D01*
X77619819Y-97880952D02*
X77619819Y-97309524D01*
X78619819Y-97595238D02*
X77619819Y-97595238D01*
X78619819Y-96976190D02*
X77953152Y-96976190D01*
X78143628Y-96976190D02*
X78048390Y-96928571D01*
X78048390Y-96928571D02*
X78000771Y-96880952D01*
X78000771Y-96880952D02*
X77953152Y-96785714D01*
X77953152Y-96785714D02*
X77953152Y-96690476D01*
X78572200Y-95976190D02*
X78619819Y-96071428D01*
X78619819Y-96071428D02*
X78619819Y-96261904D01*
X78619819Y-96261904D02*
X78572200Y-96357142D01*
X78572200Y-96357142D02*
X78476961Y-96404761D01*
X78476961Y-96404761D02*
X78096009Y-96404761D01*
X78096009Y-96404761D02*
X78000771Y-96357142D01*
X78000771Y-96357142D02*
X77953152Y-96261904D01*
X77953152Y-96261904D02*
X77953152Y-96071428D01*
X77953152Y-96071428D02*
X78000771Y-95976190D01*
X78000771Y-95976190D02*
X78096009Y-95928571D01*
X78096009Y-95928571D02*
X78191247Y-95928571D01*
X78191247Y-95928571D02*
X78286485Y-96404761D01*
X77953152Y-95642856D02*
X77953152Y-95261904D01*
X78619819Y-95499999D02*
X77762676Y-95499999D01*
X77762676Y-95499999D02*
X77667438Y-95452380D01*
X77667438Y-95452380D02*
X77619819Y-95357142D01*
X77619819Y-95357142D02*
X77619819Y-95261904D01*
X79523810Y-94369819D02*
X79523810Y-93369819D01*
X79952381Y-94322200D02*
X80095238Y-94369819D01*
X80095238Y-94369819D02*
X80333333Y-94369819D01*
X80333333Y-94369819D02*
X80428571Y-94322200D01*
X80428571Y-94322200D02*
X80476190Y-94274580D01*
X80476190Y-94274580D02*
X80523809Y-94179342D01*
X80523809Y-94179342D02*
X80523809Y-94084104D01*
X80523809Y-94084104D02*
X80476190Y-93988866D01*
X80476190Y-93988866D02*
X80428571Y-93941247D01*
X80428571Y-93941247D02*
X80333333Y-93893628D01*
X80333333Y-93893628D02*
X80142857Y-93846009D01*
X80142857Y-93846009D02*
X80047619Y-93798390D01*
X80047619Y-93798390D02*
X80000000Y-93750771D01*
X80000000Y-93750771D02*
X79952381Y-93655533D01*
X79952381Y-93655533D02*
X79952381Y-93560295D01*
X79952381Y-93560295D02*
X80000000Y-93465057D01*
X80000000Y-93465057D02*
X80047619Y-93417438D01*
X80047619Y-93417438D02*
X80142857Y-93369819D01*
X80142857Y-93369819D02*
X80380952Y-93369819D01*
X80380952Y-93369819D02*
X80523809Y-93417438D01*
X81285714Y-93846009D02*
X81428571Y-93893628D01*
X81428571Y-93893628D02*
X81476190Y-93941247D01*
X81476190Y-93941247D02*
X81523809Y-94036485D01*
X81523809Y-94036485D02*
X81523809Y-94179342D01*
X81523809Y-94179342D02*
X81476190Y-94274580D01*
X81476190Y-94274580D02*
X81428571Y-94322200D01*
X81428571Y-94322200D02*
X81333333Y-94369819D01*
X81333333Y-94369819D02*
X80952381Y-94369819D01*
X80952381Y-94369819D02*
X80952381Y-93369819D01*
X80952381Y-93369819D02*
X81285714Y-93369819D01*
X81285714Y-93369819D02*
X81380952Y-93417438D01*
X81380952Y-93417438D02*
X81428571Y-93465057D01*
X81428571Y-93465057D02*
X81476190Y-93560295D01*
X81476190Y-93560295D02*
X81476190Y-93655533D01*
X81476190Y-93655533D02*
X81428571Y-93750771D01*
X81428571Y-93750771D02*
X81380952Y-93798390D01*
X81380952Y-93798390D02*
X81285714Y-93846009D01*
X81285714Y-93846009D02*
X80952381Y-93846009D01*
X124194172Y-98324200D02*
X124308458Y-98362295D01*
X124308458Y-98362295D02*
X124498934Y-98362295D01*
X124498934Y-98362295D02*
X124575125Y-98324200D01*
X124575125Y-98324200D02*
X124613220Y-98286104D01*
X124613220Y-98286104D02*
X124651315Y-98209914D01*
X124651315Y-98209914D02*
X124651315Y-98133723D01*
X124651315Y-98133723D02*
X124613220Y-98057533D01*
X124613220Y-98057533D02*
X124575125Y-98019438D01*
X124575125Y-98019438D02*
X124498934Y-97981342D01*
X124498934Y-97981342D02*
X124346553Y-97943247D01*
X124346553Y-97943247D02*
X124270363Y-97905152D01*
X124270363Y-97905152D02*
X124232268Y-97867057D01*
X124232268Y-97867057D02*
X124194172Y-97790866D01*
X124194172Y-97790866D02*
X124194172Y-97714676D01*
X124194172Y-97714676D02*
X124232268Y-97638485D01*
X124232268Y-97638485D02*
X124270363Y-97600390D01*
X124270363Y-97600390D02*
X124346553Y-97562295D01*
X124346553Y-97562295D02*
X124537030Y-97562295D01*
X124537030Y-97562295D02*
X124651315Y-97600390D01*
X125451316Y-98286104D02*
X125413220Y-98324200D01*
X125413220Y-98324200D02*
X125298935Y-98362295D01*
X125298935Y-98362295D02*
X125222744Y-98362295D01*
X125222744Y-98362295D02*
X125108458Y-98324200D01*
X125108458Y-98324200D02*
X125032268Y-98248009D01*
X125032268Y-98248009D02*
X124994173Y-98171819D01*
X124994173Y-98171819D02*
X124956077Y-98019438D01*
X124956077Y-98019438D02*
X124956077Y-97905152D01*
X124956077Y-97905152D02*
X124994173Y-97752771D01*
X124994173Y-97752771D02*
X125032268Y-97676580D01*
X125032268Y-97676580D02*
X125108458Y-97600390D01*
X125108458Y-97600390D02*
X125222744Y-97562295D01*
X125222744Y-97562295D02*
X125298935Y-97562295D01*
X125298935Y-97562295D02*
X125413220Y-97600390D01*
X125413220Y-97600390D02*
X125451316Y-97638485D01*
X126175125Y-98362295D02*
X125794173Y-98362295D01*
X125794173Y-98362295D02*
X125794173Y-97562295D01*
X102889160Y-97057533D02*
X103498684Y-97057533D01*
X103193922Y-97362295D02*
X103193922Y-96752771D01*
X104260588Y-96562295D02*
X103879636Y-96562295D01*
X103879636Y-96562295D02*
X103841540Y-96943247D01*
X103841540Y-96943247D02*
X103879636Y-96905152D01*
X103879636Y-96905152D02*
X103955826Y-96867057D01*
X103955826Y-96867057D02*
X104146302Y-96867057D01*
X104146302Y-96867057D02*
X104222493Y-96905152D01*
X104222493Y-96905152D02*
X104260588Y-96943247D01*
X104260588Y-96943247D02*
X104298683Y-97019438D01*
X104298683Y-97019438D02*
X104298683Y-97209914D01*
X104298683Y-97209914D02*
X104260588Y-97286104D01*
X104260588Y-97286104D02*
X104222493Y-97324200D01*
X104222493Y-97324200D02*
X104146302Y-97362295D01*
X104146302Y-97362295D02*
X103955826Y-97362295D01*
X103955826Y-97362295D02*
X103879636Y-97324200D01*
X103879636Y-97324200D02*
X103841540Y-97286104D01*
X104527255Y-96562295D02*
X104793922Y-97362295D01*
X104793922Y-97362295D02*
X105060588Y-96562295D01*
X103308207Y-102600390D02*
X103232017Y-102562295D01*
X103232017Y-102562295D02*
X103117731Y-102562295D01*
X103117731Y-102562295D02*
X103003445Y-102600390D01*
X103003445Y-102600390D02*
X102927255Y-102676580D01*
X102927255Y-102676580D02*
X102889160Y-102752771D01*
X102889160Y-102752771D02*
X102851064Y-102905152D01*
X102851064Y-102905152D02*
X102851064Y-103019438D01*
X102851064Y-103019438D02*
X102889160Y-103171819D01*
X102889160Y-103171819D02*
X102927255Y-103248009D01*
X102927255Y-103248009D02*
X103003445Y-103324200D01*
X103003445Y-103324200D02*
X103117731Y-103362295D01*
X103117731Y-103362295D02*
X103193922Y-103362295D01*
X103193922Y-103362295D02*
X103308207Y-103324200D01*
X103308207Y-103324200D02*
X103346303Y-103286104D01*
X103346303Y-103286104D02*
X103346303Y-103019438D01*
X103346303Y-103019438D02*
X103193922Y-103019438D01*
X103689160Y-103362295D02*
X103689160Y-102562295D01*
X103689160Y-102562295D02*
X104146303Y-103362295D01*
X104146303Y-103362295D02*
X104146303Y-102562295D01*
X104527255Y-103362295D02*
X104527255Y-102562295D01*
X104527255Y-102562295D02*
X104717731Y-102562295D01*
X104717731Y-102562295D02*
X104832017Y-102600390D01*
X104832017Y-102600390D02*
X104908207Y-102676580D01*
X104908207Y-102676580D02*
X104946302Y-102752771D01*
X104946302Y-102752771D02*
X104984398Y-102905152D01*
X104984398Y-102905152D02*
X104984398Y-103019438D01*
X104984398Y-103019438D02*
X104946302Y-103171819D01*
X104946302Y-103171819D02*
X104908207Y-103248009D01*
X104908207Y-103248009D02*
X104832017Y-103324200D01*
X104832017Y-103324200D02*
X104717731Y-103362295D01*
X104717731Y-103362295D02*
X104527255Y-103362295D01*
X110894295Y-100514285D02*
X110894295Y-100895237D01*
X110894295Y-100895237D02*
X110094295Y-100895237D01*
X110475247Y-100247618D02*
X110475247Y-99980952D01*
X110894295Y-99866666D02*
X110894295Y-100247618D01*
X110894295Y-100247618D02*
X110094295Y-100247618D01*
X110094295Y-100247618D02*
X110094295Y-99866666D01*
X110894295Y-99523808D02*
X110094295Y-99523808D01*
X110094295Y-99523808D02*
X110094295Y-99333332D01*
X110094295Y-99333332D02*
X110132390Y-99219046D01*
X110132390Y-99219046D02*
X110208580Y-99142856D01*
X110208580Y-99142856D02*
X110284771Y-99104761D01*
X110284771Y-99104761D02*
X110437152Y-99066665D01*
X110437152Y-99066665D02*
X110551438Y-99066665D01*
X110551438Y-99066665D02*
X110703819Y-99104761D01*
X110703819Y-99104761D02*
X110780009Y-99142856D01*
X110780009Y-99142856D02*
X110856200Y-99219046D01*
X110856200Y-99219046D02*
X110894295Y-99333332D01*
X110894295Y-99333332D02*
X110894295Y-99523808D01*
X119792200Y-98332381D02*
X119830295Y-98218095D01*
X119830295Y-98218095D02*
X119830295Y-98027619D01*
X119830295Y-98027619D02*
X119792200Y-97951428D01*
X119792200Y-97951428D02*
X119754104Y-97913333D01*
X119754104Y-97913333D02*
X119677914Y-97875238D01*
X119677914Y-97875238D02*
X119601723Y-97875238D01*
X119601723Y-97875238D02*
X119525533Y-97913333D01*
X119525533Y-97913333D02*
X119487438Y-97951428D01*
X119487438Y-97951428D02*
X119449342Y-98027619D01*
X119449342Y-98027619D02*
X119411247Y-98180000D01*
X119411247Y-98180000D02*
X119373152Y-98256190D01*
X119373152Y-98256190D02*
X119335057Y-98294285D01*
X119335057Y-98294285D02*
X119258866Y-98332381D01*
X119258866Y-98332381D02*
X119182676Y-98332381D01*
X119182676Y-98332381D02*
X119106485Y-98294285D01*
X119106485Y-98294285D02*
X119068390Y-98256190D01*
X119068390Y-98256190D02*
X119030295Y-98180000D01*
X119030295Y-98180000D02*
X119030295Y-97989523D01*
X119030295Y-97989523D02*
X119068390Y-97875238D01*
X119754104Y-97075237D02*
X119792200Y-97113333D01*
X119792200Y-97113333D02*
X119830295Y-97227618D01*
X119830295Y-97227618D02*
X119830295Y-97303809D01*
X119830295Y-97303809D02*
X119792200Y-97418095D01*
X119792200Y-97418095D02*
X119716009Y-97494285D01*
X119716009Y-97494285D02*
X119639819Y-97532380D01*
X119639819Y-97532380D02*
X119487438Y-97570476D01*
X119487438Y-97570476D02*
X119373152Y-97570476D01*
X119373152Y-97570476D02*
X119220771Y-97532380D01*
X119220771Y-97532380D02*
X119144580Y-97494285D01*
X119144580Y-97494285D02*
X119068390Y-97418095D01*
X119068390Y-97418095D02*
X119030295Y-97303809D01*
X119030295Y-97303809D02*
X119030295Y-97227618D01*
X119030295Y-97227618D02*
X119068390Y-97113333D01*
X119068390Y-97113333D02*
X119106485Y-97075237D01*
X119830295Y-96351428D02*
X119830295Y-96732380D01*
X119830295Y-96732380D02*
X119030295Y-96732380D01*
X117346303Y-111862295D02*
X117079636Y-111481342D01*
X116889160Y-111862295D02*
X116889160Y-111062295D01*
X116889160Y-111062295D02*
X117193922Y-111062295D01*
X117193922Y-111062295D02*
X117270112Y-111100390D01*
X117270112Y-111100390D02*
X117308207Y-111138485D01*
X117308207Y-111138485D02*
X117346303Y-111214676D01*
X117346303Y-111214676D02*
X117346303Y-111328961D01*
X117346303Y-111328961D02*
X117308207Y-111405152D01*
X117308207Y-111405152D02*
X117270112Y-111443247D01*
X117270112Y-111443247D02*
X117193922Y-111481342D01*
X117193922Y-111481342D02*
X116889160Y-111481342D01*
X117689160Y-111443247D02*
X117955826Y-111443247D01*
X118070112Y-111862295D02*
X117689160Y-111862295D01*
X117689160Y-111862295D02*
X117689160Y-111062295D01*
X117689160Y-111062295D02*
X118070112Y-111062295D01*
X118374874Y-111824200D02*
X118489160Y-111862295D01*
X118489160Y-111862295D02*
X118679636Y-111862295D01*
X118679636Y-111862295D02*
X118755827Y-111824200D01*
X118755827Y-111824200D02*
X118793922Y-111786104D01*
X118793922Y-111786104D02*
X118832017Y-111709914D01*
X118832017Y-111709914D02*
X118832017Y-111633723D01*
X118832017Y-111633723D02*
X118793922Y-111557533D01*
X118793922Y-111557533D02*
X118755827Y-111519438D01*
X118755827Y-111519438D02*
X118679636Y-111481342D01*
X118679636Y-111481342D02*
X118527255Y-111443247D01*
X118527255Y-111443247D02*
X118451065Y-111405152D01*
X118451065Y-111405152D02*
X118412970Y-111367057D01*
X118412970Y-111367057D02*
X118374874Y-111290866D01*
X118374874Y-111290866D02*
X118374874Y-111214676D01*
X118374874Y-111214676D02*
X118412970Y-111138485D01*
X118412970Y-111138485D02*
X118451065Y-111100390D01*
X118451065Y-111100390D02*
X118527255Y-111062295D01*
X118527255Y-111062295D02*
X118717732Y-111062295D01*
X118717732Y-111062295D02*
X118832017Y-111100390D01*
X119174875Y-111443247D02*
X119441541Y-111443247D01*
X119555827Y-111862295D02*
X119174875Y-111862295D01*
X119174875Y-111862295D02*
X119174875Y-111062295D01*
X119174875Y-111062295D02*
X119555827Y-111062295D01*
X119784399Y-111062295D02*
X120241542Y-111062295D01*
X120012970Y-111862295D02*
X120012970Y-111062295D01*
X110894295Y-95053332D02*
X110513342Y-95319999D01*
X110894295Y-95510475D02*
X110094295Y-95510475D01*
X110094295Y-95510475D02*
X110094295Y-95205713D01*
X110094295Y-95205713D02*
X110132390Y-95129523D01*
X110132390Y-95129523D02*
X110170485Y-95091428D01*
X110170485Y-95091428D02*
X110246676Y-95053332D01*
X110246676Y-95053332D02*
X110360961Y-95053332D01*
X110360961Y-95053332D02*
X110437152Y-95091428D01*
X110437152Y-95091428D02*
X110475247Y-95129523D01*
X110475247Y-95129523D02*
X110513342Y-95205713D01*
X110513342Y-95205713D02*
X110513342Y-95510475D01*
X110094295Y-94786666D02*
X110894295Y-94253332D01*
X110094295Y-94253332D02*
X110894295Y-94786666D01*
X119830295Y-102898094D02*
X119449342Y-103164761D01*
X119830295Y-103355237D02*
X119030295Y-103355237D01*
X119030295Y-103355237D02*
X119030295Y-103050475D01*
X119030295Y-103050475D02*
X119068390Y-102974285D01*
X119068390Y-102974285D02*
X119106485Y-102936190D01*
X119106485Y-102936190D02*
X119182676Y-102898094D01*
X119182676Y-102898094D02*
X119296961Y-102898094D01*
X119296961Y-102898094D02*
X119373152Y-102936190D01*
X119373152Y-102936190D02*
X119411247Y-102974285D01*
X119411247Y-102974285D02*
X119449342Y-103050475D01*
X119449342Y-103050475D02*
X119449342Y-103355237D01*
X119792200Y-102593333D02*
X119830295Y-102479047D01*
X119830295Y-102479047D02*
X119830295Y-102288571D01*
X119830295Y-102288571D02*
X119792200Y-102212380D01*
X119792200Y-102212380D02*
X119754104Y-102174285D01*
X119754104Y-102174285D02*
X119677914Y-102136190D01*
X119677914Y-102136190D02*
X119601723Y-102136190D01*
X119601723Y-102136190D02*
X119525533Y-102174285D01*
X119525533Y-102174285D02*
X119487438Y-102212380D01*
X119487438Y-102212380D02*
X119449342Y-102288571D01*
X119449342Y-102288571D02*
X119411247Y-102440952D01*
X119411247Y-102440952D02*
X119373152Y-102517142D01*
X119373152Y-102517142D02*
X119335057Y-102555237D01*
X119335057Y-102555237D02*
X119258866Y-102593333D01*
X119258866Y-102593333D02*
X119182676Y-102593333D01*
X119182676Y-102593333D02*
X119106485Y-102555237D01*
X119106485Y-102555237D02*
X119068390Y-102517142D01*
X119068390Y-102517142D02*
X119030295Y-102440952D01*
X119030295Y-102440952D02*
X119030295Y-102250475D01*
X119030295Y-102250475D02*
X119068390Y-102136190D01*
X119030295Y-101907618D02*
X119030295Y-101450475D01*
X119830295Y-101679047D02*
X119030295Y-101679047D01*
X124572744Y-101600390D02*
X124496554Y-101562295D01*
X124496554Y-101562295D02*
X124382268Y-101562295D01*
X124382268Y-101562295D02*
X124267982Y-101600390D01*
X124267982Y-101600390D02*
X124191792Y-101676580D01*
X124191792Y-101676580D02*
X124153697Y-101752771D01*
X124153697Y-101752771D02*
X124115601Y-101905152D01*
X124115601Y-101905152D02*
X124115601Y-102019438D01*
X124115601Y-102019438D02*
X124153697Y-102171819D01*
X124153697Y-102171819D02*
X124191792Y-102248009D01*
X124191792Y-102248009D02*
X124267982Y-102324200D01*
X124267982Y-102324200D02*
X124382268Y-102362295D01*
X124382268Y-102362295D02*
X124458459Y-102362295D01*
X124458459Y-102362295D02*
X124572744Y-102324200D01*
X124572744Y-102324200D02*
X124610840Y-102286104D01*
X124610840Y-102286104D02*
X124610840Y-102019438D01*
X124610840Y-102019438D02*
X124458459Y-102019438D01*
X124953697Y-102362295D02*
X124953697Y-101562295D01*
X124953697Y-101562295D02*
X125410840Y-102362295D01*
X125410840Y-102362295D02*
X125410840Y-101562295D01*
X125791792Y-102362295D02*
X125791792Y-101562295D01*
X125791792Y-101562295D02*
X125982268Y-101562295D01*
X125982268Y-101562295D02*
X126096554Y-101600390D01*
X126096554Y-101600390D02*
X126172744Y-101676580D01*
X126172744Y-101676580D02*
X126210839Y-101752771D01*
X126210839Y-101752771D02*
X126248935Y-101905152D01*
X126248935Y-101905152D02*
X126248935Y-102019438D01*
X126248935Y-102019438D02*
X126210839Y-102171819D01*
X126210839Y-102171819D02*
X126172744Y-102248009D01*
X126172744Y-102248009D02*
X126096554Y-102324200D01*
X126096554Y-102324200D02*
X125982268Y-102362295D01*
X125982268Y-102362295D02*
X125791792Y-102362295D01*
X110894295Y-105899046D02*
X110094295Y-105899046D01*
X110094295Y-105899046D02*
X110094295Y-105708570D01*
X110094295Y-105708570D02*
X110132390Y-105594284D01*
X110132390Y-105594284D02*
X110208580Y-105518094D01*
X110208580Y-105518094D02*
X110284771Y-105479999D01*
X110284771Y-105479999D02*
X110437152Y-105441903D01*
X110437152Y-105441903D02*
X110551438Y-105441903D01*
X110551438Y-105441903D02*
X110703819Y-105479999D01*
X110703819Y-105479999D02*
X110780009Y-105518094D01*
X110780009Y-105518094D02*
X110856200Y-105594284D01*
X110856200Y-105594284D02*
X110894295Y-105708570D01*
X110894295Y-105708570D02*
X110894295Y-105899046D01*
X110894295Y-105099046D02*
X110094295Y-105099046D01*
X110094295Y-104565713D02*
X110094295Y-104413332D01*
X110094295Y-104413332D02*
X110132390Y-104337142D01*
X110132390Y-104337142D02*
X110208580Y-104260951D01*
X110208580Y-104260951D02*
X110360961Y-104222856D01*
X110360961Y-104222856D02*
X110627628Y-104222856D01*
X110627628Y-104222856D02*
X110780009Y-104260951D01*
X110780009Y-104260951D02*
X110856200Y-104337142D01*
X110856200Y-104337142D02*
X110894295Y-104413332D01*
X110894295Y-104413332D02*
X110894295Y-104565713D01*
X110894295Y-104565713D02*
X110856200Y-104641904D01*
X110856200Y-104641904D02*
X110780009Y-104718094D01*
X110780009Y-104718094D02*
X110627628Y-104756190D01*
X110627628Y-104756190D02*
X110360961Y-104756190D01*
X110360961Y-104756190D02*
X110208580Y-104718094D01*
X110208580Y-104718094D02*
X110132390Y-104641904D01*
X110132390Y-104641904D02*
X110094295Y-104565713D01*
X109301315Y-88862295D02*
X108920363Y-88862295D01*
X108920363Y-88862295D02*
X108920363Y-88062295D01*
X109567982Y-88443247D02*
X109834648Y-88443247D01*
X109948934Y-88862295D02*
X109567982Y-88862295D01*
X109567982Y-88862295D02*
X109567982Y-88062295D01*
X109567982Y-88062295D02*
X109948934Y-88062295D01*
X110291792Y-88862295D02*
X110291792Y-88062295D01*
X110291792Y-88062295D02*
X110482268Y-88062295D01*
X110482268Y-88062295D02*
X110596554Y-88100390D01*
X110596554Y-88100390D02*
X110672744Y-88176580D01*
X110672744Y-88176580D02*
X110710839Y-88252771D01*
X110710839Y-88252771D02*
X110748935Y-88405152D01*
X110748935Y-88405152D02*
X110748935Y-88519438D01*
X110748935Y-88519438D02*
X110710839Y-88671819D01*
X110710839Y-88671819D02*
X110672744Y-88748009D01*
X110672744Y-88748009D02*
X110596554Y-88824200D01*
X110596554Y-88824200D02*
X110482268Y-88862295D01*
X110482268Y-88862295D02*
X110291792Y-88862295D01*
X119068390Y-105609523D02*
X119030295Y-105685713D01*
X119030295Y-105685713D02*
X119030295Y-105799999D01*
X119030295Y-105799999D02*
X119068390Y-105914285D01*
X119068390Y-105914285D02*
X119144580Y-105990475D01*
X119144580Y-105990475D02*
X119220771Y-106028570D01*
X119220771Y-106028570D02*
X119373152Y-106066666D01*
X119373152Y-106066666D02*
X119487438Y-106066666D01*
X119487438Y-106066666D02*
X119639819Y-106028570D01*
X119639819Y-106028570D02*
X119716009Y-105990475D01*
X119716009Y-105990475D02*
X119792200Y-105914285D01*
X119792200Y-105914285D02*
X119830295Y-105799999D01*
X119830295Y-105799999D02*
X119830295Y-105723808D01*
X119830295Y-105723808D02*
X119792200Y-105609523D01*
X119792200Y-105609523D02*
X119754104Y-105571427D01*
X119754104Y-105571427D02*
X119487438Y-105571427D01*
X119487438Y-105571427D02*
X119487438Y-105723808D01*
X119830295Y-105228570D02*
X119030295Y-105228570D01*
X119030295Y-105228570D02*
X119830295Y-104771427D01*
X119830295Y-104771427D02*
X119030295Y-104771427D01*
X119830295Y-104390475D02*
X119030295Y-104390475D01*
X119030295Y-104390475D02*
X119030295Y-104199999D01*
X119030295Y-104199999D02*
X119068390Y-104085713D01*
X119068390Y-104085713D02*
X119144580Y-104009523D01*
X119144580Y-104009523D02*
X119220771Y-103971428D01*
X119220771Y-103971428D02*
X119373152Y-103933332D01*
X119373152Y-103933332D02*
X119487438Y-103933332D01*
X119487438Y-103933332D02*
X119639819Y-103971428D01*
X119639819Y-103971428D02*
X119716009Y-104009523D01*
X119716009Y-104009523D02*
X119792200Y-104085713D01*
X119792200Y-104085713D02*
X119830295Y-104199999D01*
X119830295Y-104199999D02*
X119830295Y-104390475D01*
X119792200Y-100891428D02*
X119830295Y-100777142D01*
X119830295Y-100777142D02*
X119830295Y-100586666D01*
X119830295Y-100586666D02*
X119792200Y-100510475D01*
X119792200Y-100510475D02*
X119754104Y-100472380D01*
X119754104Y-100472380D02*
X119677914Y-100434285D01*
X119677914Y-100434285D02*
X119601723Y-100434285D01*
X119601723Y-100434285D02*
X119525533Y-100472380D01*
X119525533Y-100472380D02*
X119487438Y-100510475D01*
X119487438Y-100510475D02*
X119449342Y-100586666D01*
X119449342Y-100586666D02*
X119411247Y-100739047D01*
X119411247Y-100739047D02*
X119373152Y-100815237D01*
X119373152Y-100815237D02*
X119335057Y-100853332D01*
X119335057Y-100853332D02*
X119258866Y-100891428D01*
X119258866Y-100891428D02*
X119182676Y-100891428D01*
X119182676Y-100891428D02*
X119106485Y-100853332D01*
X119106485Y-100853332D02*
X119068390Y-100815237D01*
X119068390Y-100815237D02*
X119030295Y-100739047D01*
X119030295Y-100739047D02*
X119030295Y-100548570D01*
X119030295Y-100548570D02*
X119068390Y-100434285D01*
X119830295Y-100091427D02*
X119030295Y-100091427D01*
X119030295Y-100091427D02*
X119030295Y-99900951D01*
X119030295Y-99900951D02*
X119068390Y-99786665D01*
X119068390Y-99786665D02*
X119144580Y-99710475D01*
X119144580Y-99710475D02*
X119220771Y-99672380D01*
X119220771Y-99672380D02*
X119373152Y-99634284D01*
X119373152Y-99634284D02*
X119487438Y-99634284D01*
X119487438Y-99634284D02*
X119639819Y-99672380D01*
X119639819Y-99672380D02*
X119716009Y-99710475D01*
X119716009Y-99710475D02*
X119792200Y-99786665D01*
X119792200Y-99786665D02*
X119830295Y-99900951D01*
X119830295Y-99900951D02*
X119830295Y-100091427D01*
X119601723Y-99329523D02*
X119601723Y-98948570D01*
X119830295Y-99405713D02*
X119030295Y-99139046D01*
X119030295Y-99139046D02*
X119830295Y-98872380D01*
X110818104Y-103016189D02*
X110856200Y-103054285D01*
X110856200Y-103054285D02*
X110894295Y-103168570D01*
X110894295Y-103168570D02*
X110894295Y-103244761D01*
X110894295Y-103244761D02*
X110856200Y-103359047D01*
X110856200Y-103359047D02*
X110780009Y-103435237D01*
X110780009Y-103435237D02*
X110703819Y-103473332D01*
X110703819Y-103473332D02*
X110551438Y-103511428D01*
X110551438Y-103511428D02*
X110437152Y-103511428D01*
X110437152Y-103511428D02*
X110284771Y-103473332D01*
X110284771Y-103473332D02*
X110208580Y-103435237D01*
X110208580Y-103435237D02*
X110132390Y-103359047D01*
X110132390Y-103359047D02*
X110094295Y-103244761D01*
X110094295Y-103244761D02*
X110094295Y-103168570D01*
X110094295Y-103168570D02*
X110132390Y-103054285D01*
X110132390Y-103054285D02*
X110170485Y-103016189D01*
X110894295Y-102292380D02*
X110894295Y-102673332D01*
X110894295Y-102673332D02*
X110094295Y-102673332D01*
X110894295Y-102025713D02*
X110094295Y-102025713D01*
X110894295Y-101568570D02*
X110437152Y-101911428D01*
X110094295Y-101568570D02*
X110551438Y-102025713D01*
X112690475Y-111824200D02*
X112804761Y-111862295D01*
X112804761Y-111862295D02*
X112995237Y-111862295D01*
X112995237Y-111862295D02*
X113071428Y-111824200D01*
X113071428Y-111824200D02*
X113109523Y-111786104D01*
X113109523Y-111786104D02*
X113147618Y-111709914D01*
X113147618Y-111709914D02*
X113147618Y-111633723D01*
X113147618Y-111633723D02*
X113109523Y-111557533D01*
X113109523Y-111557533D02*
X113071428Y-111519438D01*
X113071428Y-111519438D02*
X112995237Y-111481342D01*
X112995237Y-111481342D02*
X112842856Y-111443247D01*
X112842856Y-111443247D02*
X112766666Y-111405152D01*
X112766666Y-111405152D02*
X112728571Y-111367057D01*
X112728571Y-111367057D02*
X112690475Y-111290866D01*
X112690475Y-111290866D02*
X112690475Y-111214676D01*
X112690475Y-111214676D02*
X112728571Y-111138485D01*
X112728571Y-111138485D02*
X112766666Y-111100390D01*
X112766666Y-111100390D02*
X112842856Y-111062295D01*
X112842856Y-111062295D02*
X113033333Y-111062295D01*
X113033333Y-111062295D02*
X113147618Y-111100390D01*
X113414285Y-111062295D02*
X113604761Y-111862295D01*
X113604761Y-111862295D02*
X113757142Y-111290866D01*
X113757142Y-111290866D02*
X113909523Y-111862295D01*
X113909523Y-111862295D02*
X114100000Y-111062295D01*
X114861905Y-111786104D02*
X114823809Y-111824200D01*
X114823809Y-111824200D02*
X114709524Y-111862295D01*
X114709524Y-111862295D02*
X114633333Y-111862295D01*
X114633333Y-111862295D02*
X114519047Y-111824200D01*
X114519047Y-111824200D02*
X114442857Y-111748009D01*
X114442857Y-111748009D02*
X114404762Y-111671819D01*
X114404762Y-111671819D02*
X114366666Y-111519438D01*
X114366666Y-111519438D02*
X114366666Y-111405152D01*
X114366666Y-111405152D02*
X114404762Y-111252771D01*
X114404762Y-111252771D02*
X114442857Y-111176580D01*
X114442857Y-111176580D02*
X114519047Y-111100390D01*
X114519047Y-111100390D02*
X114633333Y-111062295D01*
X114633333Y-111062295D02*
X114709524Y-111062295D01*
X114709524Y-111062295D02*
X114823809Y-111100390D01*
X114823809Y-111100390D02*
X114861905Y-111138485D01*
X115585714Y-111862295D02*
X115204762Y-111862295D01*
X115204762Y-111862295D02*
X115204762Y-111062295D01*
X115852381Y-111862295D02*
X115852381Y-111062295D01*
X116309524Y-111862295D02*
X115966666Y-111405152D01*
X116309524Y-111062295D02*
X115852381Y-111519438D01*
X124156077Y-100324200D02*
X124270363Y-100362295D01*
X124270363Y-100362295D02*
X124460839Y-100362295D01*
X124460839Y-100362295D02*
X124537030Y-100324200D01*
X124537030Y-100324200D02*
X124575125Y-100286104D01*
X124575125Y-100286104D02*
X124613220Y-100209914D01*
X124613220Y-100209914D02*
X124613220Y-100133723D01*
X124613220Y-100133723D02*
X124575125Y-100057533D01*
X124575125Y-100057533D02*
X124537030Y-100019438D01*
X124537030Y-100019438D02*
X124460839Y-99981342D01*
X124460839Y-99981342D02*
X124308458Y-99943247D01*
X124308458Y-99943247D02*
X124232268Y-99905152D01*
X124232268Y-99905152D02*
X124194173Y-99867057D01*
X124194173Y-99867057D02*
X124156077Y-99790866D01*
X124156077Y-99790866D02*
X124156077Y-99714676D01*
X124156077Y-99714676D02*
X124194173Y-99638485D01*
X124194173Y-99638485D02*
X124232268Y-99600390D01*
X124232268Y-99600390D02*
X124308458Y-99562295D01*
X124308458Y-99562295D02*
X124498935Y-99562295D01*
X124498935Y-99562295D02*
X124613220Y-99600390D01*
X124956078Y-100362295D02*
X124956078Y-99562295D01*
X124956078Y-99562295D02*
X125146554Y-99562295D01*
X125146554Y-99562295D02*
X125260840Y-99600390D01*
X125260840Y-99600390D02*
X125337030Y-99676580D01*
X125337030Y-99676580D02*
X125375125Y-99752771D01*
X125375125Y-99752771D02*
X125413221Y-99905152D01*
X125413221Y-99905152D02*
X125413221Y-100019438D01*
X125413221Y-100019438D02*
X125375125Y-100171819D01*
X125375125Y-100171819D02*
X125337030Y-100248009D01*
X125337030Y-100248009D02*
X125260840Y-100324200D01*
X125260840Y-100324200D02*
X125146554Y-100362295D01*
X125146554Y-100362295D02*
X124956078Y-100362295D01*
X125717982Y-100133723D02*
X126098935Y-100133723D01*
X125641792Y-100362295D02*
X125908459Y-99562295D01*
X125908459Y-99562295D02*
X126175125Y-100362295D01*
X119525533Y-95948570D02*
X119525533Y-95339047D01*
X119830295Y-95643808D02*
X119220771Y-95643808D01*
X119030295Y-94577142D02*
X119030295Y-94958094D01*
X119030295Y-94958094D02*
X119411247Y-94996190D01*
X119411247Y-94996190D02*
X119373152Y-94958094D01*
X119373152Y-94958094D02*
X119335057Y-94881904D01*
X119335057Y-94881904D02*
X119335057Y-94691428D01*
X119335057Y-94691428D02*
X119373152Y-94615237D01*
X119373152Y-94615237D02*
X119411247Y-94577142D01*
X119411247Y-94577142D02*
X119487438Y-94539047D01*
X119487438Y-94539047D02*
X119677914Y-94539047D01*
X119677914Y-94539047D02*
X119754104Y-94577142D01*
X119754104Y-94577142D02*
X119792200Y-94615237D01*
X119792200Y-94615237D02*
X119830295Y-94691428D01*
X119830295Y-94691428D02*
X119830295Y-94881904D01*
X119830295Y-94881904D02*
X119792200Y-94958094D01*
X119792200Y-94958094D02*
X119754104Y-94996190D01*
X119030295Y-94310475D02*
X119830295Y-94043808D01*
X119830295Y-94043808D02*
X119030295Y-93777142D01*
X102774874Y-100562295D02*
X103232017Y-100562295D01*
X103003445Y-101362295D02*
X103003445Y-100562295D01*
X103422493Y-100562295D02*
X103955827Y-101362295D01*
X103955827Y-100562295D02*
X103422493Y-101362295D01*
X114712969Y-88062295D02*
X114903445Y-88862295D01*
X114903445Y-88862295D02*
X115055826Y-88290866D01*
X115055826Y-88290866D02*
X115208207Y-88862295D01*
X115208207Y-88862295D02*
X115398684Y-88062295D01*
X115665350Y-88633723D02*
X116046303Y-88633723D01*
X115589160Y-88862295D02*
X115855827Y-88062295D01*
X115855827Y-88062295D02*
X116122493Y-88862295D01*
X116389160Y-88862295D02*
X116389160Y-88062295D01*
X116846303Y-88862295D02*
X116503445Y-88405152D01*
X116846303Y-88062295D02*
X116389160Y-88519438D01*
X117189160Y-88443247D02*
X117455826Y-88443247D01*
X117570112Y-88862295D02*
X117189160Y-88862295D01*
X117189160Y-88862295D02*
X117189160Y-88062295D01*
X117189160Y-88062295D02*
X117570112Y-88062295D01*
X110094295Y-98069523D02*
X110094295Y-97612380D01*
X110894295Y-97840952D02*
X110094295Y-97840952D01*
X110094295Y-97421904D02*
X110894295Y-96888570D01*
X110094295Y-96888570D02*
X110894295Y-97421904D01*
X118289160Y-88557533D02*
X118898684Y-88557533D01*
X118593922Y-88862295D02*
X118593922Y-88252771D01*
X119203445Y-88062295D02*
X119698683Y-88062295D01*
X119698683Y-88062295D02*
X119432017Y-88367057D01*
X119432017Y-88367057D02*
X119546302Y-88367057D01*
X119546302Y-88367057D02*
X119622493Y-88405152D01*
X119622493Y-88405152D02*
X119660588Y-88443247D01*
X119660588Y-88443247D02*
X119698683Y-88519438D01*
X119698683Y-88519438D02*
X119698683Y-88709914D01*
X119698683Y-88709914D02*
X119660588Y-88786104D01*
X119660588Y-88786104D02*
X119622493Y-88824200D01*
X119622493Y-88824200D02*
X119546302Y-88862295D01*
X119546302Y-88862295D02*
X119317731Y-88862295D01*
X119317731Y-88862295D02*
X119241540Y-88824200D01*
X119241540Y-88824200D02*
X119203445Y-88786104D01*
X120041541Y-88786104D02*
X120079636Y-88824200D01*
X120079636Y-88824200D02*
X120041541Y-88862295D01*
X120041541Y-88862295D02*
X120003445Y-88824200D01*
X120003445Y-88824200D02*
X120041541Y-88786104D01*
X120041541Y-88786104D02*
X120041541Y-88862295D01*
X120346302Y-88062295D02*
X120841540Y-88062295D01*
X120841540Y-88062295D02*
X120574874Y-88367057D01*
X120574874Y-88367057D02*
X120689159Y-88367057D01*
X120689159Y-88367057D02*
X120765350Y-88405152D01*
X120765350Y-88405152D02*
X120803445Y-88443247D01*
X120803445Y-88443247D02*
X120841540Y-88519438D01*
X120841540Y-88519438D02*
X120841540Y-88709914D01*
X120841540Y-88709914D02*
X120803445Y-88786104D01*
X120803445Y-88786104D02*
X120765350Y-88824200D01*
X120765350Y-88824200D02*
X120689159Y-88862295D01*
X120689159Y-88862295D02*
X120460588Y-88862295D01*
X120460588Y-88862295D02*
X120384397Y-88824200D01*
X120384397Y-88824200D02*
X120346302Y-88786104D01*
X121070112Y-88062295D02*
X121336779Y-88862295D01*
X121336779Y-88862295D02*
X121603445Y-88062295D01*
X111772744Y-88443247D02*
X111887030Y-88481342D01*
X111887030Y-88481342D02*
X111925125Y-88519438D01*
X111925125Y-88519438D02*
X111963221Y-88595628D01*
X111963221Y-88595628D02*
X111963221Y-88709914D01*
X111963221Y-88709914D02*
X111925125Y-88786104D01*
X111925125Y-88786104D02*
X111887030Y-88824200D01*
X111887030Y-88824200D02*
X111810840Y-88862295D01*
X111810840Y-88862295D02*
X111506078Y-88862295D01*
X111506078Y-88862295D02*
X111506078Y-88062295D01*
X111506078Y-88062295D02*
X111772744Y-88062295D01*
X111772744Y-88062295D02*
X111848935Y-88100390D01*
X111848935Y-88100390D02*
X111887030Y-88138485D01*
X111887030Y-88138485D02*
X111925125Y-88214676D01*
X111925125Y-88214676D02*
X111925125Y-88290866D01*
X111925125Y-88290866D02*
X111887030Y-88367057D01*
X111887030Y-88367057D02*
X111848935Y-88405152D01*
X111848935Y-88405152D02*
X111772744Y-88443247D01*
X111772744Y-88443247D02*
X111506078Y-88443247D01*
X112458459Y-88062295D02*
X112610840Y-88062295D01*
X112610840Y-88062295D02*
X112687030Y-88100390D01*
X112687030Y-88100390D02*
X112763221Y-88176580D01*
X112763221Y-88176580D02*
X112801316Y-88328961D01*
X112801316Y-88328961D02*
X112801316Y-88595628D01*
X112801316Y-88595628D02*
X112763221Y-88748009D01*
X112763221Y-88748009D02*
X112687030Y-88824200D01*
X112687030Y-88824200D02*
X112610840Y-88862295D01*
X112610840Y-88862295D02*
X112458459Y-88862295D01*
X112458459Y-88862295D02*
X112382268Y-88824200D01*
X112382268Y-88824200D02*
X112306078Y-88748009D01*
X112306078Y-88748009D02*
X112267982Y-88595628D01*
X112267982Y-88595628D02*
X112267982Y-88328961D01*
X112267982Y-88328961D02*
X112306078Y-88176580D01*
X112306078Y-88176580D02*
X112382268Y-88100390D01*
X112382268Y-88100390D02*
X112458459Y-88062295D01*
X113296554Y-88062295D02*
X113448935Y-88062295D01*
X113448935Y-88062295D02*
X113525125Y-88100390D01*
X113525125Y-88100390D02*
X113601316Y-88176580D01*
X113601316Y-88176580D02*
X113639411Y-88328961D01*
X113639411Y-88328961D02*
X113639411Y-88595628D01*
X113639411Y-88595628D02*
X113601316Y-88748009D01*
X113601316Y-88748009D02*
X113525125Y-88824200D01*
X113525125Y-88824200D02*
X113448935Y-88862295D01*
X113448935Y-88862295D02*
X113296554Y-88862295D01*
X113296554Y-88862295D02*
X113220363Y-88824200D01*
X113220363Y-88824200D02*
X113144173Y-88748009D01*
X113144173Y-88748009D02*
X113106077Y-88595628D01*
X113106077Y-88595628D02*
X113106077Y-88328961D01*
X113106077Y-88328961D02*
X113144173Y-88176580D01*
X113144173Y-88176580D02*
X113220363Y-88100390D01*
X113220363Y-88100390D02*
X113296554Y-88062295D01*
X113867982Y-88062295D02*
X114325125Y-88062295D01*
X114096553Y-88862295D02*
X114096553Y-88062295D01*
X108858458Y-111824200D02*
X108972744Y-111862295D01*
X108972744Y-111862295D02*
X109163220Y-111862295D01*
X109163220Y-111862295D02*
X109239411Y-111824200D01*
X109239411Y-111824200D02*
X109277506Y-111786104D01*
X109277506Y-111786104D02*
X109315601Y-111709914D01*
X109315601Y-111709914D02*
X109315601Y-111633723D01*
X109315601Y-111633723D02*
X109277506Y-111557533D01*
X109277506Y-111557533D02*
X109239411Y-111519438D01*
X109239411Y-111519438D02*
X109163220Y-111481342D01*
X109163220Y-111481342D02*
X109010839Y-111443247D01*
X109010839Y-111443247D02*
X108934649Y-111405152D01*
X108934649Y-111405152D02*
X108896554Y-111367057D01*
X108896554Y-111367057D02*
X108858458Y-111290866D01*
X108858458Y-111290866D02*
X108858458Y-111214676D01*
X108858458Y-111214676D02*
X108896554Y-111138485D01*
X108896554Y-111138485D02*
X108934649Y-111100390D01*
X108934649Y-111100390D02*
X109010839Y-111062295D01*
X109010839Y-111062295D02*
X109201316Y-111062295D01*
X109201316Y-111062295D02*
X109315601Y-111100390D01*
X109582268Y-111062295D02*
X109772744Y-111862295D01*
X109772744Y-111862295D02*
X109925125Y-111290866D01*
X109925125Y-111290866D02*
X110077506Y-111862295D01*
X110077506Y-111862295D02*
X110267983Y-111062295D01*
X110572745Y-111862295D02*
X110572745Y-111062295D01*
X110572745Y-111062295D02*
X110763221Y-111062295D01*
X110763221Y-111062295D02*
X110877507Y-111100390D01*
X110877507Y-111100390D02*
X110953697Y-111176580D01*
X110953697Y-111176580D02*
X110991792Y-111252771D01*
X110991792Y-111252771D02*
X111029888Y-111405152D01*
X111029888Y-111405152D02*
X111029888Y-111519438D01*
X111029888Y-111519438D02*
X110991792Y-111671819D01*
X110991792Y-111671819D02*
X110953697Y-111748009D01*
X110953697Y-111748009D02*
X110877507Y-111824200D01*
X110877507Y-111824200D02*
X110763221Y-111862295D01*
X110763221Y-111862295D02*
X110572745Y-111862295D01*
X111372745Y-111862295D02*
X111372745Y-111062295D01*
X111906078Y-111062295D02*
X112058459Y-111062295D01*
X112058459Y-111062295D02*
X112134649Y-111100390D01*
X112134649Y-111100390D02*
X112210840Y-111176580D01*
X112210840Y-111176580D02*
X112248935Y-111328961D01*
X112248935Y-111328961D02*
X112248935Y-111595628D01*
X112248935Y-111595628D02*
X112210840Y-111748009D01*
X112210840Y-111748009D02*
X112134649Y-111824200D01*
X112134649Y-111824200D02*
X112058459Y-111862295D01*
X112058459Y-111862295D02*
X111906078Y-111862295D01*
X111906078Y-111862295D02*
X111829887Y-111824200D01*
X111829887Y-111824200D02*
X111753697Y-111748009D01*
X111753697Y-111748009D02*
X111715601Y-111595628D01*
X111715601Y-111595628D02*
X111715601Y-111328961D01*
X111715601Y-111328961D02*
X111753697Y-111176580D01*
X111753697Y-111176580D02*
X111829887Y-111100390D01*
X111829887Y-111100390D02*
X111906078Y-111062295D01*
X103346303Y-99362295D02*
X103079636Y-98981342D01*
X102889160Y-99362295D02*
X102889160Y-98562295D01*
X102889160Y-98562295D02*
X103193922Y-98562295D01*
X103193922Y-98562295D02*
X103270112Y-98600390D01*
X103270112Y-98600390D02*
X103308207Y-98638485D01*
X103308207Y-98638485D02*
X103346303Y-98714676D01*
X103346303Y-98714676D02*
X103346303Y-98828961D01*
X103346303Y-98828961D02*
X103308207Y-98905152D01*
X103308207Y-98905152D02*
X103270112Y-98943247D01*
X103270112Y-98943247D02*
X103193922Y-98981342D01*
X103193922Y-98981342D02*
X102889160Y-98981342D01*
X103612969Y-98562295D02*
X104146303Y-99362295D01*
X104146303Y-98562295D02*
X103612969Y-99362295D01*
D11*
X130400000Y-99995000D02*
G75*
G02*
X98600000Y-99995000I-15900000J0D01*
G01*
X98600000Y-99995000D02*
G75*
G02*
X130400000Y-99995000I15900000J0D01*
G01*
D10*
X89761905Y-99454819D02*
X89761905Y-98454819D01*
X89761905Y-98454819D02*
X90000000Y-98454819D01*
X90000000Y-98454819D02*
X90142857Y-98502438D01*
X90142857Y-98502438D02*
X90238095Y-98597676D01*
X90238095Y-98597676D02*
X90285714Y-98692914D01*
X90285714Y-98692914D02*
X90333333Y-98883390D01*
X90333333Y-98883390D02*
X90333333Y-99026247D01*
X90333333Y-99026247D02*
X90285714Y-99216723D01*
X90285714Y-99216723D02*
X90238095Y-99311961D01*
X90238095Y-99311961D02*
X90142857Y-99407200D01*
X90142857Y-99407200D02*
X90000000Y-99454819D01*
X90000000Y-99454819D02*
X89761905Y-99454819D01*
X91190476Y-98788152D02*
X91190476Y-99454819D01*
X90952381Y-98407200D02*
X90714286Y-99121485D01*
X90714286Y-99121485D02*
X91333333Y-99121485D01*
X89761905Y-95454819D02*
X89761905Y-94454819D01*
X89761905Y-94454819D02*
X90000000Y-94454819D01*
X90000000Y-94454819D02*
X90142857Y-94502438D01*
X90142857Y-94502438D02*
X90238095Y-94597676D01*
X90238095Y-94597676D02*
X90285714Y-94692914D01*
X90285714Y-94692914D02*
X90333333Y-94883390D01*
X90333333Y-94883390D02*
X90333333Y-95026247D01*
X90333333Y-95026247D02*
X90285714Y-95216723D01*
X90285714Y-95216723D02*
X90238095Y-95311961D01*
X90238095Y-95311961D02*
X90142857Y-95407200D01*
X90142857Y-95407200D02*
X90000000Y-95454819D01*
X90000000Y-95454819D02*
X89761905Y-95454819D01*
X90666667Y-94454819D02*
X91285714Y-94454819D01*
X91285714Y-94454819D02*
X90952381Y-94835771D01*
X90952381Y-94835771D02*
X91095238Y-94835771D01*
X91095238Y-94835771D02*
X91190476Y-94883390D01*
X91190476Y-94883390D02*
X91238095Y-94931009D01*
X91238095Y-94931009D02*
X91285714Y-95026247D01*
X91285714Y-95026247D02*
X91285714Y-95264342D01*
X91285714Y-95264342D02*
X91238095Y-95359580D01*
X91238095Y-95359580D02*
X91190476Y-95407200D01*
X91190476Y-95407200D02*
X91095238Y-95454819D01*
X91095238Y-95454819D02*
X90809524Y-95454819D01*
X90809524Y-95454819D02*
X90714286Y-95407200D01*
X90714286Y-95407200D02*
X90666667Y-95359580D01*
X62954819Y-107238094D02*
X61954819Y-107238094D01*
X61954819Y-107238094D02*
X61954819Y-106999999D01*
X61954819Y-106999999D02*
X62002438Y-106857142D01*
X62002438Y-106857142D02*
X62097676Y-106761904D01*
X62097676Y-106761904D02*
X62192914Y-106714285D01*
X62192914Y-106714285D02*
X62383390Y-106666666D01*
X62383390Y-106666666D02*
X62526247Y-106666666D01*
X62526247Y-106666666D02*
X62716723Y-106714285D01*
X62716723Y-106714285D02*
X62811961Y-106761904D01*
X62811961Y-106761904D02*
X62907200Y-106857142D01*
X62907200Y-106857142D02*
X62954819Y-106999999D01*
X62954819Y-106999999D02*
X62954819Y-107238094D01*
X62050057Y-106285713D02*
X62002438Y-106238094D01*
X62002438Y-106238094D02*
X61954819Y-106142856D01*
X61954819Y-106142856D02*
X61954819Y-105904761D01*
X61954819Y-105904761D02*
X62002438Y-105809523D01*
X62002438Y-105809523D02*
X62050057Y-105761904D01*
X62050057Y-105761904D02*
X62145295Y-105714285D01*
X62145295Y-105714285D02*
X62240533Y-105714285D01*
X62240533Y-105714285D02*
X62383390Y-105761904D01*
X62383390Y-105761904D02*
X62954819Y-106333332D01*
X62954819Y-106333332D02*
X62954819Y-105714285D01*
X72362295Y-83661904D02*
X71981342Y-83928571D01*
X72362295Y-84119047D02*
X71562295Y-84119047D01*
X71562295Y-84119047D02*
X71562295Y-83814285D01*
X71562295Y-83814285D02*
X71600390Y-83738095D01*
X71600390Y-83738095D02*
X71638485Y-83700000D01*
X71638485Y-83700000D02*
X71714676Y-83661904D01*
X71714676Y-83661904D02*
X71828961Y-83661904D01*
X71828961Y-83661904D02*
X71905152Y-83700000D01*
X71905152Y-83700000D02*
X71943247Y-83738095D01*
X71943247Y-83738095D02*
X71981342Y-83814285D01*
X71981342Y-83814285D02*
X71981342Y-84119047D01*
X71943247Y-83319047D02*
X71943247Y-83052381D01*
X72362295Y-82938095D02*
X72362295Y-83319047D01*
X72362295Y-83319047D02*
X71562295Y-83319047D01*
X71562295Y-83319047D02*
X71562295Y-82938095D01*
X72324200Y-82633333D02*
X72362295Y-82519047D01*
X72362295Y-82519047D02*
X72362295Y-82328571D01*
X72362295Y-82328571D02*
X72324200Y-82252380D01*
X72324200Y-82252380D02*
X72286104Y-82214285D01*
X72286104Y-82214285D02*
X72209914Y-82176190D01*
X72209914Y-82176190D02*
X72133723Y-82176190D01*
X72133723Y-82176190D02*
X72057533Y-82214285D01*
X72057533Y-82214285D02*
X72019438Y-82252380D01*
X72019438Y-82252380D02*
X71981342Y-82328571D01*
X71981342Y-82328571D02*
X71943247Y-82480952D01*
X71943247Y-82480952D02*
X71905152Y-82557142D01*
X71905152Y-82557142D02*
X71867057Y-82595237D01*
X71867057Y-82595237D02*
X71790866Y-82633333D01*
X71790866Y-82633333D02*
X71714676Y-82633333D01*
X71714676Y-82633333D02*
X71638485Y-82595237D01*
X71638485Y-82595237D02*
X71600390Y-82557142D01*
X71600390Y-82557142D02*
X71562295Y-82480952D01*
X71562295Y-82480952D02*
X71562295Y-82290475D01*
X71562295Y-82290475D02*
X71600390Y-82176190D01*
X71943247Y-81833332D02*
X71943247Y-81566666D01*
X72362295Y-81452380D02*
X72362295Y-81833332D01*
X72362295Y-81833332D02*
X71562295Y-81833332D01*
X71562295Y-81833332D02*
X71562295Y-81452380D01*
X71562295Y-81223808D02*
X71562295Y-80766665D01*
X72362295Y-80995237D02*
X71562295Y-80995237D01*
X118562295Y-113766666D02*
X119133723Y-113766666D01*
X119133723Y-113766666D02*
X119248009Y-113804761D01*
X119248009Y-113804761D02*
X119324200Y-113880952D01*
X119324200Y-113880952D02*
X119362295Y-113995237D01*
X119362295Y-113995237D02*
X119362295Y-114071428D01*
X118828961Y-113042856D02*
X119362295Y-113042856D01*
X118524200Y-113233332D02*
X119095628Y-113423809D01*
X119095628Y-113423809D02*
X119095628Y-112928570D01*
X127733333Y-95062295D02*
X127733333Y-95633723D01*
X127733333Y-95633723D02*
X127695238Y-95748009D01*
X127695238Y-95748009D02*
X127619047Y-95824200D01*
X127619047Y-95824200D02*
X127504762Y-95862295D01*
X127504762Y-95862295D02*
X127428571Y-95862295D01*
X128038095Y-95062295D02*
X128533333Y-95062295D01*
X128533333Y-95062295D02*
X128266667Y-95367057D01*
X128266667Y-95367057D02*
X128380952Y-95367057D01*
X128380952Y-95367057D02*
X128457143Y-95405152D01*
X128457143Y-95405152D02*
X128495238Y-95443247D01*
X128495238Y-95443247D02*
X128533333Y-95519438D01*
X128533333Y-95519438D02*
X128533333Y-95709914D01*
X128533333Y-95709914D02*
X128495238Y-95786104D01*
X128495238Y-95786104D02*
X128457143Y-95824200D01*
X128457143Y-95824200D02*
X128380952Y-95862295D01*
X128380952Y-95862295D02*
X128152381Y-95862295D01*
X128152381Y-95862295D02*
X128076190Y-95824200D01*
X128076190Y-95824200D02*
X128038095Y-95786104D01*
X119454819Y-86833333D02*
X120169104Y-86833333D01*
X120169104Y-86833333D02*
X120311961Y-86880952D01*
X120311961Y-86880952D02*
X120407200Y-86976190D01*
X120407200Y-86976190D02*
X120454819Y-87119047D01*
X120454819Y-87119047D02*
X120454819Y-87214285D01*
X119454819Y-85880952D02*
X119454819Y-86357142D01*
X119454819Y-86357142D02*
X119931009Y-86404761D01*
X119931009Y-86404761D02*
X119883390Y-86357142D01*
X119883390Y-86357142D02*
X119835771Y-86261904D01*
X119835771Y-86261904D02*
X119835771Y-86023809D01*
X119835771Y-86023809D02*
X119883390Y-85928571D01*
X119883390Y-85928571D02*
X119931009Y-85880952D01*
X119931009Y-85880952D02*
X120026247Y-85833333D01*
X120026247Y-85833333D02*
X120264342Y-85833333D01*
X120264342Y-85833333D02*
X120359580Y-85880952D01*
X120359580Y-85880952D02*
X120407200Y-85928571D01*
X120407200Y-85928571D02*
X120454819Y-86023809D01*
X120454819Y-86023809D02*
X120454819Y-86261904D01*
X120454819Y-86261904D02*
X120407200Y-86357142D01*
X120407200Y-86357142D02*
X120359580Y-86404761D01*
X100733333Y-94062295D02*
X100733333Y-94633723D01*
X100733333Y-94633723D02*
X100695238Y-94748009D01*
X100695238Y-94748009D02*
X100619047Y-94824200D01*
X100619047Y-94824200D02*
X100504762Y-94862295D01*
X100504762Y-94862295D02*
X100428571Y-94862295D01*
X101076190Y-94138485D02*
X101114286Y-94100390D01*
X101114286Y-94100390D02*
X101190476Y-94062295D01*
X101190476Y-94062295D02*
X101380952Y-94062295D01*
X101380952Y-94062295D02*
X101457143Y-94100390D01*
X101457143Y-94100390D02*
X101495238Y-94138485D01*
X101495238Y-94138485D02*
X101533333Y-94214676D01*
X101533333Y-94214676D02*
X101533333Y-94290866D01*
X101533333Y-94290866D02*
X101495238Y-94405152D01*
X101495238Y-94405152D02*
X101038095Y-94862295D01*
X101038095Y-94862295D02*
X101533333Y-94862295D01*
X71166666Y-109954819D02*
X71166666Y-110669104D01*
X71166666Y-110669104D02*
X71119047Y-110811961D01*
X71119047Y-110811961D02*
X71023809Y-110907200D01*
X71023809Y-110907200D02*
X70880952Y-110954819D01*
X70880952Y-110954819D02*
X70785714Y-110954819D01*
X71547619Y-109954819D02*
X72214285Y-109954819D01*
X72214285Y-109954819D02*
X71785714Y-110954819D01*
X65204819Y-89916666D02*
X64728628Y-90249999D01*
X65204819Y-90488094D02*
X64204819Y-90488094D01*
X64204819Y-90488094D02*
X64204819Y-90107142D01*
X64204819Y-90107142D02*
X64252438Y-90011904D01*
X64252438Y-90011904D02*
X64300057Y-89964285D01*
X64300057Y-89964285D02*
X64395295Y-89916666D01*
X64395295Y-89916666D02*
X64538152Y-89916666D01*
X64538152Y-89916666D02*
X64633390Y-89964285D01*
X64633390Y-89964285D02*
X64681009Y-90011904D01*
X64681009Y-90011904D02*
X64728628Y-90107142D01*
X64728628Y-90107142D02*
X64728628Y-90488094D01*
X64204819Y-89583332D02*
X64204819Y-88964285D01*
X64204819Y-88964285D02*
X64585771Y-89297618D01*
X64585771Y-89297618D02*
X64585771Y-89154761D01*
X64585771Y-89154761D02*
X64633390Y-89059523D01*
X64633390Y-89059523D02*
X64681009Y-89011904D01*
X64681009Y-89011904D02*
X64776247Y-88964285D01*
X64776247Y-88964285D02*
X65014342Y-88964285D01*
X65014342Y-88964285D02*
X65109580Y-89011904D01*
X65109580Y-89011904D02*
X65157200Y-89059523D01*
X65157200Y-89059523D02*
X65204819Y-89154761D01*
X65204819Y-89154761D02*
X65204819Y-89440475D01*
X65204819Y-89440475D02*
X65157200Y-89535713D01*
X65157200Y-89535713D02*
X65109580Y-89583332D01*
X64954819Y-101761904D02*
X65764342Y-101761904D01*
X65764342Y-101761904D02*
X65859580Y-101714285D01*
X65859580Y-101714285D02*
X65907200Y-101666666D01*
X65907200Y-101666666D02*
X65954819Y-101571428D01*
X65954819Y-101571428D02*
X65954819Y-101380952D01*
X65954819Y-101380952D02*
X65907200Y-101285714D01*
X65907200Y-101285714D02*
X65859580Y-101238095D01*
X65859580Y-101238095D02*
X65764342Y-101190476D01*
X65764342Y-101190476D02*
X64954819Y-101190476D01*
X64954819Y-100809523D02*
X64954819Y-100190476D01*
X64954819Y-100190476D02*
X65335771Y-100523809D01*
X65335771Y-100523809D02*
X65335771Y-100380952D01*
X65335771Y-100380952D02*
X65383390Y-100285714D01*
X65383390Y-100285714D02*
X65431009Y-100238095D01*
X65431009Y-100238095D02*
X65526247Y-100190476D01*
X65526247Y-100190476D02*
X65764342Y-100190476D01*
X65764342Y-100190476D02*
X65859580Y-100238095D01*
X65859580Y-100238095D02*
X65907200Y-100285714D01*
X65907200Y-100285714D02*
X65954819Y-100380952D01*
X65954819Y-100380952D02*
X65954819Y-100666666D01*
X65954819Y-100666666D02*
X65907200Y-100761904D01*
X65907200Y-100761904D02*
X65859580Y-100809523D01*
X90238095Y-103454819D02*
X90238095Y-104264342D01*
X90238095Y-104264342D02*
X90285714Y-104359580D01*
X90285714Y-104359580D02*
X90333333Y-104407200D01*
X90333333Y-104407200D02*
X90428571Y-104454819D01*
X90428571Y-104454819D02*
X90619047Y-104454819D01*
X90619047Y-104454819D02*
X90714285Y-104407200D01*
X90714285Y-104407200D02*
X90761904Y-104359580D01*
X90761904Y-104359580D02*
X90809523Y-104264342D01*
X90809523Y-104264342D02*
X90809523Y-103454819D01*
X91238095Y-103550057D02*
X91285714Y-103502438D01*
X91285714Y-103502438D02*
X91380952Y-103454819D01*
X91380952Y-103454819D02*
X91619047Y-103454819D01*
X91619047Y-103454819D02*
X91714285Y-103502438D01*
X91714285Y-103502438D02*
X91761904Y-103550057D01*
X91761904Y-103550057D02*
X91809523Y-103645295D01*
X91809523Y-103645295D02*
X91809523Y-103740533D01*
X91809523Y-103740533D02*
X91761904Y-103883390D01*
X91761904Y-103883390D02*
X91190476Y-104454819D01*
X91190476Y-104454819D02*
X91809523Y-104454819D01*
X67554819Y-107261904D02*
X68364342Y-107261904D01*
X68364342Y-107261904D02*
X68459580Y-107214285D01*
X68459580Y-107214285D02*
X68507200Y-107166666D01*
X68507200Y-107166666D02*
X68554819Y-107071428D01*
X68554819Y-107071428D02*
X68554819Y-106880952D01*
X68554819Y-106880952D02*
X68507200Y-106785714D01*
X68507200Y-106785714D02*
X68459580Y-106738095D01*
X68459580Y-106738095D02*
X68364342Y-106690476D01*
X68364342Y-106690476D02*
X67554819Y-106690476D01*
X68554819Y-105690476D02*
X68554819Y-106261904D01*
X68554819Y-105976190D02*
X67554819Y-105976190D01*
X67554819Y-105976190D02*
X67697676Y-106071428D01*
X67697676Y-106071428D02*
X67792914Y-106166666D01*
X67792914Y-106166666D02*
X67840533Y-106261904D01*
X94557533Y-89099999D02*
X94557533Y-88490476D01*
X94862295Y-88795237D02*
X94252771Y-88795237D01*
X94062295Y-88185714D02*
X94062295Y-87690476D01*
X94062295Y-87690476D02*
X94367057Y-87957142D01*
X94367057Y-87957142D02*
X94367057Y-87842857D01*
X94367057Y-87842857D02*
X94405152Y-87766666D01*
X94405152Y-87766666D02*
X94443247Y-87728571D01*
X94443247Y-87728571D02*
X94519438Y-87690476D01*
X94519438Y-87690476D02*
X94709914Y-87690476D01*
X94709914Y-87690476D02*
X94786104Y-87728571D01*
X94786104Y-87728571D02*
X94824200Y-87766666D01*
X94824200Y-87766666D02*
X94862295Y-87842857D01*
X94862295Y-87842857D02*
X94862295Y-88071428D01*
X94862295Y-88071428D02*
X94824200Y-88147619D01*
X94824200Y-88147619D02*
X94786104Y-88185714D01*
X94786104Y-87347618D02*
X94824200Y-87309523D01*
X94824200Y-87309523D02*
X94862295Y-87347618D01*
X94862295Y-87347618D02*
X94824200Y-87385714D01*
X94824200Y-87385714D02*
X94786104Y-87347618D01*
X94786104Y-87347618D02*
X94862295Y-87347618D01*
X94062295Y-87042857D02*
X94062295Y-86547619D01*
X94062295Y-86547619D02*
X94367057Y-86814285D01*
X94367057Y-86814285D02*
X94367057Y-86700000D01*
X94367057Y-86700000D02*
X94405152Y-86623809D01*
X94405152Y-86623809D02*
X94443247Y-86585714D01*
X94443247Y-86585714D02*
X94519438Y-86547619D01*
X94519438Y-86547619D02*
X94709914Y-86547619D01*
X94709914Y-86547619D02*
X94786104Y-86585714D01*
X94786104Y-86585714D02*
X94824200Y-86623809D01*
X94824200Y-86623809D02*
X94862295Y-86700000D01*
X94862295Y-86700000D02*
X94862295Y-86928571D01*
X94862295Y-86928571D02*
X94824200Y-87004762D01*
X94824200Y-87004762D02*
X94786104Y-87042857D01*
X94062295Y-86319047D02*
X94862295Y-86052380D01*
X94862295Y-86052380D02*
X94062295Y-85785714D01*
X76824200Y-84195238D02*
X76862295Y-84080952D01*
X76862295Y-84080952D02*
X76862295Y-83890476D01*
X76862295Y-83890476D02*
X76824200Y-83814285D01*
X76824200Y-83814285D02*
X76786104Y-83776190D01*
X76786104Y-83776190D02*
X76709914Y-83738095D01*
X76709914Y-83738095D02*
X76633723Y-83738095D01*
X76633723Y-83738095D02*
X76557533Y-83776190D01*
X76557533Y-83776190D02*
X76519438Y-83814285D01*
X76519438Y-83814285D02*
X76481342Y-83890476D01*
X76481342Y-83890476D02*
X76443247Y-84042857D01*
X76443247Y-84042857D02*
X76405152Y-84119047D01*
X76405152Y-84119047D02*
X76367057Y-84157142D01*
X76367057Y-84157142D02*
X76290866Y-84195238D01*
X76290866Y-84195238D02*
X76214676Y-84195238D01*
X76214676Y-84195238D02*
X76138485Y-84157142D01*
X76138485Y-84157142D02*
X76100390Y-84119047D01*
X76100390Y-84119047D02*
X76062295Y-84042857D01*
X76062295Y-84042857D02*
X76062295Y-83852380D01*
X76062295Y-83852380D02*
X76100390Y-83738095D01*
X76062295Y-83471428D02*
X76862295Y-83280952D01*
X76862295Y-83280952D02*
X76290866Y-83128571D01*
X76290866Y-83128571D02*
X76862295Y-82976190D01*
X76862295Y-82976190D02*
X76062295Y-82785714D01*
X76862295Y-82480951D02*
X76062295Y-82480951D01*
X76062295Y-82480951D02*
X76062295Y-82290475D01*
X76062295Y-82290475D02*
X76100390Y-82176189D01*
X76100390Y-82176189D02*
X76176580Y-82099999D01*
X76176580Y-82099999D02*
X76252771Y-82061904D01*
X76252771Y-82061904D02*
X76405152Y-82023808D01*
X76405152Y-82023808D02*
X76519438Y-82023808D01*
X76519438Y-82023808D02*
X76671819Y-82061904D01*
X76671819Y-82061904D02*
X76748009Y-82099999D01*
X76748009Y-82099999D02*
X76824200Y-82176189D01*
X76824200Y-82176189D02*
X76862295Y-82290475D01*
X76862295Y-82290475D02*
X76862295Y-82480951D01*
X76862295Y-81680951D02*
X76062295Y-81680951D01*
X76062295Y-81147618D02*
X76062295Y-80995237D01*
X76062295Y-80995237D02*
X76100390Y-80919047D01*
X76100390Y-80919047D02*
X76176580Y-80842856D01*
X76176580Y-80842856D02*
X76328961Y-80804761D01*
X76328961Y-80804761D02*
X76595628Y-80804761D01*
X76595628Y-80804761D02*
X76748009Y-80842856D01*
X76748009Y-80842856D02*
X76824200Y-80919047D01*
X76824200Y-80919047D02*
X76862295Y-80995237D01*
X76862295Y-80995237D02*
X76862295Y-81147618D01*
X76862295Y-81147618D02*
X76824200Y-81223809D01*
X76824200Y-81223809D02*
X76748009Y-81299999D01*
X76748009Y-81299999D02*
X76595628Y-81338095D01*
X76595628Y-81338095D02*
X76328961Y-81338095D01*
X76328961Y-81338095D02*
X76176580Y-81299999D01*
X76176580Y-81299999D02*
X76100390Y-81223809D01*
X76100390Y-81223809D02*
X76062295Y-81147618D01*
X76824200Y-89309524D02*
X76862295Y-89195238D01*
X76862295Y-89195238D02*
X76862295Y-89004762D01*
X76862295Y-89004762D02*
X76824200Y-88928571D01*
X76824200Y-88928571D02*
X76786104Y-88890476D01*
X76786104Y-88890476D02*
X76709914Y-88852381D01*
X76709914Y-88852381D02*
X76633723Y-88852381D01*
X76633723Y-88852381D02*
X76557533Y-88890476D01*
X76557533Y-88890476D02*
X76519438Y-88928571D01*
X76519438Y-88928571D02*
X76481342Y-89004762D01*
X76481342Y-89004762D02*
X76443247Y-89157143D01*
X76443247Y-89157143D02*
X76405152Y-89233333D01*
X76405152Y-89233333D02*
X76367057Y-89271428D01*
X76367057Y-89271428D02*
X76290866Y-89309524D01*
X76290866Y-89309524D02*
X76214676Y-89309524D01*
X76214676Y-89309524D02*
X76138485Y-89271428D01*
X76138485Y-89271428D02*
X76100390Y-89233333D01*
X76100390Y-89233333D02*
X76062295Y-89157143D01*
X76062295Y-89157143D02*
X76062295Y-88966666D01*
X76062295Y-88966666D02*
X76100390Y-88852381D01*
X76062295Y-88585714D02*
X76862295Y-88395238D01*
X76862295Y-88395238D02*
X76290866Y-88242857D01*
X76290866Y-88242857D02*
X76862295Y-88090476D01*
X76862295Y-88090476D02*
X76062295Y-87900000D01*
X76786104Y-87138094D02*
X76824200Y-87176190D01*
X76824200Y-87176190D02*
X76862295Y-87290475D01*
X76862295Y-87290475D02*
X76862295Y-87366666D01*
X76862295Y-87366666D02*
X76824200Y-87480952D01*
X76824200Y-87480952D02*
X76748009Y-87557142D01*
X76748009Y-87557142D02*
X76671819Y-87595237D01*
X76671819Y-87595237D02*
X76519438Y-87633333D01*
X76519438Y-87633333D02*
X76405152Y-87633333D01*
X76405152Y-87633333D02*
X76252771Y-87595237D01*
X76252771Y-87595237D02*
X76176580Y-87557142D01*
X76176580Y-87557142D02*
X76100390Y-87480952D01*
X76100390Y-87480952D02*
X76062295Y-87366666D01*
X76062295Y-87366666D02*
X76062295Y-87290475D01*
X76062295Y-87290475D02*
X76100390Y-87176190D01*
X76100390Y-87176190D02*
X76138485Y-87138094D01*
X76862295Y-86414285D02*
X76862295Y-86795237D01*
X76862295Y-86795237D02*
X76062295Y-86795237D01*
X76862295Y-86147618D02*
X76062295Y-86147618D01*
X76862295Y-85690475D02*
X76405152Y-86033333D01*
X76062295Y-85690475D02*
X76519438Y-86147618D01*
X89600390Y-83109523D02*
X89562295Y-83185713D01*
X89562295Y-83185713D02*
X89562295Y-83299999D01*
X89562295Y-83299999D02*
X89600390Y-83414285D01*
X89600390Y-83414285D02*
X89676580Y-83490475D01*
X89676580Y-83490475D02*
X89752771Y-83528570D01*
X89752771Y-83528570D02*
X89905152Y-83566666D01*
X89905152Y-83566666D02*
X90019438Y-83566666D01*
X90019438Y-83566666D02*
X90171819Y-83528570D01*
X90171819Y-83528570D02*
X90248009Y-83490475D01*
X90248009Y-83490475D02*
X90324200Y-83414285D01*
X90324200Y-83414285D02*
X90362295Y-83299999D01*
X90362295Y-83299999D02*
X90362295Y-83223808D01*
X90362295Y-83223808D02*
X90324200Y-83109523D01*
X90324200Y-83109523D02*
X90286104Y-83071427D01*
X90286104Y-83071427D02*
X90019438Y-83071427D01*
X90019438Y-83071427D02*
X90019438Y-83223808D01*
X90362295Y-82728570D02*
X89562295Y-82728570D01*
X89562295Y-82728570D02*
X90362295Y-82271427D01*
X90362295Y-82271427D02*
X89562295Y-82271427D01*
X90362295Y-81890475D02*
X89562295Y-81890475D01*
X89562295Y-81890475D02*
X89562295Y-81699999D01*
X89562295Y-81699999D02*
X89600390Y-81585713D01*
X89600390Y-81585713D02*
X89676580Y-81509523D01*
X89676580Y-81509523D02*
X89752771Y-81471428D01*
X89752771Y-81471428D02*
X89905152Y-81433332D01*
X89905152Y-81433332D02*
X90019438Y-81433332D01*
X90019438Y-81433332D02*
X90171819Y-81471428D01*
X90171819Y-81471428D02*
X90248009Y-81509523D01*
X90248009Y-81509523D02*
X90324200Y-81585713D01*
X90324200Y-81585713D02*
X90362295Y-81699999D01*
X90362295Y-81699999D02*
X90362295Y-81890475D01*
X89600390Y-88109523D02*
X89562295Y-88185713D01*
X89562295Y-88185713D02*
X89562295Y-88299999D01*
X89562295Y-88299999D02*
X89600390Y-88414285D01*
X89600390Y-88414285D02*
X89676580Y-88490475D01*
X89676580Y-88490475D02*
X89752771Y-88528570D01*
X89752771Y-88528570D02*
X89905152Y-88566666D01*
X89905152Y-88566666D02*
X90019438Y-88566666D01*
X90019438Y-88566666D02*
X90171819Y-88528570D01*
X90171819Y-88528570D02*
X90248009Y-88490475D01*
X90248009Y-88490475D02*
X90324200Y-88414285D01*
X90324200Y-88414285D02*
X90362295Y-88299999D01*
X90362295Y-88299999D02*
X90362295Y-88223808D01*
X90362295Y-88223808D02*
X90324200Y-88109523D01*
X90324200Y-88109523D02*
X90286104Y-88071427D01*
X90286104Y-88071427D02*
X90019438Y-88071427D01*
X90019438Y-88071427D02*
X90019438Y-88223808D01*
X90362295Y-87728570D02*
X89562295Y-87728570D01*
X89562295Y-87728570D02*
X90362295Y-87271427D01*
X90362295Y-87271427D02*
X89562295Y-87271427D01*
X90362295Y-86890475D02*
X89562295Y-86890475D01*
X89562295Y-86890475D02*
X89562295Y-86699999D01*
X89562295Y-86699999D02*
X89600390Y-86585713D01*
X89600390Y-86585713D02*
X89676580Y-86509523D01*
X89676580Y-86509523D02*
X89752771Y-86471428D01*
X89752771Y-86471428D02*
X89905152Y-86433332D01*
X89905152Y-86433332D02*
X90019438Y-86433332D01*
X90019438Y-86433332D02*
X90171819Y-86471428D01*
X90171819Y-86471428D02*
X90248009Y-86509523D01*
X90248009Y-86509523D02*
X90324200Y-86585713D01*
X90324200Y-86585713D02*
X90362295Y-86699999D01*
X90362295Y-86699999D02*
X90362295Y-86890475D01*
X94557533Y-84099999D02*
X94557533Y-83490476D01*
X94862295Y-83795237D02*
X94252771Y-83795237D01*
X94062295Y-83185714D02*
X94062295Y-82690476D01*
X94062295Y-82690476D02*
X94367057Y-82957142D01*
X94367057Y-82957142D02*
X94367057Y-82842857D01*
X94367057Y-82842857D02*
X94405152Y-82766666D01*
X94405152Y-82766666D02*
X94443247Y-82728571D01*
X94443247Y-82728571D02*
X94519438Y-82690476D01*
X94519438Y-82690476D02*
X94709914Y-82690476D01*
X94709914Y-82690476D02*
X94786104Y-82728571D01*
X94786104Y-82728571D02*
X94824200Y-82766666D01*
X94824200Y-82766666D02*
X94862295Y-82842857D01*
X94862295Y-82842857D02*
X94862295Y-83071428D01*
X94862295Y-83071428D02*
X94824200Y-83147619D01*
X94824200Y-83147619D02*
X94786104Y-83185714D01*
X94786104Y-82347618D02*
X94824200Y-82309523D01*
X94824200Y-82309523D02*
X94862295Y-82347618D01*
X94862295Y-82347618D02*
X94824200Y-82385714D01*
X94824200Y-82385714D02*
X94786104Y-82347618D01*
X94786104Y-82347618D02*
X94862295Y-82347618D01*
X94062295Y-82042857D02*
X94062295Y-81547619D01*
X94062295Y-81547619D02*
X94367057Y-81814285D01*
X94367057Y-81814285D02*
X94367057Y-81700000D01*
X94367057Y-81700000D02*
X94405152Y-81623809D01*
X94405152Y-81623809D02*
X94443247Y-81585714D01*
X94443247Y-81585714D02*
X94519438Y-81547619D01*
X94519438Y-81547619D02*
X94709914Y-81547619D01*
X94709914Y-81547619D02*
X94786104Y-81585714D01*
X94786104Y-81585714D02*
X94824200Y-81623809D01*
X94824200Y-81623809D02*
X94862295Y-81700000D01*
X94862295Y-81700000D02*
X94862295Y-81928571D01*
X94862295Y-81928571D02*
X94824200Y-82004762D01*
X94824200Y-82004762D02*
X94786104Y-82042857D01*
X94062295Y-81319047D02*
X94862295Y-81052380D01*
X94862295Y-81052380D02*
X94062295Y-80785714D01*
X81324200Y-83471428D02*
X81362295Y-83357142D01*
X81362295Y-83357142D02*
X81362295Y-83166666D01*
X81362295Y-83166666D02*
X81324200Y-83090475D01*
X81324200Y-83090475D02*
X81286104Y-83052380D01*
X81286104Y-83052380D02*
X81209914Y-83014285D01*
X81209914Y-83014285D02*
X81133723Y-83014285D01*
X81133723Y-83014285D02*
X81057533Y-83052380D01*
X81057533Y-83052380D02*
X81019438Y-83090475D01*
X81019438Y-83090475D02*
X80981342Y-83166666D01*
X80981342Y-83166666D02*
X80943247Y-83319047D01*
X80943247Y-83319047D02*
X80905152Y-83395237D01*
X80905152Y-83395237D02*
X80867057Y-83433332D01*
X80867057Y-83433332D02*
X80790866Y-83471428D01*
X80790866Y-83471428D02*
X80714676Y-83471428D01*
X80714676Y-83471428D02*
X80638485Y-83433332D01*
X80638485Y-83433332D02*
X80600390Y-83395237D01*
X80600390Y-83395237D02*
X80562295Y-83319047D01*
X80562295Y-83319047D02*
X80562295Y-83128570D01*
X80562295Y-83128570D02*
X80600390Y-83014285D01*
X81362295Y-82671427D02*
X80562295Y-82671427D01*
X80562295Y-82671427D02*
X80562295Y-82480951D01*
X80562295Y-82480951D02*
X80600390Y-82366665D01*
X80600390Y-82366665D02*
X80676580Y-82290475D01*
X80676580Y-82290475D02*
X80752771Y-82252380D01*
X80752771Y-82252380D02*
X80905152Y-82214284D01*
X80905152Y-82214284D02*
X81019438Y-82214284D01*
X81019438Y-82214284D02*
X81171819Y-82252380D01*
X81171819Y-82252380D02*
X81248009Y-82290475D01*
X81248009Y-82290475D02*
X81324200Y-82366665D01*
X81324200Y-82366665D02*
X81362295Y-82480951D01*
X81362295Y-82480951D02*
X81362295Y-82671427D01*
X81133723Y-81909523D02*
X81133723Y-81528570D01*
X81362295Y-81985713D02*
X80562295Y-81719046D01*
X80562295Y-81719046D02*
X81362295Y-81452380D01*
X81324200Y-88452381D02*
X81362295Y-88338095D01*
X81362295Y-88338095D02*
X81362295Y-88147619D01*
X81362295Y-88147619D02*
X81324200Y-88071428D01*
X81324200Y-88071428D02*
X81286104Y-88033333D01*
X81286104Y-88033333D02*
X81209914Y-87995238D01*
X81209914Y-87995238D02*
X81133723Y-87995238D01*
X81133723Y-87995238D02*
X81057533Y-88033333D01*
X81057533Y-88033333D02*
X81019438Y-88071428D01*
X81019438Y-88071428D02*
X80981342Y-88147619D01*
X80981342Y-88147619D02*
X80943247Y-88300000D01*
X80943247Y-88300000D02*
X80905152Y-88376190D01*
X80905152Y-88376190D02*
X80867057Y-88414285D01*
X80867057Y-88414285D02*
X80790866Y-88452381D01*
X80790866Y-88452381D02*
X80714676Y-88452381D01*
X80714676Y-88452381D02*
X80638485Y-88414285D01*
X80638485Y-88414285D02*
X80600390Y-88376190D01*
X80600390Y-88376190D02*
X80562295Y-88300000D01*
X80562295Y-88300000D02*
X80562295Y-88109523D01*
X80562295Y-88109523D02*
X80600390Y-87995238D01*
X81286104Y-87195237D02*
X81324200Y-87233333D01*
X81324200Y-87233333D02*
X81362295Y-87347618D01*
X81362295Y-87347618D02*
X81362295Y-87423809D01*
X81362295Y-87423809D02*
X81324200Y-87538095D01*
X81324200Y-87538095D02*
X81248009Y-87614285D01*
X81248009Y-87614285D02*
X81171819Y-87652380D01*
X81171819Y-87652380D02*
X81019438Y-87690476D01*
X81019438Y-87690476D02*
X80905152Y-87690476D01*
X80905152Y-87690476D02*
X80752771Y-87652380D01*
X80752771Y-87652380D02*
X80676580Y-87614285D01*
X80676580Y-87614285D02*
X80600390Y-87538095D01*
X80600390Y-87538095D02*
X80562295Y-87423809D01*
X80562295Y-87423809D02*
X80562295Y-87347618D01*
X80562295Y-87347618D02*
X80600390Y-87233333D01*
X80600390Y-87233333D02*
X80638485Y-87195237D01*
X81362295Y-86471428D02*
X81362295Y-86852380D01*
X81362295Y-86852380D02*
X80562295Y-86852380D01*
X85062295Y-83109523D02*
X85062295Y-82652380D01*
X85862295Y-82880952D02*
X85062295Y-82880952D01*
X85062295Y-82461904D02*
X85862295Y-81928570D01*
X85062295Y-81928570D02*
X85862295Y-82461904D01*
X85862295Y-87633332D02*
X85481342Y-87899999D01*
X85862295Y-88090475D02*
X85062295Y-88090475D01*
X85062295Y-88090475D02*
X85062295Y-87785713D01*
X85062295Y-87785713D02*
X85100390Y-87709523D01*
X85100390Y-87709523D02*
X85138485Y-87671428D01*
X85138485Y-87671428D02*
X85214676Y-87633332D01*
X85214676Y-87633332D02*
X85328961Y-87633332D01*
X85328961Y-87633332D02*
X85405152Y-87671428D01*
X85405152Y-87671428D02*
X85443247Y-87709523D01*
X85443247Y-87709523D02*
X85481342Y-87785713D01*
X85481342Y-87785713D02*
X85481342Y-88090475D01*
X85062295Y-87366666D02*
X85862295Y-86833332D01*
X85062295Y-86833332D02*
X85862295Y-87366666D01*
X67824200Y-91019048D02*
X67862295Y-90904762D01*
X67862295Y-90904762D02*
X67862295Y-90714286D01*
X67862295Y-90714286D02*
X67824200Y-90638095D01*
X67824200Y-90638095D02*
X67786104Y-90600000D01*
X67786104Y-90600000D02*
X67709914Y-90561905D01*
X67709914Y-90561905D02*
X67633723Y-90561905D01*
X67633723Y-90561905D02*
X67557533Y-90600000D01*
X67557533Y-90600000D02*
X67519438Y-90638095D01*
X67519438Y-90638095D02*
X67481342Y-90714286D01*
X67481342Y-90714286D02*
X67443247Y-90866667D01*
X67443247Y-90866667D02*
X67405152Y-90942857D01*
X67405152Y-90942857D02*
X67367057Y-90980952D01*
X67367057Y-90980952D02*
X67290866Y-91019048D01*
X67290866Y-91019048D02*
X67214676Y-91019048D01*
X67214676Y-91019048D02*
X67138485Y-90980952D01*
X67138485Y-90980952D02*
X67100390Y-90942857D01*
X67100390Y-90942857D02*
X67062295Y-90866667D01*
X67062295Y-90866667D02*
X67062295Y-90676190D01*
X67062295Y-90676190D02*
X67100390Y-90561905D01*
X67443247Y-89952381D02*
X67481342Y-89838095D01*
X67481342Y-89838095D02*
X67519438Y-89800000D01*
X67519438Y-89800000D02*
X67595628Y-89761904D01*
X67595628Y-89761904D02*
X67709914Y-89761904D01*
X67709914Y-89761904D02*
X67786104Y-89800000D01*
X67786104Y-89800000D02*
X67824200Y-89838095D01*
X67824200Y-89838095D02*
X67862295Y-89914285D01*
X67862295Y-89914285D02*
X67862295Y-90219047D01*
X67862295Y-90219047D02*
X67062295Y-90219047D01*
X67062295Y-90219047D02*
X67062295Y-89952381D01*
X67062295Y-89952381D02*
X67100390Y-89876190D01*
X67100390Y-89876190D02*
X67138485Y-89838095D01*
X67138485Y-89838095D02*
X67214676Y-89800000D01*
X67214676Y-89800000D02*
X67290866Y-89800000D01*
X67290866Y-89800000D02*
X67367057Y-89838095D01*
X67367057Y-89838095D02*
X67405152Y-89876190D01*
X67405152Y-89876190D02*
X67443247Y-89952381D01*
X67443247Y-89952381D02*
X67443247Y-90219047D01*
X67938485Y-89609524D02*
X67938485Y-89000000D01*
X67862295Y-88428571D02*
X67862295Y-88809523D01*
X67862295Y-88809523D02*
X67062295Y-88809523D01*
X67443247Y-88161904D02*
X67443247Y-87895238D01*
X67862295Y-87780952D02*
X67862295Y-88161904D01*
X67862295Y-88161904D02*
X67062295Y-88161904D01*
X67062295Y-88161904D02*
X67062295Y-87780952D01*
X67862295Y-87438094D02*
X67062295Y-87438094D01*
X67062295Y-87438094D02*
X67062295Y-87247618D01*
X67062295Y-87247618D02*
X67100390Y-87133332D01*
X67100390Y-87133332D02*
X67176580Y-87057142D01*
X67176580Y-87057142D02*
X67252771Y-87019047D01*
X67252771Y-87019047D02*
X67405152Y-86980951D01*
X67405152Y-86980951D02*
X67519438Y-86980951D01*
X67519438Y-86980951D02*
X67671819Y-87019047D01*
X67671819Y-87019047D02*
X67748009Y-87057142D01*
X67748009Y-87057142D02*
X67824200Y-87133332D01*
X67824200Y-87133332D02*
X67862295Y-87247618D01*
X67862295Y-87247618D02*
X67862295Y-87438094D01*
X71943247Y-91528571D02*
X71981342Y-91414285D01*
X71981342Y-91414285D02*
X72019438Y-91376190D01*
X72019438Y-91376190D02*
X72095628Y-91338094D01*
X72095628Y-91338094D02*
X72209914Y-91338094D01*
X72209914Y-91338094D02*
X72286104Y-91376190D01*
X72286104Y-91376190D02*
X72324200Y-91414285D01*
X72324200Y-91414285D02*
X72362295Y-91490475D01*
X72362295Y-91490475D02*
X72362295Y-91795237D01*
X72362295Y-91795237D02*
X71562295Y-91795237D01*
X71562295Y-91795237D02*
X71562295Y-91528571D01*
X71562295Y-91528571D02*
X71600390Y-91452380D01*
X71600390Y-91452380D02*
X71638485Y-91414285D01*
X71638485Y-91414285D02*
X71714676Y-91376190D01*
X71714676Y-91376190D02*
X71790866Y-91376190D01*
X71790866Y-91376190D02*
X71867057Y-91414285D01*
X71867057Y-91414285D02*
X71905152Y-91452380D01*
X71905152Y-91452380D02*
X71943247Y-91528571D01*
X71943247Y-91528571D02*
X71943247Y-91795237D01*
X71562295Y-90842856D02*
X71562295Y-90690475D01*
X71562295Y-90690475D02*
X71600390Y-90614285D01*
X71600390Y-90614285D02*
X71676580Y-90538094D01*
X71676580Y-90538094D02*
X71828961Y-90499999D01*
X71828961Y-90499999D02*
X72095628Y-90499999D01*
X72095628Y-90499999D02*
X72248009Y-90538094D01*
X72248009Y-90538094D02*
X72324200Y-90614285D01*
X72324200Y-90614285D02*
X72362295Y-90690475D01*
X72362295Y-90690475D02*
X72362295Y-90842856D01*
X72362295Y-90842856D02*
X72324200Y-90919047D01*
X72324200Y-90919047D02*
X72248009Y-90995237D01*
X72248009Y-90995237D02*
X72095628Y-91033333D01*
X72095628Y-91033333D02*
X71828961Y-91033333D01*
X71828961Y-91033333D02*
X71676580Y-90995237D01*
X71676580Y-90995237D02*
X71600390Y-90919047D01*
X71600390Y-90919047D02*
X71562295Y-90842856D01*
X71562295Y-90004761D02*
X71562295Y-89852380D01*
X71562295Y-89852380D02*
X71600390Y-89776190D01*
X71600390Y-89776190D02*
X71676580Y-89699999D01*
X71676580Y-89699999D02*
X71828961Y-89661904D01*
X71828961Y-89661904D02*
X72095628Y-89661904D01*
X72095628Y-89661904D02*
X72248009Y-89699999D01*
X72248009Y-89699999D02*
X72324200Y-89776190D01*
X72324200Y-89776190D02*
X72362295Y-89852380D01*
X72362295Y-89852380D02*
X72362295Y-90004761D01*
X72362295Y-90004761D02*
X72324200Y-90080952D01*
X72324200Y-90080952D02*
X72248009Y-90157142D01*
X72248009Y-90157142D02*
X72095628Y-90195238D01*
X72095628Y-90195238D02*
X71828961Y-90195238D01*
X71828961Y-90195238D02*
X71676580Y-90157142D01*
X71676580Y-90157142D02*
X71600390Y-90080952D01*
X71600390Y-90080952D02*
X71562295Y-90004761D01*
X71562295Y-89433333D02*
X71562295Y-88976190D01*
X72362295Y-89204762D02*
X71562295Y-89204762D01*
X72438485Y-88900000D02*
X72438485Y-88290476D01*
X72362295Y-88099999D02*
X71562295Y-88099999D01*
X71562295Y-88099999D02*
X72133723Y-87833333D01*
X72133723Y-87833333D02*
X71562295Y-87566666D01*
X71562295Y-87566666D02*
X72362295Y-87566666D01*
X71562295Y-87033332D02*
X71562295Y-86880951D01*
X71562295Y-86880951D02*
X71600390Y-86804761D01*
X71600390Y-86804761D02*
X71676580Y-86728570D01*
X71676580Y-86728570D02*
X71828961Y-86690475D01*
X71828961Y-86690475D02*
X72095628Y-86690475D01*
X72095628Y-86690475D02*
X72248009Y-86728570D01*
X72248009Y-86728570D02*
X72324200Y-86804761D01*
X72324200Y-86804761D02*
X72362295Y-86880951D01*
X72362295Y-86880951D02*
X72362295Y-87033332D01*
X72362295Y-87033332D02*
X72324200Y-87109523D01*
X72324200Y-87109523D02*
X72248009Y-87185713D01*
X72248009Y-87185713D02*
X72095628Y-87223809D01*
X72095628Y-87223809D02*
X71828961Y-87223809D01*
X71828961Y-87223809D02*
X71676580Y-87185713D01*
X71676580Y-87185713D02*
X71600390Y-87109523D01*
X71600390Y-87109523D02*
X71562295Y-87033332D01*
X72362295Y-86347618D02*
X71562295Y-86347618D01*
X71562295Y-86347618D02*
X71562295Y-86157142D01*
X71562295Y-86157142D02*
X71600390Y-86042856D01*
X71600390Y-86042856D02*
X71676580Y-85966666D01*
X71676580Y-85966666D02*
X71752771Y-85928571D01*
X71752771Y-85928571D02*
X71905152Y-85890475D01*
X71905152Y-85890475D02*
X72019438Y-85890475D01*
X72019438Y-85890475D02*
X72171819Y-85928571D01*
X72171819Y-85928571D02*
X72248009Y-85966666D01*
X72248009Y-85966666D02*
X72324200Y-86042856D01*
X72324200Y-86042856D02*
X72362295Y-86157142D01*
X72362295Y-86157142D02*
X72362295Y-86347618D01*
X71943247Y-85547618D02*
X71943247Y-85280952D01*
X72362295Y-85166666D02*
X72362295Y-85547618D01*
X72362295Y-85547618D02*
X71562295Y-85547618D01*
X71562295Y-85547618D02*
X71562295Y-85166666D01*
X67824200Y-86319048D02*
X67862295Y-86204762D01*
X67862295Y-86204762D02*
X67862295Y-86014286D01*
X67862295Y-86014286D02*
X67824200Y-85938095D01*
X67824200Y-85938095D02*
X67786104Y-85900000D01*
X67786104Y-85900000D02*
X67709914Y-85861905D01*
X67709914Y-85861905D02*
X67633723Y-85861905D01*
X67633723Y-85861905D02*
X67557533Y-85900000D01*
X67557533Y-85900000D02*
X67519438Y-85938095D01*
X67519438Y-85938095D02*
X67481342Y-86014286D01*
X67481342Y-86014286D02*
X67443247Y-86166667D01*
X67443247Y-86166667D02*
X67405152Y-86242857D01*
X67405152Y-86242857D02*
X67367057Y-86280952D01*
X67367057Y-86280952D02*
X67290866Y-86319048D01*
X67290866Y-86319048D02*
X67214676Y-86319048D01*
X67214676Y-86319048D02*
X67138485Y-86280952D01*
X67138485Y-86280952D02*
X67100390Y-86242857D01*
X67100390Y-86242857D02*
X67062295Y-86166667D01*
X67062295Y-86166667D02*
X67062295Y-85976190D01*
X67062295Y-85976190D02*
X67100390Y-85861905D01*
X67481342Y-85366666D02*
X67862295Y-85366666D01*
X67062295Y-85633333D02*
X67481342Y-85366666D01*
X67481342Y-85366666D02*
X67062295Y-85100000D01*
X67824200Y-84871429D02*
X67862295Y-84757143D01*
X67862295Y-84757143D02*
X67862295Y-84566667D01*
X67862295Y-84566667D02*
X67824200Y-84490476D01*
X67824200Y-84490476D02*
X67786104Y-84452381D01*
X67786104Y-84452381D02*
X67709914Y-84414286D01*
X67709914Y-84414286D02*
X67633723Y-84414286D01*
X67633723Y-84414286D02*
X67557533Y-84452381D01*
X67557533Y-84452381D02*
X67519438Y-84490476D01*
X67519438Y-84490476D02*
X67481342Y-84566667D01*
X67481342Y-84566667D02*
X67443247Y-84719048D01*
X67443247Y-84719048D02*
X67405152Y-84795238D01*
X67405152Y-84795238D02*
X67367057Y-84833333D01*
X67367057Y-84833333D02*
X67290866Y-84871429D01*
X67290866Y-84871429D02*
X67214676Y-84871429D01*
X67214676Y-84871429D02*
X67138485Y-84833333D01*
X67138485Y-84833333D02*
X67100390Y-84795238D01*
X67100390Y-84795238D02*
X67062295Y-84719048D01*
X67062295Y-84719048D02*
X67062295Y-84528571D01*
X67062295Y-84528571D02*
X67100390Y-84414286D01*
X67938485Y-84261905D02*
X67938485Y-83652381D01*
X67062295Y-83538095D02*
X67862295Y-83347619D01*
X67862295Y-83347619D02*
X67290866Y-83195238D01*
X67290866Y-83195238D02*
X67862295Y-83042857D01*
X67862295Y-83042857D02*
X67062295Y-82852381D01*
X67633723Y-82585714D02*
X67633723Y-82204761D01*
X67862295Y-82661904D02*
X67062295Y-82395237D01*
X67062295Y-82395237D02*
X67862295Y-82128571D01*
X67862295Y-81861904D02*
X67062295Y-81861904D01*
X67862295Y-81404761D02*
X67405152Y-81747619D01*
X67062295Y-81404761D02*
X67519438Y-81861904D01*
X67443247Y-81061904D02*
X67443247Y-80795238D01*
X67862295Y-80680952D02*
X67862295Y-81061904D01*
X67862295Y-81061904D02*
X67062295Y-81061904D01*
X67062295Y-81061904D02*
X67062295Y-80680952D01*
X79954819Y-114166666D02*
X79478628Y-114499999D01*
X79954819Y-114738094D02*
X78954819Y-114738094D01*
X78954819Y-114738094D02*
X78954819Y-114357142D01*
X78954819Y-114357142D02*
X79002438Y-114261904D01*
X79002438Y-114261904D02*
X79050057Y-114214285D01*
X79050057Y-114214285D02*
X79145295Y-114166666D01*
X79145295Y-114166666D02*
X79288152Y-114166666D01*
X79288152Y-114166666D02*
X79383390Y-114214285D01*
X79383390Y-114214285D02*
X79431009Y-114261904D01*
X79431009Y-114261904D02*
X79478628Y-114357142D01*
X79478628Y-114357142D02*
X79478628Y-114738094D01*
X79050057Y-113785713D02*
X79002438Y-113738094D01*
X79002438Y-113738094D02*
X78954819Y-113642856D01*
X78954819Y-113642856D02*
X78954819Y-113404761D01*
X78954819Y-113404761D02*
X79002438Y-113309523D01*
X79002438Y-113309523D02*
X79050057Y-113261904D01*
X79050057Y-113261904D02*
X79145295Y-113214285D01*
X79145295Y-113214285D02*
X79240533Y-113214285D01*
X79240533Y-113214285D02*
X79383390Y-113261904D01*
X79383390Y-113261904D02*
X79954819Y-113833332D01*
X79954819Y-113833332D02*
X79954819Y-113214285D01*
X64024819Y-114166666D02*
X63548628Y-114499999D01*
X64024819Y-114738094D02*
X63024819Y-114738094D01*
X63024819Y-114738094D02*
X63024819Y-114357142D01*
X63024819Y-114357142D02*
X63072438Y-114261904D01*
X63072438Y-114261904D02*
X63120057Y-114214285D01*
X63120057Y-114214285D02*
X63215295Y-114166666D01*
X63215295Y-114166666D02*
X63358152Y-114166666D01*
X63358152Y-114166666D02*
X63453390Y-114214285D01*
X63453390Y-114214285D02*
X63501009Y-114261904D01*
X63501009Y-114261904D02*
X63548628Y-114357142D01*
X63548628Y-114357142D02*
X63548628Y-114738094D01*
X64024819Y-113214285D02*
X64024819Y-113785713D01*
X64024819Y-113499999D02*
X63024819Y-113499999D01*
X63024819Y-113499999D02*
X63167676Y-113595237D01*
X63167676Y-113595237D02*
X63262914Y-113690475D01*
X63262914Y-113690475D02*
X63310533Y-113785713D01*
X109954819Y-92133333D02*
X110669104Y-92133333D01*
X110669104Y-92133333D02*
X110811961Y-92180952D01*
X110811961Y-92180952D02*
X110907200Y-92276190D01*
X110907200Y-92276190D02*
X110954819Y-92419047D01*
X110954819Y-92419047D02*
X110954819Y-92514285D01*
X109954819Y-91228571D02*
X109954819Y-91419047D01*
X109954819Y-91419047D02*
X110002438Y-91514285D01*
X110002438Y-91514285D02*
X110050057Y-91561904D01*
X110050057Y-91561904D02*
X110192914Y-91657142D01*
X110192914Y-91657142D02*
X110383390Y-91704761D01*
X110383390Y-91704761D02*
X110764342Y-91704761D01*
X110764342Y-91704761D02*
X110859580Y-91657142D01*
X110859580Y-91657142D02*
X110907200Y-91609523D01*
X110907200Y-91609523D02*
X110954819Y-91514285D01*
X110954819Y-91514285D02*
X110954819Y-91323809D01*
X110954819Y-91323809D02*
X110907200Y-91228571D01*
X110907200Y-91228571D02*
X110859580Y-91180952D01*
X110859580Y-91180952D02*
X110764342Y-91133333D01*
X110764342Y-91133333D02*
X110526247Y-91133333D01*
X110526247Y-91133333D02*
X110431009Y-91180952D01*
X110431009Y-91180952D02*
X110383390Y-91228571D01*
X110383390Y-91228571D02*
X110335771Y-91323809D01*
X110335771Y-91323809D02*
X110335771Y-91514285D01*
X110335771Y-91514285D02*
X110383390Y-91609523D01*
X110383390Y-91609523D02*
X110431009Y-91657142D01*
X110431009Y-91657142D02*
X110526247Y-91704761D01*
X55184166Y-81924819D02*
X55184166Y-82639104D01*
X55184166Y-82639104D02*
X55136547Y-82781961D01*
X55136547Y-82781961D02*
X55041309Y-82877200D01*
X55041309Y-82877200D02*
X54898452Y-82924819D01*
X54898452Y-82924819D02*
X54803214Y-82924819D01*
X56184166Y-82924819D02*
X55612738Y-82924819D01*
X55898452Y-82924819D02*
X55898452Y-81924819D01*
X55898452Y-81924819D02*
X55803214Y-82067676D01*
X55803214Y-82067676D02*
X55707976Y-82162914D01*
X55707976Y-82162914D02*
X55612738Y-82210533D01*
X63859580Y-98166666D02*
X63907200Y-98214285D01*
X63907200Y-98214285D02*
X63954819Y-98357142D01*
X63954819Y-98357142D02*
X63954819Y-98452380D01*
X63954819Y-98452380D02*
X63907200Y-98595237D01*
X63907200Y-98595237D02*
X63811961Y-98690475D01*
X63811961Y-98690475D02*
X63716723Y-98738094D01*
X63716723Y-98738094D02*
X63526247Y-98785713D01*
X63526247Y-98785713D02*
X63383390Y-98785713D01*
X63383390Y-98785713D02*
X63192914Y-98738094D01*
X63192914Y-98738094D02*
X63097676Y-98690475D01*
X63097676Y-98690475D02*
X63002438Y-98595237D01*
X63002438Y-98595237D02*
X62954819Y-98452380D01*
X62954819Y-98452380D02*
X62954819Y-98357142D01*
X62954819Y-98357142D02*
X63002438Y-98214285D01*
X63002438Y-98214285D02*
X63050057Y-98166666D01*
X62954819Y-97261904D02*
X62954819Y-97738094D01*
X62954819Y-97738094D02*
X63431009Y-97785713D01*
X63431009Y-97785713D02*
X63383390Y-97738094D01*
X63383390Y-97738094D02*
X63335771Y-97642856D01*
X63335771Y-97642856D02*
X63335771Y-97404761D01*
X63335771Y-97404761D02*
X63383390Y-97309523D01*
X63383390Y-97309523D02*
X63431009Y-97261904D01*
X63431009Y-97261904D02*
X63526247Y-97214285D01*
X63526247Y-97214285D02*
X63764342Y-97214285D01*
X63764342Y-97214285D02*
X63859580Y-97261904D01*
X63859580Y-97261904D02*
X63907200Y-97309523D01*
X63907200Y-97309523D02*
X63954819Y-97404761D01*
X63954819Y-97404761D02*
X63954819Y-97642856D01*
X63954819Y-97642856D02*
X63907200Y-97738094D01*
X63907200Y-97738094D02*
X63859580Y-97785713D01*
X93359580Y-110166666D02*
X93407200Y-110214285D01*
X93407200Y-110214285D02*
X93454819Y-110357142D01*
X93454819Y-110357142D02*
X93454819Y-110452380D01*
X93454819Y-110452380D02*
X93407200Y-110595237D01*
X93407200Y-110595237D02*
X93311961Y-110690475D01*
X93311961Y-110690475D02*
X93216723Y-110738094D01*
X93216723Y-110738094D02*
X93026247Y-110785713D01*
X93026247Y-110785713D02*
X92883390Y-110785713D01*
X92883390Y-110785713D02*
X92692914Y-110738094D01*
X92692914Y-110738094D02*
X92597676Y-110690475D01*
X92597676Y-110690475D02*
X92502438Y-110595237D01*
X92502438Y-110595237D02*
X92454819Y-110452380D01*
X92454819Y-110452380D02*
X92454819Y-110357142D01*
X92454819Y-110357142D02*
X92502438Y-110214285D01*
X92502438Y-110214285D02*
X92550057Y-110166666D01*
X92788152Y-109309523D02*
X93454819Y-109309523D01*
X92407200Y-109547618D02*
X93121485Y-109785713D01*
X93121485Y-109785713D02*
X93121485Y-109166666D01*
X91359580Y-110166666D02*
X91407200Y-110214285D01*
X91407200Y-110214285D02*
X91454819Y-110357142D01*
X91454819Y-110357142D02*
X91454819Y-110452380D01*
X91454819Y-110452380D02*
X91407200Y-110595237D01*
X91407200Y-110595237D02*
X91311961Y-110690475D01*
X91311961Y-110690475D02*
X91216723Y-110738094D01*
X91216723Y-110738094D02*
X91026247Y-110785713D01*
X91026247Y-110785713D02*
X90883390Y-110785713D01*
X90883390Y-110785713D02*
X90692914Y-110738094D01*
X90692914Y-110738094D02*
X90597676Y-110690475D01*
X90597676Y-110690475D02*
X90502438Y-110595237D01*
X90502438Y-110595237D02*
X90454819Y-110452380D01*
X90454819Y-110452380D02*
X90454819Y-110357142D01*
X90454819Y-110357142D02*
X90502438Y-110214285D01*
X90502438Y-110214285D02*
X90550057Y-110166666D01*
X90454819Y-109833332D02*
X90454819Y-109214285D01*
X90454819Y-109214285D02*
X90835771Y-109547618D01*
X90835771Y-109547618D02*
X90835771Y-109404761D01*
X90835771Y-109404761D02*
X90883390Y-109309523D01*
X90883390Y-109309523D02*
X90931009Y-109261904D01*
X90931009Y-109261904D02*
X91026247Y-109214285D01*
X91026247Y-109214285D02*
X91264342Y-109214285D01*
X91264342Y-109214285D02*
X91359580Y-109261904D01*
X91359580Y-109261904D02*
X91407200Y-109309523D01*
X91407200Y-109309523D02*
X91454819Y-109404761D01*
X91454819Y-109404761D02*
X91454819Y-109690475D01*
X91454819Y-109690475D02*
X91407200Y-109785713D01*
X91407200Y-109785713D02*
X91359580Y-109833332D01*
X79359580Y-110166666D02*
X79407200Y-110214285D01*
X79407200Y-110214285D02*
X79454819Y-110357142D01*
X79454819Y-110357142D02*
X79454819Y-110452380D01*
X79454819Y-110452380D02*
X79407200Y-110595237D01*
X79407200Y-110595237D02*
X79311961Y-110690475D01*
X79311961Y-110690475D02*
X79216723Y-110738094D01*
X79216723Y-110738094D02*
X79026247Y-110785713D01*
X79026247Y-110785713D02*
X78883390Y-110785713D01*
X78883390Y-110785713D02*
X78692914Y-110738094D01*
X78692914Y-110738094D02*
X78597676Y-110690475D01*
X78597676Y-110690475D02*
X78502438Y-110595237D01*
X78502438Y-110595237D02*
X78454819Y-110452380D01*
X78454819Y-110452380D02*
X78454819Y-110357142D01*
X78454819Y-110357142D02*
X78502438Y-110214285D01*
X78502438Y-110214285D02*
X78550057Y-110166666D01*
X78550057Y-109785713D02*
X78502438Y-109738094D01*
X78502438Y-109738094D02*
X78454819Y-109642856D01*
X78454819Y-109642856D02*
X78454819Y-109404761D01*
X78454819Y-109404761D02*
X78502438Y-109309523D01*
X78502438Y-109309523D02*
X78550057Y-109261904D01*
X78550057Y-109261904D02*
X78645295Y-109214285D01*
X78645295Y-109214285D02*
X78740533Y-109214285D01*
X78740533Y-109214285D02*
X78883390Y-109261904D01*
X78883390Y-109261904D02*
X79454819Y-109833332D01*
X79454819Y-109833332D02*
X79454819Y-109214285D01*
X81359580Y-110166666D02*
X81407200Y-110214285D01*
X81407200Y-110214285D02*
X81454819Y-110357142D01*
X81454819Y-110357142D02*
X81454819Y-110452380D01*
X81454819Y-110452380D02*
X81407200Y-110595237D01*
X81407200Y-110595237D02*
X81311961Y-110690475D01*
X81311961Y-110690475D02*
X81216723Y-110738094D01*
X81216723Y-110738094D02*
X81026247Y-110785713D01*
X81026247Y-110785713D02*
X80883390Y-110785713D01*
X80883390Y-110785713D02*
X80692914Y-110738094D01*
X80692914Y-110738094D02*
X80597676Y-110690475D01*
X80597676Y-110690475D02*
X80502438Y-110595237D01*
X80502438Y-110595237D02*
X80454819Y-110452380D01*
X80454819Y-110452380D02*
X80454819Y-110357142D01*
X80454819Y-110357142D02*
X80502438Y-110214285D01*
X80502438Y-110214285D02*
X80550057Y-110166666D01*
X81454819Y-109214285D02*
X81454819Y-109785713D01*
X81454819Y-109499999D02*
X80454819Y-109499999D01*
X80454819Y-109499999D02*
X80597676Y-109595237D01*
X80597676Y-109595237D02*
X80692914Y-109690475D01*
X80692914Y-109690475D02*
X80740533Y-109785713D01*
D12*
%TO.C,JP1*%
X80200000Y-94950000D02*
X80800000Y-94950000D01*
X79000000Y-95500000D02*
X79000000Y-96100000D01*
X81500000Y-95600000D02*
X81500000Y-98400000D01*
X79300000Y-95800000D02*
X79000000Y-95500000D01*
X79300000Y-95800000D02*
X79000000Y-96100000D01*
X79500000Y-98400000D02*
X79500000Y-95600000D01*
X80800000Y-99050000D02*
X80200000Y-99050000D01*
X80800000Y-94950000D02*
G75*
G02*
X81500000Y-95650000I1J-699999D01*
G01*
X79500000Y-95650000D02*
G75*
G02*
X80200000Y-94950000I699999J1D01*
G01*
X81500000Y-98350000D02*
G75*
G02*
X80800000Y-99050000I-700000J0D01*
G01*
X80200000Y-99050000D02*
G75*
G02*
X79500000Y-98350000I0J700000D01*
G01*
%TO.C,D4*%
X82490000Y-97350000D02*
X82490000Y-100650000D01*
X82490000Y-97350000D02*
X88000000Y-97350000D01*
X82490000Y-100650000D02*
X88000000Y-100650000D01*
%TO.C,D3*%
X82490000Y-93350000D02*
X82490000Y-96650000D01*
X82490000Y-93350000D02*
X88000000Y-93350000D01*
X82490000Y-96650000D02*
X88000000Y-96650000D01*
%TO.C,D2*%
X66650000Y-102990000D02*
X63350000Y-102990000D01*
X66650000Y-102990000D02*
X66650000Y-108500000D01*
X63350000Y-102990000D02*
X63350000Y-108500000D01*
%TO.C,D1*%
X70550000Y-89265000D02*
X68090000Y-89265000D01*
X68090000Y-90735000D02*
X70550000Y-90735000D01*
X68090000Y-89265000D02*
X68090000Y-90735000D01*
%TO.C,TP11*%
X75200000Y-82500000D02*
G75*
G02*
X72800000Y-82500000I-1200000J0D01*
G01*
X72800000Y-82500000D02*
G75*
G02*
X75200000Y-82500000I1200000J0D01*
G01*
%TO.C,J4*%
X117560000Y-114560000D02*
X116500000Y-114560000D01*
X117560000Y-113500000D02*
X117560000Y-114560000D01*
X115500000Y-114560000D02*
X111440000Y-114560000D01*
X115500000Y-112440000D02*
X115500000Y-114560000D01*
X115500000Y-112440000D02*
X111440000Y-112440000D01*
X111440000Y-112440000D02*
X111440000Y-114560000D01*
%TO.C,J3*%
X129060000Y-99000000D02*
X129060000Y-103060000D01*
X129060000Y-96940000D02*
X129060000Y-98000000D01*
X128000000Y-96940000D02*
X129060000Y-96940000D01*
X126940000Y-103060000D02*
X129060000Y-103060000D01*
X126940000Y-99000000D02*
X129060000Y-99000000D01*
X126940000Y-99000000D02*
X126940000Y-103060000D01*
%TO.C,J5*%
X118560000Y-87560000D02*
X117500000Y-87560000D01*
X118560000Y-86500000D02*
X118560000Y-87560000D01*
X116500000Y-87560000D02*
X110440000Y-87560000D01*
X116500000Y-85440000D02*
X116500000Y-87560000D01*
X116500000Y-85440000D02*
X110440000Y-85440000D01*
X110440000Y-85440000D02*
X110440000Y-87560000D01*
%TO.C,J2*%
X102060000Y-98000000D02*
X102060000Y-104060000D01*
X102060000Y-95940000D02*
X102060000Y-97000000D01*
X101000000Y-95940000D02*
X102060000Y-95940000D01*
X99940000Y-104060000D02*
X102060000Y-104060000D01*
X99940000Y-98000000D02*
X102060000Y-98000000D01*
X99940000Y-98000000D02*
X99940000Y-104060000D01*
%TO.C,J7*%
X76080000Y-119785000D02*
X66920000Y-119785000D01*
X76080000Y-118080000D02*
X76080000Y-119785000D01*
X76080000Y-116070000D02*
X76080000Y-114150000D01*
X66920000Y-119785000D02*
X66920000Y-118080000D01*
X66920000Y-114150000D02*
X66920000Y-116070000D01*
%TO.C,R3*%
X66522500Y-89495276D02*
X66522500Y-90004724D01*
X65477500Y-89495276D02*
X65477500Y-90004724D01*
%TO.C,U3*%
X66440000Y-98000000D02*
X66440000Y-99950000D01*
X66440000Y-98000000D02*
X66440000Y-96050000D01*
X76560000Y-98000000D02*
X76560000Y-99950000D01*
X76560000Y-98000000D02*
X76560000Y-96050000D01*
X66495000Y-100700000D02*
X66165000Y-100940000D01*
X66165000Y-100460000D01*
X66495000Y-100700000D01*
G36*
X66495000Y-100700000D02*
G01*
X66165000Y-100940000D01*
X66165000Y-100460000D01*
X66495000Y-100700000D01*
G37*
%TO.C,U2*%
X89410000Y-105150000D02*
X89410000Y-108910000D01*
X82590000Y-105150000D02*
X82590000Y-108910000D01*
X89410000Y-108910000D02*
X88150000Y-108910000D01*
X82590000Y-108910000D02*
X83850000Y-108910000D01*
X89640000Y-104110000D02*
X89310000Y-103870000D01*
X89640000Y-103630000D01*
X89640000Y-104110000D01*
G36*
X89640000Y-104110000D02*
G01*
X89310000Y-103870000D01*
X89640000Y-103630000D01*
X89640000Y-104110000D01*
G37*
%TO.C,U1*%
X72610000Y-107400000D02*
X72610000Y-105600000D01*
X69390000Y-106400000D02*
X69390000Y-107200000D01*
X69390000Y-106400000D02*
X69390000Y-105600000D01*
X69440000Y-107700000D02*
X69110000Y-107940000D01*
X69110000Y-107460000D01*
X69440000Y-107700000D01*
G36*
X69440000Y-107700000D02*
G01*
X69110000Y-107940000D01*
X69110000Y-107460000D01*
X69440000Y-107700000D01*
G37*
%TO.C,TP14*%
X97700000Y-87500000D02*
G75*
G02*
X95300000Y-87500000I-1200000J0D01*
G01*
X95300000Y-87500000D02*
G75*
G02*
X97700000Y-87500000I1200000J0D01*
G01*
%TO.C,TP13*%
X79700000Y-82500000D02*
G75*
G02*
X77300000Y-82500000I-1200000J0D01*
G01*
X77300000Y-82500000D02*
G75*
G02*
X79700000Y-82500000I1200000J0D01*
G01*
%TO.C,TP12*%
X79700000Y-87500000D02*
G75*
G02*
X77300000Y-87500000I-1200000J0D01*
G01*
X77300000Y-87500000D02*
G75*
G02*
X79700000Y-87500000I1200000J0D01*
G01*
%TO.C,TP10*%
X93200000Y-82500000D02*
G75*
G02*
X90800000Y-82500000I-1200000J0D01*
G01*
X90800000Y-82500000D02*
G75*
G02*
X93200000Y-82500000I1200000J0D01*
G01*
%TO.C,TP9*%
X93200000Y-87500000D02*
G75*
G02*
X90800000Y-87500000I-1200000J0D01*
G01*
X90800000Y-87500000D02*
G75*
G02*
X93200000Y-87500000I1200000J0D01*
G01*
%TO.C,TP8*%
X97700000Y-82500000D02*
G75*
G02*
X95300000Y-82500000I-1200000J0D01*
G01*
X95300000Y-82500000D02*
G75*
G02*
X97700000Y-82500000I1200000J0D01*
G01*
%TO.C,TP7*%
X84200000Y-82500000D02*
G75*
G02*
X81800000Y-82500000I-1200000J0D01*
G01*
X81800000Y-82500000D02*
G75*
G02*
X84200000Y-82500000I1200000J0D01*
G01*
%TO.C,TP6*%
X84200000Y-87500000D02*
G75*
G02*
X81800000Y-87500000I-1200000J0D01*
G01*
X81800000Y-87500000D02*
G75*
G02*
X84200000Y-87500000I1200000J0D01*
G01*
%TO.C,TP5*%
X88700000Y-82500000D02*
G75*
G02*
X86300000Y-82500000I-1200000J0D01*
G01*
X86300000Y-82500000D02*
G75*
G02*
X88700000Y-82500000I1200000J0D01*
G01*
%TO.C,TP4*%
X88700000Y-87500000D02*
G75*
G02*
X86300000Y-87500000I-1200000J0D01*
G01*
X86300000Y-87500000D02*
G75*
G02*
X88700000Y-87500000I1200000J0D01*
G01*
%TO.C,TP3*%
X70700000Y-87500000D02*
G75*
G02*
X68300000Y-87500000I-1200000J0D01*
G01*
X68300000Y-87500000D02*
G75*
G02*
X70700000Y-87500000I1200000J0D01*
G01*
%TO.C,TP2*%
X75200000Y-87500000D02*
G75*
G02*
X72800000Y-87500000I-1200000J0D01*
G01*
X72800000Y-87500000D02*
G75*
G02*
X75200000Y-87500000I1200000J0D01*
G01*
%TO.C,TP1*%
X70700000Y-82500000D02*
G75*
G02*
X68300000Y-82500000I-1200000J0D01*
G01*
X68300000Y-82500000D02*
G75*
G02*
X70700000Y-82500000I1200000J0D01*
G01*
%TO.C,R2*%
X77477500Y-114254724D02*
X77477500Y-113745276D01*
X78522500Y-114254724D02*
X78522500Y-113745276D01*
%TO.C,R1*%
X64477500Y-114254724D02*
X64477500Y-113745276D01*
X65522500Y-114254724D02*
X65522500Y-113745276D01*
D13*
%TO.C,J6*%
X111400000Y-91100000D02*
X111600000Y-91100000D01*
X111400000Y-102700000D02*
X111400000Y-91100000D01*
X111400000Y-102700000D02*
X111400000Y-108900000D01*
X111400000Y-108900000D02*
X113900000Y-108900000D01*
D12*
X111930000Y-93600000D02*
X111930000Y-106390000D01*
X111930000Y-93600000D02*
X117130000Y-93600000D01*
X111930000Y-106390000D02*
X117130000Y-106390000D01*
D13*
X113900000Y-108900000D02*
X117600000Y-108900000D01*
X114100000Y-91100000D02*
X111600000Y-91100000D01*
X114100000Y-91100000D02*
X117600000Y-91100000D01*
D12*
X117130000Y-93600000D02*
X117130000Y-106390000D01*
D13*
X117600000Y-91100000D02*
X117600000Y-93400000D01*
X117600000Y-98000000D02*
X117600000Y-93400000D01*
X117600000Y-102000000D02*
X117600000Y-106900000D01*
X117600000Y-108900000D02*
X117600000Y-106900000D01*
X118600000Y-98000000D02*
X117600000Y-98000000D01*
X118600000Y-100000000D02*
X118600000Y-98000000D01*
X118600000Y-100000000D02*
X118600000Y-98000000D01*
X118600000Y-100000000D02*
X118600000Y-101600000D01*
X118600000Y-100000000D02*
X118600000Y-102000000D01*
X118600000Y-102000000D02*
X117600000Y-102000000D01*
D12*
%TO.C,J1*%
X49567500Y-88070000D02*
X49567500Y-89070000D01*
X49567500Y-89070000D02*
X50567500Y-88570000D01*
X50567500Y-88570000D02*
X49567500Y-88070000D01*
X50957500Y-83360000D02*
X60077500Y-83360000D01*
X50957500Y-97950000D02*
X52267500Y-97950000D01*
X50957500Y-116640000D02*
X50957500Y-83360000D01*
X52267500Y-84660000D02*
X58767500Y-84660000D01*
X52267500Y-97950000D02*
X52267500Y-84660000D01*
X52267500Y-102050000D02*
X50957500Y-102050000D01*
X52267500Y-102050000D02*
X52267500Y-102050000D01*
X52267500Y-115340000D02*
X52267500Y-102050000D01*
X58767500Y-84660000D02*
X58767500Y-115340000D01*
X58767500Y-115340000D02*
X52267500Y-115340000D01*
X60077500Y-83360000D02*
X60077500Y-116640000D01*
X60077500Y-116640000D02*
X50957500Y-116640000D01*
%TO.C,C5*%
X65510000Y-97853733D02*
X65510000Y-98146267D01*
X64490000Y-97853733D02*
X64490000Y-98146267D01*
%TO.C,C4*%
X93510000Y-106853733D02*
X93510000Y-107146267D01*
X92490000Y-106853733D02*
X92490000Y-107146267D01*
%TO.C,C3*%
X91510000Y-106853733D02*
X91510000Y-107146267D01*
X90490000Y-106853733D02*
X90490000Y-107146267D01*
%TO.C,C2*%
X79510000Y-106853733D02*
X79510000Y-107146267D01*
X78490000Y-106853733D02*
X78490000Y-107146267D01*
%TO.C,C1*%
X81510000Y-106853733D02*
X81510000Y-107146267D01*
X80490000Y-106853733D02*
X80490000Y-107146267D01*
%TD*%
%LPC*%
%TO.C,JP1*%
G36*
X81250000Y-96250000D02*
G01*
X79750000Y-96250000D01*
X79750000Y-97750000D01*
X81250000Y-97750000D01*
X81250000Y-96250000D01*
G37*
%TD*%
D14*
%TO.C,JP1*%
X80500000Y-95700000D03*
D15*
X80500000Y-97000000D03*
D16*
X80500000Y-98300000D03*
%TD*%
D17*
%TO.C,D4*%
X84000000Y-99000000D03*
X88000000Y-99000000D03*
%TD*%
%TO.C,D3*%
X84000000Y-95000000D03*
X88000000Y-95000000D03*
%TD*%
D18*
%TO.C,D2*%
X65000000Y-104500000D03*
X65000000Y-108500000D03*
%TD*%
D19*
%TO.C,D1*%
X70625000Y-90000000D03*
X68875000Y-90000000D03*
%TD*%
D20*
%TO.C,TP11*%
X74000000Y-82500000D03*
%TD*%
D21*
%TO.C,J4*%
X112500000Y-113500000D03*
X114500000Y-113500000D03*
D22*
X116500000Y-113500000D03*
%TD*%
D21*
%TO.C,J3*%
X128000000Y-102000000D03*
X128000000Y-100000000D03*
D22*
X128000000Y-98000000D03*
%TD*%
D21*
%TO.C,J5*%
X111500000Y-86500000D03*
X113500000Y-86500000D03*
X115500000Y-86500000D03*
D22*
X117500000Y-86500000D03*
%TD*%
D21*
%TO.C,J2*%
X101000000Y-103000000D03*
X101000000Y-101000000D03*
X101000000Y-99000000D03*
D22*
X101000000Y-97000000D03*
%TD*%
D23*
%TO.C,J7*%
X75820000Y-117075000D03*
D24*
X75820000Y-112875000D03*
D23*
X67180000Y-117075000D03*
D24*
X67180000Y-112875000D03*
D25*
X68300000Y-112275000D03*
X69100000Y-112275000D03*
D26*
X69750000Y-112275000D03*
X70750000Y-112275000D03*
X72250000Y-112275000D03*
X73250000Y-112275000D03*
D25*
X73900000Y-112275000D03*
X74700000Y-112275000D03*
X74700000Y-112275000D03*
X73900000Y-112275000D03*
D26*
X72750000Y-112275000D03*
X71750000Y-112275000D03*
X71250000Y-112275000D03*
X70250000Y-112275000D03*
D25*
X69100000Y-112275000D03*
X68300000Y-112275000D03*
D27*
X74390000Y-113395000D03*
X68610000Y-113395000D03*
%TD*%
D28*
%TO.C,R3*%
X66000000Y-88837500D03*
X66000000Y-90662500D03*
%TD*%
D29*
%TO.C,U3*%
X67055000Y-100475000D03*
X68325000Y-100475000D03*
X69595000Y-100475000D03*
X70865000Y-100475000D03*
X72135000Y-100475000D03*
X73405000Y-100475000D03*
X74675000Y-100475000D03*
X75945000Y-100475000D03*
X75945000Y-95525000D03*
X74675000Y-95525000D03*
X73405000Y-95525000D03*
X72135000Y-95525000D03*
X70865000Y-95525000D03*
X69595000Y-95525000D03*
X68325000Y-95525000D03*
X67055000Y-95525000D03*
%TD*%
D30*
%TO.C,U2*%
X88300000Y-103850000D03*
X86000000Y-103850000D03*
D31*
X86000000Y-110150000D03*
D30*
X83700000Y-103850000D03*
%TD*%
D32*
%TO.C,U1*%
X70050000Y-107850000D03*
X71000000Y-107850000D03*
X71950000Y-107850000D03*
X71950000Y-105150000D03*
X71000000Y-105150000D03*
X70050000Y-105150000D03*
%TD*%
D20*
%TO.C,TP14*%
X96500000Y-87500000D03*
%TD*%
%TO.C,TP13*%
X78500000Y-82500000D03*
%TD*%
%TO.C,TP12*%
X78500000Y-87500000D03*
%TD*%
%TO.C,TP10*%
X92000000Y-82500000D03*
%TD*%
%TO.C,TP9*%
X92000000Y-87500000D03*
%TD*%
%TO.C,TP8*%
X96500000Y-82500000D03*
%TD*%
%TO.C,TP7*%
X83000000Y-82500000D03*
%TD*%
%TO.C,TP6*%
X83000000Y-87500000D03*
%TD*%
%TO.C,TP5*%
X87500000Y-82500000D03*
%TD*%
%TO.C,TP4*%
X87500000Y-87500000D03*
%TD*%
%TO.C,TP3*%
X69500000Y-87500000D03*
%TD*%
%TO.C,TP2*%
X74000000Y-87500000D03*
%TD*%
%TO.C,TP1*%
X69500000Y-82500000D03*
%TD*%
D33*
%TO.C,R2*%
X78000000Y-114912500D03*
X78000000Y-113087500D03*
%TD*%
%TO.C,R1*%
X65000000Y-114912500D03*
X65000000Y-113087500D03*
%TD*%
D34*
%TO.C,J6*%
X115800000Y-94900000D03*
D35*
X113260000Y-94900000D03*
X115800000Y-97440000D03*
X113260000Y-97440000D03*
X115800000Y-99980000D03*
X113260000Y-99980000D03*
X115800000Y-102520000D03*
X113260000Y-102520000D03*
X115800000Y-105060000D03*
X113260000Y-105060000D03*
%TD*%
D36*
%TO.C,J1*%
X54247500Y-88570000D03*
D37*
X56787500Y-88570000D03*
X54247500Y-91110000D03*
X56787500Y-91110000D03*
X54247500Y-93650000D03*
X56787500Y-93650000D03*
X54247500Y-96190000D03*
X56787500Y-96190000D03*
X54247500Y-98730000D03*
X56787500Y-98730000D03*
X54247500Y-101270000D03*
X56787500Y-101270000D03*
X54247500Y-103810000D03*
X56787500Y-103810000D03*
X54247500Y-106350000D03*
X56787500Y-106350000D03*
X54247500Y-108890000D03*
X56787500Y-108890000D03*
X54247500Y-111430000D03*
X56787500Y-111430000D03*
%TD*%
D38*
%TO.C,C5*%
X65000000Y-97137500D03*
X65000000Y-98862500D03*
%TD*%
%TO.C,C4*%
X93000000Y-106137500D03*
X93000000Y-107862500D03*
%TD*%
%TO.C,C3*%
X91000000Y-106137500D03*
X91000000Y-107862500D03*
%TD*%
%TO.C,C2*%
X79000000Y-106137500D03*
X79000000Y-107862500D03*
%TD*%
%TO.C,C1*%
X81000000Y-106137500D03*
X81000000Y-107862500D03*
%TD*%
%LPD*%
M02*
