M48
; DRILL file {KiCad 9.0.2-9.0.2-0~ubuntu24.04.1} date 2025-07-11T12:15:57+0530
; FORMAT={-:-/ absolute / inch / decimal}
; #@! TF.CreationDate,2025-07-11T12:15:57+05:30
; #@! TF.GenerationSoftware,Kicad,Pcbnew,9.0.2-9.0.2-0~ubuntu24.04.1
; #@! TF.FileFunction,Plated,1,2,PTH
FMAT,2
INCH
; #@! TA.AperFunction,Plated,PTH,ViaDrill
T1C0.0118
; #@! TA.AperFunction,Plated,PTH,ViaDrill
T2C0.0157
; #@! TA.AperFunction,Plated,PTH,ComponentDrill
T3C0.0236
; #@! TA.AperFunction,Plated,PTH,ComponentDrill
T4C0.0315
; #@! TA.AperFunction,Plated,PTH,ComponentDrill
T5C0.0394
%
G90
G05
T1
X2.0276Y-3.5433
X2.0276Y-4.3307
X2.4213Y-3.8976
X2.4213Y-4.0551
X2.4606Y-3.4055
X2.4606Y-3.7598
X2.4606Y-4.626
X2.4803Y-4.3504
X2.5Y-3.563
X2.5394Y-3.937
X2.5591Y-3.248
X2.5591Y-4.3898
X2.6378Y-4.0157
X2.6575Y-4.3701
X2.6801Y-4.0354
X2.7559Y-4.0354
X2.7559Y-4.5472
X2.7953Y-4.1929
X2.815Y-4.626
X2.8543Y-4.5472
X2.9134Y-3.3465
X2.9724Y-4.1929
X2.9724Y-4.3701
X3.0118Y-3.5827
X3.0709Y-4.0748
X3.0709Y-4.2717
X3.0709Y-4.3898
X3.0906Y-3.6614
X3.1496Y-3.563
X3.1496Y-4.2913
X3.2283Y-4.2717
X3.3071Y-4.1929
X3.3673Y-3.4854
X3.3858Y-4.4685
X3.4252Y-4.0354
X3.5236Y-4.0354
X3.5433Y-4.2717
X3.5827Y-3.8189
X3.5827Y-4.0551
X3.622Y-4.2913
X3.6614Y-3.9173
X3.7008Y-4.2717
X3.7008Y-4.6457
X3.7205Y-3.6811
X3.7795Y-4.0945
X3.8583Y-3.7992
X3.8976Y-3.6811
X3.937Y-4.2913
X3.9764Y-3.2283
X3.9764Y-3.4449
X4.1142Y-3.8583
X4.1535Y-3.937
X4.2126Y-4.1339
X4.2323Y-3.4449
X4.252Y-3.2874
X4.2913Y-4.0551
X4.3307Y-3.5433
X4.3898Y-3.2283
X4.4488Y-3.2874
X4.5472Y-3.6417
X4.5472Y-4.3307
X4.5866Y-3.2087
X4.6457Y-3.5236
X4.6654Y-3.7402
X4.7638Y-4.0157
T2
X2.5591Y-3.7008
X2.5787Y-3.7795
X2.5984Y-3.4449
X2.6772Y-4.3307
X2.9528Y-4.3307
X3.7992Y-3.7795
X3.878Y-3.7402
T4
X3.9764Y-3.8189
X3.9764Y-3.8976
X3.9764Y-3.9764
X3.9764Y-4.0551
X4.3898Y-3.4055
X4.4291Y-4.4685
X4.4685Y-3.4055
X4.5079Y-4.4685
X4.5472Y-3.4055
X4.5866Y-4.4685
X4.626Y-3.4055
X5.0394Y-3.8583
X5.0394Y-3.937
X5.0394Y-4.0157
T5
X2.1357Y-3.487
X2.1357Y-3.587
X2.1357Y-3.687
X2.1357Y-3.787
X2.1357Y-3.887
X2.1357Y-3.987
X2.1357Y-4.087
X2.1357Y-4.187
X2.1357Y-4.287
X2.1357Y-4.387
X2.2357Y-3.487
X2.2357Y-3.587
X2.2357Y-3.687
X2.2357Y-3.787
X2.2357Y-3.887
X2.2357Y-3.987
X2.2357Y-4.087
X2.2357Y-4.187
X2.2357Y-4.287
X2.2357Y-4.387
X2.7362Y-3.248
X2.7362Y-3.4449
X2.9134Y-3.248
X2.9134Y-3.4449
X3.0906Y-3.248
X3.0906Y-3.4449
X3.2677Y-3.248
X3.2677Y-3.4449
X3.4449Y-3.248
X3.4449Y-3.4449
X3.622Y-3.248
X3.622Y-3.4449
X3.7992Y-3.248
X3.7992Y-3.4449
X4.4591Y-3.7362
X4.4591Y-3.8362
X4.4591Y-3.9362
X4.4591Y-4.0362
X4.4591Y-4.1362
X4.5591Y-3.7362
X4.5591Y-3.8362
X4.5591Y-3.9362
X4.5591Y-4.0362
X4.5591Y-4.1362
T3
G00X2.6449Y-4.4222
M15
G01X2.6449Y-4.4656
M16
G05
G00X2.6449Y-4.5935
M15
G01X2.6449Y-4.625
M16
G05
G00X2.985Y-4.4222
M15
G01X2.985Y-4.4656
M16
G05
G00X2.985Y-4.5935
M15
G01X2.985Y-4.625
M16
G05
M30
