%TF.GenerationSoftware,KiCad,Pcbnew,9.0.2-9.0.2-0~ubuntu24.04.1*%
%TF.CreationDate,2025-07-11T12:15:57+05:30*%
%TF.ProjectId,Programmer_rev01,50726f67-7261-46d6-9d65-725f72657630,rev?*%
%TF.SameCoordinates,Original*%
%TF.FileFunction,Copper,L2,Bot*%
%TF.FilePolarity,Positive*%
%FSLAX46Y46*%
G04 Gerber Fmt 4.6, Leading zero omitted, Abs format (unit mm)*
G04 Created by KiCad (PCBNEW 9.0.2-9.0.2-0~ubuntu24.04.1) date 2025-07-11 12:15:57*
%MOMM*%
%LPD*%
G01*
G04 APERTURE LIST*
G04 Aperture macros list*
%AMRoundRect*
0 Rectangle with rounded corners*
0 $1 Rounding radius*
0 $2 $3 $4 $5 $6 $7 $8 $9 X,Y pos of 4 corners*
0 Add a 4 corners polygon primitive as box body*
4,1,4,$2,$3,$4,$5,$6,$7,$8,$9,$2,$3,0*
0 Add four circle primitives for the rounded corners*
1,1,$1+$1,$2,$3*
1,1,$1+$1,$4,$5*
1,1,$1+$1,$6,$7*
1,1,$1+$1,$8,$9*
0 Add four rect primitives between the rounded corners*
20,1,$1+$1,$2,$3,$4,$5,0*
20,1,$1+$1,$4,$5,$6,$7,0*
20,1,$1+$1,$6,$7,$8,$9,0*
20,1,$1+$1,$8,$9,$2,$3,0*%
G04 Aperture macros list end*
%TA.AperFunction,ComponentPad*%
%ADD10C,2.000000*%
%TD*%
%TA.AperFunction,ComponentPad*%
%ADD11C,1.350000*%
%TD*%
%TA.AperFunction,ComponentPad*%
%ADD12R,1.350000X1.350000*%
%TD*%
%TA.AperFunction,HeatsinkPad*%
%ADD13O,1.000000X1.800000*%
%TD*%
%TA.AperFunction,HeatsinkPad*%
%ADD14O,1.000000X2.100000*%
%TD*%
%TA.AperFunction,ComponentPad*%
%ADD15R,1.700000X1.700000*%
%TD*%
%TA.AperFunction,ComponentPad*%
%ADD16O,1.700000X1.700000*%
%TD*%
%TA.AperFunction,ComponentPad*%
%ADD17RoundRect,0.250000X-0.600000X-0.600000X0.600000X-0.600000X0.600000X0.600000X-0.600000X0.600000X0*%
%TD*%
%TA.AperFunction,ComponentPad*%
%ADD18C,1.700000*%
%TD*%
%TA.AperFunction,ViaPad*%
%ADD19C,0.700000*%
%TD*%
%TA.AperFunction,ViaPad*%
%ADD20C,0.800000*%
%TD*%
%TA.AperFunction,Conductor*%
%ADD21C,0.200000*%
%TD*%
%TA.AperFunction,Conductor*%
%ADD22C,0.400000*%
%TD*%
%TA.AperFunction,Conductor*%
%ADD23C,0.600000*%
%TD*%
G04 APERTURE END LIST*
D10*
%TO.P,TP11,1,1*%
%TO.N,RESET*%
X74000000Y-82500000D03*
%TD*%
D11*
%TO.P,J4,3,Pin_3*%
%TO.N,SWDIO*%
X112500000Y-113500000D03*
%TO.P,J4,2,Pin_2*%
%TO.N,SWCLK*%
X114500000Y-113500000D03*
D12*
%TO.P,J4,1,Pin_1*%
%TO.N,RESET*%
X116500000Y-113500000D03*
%TD*%
D11*
%TO.P,J3,3,Pin_3*%
%TO.N,GND*%
X128000000Y-102000000D03*
%TO.P,J3,2,Pin_2*%
%TO.N,SDA*%
X128000000Y-100000000D03*
D12*
%TO.P,J3,1,Pin_1*%
%TO.N,SCL*%
X128000000Y-98000000D03*
%TD*%
D11*
%TO.P,J5,4,Pin_4*%
%TO.N,SB_LED*%
X111500000Y-86500000D03*
%TO.P,J5,3,Pin_3*%
%TO.N,BOOT_MODE*%
X113500000Y-86500000D03*
%TO.P,J5,2,Pin_2*%
%TO.N,SYS_WAKE*%
X115500000Y-86500000D03*
D12*
%TO.P,J5,1,Pin_1*%
%TO.N,+3.3VP*%
X117500000Y-86500000D03*
%TD*%
D11*
%TO.P,J2,4,Pin_4*%
%TO.N,GND*%
X101000000Y-103000000D03*
%TO.P,J2,3,Pin_3*%
%TO.N,TX*%
X101000000Y-101000000D03*
%TO.P,J2,2,Pin_2*%
%TO.N,RX*%
X101000000Y-99000000D03*
D12*
%TO.P,J2,1,Pin_1*%
%TO.N,+5V*%
X101000000Y-97000000D03*
%TD*%
D13*
%TO.P,J7,S1,SHIELD*%
%TO.N,unconnected-(J7-SHIELD-PadS1)_1*%
X75820000Y-117075000D03*
D14*
%TO.N,unconnected-(J7-SHIELD-PadS1)_3*%
X75820000Y-112875000D03*
D13*
%TO.N,unconnected-(J7-SHIELD-PadS1)_2*%
X67180000Y-117075000D03*
D14*
%TO.N,unconnected-(J7-SHIELD-PadS1)*%
X67180000Y-112875000D03*
%TD*%
D10*
%TO.P,TP14,1,1*%
%TO.N,+3.3V*%
X96500000Y-87500000D03*
%TD*%
%TO.P,TP13,1,1*%
%TO.N,SWDIO*%
X78500000Y-82500000D03*
%TD*%
%TO.P,TP12,1,1*%
%TO.N,SWCLK*%
X78500000Y-87500000D03*
%TD*%
%TO.P,TP10,1,1*%
%TO.N,GND*%
X92000000Y-82500000D03*
%TD*%
%TO.P,TP9,1,1*%
%TO.N,GND*%
X92000000Y-87500000D03*
%TD*%
%TO.P,TP8,1,1*%
%TO.N,+3.3V*%
X96500000Y-82500000D03*
%TD*%
%TO.P,TP7,1,1*%
%TO.N,SDA*%
X83000000Y-82500000D03*
%TD*%
%TO.P,TP6,1,1*%
%TO.N,SCL*%
X83000000Y-87500000D03*
%TD*%
%TO.P,TP5,1,1*%
%TO.N,TX*%
X87500000Y-82500000D03*
%TD*%
%TO.P,TP4,1,1*%
%TO.N,RX*%
X87500000Y-87500000D03*
%TD*%
%TO.P,TP3,1,1*%
%TO.N,SB_LED*%
X69500000Y-87500000D03*
%TD*%
%TO.P,TP2,1,1*%
%TO.N,BOOT_MODE*%
X74000000Y-87500000D03*
%TD*%
%TO.P,TP1,1,1*%
%TO.N,SYS_WAKE*%
X69500000Y-82500000D03*
%TD*%
D15*
%TO.P,J6,1,Pin_1*%
%TO.N,+5V*%
X115800000Y-94900000D03*
D16*
%TO.P,J6,2,Pin_2*%
%TO.N,RX*%
X113260000Y-94900000D03*
%TO.P,J6,3,Pin_3*%
%TO.N,SCL*%
X115800000Y-97440000D03*
%TO.P,J6,4,Pin_4*%
%TO.N,TX*%
X113260000Y-97440000D03*
%TO.P,J6,5,Pin_5*%
%TO.N,SDA*%
X115800000Y-99980000D03*
%TO.P,J6,6,Pin_6*%
%TO.N,SB_LED*%
X113260000Y-99980000D03*
%TO.P,J6,7,Pin_7*%
%TO.N,RESET*%
X115800000Y-102520000D03*
%TO.P,J6,8,Pin_8*%
%TO.N,SWDIO*%
X113260000Y-102520000D03*
%TO.P,J6,9,Pin_9*%
%TO.N,GND*%
X115800000Y-105060000D03*
%TO.P,J6,10,Pin_10*%
%TO.N,SWCLK*%
X113260000Y-105060000D03*
%TD*%
D17*
%TO.P,J1,1,Pin_1*%
%TO.N,+3.3VADC*%
X54247500Y-88570000D03*
D18*
%TO.P,J1,2,Pin_2*%
%TO.N,unconnected-(J1-Pin_2-Pad2)*%
X56787500Y-88570000D03*
%TO.P,J1,3,Pin_3*%
%TO.N,unconnected-(J1-Pin_3-Pad3)*%
X54247500Y-91110000D03*
%TO.P,J1,4,Pin_4*%
%TO.N,GND*%
X56787500Y-91110000D03*
%TO.P,J1,5,Pin_5*%
%TO.N,unconnected-(J1-Pin_5-Pad5)*%
X54247500Y-93650000D03*
%TO.P,J1,6,Pin_6*%
%TO.N,GND*%
X56787500Y-93650000D03*
%TO.P,J1,7,Pin_7*%
%TO.N,SWDIO*%
X54247500Y-96190000D03*
%TO.P,J1,8,Pin_8*%
%TO.N,GND*%
X56787500Y-96190000D03*
%TO.P,J1,9,Pin_9*%
%TO.N,SWCLK*%
X54247500Y-98730000D03*
%TO.P,J1,10,Pin_10*%
%TO.N,GND*%
X56787500Y-98730000D03*
%TO.P,J1,11,Pin_11*%
%TO.N,unconnected-(J1-Pin_11-Pad11)*%
X54247500Y-101270000D03*
%TO.P,J1,12,Pin_12*%
%TO.N,GND*%
X56787500Y-101270000D03*
%TO.P,J1,13,Pin_13*%
%TO.N,unconnected-(J1-Pin_13-Pad13)*%
X54247500Y-103810000D03*
%TO.P,J1,14,Pin_14*%
%TO.N,GND*%
X56787500Y-103810000D03*
%TO.P,J1,15,Pin_15*%
%TO.N,RESET*%
X54247500Y-106350000D03*
%TO.P,J1,16,Pin_16*%
%TO.N,GND*%
X56787500Y-106350000D03*
%TO.P,J1,17,Pin_17*%
%TO.N,unconnected-(J1-Pin_17-Pad17)*%
X54247500Y-108890000D03*
%TO.P,J1,18,Pin_18*%
%TO.N,GND*%
X56787500Y-108890000D03*
%TO.P,J1,19,Pin_19*%
%TO.N,unconnected-(J1-Pin_19-Pad19)*%
X54247500Y-111430000D03*
%TO.P,J1,20,Pin_20*%
%TO.N,GND*%
X56787500Y-111430000D03*
%TD*%
D19*
%TO.N,/D-*%
X72500000Y-115500000D03*
X70000000Y-115500000D03*
%TO.N,GND*%
X80000000Y-90500000D03*
X104500000Y-98000000D03*
X110000000Y-90000000D03*
X51500000Y-110000000D03*
X51500000Y-90000000D03*
X62500000Y-86500000D03*
X61500000Y-103000000D03*
X63000000Y-110500000D03*
X94000000Y-118000000D03*
X121000000Y-102000000D03*
X118000000Y-89500000D03*
X111500000Y-82000000D03*
X116500000Y-81500000D03*
X101000000Y-87500000D03*
X107500000Y-87500000D03*
X107000000Y-105000000D03*
X115500000Y-110000000D03*
X105500000Y-100000000D03*
X98000000Y-96500000D03*
%TO.N,SB_LED*%
X118500000Y-95000000D03*
%TO.N,GND*%
X100000000Y-109000000D03*
X96000000Y-104000000D03*
X91000000Y-97000000D03*
X93000000Y-99500000D03*
X84000000Y-106500000D03*
X91000000Y-103000000D03*
X109000000Y-103000000D03*
X115500000Y-92500000D03*
X101000000Y-82000000D03*
X99000000Y-93500000D03*
X94500000Y-93500000D03*
D20*
%TO.N,+3.3V*%
X96500000Y-96000000D03*
D19*
%TO.N,RESET*%
X113000000Y-83500000D03*
X108000000Y-83500000D03*
%TO.N,TX*%
X70000000Y-102500000D03*
%TO.N,RX*%
X68075000Y-102500000D03*
%TO.N,TX*%
X85530331Y-88530331D03*
D20*
%TO.N,+3.3VP*%
X98500000Y-95000000D03*
D19*
%TO.N,GND*%
X64500000Y-100000000D03*
X67000000Y-102000000D03*
X75500000Y-106500000D03*
X62500000Y-117500000D03*
X61500000Y-99000000D03*
X62500000Y-95500000D03*
X63500000Y-90500000D03*
X65000000Y-82500000D03*
X74000000Y-85000000D03*
X76500000Y-91000000D03*
X78500000Y-93000000D03*
X86000000Y-113500000D03*
X78000000Y-103500000D03*
X89500000Y-102500000D03*
X87000000Y-102500000D03*
X82000000Y-108500000D03*
X78000000Y-108500000D03*
X94000000Y-108500000D03*
X90000000Y-108500000D03*
X92000000Y-109000000D03*
X80000000Y-109000000D03*
X78000000Y-111500000D03*
X65000000Y-111500000D03*
X71500000Y-117500000D03*
X75500000Y-111000000D03*
X67500000Y-111000000D03*
X71000000Y-106500000D03*
D20*
%TO.N,+3.3VADC*%
X65000000Y-94000000D03*
%TO.N,+3.3V*%
X65500000Y-96000000D03*
X66000000Y-87500000D03*
%TO.N,VBUS*%
X75000000Y-110000000D03*
X68000000Y-110000000D03*
%TD*%
D21*
%TO.N,/D-*%
X70000000Y-115500000D02*
X72500000Y-115500000D01*
D22*
%TO.N,TX*%
X85530331Y-88969669D02*
X72000000Y-102500000D01*
X85530331Y-88530331D02*
X85530331Y-88969669D01*
X72000000Y-102500000D02*
X70000000Y-102500000D01*
X85530331Y-88530331D02*
X85530331Y-89030331D01*
X97500000Y-101000000D02*
X101000000Y-101000000D01*
X85530331Y-89030331D02*
X97500000Y-101000000D01*
D23*
%TO.N,+3.3VP*%
X98500000Y-95000000D02*
X106500000Y-95000000D01*
X106500000Y-95000000D02*
X110000000Y-91500000D01*
X110000000Y-91500000D02*
X112500000Y-91500000D01*
X112500000Y-91500000D02*
X117500000Y-86500000D01*
%TO.N,+5V*%
X101000000Y-97000000D02*
X107000000Y-97000000D01*
X107000000Y-97000000D02*
X111000000Y-93000000D01*
X111000000Y-93000000D02*
X113900000Y-93000000D01*
X113900000Y-93000000D02*
X115800000Y-94900000D01*
D22*
%TO.N,SB_LED*%
X114511000Y-98729000D02*
X113260000Y-99980000D01*
X118500000Y-95000000D02*
X118500000Y-96509182D01*
X118500000Y-96509182D02*
X116280182Y-98729000D01*
X116280182Y-98729000D02*
X114511000Y-98729000D01*
D23*
%TO.N,+3.3V*%
X96500000Y-87500000D02*
X96500000Y-96000000D01*
D22*
%TO.N,RX*%
X101000000Y-99000000D02*
X97500000Y-99000000D01*
X97500000Y-99000000D02*
X87500000Y-89000000D01*
X87500000Y-89000000D02*
X87500000Y-87500000D01*
%TO.N,RESET*%
X113000000Y-83500000D02*
X118000000Y-83500000D01*
X118000000Y-83500000D02*
X120000000Y-85500000D01*
X120000000Y-85500000D02*
X120000000Y-98320000D01*
X120000000Y-98320000D02*
X115800000Y-102520000D01*
X74000000Y-82500000D02*
X76000000Y-84500000D01*
X76000000Y-84500000D02*
X98000000Y-84500000D01*
X98000000Y-84500000D02*
X99000000Y-83500000D01*
X99000000Y-83500000D02*
X108000000Y-83500000D01*
%TO.N,SB_LED*%
X111500000Y-86500000D02*
X110500000Y-85500000D01*
X110500000Y-85500000D02*
X77500000Y-85500000D01*
X76500000Y-86500000D02*
X76500000Y-89000000D01*
X77500000Y-85500000D02*
X76500000Y-86500000D01*
X76500000Y-89000000D02*
X75500000Y-90000000D01*
X72000000Y-90000000D02*
X69500000Y-87500000D01*
X75500000Y-90000000D02*
X72000000Y-90000000D01*
%TO.N,RX*%
X87500000Y-87500000D02*
X85500000Y-87500000D01*
X85500000Y-87500000D02*
X72000000Y-101000000D01*
X72000000Y-101000000D02*
X69575000Y-101000000D01*
X69575000Y-101000000D02*
X68075000Y-102500000D01*
X111100000Y-94900000D02*
X107000000Y-99000000D01*
X113260000Y-94900000D02*
X111100000Y-94900000D01*
X107000000Y-99000000D02*
X101000000Y-99000000D01*
%TO.N,TX*%
X113260000Y-97440000D02*
X111060000Y-97440000D01*
X111060000Y-97440000D02*
X107500000Y-101000000D01*
X107500000Y-101000000D02*
X101000000Y-101000000D01*
D23*
%TO.N,+3.3VADC*%
X65000000Y-94000000D02*
X58000000Y-87000000D01*
X58000000Y-87000000D02*
X55817500Y-87000000D01*
X55817500Y-87000000D02*
X54247500Y-88570000D01*
%TO.N,+3.3V*%
X66000000Y-87500000D02*
X66000000Y-95500000D01*
X66000000Y-95500000D02*
X65500000Y-96000000D01*
%TO.N,VBUS*%
X68000000Y-110000000D02*
X75000000Y-110000000D01*
D22*
%TO.N,BOOT_MODE*%
X74000000Y-87500000D02*
X71500000Y-85000000D01*
X71500000Y-85000000D02*
X71500000Y-82500000D01*
X71500000Y-82500000D02*
X73299000Y-80701000D01*
X73299000Y-80701000D02*
X107701000Y-80701000D01*
X107701000Y-80701000D02*
X113500000Y-86500000D01*
%TO.N,RESET*%
X115800000Y-102520000D02*
X117500000Y-104220000D01*
X117500000Y-104220000D02*
X117500000Y-112500000D01*
X117500000Y-112500000D02*
X116500000Y-113500000D01*
%TD*%
%TA.AperFunction,Conductor*%
%TO.N,GND*%
G36*
X56321575Y-109082993D02*
G01*
X56387401Y-109197007D01*
X56480493Y-109290099D01*
X56594507Y-109355925D01*
X56658091Y-109372962D01*
X56057471Y-109973581D01*
X56136211Y-110090895D01*
X56137420Y-110094729D01*
X56140344Y-110097491D01*
X56147843Y-110127778D01*
X56157227Y-110157529D01*
X56156171Y-110161408D01*
X56157138Y-110165312D01*
X56147073Y-110194844D01*
X56138883Y-110224947D01*
X56135897Y-110227640D01*
X56134600Y-110231447D01*
X56089551Y-110270483D01*
X56079940Y-110275380D01*
X56025782Y-110314727D01*
X56025782Y-110314728D01*
X56658091Y-110947037D01*
X56594507Y-110964075D01*
X56480493Y-111029901D01*
X56387401Y-111122993D01*
X56321575Y-111237007D01*
X56304537Y-111300591D01*
X55672228Y-110668282D01*
X55672227Y-110668282D01*
X55632880Y-110722440D01*
X55632876Y-110722446D01*
X55628260Y-110731505D01*
X55580281Y-110782297D01*
X55512459Y-110799087D01*
X55446326Y-110776543D01*
X55407294Y-110731493D01*
X55402551Y-110722184D01*
X55402549Y-110722181D01*
X55402548Y-110722179D01*
X55277609Y-110550213D01*
X55127286Y-110399890D01*
X54955320Y-110274951D01*
X54954615Y-110274591D01*
X54946554Y-110270485D01*
X54895759Y-110222512D01*
X54878963Y-110154692D01*
X54901499Y-110088556D01*
X54946554Y-110049515D01*
X54955316Y-110045051D01*
X55010070Y-110005270D01*
X55127286Y-109920109D01*
X55127288Y-109920106D01*
X55127292Y-109920104D01*
X55277604Y-109769792D01*
X55277606Y-109769788D01*
X55277609Y-109769786D01*
X55363390Y-109651717D01*
X55402551Y-109597816D01*
X55407293Y-109588508D01*
X55455263Y-109537711D01*
X55523083Y-109520911D01*
X55589219Y-109543445D01*
X55628263Y-109588500D01*
X55632873Y-109597547D01*
X55672228Y-109651716D01*
X56304537Y-109019408D01*
X56321575Y-109082993D01*
G37*
%TD.AperFunction*%
%TA.AperFunction,Conductor*%
G36*
X56321575Y-106542993D02*
G01*
X56387401Y-106657007D01*
X56480493Y-106750099D01*
X56594507Y-106815925D01*
X56658091Y-106832962D01*
X56057471Y-107433581D01*
X56136211Y-107550895D01*
X56137420Y-107554729D01*
X56140344Y-107557491D01*
X56147843Y-107587778D01*
X56157227Y-107617529D01*
X56156171Y-107621408D01*
X56157138Y-107625312D01*
X56147073Y-107654844D01*
X56138883Y-107684947D01*
X56135897Y-107687640D01*
X56134600Y-107691447D01*
X56089551Y-107730483D01*
X56079940Y-107735380D01*
X56025782Y-107774727D01*
X56025782Y-107774728D01*
X56658091Y-108407037D01*
X56594507Y-108424075D01*
X56480493Y-108489901D01*
X56387401Y-108582993D01*
X56321575Y-108697007D01*
X56304537Y-108760591D01*
X55672228Y-108128282D01*
X55672227Y-108128282D01*
X55632880Y-108182440D01*
X55632876Y-108182446D01*
X55628260Y-108191505D01*
X55580281Y-108242297D01*
X55512459Y-108259087D01*
X55446326Y-108236543D01*
X55407294Y-108191493D01*
X55402551Y-108182184D01*
X55402549Y-108182181D01*
X55402548Y-108182179D01*
X55277609Y-108010213D01*
X55127286Y-107859890D01*
X54955320Y-107734951D01*
X54954615Y-107734591D01*
X54946554Y-107730485D01*
X54895759Y-107682512D01*
X54878963Y-107614692D01*
X54901499Y-107548556D01*
X54946554Y-107509515D01*
X54955316Y-107505051D01*
X55053687Y-107433581D01*
X55127286Y-107380109D01*
X55127288Y-107380106D01*
X55127292Y-107380104D01*
X55277604Y-107229792D01*
X55277606Y-107229788D01*
X55277609Y-107229786D01*
X55363390Y-107111717D01*
X55402551Y-107057816D01*
X55407293Y-107048508D01*
X55455263Y-106997711D01*
X55523083Y-106980911D01*
X55589219Y-107003445D01*
X55628263Y-107048500D01*
X55632873Y-107057547D01*
X55672228Y-107111716D01*
X56304537Y-106479408D01*
X56321575Y-106542993D01*
G37*
%TD.AperFunction*%
%TA.AperFunction,Conductor*%
G36*
X56321575Y-104002993D02*
G01*
X56387401Y-104117007D01*
X56480493Y-104210099D01*
X56594507Y-104275925D01*
X56658091Y-104292962D01*
X56057471Y-104893581D01*
X56136211Y-105010895D01*
X56137420Y-105014729D01*
X56140344Y-105017491D01*
X56147843Y-105047778D01*
X56157227Y-105077529D01*
X56156171Y-105081408D01*
X56157138Y-105085312D01*
X56147073Y-105114844D01*
X56138883Y-105144947D01*
X56135897Y-105147640D01*
X56134600Y-105151447D01*
X56089551Y-105190483D01*
X56079940Y-105195380D01*
X56025782Y-105234727D01*
X56025782Y-105234728D01*
X56658091Y-105867037D01*
X56594507Y-105884075D01*
X56480493Y-105949901D01*
X56387401Y-106042993D01*
X56321575Y-106157007D01*
X56304537Y-106220591D01*
X55672228Y-105588282D01*
X55672227Y-105588282D01*
X55632880Y-105642440D01*
X55632876Y-105642446D01*
X55628260Y-105651505D01*
X55580281Y-105702297D01*
X55512459Y-105719087D01*
X55446326Y-105696543D01*
X55407294Y-105651493D01*
X55402551Y-105642184D01*
X55402549Y-105642181D01*
X55402548Y-105642179D01*
X55277609Y-105470213D01*
X55127286Y-105319890D01*
X54955320Y-105194951D01*
X54954615Y-105194591D01*
X54946554Y-105190485D01*
X54895759Y-105142512D01*
X54878963Y-105074692D01*
X54901499Y-105008556D01*
X54946554Y-104969515D01*
X54955316Y-104965051D01*
X55053687Y-104893581D01*
X55127286Y-104840109D01*
X55127288Y-104840106D01*
X55127292Y-104840104D01*
X55277604Y-104689792D01*
X55277606Y-104689788D01*
X55277609Y-104689786D01*
X55363390Y-104571717D01*
X55402551Y-104517816D01*
X55407293Y-104508508D01*
X55455263Y-104457711D01*
X55523083Y-104440911D01*
X55589219Y-104463445D01*
X55628263Y-104508500D01*
X55632873Y-104517547D01*
X55672228Y-104571716D01*
X56304537Y-103939408D01*
X56321575Y-104002993D01*
G37*
%TD.AperFunction*%
%TA.AperFunction,Conductor*%
G36*
X56321575Y-101462993D02*
G01*
X56387401Y-101577007D01*
X56480493Y-101670099D01*
X56594507Y-101735925D01*
X56658091Y-101752962D01*
X56057471Y-102353581D01*
X56136211Y-102470895D01*
X56137420Y-102474729D01*
X56140344Y-102477491D01*
X56147843Y-102507778D01*
X56157227Y-102537529D01*
X56156171Y-102541408D01*
X56157138Y-102545312D01*
X56147073Y-102574844D01*
X56138883Y-102604947D01*
X56135897Y-102607640D01*
X56134600Y-102611447D01*
X56089551Y-102650483D01*
X56079940Y-102655380D01*
X56025782Y-102694727D01*
X56025782Y-102694728D01*
X56658091Y-103327037D01*
X56594507Y-103344075D01*
X56480493Y-103409901D01*
X56387401Y-103502993D01*
X56321575Y-103617007D01*
X56304537Y-103680591D01*
X55672228Y-103048282D01*
X55672227Y-103048282D01*
X55632880Y-103102440D01*
X55632876Y-103102446D01*
X55628260Y-103111505D01*
X55580281Y-103162297D01*
X55512459Y-103179087D01*
X55446326Y-103156543D01*
X55407294Y-103111493D01*
X55402551Y-103102184D01*
X55402549Y-103102181D01*
X55402548Y-103102179D01*
X55277609Y-102930213D01*
X55127286Y-102779890D01*
X54955320Y-102654951D01*
X54954615Y-102654591D01*
X54946554Y-102650485D01*
X54895759Y-102602512D01*
X54878963Y-102534692D01*
X54901499Y-102468556D01*
X54946554Y-102429515D01*
X54955316Y-102425051D01*
X55010070Y-102385270D01*
X55127286Y-102300109D01*
X55127288Y-102300106D01*
X55127292Y-102300104D01*
X55277604Y-102149792D01*
X55277606Y-102149788D01*
X55277609Y-102149786D01*
X55363390Y-102031717D01*
X55402551Y-101977816D01*
X55407293Y-101968508D01*
X55455263Y-101917711D01*
X55523083Y-101900911D01*
X55589219Y-101923445D01*
X55628263Y-101968500D01*
X55632873Y-101977547D01*
X55672228Y-102031716D01*
X56304537Y-101399408D01*
X56321575Y-101462993D01*
G37*
%TD.AperFunction*%
%TA.AperFunction,Conductor*%
G36*
X56321575Y-98922993D02*
G01*
X56387401Y-99037007D01*
X56480493Y-99130099D01*
X56594507Y-99195925D01*
X56658091Y-99212962D01*
X56057471Y-99813581D01*
X56136211Y-99930895D01*
X56137420Y-99934729D01*
X56140344Y-99937491D01*
X56147843Y-99967778D01*
X56157227Y-99997529D01*
X56156171Y-100001408D01*
X56157138Y-100005312D01*
X56147073Y-100034844D01*
X56138883Y-100064947D01*
X56135897Y-100067640D01*
X56134600Y-100071447D01*
X56089551Y-100110483D01*
X56079940Y-100115380D01*
X56025782Y-100154727D01*
X56025782Y-100154728D01*
X56658091Y-100787037D01*
X56594507Y-100804075D01*
X56480493Y-100869901D01*
X56387401Y-100962993D01*
X56321575Y-101077007D01*
X56304537Y-101140591D01*
X55672228Y-100508282D01*
X55672227Y-100508282D01*
X55632880Y-100562440D01*
X55632876Y-100562446D01*
X55628260Y-100571505D01*
X55580281Y-100622297D01*
X55512459Y-100639087D01*
X55446326Y-100616543D01*
X55407294Y-100571493D01*
X55402551Y-100562184D01*
X55402549Y-100562181D01*
X55402548Y-100562179D01*
X55277609Y-100390213D01*
X55127286Y-100239890D01*
X54955320Y-100114951D01*
X54954615Y-100114591D01*
X54946554Y-100110485D01*
X54895759Y-100062512D01*
X54878963Y-99994692D01*
X54901499Y-99928556D01*
X54946554Y-99889515D01*
X54955316Y-99885051D01*
X55053687Y-99813581D01*
X55127286Y-99760109D01*
X55127288Y-99760106D01*
X55127292Y-99760104D01*
X55277604Y-99609792D01*
X55277606Y-99609788D01*
X55277609Y-99609786D01*
X55363390Y-99491717D01*
X55402551Y-99437816D01*
X55407293Y-99428508D01*
X55455263Y-99377711D01*
X55523083Y-99360911D01*
X55589219Y-99383445D01*
X55628263Y-99428500D01*
X55632873Y-99437547D01*
X55672228Y-99491716D01*
X56304537Y-98859408D01*
X56321575Y-98922993D01*
G37*
%TD.AperFunction*%
%TA.AperFunction,Conductor*%
G36*
X56321575Y-96382993D02*
G01*
X56387401Y-96497007D01*
X56480493Y-96590099D01*
X56594507Y-96655925D01*
X56658091Y-96672962D01*
X56057471Y-97273581D01*
X56136211Y-97390895D01*
X56137420Y-97394729D01*
X56140344Y-97397491D01*
X56147843Y-97427778D01*
X56157227Y-97457529D01*
X56156171Y-97461408D01*
X56157138Y-97465312D01*
X56147073Y-97494844D01*
X56138883Y-97524947D01*
X56135897Y-97527640D01*
X56134600Y-97531447D01*
X56089551Y-97570483D01*
X56079940Y-97575380D01*
X56025782Y-97614727D01*
X56025782Y-97614728D01*
X56658091Y-98247037D01*
X56594507Y-98264075D01*
X56480493Y-98329901D01*
X56387401Y-98422993D01*
X56321575Y-98537007D01*
X56304537Y-98600591D01*
X55672228Y-97968282D01*
X55672227Y-97968282D01*
X55632880Y-98022440D01*
X55632876Y-98022446D01*
X55628260Y-98031505D01*
X55580281Y-98082297D01*
X55512459Y-98099087D01*
X55446326Y-98076543D01*
X55407294Y-98031493D01*
X55402551Y-98022184D01*
X55402549Y-98022181D01*
X55402548Y-98022179D01*
X55277609Y-97850213D01*
X55127286Y-97699890D01*
X54955320Y-97574951D01*
X54954615Y-97574591D01*
X54946554Y-97570485D01*
X54895759Y-97522512D01*
X54878963Y-97454692D01*
X54901499Y-97388556D01*
X54946554Y-97349515D01*
X54955316Y-97345051D01*
X55048795Y-97277135D01*
X55127286Y-97220109D01*
X55127288Y-97220106D01*
X55127292Y-97220104D01*
X55277604Y-97069792D01*
X55277606Y-97069788D01*
X55277609Y-97069786D01*
X55363390Y-96951717D01*
X55402551Y-96897816D01*
X55407293Y-96888508D01*
X55455263Y-96837711D01*
X55523083Y-96820911D01*
X55589219Y-96843445D01*
X55628263Y-96888500D01*
X55632873Y-96897547D01*
X55672228Y-96951716D01*
X56304537Y-96319408D01*
X56321575Y-96382993D01*
G37*
%TD.AperFunction*%
%TA.AperFunction,Conductor*%
G36*
X56321575Y-93842993D02*
G01*
X56387401Y-93957007D01*
X56480493Y-94050099D01*
X56594507Y-94115925D01*
X56658091Y-94132962D01*
X56057471Y-94733581D01*
X56136211Y-94850895D01*
X56137420Y-94854729D01*
X56140344Y-94857491D01*
X56147843Y-94887778D01*
X56157227Y-94917529D01*
X56156171Y-94921408D01*
X56157138Y-94925312D01*
X56147073Y-94954844D01*
X56138883Y-94984947D01*
X56135897Y-94987640D01*
X56134600Y-94991447D01*
X56089551Y-95030483D01*
X56079940Y-95035380D01*
X56025782Y-95074727D01*
X56025782Y-95074728D01*
X56658091Y-95707037D01*
X56594507Y-95724075D01*
X56480493Y-95789901D01*
X56387401Y-95882993D01*
X56321575Y-95997007D01*
X56304537Y-96060591D01*
X55672228Y-95428282D01*
X55672227Y-95428282D01*
X55632880Y-95482440D01*
X55632876Y-95482446D01*
X55628260Y-95491505D01*
X55580281Y-95542297D01*
X55512459Y-95559087D01*
X55446326Y-95536543D01*
X55407294Y-95491493D01*
X55402551Y-95482184D01*
X55402549Y-95482181D01*
X55402548Y-95482179D01*
X55277609Y-95310213D01*
X55127286Y-95159890D01*
X54955320Y-95034951D01*
X54954615Y-95034591D01*
X54946554Y-95030485D01*
X54895759Y-94982512D01*
X54878963Y-94914692D01*
X54901499Y-94848556D01*
X54946554Y-94809515D01*
X54955316Y-94805051D01*
X55028449Y-94751917D01*
X55127286Y-94680109D01*
X55127288Y-94680106D01*
X55127292Y-94680104D01*
X55277604Y-94529792D01*
X55277606Y-94529788D01*
X55277609Y-94529786D01*
X55352615Y-94426547D01*
X55402551Y-94357816D01*
X55407293Y-94348508D01*
X55455263Y-94297711D01*
X55523083Y-94280911D01*
X55589219Y-94303445D01*
X55628263Y-94348500D01*
X55632873Y-94357547D01*
X55672228Y-94411716D01*
X56304537Y-93779408D01*
X56321575Y-93842993D01*
G37*
%TD.AperFunction*%
%TA.AperFunction,Conductor*%
G36*
X56321575Y-91302993D02*
G01*
X56387401Y-91417007D01*
X56480493Y-91510099D01*
X56594507Y-91575925D01*
X56658091Y-91592962D01*
X56057471Y-92193581D01*
X56136211Y-92310895D01*
X56137420Y-92314729D01*
X56140344Y-92317491D01*
X56147843Y-92347778D01*
X56157227Y-92377529D01*
X56156171Y-92381408D01*
X56157138Y-92385312D01*
X56147073Y-92414844D01*
X56138883Y-92444947D01*
X56135897Y-92447640D01*
X56134600Y-92451447D01*
X56089551Y-92490483D01*
X56079940Y-92495380D01*
X56025782Y-92534727D01*
X56025782Y-92534728D01*
X56658091Y-93167037D01*
X56594507Y-93184075D01*
X56480493Y-93249901D01*
X56387401Y-93342993D01*
X56321575Y-93457007D01*
X56304537Y-93520591D01*
X55672228Y-92888282D01*
X55672227Y-92888282D01*
X55632880Y-92942440D01*
X55632876Y-92942446D01*
X55628260Y-92951505D01*
X55580281Y-93002297D01*
X55512459Y-93019087D01*
X55446326Y-92996543D01*
X55407294Y-92951493D01*
X55402551Y-92942184D01*
X55402549Y-92942181D01*
X55402548Y-92942179D01*
X55277609Y-92770213D01*
X55127286Y-92619890D01*
X54955320Y-92494951D01*
X54954615Y-92494591D01*
X54946554Y-92490485D01*
X54895759Y-92442512D01*
X54878963Y-92374692D01*
X54901499Y-92308556D01*
X54946554Y-92269515D01*
X54955316Y-92265051D01*
X55053687Y-92193581D01*
X55127286Y-92140109D01*
X55127288Y-92140106D01*
X55127292Y-92140104D01*
X55277604Y-91989792D01*
X55277606Y-91989788D01*
X55277609Y-91989786D01*
X55363390Y-91871717D01*
X55402551Y-91817816D01*
X55407293Y-91808508D01*
X55455263Y-91757711D01*
X55523083Y-91740911D01*
X55589219Y-91763445D01*
X55628263Y-91808500D01*
X55632873Y-91817547D01*
X55672228Y-91871716D01*
X56304537Y-91239408D01*
X56321575Y-91302993D01*
G37*
%TD.AperFunction*%
%TA.AperFunction,Conductor*%
G36*
X55708874Y-89406821D02*
G01*
X55753834Y-89444891D01*
X55757390Y-89449785D01*
X55757394Y-89449790D01*
X55907713Y-89600109D01*
X56079679Y-89725048D01*
X56079681Y-89725049D01*
X56079684Y-89725051D01*
X56088993Y-89729794D01*
X56139790Y-89777766D01*
X56156587Y-89845587D01*
X56134052Y-89911722D01*
X56089005Y-89950760D01*
X56079946Y-89955376D01*
X56079940Y-89955380D01*
X56025782Y-89994727D01*
X56025782Y-89994728D01*
X56658091Y-90627037D01*
X56594507Y-90644075D01*
X56480493Y-90709901D01*
X56387401Y-90802993D01*
X56321575Y-90917007D01*
X56304537Y-90980591D01*
X55672228Y-90348282D01*
X55672227Y-90348282D01*
X55632880Y-90402440D01*
X55632876Y-90402446D01*
X55628260Y-90411505D01*
X55580281Y-90462297D01*
X55512459Y-90479087D01*
X55446326Y-90456543D01*
X55407294Y-90411493D01*
X55402551Y-90402184D01*
X55402549Y-90402181D01*
X55402548Y-90402179D01*
X55277609Y-90230213D01*
X55127290Y-90079894D01*
X55127285Y-90079890D01*
X55122391Y-90076334D01*
X55079727Y-90021003D01*
X55073749Y-89951390D01*
X55106357Y-89889595D01*
X55156274Y-89858312D01*
X55166834Y-89854814D01*
X55316156Y-89762712D01*
X55440212Y-89638656D01*
X55532314Y-89489334D01*
X55535812Y-89478775D01*
X55575582Y-89421332D01*
X55640098Y-89394507D01*
X55708874Y-89406821D01*
G37*
%TD.AperFunction*%
%TA.AperFunction,Conductor*%
G36*
X72276520Y-80520185D02*
G01*
X72322275Y-80572989D01*
X72332219Y-80642147D01*
X72303194Y-80705703D01*
X72297162Y-80712181D01*
X71076992Y-81932350D01*
X71015669Y-81965835D01*
X70945977Y-81960851D01*
X70890044Y-81918979D01*
X70878828Y-81900968D01*
X70783343Y-81713567D01*
X70644517Y-81522490D01*
X70477510Y-81355483D01*
X70286433Y-81216657D01*
X70260034Y-81203206D01*
X70075996Y-81109433D01*
X69851368Y-81036446D01*
X69618097Y-80999500D01*
X69618092Y-80999500D01*
X69381908Y-80999500D01*
X69381903Y-80999500D01*
X69148631Y-81036446D01*
X68924003Y-81109433D01*
X68713566Y-81216657D01*
X68630965Y-81276671D01*
X68522490Y-81355483D01*
X68522488Y-81355485D01*
X68522487Y-81355485D01*
X68355485Y-81522487D01*
X68355485Y-81522488D01*
X68355483Y-81522490D01*
X68300341Y-81598386D01*
X68216657Y-81713566D01*
X68109433Y-81924003D01*
X68036446Y-82148631D01*
X67999500Y-82381902D01*
X67999500Y-82618097D01*
X68036446Y-82851368D01*
X68109433Y-83075996D01*
X68203534Y-83260678D01*
X68216657Y-83286433D01*
X68355483Y-83477510D01*
X68522490Y-83644517D01*
X68713567Y-83783343D01*
X68812991Y-83834002D01*
X68924003Y-83890566D01*
X68924005Y-83890566D01*
X68924008Y-83890568D01*
X69012153Y-83919208D01*
X69148631Y-83963553D01*
X69381903Y-84000500D01*
X69381908Y-84000500D01*
X69618097Y-84000500D01*
X69851368Y-83963553D01*
X69876971Y-83955234D01*
X70075992Y-83890568D01*
X70286433Y-83783343D01*
X70477510Y-83644517D01*
X70587819Y-83534208D01*
X70649142Y-83500723D01*
X70718834Y-83505707D01*
X70774767Y-83547579D01*
X70799184Y-83613043D01*
X70799500Y-83621889D01*
X70799500Y-85068994D01*
X70826418Y-85204322D01*
X70826421Y-85204332D01*
X70879222Y-85331807D01*
X70955887Y-85446545D01*
X70955888Y-85446546D01*
X72512518Y-87003175D01*
X72546003Y-87064498D01*
X72542769Y-87129170D01*
X72536447Y-87148627D01*
X72536447Y-87148628D01*
X72499500Y-87381902D01*
X72499500Y-87618097D01*
X72536446Y-87851368D01*
X72609433Y-88075996D01*
X72687227Y-88228674D01*
X72716657Y-88286433D01*
X72855483Y-88477510D01*
X73022490Y-88644517D01*
X73213567Y-88783343D01*
X73276814Y-88815569D01*
X73424003Y-88890566D01*
X73424005Y-88890566D01*
X73424008Y-88890568D01*
X73544412Y-88929689D01*
X73648631Y-88963553D01*
X73881903Y-89000500D01*
X73881908Y-89000500D01*
X74118097Y-89000500D01*
X74351368Y-88963553D01*
X74376971Y-88955234D01*
X74575992Y-88890568D01*
X74786433Y-88783343D01*
X74977510Y-88644517D01*
X75144517Y-88477510D01*
X75283343Y-88286433D01*
X75390568Y-88075992D01*
X75463553Y-87851368D01*
X75470579Y-87807007D01*
X75500500Y-87618097D01*
X75500500Y-87381902D01*
X75463553Y-87148631D01*
X75400926Y-86955886D01*
X75390568Y-86924008D01*
X75390566Y-86924005D01*
X75390566Y-86924003D01*
X75314779Y-86775264D01*
X75283343Y-86713567D01*
X75144517Y-86522490D01*
X74977510Y-86355483D01*
X74786433Y-86216657D01*
X74785483Y-86216173D01*
X74575996Y-86109433D01*
X74351368Y-86036446D01*
X74118097Y-85999500D01*
X74118092Y-85999500D01*
X73881908Y-85999500D01*
X73881903Y-85999500D01*
X73648628Y-86036447D01*
X73648627Y-86036447D01*
X73629170Y-86042769D01*
X73559329Y-86044762D01*
X73503175Y-86012518D01*
X72236819Y-84746162D01*
X72203334Y-84684839D01*
X72200500Y-84658481D01*
X72200500Y-82841519D01*
X72209143Y-82812082D01*
X72215667Y-82782093D01*
X72219422Y-82777075D01*
X72220185Y-82774480D01*
X72236813Y-82753843D01*
X72310063Y-82680593D01*
X72371382Y-82647111D01*
X72441074Y-82652095D01*
X72497008Y-82693966D01*
X72520214Y-82748879D01*
X72536446Y-82851368D01*
X72609433Y-83075996D01*
X72703534Y-83260678D01*
X72716657Y-83286433D01*
X72855483Y-83477510D01*
X73022490Y-83644517D01*
X73213567Y-83783343D01*
X73312991Y-83834002D01*
X73424003Y-83890566D01*
X73424005Y-83890566D01*
X73424008Y-83890568D01*
X73512153Y-83919208D01*
X73648631Y-83963553D01*
X73881903Y-84000500D01*
X73881908Y-84000500D01*
X74118097Y-84000500D01*
X74292533Y-83972871D01*
X74351368Y-83963553D01*
X74370824Y-83957230D01*
X74440661Y-83955234D01*
X74496823Y-83987480D01*
X75553451Y-85044109D01*
X75553454Y-85044112D01*
X75590693Y-85068994D01*
X75668192Y-85120777D01*
X75782640Y-85168182D01*
X75795672Y-85173580D01*
X75795676Y-85173580D01*
X75795677Y-85173581D01*
X75931004Y-85200500D01*
X75931007Y-85200500D01*
X76509481Y-85200500D01*
X76576520Y-85220185D01*
X76622275Y-85272989D01*
X76632219Y-85342147D01*
X76603194Y-85405703D01*
X76597162Y-85412181D01*
X75955888Y-86053453D01*
X75955887Y-86053454D01*
X75879222Y-86168192D01*
X75826421Y-86295667D01*
X75826418Y-86295679D01*
X75804179Y-86407484D01*
X75804179Y-86407488D01*
X75799500Y-86431007D01*
X75799500Y-88658481D01*
X75779815Y-88725520D01*
X75763181Y-88746162D01*
X75246162Y-89263181D01*
X75184839Y-89296666D01*
X75158481Y-89299500D01*
X72341519Y-89299500D01*
X72274480Y-89279815D01*
X72253838Y-89263181D01*
X70987480Y-87996823D01*
X70953995Y-87935500D01*
X70957230Y-87870825D01*
X70963553Y-87851368D01*
X70977603Y-87762658D01*
X71000500Y-87618097D01*
X71000500Y-87381902D01*
X70963553Y-87148631D01*
X70900926Y-86955886D01*
X70890568Y-86924008D01*
X70890566Y-86924005D01*
X70890566Y-86924003D01*
X70814779Y-86775264D01*
X70783343Y-86713567D01*
X70644517Y-86522490D01*
X70477510Y-86355483D01*
X70286433Y-86216657D01*
X70285483Y-86216173D01*
X70075996Y-86109433D01*
X69851368Y-86036446D01*
X69618097Y-85999500D01*
X69618092Y-85999500D01*
X69381908Y-85999500D01*
X69381903Y-85999500D01*
X69148631Y-86036446D01*
X68924003Y-86109433D01*
X68713566Y-86216657D01*
X68681157Y-86240204D01*
X68522490Y-86355483D01*
X68522488Y-86355485D01*
X68522487Y-86355485D01*
X68355485Y-86522487D01*
X68355485Y-86522488D01*
X68355483Y-86522490D01*
X68299532Y-86599500D01*
X68216657Y-86713566D01*
X68109433Y-86924003D01*
X68036446Y-87148631D01*
X67999500Y-87381902D01*
X67999500Y-87618097D01*
X68036446Y-87851368D01*
X68109433Y-88075996D01*
X68187227Y-88228674D01*
X68216657Y-88286433D01*
X68355483Y-88477510D01*
X68522490Y-88644517D01*
X68713567Y-88783343D01*
X68776814Y-88815569D01*
X68924003Y-88890566D01*
X68924005Y-88890566D01*
X68924008Y-88890568D01*
X69044412Y-88929689D01*
X69148631Y-88963553D01*
X69381903Y-89000500D01*
X69381908Y-89000500D01*
X69618097Y-89000500D01*
X69792533Y-88972871D01*
X69851368Y-88963553D01*
X69870824Y-88957230D01*
X69940661Y-88955234D01*
X69996823Y-88987480D01*
X71553453Y-90544111D01*
X71553454Y-90544112D01*
X71668192Y-90620777D01*
X71795667Y-90673578D01*
X71795672Y-90673580D01*
X71795676Y-90673580D01*
X71795677Y-90673581D01*
X71931003Y-90700500D01*
X71931006Y-90700500D01*
X75568996Y-90700500D01*
X75660040Y-90682389D01*
X75704328Y-90673580D01*
X75775560Y-90644075D01*
X75831807Y-90620777D01*
X75831808Y-90620776D01*
X75831811Y-90620775D01*
X75946543Y-90544114D01*
X77044114Y-89446543D01*
X77120775Y-89331811D01*
X77135333Y-89296666D01*
X77167081Y-89220018D01*
X77173580Y-89204328D01*
X77196637Y-89088414D01*
X77200500Y-89068996D01*
X77200500Y-88621889D01*
X77220185Y-88554850D01*
X77272989Y-88509095D01*
X77342147Y-88499151D01*
X77405703Y-88528176D01*
X77412181Y-88534208D01*
X77522490Y-88644517D01*
X77713567Y-88783343D01*
X77776814Y-88815569D01*
X77924003Y-88890566D01*
X77924005Y-88890566D01*
X77924008Y-88890568D01*
X78044412Y-88929689D01*
X78148631Y-88963553D01*
X78381903Y-89000500D01*
X78381908Y-89000500D01*
X78618097Y-89000500D01*
X78851368Y-88963553D01*
X78876971Y-88955234D01*
X79075992Y-88890568D01*
X79286433Y-88783343D01*
X79477510Y-88644517D01*
X79644517Y-88477510D01*
X79783343Y-88286433D01*
X79890568Y-88075992D01*
X79963553Y-87851368D01*
X79970579Y-87807007D01*
X80000500Y-87618097D01*
X80000500Y-87381902D01*
X79963553Y-87148631D01*
X79900926Y-86955886D01*
X79890568Y-86924008D01*
X79890566Y-86924005D01*
X79890566Y-86924003D01*
X79814779Y-86775264D01*
X79783343Y-86713567D01*
X79644517Y-86522490D01*
X79534208Y-86412181D01*
X79500723Y-86350858D01*
X79505707Y-86281166D01*
X79547579Y-86225233D01*
X79613043Y-86200816D01*
X79621889Y-86200500D01*
X81878111Y-86200500D01*
X81945150Y-86220185D01*
X81990905Y-86272989D01*
X82000849Y-86342147D01*
X81971824Y-86405703D01*
X81965792Y-86412181D01*
X81855485Y-86522487D01*
X81855485Y-86522488D01*
X81855483Y-86522490D01*
X81799532Y-86599500D01*
X81716657Y-86713566D01*
X81609433Y-86924003D01*
X81536446Y-87148631D01*
X81499500Y-87381902D01*
X81499500Y-87618097D01*
X81536446Y-87851368D01*
X81609433Y-88075996D01*
X81687227Y-88228674D01*
X81716657Y-88286433D01*
X81855483Y-88477510D01*
X82022490Y-88644517D01*
X82213567Y-88783343D01*
X82276814Y-88815569D01*
X82424003Y-88890566D01*
X82424005Y-88890566D01*
X82424008Y-88890568D01*
X82544412Y-88929689D01*
X82648631Y-88963553D01*
X82691610Y-88970359D01*
X82751119Y-88979785D01*
X82814254Y-89009714D01*
X82851186Y-89069025D01*
X82850188Y-89138888D01*
X82819403Y-89189939D01*
X71746162Y-100263181D01*
X71684839Y-100296666D01*
X71658481Y-100299500D01*
X69506003Y-100299500D01*
X69397590Y-100321065D01*
X69397589Y-100321065D01*
X69384131Y-100323742D01*
X69370673Y-100326419D01*
X69370671Y-100326420D01*
X69317866Y-100348292D01*
X69317864Y-100348293D01*
X69317863Y-100348292D01*
X69243191Y-100379223D01*
X69131413Y-100453912D01*
X69131403Y-100453919D01*
X69128456Y-100455887D01*
X67947438Y-101636903D01*
X67886115Y-101670388D01*
X67883949Y-101670839D01*
X67826923Y-101682182D01*
X67826917Y-101682184D01*
X67672139Y-101746295D01*
X67532837Y-101839373D01*
X67414373Y-101957837D01*
X67321295Y-102097139D01*
X67257184Y-102251917D01*
X67257182Y-102251925D01*
X67224500Y-102416228D01*
X67224500Y-102583771D01*
X67257182Y-102748074D01*
X67257184Y-102748082D01*
X67321295Y-102902860D01*
X67414373Y-103042162D01*
X67532837Y-103160626D01*
X67589119Y-103198232D01*
X67672137Y-103253703D01*
X67826918Y-103317816D01*
X67958932Y-103344075D01*
X67991228Y-103350499D01*
X67991232Y-103350500D01*
X67991233Y-103350500D01*
X68158768Y-103350500D01*
X68158769Y-103350499D01*
X68323082Y-103317816D01*
X68477863Y-103253703D01*
X68617162Y-103160626D01*
X68735626Y-103042162D01*
X68828703Y-102902863D01*
X68892816Y-102748082D01*
X68904160Y-102691046D01*
X68912925Y-102674291D01*
X68916945Y-102655813D01*
X68935687Y-102630776D01*
X68936544Y-102629139D01*
X68938046Y-102627609D01*
X68957652Y-102608003D01*
X69018974Y-102574519D01*
X69088666Y-102579503D01*
X69144599Y-102621375D01*
X69166949Y-102671494D01*
X69182182Y-102748074D01*
X69182184Y-102748082D01*
X69246295Y-102902860D01*
X69339373Y-103042162D01*
X69457837Y-103160626D01*
X69514119Y-103198232D01*
X69597137Y-103253703D01*
X69751918Y-103317816D01*
X69883932Y-103344075D01*
X69916228Y-103350499D01*
X69916232Y-103350500D01*
X69916233Y-103350500D01*
X70083768Y-103350500D01*
X70083769Y-103350499D01*
X70248082Y-103317816D01*
X70402863Y-103253703D01*
X70451211Y-103221398D01*
X70517888Y-103200520D01*
X70520102Y-103200500D01*
X72068996Y-103200500D01*
X72160040Y-103182389D01*
X72204328Y-103173580D01*
X72270753Y-103146066D01*
X72331807Y-103120777D01*
X72331808Y-103120776D01*
X72331811Y-103120775D01*
X72446543Y-103044114D01*
X72560449Y-102930208D01*
X72675685Y-102814973D01*
X82194211Y-93296446D01*
X85412320Y-90078336D01*
X85473641Y-90044853D01*
X85543333Y-90049837D01*
X85587680Y-90078338D01*
X97053454Y-101544112D01*
X97168190Y-101620776D01*
X97266790Y-101661617D01*
X97295671Y-101673580D01*
X97295672Y-101673580D01*
X97295677Y-101673582D01*
X97322545Y-101678925D01*
X97322551Y-101678926D01*
X97322591Y-101678934D01*
X97412937Y-101696905D01*
X97431006Y-101700500D01*
X97431007Y-101700500D01*
X99992764Y-101700500D01*
X100059803Y-101720185D01*
X100093080Y-101751612D01*
X100103379Y-101765787D01*
X100234213Y-101896621D01*
X100304020Y-101947339D01*
X100308831Y-101950834D01*
X100323806Y-101970254D01*
X100953554Y-102600000D01*
X100947339Y-102600000D01*
X100845606Y-102627259D01*
X100754394Y-102679920D01*
X100679920Y-102754394D01*
X100627259Y-102845606D01*
X100600000Y-102947339D01*
X100600000Y-102953553D01*
X100010015Y-102363568D01*
X99995049Y-102384167D01*
X99911084Y-102548956D01*
X99911083Y-102548959D01*
X99853933Y-102724852D01*
X99825000Y-102907526D01*
X99825000Y-103092473D01*
X99853933Y-103275147D01*
X99911083Y-103451040D01*
X99911084Y-103451043D01*
X99995050Y-103615834D01*
X100010015Y-103636430D01*
X100010016Y-103636431D01*
X100600000Y-103046447D01*
X100600000Y-103052661D01*
X100627259Y-103154394D01*
X100679920Y-103245606D01*
X100754394Y-103320080D01*
X100845606Y-103372741D01*
X100947339Y-103400000D01*
X100953553Y-103400000D01*
X100363568Y-103989983D01*
X100363568Y-103989984D01*
X100384165Y-104004949D01*
X100548956Y-104088915D01*
X100548959Y-104088916D01*
X100724852Y-104146066D01*
X100907527Y-104175000D01*
X101092473Y-104175000D01*
X101275147Y-104146066D01*
X101451040Y-104088916D01*
X101451043Y-104088915D01*
X101615836Y-104004947D01*
X101615845Y-104004942D01*
X101636430Y-103989984D01*
X101636431Y-103989983D01*
X101046448Y-103400000D01*
X101052661Y-103400000D01*
X101154394Y-103372741D01*
X101245606Y-103320080D01*
X101320080Y-103245606D01*
X101372741Y-103154394D01*
X101400000Y-103052661D01*
X101400000Y-103046448D01*
X101989983Y-103636431D01*
X101989984Y-103636430D01*
X102004942Y-103615845D01*
X102004947Y-103615836D01*
X102088915Y-103451043D01*
X102088916Y-103451040D01*
X102146066Y-103275147D01*
X102175000Y-103092473D01*
X102175000Y-102907526D01*
X102146066Y-102724852D01*
X102088916Y-102548959D01*
X102088915Y-102548956D01*
X102004949Y-102384165D01*
X101989983Y-102363568D01*
X101400000Y-102953551D01*
X101400000Y-102947339D01*
X101372741Y-102845606D01*
X101320080Y-102754394D01*
X101245606Y-102679920D01*
X101154394Y-102627259D01*
X101052661Y-102600000D01*
X101046447Y-102600000D01*
X101660675Y-101985771D01*
X101691165Y-101950836D01*
X101765787Y-101896621D01*
X101896621Y-101765787D01*
X101906919Y-101751612D01*
X101962250Y-101708948D01*
X102007236Y-101700500D01*
X107568996Y-101700500D01*
X107677457Y-101678925D01*
X107704328Y-101673580D01*
X107769836Y-101646446D01*
X107831807Y-101620777D01*
X107831808Y-101620776D01*
X107831811Y-101620775D01*
X107946543Y-101544114D01*
X111313838Y-98176819D01*
X111375161Y-98143334D01*
X111401519Y-98140500D01*
X112036453Y-98140500D01*
X112103492Y-98160185D01*
X112136769Y-98191614D01*
X112151280Y-98211585D01*
X112229892Y-98319788D01*
X112380213Y-98470109D01*
X112552182Y-98595050D01*
X112560946Y-98599516D01*
X112611742Y-98647491D01*
X112628536Y-98715312D01*
X112605998Y-98781447D01*
X112560946Y-98820484D01*
X112552182Y-98824949D01*
X112380213Y-98949890D01*
X112229890Y-99100213D01*
X112104951Y-99272179D01*
X112008444Y-99461585D01*
X111942753Y-99663760D01*
X111933017Y-99725233D01*
X111909500Y-99873713D01*
X111909500Y-100086287D01*
X111913333Y-100110486D01*
X111941931Y-100291052D01*
X111942754Y-100296243D01*
X111993986Y-100453919D01*
X112008444Y-100498414D01*
X112104951Y-100687820D01*
X112229890Y-100859786D01*
X112380213Y-101010109D01*
X112552182Y-101135050D01*
X112560946Y-101139516D01*
X112611742Y-101187491D01*
X112628536Y-101255312D01*
X112605998Y-101321447D01*
X112560946Y-101360484D01*
X112552182Y-101364949D01*
X112380213Y-101489890D01*
X112229890Y-101640213D01*
X112104951Y-101812179D01*
X112008444Y-102001585D01*
X111942753Y-102203760D01*
X111934285Y-102257227D01*
X111909500Y-102413713D01*
X111909500Y-102626287D01*
X111916660Y-102671494D01*
X111928790Y-102748082D01*
X111942754Y-102836243D01*
X112005841Y-103030405D01*
X112008444Y-103038414D01*
X112104951Y-103227820D01*
X112229890Y-103399786D01*
X112380213Y-103550109D01*
X112552182Y-103675050D01*
X112560946Y-103679516D01*
X112611742Y-103727491D01*
X112628536Y-103795312D01*
X112605998Y-103861447D01*
X112560946Y-103900484D01*
X112552182Y-103904949D01*
X112380213Y-104029890D01*
X112229890Y-104180213D01*
X112104951Y-104352179D01*
X112008444Y-104541585D01*
X111942753Y-104743760D01*
X111927494Y-104840104D01*
X111909500Y-104953713D01*
X111909500Y-105166287D01*
X111942754Y-105376243D01*
X111973285Y-105470208D01*
X112008444Y-105578414D01*
X112104951Y-105767820D01*
X112229890Y-105939786D01*
X112380213Y-106090109D01*
X112552179Y-106215048D01*
X112552181Y-106215049D01*
X112552184Y-106215051D01*
X112741588Y-106311557D01*
X112943757Y-106377246D01*
X113153713Y-106410500D01*
X113153714Y-106410500D01*
X113366286Y-106410500D01*
X113366287Y-106410500D01*
X113576243Y-106377246D01*
X113778412Y-106311557D01*
X113967816Y-106215051D01*
X114005036Y-106188009D01*
X114139786Y-106090109D01*
X114139788Y-106090106D01*
X114139792Y-106090104D01*
X114290104Y-105939792D01*
X114290106Y-105939788D01*
X114290109Y-105939786D01*
X114415048Y-105767820D01*
X114415051Y-105767816D01*
X114419793Y-105758508D01*
X114467763Y-105707711D01*
X114535583Y-105690911D01*
X114601719Y-105713445D01*
X114640763Y-105758500D01*
X114645377Y-105767555D01*
X114770272Y-105939459D01*
X114770276Y-105939464D01*
X114920535Y-106089723D01*
X114920540Y-106089727D01*
X115092442Y-106214620D01*
X115281782Y-106311095D01*
X115483871Y-106376757D01*
X115550000Y-106387231D01*
X115550000Y-105493012D01*
X115607007Y-105525925D01*
X115734174Y-105560000D01*
X115865826Y-105560000D01*
X115992993Y-105525925D01*
X116050000Y-105493012D01*
X116050000Y-106387230D01*
X116116126Y-106376757D01*
X116116129Y-106376757D01*
X116318217Y-106311095D01*
X116507557Y-106214620D01*
X116602615Y-106145558D01*
X116668421Y-106122078D01*
X116736475Y-106137904D01*
X116785170Y-106188009D01*
X116799500Y-106245876D01*
X116799500Y-112158479D01*
X116790855Y-112187919D01*
X116784332Y-112217906D01*
X116780577Y-112222921D01*
X116779815Y-112225518D01*
X116763181Y-112246160D01*
X116721160Y-112288181D01*
X116659837Y-112321666D01*
X116633479Y-112324500D01*
X115777129Y-112324500D01*
X115777123Y-112324501D01*
X115717516Y-112330908D01*
X115582671Y-112381202D01*
X115582664Y-112381206D01*
X115467455Y-112467452D01*
X115403758Y-112552539D01*
X115347823Y-112594410D01*
X115278132Y-112599393D01*
X115231607Y-112578545D01*
X115116099Y-112494624D01*
X115116098Y-112494623D01*
X115116096Y-112494622D01*
X115048351Y-112460104D01*
X114951235Y-112410620D01*
X114951232Y-112410619D01*
X114775265Y-112353445D01*
X114632972Y-112330908D01*
X114592514Y-112324500D01*
X114407486Y-112324500D01*
X114367028Y-112330908D01*
X114224734Y-112353445D01*
X114048767Y-112410619D01*
X114048764Y-112410620D01*
X113883903Y-112494622D01*
X113814194Y-112545269D01*
X113734213Y-112603379D01*
X113734211Y-112603381D01*
X113734210Y-112603381D01*
X113603381Y-112734210D01*
X113600314Y-112738432D01*
X113544981Y-112781094D01*
X113475367Y-112787069D01*
X113413574Y-112754459D01*
X113399686Y-112738432D01*
X113396621Y-112734213D01*
X113265787Y-112603379D01*
X113116096Y-112494622D01*
X112951235Y-112410620D01*
X112951232Y-112410619D01*
X112775265Y-112353445D01*
X112632972Y-112330908D01*
X112592514Y-112324500D01*
X112407486Y-112324500D01*
X112367028Y-112330908D01*
X112224734Y-112353445D01*
X112048767Y-112410619D01*
X112048764Y-112410620D01*
X111883903Y-112494622D01*
X111814194Y-112545269D01*
X111734213Y-112603379D01*
X111734211Y-112603381D01*
X111734210Y-112603381D01*
X111603381Y-112734210D01*
X111603381Y-112734211D01*
X111603379Y-112734213D01*
X111569318Y-112781094D01*
X111494622Y-112883903D01*
X111410620Y-113048764D01*
X111410619Y-113048767D01*
X111353445Y-113224734D01*
X111324500Y-113407486D01*
X111324500Y-113592513D01*
X111353445Y-113775265D01*
X111410619Y-113951232D01*
X111410620Y-113951235D01*
X111483434Y-114094138D01*
X111494622Y-114116096D01*
X111603379Y-114265787D01*
X111734213Y-114396621D01*
X111883904Y-114505378D01*
X111937224Y-114532546D01*
X112048764Y-114589379D01*
X112048767Y-114589380D01*
X112136750Y-114617967D01*
X112224736Y-114646555D01*
X112407486Y-114675500D01*
X112407487Y-114675500D01*
X112592513Y-114675500D01*
X112592514Y-114675500D01*
X112775264Y-114646555D01*
X112951235Y-114589379D01*
X113116096Y-114505378D01*
X113265787Y-114396621D01*
X113396621Y-114265787D01*
X113399680Y-114261576D01*
X113455006Y-114218909D01*
X113524619Y-114212926D01*
X113586415Y-114245529D01*
X113600315Y-114261570D01*
X113603379Y-114265787D01*
X113734213Y-114396621D01*
X113883904Y-114505378D01*
X113937224Y-114532546D01*
X114048764Y-114589379D01*
X114048767Y-114589380D01*
X114136750Y-114617967D01*
X114224736Y-114646555D01*
X114407486Y-114675500D01*
X114407487Y-114675500D01*
X114592513Y-114675500D01*
X114592514Y-114675500D01*
X114775264Y-114646555D01*
X114951235Y-114589379D01*
X115116096Y-114505378D01*
X115231608Y-114421453D01*
X115297412Y-114397974D01*
X115365466Y-114413799D01*
X115403758Y-114447460D01*
X115467455Y-114532547D01*
X115582664Y-114618793D01*
X115582671Y-114618797D01*
X115717517Y-114669091D01*
X115717516Y-114669091D01*
X115724444Y-114669835D01*
X115777127Y-114675500D01*
X117222872Y-114675499D01*
X117282483Y-114669091D01*
X117417331Y-114618796D01*
X117532546Y-114532546D01*
X117618796Y-114417331D01*
X117669091Y-114282483D01*
X117675500Y-114222873D01*
X117675499Y-113366518D01*
X117695183Y-113299480D01*
X117711813Y-113278842D01*
X118044114Y-112946543D01*
X118120775Y-112831811D01*
X118121743Y-112829476D01*
X118161202Y-112734211D01*
X118173580Y-112704328D01*
X118193660Y-112603381D01*
X118200500Y-112568996D01*
X118200500Y-104151004D01*
X118173581Y-104015677D01*
X118173580Y-104015676D01*
X118173580Y-104015672D01*
X118173578Y-104015667D01*
X118120778Y-103888195D01*
X118120774Y-103888188D01*
X118112514Y-103875826D01*
X118086736Y-103837246D01*
X118044114Y-103773457D01*
X118044112Y-103773454D01*
X118044109Y-103773451D01*
X117301062Y-103030405D01*
X117160507Y-102889850D01*
X117127022Y-102828527D01*
X117125715Y-102782771D01*
X117126171Y-102779896D01*
X117150500Y-102626287D01*
X117150500Y-102413713D01*
X117125715Y-102257227D01*
X117134670Y-102187933D01*
X117160504Y-102150151D01*
X120544114Y-98766543D01*
X120620775Y-98651811D01*
X120622565Y-98647491D01*
X120673578Y-98524332D01*
X120673580Y-98524328D01*
X120693737Y-98422993D01*
X120700500Y-98388996D01*
X120700500Y-97277135D01*
X126824500Y-97277135D01*
X126824500Y-98722870D01*
X126824501Y-98722876D01*
X126830908Y-98782483D01*
X126881202Y-98917328D01*
X126881206Y-98917335D01*
X126967452Y-99032544D01*
X126967453Y-99032544D01*
X126967454Y-99032546D01*
X126985751Y-99046243D01*
X127052539Y-99096241D01*
X127094409Y-99152175D01*
X127099393Y-99221867D01*
X127078545Y-99268392D01*
X126994624Y-99383900D01*
X126910620Y-99548764D01*
X126910619Y-99548767D01*
X126853445Y-99724734D01*
X126827346Y-99889516D01*
X126824500Y-99907486D01*
X126824500Y-100092514D01*
X126828054Y-100114951D01*
X126853445Y-100275265D01*
X126910619Y-100451232D01*
X126910620Y-100451235D01*
X126992261Y-100611463D01*
X126994622Y-100616096D01*
X127103379Y-100765787D01*
X127234213Y-100896621D01*
X127234216Y-100896623D01*
X127308831Y-100950834D01*
X127323806Y-100970254D01*
X127953554Y-101600000D01*
X127947339Y-101600000D01*
X127845606Y-101627259D01*
X127754394Y-101679920D01*
X127679920Y-101754394D01*
X127627259Y-101845606D01*
X127600000Y-101947339D01*
X127600000Y-101953553D01*
X127010015Y-101363568D01*
X126995049Y-101384167D01*
X126911084Y-101548956D01*
X126911083Y-101548959D01*
X126853933Y-101724852D01*
X126825000Y-101907526D01*
X126825000Y-102092473D01*
X126853933Y-102275147D01*
X126911083Y-102451040D01*
X126911084Y-102451043D01*
X126995050Y-102615834D01*
X127010015Y-102636430D01*
X127010016Y-102636431D01*
X127600000Y-102046447D01*
X127600000Y-102052661D01*
X127627259Y-102154394D01*
X127679920Y-102245606D01*
X127754394Y-102320080D01*
X127845606Y-102372741D01*
X127947339Y-102400000D01*
X127953553Y-102400000D01*
X127363568Y-102989983D01*
X127363568Y-102989984D01*
X127384165Y-103004949D01*
X127548956Y-103088915D01*
X127548959Y-103088916D01*
X127724852Y-103146066D01*
X127907527Y-103175000D01*
X128092473Y-103175000D01*
X128275147Y-103146066D01*
X128451040Y-103088916D01*
X128451043Y-103088915D01*
X128615836Y-103004947D01*
X128615845Y-103004942D01*
X128636430Y-102989984D01*
X128636431Y-102989983D01*
X128046448Y-102400000D01*
X128052661Y-102400000D01*
X128154394Y-102372741D01*
X128245606Y-102320080D01*
X128320080Y-102245606D01*
X128372741Y-102154394D01*
X128400000Y-102052661D01*
X128400000Y-102046447D01*
X128989983Y-102636430D01*
X128989984Y-102636430D01*
X129004942Y-102615845D01*
X129004947Y-102615836D01*
X129088915Y-102451043D01*
X129088916Y-102451040D01*
X129146066Y-102275147D01*
X129175000Y-102092473D01*
X129175000Y-101907526D01*
X129146066Y-101724852D01*
X129088916Y-101548959D01*
X129088915Y-101548956D01*
X129004949Y-101384165D01*
X128989983Y-101363568D01*
X128400000Y-101953551D01*
X128400000Y-101947339D01*
X128372741Y-101845606D01*
X128320080Y-101754394D01*
X128245606Y-101679920D01*
X128154394Y-101627259D01*
X128052661Y-101600000D01*
X128046447Y-101600000D01*
X128660675Y-100985771D01*
X128691165Y-100950836D01*
X128765787Y-100896621D01*
X128896621Y-100765787D01*
X129005378Y-100616096D01*
X129089379Y-100451235D01*
X129146555Y-100275264D01*
X129175500Y-100092514D01*
X129175500Y-99907486D01*
X129146555Y-99724736D01*
X129089379Y-99548765D01*
X129089379Y-99548764D01*
X129044960Y-99461588D01*
X129005378Y-99383904D01*
X128921453Y-99268392D01*
X128897974Y-99202586D01*
X128913799Y-99134532D01*
X128947459Y-99096241D01*
X129032546Y-99032546D01*
X129118796Y-98917331D01*
X129169091Y-98782483D01*
X129175500Y-98722873D01*
X129175499Y-97277128D01*
X129169091Y-97217517D01*
X129151491Y-97170330D01*
X129118797Y-97082671D01*
X129118793Y-97082664D01*
X129032547Y-96967455D01*
X129032544Y-96967452D01*
X128917335Y-96881206D01*
X128917328Y-96881202D01*
X128782482Y-96830908D01*
X128782483Y-96830908D01*
X128722883Y-96824501D01*
X128722881Y-96824500D01*
X128722873Y-96824500D01*
X128722864Y-96824500D01*
X127277129Y-96824500D01*
X127277123Y-96824501D01*
X127217516Y-96830908D01*
X127082671Y-96881202D01*
X127082664Y-96881206D01*
X126967455Y-96967452D01*
X126967452Y-96967455D01*
X126881206Y-97082664D01*
X126881202Y-97082671D01*
X126830908Y-97217517D01*
X126824881Y-97273581D01*
X126824501Y-97277123D01*
X126824500Y-97277135D01*
X120700500Y-97277135D01*
X120700500Y-85431004D01*
X120673581Y-85295677D01*
X120673580Y-85295676D01*
X120673580Y-85295672D01*
X120672244Y-85292447D01*
X120620778Y-85168195D01*
X120620771Y-85168182D01*
X120554495Y-85068994D01*
X120554494Y-85068992D01*
X120544116Y-85053459D01*
X120544112Y-85053455D01*
X118446546Y-82955888D01*
X118446545Y-82955887D01*
X118331807Y-82879222D01*
X118204332Y-82826421D01*
X118204322Y-82826418D01*
X118068996Y-82799500D01*
X118068994Y-82799500D01*
X118068993Y-82799500D01*
X113520102Y-82799500D01*
X113453063Y-82779815D01*
X113451211Y-82778602D01*
X113402868Y-82746300D01*
X113402859Y-82746295D01*
X113248082Y-82682184D01*
X113248074Y-82682182D01*
X113083771Y-82649500D01*
X113083767Y-82649500D01*
X112916233Y-82649500D01*
X112916228Y-82649500D01*
X112751925Y-82682182D01*
X112751917Y-82682184D01*
X112597139Y-82746295D01*
X112457837Y-82839373D01*
X112339373Y-82957837D01*
X112246295Y-83097139D01*
X112182184Y-83251917D01*
X112182182Y-83251925D01*
X112149500Y-83416228D01*
X112149500Y-83583771D01*
X112182182Y-83748074D01*
X112182184Y-83748082D01*
X112246296Y-83902861D01*
X112246297Y-83902863D01*
X112257218Y-83919208D01*
X112278095Y-83985885D01*
X112259610Y-84053265D01*
X112207630Y-84099955D01*
X112138660Y-84111130D01*
X112074597Y-84083243D01*
X112066434Y-84075778D01*
X110907414Y-82916758D01*
X108702838Y-80712181D01*
X108669353Y-80650858D01*
X108674337Y-80581166D01*
X108716209Y-80525233D01*
X108781673Y-80500816D01*
X108790519Y-80500500D01*
X114434108Y-80500500D01*
X114498599Y-80500500D01*
X114501381Y-80500531D01*
X115372098Y-80520073D01*
X115377594Y-80520320D01*
X116245187Y-80578814D01*
X116250651Y-80579306D01*
X117114743Y-80676666D01*
X117120207Y-80677406D01*
X117979039Y-80813432D01*
X117984454Y-80814414D01*
X118836342Y-80988839D01*
X118841756Y-80990075D01*
X119201729Y-81080781D01*
X119684878Y-81202524D01*
X119690242Y-81204004D01*
X120523020Y-81454075D01*
X120528288Y-81455787D01*
X121349026Y-81742977D01*
X121354235Y-81744932D01*
X122161206Y-82068631D01*
X122166323Y-82070818D01*
X122337634Y-82148631D01*
X122957990Y-82430410D01*
X122962965Y-82432806D01*
X123599657Y-82757216D01*
X123737725Y-82827565D01*
X123742625Y-82830202D01*
X124498856Y-83259303D01*
X124503629Y-83262154D01*
X125015479Y-83583771D01*
X125239867Y-83724763D01*
X125244511Y-83727829D01*
X125959232Y-84222989D01*
X125963734Y-84226260D01*
X126519133Y-84649142D01*
X126621403Y-84727011D01*
X126655513Y-84752982D01*
X126659861Y-84756449D01*
X127305752Y-85295677D01*
X127327343Y-85313702D01*
X127331528Y-85317359D01*
X127845411Y-85787069D01*
X127973328Y-85903990D01*
X127977350Y-85907836D01*
X128592163Y-86522649D01*
X128596009Y-86526671D01*
X129182636Y-87168466D01*
X129186295Y-87172653D01*
X129373274Y-87396618D01*
X129743548Y-87840135D01*
X129747017Y-87844486D01*
X130273739Y-88536265D01*
X130277010Y-88540767D01*
X130772170Y-89255488D01*
X130775236Y-89260132D01*
X131237842Y-89996366D01*
X131240696Y-90001143D01*
X131669797Y-90757374D01*
X131672434Y-90762274D01*
X132067184Y-91537015D01*
X132069598Y-91542029D01*
X132429181Y-92333676D01*
X132431368Y-92338793D01*
X132755067Y-93145764D01*
X132757022Y-93150973D01*
X133044212Y-93971711D01*
X133045932Y-93977004D01*
X133295995Y-94809757D01*
X133297475Y-94815121D01*
X133509922Y-95658237D01*
X133511161Y-95663662D01*
X133685579Y-96515515D01*
X133686572Y-96520990D01*
X133822589Y-97379767D01*
X133823336Y-97385281D01*
X133920689Y-98249309D01*
X133921188Y-98254852D01*
X133979677Y-99122373D01*
X133979927Y-99127932D01*
X133999437Y-99997218D01*
X133999437Y-100002782D01*
X133979927Y-100872067D01*
X133979677Y-100877626D01*
X133921188Y-101745147D01*
X133920689Y-101750690D01*
X133823336Y-102614718D01*
X133822589Y-102620232D01*
X133686572Y-103479009D01*
X133685579Y-103484484D01*
X133511161Y-104336337D01*
X133509922Y-104341762D01*
X133297475Y-105184878D01*
X133295995Y-105190242D01*
X133045932Y-106022995D01*
X133044212Y-106028288D01*
X132757022Y-106849026D01*
X132755067Y-106854235D01*
X132431368Y-107661206D01*
X132429181Y-107666323D01*
X132069598Y-108457970D01*
X132067184Y-108462984D01*
X131672434Y-109237725D01*
X131669797Y-109242625D01*
X131240696Y-109998856D01*
X131237842Y-110003633D01*
X130775236Y-110739867D01*
X130772170Y-110744511D01*
X130277010Y-111459232D01*
X130273739Y-111463734D01*
X129747017Y-112155513D01*
X129743548Y-112159864D01*
X129186297Y-112827343D01*
X129182636Y-112831533D01*
X128596009Y-113473328D01*
X128592163Y-113477350D01*
X127977350Y-114092163D01*
X127973328Y-114096009D01*
X127331533Y-114682636D01*
X127327343Y-114686297D01*
X126659864Y-115243548D01*
X126655513Y-115247017D01*
X125963734Y-115773739D01*
X125959232Y-115777010D01*
X125244511Y-116272170D01*
X125239867Y-116275236D01*
X124503633Y-116737842D01*
X124498856Y-116740696D01*
X123742625Y-117169797D01*
X123737725Y-117172434D01*
X122962984Y-117567184D01*
X122957970Y-117569598D01*
X122166323Y-117929181D01*
X122161206Y-117931368D01*
X121354235Y-118255067D01*
X121349026Y-118257022D01*
X120528288Y-118544212D01*
X120522995Y-118545932D01*
X119690242Y-118795995D01*
X119684878Y-118797475D01*
X118841762Y-119009922D01*
X118836337Y-119011161D01*
X117984484Y-119185579D01*
X117979009Y-119186572D01*
X117120232Y-119322589D01*
X117114718Y-119323336D01*
X116250690Y-119420689D01*
X116245147Y-119421188D01*
X115377626Y-119479677D01*
X115372067Y-119479927D01*
X114501381Y-119499469D01*
X114498599Y-119499500D01*
X50504067Y-119499500D01*
X50495957Y-119499235D01*
X50247116Y-119482925D01*
X50231035Y-119480807D01*
X49990464Y-119432954D01*
X49974797Y-119428756D01*
X49742520Y-119349909D01*
X49727534Y-119343702D01*
X49507539Y-119235212D01*
X49493492Y-119227102D01*
X49289539Y-119090825D01*
X49276671Y-119080951D01*
X49092250Y-118919218D01*
X49080781Y-118907749D01*
X48919048Y-118723328D01*
X48909174Y-118710460D01*
X48772897Y-118506507D01*
X48764787Y-118492460D01*
X48700271Y-118361635D01*
X48656294Y-118272458D01*
X48650090Y-118257479D01*
X48648277Y-118252139D01*
X48600972Y-118112781D01*
X48571243Y-118025202D01*
X48567045Y-118009535D01*
X48554985Y-117948907D01*
X48519190Y-117768953D01*
X48517075Y-117752895D01*
X48505320Y-117573543D01*
X66179499Y-117573543D01*
X66217947Y-117766829D01*
X66217950Y-117766839D01*
X66293364Y-117948907D01*
X66293371Y-117948920D01*
X66402860Y-118112781D01*
X66402863Y-118112785D01*
X66542214Y-118252136D01*
X66542218Y-118252139D01*
X66706079Y-118361628D01*
X66706092Y-118361635D01*
X66888160Y-118437049D01*
X66888165Y-118437051D01*
X66888169Y-118437051D01*
X66888170Y-118437052D01*
X67081456Y-118475500D01*
X67081459Y-118475500D01*
X67278543Y-118475500D01*
X67408582Y-118449632D01*
X67471835Y-118437051D01*
X67653914Y-118361632D01*
X67817782Y-118252139D01*
X67957139Y-118112782D01*
X68066632Y-117948914D01*
X68142051Y-117766835D01*
X68180500Y-117573543D01*
X74819499Y-117573543D01*
X74857947Y-117766829D01*
X74857950Y-117766839D01*
X74933364Y-117948907D01*
X74933371Y-117948920D01*
X75042860Y-118112781D01*
X75042863Y-118112785D01*
X75182214Y-118252136D01*
X75182218Y-118252139D01*
X75346079Y-118361628D01*
X75346092Y-118361635D01*
X75528160Y-118437049D01*
X75528165Y-118437051D01*
X75528169Y-118437051D01*
X75528170Y-118437052D01*
X75721456Y-118475500D01*
X75721459Y-118475500D01*
X75918543Y-118475500D01*
X76048582Y-118449632D01*
X76111835Y-118437051D01*
X76293914Y-118361632D01*
X76457782Y-118252139D01*
X76597139Y-118112782D01*
X76706632Y-117948914D01*
X76782051Y-117766835D01*
X76820500Y-117573541D01*
X76820500Y-116576459D01*
X76820500Y-116576456D01*
X76782052Y-116383170D01*
X76782051Y-116383169D01*
X76782051Y-116383165D01*
X76768521Y-116350500D01*
X76706635Y-116201092D01*
X76706628Y-116201079D01*
X76597139Y-116037218D01*
X76597136Y-116037214D01*
X76457785Y-115897863D01*
X76457781Y-115897860D01*
X76293920Y-115788371D01*
X76293907Y-115788364D01*
X76111839Y-115712950D01*
X76111829Y-115712947D01*
X75918543Y-115674500D01*
X75918541Y-115674500D01*
X75721459Y-115674500D01*
X75721457Y-115674500D01*
X75528170Y-115712947D01*
X75528160Y-115712950D01*
X75346092Y-115788364D01*
X75346079Y-115788371D01*
X75182218Y-115897860D01*
X75182214Y-115897863D01*
X75042863Y-116037214D01*
X75042860Y-116037218D01*
X74933371Y-116201079D01*
X74933364Y-116201092D01*
X74857950Y-116383160D01*
X74857947Y-116383170D01*
X74819500Y-116576456D01*
X74819500Y-116576459D01*
X74819500Y-117573541D01*
X74819500Y-117573543D01*
X74819499Y-117573543D01*
X68180500Y-117573543D01*
X68180500Y-117573541D01*
X68180500Y-116576459D01*
X68180500Y-116576456D01*
X68142052Y-116383170D01*
X68142051Y-116383169D01*
X68142051Y-116383165D01*
X68128521Y-116350500D01*
X68066635Y-116201092D01*
X68066628Y-116201079D01*
X67957139Y-116037218D01*
X67957136Y-116037214D01*
X67817785Y-115897863D01*
X67817781Y-115897860D01*
X67653920Y-115788371D01*
X67653907Y-115788364D01*
X67471839Y-115712950D01*
X67471829Y-115712947D01*
X67278543Y-115674500D01*
X67278541Y-115674500D01*
X67081459Y-115674500D01*
X67081457Y-115674500D01*
X66888170Y-115712947D01*
X66888160Y-115712950D01*
X66706092Y-115788364D01*
X66706079Y-115788371D01*
X66542218Y-115897860D01*
X66542214Y-115897863D01*
X66402863Y-116037214D01*
X66402860Y-116037218D01*
X66293371Y-116201079D01*
X66293364Y-116201092D01*
X66217950Y-116383160D01*
X66217947Y-116383170D01*
X66179500Y-116576456D01*
X66179500Y-116576459D01*
X66179500Y-117573541D01*
X66179500Y-117573543D01*
X66179499Y-117573543D01*
X48505320Y-117573543D01*
X48500765Y-117504043D01*
X48500500Y-117495933D01*
X48500500Y-115416228D01*
X69149500Y-115416228D01*
X69149500Y-115583771D01*
X69182182Y-115748074D01*
X69182184Y-115748082D01*
X69246295Y-115902860D01*
X69339373Y-116042162D01*
X69457837Y-116160626D01*
X69518380Y-116201079D01*
X69597137Y-116253703D01*
X69751918Y-116317816D01*
X69916228Y-116350499D01*
X69916232Y-116350500D01*
X69916233Y-116350500D01*
X70083768Y-116350500D01*
X70083769Y-116350499D01*
X70248082Y-116317816D01*
X70402863Y-116253703D01*
X70542162Y-116160626D01*
X70542165Y-116160623D01*
X70565970Y-116136819D01*
X70627293Y-116103334D01*
X70653651Y-116100500D01*
X71846349Y-116100500D01*
X71913388Y-116120185D01*
X71934030Y-116136819D01*
X71957837Y-116160626D01*
X72018380Y-116201079D01*
X72097137Y-116253703D01*
X72251918Y-116317816D01*
X72416228Y-116350499D01*
X72416232Y-116350500D01*
X72416233Y-116350500D01*
X72583768Y-116350500D01*
X72583769Y-116350499D01*
X72748082Y-116317816D01*
X72902863Y-116253703D01*
X73042162Y-116160626D01*
X73160626Y-116042162D01*
X73253703Y-115902863D01*
X73317816Y-115748082D01*
X73350500Y-115583767D01*
X73350500Y-115416233D01*
X73317816Y-115251918D01*
X73253703Y-115097137D01*
X73222537Y-115050494D01*
X73160626Y-114957837D01*
X73042162Y-114839373D01*
X72902860Y-114746295D01*
X72748082Y-114682184D01*
X72748074Y-114682182D01*
X72583771Y-114649500D01*
X72583767Y-114649500D01*
X72416233Y-114649500D01*
X72416228Y-114649500D01*
X72251925Y-114682182D01*
X72251917Y-114682184D01*
X72097139Y-114746295D01*
X71957837Y-114839373D01*
X71957834Y-114839376D01*
X71934030Y-114863181D01*
X71872707Y-114896666D01*
X71846349Y-114899500D01*
X70653651Y-114899500D01*
X70586612Y-114879815D01*
X70565970Y-114863181D01*
X70542162Y-114839373D01*
X70402860Y-114746295D01*
X70248082Y-114682184D01*
X70248074Y-114682182D01*
X70083771Y-114649500D01*
X70083767Y-114649500D01*
X69916233Y-114649500D01*
X69916228Y-114649500D01*
X69751925Y-114682182D01*
X69751917Y-114682184D01*
X69597139Y-114746295D01*
X69457837Y-114839373D01*
X69339373Y-114957837D01*
X69246295Y-115097139D01*
X69182184Y-115251917D01*
X69182182Y-115251925D01*
X69149500Y-115416228D01*
X48500500Y-115416228D01*
X48500500Y-113523543D01*
X66179499Y-113523543D01*
X66217947Y-113716829D01*
X66217950Y-113716839D01*
X66293364Y-113898907D01*
X66293371Y-113898920D01*
X66402860Y-114062781D01*
X66402863Y-114062785D01*
X66542214Y-114202136D01*
X66542218Y-114202139D01*
X66706079Y-114311628D01*
X66706092Y-114311635D01*
X66888160Y-114387049D01*
X66888165Y-114387051D01*
X66888169Y-114387051D01*
X66888170Y-114387052D01*
X67081456Y-114425500D01*
X67081459Y-114425500D01*
X67278543Y-114425500D01*
X67423739Y-114396618D01*
X67471835Y-114387051D01*
X67612655Y-114328721D01*
X67653907Y-114311635D01*
X67653907Y-114311634D01*
X67653914Y-114311632D01*
X67817782Y-114202139D01*
X67957139Y-114062782D01*
X68066632Y-113898914D01*
X68095042Y-113830323D01*
X68138880Y-113775923D01*
X68205174Y-113753857D01*
X68272873Y-113771135D01*
X68297283Y-113790097D01*
X68302686Y-113795500D01*
X68416814Y-113861392D01*
X68544108Y-113895500D01*
X68544110Y-113895500D01*
X68675890Y-113895500D01*
X68675892Y-113895500D01*
X68803186Y-113861392D01*
X68917314Y-113795500D01*
X69010500Y-113702314D01*
X69076392Y-113588186D01*
X69110500Y-113460892D01*
X69110500Y-113329108D01*
X73889500Y-113329108D01*
X73889500Y-113460891D01*
X73923608Y-113588187D01*
X73941482Y-113619145D01*
X73989500Y-113702314D01*
X74082686Y-113795500D01*
X74196814Y-113861392D01*
X74324108Y-113895500D01*
X74324110Y-113895500D01*
X74455890Y-113895500D01*
X74455892Y-113895500D01*
X74583186Y-113861392D01*
X74697314Y-113795500D01*
X74702714Y-113790099D01*
X74764033Y-113756613D01*
X74833725Y-113761594D01*
X74889661Y-113803463D01*
X74904958Y-113830326D01*
X74933364Y-113898908D01*
X74933371Y-113898920D01*
X75042860Y-114062781D01*
X75042863Y-114062785D01*
X75182214Y-114202136D01*
X75182218Y-114202139D01*
X75346079Y-114311628D01*
X75346092Y-114311635D01*
X75528160Y-114387049D01*
X75528165Y-114387051D01*
X75528169Y-114387051D01*
X75528170Y-114387052D01*
X75721456Y-114425500D01*
X75721459Y-114425500D01*
X75918543Y-114425500D01*
X76063739Y-114396618D01*
X76111835Y-114387051D01*
X76252655Y-114328721D01*
X76293907Y-114311635D01*
X76293907Y-114311634D01*
X76293914Y-114311632D01*
X76457782Y-114202139D01*
X76597139Y-114062782D01*
X76706632Y-113898914D01*
X76782051Y-113716835D01*
X76806780Y-113592514D01*
X76820500Y-113523543D01*
X76820500Y-112226456D01*
X76782052Y-112033170D01*
X76782051Y-112033169D01*
X76782051Y-112033165D01*
X76782049Y-112033160D01*
X76706635Y-111851092D01*
X76706628Y-111851079D01*
X76597139Y-111687218D01*
X76597136Y-111687214D01*
X76457785Y-111547863D01*
X76457781Y-111547860D01*
X76293920Y-111438371D01*
X76293907Y-111438364D01*
X76111839Y-111362950D01*
X76111829Y-111362947D01*
X75918543Y-111324500D01*
X75918541Y-111324500D01*
X75721459Y-111324500D01*
X75721457Y-111324500D01*
X75528170Y-111362947D01*
X75528160Y-111362950D01*
X75346092Y-111438364D01*
X75346079Y-111438371D01*
X75182218Y-111547860D01*
X75182214Y-111547863D01*
X75042863Y-111687214D01*
X75042860Y-111687218D01*
X74933371Y-111851079D01*
X74933364Y-111851092D01*
X74857950Y-112033160D01*
X74857947Y-112033170D01*
X74819500Y-112226456D01*
X74819500Y-112850269D01*
X74799815Y-112917308D01*
X74747011Y-112963063D01*
X74677853Y-112973007D01*
X74633500Y-112957656D01*
X74583189Y-112928609D01*
X74583186Y-112928608D01*
X74455892Y-112894500D01*
X74324108Y-112894500D01*
X74196812Y-112928608D01*
X74082686Y-112994500D01*
X74082683Y-112994502D01*
X73989502Y-113087683D01*
X73989500Y-113087686D01*
X73923608Y-113201812D01*
X73889500Y-113329108D01*
X69110500Y-113329108D01*
X69076392Y-113201814D01*
X69010500Y-113087686D01*
X68917314Y-112994500D01*
X68860250Y-112961554D01*
X68803187Y-112928608D01*
X68739539Y-112911554D01*
X68675892Y-112894500D01*
X68544108Y-112894500D01*
X68416814Y-112928608D01*
X68416813Y-112928608D01*
X68416811Y-112928609D01*
X68416810Y-112928609D01*
X68366500Y-112957656D01*
X68298600Y-112974129D01*
X68232573Y-112951276D01*
X68189382Y-112896355D01*
X68180500Y-112850269D01*
X68180500Y-112226456D01*
X68142052Y-112033170D01*
X68142051Y-112033169D01*
X68142051Y-112033165D01*
X68142049Y-112033160D01*
X68066635Y-111851092D01*
X68066628Y-111851079D01*
X67957139Y-111687218D01*
X67957136Y-111687214D01*
X67817785Y-111547863D01*
X67817781Y-111547860D01*
X67653920Y-111438371D01*
X67653907Y-111438364D01*
X67471839Y-111362950D01*
X67471829Y-111362947D01*
X67278543Y-111324500D01*
X67278541Y-111324500D01*
X67081459Y-111324500D01*
X67081457Y-111324500D01*
X66888170Y-111362947D01*
X66888160Y-111362950D01*
X66706092Y-111438364D01*
X66706079Y-111438371D01*
X66542218Y-111547860D01*
X66542214Y-111547863D01*
X66402863Y-111687214D01*
X66402860Y-111687218D01*
X66293371Y-111851079D01*
X66293364Y-111851092D01*
X66217950Y-112033160D01*
X66217947Y-112033170D01*
X66179500Y-112226456D01*
X66179500Y-112226459D01*
X66179500Y-113523541D01*
X66179500Y-113523543D01*
X66179499Y-113523543D01*
X48500500Y-113523543D01*
X48500500Y-87919983D01*
X52897000Y-87919983D01*
X52897000Y-89220001D01*
X52897001Y-89220018D01*
X52907500Y-89322796D01*
X52907501Y-89322799D01*
X52931263Y-89394507D01*
X52962686Y-89489334D01*
X53054788Y-89638656D01*
X53178844Y-89762712D01*
X53328166Y-89854814D01*
X53338723Y-89858312D01*
X53396168Y-89898084D01*
X53422992Y-89962600D01*
X53410677Y-90031376D01*
X53372613Y-90076330D01*
X53367719Y-90079885D01*
X53367709Y-90079894D01*
X53217390Y-90230213D01*
X53092451Y-90402179D01*
X52995944Y-90591585D01*
X52930253Y-90793760D01*
X52897000Y-91003713D01*
X52897000Y-91216286D01*
X52930235Y-91426127D01*
X52930254Y-91426243D01*
X52967875Y-91542029D01*
X52995944Y-91628414D01*
X53092451Y-91817820D01*
X53217390Y-91989786D01*
X53367713Y-92140109D01*
X53539682Y-92265050D01*
X53548446Y-92269516D01*
X53599242Y-92317491D01*
X53616036Y-92385312D01*
X53593498Y-92451447D01*
X53548446Y-92490484D01*
X53539682Y-92494949D01*
X53367713Y-92619890D01*
X53217390Y-92770213D01*
X53092451Y-92942179D01*
X52995944Y-93131585D01*
X52930253Y-93333760D01*
X52928791Y-93342993D01*
X52897000Y-93543713D01*
X52897000Y-93756287D01*
X52905241Y-93808318D01*
X52930235Y-93966127D01*
X52930254Y-93966243D01*
X52994243Y-94163181D01*
X52995944Y-94168414D01*
X53092451Y-94357820D01*
X53217390Y-94529786D01*
X53367713Y-94680109D01*
X53539682Y-94805050D01*
X53548446Y-94809516D01*
X53599242Y-94857491D01*
X53616036Y-94925312D01*
X53593498Y-94991447D01*
X53548446Y-95030484D01*
X53539682Y-95034949D01*
X53367713Y-95159890D01*
X53217390Y-95310213D01*
X53092451Y-95482179D01*
X52995944Y-95671585D01*
X52995943Y-95671587D01*
X52995943Y-95671588D01*
X52983659Y-95709394D01*
X52930253Y-95873760D01*
X52897000Y-96083713D01*
X52897000Y-96296286D01*
X52930235Y-96506127D01*
X52930254Y-96506243D01*
X52989435Y-96688384D01*
X52995944Y-96708414D01*
X53092451Y-96897820D01*
X53217390Y-97069786D01*
X53367713Y-97220109D01*
X53539682Y-97345050D01*
X53548446Y-97349516D01*
X53599242Y-97397491D01*
X53616036Y-97465312D01*
X53593498Y-97531447D01*
X53548446Y-97570484D01*
X53539682Y-97574949D01*
X53367713Y-97699890D01*
X53217390Y-97850213D01*
X53092451Y-98022179D01*
X52995944Y-98211585D01*
X52930253Y-98413760D01*
X52897000Y-98623713D01*
X52897000Y-98836286D01*
X52930235Y-99046127D01*
X52930254Y-99046243D01*
X52991329Y-99234213D01*
X52995944Y-99248414D01*
X53092451Y-99437820D01*
X53217390Y-99609786D01*
X53367713Y-99760109D01*
X53539682Y-99885050D01*
X53548446Y-99889516D01*
X53599242Y-99937491D01*
X53616036Y-100005312D01*
X53593498Y-100071447D01*
X53548446Y-100110484D01*
X53539682Y-100114949D01*
X53367713Y-100239890D01*
X53217390Y-100390213D01*
X53092451Y-100562179D01*
X52995944Y-100751585D01*
X52930253Y-100953760D01*
X52897000Y-101163713D01*
X52897000Y-101376286D01*
X52930235Y-101586127D01*
X52930254Y-101586243D01*
X52988591Y-101765786D01*
X52995944Y-101788414D01*
X53092451Y-101977820D01*
X53217390Y-102149786D01*
X53367713Y-102300109D01*
X53539682Y-102425050D01*
X53548446Y-102429516D01*
X53599242Y-102477491D01*
X53616036Y-102545312D01*
X53593498Y-102611447D01*
X53548446Y-102650484D01*
X53539682Y-102654949D01*
X53367713Y-102779890D01*
X53217390Y-102930213D01*
X53092451Y-103102179D01*
X52995944Y-103291585D01*
X52930253Y-103493760D01*
X52897000Y-103703713D01*
X52897000Y-103916286D01*
X52930235Y-104126127D01*
X52930254Y-104126243D01*
X52947896Y-104180540D01*
X52995944Y-104328414D01*
X53092451Y-104517820D01*
X53217390Y-104689786D01*
X53367713Y-104840109D01*
X53539682Y-104965050D01*
X53548446Y-104969516D01*
X53599242Y-105017491D01*
X53616036Y-105085312D01*
X53593498Y-105151447D01*
X53548446Y-105190484D01*
X53539682Y-105194949D01*
X53367713Y-105319890D01*
X53217390Y-105470213D01*
X53092451Y-105642179D01*
X52995944Y-105831585D01*
X52930253Y-106033760D01*
X52897000Y-106243713D01*
X52897000Y-106456286D01*
X52930253Y-106666239D01*
X52995944Y-106868414D01*
X53092451Y-107057820D01*
X53217390Y-107229786D01*
X53367713Y-107380109D01*
X53539682Y-107505050D01*
X53548446Y-107509516D01*
X53599242Y-107557491D01*
X53616036Y-107625312D01*
X53593498Y-107691447D01*
X53548446Y-107730484D01*
X53539682Y-107734949D01*
X53367713Y-107859890D01*
X53217390Y-108010213D01*
X53092451Y-108182179D01*
X52995944Y-108371585D01*
X52995943Y-108371587D01*
X52995943Y-108371588D01*
X52963098Y-108472672D01*
X52930253Y-108573760D01*
X52897000Y-108783713D01*
X52897000Y-108996286D01*
X52930235Y-109206127D01*
X52930254Y-109206243D01*
X52960892Y-109300538D01*
X52995944Y-109408414D01*
X53092451Y-109597820D01*
X53217390Y-109769786D01*
X53367713Y-109920109D01*
X53539682Y-110045050D01*
X53548446Y-110049516D01*
X53599242Y-110097491D01*
X53616036Y-110165312D01*
X53593498Y-110231447D01*
X53548446Y-110270484D01*
X53539682Y-110274949D01*
X53367713Y-110399890D01*
X53217390Y-110550213D01*
X53092451Y-110722179D01*
X52995944Y-110911585D01*
X52930253Y-111113760D01*
X52928791Y-111122993D01*
X52897000Y-111323713D01*
X52897000Y-111536287D01*
X52907034Y-111599644D01*
X52930235Y-111746127D01*
X52930254Y-111746243D01*
X52964317Y-111851079D01*
X52995944Y-111948414D01*
X53092451Y-112137820D01*
X53217390Y-112309786D01*
X53367713Y-112460109D01*
X53539679Y-112585048D01*
X53539681Y-112585049D01*
X53539684Y-112585051D01*
X53729088Y-112681557D01*
X53931257Y-112747246D01*
X54141213Y-112780500D01*
X54141214Y-112780500D01*
X54353786Y-112780500D01*
X54353787Y-112780500D01*
X54563743Y-112747246D01*
X54765912Y-112681557D01*
X54955316Y-112585051D01*
X55010072Y-112545269D01*
X55127286Y-112460109D01*
X55127288Y-112460106D01*
X55127292Y-112460104D01*
X55277604Y-112309792D01*
X55277606Y-112309788D01*
X55277609Y-112309786D01*
X55363390Y-112191717D01*
X55402551Y-112137816D01*
X55407293Y-112128508D01*
X55455263Y-112077711D01*
X55523083Y-112060911D01*
X55589219Y-112083445D01*
X55628263Y-112128500D01*
X55632873Y-112137547D01*
X55672228Y-112191716D01*
X56304537Y-111559408D01*
X56321575Y-111622993D01*
X56387401Y-111737007D01*
X56480493Y-111830099D01*
X56594507Y-111895925D01*
X56658090Y-111912962D01*
X56025782Y-112545269D01*
X56025782Y-112545270D01*
X56079949Y-112584624D01*
X56269282Y-112681095D01*
X56471370Y-112746757D01*
X56681254Y-112780000D01*
X56893746Y-112780000D01*
X57103627Y-112746757D01*
X57103630Y-112746757D01*
X57305717Y-112681095D01*
X57495054Y-112584622D01*
X57549216Y-112545270D01*
X57549217Y-112545270D01*
X56916908Y-111912962D01*
X56980493Y-111895925D01*
X57094507Y-111830099D01*
X57187599Y-111737007D01*
X57253425Y-111622993D01*
X57270462Y-111559408D01*
X57902770Y-112191717D01*
X57902770Y-112191716D01*
X57934910Y-112147481D01*
X57934911Y-112147479D01*
X57934912Y-112147479D01*
X57942121Y-112137556D01*
X58038595Y-111948217D01*
X58104257Y-111746130D01*
X58104257Y-111746127D01*
X58137500Y-111536246D01*
X58137500Y-111323753D01*
X58104257Y-111113872D01*
X58104257Y-111113869D01*
X58038595Y-110911782D01*
X57942124Y-110722449D01*
X57902770Y-110668282D01*
X57902769Y-110668282D01*
X57270462Y-111300590D01*
X57253425Y-111237007D01*
X57187599Y-111122993D01*
X57094507Y-111029901D01*
X56980493Y-110964075D01*
X56916909Y-110947037D01*
X57549216Y-110314728D01*
X57495050Y-110275375D01*
X57485454Y-110270486D01*
X57434657Y-110222512D01*
X57417861Y-110154692D01*
X57440397Y-110088556D01*
X57485454Y-110049514D01*
X57495054Y-110044622D01*
X57549216Y-110005270D01*
X57549217Y-110005270D01*
X57536845Y-109992898D01*
X57455251Y-109911304D01*
X67099500Y-109911304D01*
X67099500Y-110088695D01*
X67134103Y-110262658D01*
X67134106Y-110262667D01*
X67201983Y-110426540D01*
X67201990Y-110426553D01*
X67300535Y-110574034D01*
X67300538Y-110574038D01*
X67425961Y-110699461D01*
X67425965Y-110699464D01*
X67573446Y-110798009D01*
X67573459Y-110798016D01*
X67696363Y-110848923D01*
X67737334Y-110865894D01*
X67737336Y-110865894D01*
X67737341Y-110865896D01*
X67911304Y-110900499D01*
X67911307Y-110900500D01*
X67911309Y-110900500D01*
X68088693Y-110900500D01*
X68088694Y-110900499D01*
X68146682Y-110888964D01*
X68262658Y-110865896D01*
X68262661Y-110865894D01*
X68262666Y-110865894D01*
X68397755Y-110809939D01*
X68445207Y-110800500D01*
X74554793Y-110800500D01*
X74602245Y-110809939D01*
X74737334Y-110865894D01*
X74737336Y-110865894D01*
X74737341Y-110865896D01*
X74911304Y-110900499D01*
X74911307Y-110900500D01*
X74911309Y-110900500D01*
X75088693Y-110900500D01*
X75088694Y-110900499D01*
X75146682Y-110888964D01*
X75262658Y-110865896D01*
X75262661Y-110865894D01*
X75262666Y-110865894D01*
X75426547Y-110798013D01*
X75574035Y-110699464D01*
X75699464Y-110574035D01*
X75798013Y-110426547D01*
X75865894Y-110262666D01*
X75900500Y-110088691D01*
X75900500Y-109911309D01*
X75900500Y-109911306D01*
X75900499Y-109911304D01*
X75865896Y-109737341D01*
X75865893Y-109737332D01*
X75798016Y-109573459D01*
X75798009Y-109573446D01*
X75699464Y-109425965D01*
X75699461Y-109425961D01*
X75574038Y-109300538D01*
X75574034Y-109300535D01*
X75426553Y-109201990D01*
X75426540Y-109201983D01*
X75262667Y-109134106D01*
X75262658Y-109134103D01*
X75088694Y-109099500D01*
X75088691Y-109099500D01*
X74911309Y-109099500D01*
X74911306Y-109099500D01*
X74737341Y-109134103D01*
X74737332Y-109134106D01*
X74602245Y-109190061D01*
X74554793Y-109199500D01*
X68445207Y-109199500D01*
X68397755Y-109190061D01*
X68262667Y-109134106D01*
X68262658Y-109134103D01*
X68088694Y-109099500D01*
X68088691Y-109099500D01*
X67911309Y-109099500D01*
X67911306Y-109099500D01*
X67737341Y-109134103D01*
X67737332Y-109134106D01*
X67573459Y-109201983D01*
X67573446Y-109201990D01*
X67425965Y-109300535D01*
X67425961Y-109300538D01*
X67300538Y-109425961D01*
X67300535Y-109425965D01*
X67201990Y-109573446D01*
X67201983Y-109573459D01*
X67134106Y-109737332D01*
X67134103Y-109737341D01*
X67099500Y-109911304D01*
X57455251Y-109911304D01*
X56916908Y-109372962D01*
X56980493Y-109355925D01*
X57094507Y-109290099D01*
X57187599Y-109197007D01*
X57253425Y-109082993D01*
X57270462Y-109019408D01*
X57902770Y-109651717D01*
X57902770Y-109651716D01*
X57942122Y-109597554D01*
X58038595Y-109408217D01*
X58104257Y-109206130D01*
X58104257Y-109206127D01*
X58137500Y-108996246D01*
X58137500Y-108783753D01*
X58104257Y-108573872D01*
X58104257Y-108573869D01*
X58038595Y-108371782D01*
X57942124Y-108182449D01*
X57902770Y-108128282D01*
X57902769Y-108128282D01*
X57270462Y-108760590D01*
X57253425Y-108697007D01*
X57187599Y-108582993D01*
X57094507Y-108489901D01*
X56980493Y-108424075D01*
X56916909Y-108407037D01*
X57549216Y-107774728D01*
X57495050Y-107735375D01*
X57485454Y-107730486D01*
X57434657Y-107682512D01*
X57417861Y-107614692D01*
X57440397Y-107548556D01*
X57485454Y-107509514D01*
X57495054Y-107504622D01*
X57549216Y-107465270D01*
X57549217Y-107465270D01*
X56916908Y-106832962D01*
X56980493Y-106815925D01*
X57094507Y-106750099D01*
X57187599Y-106657007D01*
X57253425Y-106542993D01*
X57270462Y-106479408D01*
X57902770Y-107111717D01*
X57902770Y-107111716D01*
X57942122Y-107057554D01*
X58038595Y-106868217D01*
X58104257Y-106666130D01*
X58104257Y-106666127D01*
X58137500Y-106456246D01*
X58137500Y-106243753D01*
X58104257Y-106033872D01*
X58104257Y-106033869D01*
X58038595Y-105831782D01*
X57942124Y-105642449D01*
X57902770Y-105588282D01*
X57902769Y-105588282D01*
X57270462Y-106220590D01*
X57253425Y-106157007D01*
X57187599Y-106042993D01*
X57094507Y-105949901D01*
X56980493Y-105884075D01*
X56916909Y-105867037D01*
X57549216Y-105234728D01*
X57495050Y-105195375D01*
X57485454Y-105190486D01*
X57434657Y-105142512D01*
X57417861Y-105074692D01*
X57440397Y-105008556D01*
X57485454Y-104969514D01*
X57495054Y-104964622D01*
X57549216Y-104925270D01*
X57549217Y-104925270D01*
X56916908Y-104292962D01*
X56980493Y-104275925D01*
X57094507Y-104210099D01*
X57187599Y-104117007D01*
X57253425Y-104002993D01*
X57270462Y-103939408D01*
X57902770Y-104571717D01*
X57902770Y-104571716D01*
X57942122Y-104517554D01*
X58038595Y-104328217D01*
X58104257Y-104126130D01*
X58104257Y-104126127D01*
X58136379Y-103923326D01*
X58137500Y-103916244D01*
X58137500Y-103703753D01*
X58104257Y-103493872D01*
X58104257Y-103493869D01*
X58038595Y-103291782D01*
X57942124Y-103102449D01*
X57902770Y-103048282D01*
X57902769Y-103048282D01*
X57270462Y-103680590D01*
X57253425Y-103617007D01*
X57187599Y-103502993D01*
X57094507Y-103409901D01*
X56980493Y-103344075D01*
X56916909Y-103327037D01*
X57549216Y-102694728D01*
X57495050Y-102655375D01*
X57485454Y-102650486D01*
X57434657Y-102602512D01*
X57417861Y-102534692D01*
X57440397Y-102468556D01*
X57485454Y-102429514D01*
X57495054Y-102424622D01*
X57549216Y-102385270D01*
X57549217Y-102385270D01*
X56916908Y-101752962D01*
X56980493Y-101735925D01*
X57094507Y-101670099D01*
X57187599Y-101577007D01*
X57253425Y-101462993D01*
X57270462Y-101399408D01*
X57902770Y-102031717D01*
X57902770Y-102031716D01*
X57942122Y-101977554D01*
X58038595Y-101788217D01*
X58104257Y-101586130D01*
X58104257Y-101586127D01*
X58137500Y-101376246D01*
X58137500Y-101163753D01*
X58104257Y-100953872D01*
X58104257Y-100953869D01*
X58038595Y-100751782D01*
X57942124Y-100562449D01*
X57902770Y-100508282D01*
X57902769Y-100508282D01*
X57270462Y-101140590D01*
X57253425Y-101077007D01*
X57187599Y-100962993D01*
X57094507Y-100869901D01*
X56980493Y-100804075D01*
X56916909Y-100787037D01*
X57549216Y-100154728D01*
X57495050Y-100115375D01*
X57485454Y-100110486D01*
X57434657Y-100062512D01*
X57417861Y-99994692D01*
X57440397Y-99928556D01*
X57485454Y-99889514D01*
X57495054Y-99884622D01*
X57549216Y-99845270D01*
X57549217Y-99845270D01*
X56916908Y-99212962D01*
X56980493Y-99195925D01*
X57094507Y-99130099D01*
X57187599Y-99037007D01*
X57253425Y-98922993D01*
X57270462Y-98859408D01*
X57902770Y-99491717D01*
X57902770Y-99491716D01*
X57942122Y-99437554D01*
X58038595Y-99248217D01*
X58104257Y-99046130D01*
X58104257Y-99046127D01*
X58137500Y-98836246D01*
X58137500Y-98623753D01*
X58104257Y-98413872D01*
X58104257Y-98413869D01*
X58038595Y-98211782D01*
X57942124Y-98022449D01*
X57902770Y-97968282D01*
X57902769Y-97968282D01*
X57270462Y-98600590D01*
X57253425Y-98537007D01*
X57187599Y-98422993D01*
X57094507Y-98329901D01*
X56980493Y-98264075D01*
X56916909Y-98247037D01*
X57549216Y-97614728D01*
X57495050Y-97575375D01*
X57485454Y-97570486D01*
X57434657Y-97522512D01*
X57417861Y-97454692D01*
X57440397Y-97388556D01*
X57485454Y-97349514D01*
X57495054Y-97344622D01*
X57549216Y-97305270D01*
X57549217Y-97305270D01*
X56916908Y-96672962D01*
X56980493Y-96655925D01*
X57094507Y-96590099D01*
X57187599Y-96497007D01*
X57253425Y-96382993D01*
X57270462Y-96319408D01*
X57902770Y-96951717D01*
X57902770Y-96951716D01*
X57942122Y-96897554D01*
X58038595Y-96708217D01*
X58104257Y-96506130D01*
X58104257Y-96506127D01*
X58137500Y-96296246D01*
X58137500Y-96083753D01*
X58104257Y-95873872D01*
X58104257Y-95873869D01*
X58038595Y-95671782D01*
X57942124Y-95482449D01*
X57902770Y-95428282D01*
X57902769Y-95428282D01*
X57270462Y-96060590D01*
X57253425Y-95997007D01*
X57187599Y-95882993D01*
X57094507Y-95789901D01*
X56980493Y-95724075D01*
X56916909Y-95707037D01*
X57549216Y-95074728D01*
X57495050Y-95035375D01*
X57485454Y-95030486D01*
X57434657Y-94982512D01*
X57417861Y-94914692D01*
X57440397Y-94848556D01*
X57485454Y-94809514D01*
X57495054Y-94804622D01*
X57549216Y-94765270D01*
X57549217Y-94765270D01*
X56916908Y-94132962D01*
X56980493Y-94115925D01*
X57094507Y-94050099D01*
X57187599Y-93957007D01*
X57253425Y-93842993D01*
X57270462Y-93779408D01*
X57902770Y-94411717D01*
X57902770Y-94411716D01*
X57942122Y-94357554D01*
X58038595Y-94168217D01*
X58104257Y-93966130D01*
X58104257Y-93966127D01*
X58137500Y-93756246D01*
X58137500Y-93543753D01*
X58104257Y-93333872D01*
X58104257Y-93333869D01*
X58038595Y-93131782D01*
X57942124Y-92942449D01*
X57902770Y-92888282D01*
X57902769Y-92888282D01*
X57270462Y-93520590D01*
X57253425Y-93457007D01*
X57187599Y-93342993D01*
X57094507Y-93249901D01*
X56980493Y-93184075D01*
X56916909Y-93167037D01*
X57549216Y-92534728D01*
X57495050Y-92495375D01*
X57485454Y-92490486D01*
X57434657Y-92442512D01*
X57417861Y-92374692D01*
X57440397Y-92308556D01*
X57485454Y-92269514D01*
X57495054Y-92264622D01*
X57549216Y-92225270D01*
X57549217Y-92225270D01*
X56916908Y-91592962D01*
X56980493Y-91575925D01*
X57094507Y-91510099D01*
X57187599Y-91417007D01*
X57253425Y-91302993D01*
X57270462Y-91239408D01*
X57902770Y-91871717D01*
X57902770Y-91871716D01*
X57942122Y-91817554D01*
X58038595Y-91628217D01*
X58104257Y-91426130D01*
X58104257Y-91426127D01*
X58137500Y-91216246D01*
X58137500Y-91003753D01*
X58104257Y-90793872D01*
X58104257Y-90793869D01*
X58038595Y-90591782D01*
X57942124Y-90402449D01*
X57902770Y-90348282D01*
X57902769Y-90348282D01*
X57270462Y-90980590D01*
X57253425Y-90917007D01*
X57187599Y-90802993D01*
X57094507Y-90709901D01*
X56980493Y-90644075D01*
X56916909Y-90627037D01*
X57549216Y-89994728D01*
X57495047Y-89955373D01*
X57495047Y-89955372D01*
X57486000Y-89950763D01*
X57435206Y-89902788D01*
X57418412Y-89834966D01*
X57440951Y-89768832D01*
X57486008Y-89729793D01*
X57495316Y-89725051D01*
X57614228Y-89638657D01*
X57667286Y-89600109D01*
X57667288Y-89600106D01*
X57667292Y-89600104D01*
X57817604Y-89449792D01*
X57817606Y-89449788D01*
X57817609Y-89449786D01*
X57942548Y-89277820D01*
X57942547Y-89277820D01*
X57942551Y-89277816D01*
X58039057Y-89088412D01*
X58104746Y-88886243D01*
X58138000Y-88676287D01*
X58138000Y-88569440D01*
X58157685Y-88502401D01*
X58210489Y-88456646D01*
X58279647Y-88446702D01*
X58343203Y-88475727D01*
X58349681Y-88481759D01*
X64119151Y-94251229D01*
X64146031Y-94291457D01*
X64201985Y-94426544D01*
X64201990Y-94426553D01*
X64300535Y-94574034D01*
X64300538Y-94574038D01*
X64425961Y-94699461D01*
X64425965Y-94699464D01*
X64573446Y-94798009D01*
X64573459Y-94798016D01*
X64695476Y-94848556D01*
X64737334Y-94865894D01*
X64737336Y-94865894D01*
X64737341Y-94865896D01*
X64911304Y-94900499D01*
X64911307Y-94900500D01*
X65075500Y-94900500D01*
X65084185Y-94903050D01*
X65093147Y-94901762D01*
X65117187Y-94912740D01*
X65142539Y-94920185D01*
X65148466Y-94927025D01*
X65156703Y-94930787D01*
X65170992Y-94953021D01*
X65188294Y-94972989D01*
X65190581Y-94983503D01*
X65194477Y-94989565D01*
X65199500Y-95024500D01*
X65199500Y-95066922D01*
X65179815Y-95133961D01*
X65127011Y-95179716D01*
X65122953Y-95181483D01*
X65073456Y-95201985D01*
X65073446Y-95201990D01*
X64925965Y-95300535D01*
X64925961Y-95300538D01*
X64800538Y-95425961D01*
X64800535Y-95425965D01*
X64701990Y-95573446D01*
X64701983Y-95573459D01*
X64634106Y-95737332D01*
X64634103Y-95737341D01*
X64599500Y-95911304D01*
X64599500Y-96088695D01*
X64634103Y-96262658D01*
X64634106Y-96262667D01*
X64701983Y-96426540D01*
X64701990Y-96426553D01*
X64800535Y-96574034D01*
X64800538Y-96574038D01*
X64925961Y-96699461D01*
X64925965Y-96699464D01*
X65073446Y-96798009D01*
X65073459Y-96798016D01*
X65153009Y-96830966D01*
X65237334Y-96865894D01*
X65237336Y-96865894D01*
X65237341Y-96865896D01*
X65411304Y-96900499D01*
X65411307Y-96900500D01*
X65411309Y-96900500D01*
X65588693Y-96900500D01*
X65588694Y-96900499D01*
X65651457Y-96888015D01*
X65762658Y-96865896D01*
X65762661Y-96865894D01*
X65762666Y-96865894D01*
X65926547Y-96798013D01*
X66074035Y-96699464D01*
X66199464Y-96574035D01*
X66298013Y-96426547D01*
X66353967Y-96291458D01*
X66380844Y-96251232D01*
X66621789Y-96010289D01*
X66709394Y-95879179D01*
X66769738Y-95733497D01*
X66800500Y-95578842D01*
X66800500Y-95421157D01*
X66800500Y-87945207D01*
X66809939Y-87897755D01*
X66865892Y-87762670D01*
X66865894Y-87762666D01*
X66900500Y-87588691D01*
X66900500Y-87411309D01*
X66900500Y-87411306D01*
X66900499Y-87411304D01*
X66865896Y-87237341D01*
X66865893Y-87237332D01*
X66862856Y-87230001D01*
X66829153Y-87148632D01*
X66798016Y-87073459D01*
X66798009Y-87073446D01*
X66699464Y-86925965D01*
X66699461Y-86925961D01*
X66574038Y-86800538D01*
X66574034Y-86800535D01*
X66426553Y-86701990D01*
X66426540Y-86701983D01*
X66262667Y-86634106D01*
X66262658Y-86634103D01*
X66088694Y-86599500D01*
X66088691Y-86599500D01*
X65911309Y-86599500D01*
X65911306Y-86599500D01*
X65737341Y-86634103D01*
X65737332Y-86634106D01*
X65573459Y-86701983D01*
X65573446Y-86701990D01*
X65425965Y-86800535D01*
X65425961Y-86800538D01*
X65300538Y-86925961D01*
X65300535Y-86925965D01*
X65201990Y-87073446D01*
X65201983Y-87073459D01*
X65134106Y-87237332D01*
X65134103Y-87237341D01*
X65099500Y-87411304D01*
X65099500Y-87588695D01*
X65134104Y-87762658D01*
X65134107Y-87762670D01*
X65190061Y-87897755D01*
X65199500Y-87945207D01*
X65199500Y-92768059D01*
X65179815Y-92835098D01*
X65127011Y-92880853D01*
X65057853Y-92890797D01*
X64994297Y-92861772D01*
X64987819Y-92855740D01*
X58510292Y-86378213D01*
X58510288Y-86378210D01*
X58379185Y-86290609D01*
X58379172Y-86290602D01*
X58233501Y-86230264D01*
X58233489Y-86230261D01*
X58078845Y-86199500D01*
X58078842Y-86199500D01*
X55896342Y-86199500D01*
X55738657Y-86199500D01*
X55738655Y-86199500D01*
X55654837Y-86216173D01*
X55611789Y-86224736D01*
X55590901Y-86228890D01*
X55584002Y-86230263D01*
X55583998Y-86230264D01*
X55438327Y-86290602D01*
X55438314Y-86290609D01*
X55307212Y-86378209D01*
X55277941Y-86407481D01*
X55195711Y-86489711D01*
X55195709Y-86489713D01*
X54502240Y-87183181D01*
X54440917Y-87216666D01*
X54414559Y-87219500D01*
X53597498Y-87219500D01*
X53597480Y-87219501D01*
X53494703Y-87230000D01*
X53494700Y-87230001D01*
X53328168Y-87285185D01*
X53328163Y-87285187D01*
X53178842Y-87377289D01*
X53054789Y-87501342D01*
X52962687Y-87650663D01*
X52962685Y-87650668D01*
X52954457Y-87675498D01*
X52907501Y-87817203D01*
X52907501Y-87817204D01*
X52907500Y-87817204D01*
X52897000Y-87919983D01*
X48500500Y-87919983D01*
X48500500Y-82504066D01*
X48500765Y-82495956D01*
X48501080Y-82491157D01*
X48517075Y-82247102D01*
X48519190Y-82231048D01*
X48567045Y-81990462D01*
X48571243Y-81974797D01*
X48596306Y-81900964D01*
X48650093Y-81742512D01*
X48656291Y-81727547D01*
X48764790Y-81507533D01*
X48772893Y-81493498D01*
X48909182Y-81289527D01*
X48919039Y-81276681D01*
X49080786Y-81092244D01*
X49092244Y-81080786D01*
X49276681Y-80919039D01*
X49289527Y-80909182D01*
X49493498Y-80772893D01*
X49507533Y-80764790D01*
X49727547Y-80656291D01*
X49742512Y-80650093D01*
X49940639Y-80582838D01*
X49974797Y-80571243D01*
X49990464Y-80567045D01*
X50231048Y-80519190D01*
X50247102Y-80517075D01*
X50495957Y-80500765D01*
X50504067Y-80500500D01*
X50565892Y-80500500D01*
X72209481Y-80500500D01*
X72276520Y-80520185D01*
G37*
%TD.AperFunction*%
%TA.AperFunction,Conductor*%
G36*
X112041703Y-95602041D02*
G01*
X112047066Y-95600955D01*
X112074870Y-95611780D01*
X112103492Y-95620185D01*
X112108427Y-95624846D01*
X112112174Y-95626305D01*
X112136769Y-95651613D01*
X112151280Y-95671585D01*
X112229892Y-95779788D01*
X112380213Y-95930109D01*
X112552182Y-96055050D01*
X112560946Y-96059516D01*
X112611742Y-96107491D01*
X112628536Y-96175312D01*
X112605998Y-96241447D01*
X112560946Y-96280484D01*
X112552182Y-96284949D01*
X112380213Y-96409890D01*
X112229892Y-96560211D01*
X112161573Y-96654247D01*
X112136770Y-96688385D01*
X112081442Y-96731051D01*
X112036453Y-96739500D01*
X110991003Y-96739500D01*
X110882590Y-96761065D01*
X110882589Y-96761065D01*
X110855671Y-96766420D01*
X110728190Y-96819224D01*
X110613454Y-96895887D01*
X110613453Y-96895888D01*
X107246162Y-100263181D01*
X107184839Y-100296666D01*
X107158481Y-100299500D01*
X102007236Y-100299500D01*
X101940197Y-100279815D01*
X101918872Y-100262493D01*
X101912367Y-100255885D01*
X101896621Y-100234213D01*
X101765787Y-100103379D01*
X101753279Y-100094291D01*
X101746094Y-100086993D01*
X101734237Y-100064869D01*
X101718909Y-100044994D01*
X101718015Y-100034603D01*
X101713089Y-100025410D01*
X101715075Y-100000388D01*
X101712926Y-99975381D01*
X101717792Y-99966156D01*
X101718618Y-99955760D01*
X101733816Y-99935784D01*
X101745529Y-99913585D01*
X101760729Y-99900413D01*
X101760926Y-99900155D01*
X101761101Y-99900091D01*
X101761570Y-99899684D01*
X101765787Y-99896621D01*
X101896621Y-99765787D01*
X101906919Y-99751612D01*
X101962250Y-99708948D01*
X102007236Y-99700500D01*
X107068996Y-99700500D01*
X107160040Y-99682389D01*
X107204328Y-99673580D01*
X107268069Y-99647177D01*
X107331807Y-99620777D01*
X107331808Y-99620776D01*
X107331811Y-99620775D01*
X107446543Y-99544114D01*
X111353838Y-95636819D01*
X111415161Y-95603334D01*
X111441519Y-95600500D01*
X112036453Y-95600500D01*
X112041703Y-95602041D01*
G37*
%TD.AperFunction*%
%TA.AperFunction,Conductor*%
G36*
X110225520Y-86220185D02*
G01*
X110246162Y-86236819D01*
X110292447Y-86283104D01*
X110325932Y-86344427D01*
X110327240Y-86390179D01*
X110324500Y-86407481D01*
X110324500Y-86407484D01*
X110324500Y-86407486D01*
X110324500Y-86592514D01*
X110330579Y-86630893D01*
X110353445Y-86775265D01*
X110410619Y-86951232D01*
X110410620Y-86951235D01*
X110472894Y-87073453D01*
X110494622Y-87116096D01*
X110603379Y-87265787D01*
X110734213Y-87396621D01*
X110883904Y-87505378D01*
X110937224Y-87532546D01*
X111048764Y-87589379D01*
X111048767Y-87589380D01*
X111136750Y-87617967D01*
X111224736Y-87646555D01*
X111407486Y-87675500D01*
X111407487Y-87675500D01*
X111592513Y-87675500D01*
X111592514Y-87675500D01*
X111775264Y-87646555D01*
X111951235Y-87589379D01*
X112116096Y-87505378D01*
X112265787Y-87396621D01*
X112396621Y-87265787D01*
X112399680Y-87261576D01*
X112455006Y-87218909D01*
X112524619Y-87212926D01*
X112586415Y-87245529D01*
X112600315Y-87261570D01*
X112603379Y-87265787D01*
X112734213Y-87396621D01*
X112883904Y-87505378D01*
X112937224Y-87532546D01*
X113048764Y-87589379D01*
X113048767Y-87589380D01*
X113136750Y-87617967D01*
X113224736Y-87646555D01*
X113407486Y-87675500D01*
X113407487Y-87675500D01*
X113592513Y-87675500D01*
X113592514Y-87675500D01*
X113775264Y-87646555D01*
X113951235Y-87589379D01*
X114116096Y-87505378D01*
X114265787Y-87396621D01*
X114396621Y-87265787D01*
X114399680Y-87261576D01*
X114455006Y-87218909D01*
X114524619Y-87212926D01*
X114586415Y-87245529D01*
X114600315Y-87261570D01*
X114603379Y-87265787D01*
X114734213Y-87396621D01*
X114883904Y-87505378D01*
X114937220Y-87532544D01*
X115048913Y-87589455D01*
X115099709Y-87637430D01*
X115116504Y-87705251D01*
X115093966Y-87771386D01*
X115080299Y-87787621D01*
X112204741Y-90663181D01*
X112143418Y-90696666D01*
X112117060Y-90699500D01*
X109921154Y-90699500D01*
X109766509Y-90730261D01*
X109766497Y-90730264D01*
X109723832Y-90747936D01*
X109723833Y-90747937D01*
X109620823Y-90790604D01*
X109620814Y-90790609D01*
X109489712Y-90878209D01*
X109489710Y-90878212D01*
X106204741Y-94163181D01*
X106143418Y-94196666D01*
X106117060Y-94199500D01*
X98945207Y-94199500D01*
X98897755Y-94190061D01*
X98762667Y-94134106D01*
X98762658Y-94134103D01*
X98588694Y-94099500D01*
X98588691Y-94099500D01*
X98411309Y-94099500D01*
X98411306Y-94099500D01*
X98237341Y-94134103D01*
X98237332Y-94134106D01*
X98073459Y-94201983D01*
X98073446Y-94201990D01*
X97925965Y-94300535D01*
X97925961Y-94300538D01*
X97800538Y-94425961D01*
X97800535Y-94425965D01*
X97701990Y-94573446D01*
X97701983Y-94573459D01*
X97634106Y-94737332D01*
X97634103Y-94737341D01*
X97599500Y-94911304D01*
X97599500Y-95088695D01*
X97634103Y-95262658D01*
X97634106Y-95262667D01*
X97701983Y-95426540D01*
X97701990Y-95426553D01*
X97800535Y-95574034D01*
X97800538Y-95574038D01*
X97925961Y-95699461D01*
X97925965Y-95699464D01*
X98073446Y-95798009D01*
X98073459Y-95798016D01*
X98161102Y-95834318D01*
X98237334Y-95865894D01*
X98237336Y-95865894D01*
X98237341Y-95865896D01*
X98411304Y-95900499D01*
X98411307Y-95900500D01*
X98411309Y-95900500D01*
X98588693Y-95900500D01*
X98588694Y-95900499D01*
X98646682Y-95888964D01*
X98762658Y-95865896D01*
X98762661Y-95865894D01*
X98762666Y-95865894D01*
X98897755Y-95809939D01*
X98945207Y-95800500D01*
X99844714Y-95800500D01*
X99911753Y-95820185D01*
X99957508Y-95872989D01*
X99967452Y-95942147D01*
X99943980Y-95998810D01*
X99935388Y-96010289D01*
X99881204Y-96082668D01*
X99881202Y-96082671D01*
X99830908Y-96217517D01*
X99824501Y-96277116D01*
X99824500Y-96277135D01*
X99824500Y-97722870D01*
X99824501Y-97722876D01*
X99830908Y-97782483D01*
X99881202Y-97917328D01*
X99881206Y-97917335D01*
X99926980Y-97978480D01*
X99967454Y-98032546D01*
X100025813Y-98076234D01*
X100067684Y-98132167D01*
X100072668Y-98201859D01*
X100039183Y-98263182D01*
X99977859Y-98296666D01*
X99951502Y-98299500D01*
X97841519Y-98299500D01*
X97774480Y-98279815D01*
X97753838Y-98263181D01*
X96587970Y-97097313D01*
X96554485Y-97035990D01*
X96559469Y-96966298D01*
X96601341Y-96910365D01*
X96651460Y-96888015D01*
X96762658Y-96865896D01*
X96762661Y-96865894D01*
X96762666Y-96865894D01*
X96926547Y-96798013D01*
X97074035Y-96699464D01*
X97199464Y-96574035D01*
X97298013Y-96426547D01*
X97304913Y-96409890D01*
X97343944Y-96315658D01*
X97365894Y-96262666D01*
X97368315Y-96250499D01*
X97400499Y-96088695D01*
X97400500Y-96088693D01*
X97400500Y-95911306D01*
X97400499Y-95911304D01*
X97365896Y-95737341D01*
X97365893Y-95737332D01*
X97319300Y-95624846D01*
X97309939Y-95602245D01*
X97300500Y-95554793D01*
X97300500Y-88836302D01*
X97320185Y-88769263D01*
X97351609Y-88735988D01*
X97477510Y-88644517D01*
X97644517Y-88477510D01*
X97783343Y-88286433D01*
X97890568Y-88075992D01*
X97963553Y-87851368D01*
X97970579Y-87807007D01*
X98000500Y-87618097D01*
X98000500Y-87381902D01*
X97963553Y-87148631D01*
X97900926Y-86955886D01*
X97890568Y-86924008D01*
X97890566Y-86924005D01*
X97890566Y-86924003D01*
X97814779Y-86775264D01*
X97783343Y-86713567D01*
X97644517Y-86522490D01*
X97534208Y-86412181D01*
X97500723Y-86350858D01*
X97505707Y-86281166D01*
X97547579Y-86225233D01*
X97613043Y-86200816D01*
X97621889Y-86200500D01*
X110158481Y-86200500D01*
X110225520Y-86220185D01*
G37*
%TD.AperFunction*%
%TA.AperFunction,Conductor*%
G36*
X106976519Y-97820185D02*
G01*
X107022274Y-97872989D01*
X107032218Y-97942147D01*
X107003193Y-98005703D01*
X106997161Y-98012181D01*
X106746162Y-98263181D01*
X106684839Y-98296666D01*
X106658481Y-98299500D01*
X102048498Y-98299500D01*
X101981459Y-98279815D01*
X101935704Y-98227011D01*
X101925760Y-98157853D01*
X101954785Y-98094297D01*
X101974183Y-98076235D01*
X102032546Y-98032546D01*
X102118796Y-97917331D01*
X102132285Y-97881166D01*
X102174157Y-97825233D01*
X102239621Y-97800816D01*
X102248467Y-97800500D01*
X106909480Y-97800500D01*
X106976519Y-97820185D01*
G37*
%TD.AperFunction*%
%TA.AperFunction,Conductor*%
G36*
X117725520Y-84220185D02*
G01*
X117746162Y-84236819D01*
X119263181Y-85753838D01*
X119296666Y-85815161D01*
X119299500Y-85841519D01*
X119299500Y-94297349D01*
X119279815Y-94364388D01*
X119227011Y-94410143D01*
X119157853Y-94420087D01*
X119094297Y-94391062D01*
X119087819Y-94385030D01*
X119042162Y-94339373D01*
X118902860Y-94246295D01*
X118748082Y-94182184D01*
X118748074Y-94182182D01*
X118583771Y-94149500D01*
X118583767Y-94149500D01*
X118416233Y-94149500D01*
X118416228Y-94149500D01*
X118251925Y-94182182D01*
X118251917Y-94182184D01*
X118097139Y-94246295D01*
X117957837Y-94339373D01*
X117839373Y-94457837D01*
X117746295Y-94597139D01*
X117682184Y-94751917D01*
X117682182Y-94751925D01*
X117649500Y-94916228D01*
X117649500Y-95083771D01*
X117682182Y-95248074D01*
X117682184Y-95248082D01*
X117746295Y-95402860D01*
X117746296Y-95402862D01*
X117746297Y-95402863D01*
X117761733Y-95425965D01*
X117778602Y-95451210D01*
X117799480Y-95517887D01*
X117799500Y-95520101D01*
X117799500Y-96167662D01*
X117779815Y-96234701D01*
X117763181Y-96255343D01*
X117187557Y-96830966D01*
X117126234Y-96864451D01*
X117056542Y-96859467D01*
X117000609Y-96817595D01*
X116989391Y-96799580D01*
X116985397Y-96791742D01*
X116955051Y-96732184D01*
X116923229Y-96688384D01*
X116830109Y-96560213D01*
X116716569Y-96446673D01*
X116683084Y-96385350D01*
X116688068Y-96315658D01*
X116729940Y-96259725D01*
X116760915Y-96242810D01*
X116892331Y-96193796D01*
X117007546Y-96107546D01*
X117093796Y-95992331D01*
X117144091Y-95857483D01*
X117150500Y-95797873D01*
X117150499Y-94002128D01*
X117144091Y-93942517D01*
X117126333Y-93894906D01*
X117093797Y-93807671D01*
X117093793Y-93807664D01*
X117007547Y-93692455D01*
X117007544Y-93692452D01*
X116892335Y-93606206D01*
X116892328Y-93606202D01*
X116757482Y-93555908D01*
X116757483Y-93555908D01*
X116697883Y-93549501D01*
X116697881Y-93549500D01*
X116697873Y-93549500D01*
X116697865Y-93549500D01*
X115632940Y-93549500D01*
X115565901Y-93529815D01*
X115545259Y-93513181D01*
X114410292Y-92378213D01*
X114410288Y-92378210D01*
X114279185Y-92290609D01*
X114279172Y-92290602D01*
X114133501Y-92230264D01*
X114133489Y-92230261D01*
X113978845Y-92199500D01*
X113978842Y-92199500D01*
X113231941Y-92199500D01*
X113164902Y-92179815D01*
X113119147Y-92127011D01*
X113109203Y-92057853D01*
X113138228Y-91994297D01*
X113144260Y-91987819D01*
X117420259Y-87711818D01*
X117481582Y-87678333D01*
X117507940Y-87675499D01*
X118222871Y-87675499D01*
X118222872Y-87675499D01*
X118282483Y-87669091D01*
X118417331Y-87618796D01*
X118532546Y-87532546D01*
X118618796Y-87417331D01*
X118669091Y-87282483D01*
X118675500Y-87222873D01*
X118675499Y-85777128D01*
X118669091Y-85717517D01*
X118655775Y-85681816D01*
X118618797Y-85582671D01*
X118618793Y-85582664D01*
X118532547Y-85467455D01*
X118532544Y-85467452D01*
X118417335Y-85381206D01*
X118417328Y-85381202D01*
X118282482Y-85330908D01*
X118282483Y-85330908D01*
X118222883Y-85324501D01*
X118222881Y-85324500D01*
X118222873Y-85324500D01*
X118222864Y-85324500D01*
X116777129Y-85324500D01*
X116777123Y-85324501D01*
X116717516Y-85330908D01*
X116582671Y-85381202D01*
X116582664Y-85381206D01*
X116467455Y-85467452D01*
X116403758Y-85552539D01*
X116347823Y-85594410D01*
X116278132Y-85599393D01*
X116231607Y-85578545D01*
X116116099Y-85494624D01*
X116116098Y-85494623D01*
X116116096Y-85494622D01*
X116021740Y-85446545D01*
X115951235Y-85410620D01*
X115951232Y-85410619D01*
X115775265Y-85353445D01*
X115672218Y-85337124D01*
X115592514Y-85324500D01*
X115407486Y-85324500D01*
X115367028Y-85330908D01*
X115224734Y-85353445D01*
X115048767Y-85410619D01*
X115048764Y-85410620D01*
X114883903Y-85494622D01*
X114804188Y-85552539D01*
X114734213Y-85603379D01*
X114734211Y-85603381D01*
X114734210Y-85603381D01*
X114603381Y-85734210D01*
X114600314Y-85738432D01*
X114544981Y-85781094D01*
X114475367Y-85787069D01*
X114413574Y-85754459D01*
X114399686Y-85738432D01*
X114396621Y-85734213D01*
X114265787Y-85603379D01*
X114116096Y-85494622D01*
X114062778Y-85467455D01*
X113951235Y-85410620D01*
X113951232Y-85410619D01*
X113775265Y-85353445D01*
X113672218Y-85337124D01*
X113592514Y-85324500D01*
X113407486Y-85324500D01*
X113407481Y-85324500D01*
X113390177Y-85327240D01*
X113320884Y-85318283D01*
X113283103Y-85292447D01*
X112424221Y-84433565D01*
X112390736Y-84372242D01*
X112395720Y-84302550D01*
X112437592Y-84246617D01*
X112503056Y-84222200D01*
X112571329Y-84237052D01*
X112580789Y-84242779D01*
X112597137Y-84253703D01*
X112751918Y-84317816D01*
X112916228Y-84350499D01*
X112916232Y-84350500D01*
X112916233Y-84350500D01*
X113083768Y-84350500D01*
X113083769Y-84350499D01*
X113248082Y-84317816D01*
X113402863Y-84253703D01*
X113451211Y-84221398D01*
X113517888Y-84200520D01*
X113520102Y-84200500D01*
X117658481Y-84200500D01*
X117725520Y-84220185D01*
G37*
%TD.AperFunction*%
%TA.AperFunction,Conductor*%
G36*
X91069838Y-86220185D02*
G01*
X91087185Y-86240204D01*
X91090472Y-86236918D01*
X91870591Y-87017037D01*
X91807007Y-87034075D01*
X91692993Y-87099901D01*
X91599901Y-87192993D01*
X91534075Y-87307007D01*
X91517037Y-87370591D01*
X90777340Y-86630894D01*
X90717084Y-86713830D01*
X90609897Y-86924197D01*
X90536934Y-87148752D01*
X90500000Y-87381947D01*
X90500000Y-87618052D01*
X90536934Y-87851247D01*
X90609897Y-88075802D01*
X90717087Y-88286174D01*
X90777338Y-88369104D01*
X90777340Y-88369105D01*
X91517037Y-87629408D01*
X91534075Y-87692993D01*
X91599901Y-87807007D01*
X91692993Y-87900099D01*
X91807007Y-87965925D01*
X91870590Y-87982962D01*
X91130893Y-88722658D01*
X91213828Y-88782914D01*
X91424197Y-88890102D01*
X91648752Y-88963065D01*
X91648751Y-88963065D01*
X91881948Y-89000000D01*
X92118052Y-89000000D01*
X92351247Y-88963065D01*
X92575802Y-88890102D01*
X92786163Y-88782918D01*
X92786169Y-88782914D01*
X92869104Y-88722658D01*
X92869105Y-88722658D01*
X92129408Y-87982962D01*
X92192993Y-87965925D01*
X92307007Y-87900099D01*
X92400099Y-87807007D01*
X92465925Y-87692993D01*
X92482962Y-87629409D01*
X93222658Y-88369105D01*
X93222658Y-88369104D01*
X93282914Y-88286169D01*
X93282918Y-88286163D01*
X93390102Y-88075802D01*
X93463065Y-87851247D01*
X93500000Y-87618052D01*
X93500000Y-87381947D01*
X93463065Y-87148752D01*
X93390102Y-86924197D01*
X93282914Y-86713828D01*
X93222658Y-86630894D01*
X93222658Y-86630893D01*
X92482962Y-87370590D01*
X92465925Y-87307007D01*
X92400099Y-87192993D01*
X92307007Y-87099901D01*
X92192993Y-87034075D01*
X92129409Y-87017037D01*
X92909527Y-86236919D01*
X92913022Y-86240414D01*
X92936858Y-86216173D01*
X92997200Y-86200500D01*
X95378111Y-86200500D01*
X95445150Y-86220185D01*
X95490905Y-86272989D01*
X95500849Y-86342147D01*
X95471824Y-86405703D01*
X95465792Y-86412181D01*
X95355485Y-86522487D01*
X95355485Y-86522488D01*
X95355483Y-86522490D01*
X95299532Y-86599500D01*
X95216657Y-86713566D01*
X95109433Y-86924003D01*
X95036446Y-87148631D01*
X94999500Y-87381902D01*
X94999500Y-87618097D01*
X95036446Y-87851368D01*
X95109433Y-88075996D01*
X95187227Y-88228674D01*
X95216657Y-88286433D01*
X95355483Y-88477510D01*
X95522490Y-88644517D01*
X95648388Y-88735987D01*
X95691051Y-88791313D01*
X95699500Y-88836302D01*
X95699500Y-95554793D01*
X95690061Y-95602245D01*
X95634106Y-95737332D01*
X95634104Y-95737338D01*
X95611984Y-95848541D01*
X95579598Y-95910451D01*
X95518882Y-95945025D01*
X95449113Y-95941284D01*
X95402686Y-95912029D01*
X88381893Y-88891236D01*
X88375002Y-88878616D01*
X88364274Y-88869038D01*
X88358590Y-88848561D01*
X88348408Y-88829913D01*
X88349433Y-88815569D01*
X88345588Y-88801713D01*
X88351876Y-88781417D01*
X88353392Y-88760221D01*
X88362400Y-88747449D01*
X88366266Y-88734974D01*
X88384947Y-88715485D01*
X88389772Y-88708646D01*
X88393126Y-88705825D01*
X88477510Y-88644517D01*
X88644517Y-88477510D01*
X88783343Y-88286433D01*
X88890568Y-88075992D01*
X88963553Y-87851368D01*
X88970579Y-87807007D01*
X89000500Y-87618097D01*
X89000500Y-87381902D01*
X88963553Y-87148631D01*
X88900926Y-86955886D01*
X88890568Y-86924008D01*
X88890566Y-86924005D01*
X88890566Y-86924003D01*
X88814779Y-86775264D01*
X88783343Y-86713567D01*
X88644517Y-86522490D01*
X88534208Y-86412181D01*
X88500723Y-86350858D01*
X88505707Y-86281166D01*
X88547579Y-86225233D01*
X88613043Y-86200816D01*
X88621889Y-86200500D01*
X91002799Y-86200500D01*
X91069838Y-86220185D01*
G37*
%TD.AperFunction*%
%TA.AperFunction,Conductor*%
G36*
X90712723Y-81405047D02*
G01*
X90725268Y-81403970D01*
X90745613Y-81414705D01*
X90767681Y-81421185D01*
X90775924Y-81430699D01*
X90787063Y-81436576D01*
X90798375Y-81456608D01*
X90813436Y-81473989D01*
X90815227Y-81486449D01*
X90821420Y-81497415D01*
X90820106Y-81520381D01*
X90823380Y-81543147D01*
X90818054Y-81556268D01*
X90817431Y-81567171D01*
X90800960Y-81598386D01*
X90717085Y-81713828D01*
X90609897Y-81924197D01*
X90536934Y-82148752D01*
X90500000Y-82381947D01*
X90500000Y-82618052D01*
X90536934Y-82851247D01*
X90609897Y-83075802D01*
X90717087Y-83286174D01*
X90777338Y-83369104D01*
X90777340Y-83369105D01*
X91517037Y-82629408D01*
X91534075Y-82692993D01*
X91599901Y-82807007D01*
X91692993Y-82900099D01*
X91807007Y-82965925D01*
X91870591Y-82982962D01*
X91090472Y-83763080D01*
X91086977Y-83759585D01*
X91063056Y-83783875D01*
X91002799Y-83799500D01*
X88621889Y-83799500D01*
X88554850Y-83779815D01*
X88509095Y-83727011D01*
X88499151Y-83657853D01*
X88528176Y-83594297D01*
X88534208Y-83587819D01*
X88587819Y-83534208D01*
X88644517Y-83477510D01*
X88783343Y-83286433D01*
X88890568Y-83075992D01*
X88963553Y-82851368D01*
X88975078Y-82778602D01*
X89000500Y-82618097D01*
X89000500Y-82381902D01*
X88963553Y-82148631D01*
X88890566Y-81924003D01*
X88794174Y-81734824D01*
X88783343Y-81713567D01*
X88699657Y-81598383D01*
X88676178Y-81532580D01*
X88692003Y-81464526D01*
X88742109Y-81415831D01*
X88799976Y-81401500D01*
X90700642Y-81401500D01*
X90712723Y-81405047D01*
G37*
%TD.AperFunction*%
%TA.AperFunction,Conductor*%
G36*
X95267063Y-81421185D02*
G01*
X95312818Y-81473989D01*
X95322762Y-81543147D01*
X95300343Y-81598383D01*
X95255374Y-81660277D01*
X95216657Y-81713566D01*
X95109433Y-81924003D01*
X95036446Y-82148631D01*
X94999500Y-82381902D01*
X94999500Y-82618097D01*
X95036446Y-82851368D01*
X95109433Y-83075996D01*
X95203534Y-83260678D01*
X95216657Y-83286433D01*
X95355483Y-83477510D01*
X95355485Y-83477512D01*
X95465792Y-83587819D01*
X95499277Y-83649142D01*
X95494293Y-83718834D01*
X95452421Y-83774767D01*
X95386957Y-83799184D01*
X95378111Y-83799500D01*
X92997200Y-83799500D01*
X92930161Y-83779815D01*
X92912812Y-83759794D01*
X92909527Y-83763080D01*
X92129408Y-82982962D01*
X92192993Y-82965925D01*
X92307007Y-82900099D01*
X92400099Y-82807007D01*
X92465925Y-82692993D01*
X92482962Y-82629409D01*
X93222658Y-83369105D01*
X93222658Y-83369104D01*
X93282914Y-83286169D01*
X93282918Y-83286163D01*
X93390102Y-83075802D01*
X93463065Y-82851247D01*
X93500000Y-82618052D01*
X93500000Y-82381947D01*
X93463065Y-82148752D01*
X93390102Y-81924197D01*
X93282914Y-81713828D01*
X93199040Y-81598386D01*
X93175560Y-81532580D01*
X93191385Y-81464526D01*
X93241491Y-81415831D01*
X93299358Y-81401500D01*
X95200024Y-81401500D01*
X95267063Y-81421185D01*
G37*
%TD.AperFunction*%
%TA.AperFunction,Conductor*%
G36*
X107426520Y-81421185D02*
G01*
X107447162Y-81437819D01*
X108575775Y-82566432D01*
X108609260Y-82627755D01*
X108604276Y-82697447D01*
X108562404Y-82753380D01*
X108496940Y-82777797D01*
X108428667Y-82762945D01*
X108419205Y-82757216D01*
X108402863Y-82746297D01*
X108402861Y-82746296D01*
X108248082Y-82682184D01*
X108248074Y-82682182D01*
X108083771Y-82649500D01*
X108083767Y-82649500D01*
X107916233Y-82649500D01*
X107916228Y-82649500D01*
X107751925Y-82682182D01*
X107751917Y-82682184D01*
X107597140Y-82746295D01*
X107597131Y-82746300D01*
X107548789Y-82778602D01*
X107482112Y-82799480D01*
X107479898Y-82799500D01*
X98931004Y-82799500D01*
X98795677Y-82826418D01*
X98795667Y-82826421D01*
X98668192Y-82879222D01*
X98553454Y-82955887D01*
X98553453Y-82955888D01*
X97746162Y-83763181D01*
X97719234Y-83777884D01*
X97693416Y-83794477D01*
X97687215Y-83795368D01*
X97684839Y-83796666D01*
X97658481Y-83799500D01*
X97621889Y-83799500D01*
X97554850Y-83779815D01*
X97509095Y-83727011D01*
X97499151Y-83657853D01*
X97528176Y-83594297D01*
X97534208Y-83587819D01*
X97587819Y-83534208D01*
X97644517Y-83477510D01*
X97783343Y-83286433D01*
X97890568Y-83075992D01*
X97963553Y-82851368D01*
X97975078Y-82778602D01*
X98000500Y-82618097D01*
X98000500Y-82381902D01*
X97963553Y-82148631D01*
X97890566Y-81924003D01*
X97794174Y-81734824D01*
X97783343Y-81713567D01*
X97699657Y-81598383D01*
X97676178Y-81532580D01*
X97692003Y-81464526D01*
X97742109Y-81415831D01*
X97799976Y-81401500D01*
X107359481Y-81401500D01*
X107426520Y-81421185D01*
G37*
%TD.AperFunction*%
%TD*%
M02*
