%TF.GenerationSoftware,KiCad,Pcbnew,9.0.2-9.0.2-0~ubuntu24.04.1*%
%TF.CreationDate,2025-07-11T12:15:57+05:30*%
%TF.ProjectId,Programmer_rev01,50726f67-7261-46d6-9d65-725f72657630,rev?*%
%TF.SameCoordinates,Original*%
%TF.FileFunction,Copper,L1,Top*%
%TF.FilePolarity,Positive*%
%FSLAX46Y46*%
G04 Gerber Fmt 4.6, Leading zero omitted, Abs format (unit mm)*
G04 Created by KiCad (PCBNEW 9.0.2-9.0.2-0~ubuntu24.04.1) date 2025-07-11 12:15:57*
%MOMM*%
%LPD*%
G01*
G04 APERTURE LIST*
G04 Aperture macros list*
%AMRoundRect*
0 Rectangle with rounded corners*
0 $1 Rounding radius*
0 $2 $3 $4 $5 $6 $7 $8 $9 X,Y pos of 4 corners*
0 Add a 4 corners polygon primitive as box body*
4,1,4,$2,$3,$4,$5,$6,$7,$8,$9,$2,$3,0*
0 Add four circle primitives for the rounded corners*
1,1,$1+$1,$2,$3*
1,1,$1+$1,$4,$5*
1,1,$1+$1,$6,$7*
1,1,$1+$1,$8,$9*
0 Add four rect primitives between the rounded corners*
20,1,$1+$1,$2,$3,$4,$5,0*
20,1,$1+$1,$4,$5,$6,$7,0*
20,1,$1+$1,$6,$7,$8,$9,0*
20,1,$1+$1,$8,$9,$2,$3,0*%
%AMFreePoly0*
4,1,23,0.550000,-0.750000,0.000000,-0.750000,0.000000,-0.745722,-0.065263,-0.745722,-0.191342,-0.711940,-0.304381,-0.646677,-0.396677,-0.554381,-0.461940,-0.441342,-0.495722,-0.315263,-0.495722,-0.250000,-0.500000,-0.250000,-0.500000,0.250000,-0.495722,0.250000,-0.495722,0.315263,-0.461940,0.441342,-0.396677,0.554381,-0.304381,0.646677,-0.191342,0.711940,-0.065263,0.745722,0.000000,0.745722,
0.000000,0.750000,0.550000,0.750000,0.550000,-0.750000,0.550000,-0.750000,$1*%
%AMFreePoly1*
4,1,23,0.000000,0.745722,0.065263,0.745722,0.191342,0.711940,0.304381,0.646677,0.396677,0.554381,0.461940,0.441342,0.495722,0.315263,0.495722,0.250000,0.500000,0.250000,0.500000,-0.250000,0.495722,-0.250000,0.495722,-0.315263,0.461940,-0.441342,0.396677,-0.554381,0.304381,-0.646677,0.191342,-0.711940,0.065263,-0.745722,0.000000,-0.745722,0.000000,-0.750000,-0.550000,-0.750000,
-0.550000,0.750000,0.000000,0.750000,0.000000,0.745722,0.000000,0.745722,$1*%
G04 Aperture macros list end*
%TA.AperFunction,SMDPad,CuDef*%
%ADD10FreePoly0,270.000000*%
%TD*%
%TA.AperFunction,SMDPad,CuDef*%
%ADD11R,1.500000X1.000000*%
%TD*%
%TA.AperFunction,SMDPad,CuDef*%
%ADD12FreePoly1,270.000000*%
%TD*%
%TA.AperFunction,SMDPad,CuDef*%
%ADD13RoundRect,0.250000X-1.000000X-0.650000X1.000000X-0.650000X1.000000X0.650000X-1.000000X0.650000X0*%
%TD*%
%TA.AperFunction,SMDPad,CuDef*%
%ADD14RoundRect,0.250000X-0.650000X1.000000X-0.650000X-1.000000X0.650000X-1.000000X0.650000X1.000000X0*%
%TD*%
%TA.AperFunction,SMDPad,CuDef*%
%ADD15RoundRect,0.237500X-0.287500X-0.237500X0.287500X-0.237500X0.287500X0.237500X-0.287500X0.237500X0*%
%TD*%
%TA.AperFunction,ComponentPad*%
%ADD16C,2.000000*%
%TD*%
%TA.AperFunction,ComponentPad*%
%ADD17C,1.350000*%
%TD*%
%TA.AperFunction,ComponentPad*%
%ADD18R,1.350000X1.350000*%
%TD*%
%TA.AperFunction,HeatsinkPad*%
%ADD19O,1.000000X1.800000*%
%TD*%
%TA.AperFunction,HeatsinkPad*%
%ADD20O,1.000000X2.100000*%
%TD*%
%TA.AperFunction,SMDPad,CuDef*%
%ADD21R,0.600000X1.240000*%
%TD*%
%TA.AperFunction,SMDPad,CuDef*%
%ADD22R,0.300000X1.240000*%
%TD*%
%TA.AperFunction,SMDPad,CuDef*%
%ADD23RoundRect,0.237500X-0.237500X0.250000X-0.237500X-0.250000X0.237500X-0.250000X0.237500X0.250000X0*%
%TD*%
%TA.AperFunction,SMDPad,CuDef*%
%ADD24RoundRect,0.150000X0.150000X-0.825000X0.150000X0.825000X-0.150000X0.825000X-0.150000X-0.825000X0*%
%TD*%
%TA.AperFunction,SMDPad,CuDef*%
%ADD25RoundRect,0.375000X-0.375000X0.625000X-0.375000X-0.625000X0.375000X-0.625000X0.375000X0.625000X0*%
%TD*%
%TA.AperFunction,SMDPad,CuDef*%
%ADD26RoundRect,0.500000X-1.400000X0.500000X-1.400000X-0.500000X1.400000X-0.500000X1.400000X0.500000X0*%
%TD*%
%TA.AperFunction,SMDPad,CuDef*%
%ADD27RoundRect,0.162500X0.162500X-0.617500X0.162500X0.617500X-0.162500X0.617500X-0.162500X-0.617500X0*%
%TD*%
%TA.AperFunction,SMDPad,CuDef*%
%ADD28RoundRect,0.237500X0.237500X-0.250000X0.237500X0.250000X-0.237500X0.250000X-0.237500X-0.250000X0*%
%TD*%
%TA.AperFunction,ComponentPad*%
%ADD29R,1.700000X1.700000*%
%TD*%
%TA.AperFunction,ComponentPad*%
%ADD30O,1.700000X1.700000*%
%TD*%
%TA.AperFunction,ComponentPad*%
%ADD31RoundRect,0.250000X-0.600000X-0.600000X0.600000X-0.600000X0.600000X0.600000X-0.600000X0.600000X0*%
%TD*%
%TA.AperFunction,ComponentPad*%
%ADD32C,1.700000*%
%TD*%
%TA.AperFunction,SMDPad,CuDef*%
%ADD33RoundRect,0.237500X-0.237500X0.300000X-0.237500X-0.300000X0.237500X-0.300000X0.237500X0.300000X0*%
%TD*%
%TA.AperFunction,ViaPad*%
%ADD34C,0.700000*%
%TD*%
%TA.AperFunction,ViaPad*%
%ADD35C,0.800000*%
%TD*%
%TA.AperFunction,Conductor*%
%ADD36C,0.200000*%
%TD*%
%TA.AperFunction,Conductor*%
%ADD37C,0.400000*%
%TD*%
%TA.AperFunction,Conductor*%
%ADD38C,0.600000*%
%TD*%
%TA.AperFunction,Conductor*%
%ADD39C,0.300000*%
%TD*%
G04 APERTURE END LIST*
D10*
%TO.P,JP1,1,A*%
%TO.N,Net-(D3-K)*%
X80500000Y-95700000D03*
D11*
%TO.P,JP1,2,C*%
%TO.N,+3.3VADC*%
X80500000Y-97000000D03*
D12*
%TO.P,JP1,3,B*%
%TO.N,Net-(D4-K)*%
X80500000Y-98300000D03*
%TD*%
D13*
%TO.P,D4,1,K*%
%TO.N,Net-(D4-K)*%
X84000000Y-99000000D03*
%TO.P,D4,2,A*%
%TO.N,+3.3V*%
X88000000Y-99000000D03*
%TD*%
%TO.P,D3,1,K*%
%TO.N,Net-(D3-K)*%
X84000000Y-95000000D03*
%TO.P,D3,2,A*%
%TO.N,+3.3VP*%
X88000000Y-95000000D03*
%TD*%
D14*
%TO.P,D2,1,K*%
%TO.N,+5V*%
X65000000Y-104500000D03*
%TO.P,D2,2,A*%
%TO.N,VBUS*%
X65000000Y-108500000D03*
%TD*%
D15*
%TO.P,D1,2,A*%
%TO.N,Net-(D1-A)*%
X70625000Y-90000000D03*
%TO.P,D1,1,K*%
%TO.N,SB_LED*%
X68875000Y-90000000D03*
%TD*%
D16*
%TO.P,TP11,1,1*%
%TO.N,RESET*%
X74000000Y-82500000D03*
%TD*%
D17*
%TO.P,J4,3,Pin_3*%
%TO.N,SWDIO*%
X112500000Y-113500000D03*
%TO.P,J4,2,Pin_2*%
%TO.N,SWCLK*%
X114500000Y-113500000D03*
D18*
%TO.P,J4,1,Pin_1*%
%TO.N,RESET*%
X116500000Y-113500000D03*
%TD*%
D17*
%TO.P,J3,3,Pin_3*%
%TO.N,GND*%
X128000000Y-102000000D03*
%TO.P,J3,2,Pin_2*%
%TO.N,SDA*%
X128000000Y-100000000D03*
D18*
%TO.P,J3,1,Pin_1*%
%TO.N,SCL*%
X128000000Y-98000000D03*
%TD*%
D17*
%TO.P,J5,4,Pin_4*%
%TO.N,SB_LED*%
X111500000Y-86500000D03*
%TO.P,J5,3,Pin_3*%
%TO.N,BOOT_MODE*%
X113500000Y-86500000D03*
%TO.P,J5,2,Pin_2*%
%TO.N,SYS_WAKE*%
X115500000Y-86500000D03*
D18*
%TO.P,J5,1,Pin_1*%
%TO.N,+3.3VP*%
X117500000Y-86500000D03*
%TD*%
D17*
%TO.P,J2,4,Pin_4*%
%TO.N,GND*%
X101000000Y-103000000D03*
%TO.P,J2,3,Pin_3*%
%TO.N,TX*%
X101000000Y-101000000D03*
%TO.P,J2,2,Pin_2*%
%TO.N,RX*%
X101000000Y-99000000D03*
D18*
%TO.P,J2,1,Pin_1*%
%TO.N,+5V*%
X101000000Y-97000000D03*
%TD*%
D19*
%TO.P,J7,S1,SHIELD*%
%TO.N,unconnected-(J7-SHIELD-PadS1)_1*%
X75820000Y-117075000D03*
D20*
%TO.N,unconnected-(J7-SHIELD-PadS1)_3*%
X75820000Y-112875000D03*
D19*
%TO.N,unconnected-(J7-SHIELD-PadS1)_2*%
X67180000Y-117075000D03*
D20*
%TO.N,unconnected-(J7-SHIELD-PadS1)*%
X67180000Y-112875000D03*
D21*
%TO.P,J7,B12,GND*%
%TO.N,GND*%
X68300000Y-112275000D03*
%TO.P,J7,B9,VBUS*%
%TO.N,VBUS*%
X69100000Y-112275000D03*
D22*
%TO.P,J7,B8,SBU2*%
%TO.N,unconnected-(J7-SBU2-PadB8)*%
X69750000Y-112275000D03*
%TO.P,J7,B7,D-*%
%TO.N,/D-*%
X70750000Y-112275000D03*
%TO.P,J7,B6,D+*%
%TO.N,/D+*%
X72250000Y-112275000D03*
%TO.P,J7,B5,CC2*%
%TO.N,Net-(J7-CC2)*%
X73250000Y-112275000D03*
D21*
%TO.P,J7,B4,VBUS*%
%TO.N,VBUS*%
X73900000Y-112275000D03*
%TO.P,J7,B1,GND*%
%TO.N,GND*%
X74700000Y-112275000D03*
%TO.P,J7,A12,GND*%
X74700000Y-112275000D03*
%TO.P,J7,A9,VBUS*%
%TO.N,VBUS*%
X73900000Y-112275000D03*
D22*
%TO.P,J7,A8,SBU1*%
%TO.N,unconnected-(J7-SBU1-PadA8)*%
X72750000Y-112275000D03*
%TO.P,J7,A7,D-*%
%TO.N,/D-*%
X71750000Y-112275000D03*
%TO.P,J7,A6,D+*%
%TO.N,/D+*%
X71250000Y-112275000D03*
%TO.P,J7,A5,CC1*%
%TO.N,Net-(J7-CC1)*%
X70250000Y-112275000D03*
D21*
%TO.P,J7,A4,VBUS*%
%TO.N,VBUS*%
X69100000Y-112275000D03*
%TO.P,J7,A1,GND*%
%TO.N,GND*%
X68300000Y-112275000D03*
%TD*%
D23*
%TO.P,R3,1*%
%TO.N,+3.3V*%
X66000000Y-88837500D03*
%TO.P,R3,2*%
%TO.N,Net-(D1-A)*%
X66000000Y-90662500D03*
%TD*%
D24*
%TO.P,U3,1,GND*%
%TO.N,GND*%
X67055000Y-100475000D03*
%TO.P,U3,2,TXD*%
%TO.N,RX*%
X68325000Y-100475000D03*
%TO.P,U3,3,RXD*%
%TO.N,TX*%
X69595000Y-100475000D03*
%TO.P,U3,4,V3*%
%TO.N,+3.3V*%
X70865000Y-100475000D03*
%TO.P,U3,5,UD+*%
%TO.N,/D+*%
X72135000Y-100475000D03*
%TO.P,U3,6,UD-*%
%TO.N,/D-*%
X73405000Y-100475000D03*
%TO.P,U3,7,NC*%
%TO.N,unconnected-(U3-NC-Pad7)*%
X74675000Y-100475000D03*
%TO.P,U3,8,NC*%
%TO.N,unconnected-(U3-NC-Pad8)*%
X75945000Y-100475000D03*
%TO.P,U3,9,~{CTS}*%
%TO.N,unconnected-(U3-~{CTS}-Pad9)*%
X75945000Y-95525000D03*
%TO.P,U3,10,~{DSR}*%
%TO.N,unconnected-(U3-~{DSR}-Pad10)*%
X74675000Y-95525000D03*
%TO.P,U3,11,~{RI}*%
%TO.N,unconnected-(U3-~{RI}-Pad11)*%
X73405000Y-95525000D03*
%TO.P,U3,12,~{DCD}*%
%TO.N,unconnected-(U3-~{DCD}-Pad12)*%
X72135000Y-95525000D03*
%TO.P,U3,13,~{DTR}*%
%TO.N,unconnected-(U3-~{DTR}-Pad13)*%
X70865000Y-95525000D03*
%TO.P,U3,14,~{RTS}*%
%TO.N,unconnected-(U3-~{RTS}-Pad14)*%
X69595000Y-95525000D03*
%TO.P,U3,15,R232*%
%TO.N,unconnected-(U3-R232-Pad15)*%
X68325000Y-95525000D03*
%TO.P,U3,16,VCC*%
%TO.N,+3.3V*%
X67055000Y-95525000D03*
%TD*%
D25*
%TO.P,U2,1,GND*%
%TO.N,GND*%
X88300000Y-103850000D03*
%TO.P,U2,2,VO*%
%TO.N,+3.3V*%
X86000000Y-103850000D03*
D26*
X86000000Y-110150000D03*
D25*
%TO.P,U2,3,VI*%
%TO.N,VBUS*%
X83700000Y-103850000D03*
%TD*%
D27*
%TO.P,U1,1,IO1*%
%TO.N,/D-*%
X70050000Y-107850000D03*
%TO.P,U1,2,VN*%
%TO.N,GND*%
X71000000Y-107850000D03*
%TO.P,U1,3,IO2*%
%TO.N,/D+*%
X71950000Y-107850000D03*
%TO.P,U1,4,IO3*%
%TO.N,unconnected-(U1-IO3-Pad4)*%
X71950000Y-105150000D03*
%TO.P,U1,5,VP*%
%TO.N,VBUS*%
X71000000Y-105150000D03*
%TO.P,U1,6,IO4*%
%TO.N,unconnected-(U1-IO4-Pad6)*%
X70050000Y-105150000D03*
%TD*%
D16*
%TO.P,TP14,1,1*%
%TO.N,+3.3V*%
X96500000Y-87500000D03*
%TD*%
%TO.P,TP13,1,1*%
%TO.N,SWDIO*%
X78500000Y-82500000D03*
%TD*%
%TO.P,TP12,1,1*%
%TO.N,SWCLK*%
X78500000Y-87500000D03*
%TD*%
%TO.P,TP10,1,1*%
%TO.N,GND*%
X92000000Y-82500000D03*
%TD*%
%TO.P,TP9,1,1*%
%TO.N,GND*%
X92000000Y-87500000D03*
%TD*%
%TO.P,TP8,1,1*%
%TO.N,+3.3V*%
X96500000Y-82500000D03*
%TD*%
%TO.P,TP7,1,1*%
%TO.N,SDA*%
X83000000Y-82500000D03*
%TD*%
%TO.P,TP6,1,1*%
%TO.N,SCL*%
X83000000Y-87500000D03*
%TD*%
%TO.P,TP5,1,1*%
%TO.N,TX*%
X87500000Y-82500000D03*
%TD*%
%TO.P,TP4,1,1*%
%TO.N,RX*%
X87500000Y-87500000D03*
%TD*%
%TO.P,TP3,1,1*%
%TO.N,SB_LED*%
X69500000Y-87500000D03*
%TD*%
%TO.P,TP2,1,1*%
%TO.N,BOOT_MODE*%
X74000000Y-87500000D03*
%TD*%
%TO.P,TP1,1,1*%
%TO.N,SYS_WAKE*%
X69500000Y-82500000D03*
%TD*%
D28*
%TO.P,R2,1*%
%TO.N,Net-(J7-CC2)*%
X78000000Y-114912500D03*
%TO.P,R2,2*%
%TO.N,GND*%
X78000000Y-113087500D03*
%TD*%
%TO.P,R1,1*%
%TO.N,Net-(J7-CC1)*%
X65000000Y-114912500D03*
%TO.P,R1,2*%
%TO.N,GND*%
X65000000Y-113087500D03*
%TD*%
D29*
%TO.P,J6,1,Pin_1*%
%TO.N,+5V*%
X115800000Y-94900000D03*
D30*
%TO.P,J6,2,Pin_2*%
%TO.N,RX*%
X113260000Y-94900000D03*
%TO.P,J6,3,Pin_3*%
%TO.N,SCL*%
X115800000Y-97440000D03*
%TO.P,J6,4,Pin_4*%
%TO.N,TX*%
X113260000Y-97440000D03*
%TO.P,J6,5,Pin_5*%
%TO.N,SDA*%
X115800000Y-99980000D03*
%TO.P,J6,6,Pin_6*%
%TO.N,SB_LED*%
X113260000Y-99980000D03*
%TO.P,J6,7,Pin_7*%
%TO.N,RESET*%
X115800000Y-102520000D03*
%TO.P,J6,8,Pin_8*%
%TO.N,SWDIO*%
X113260000Y-102520000D03*
%TO.P,J6,9,Pin_9*%
%TO.N,GND*%
X115800000Y-105060000D03*
%TO.P,J6,10,Pin_10*%
%TO.N,SWCLK*%
X113260000Y-105060000D03*
%TD*%
D31*
%TO.P,J1,1,Pin_1*%
%TO.N,+3.3VADC*%
X54247500Y-88570000D03*
D32*
%TO.P,J1,2,Pin_2*%
%TO.N,unconnected-(J1-Pin_2-Pad2)*%
X56787500Y-88570000D03*
%TO.P,J1,3,Pin_3*%
%TO.N,unconnected-(J1-Pin_3-Pad3)*%
X54247500Y-91110000D03*
%TO.P,J1,4,Pin_4*%
%TO.N,GND*%
X56787500Y-91110000D03*
%TO.P,J1,5,Pin_5*%
%TO.N,unconnected-(J1-Pin_5-Pad5)*%
X54247500Y-93650000D03*
%TO.P,J1,6,Pin_6*%
%TO.N,GND*%
X56787500Y-93650000D03*
%TO.P,J1,7,Pin_7*%
%TO.N,SWDIO*%
X54247500Y-96190000D03*
%TO.P,J1,8,Pin_8*%
%TO.N,GND*%
X56787500Y-96190000D03*
%TO.P,J1,9,Pin_9*%
%TO.N,SWCLK*%
X54247500Y-98730000D03*
%TO.P,J1,10,Pin_10*%
%TO.N,GND*%
X56787500Y-98730000D03*
%TO.P,J1,11,Pin_11*%
%TO.N,unconnected-(J1-Pin_11-Pad11)*%
X54247500Y-101270000D03*
%TO.P,J1,12,Pin_12*%
%TO.N,GND*%
X56787500Y-101270000D03*
%TO.P,J1,13,Pin_13*%
%TO.N,unconnected-(J1-Pin_13-Pad13)*%
X54247500Y-103810000D03*
%TO.P,J1,14,Pin_14*%
%TO.N,GND*%
X56787500Y-103810000D03*
%TO.P,J1,15,Pin_15*%
%TO.N,RESET*%
X54247500Y-106350000D03*
%TO.P,J1,16,Pin_16*%
%TO.N,GND*%
X56787500Y-106350000D03*
%TO.P,J1,17,Pin_17*%
%TO.N,unconnected-(J1-Pin_17-Pad17)*%
X54247500Y-108890000D03*
%TO.P,J1,18,Pin_18*%
%TO.N,GND*%
X56787500Y-108890000D03*
%TO.P,J1,19,Pin_19*%
%TO.N,unconnected-(J1-Pin_19-Pad19)*%
X54247500Y-111430000D03*
%TO.P,J1,20,Pin_20*%
%TO.N,GND*%
X56787500Y-111430000D03*
%TD*%
D33*
%TO.P,C5,1*%
%TO.N,+3.3V*%
X65000000Y-97137500D03*
%TO.P,C5,2*%
%TO.N,GND*%
X65000000Y-98862500D03*
%TD*%
%TO.P,C4,1*%
%TO.N,+3.3V*%
X93000000Y-106137500D03*
%TO.P,C4,2*%
%TO.N,GND*%
X93000000Y-107862500D03*
%TD*%
%TO.P,C3,1*%
%TO.N,+3.3V*%
X91000000Y-106137500D03*
%TO.P,C3,2*%
%TO.N,GND*%
X91000000Y-107862500D03*
%TD*%
%TO.P,C2,1*%
%TO.N,VBUS*%
X79000000Y-106137500D03*
%TO.P,C2,2*%
%TO.N,GND*%
X79000000Y-107862500D03*
%TD*%
%TO.P,C1,1*%
%TO.N,VBUS*%
X81000000Y-106137500D03*
%TO.P,C1,2*%
%TO.N,GND*%
X81000000Y-107862500D03*
%TD*%
D34*
%TO.N,/D-*%
X72500000Y-115500000D03*
X70000000Y-115500000D03*
%TO.N,GND*%
X80000000Y-90500000D03*
X104500000Y-98000000D03*
X110000000Y-90000000D03*
X51500000Y-110000000D03*
X51500000Y-90000000D03*
X62500000Y-86500000D03*
X61500000Y-103000000D03*
X63000000Y-110500000D03*
X94000000Y-118000000D03*
X121000000Y-102000000D03*
X118000000Y-89500000D03*
X111500000Y-82000000D03*
X116500000Y-81500000D03*
X101000000Y-87500000D03*
X107500000Y-87500000D03*
X107000000Y-105000000D03*
X115500000Y-110000000D03*
X105500000Y-100000000D03*
X98000000Y-96500000D03*
%TO.N,SB_LED*%
X118500000Y-95000000D03*
%TO.N,GND*%
X100000000Y-109000000D03*
X96000000Y-104000000D03*
X91000000Y-97000000D03*
X93000000Y-99500000D03*
X84000000Y-106500000D03*
X91000000Y-103000000D03*
X109000000Y-103000000D03*
X115500000Y-92500000D03*
X101000000Y-82000000D03*
X99000000Y-93500000D03*
X94500000Y-93500000D03*
D35*
%TO.N,+3.3V*%
X96500000Y-96000000D03*
D34*
%TO.N,RESET*%
X113000000Y-83500000D03*
X108000000Y-83500000D03*
%TO.N,TX*%
X70000000Y-102500000D03*
%TO.N,RX*%
X68075000Y-102500000D03*
%TO.N,TX*%
X85530331Y-88530331D03*
D35*
%TO.N,+3.3VP*%
X98500000Y-95000000D03*
D34*
%TO.N,GND*%
X64500000Y-100000000D03*
X67000000Y-102000000D03*
X75500000Y-106500000D03*
X62500000Y-117500000D03*
X61500000Y-99000000D03*
X62500000Y-95500000D03*
X63500000Y-90500000D03*
X65000000Y-82500000D03*
X74000000Y-85000000D03*
X76500000Y-91000000D03*
X78500000Y-93000000D03*
X86000000Y-113500000D03*
X78000000Y-103500000D03*
X89500000Y-102500000D03*
X87000000Y-102500000D03*
X82000000Y-108500000D03*
X78000000Y-108500000D03*
X94000000Y-108500000D03*
X90000000Y-108500000D03*
X92000000Y-109000000D03*
X80000000Y-109000000D03*
X78000000Y-111500000D03*
X65000000Y-111500000D03*
X71500000Y-117500000D03*
X75500000Y-111000000D03*
X67500000Y-111000000D03*
X71000000Y-106500000D03*
D35*
%TO.N,+3.3VADC*%
X65000000Y-94000000D03*
%TO.N,+3.3V*%
X65500000Y-96000000D03*
X66000000Y-87500000D03*
%TO.N,VBUS*%
X75000000Y-110000000D03*
X68000000Y-110000000D03*
%TD*%
D36*
%TO.N,/D+*%
X71250000Y-112275000D02*
X71250000Y-115750000D01*
X71250000Y-115750000D02*
X72000000Y-116500000D01*
X72000000Y-116500000D02*
X73000000Y-116500000D01*
X73000000Y-116500000D02*
X73500000Y-116000000D01*
X73500000Y-116000000D02*
X73500000Y-115500000D01*
X73500000Y-115500000D02*
X72250000Y-114250000D01*
X72250000Y-114250000D02*
X72250000Y-112275000D01*
%TO.N,/D-*%
X70750000Y-112275000D02*
X70750000Y-114750000D01*
X70750000Y-114750000D02*
X70000000Y-115500000D01*
X72500000Y-115500000D02*
X71750000Y-114750000D01*
X71750000Y-114750000D02*
X71750000Y-112275000D01*
D37*
%TO.N,GND*%
X71000000Y-106500000D02*
X71000000Y-107850000D01*
%TO.N,TX*%
X85530331Y-88530331D02*
X85500000Y-88500000D01*
X85500000Y-88500000D02*
X85500000Y-84500000D01*
X85500000Y-84500000D02*
X87500000Y-82500000D01*
%TO.N,GND*%
X74700000Y-112275000D02*
X74700000Y-111800000D01*
X74700000Y-111800000D02*
X75500000Y-111000000D01*
X68300000Y-112275000D02*
X68300000Y-111800000D01*
X68300000Y-111800000D02*
X67500000Y-111000000D01*
%TO.N,SCL*%
X83000000Y-87500000D02*
X85000000Y-89500000D01*
X85000000Y-89500000D02*
X105500000Y-89500000D01*
X105500000Y-89500000D02*
X112151000Y-96151000D01*
X112151000Y-96151000D02*
X114511000Y-96151000D01*
X114511000Y-96151000D02*
X115800000Y-97440000D01*
%TO.N,SWCLK*%
X78500000Y-90500000D02*
X80500000Y-92500000D01*
X80500000Y-92500000D02*
X102500000Y-92500000D01*
X102500000Y-92500000D02*
X107500000Y-97500000D01*
X107500000Y-97500000D02*
X107500000Y-103000000D01*
X107500000Y-103000000D02*
X109560000Y-105060000D01*
X109560000Y-105060000D02*
X113260000Y-105060000D01*
%TO.N,SB_LED*%
X111500000Y-86500000D02*
X118500000Y-93500000D01*
X118500000Y-93500000D02*
X118500000Y-95000000D01*
D38*
%TO.N,+5V*%
X65000000Y-104500000D02*
X63000000Y-104500000D01*
X63000000Y-104500000D02*
X61500000Y-106000000D01*
X61500000Y-106000000D02*
X61500000Y-114500000D01*
X99500000Y-97000000D02*
X101000000Y-97000000D01*
X61500000Y-114500000D02*
X66000000Y-119000000D01*
X66000000Y-119000000D02*
X89000000Y-119000000D01*
X89000000Y-119000000D02*
X98000000Y-110000000D01*
X98000000Y-110000000D02*
X98000000Y-98500000D01*
X98000000Y-98500000D02*
X99500000Y-97000000D01*
D37*
%TO.N,GND*%
X88300000Y-103850000D02*
X88300000Y-103700000D01*
X88300000Y-103700000D02*
X89500000Y-102500000D01*
X87000000Y-102500000D02*
X87000000Y-102550000D01*
X87000000Y-102550000D02*
X88300000Y-103850000D01*
D38*
%TO.N,+3.3V*%
X96500000Y-96000000D02*
X96500000Y-99500000D01*
X96500000Y-99500000D02*
X93000000Y-103000000D01*
D37*
%TO.N,RESET*%
X113000000Y-83500000D02*
X108000000Y-83500000D01*
%TO.N,RX*%
X68075000Y-102500000D02*
X68325000Y-102250000D01*
X68325000Y-102250000D02*
X68325000Y-100475000D01*
%TO.N,TX*%
X70000000Y-102500000D02*
X69595000Y-102095000D01*
X69595000Y-102095000D02*
X69595000Y-100475000D01*
D38*
%TO.N,VBUS*%
X68000000Y-110000000D02*
X68000000Y-104500000D01*
X70379999Y-103750000D02*
X71000000Y-104370001D01*
X68000000Y-104500000D02*
X68750000Y-103750000D01*
X68750000Y-103750000D02*
X70379999Y-103750000D01*
X71000000Y-104370001D02*
X71000000Y-105150000D01*
%TO.N,+3.3VP*%
X88000000Y-95000000D02*
X98500000Y-95000000D01*
%TO.N,+3.3VADC*%
X79319810Y-97000000D02*
X80500000Y-97000000D01*
X65000000Y-94000000D02*
X76319810Y-94000000D01*
X76319810Y-94000000D02*
X79319810Y-97000000D01*
%TO.N,Net-(D4-K)*%
X80500000Y-98300000D02*
X83300000Y-98300000D01*
X83300000Y-98300000D02*
X84000000Y-99000000D01*
%TO.N,Net-(D3-K)*%
X80500000Y-95700000D02*
X83300000Y-95700000D01*
X83300000Y-95700000D02*
X84000000Y-95000000D01*
%TO.N,+3.3V*%
X91500000Y-101500000D02*
X88000000Y-101500000D01*
X88000000Y-99000000D02*
X88000000Y-101500000D01*
X93000000Y-106137500D02*
X93000000Y-103000000D01*
X76500000Y-98000000D02*
X71730000Y-98000000D01*
X93000000Y-103000000D02*
X91500000Y-101500000D01*
X88000000Y-101500000D02*
X80000000Y-101500000D01*
X71730000Y-98000000D02*
X70865000Y-98865000D01*
X80000000Y-101500000D02*
X76500000Y-98000000D01*
X86000000Y-110150000D02*
X86000000Y-106000000D01*
X91000000Y-106137500D02*
X86137500Y-106137500D01*
X86137500Y-106137500D02*
X86000000Y-106000000D01*
X93000000Y-106137500D02*
X91000000Y-106137500D01*
%TO.N,VBUS*%
X81000000Y-106137500D02*
X81412500Y-106137500D01*
X81412500Y-106137500D02*
X83700000Y-103850000D01*
X78862500Y-106137500D02*
X81000000Y-106137500D01*
X78500000Y-106500000D02*
X78862500Y-106137500D01*
X75000000Y-110000000D02*
X78500000Y-106500000D01*
X78862500Y-106137500D02*
X79000000Y-106137500D01*
%TO.N,+3.3V*%
X86000000Y-106000000D02*
X86000000Y-103850000D01*
X65000000Y-96500000D02*
X65500000Y-96000000D01*
%TO.N,VBUS*%
X68000000Y-110000000D02*
X66500000Y-110000000D01*
X66500000Y-110000000D02*
X65000000Y-108500000D01*
D37*
%TO.N,SB_LED*%
X68875000Y-90000000D02*
X69500000Y-89375000D01*
X69500000Y-89375000D02*
X69500000Y-87500000D01*
%TO.N,Net-(D1-A)*%
X70625000Y-90000000D02*
X69375000Y-91250000D01*
X69375000Y-91250000D02*
X66587500Y-91250000D01*
X66587500Y-91250000D02*
X66000000Y-90662500D01*
%TO.N,SDA*%
X115800000Y-99980000D02*
X127980000Y-99980000D01*
X127980000Y-99980000D02*
X128000000Y-100000000D01*
%TO.N,SCL*%
X128000000Y-98000000D02*
X116360000Y-98000000D01*
X116360000Y-98000000D02*
X115800000Y-97440000D01*
D38*
%TO.N,+3.3V*%
X96500000Y-82500000D02*
X96500000Y-87500000D01*
%TO.N,VBUS*%
X75000000Y-110000000D02*
X73900000Y-111100000D01*
X73900000Y-111100000D02*
X73900000Y-112275000D01*
X69100000Y-112275000D02*
X69100000Y-111100000D01*
X69100000Y-111100000D02*
X68000000Y-110000000D01*
%TO.N,+3.3V*%
X65000000Y-97137500D02*
X65862500Y-98000000D01*
X70865000Y-98865000D02*
X70865000Y-100475000D01*
X65862500Y-98000000D02*
X70000000Y-98000000D01*
X70000000Y-98000000D02*
X70865000Y-98865000D01*
X65000000Y-97137500D02*
X65000000Y-96500000D01*
X65500000Y-96000000D02*
X65975000Y-95525000D01*
X65975000Y-95525000D02*
X67055000Y-95525000D01*
X66000000Y-87500000D02*
X66000000Y-88837500D01*
D39*
%TO.N,Net-(J7-CC2)*%
X73250000Y-112275000D02*
X73250000Y-114000000D01*
X73250000Y-114000000D02*
X74162500Y-114912500D01*
X74162500Y-114912500D02*
X78000000Y-114912500D01*
%TO.N,Net-(J7-CC1)*%
X70250000Y-112275000D02*
X70250000Y-114000000D01*
X70250000Y-114000000D02*
X69337500Y-114912500D01*
X69337500Y-114912500D02*
X65000000Y-114912500D01*
D36*
%TO.N,/D-*%
X72995000Y-102347501D02*
X72995000Y-102864183D01*
X71725000Y-110943198D02*
X71725000Y-111319999D01*
X73975000Y-103844183D02*
X73975000Y-108693198D01*
%TO.N,/D+*%
X71275000Y-110756802D02*
X71275000Y-111319999D01*
X72135000Y-100475000D02*
X72135000Y-101937501D01*
X73525000Y-104030579D02*
X73525000Y-108506802D01*
%TO.N,/D-*%
X73405000Y-101937501D02*
X72995000Y-102347501D01*
%TO.N,/D+*%
X72545000Y-103050579D02*
X73525000Y-104030579D01*
X72545000Y-102347501D02*
X72545000Y-103050579D01*
%TO.N,/D-*%
X73405000Y-100475000D02*
X73405000Y-101937501D01*
X71750000Y-111344999D02*
X71750000Y-112275000D01*
%TO.N,/D+*%
X71275000Y-111319999D02*
X71250000Y-111344999D01*
X72135000Y-101937501D02*
X72545000Y-102347501D01*
%TO.N,/D-*%
X72995000Y-102864183D02*
X73975000Y-103844183D01*
%TO.N,/D+*%
X73525000Y-108506802D02*
X71275000Y-110756802D01*
%TO.N,/D-*%
X73975000Y-108693198D02*
X71725000Y-110943198D01*
X71725000Y-111319999D02*
X71750000Y-111344999D01*
%TO.N,/D+*%
X71950000Y-107850000D02*
X71950000Y-109020001D01*
X71950000Y-109020001D02*
X71225000Y-109745001D01*
X71225000Y-109745001D02*
X71225000Y-111319999D01*
%TO.N,/D-*%
X70050000Y-109020001D02*
X70775000Y-109745001D01*
%TO.N,/D+*%
X71225000Y-111319999D02*
X71250000Y-111344999D01*
X71250000Y-111344999D02*
X71250000Y-112275000D01*
%TO.N,/D-*%
X70050000Y-107850000D02*
X70050000Y-109020001D01*
X70775000Y-109745001D02*
X70775000Y-111319999D01*
X70750000Y-111344999D02*
X70750000Y-112275000D01*
X70775000Y-111319999D02*
X70750000Y-111344999D01*
D37*
%TO.N,SWDIO*%
X78500000Y-84500000D02*
X77500000Y-85500000D01*
X77500000Y-85500000D02*
X77000000Y-85500000D01*
X77000000Y-85500000D02*
X76500000Y-86000000D01*
X76500000Y-86000000D02*
X76500000Y-89000000D01*
X62000000Y-92000000D02*
X59061000Y-94939000D01*
X76500000Y-89000000D02*
X73500000Y-92000000D01*
X73500000Y-92000000D02*
X62000000Y-92000000D01*
X59061000Y-94939000D02*
X55498500Y-94939000D01*
X55498500Y-94939000D02*
X54247500Y-96190000D01*
%TO.N,SWCLK*%
X54247500Y-98730000D02*
X55536500Y-97441000D01*
X76000000Y-93000000D02*
X78500000Y-90500000D01*
X55536500Y-97441000D02*
X58559000Y-97441000D01*
X58559000Y-97441000D02*
X63000000Y-93000000D01*
X63000000Y-93000000D02*
X76000000Y-93000000D01*
%TO.N,SYS_WAKE*%
X69500000Y-82500000D02*
X71299000Y-80701000D01*
X71299000Y-80701000D02*
X112201000Y-80701000D01*
X112201000Y-80701000D02*
X115500000Y-84000000D01*
X115500000Y-84000000D02*
X115500000Y-86500000D01*
%TO.N,RESET*%
X54247500Y-106350000D02*
X52000000Y-104102500D01*
X52000000Y-104102500D02*
X52000000Y-93861000D01*
X53500000Y-92361000D02*
X59639000Y-92361000D01*
X52000000Y-93861000D02*
X53500000Y-92361000D01*
X59639000Y-92361000D02*
X67000000Y-85000000D01*
X67000000Y-85000000D02*
X71500000Y-85000000D01*
X71500000Y-85000000D02*
X74000000Y-82500000D01*
%TO.N,SWDIO*%
X78500000Y-84500000D02*
X78500000Y-82500000D01*
X112500000Y-113500000D02*
X114000000Y-115000000D01*
X114000000Y-115000000D02*
X117152000Y-115000000D01*
X117152000Y-115000000D02*
X119000000Y-113152000D01*
X119000000Y-103950818D02*
X116318182Y-101269000D01*
X119000000Y-113152000D02*
X119000000Y-103950818D01*
X114511000Y-101269000D02*
X113260000Y-102520000D01*
X116318182Y-101269000D02*
X114511000Y-101269000D01*
%TO.N,SWCLK*%
X114500000Y-113500000D02*
X113260000Y-112260000D01*
X113260000Y-112260000D02*
X113260000Y-105060000D01*
X78500000Y-90500000D02*
X78500000Y-87500000D01*
%TO.N,SWDIO*%
X109000000Y-101000000D02*
X110500000Y-102500000D01*
X109000000Y-97000000D02*
X109000000Y-101000000D01*
X103500000Y-91500000D02*
X109000000Y-97000000D01*
X110500000Y-102520000D02*
X113260000Y-102520000D01*
X82500000Y-91500000D02*
X103500000Y-91500000D01*
X110500000Y-102500000D02*
X110500000Y-102520000D01*
X80500000Y-86000000D02*
X80500000Y-89500000D01*
X80500000Y-89500000D02*
X82500000Y-91500000D01*
X80000000Y-85500000D02*
X80500000Y-86000000D01*
X79500000Y-85500000D02*
X80000000Y-85500000D01*
X78500000Y-84500000D02*
X79500000Y-85500000D01*
%TO.N,SDA*%
X83000000Y-82500000D02*
X81500000Y-84000000D01*
X104500000Y-90500000D02*
X110500000Y-96500000D01*
X81500000Y-84000000D02*
X81500000Y-89000000D01*
X83000000Y-90500000D02*
X104500000Y-90500000D01*
X81500000Y-89000000D02*
X83000000Y-90500000D01*
X110500000Y-97000000D02*
X112191000Y-98691000D01*
X110500000Y-96500000D02*
X110500000Y-97000000D01*
X112191000Y-98691000D02*
X114511000Y-98691000D01*
X114511000Y-98691000D02*
X115800000Y-99980000D01*
%TD*%
%TA.AperFunction,Conductor*%
%TO.N,GND*%
G36*
X70276520Y-80520185D02*
G01*
X70322275Y-80572989D01*
X70332219Y-80642147D01*
X70303194Y-80705703D01*
X70297180Y-80712162D01*
X70020504Y-80988838D01*
X69996823Y-81012519D01*
X69935500Y-81046003D01*
X69870824Y-81042768D01*
X69851370Y-81036447D01*
X69618097Y-80999500D01*
X69618092Y-80999500D01*
X69381908Y-80999500D01*
X69381903Y-80999500D01*
X69148631Y-81036446D01*
X68924003Y-81109433D01*
X68713566Y-81216657D01*
X68630965Y-81276671D01*
X68522490Y-81355483D01*
X68522488Y-81355485D01*
X68522487Y-81355485D01*
X68355485Y-81522487D01*
X68355485Y-81522488D01*
X68355483Y-81522490D01*
X68300341Y-81598386D01*
X68216657Y-81713566D01*
X68109433Y-81924003D01*
X68036446Y-82148631D01*
X67999500Y-82381902D01*
X67999500Y-82618097D01*
X68036446Y-82851368D01*
X68109433Y-83075996D01*
X68203534Y-83260678D01*
X68216657Y-83286433D01*
X68355483Y-83477510D01*
X68522490Y-83644517D01*
X68713567Y-83783343D01*
X68799500Y-83827128D01*
X68924003Y-83890566D01*
X68924005Y-83890566D01*
X68924008Y-83890568D01*
X68962624Y-83903115D01*
X69148631Y-83963553D01*
X69381903Y-84000500D01*
X69381908Y-84000500D01*
X69618097Y-84000500D01*
X69851368Y-83963553D01*
X69880784Y-83953995D01*
X70075992Y-83890568D01*
X70286433Y-83783343D01*
X70477510Y-83644517D01*
X70644517Y-83477510D01*
X70783343Y-83286433D01*
X70890568Y-83075992D01*
X70963553Y-82851368D01*
X70980194Y-82746300D01*
X71000500Y-82618097D01*
X71000500Y-82381902D01*
X70963553Y-82148635D01*
X70963553Y-82148632D01*
X70957230Y-82129175D01*
X70955234Y-82059335D01*
X70987478Y-82003177D01*
X71552838Y-81437819D01*
X71614161Y-81404334D01*
X71640519Y-81401500D01*
X72700024Y-81401500D01*
X72767063Y-81421185D01*
X72812818Y-81473989D01*
X72822762Y-81543147D01*
X72800343Y-81598383D01*
X72755374Y-81660277D01*
X72716657Y-81713566D01*
X72609433Y-81924003D01*
X72536446Y-82148631D01*
X72499500Y-82381902D01*
X72499500Y-82618097D01*
X72536447Y-82851369D01*
X72536447Y-82851372D01*
X72542768Y-82870824D01*
X72544763Y-82940665D01*
X72512518Y-82996823D01*
X71246162Y-84263181D01*
X71184839Y-84296666D01*
X71158481Y-84299500D01*
X66931004Y-84299500D01*
X66795677Y-84326418D01*
X66795667Y-84326421D01*
X66668192Y-84379222D01*
X66553454Y-84455887D01*
X66553453Y-84455888D01*
X59385162Y-91624181D01*
X59323839Y-91657666D01*
X59297481Y-91660500D01*
X58198777Y-91660500D01*
X58131738Y-91640815D01*
X58085983Y-91588011D01*
X58076039Y-91518853D01*
X58080846Y-91498182D01*
X58104257Y-91426130D01*
X58104257Y-91426127D01*
X58137500Y-91216246D01*
X58137500Y-91003753D01*
X58104257Y-90793872D01*
X58104257Y-90793869D01*
X58038595Y-90591782D01*
X57942124Y-90402449D01*
X57902770Y-90348282D01*
X57902769Y-90348282D01*
X57270462Y-90980589D01*
X57253425Y-90917007D01*
X57187599Y-90802993D01*
X57094507Y-90709901D01*
X56980493Y-90644075D01*
X56916909Y-90627037D01*
X57549216Y-89994728D01*
X57495047Y-89955373D01*
X57495047Y-89955372D01*
X57486000Y-89950763D01*
X57435206Y-89902788D01*
X57418412Y-89834966D01*
X57440951Y-89768832D01*
X57486008Y-89729793D01*
X57495316Y-89725051D01*
X57614228Y-89638657D01*
X57667286Y-89600109D01*
X57667288Y-89600106D01*
X57667292Y-89600104D01*
X57817604Y-89449792D01*
X57817606Y-89449788D01*
X57817609Y-89449786D01*
X57942548Y-89277820D01*
X57942547Y-89277820D01*
X57942551Y-89277816D01*
X58039057Y-89088412D01*
X58104746Y-88886243D01*
X58138000Y-88676287D01*
X58138000Y-88463713D01*
X58104746Y-88253757D01*
X58039057Y-88051588D01*
X57942551Y-87862184D01*
X57942549Y-87862181D01*
X57942548Y-87862179D01*
X57817609Y-87690213D01*
X57667286Y-87539890D01*
X57495320Y-87414951D01*
X57305914Y-87318444D01*
X57305913Y-87318443D01*
X57305912Y-87318443D01*
X57103743Y-87252754D01*
X57103741Y-87252753D01*
X57103740Y-87252753D01*
X56915026Y-87222864D01*
X56893787Y-87219500D01*
X56681213Y-87219500D01*
X56659974Y-87222864D01*
X56471260Y-87252753D01*
X56269085Y-87318444D01*
X56079679Y-87414951D01*
X55907713Y-87539890D01*
X55757394Y-87690209D01*
X55757385Y-87690219D01*
X55753830Y-87695113D01*
X55698497Y-87737775D01*
X55628883Y-87743748D01*
X55567091Y-87711137D01*
X55535812Y-87661223D01*
X55532315Y-87650670D01*
X55532314Y-87650666D01*
X55440212Y-87501344D01*
X55316156Y-87377288D01*
X55166834Y-87285186D01*
X55000297Y-87230001D01*
X55000295Y-87230000D01*
X54897510Y-87219500D01*
X53597498Y-87219500D01*
X53597481Y-87219501D01*
X53494703Y-87230000D01*
X53494700Y-87230001D01*
X53328168Y-87285185D01*
X53328163Y-87285187D01*
X53178842Y-87377289D01*
X53054789Y-87501342D01*
X52962687Y-87650663D01*
X52962685Y-87650668D01*
X52955365Y-87672759D01*
X52907501Y-87817203D01*
X52907501Y-87817204D01*
X52907500Y-87817204D01*
X52897000Y-87919983D01*
X52897000Y-89220001D01*
X52897001Y-89220018D01*
X52907500Y-89322796D01*
X52907501Y-89322799D01*
X52949150Y-89448486D01*
X52962686Y-89489334D01*
X53054788Y-89638656D01*
X53178844Y-89762712D01*
X53328166Y-89854814D01*
X53338723Y-89858312D01*
X53396168Y-89898084D01*
X53422992Y-89962600D01*
X53410677Y-90031376D01*
X53372613Y-90076330D01*
X53367719Y-90079885D01*
X53367709Y-90079894D01*
X53217390Y-90230213D01*
X53092451Y-90402179D01*
X52995944Y-90591585D01*
X52930253Y-90793760D01*
X52911699Y-90910906D01*
X52897000Y-91003713D01*
X52897000Y-91216287D01*
X52904427Y-91263181D01*
X52930235Y-91426127D01*
X52930254Y-91426243D01*
X52994568Y-91624181D01*
X52995945Y-91628417D01*
X53038073Y-91711099D01*
X53050969Y-91779768D01*
X53024692Y-91844508D01*
X53015269Y-91855074D01*
X51455888Y-93414453D01*
X51455887Y-93414454D01*
X51379223Y-93529192D01*
X51326421Y-93656668D01*
X51326418Y-93656680D01*
X51316940Y-93704329D01*
X51316940Y-93704330D01*
X51299500Y-93792004D01*
X51299500Y-93792007D01*
X51299500Y-104033506D01*
X51299500Y-104171494D01*
X51299500Y-104171496D01*
X51299499Y-104171496D01*
X51326418Y-104306822D01*
X51326421Y-104306832D01*
X51379222Y-104434307D01*
X51455887Y-104549045D01*
X51455888Y-104549046D01*
X52886992Y-105980149D01*
X52920477Y-106041472D01*
X52921784Y-106087227D01*
X52901309Y-106216508D01*
X52897000Y-106243713D01*
X52897000Y-106456287D01*
X52906398Y-106515623D01*
X52930235Y-106666127D01*
X52930254Y-106666243D01*
X52980411Y-106820611D01*
X52995944Y-106868414D01*
X53092451Y-107057820D01*
X53217390Y-107229786D01*
X53367713Y-107380109D01*
X53539682Y-107505050D01*
X53548446Y-107509516D01*
X53599242Y-107557491D01*
X53616036Y-107625312D01*
X53593498Y-107691447D01*
X53548446Y-107730484D01*
X53539682Y-107734949D01*
X53367713Y-107859890D01*
X53217390Y-108010213D01*
X53092451Y-108182179D01*
X52995944Y-108371585D01*
X52995943Y-108371587D01*
X52995943Y-108371588D01*
X52963276Y-108472125D01*
X52930253Y-108573760D01*
X52897000Y-108783713D01*
X52897000Y-108996286D01*
X52930235Y-109206127D01*
X52930254Y-109206243D01*
X52949177Y-109264483D01*
X52995944Y-109408414D01*
X53092451Y-109597820D01*
X53217390Y-109769786D01*
X53367713Y-109920109D01*
X53539682Y-110045050D01*
X53548446Y-110049516D01*
X53599242Y-110097491D01*
X53616036Y-110165312D01*
X53593498Y-110231447D01*
X53548446Y-110270484D01*
X53539682Y-110274949D01*
X53367713Y-110399890D01*
X53217390Y-110550213D01*
X53092451Y-110722179D01*
X52995944Y-110911585D01*
X52930253Y-111113760D01*
X52914749Y-111211649D01*
X52897000Y-111323713D01*
X52897000Y-111536287D01*
X52904543Y-111583909D01*
X52930235Y-111746127D01*
X52930254Y-111746243D01*
X52964317Y-111851079D01*
X52995944Y-111948414D01*
X53092451Y-112137820D01*
X53217390Y-112309786D01*
X53367713Y-112460109D01*
X53539679Y-112585048D01*
X53539681Y-112585049D01*
X53539684Y-112585051D01*
X53729088Y-112681557D01*
X53931257Y-112747246D01*
X54141213Y-112780500D01*
X54141214Y-112780500D01*
X54353786Y-112780500D01*
X54353787Y-112780500D01*
X54563743Y-112747246D01*
X54765912Y-112681557D01*
X54955316Y-112585051D01*
X55010072Y-112545269D01*
X55127286Y-112460109D01*
X55127288Y-112460106D01*
X55127292Y-112460104D01*
X55277604Y-112309792D01*
X55277606Y-112309788D01*
X55277609Y-112309786D01*
X55363390Y-112191717D01*
X55402551Y-112137816D01*
X55407293Y-112128508D01*
X55455263Y-112077711D01*
X55523083Y-112060911D01*
X55589219Y-112083445D01*
X55628263Y-112128500D01*
X55632873Y-112137547D01*
X55672228Y-112191716D01*
X56304537Y-111559408D01*
X56321575Y-111622993D01*
X56387401Y-111737007D01*
X56480493Y-111830099D01*
X56594507Y-111895925D01*
X56658090Y-111912962D01*
X56025782Y-112545269D01*
X56025782Y-112545270D01*
X56079949Y-112584624D01*
X56269282Y-112681095D01*
X56471370Y-112746757D01*
X56681254Y-112780000D01*
X56893746Y-112780000D01*
X57103627Y-112746757D01*
X57103630Y-112746757D01*
X57305717Y-112681095D01*
X57495054Y-112584622D01*
X57549216Y-112545270D01*
X57549217Y-112545270D01*
X56916908Y-111912962D01*
X56980493Y-111895925D01*
X57094507Y-111830099D01*
X57187599Y-111737007D01*
X57253425Y-111622993D01*
X57270462Y-111559408D01*
X57902770Y-112191717D01*
X57902770Y-112191716D01*
X57942122Y-112137554D01*
X58038595Y-111948217D01*
X58104257Y-111746130D01*
X58104257Y-111746127D01*
X58137500Y-111536246D01*
X58137500Y-111323753D01*
X58104257Y-111113872D01*
X58104257Y-111113869D01*
X58038595Y-110911782D01*
X57942124Y-110722449D01*
X57902770Y-110668282D01*
X57902769Y-110668282D01*
X57270462Y-111300590D01*
X57253425Y-111237007D01*
X57187599Y-111122993D01*
X57094507Y-111029901D01*
X56980493Y-110964075D01*
X56916909Y-110947037D01*
X57549216Y-110314728D01*
X57495050Y-110275375D01*
X57485454Y-110270486D01*
X57434657Y-110222512D01*
X57417861Y-110154692D01*
X57440397Y-110088556D01*
X57485454Y-110049514D01*
X57495054Y-110044622D01*
X57549216Y-110005270D01*
X57549217Y-110005270D01*
X56916908Y-109372962D01*
X56980493Y-109355925D01*
X57094507Y-109290099D01*
X57187599Y-109197007D01*
X57253425Y-109082993D01*
X57270462Y-109019408D01*
X57902770Y-109651717D01*
X57902770Y-109651716D01*
X57942122Y-109597554D01*
X58038595Y-109408217D01*
X58104257Y-109206130D01*
X58104257Y-109206127D01*
X58137500Y-108996246D01*
X58137500Y-108783753D01*
X58104257Y-108573872D01*
X58104257Y-108573869D01*
X58038595Y-108371782D01*
X57942124Y-108182449D01*
X57902770Y-108128282D01*
X57902769Y-108128282D01*
X57270462Y-108760590D01*
X57253425Y-108697007D01*
X57187599Y-108582993D01*
X57094507Y-108489901D01*
X56980493Y-108424075D01*
X56916909Y-108407037D01*
X57549216Y-107774728D01*
X57495050Y-107735375D01*
X57485454Y-107730486D01*
X57434657Y-107682512D01*
X57417861Y-107614692D01*
X57440397Y-107548556D01*
X57485454Y-107509514D01*
X57495054Y-107504622D01*
X57549216Y-107465270D01*
X57549217Y-107465270D01*
X56916908Y-106832962D01*
X56980493Y-106815925D01*
X57094507Y-106750099D01*
X57187599Y-106657007D01*
X57253425Y-106542993D01*
X57270462Y-106479408D01*
X57902770Y-107111717D01*
X57902770Y-107111716D01*
X57942122Y-107057554D01*
X58038595Y-106868217D01*
X58104257Y-106666130D01*
X58104257Y-106666127D01*
X58137500Y-106456246D01*
X58137500Y-106243753D01*
X58104257Y-106033872D01*
X58104257Y-106033869D01*
X58038595Y-105831782D01*
X57942124Y-105642449D01*
X57902770Y-105588282D01*
X57902769Y-105588282D01*
X57270462Y-106220590D01*
X57253425Y-106157007D01*
X57187599Y-106042993D01*
X57094507Y-105949901D01*
X56980493Y-105884075D01*
X56916909Y-105867037D01*
X57549216Y-105234728D01*
X57495050Y-105195375D01*
X57485454Y-105190486D01*
X57434657Y-105142512D01*
X57417861Y-105074692D01*
X57440397Y-105008556D01*
X57485454Y-104969514D01*
X57495054Y-104964622D01*
X57549216Y-104925270D01*
X57549217Y-104925270D01*
X56916908Y-104292962D01*
X56980493Y-104275925D01*
X57094507Y-104210099D01*
X57187599Y-104117007D01*
X57253425Y-104002993D01*
X57270462Y-103939408D01*
X57902770Y-104571717D01*
X57902770Y-104571716D01*
X57942122Y-104517554D01*
X58038595Y-104328217D01*
X58104257Y-104126130D01*
X58104257Y-104126127D01*
X58137500Y-103916246D01*
X58137500Y-103703753D01*
X58104257Y-103493872D01*
X58104257Y-103493869D01*
X58038595Y-103291782D01*
X57942124Y-103102449D01*
X57902770Y-103048282D01*
X57902769Y-103048282D01*
X57270462Y-103680590D01*
X57253425Y-103617007D01*
X57187599Y-103502993D01*
X57094507Y-103409901D01*
X56980493Y-103344075D01*
X56916909Y-103327037D01*
X57549216Y-102694728D01*
X57495050Y-102655375D01*
X57485454Y-102650486D01*
X57434657Y-102602512D01*
X57417861Y-102534692D01*
X57440397Y-102468556D01*
X57485454Y-102429514D01*
X57495054Y-102424622D01*
X57549216Y-102385270D01*
X57549217Y-102385270D01*
X56916908Y-101752962D01*
X56980493Y-101735925D01*
X57094507Y-101670099D01*
X57187599Y-101577007D01*
X57253425Y-101462993D01*
X57270462Y-101399408D01*
X57902770Y-102031717D01*
X57902770Y-102031716D01*
X57942122Y-101977554D01*
X58038595Y-101788217D01*
X58104257Y-101586130D01*
X58104257Y-101586127D01*
X58137500Y-101376246D01*
X58137500Y-101365649D01*
X66255000Y-101365649D01*
X66257899Y-101402489D01*
X66257900Y-101402495D01*
X66303716Y-101560193D01*
X66303717Y-101560196D01*
X66387314Y-101701552D01*
X66387321Y-101701561D01*
X66503438Y-101817678D01*
X66503447Y-101817685D01*
X66644801Y-101901281D01*
X66802514Y-101947100D01*
X66802511Y-101947100D01*
X66804998Y-101947295D01*
X66805000Y-101947295D01*
X66805000Y-100725000D01*
X66255000Y-100725000D01*
X66255000Y-101365649D01*
X58137500Y-101365649D01*
X58137500Y-101163753D01*
X58104257Y-100953872D01*
X58104257Y-100953869D01*
X58038595Y-100751783D01*
X58027463Y-100729935D01*
X58027462Y-100729933D01*
X57942124Y-100562449D01*
X57902770Y-100508282D01*
X57902769Y-100508282D01*
X57270462Y-101140590D01*
X57253425Y-101077007D01*
X57187599Y-100962993D01*
X57094507Y-100869901D01*
X56980493Y-100804075D01*
X56916909Y-100787037D01*
X57549216Y-100154728D01*
X57495050Y-100115375D01*
X57485454Y-100110486D01*
X57434657Y-100062512D01*
X57417861Y-99994692D01*
X57440397Y-99928556D01*
X57485454Y-99889514D01*
X57495054Y-99884622D01*
X57549216Y-99845270D01*
X57549217Y-99845270D01*
X56916908Y-99212962D01*
X56980493Y-99195925D01*
X57094507Y-99130099D01*
X57187599Y-99037007D01*
X57253425Y-98922993D01*
X57270462Y-98859409D01*
X57902770Y-99491717D01*
X57902770Y-99491716D01*
X57942122Y-99437554D01*
X58038595Y-99248217D01*
X58050475Y-99211654D01*
X64025001Y-99211654D01*
X64035319Y-99312652D01*
X64089546Y-99476300D01*
X64089551Y-99476311D01*
X64180052Y-99623034D01*
X64180055Y-99623038D01*
X64301961Y-99744944D01*
X64301965Y-99744947D01*
X64448688Y-99835448D01*
X64448699Y-99835453D01*
X64612347Y-99889680D01*
X64713352Y-99899999D01*
X64750000Y-99899999D01*
X65250000Y-99899999D01*
X65286640Y-99899999D01*
X65286654Y-99899998D01*
X65387652Y-99889680D01*
X65551300Y-99835453D01*
X65551311Y-99835448D01*
X65698034Y-99744947D01*
X65698038Y-99744944D01*
X65819944Y-99623038D01*
X65819947Y-99623034D01*
X65910448Y-99476311D01*
X65910453Y-99476300D01*
X65964680Y-99312652D01*
X65974999Y-99211654D01*
X65975000Y-99211641D01*
X65975000Y-99112500D01*
X65250000Y-99112500D01*
X65250000Y-99899999D01*
X64750000Y-99899999D01*
X64750000Y-99112500D01*
X64025001Y-99112500D01*
X64025001Y-99211654D01*
X58050475Y-99211654D01*
X58104257Y-99046130D01*
X58104953Y-99041738D01*
X58104953Y-99041736D01*
X58137500Y-98836246D01*
X58137500Y-98623753D01*
X58104257Y-98413872D01*
X58104257Y-98413869D01*
X58068499Y-98303818D01*
X58066504Y-98233977D01*
X58102584Y-98174144D01*
X58165285Y-98143316D01*
X58186430Y-98141500D01*
X58627996Y-98141500D01*
X58742133Y-98118796D01*
X58763328Y-98114580D01*
X58827421Y-98088032D01*
X58890807Y-98061777D01*
X58890808Y-98061776D01*
X58890811Y-98061775D01*
X59005543Y-97985114D01*
X63253837Y-93736818D01*
X63315160Y-93703334D01*
X63341518Y-93700500D01*
X63990338Y-93700500D01*
X64057377Y-93720185D01*
X64103132Y-93772989D01*
X64113076Y-93842147D01*
X64111955Y-93848692D01*
X64099500Y-93911306D01*
X64099500Y-94088695D01*
X64134103Y-94262658D01*
X64134106Y-94262667D01*
X64201983Y-94426540D01*
X64201990Y-94426553D01*
X64300535Y-94574034D01*
X64300538Y-94574038D01*
X64425961Y-94699461D01*
X64425965Y-94699464D01*
X64573446Y-94798009D01*
X64573459Y-94798016D01*
X64680949Y-94842539D01*
X64737334Y-94865894D01*
X64737336Y-94865894D01*
X64737341Y-94865896D01*
X64911304Y-94900499D01*
X64911307Y-94900500D01*
X64911309Y-94900500D01*
X65088693Y-94900500D01*
X65160541Y-94886208D01*
X65194267Y-94889225D01*
X65228067Y-94891643D01*
X65228988Y-94892332D01*
X65230132Y-94892435D01*
X65256879Y-94913212D01*
X65284000Y-94933515D01*
X65284401Y-94934591D01*
X65285310Y-94935297D01*
X65296581Y-94967246D01*
X65308417Y-94998979D01*
X65308172Y-95000102D01*
X65308555Y-95001187D01*
X65300763Y-95034161D01*
X65293565Y-95067252D01*
X65292658Y-95068463D01*
X65292488Y-95069184D01*
X65272418Y-95095501D01*
X65272414Y-95095506D01*
X65248769Y-95119151D01*
X65208541Y-95146031D01*
X65073455Y-95201985D01*
X64925965Y-95300535D01*
X64925961Y-95300538D01*
X64800538Y-95425961D01*
X64800535Y-95425965D01*
X64701985Y-95573455D01*
X64646032Y-95708540D01*
X64641399Y-95715473D01*
X64640303Y-95720513D01*
X64619153Y-95748768D01*
X64489711Y-95878211D01*
X64489708Y-95878212D01*
X64378213Y-95989707D01*
X64378210Y-95989711D01*
X64290609Y-96120814D01*
X64290602Y-96120827D01*
X64230263Y-96266500D01*
X64230261Y-96266506D01*
X64222815Y-96303942D01*
X64190429Y-96365852D01*
X64188882Y-96367427D01*
X64179658Y-96376651D01*
X64089096Y-96523475D01*
X64089092Y-96523484D01*
X64034826Y-96687247D01*
X64034826Y-96687248D01*
X64034825Y-96687248D01*
X64024500Y-96788315D01*
X64024500Y-97486669D01*
X64024501Y-97486687D01*
X64034825Y-97587752D01*
X64060485Y-97665186D01*
X64089092Y-97751516D01*
X64177485Y-97894824D01*
X64179661Y-97898351D01*
X64193982Y-97912672D01*
X64227467Y-97973995D01*
X64222483Y-98043687D01*
X64193985Y-98088032D01*
X64180052Y-98101965D01*
X64089551Y-98248688D01*
X64089546Y-98248699D01*
X64035319Y-98412347D01*
X64025000Y-98513345D01*
X64025000Y-98612500D01*
X65300694Y-98612500D01*
X65367733Y-98632185D01*
X65369585Y-98633398D01*
X65483314Y-98709390D01*
X65483327Y-98709397D01*
X65628737Y-98769627D01*
X65629003Y-98769737D01*
X65629007Y-98769737D01*
X65629008Y-98769738D01*
X65783654Y-98800500D01*
X65783657Y-98800500D01*
X65783658Y-98800500D01*
X66627904Y-98800500D01*
X66694943Y-98820185D01*
X66740698Y-98872989D01*
X66750642Y-98942147D01*
X66721617Y-99005703D01*
X66662839Y-99043477D01*
X66662499Y-99043577D01*
X66644801Y-99048718D01*
X66503447Y-99132314D01*
X66503438Y-99132321D01*
X66387321Y-99248438D01*
X66387314Y-99248447D01*
X66303717Y-99389803D01*
X66303716Y-99389806D01*
X66257900Y-99547504D01*
X66257899Y-99547510D01*
X66255000Y-99584350D01*
X66255000Y-100225000D01*
X66931000Y-100225000D01*
X66998039Y-100244685D01*
X67043794Y-100297489D01*
X67055000Y-100349000D01*
X67055000Y-100475000D01*
X67181000Y-100475000D01*
X67248039Y-100494685D01*
X67293794Y-100547489D01*
X67305000Y-100599000D01*
X67305000Y-101951632D01*
X67335064Y-102001895D01*
X67332819Y-102071728D01*
X67323300Y-102091307D01*
X67324166Y-102091770D01*
X67321296Y-102097138D01*
X67257185Y-102251916D01*
X67257184Y-102251918D01*
X67224500Y-102416228D01*
X67224500Y-102583771D01*
X67257182Y-102748074D01*
X67257184Y-102748082D01*
X67321295Y-102902860D01*
X67414373Y-103042162D01*
X67532837Y-103160626D01*
X67582158Y-103193581D01*
X67672137Y-103253703D01*
X67672138Y-103253703D01*
X67672139Y-103253704D01*
X67813283Y-103312168D01*
X67867686Y-103356009D01*
X67889751Y-103422303D01*
X67872472Y-103490003D01*
X67853511Y-103514410D01*
X67668422Y-103699500D01*
X67489711Y-103878211D01*
X67451676Y-103916246D01*
X67378209Y-103989712D01*
X67290609Y-104120814D01*
X67290602Y-104120827D01*
X67230264Y-104266498D01*
X67230261Y-104266510D01*
X67199500Y-104421153D01*
X67199500Y-109075500D01*
X67196949Y-109084185D01*
X67198238Y-109093147D01*
X67187259Y-109117187D01*
X67179815Y-109142539D01*
X67172974Y-109148466D01*
X67169213Y-109156703D01*
X67146978Y-109170992D01*
X67127011Y-109188294D01*
X67116496Y-109190581D01*
X67110435Y-109194477D01*
X67075500Y-109199500D01*
X66882940Y-109199500D01*
X66815901Y-109179815D01*
X66795259Y-109163181D01*
X66436818Y-108804740D01*
X66403333Y-108743417D01*
X66400499Y-108717059D01*
X66400499Y-107449998D01*
X66400498Y-107449981D01*
X66389999Y-107347203D01*
X66389998Y-107347200D01*
X66357354Y-107248688D01*
X66334814Y-107180666D01*
X66242712Y-107031344D01*
X66118656Y-106907288D01*
X65978131Y-106820612D01*
X65969336Y-106815187D01*
X65969331Y-106815185D01*
X65967862Y-106814698D01*
X65802797Y-106760001D01*
X65802795Y-106760000D01*
X65700010Y-106749500D01*
X64299998Y-106749500D01*
X64299981Y-106749501D01*
X64197203Y-106760000D01*
X64197200Y-106760001D01*
X64030668Y-106815185D01*
X64030663Y-106815187D01*
X63881342Y-106907289D01*
X63757289Y-107031342D01*
X63665187Y-107180663D01*
X63665186Y-107180666D01*
X63610001Y-107347203D01*
X63610001Y-107347204D01*
X63610000Y-107347204D01*
X63599500Y-107449983D01*
X63599500Y-109550001D01*
X63599501Y-109550018D01*
X63610000Y-109652796D01*
X63610001Y-109652799D01*
X63639506Y-109741837D01*
X63665186Y-109819334D01*
X63757288Y-109968656D01*
X63881344Y-110092712D01*
X64030666Y-110184814D01*
X64197203Y-110239999D01*
X64299991Y-110250500D01*
X65567059Y-110250499D01*
X65634098Y-110270184D01*
X65654740Y-110286818D01*
X65878211Y-110510289D01*
X65935000Y-110567078D01*
X65989712Y-110621790D01*
X66120814Y-110709390D01*
X66120821Y-110709394D01*
X66200061Y-110742216D01*
X66266502Y-110769737D01*
X66421152Y-110800499D01*
X66421155Y-110800500D01*
X66421157Y-110800500D01*
X66421158Y-110800500D01*
X67554793Y-110800500D01*
X67562968Y-110802126D01*
X67568047Y-110801210D01*
X67602245Y-110809939D01*
X67708537Y-110853966D01*
X67708540Y-110853967D01*
X67748769Y-110880847D01*
X67855753Y-110987831D01*
X67889238Y-111049154D01*
X67884254Y-111118846D01*
X67842382Y-111174779D01*
X67811406Y-111191694D01*
X67757912Y-111211646D01*
X67757906Y-111211649D01*
X67642814Y-111297808D01*
X67642807Y-111297814D01*
X67622847Y-111324478D01*
X67566912Y-111366349D01*
X67497220Y-111371332D01*
X67476136Y-111364730D01*
X67471839Y-111362950D01*
X67471828Y-111362947D01*
X67278543Y-111324500D01*
X67278541Y-111324500D01*
X67081459Y-111324500D01*
X67081457Y-111324500D01*
X66888170Y-111362947D01*
X66888160Y-111362950D01*
X66706092Y-111438364D01*
X66706079Y-111438371D01*
X66542218Y-111547860D01*
X66542214Y-111547863D01*
X66402863Y-111687214D01*
X66402860Y-111687218D01*
X66293371Y-111851079D01*
X66293364Y-111851092D01*
X66217950Y-112033160D01*
X66217947Y-112033170D01*
X66179500Y-112226456D01*
X66179500Y-112567204D01*
X66159815Y-112634243D01*
X66107011Y-112679998D01*
X66037853Y-112689942D01*
X65974297Y-112660917D01*
X65937794Y-112606208D01*
X65910453Y-112523699D01*
X65910448Y-112523688D01*
X65819947Y-112376965D01*
X65819944Y-112376961D01*
X65698038Y-112255055D01*
X65698034Y-112255052D01*
X65551311Y-112164551D01*
X65551300Y-112164546D01*
X65387652Y-112110319D01*
X65286654Y-112100000D01*
X65250000Y-112100000D01*
X65250000Y-112963500D01*
X65230315Y-113030539D01*
X65177511Y-113076294D01*
X65126000Y-113087500D01*
X65000000Y-113087500D01*
X65000000Y-113213500D01*
X64980315Y-113280539D01*
X64927511Y-113326294D01*
X64876000Y-113337500D01*
X64025001Y-113337500D01*
X64025001Y-113386654D01*
X64035319Y-113487652D01*
X64089546Y-113651300D01*
X64089551Y-113651311D01*
X64180052Y-113798034D01*
X64180055Y-113798038D01*
X64293982Y-113911965D01*
X64327467Y-113973288D01*
X64322483Y-114042980D01*
X64293983Y-114087327D01*
X64179659Y-114201651D01*
X64089093Y-114348481D01*
X64089092Y-114348484D01*
X64034826Y-114512247D01*
X64034826Y-114512248D01*
X64034825Y-114512248D01*
X64024500Y-114613315D01*
X64024500Y-115211669D01*
X64024501Y-115211687D01*
X64034825Y-115312752D01*
X64069291Y-115416761D01*
X64089092Y-115476516D01*
X64179660Y-115623350D01*
X64301650Y-115745340D01*
X64448484Y-115835908D01*
X64612247Y-115890174D01*
X64713323Y-115900500D01*
X65286676Y-115900499D01*
X65286684Y-115900498D01*
X65286687Y-115900498D01*
X65342030Y-115894844D01*
X65387753Y-115890174D01*
X65551516Y-115835908D01*
X65698350Y-115745340D01*
X65820340Y-115623350D01*
X65821233Y-115621901D01*
X65822104Y-115621117D01*
X65824821Y-115617683D01*
X65825407Y-115618147D01*
X65873180Y-115575179D01*
X65926771Y-115563000D01*
X66634599Y-115563000D01*
X66701638Y-115582685D01*
X66747393Y-115635489D01*
X66757337Y-115704647D01*
X66728312Y-115768203D01*
X66703490Y-115790102D01*
X66542218Y-115897860D01*
X66542214Y-115897863D01*
X66402863Y-116037214D01*
X66402860Y-116037218D01*
X66293371Y-116201079D01*
X66293364Y-116201092D01*
X66217950Y-116383160D01*
X66217947Y-116383170D01*
X66179500Y-116576456D01*
X66179500Y-117573545D01*
X66217418Y-117764170D01*
X66211191Y-117833761D01*
X66168328Y-117888939D01*
X66102438Y-117912183D01*
X66034441Y-117896115D01*
X66008120Y-117876042D01*
X62336819Y-114204741D01*
X62303334Y-114143418D01*
X62300500Y-114117060D01*
X62300500Y-112788345D01*
X64025000Y-112788345D01*
X64025000Y-112837500D01*
X64750000Y-112837500D01*
X64750000Y-112100000D01*
X64713361Y-112100000D01*
X64713343Y-112100001D01*
X64612347Y-112110319D01*
X64448699Y-112164546D01*
X64448688Y-112164551D01*
X64301965Y-112255052D01*
X64301961Y-112255055D01*
X64180055Y-112376961D01*
X64180052Y-112376965D01*
X64089551Y-112523688D01*
X64089546Y-112523699D01*
X64035319Y-112687347D01*
X64025000Y-112788345D01*
X62300500Y-112788345D01*
X62300500Y-106382940D01*
X62320185Y-106315901D01*
X62336819Y-106295259D01*
X63295259Y-105336819D01*
X63322186Y-105322115D01*
X63348005Y-105305523D01*
X63354205Y-105304631D01*
X63356582Y-105303334D01*
X63382940Y-105300500D01*
X63475501Y-105300500D01*
X63542540Y-105320185D01*
X63588295Y-105372989D01*
X63599501Y-105424500D01*
X63599501Y-105550018D01*
X63610000Y-105652796D01*
X63610001Y-105652799D01*
X63665185Y-105819331D01*
X63665187Y-105819336D01*
X63666274Y-105821098D01*
X63757288Y-105968656D01*
X63881344Y-106092712D01*
X64030666Y-106184814D01*
X64197203Y-106239999D01*
X64299991Y-106250500D01*
X65700008Y-106250499D01*
X65802797Y-106239999D01*
X65969334Y-106184814D01*
X66118656Y-106092712D01*
X66242712Y-105968656D01*
X66334814Y-105819334D01*
X66389999Y-105652797D01*
X66400500Y-105550009D01*
X66400499Y-103449992D01*
X66389999Y-103347203D01*
X66334814Y-103180666D01*
X66242712Y-103031344D01*
X66118656Y-102907288D01*
X65969334Y-102815186D01*
X65802797Y-102760001D01*
X65802795Y-102760000D01*
X65700010Y-102749500D01*
X64299998Y-102749500D01*
X64299981Y-102749501D01*
X64197203Y-102760000D01*
X64197200Y-102760001D01*
X64030668Y-102815185D01*
X64030663Y-102815187D01*
X63881342Y-102907289D01*
X63757289Y-103031342D01*
X63665187Y-103180663D01*
X63665185Y-103180668D01*
X63660906Y-103193581D01*
X63610001Y-103347203D01*
X63610001Y-103347204D01*
X63610000Y-103347204D01*
X63599500Y-103449983D01*
X63599500Y-103575500D01*
X63579815Y-103642539D01*
X63527011Y-103688294D01*
X63475500Y-103699500D01*
X62921154Y-103699500D01*
X62766508Y-103730261D01*
X62766498Y-103730264D01*
X62736346Y-103742754D01*
X62620823Y-103790604D01*
X62620815Y-103790609D01*
X62493664Y-103875570D01*
X62493661Y-103875572D01*
X62489711Y-103878211D01*
X62489706Y-103878214D01*
X61359366Y-105008556D01*
X60989711Y-105378211D01*
X60943422Y-105424500D01*
X60878209Y-105489712D01*
X60790609Y-105620814D01*
X60790602Y-105620827D01*
X60730264Y-105766498D01*
X60730261Y-105766510D01*
X60699500Y-105921153D01*
X60699500Y-114578846D01*
X60730261Y-114733489D01*
X60730264Y-114733501D01*
X60790602Y-114879172D01*
X60790609Y-114879185D01*
X60878210Y-115010288D01*
X60878213Y-115010292D01*
X65155741Y-119287819D01*
X65189226Y-119349142D01*
X65184242Y-119418834D01*
X65142370Y-119474767D01*
X65076906Y-119499184D01*
X65068060Y-119499500D01*
X50504067Y-119499500D01*
X50495957Y-119499235D01*
X50247116Y-119482925D01*
X50231035Y-119480807D01*
X49990464Y-119432954D01*
X49974797Y-119428756D01*
X49742520Y-119349909D01*
X49727534Y-119343702D01*
X49507539Y-119235212D01*
X49493492Y-119227102D01*
X49289539Y-119090825D01*
X49276671Y-119080951D01*
X49092250Y-118919218D01*
X49080781Y-118907749D01*
X48919048Y-118723328D01*
X48909174Y-118710460D01*
X48772897Y-118506507D01*
X48764787Y-118492460D01*
X48658855Y-118277652D01*
X48656294Y-118272458D01*
X48650090Y-118257479D01*
X48571243Y-118025202D01*
X48567045Y-118009535D01*
X48554985Y-117948907D01*
X48519190Y-117768953D01*
X48517075Y-117752895D01*
X48500765Y-117504043D01*
X48500500Y-117495933D01*
X48500500Y-82504066D01*
X48500765Y-82495956D01*
X48517075Y-82247102D01*
X48519190Y-82231048D01*
X48567045Y-81990462D01*
X48571243Y-81974797D01*
X48594337Y-81906762D01*
X48650093Y-81742512D01*
X48656291Y-81727547D01*
X48764790Y-81507533D01*
X48772893Y-81493498D01*
X48909182Y-81289527D01*
X48919039Y-81276681D01*
X49080786Y-81092244D01*
X49092244Y-81080786D01*
X49276681Y-80919039D01*
X49289527Y-80909182D01*
X49493498Y-80772893D01*
X49507533Y-80764790D01*
X49727547Y-80656291D01*
X49742512Y-80650093D01*
X49940639Y-80582838D01*
X49974797Y-80571243D01*
X49990464Y-80567045D01*
X50231048Y-80519190D01*
X50247102Y-80517075D01*
X50495957Y-80500765D01*
X50504067Y-80500500D01*
X50565892Y-80500500D01*
X70209481Y-80500500D01*
X70276520Y-80520185D01*
G37*
%TD.AperFunction*%
%TA.AperFunction,Conductor*%
G36*
X114501381Y-80500531D02*
G01*
X115372098Y-80520073D01*
X115377594Y-80520320D01*
X116245187Y-80578814D01*
X116250651Y-80579306D01*
X117114743Y-80676666D01*
X117120207Y-80677406D01*
X117979039Y-80813432D01*
X117984454Y-80814414D01*
X118836342Y-80988839D01*
X118841756Y-80990075D01*
X119144062Y-81066250D01*
X119684878Y-81202524D01*
X119690242Y-81204004D01*
X120523020Y-81454075D01*
X120528288Y-81455787D01*
X121349026Y-81742977D01*
X121354235Y-81744932D01*
X122161206Y-82068631D01*
X122166323Y-82070818D01*
X122337634Y-82148631D01*
X122957990Y-82430410D01*
X122962965Y-82432806D01*
X123578227Y-82746297D01*
X123737725Y-82827565D01*
X123742625Y-82830202D01*
X124498856Y-83259303D01*
X124503629Y-83262154D01*
X124957001Y-83547027D01*
X125239867Y-83724763D01*
X125244511Y-83727829D01*
X125959232Y-84222989D01*
X125963734Y-84226260D01*
X126655513Y-84752982D01*
X126659861Y-84756449D01*
X127043243Y-85076519D01*
X127327343Y-85313702D01*
X127331528Y-85317359D01*
X127943254Y-85876501D01*
X127973328Y-85903990D01*
X127977350Y-85907836D01*
X128592163Y-86522649D01*
X128596009Y-86526671D01*
X129182636Y-87168466D01*
X129186295Y-87172653D01*
X129373274Y-87396618D01*
X129743548Y-87840135D01*
X129747017Y-87844486D01*
X130273739Y-88536265D01*
X130277010Y-88540767D01*
X130772170Y-89255488D01*
X130775236Y-89260132D01*
X131237842Y-89996366D01*
X131240696Y-90001143D01*
X131669797Y-90757374D01*
X131672434Y-90762274D01*
X132067184Y-91537015D01*
X132069598Y-91542029D01*
X132429181Y-92333676D01*
X132431368Y-92338793D01*
X132755067Y-93145764D01*
X132757022Y-93150973D01*
X133044212Y-93971711D01*
X133045932Y-93977004D01*
X133295995Y-94809757D01*
X133297475Y-94815121D01*
X133509922Y-95658237D01*
X133511161Y-95663662D01*
X133685579Y-96515515D01*
X133686572Y-96520990D01*
X133822589Y-97379767D01*
X133823336Y-97385281D01*
X133920689Y-98249309D01*
X133921188Y-98254852D01*
X133979677Y-99122373D01*
X133979927Y-99127932D01*
X133999437Y-99997218D01*
X133999437Y-100002782D01*
X133979927Y-100872067D01*
X133979677Y-100877626D01*
X133921188Y-101745147D01*
X133920689Y-101750690D01*
X133823336Y-102614718D01*
X133822589Y-102620232D01*
X133686572Y-103479009D01*
X133685579Y-103484484D01*
X133511161Y-104336337D01*
X133509922Y-104341762D01*
X133297475Y-105184878D01*
X133295995Y-105190242D01*
X133045932Y-106022995D01*
X133044212Y-106028288D01*
X132757022Y-106849026D01*
X132755067Y-106854235D01*
X132431368Y-107661206D01*
X132429181Y-107666323D01*
X132069598Y-108457970D01*
X132067184Y-108462984D01*
X131672434Y-109237725D01*
X131669797Y-109242625D01*
X131240696Y-109998856D01*
X131237842Y-110003633D01*
X130775236Y-110739867D01*
X130772170Y-110744511D01*
X130277010Y-111459232D01*
X130273739Y-111463734D01*
X129747017Y-112155513D01*
X129743548Y-112159864D01*
X129186297Y-112827343D01*
X129182636Y-112831533D01*
X128596009Y-113473328D01*
X128592163Y-113477350D01*
X127977350Y-114092163D01*
X127973328Y-114096009D01*
X127331533Y-114682636D01*
X127327343Y-114686297D01*
X126659864Y-115243548D01*
X126655513Y-115247017D01*
X125963734Y-115773739D01*
X125959232Y-115777010D01*
X125244511Y-116272170D01*
X125239867Y-116275236D01*
X124503633Y-116737842D01*
X124498856Y-116740696D01*
X123742625Y-117169797D01*
X123737725Y-117172434D01*
X122962984Y-117567184D01*
X122957970Y-117569598D01*
X122166323Y-117929181D01*
X122161206Y-117931368D01*
X121354235Y-118255067D01*
X121349026Y-118257022D01*
X120528288Y-118544212D01*
X120522995Y-118545932D01*
X119690242Y-118795995D01*
X119684878Y-118797475D01*
X118841762Y-119009922D01*
X118836337Y-119011161D01*
X117984484Y-119185579D01*
X117979009Y-119186572D01*
X117120232Y-119322589D01*
X117114718Y-119323336D01*
X116250690Y-119420689D01*
X116245147Y-119421188D01*
X115377626Y-119479677D01*
X115372067Y-119479927D01*
X114501381Y-119499469D01*
X114498599Y-119499500D01*
X89931940Y-119499500D01*
X89864901Y-119479815D01*
X89819146Y-119427011D01*
X89809202Y-119357853D01*
X89838227Y-119294297D01*
X89844259Y-119287819D01*
X98621786Y-110510292D01*
X98621789Y-110510289D01*
X98709394Y-110379179D01*
X98769737Y-110233497D01*
X98800500Y-110078842D01*
X98800500Y-109921158D01*
X98800500Y-109921157D01*
X98800500Y-98882940D01*
X98820185Y-98815901D01*
X98836819Y-98795259D01*
X99266252Y-98365826D01*
X99708754Y-97923323D01*
X99770075Y-97889840D01*
X99839766Y-97894824D01*
X99895699Y-97936695D01*
X99967452Y-98032544D01*
X99967453Y-98032544D01*
X99967454Y-98032546D01*
X100006499Y-98061775D01*
X100052539Y-98096241D01*
X100094409Y-98152175D01*
X100099393Y-98221867D01*
X100078545Y-98268392D01*
X99994624Y-98383900D01*
X99910620Y-98548764D01*
X99910619Y-98548767D01*
X99853445Y-98724734D01*
X99829346Y-98876891D01*
X99824500Y-98907486D01*
X99824500Y-99092514D01*
X99831499Y-99136702D01*
X99853445Y-99275265D01*
X99910619Y-99451232D01*
X99910620Y-99451235D01*
X99980948Y-99589259D01*
X99994622Y-99616096D01*
X100103379Y-99765787D01*
X100234213Y-99896621D01*
X100238421Y-99899678D01*
X100238432Y-99899686D01*
X100281094Y-99955019D01*
X100287069Y-100024633D01*
X100254459Y-100086426D01*
X100238432Y-100100314D01*
X100234210Y-100103381D01*
X100103381Y-100234210D01*
X100103381Y-100234211D01*
X100103379Y-100234213D01*
X100095771Y-100244685D01*
X99994622Y-100383903D01*
X99910620Y-100548764D01*
X99910619Y-100548767D01*
X99853445Y-100724734D01*
X99841667Y-100799096D01*
X99824500Y-100907486D01*
X99824500Y-101092514D01*
X99833059Y-101146555D01*
X99853445Y-101275265D01*
X99910619Y-101451232D01*
X99910620Y-101451235D01*
X99986421Y-101600000D01*
X99994622Y-101616096D01*
X100103379Y-101765787D01*
X100234213Y-101896621D01*
X100304375Y-101947597D01*
X100308831Y-101950834D01*
X100323806Y-101970254D01*
X100953554Y-102600000D01*
X100947339Y-102600000D01*
X100845606Y-102627259D01*
X100754394Y-102679920D01*
X100679920Y-102754394D01*
X100627259Y-102845606D01*
X100600000Y-102947339D01*
X100600000Y-102953553D01*
X100010015Y-102363568D01*
X99995049Y-102384167D01*
X99911084Y-102548956D01*
X99911083Y-102548959D01*
X99853933Y-102724852D01*
X99825000Y-102907526D01*
X99825000Y-103092473D01*
X99853933Y-103275147D01*
X99911083Y-103451040D01*
X99911084Y-103451043D01*
X99995050Y-103615834D01*
X100010015Y-103636430D01*
X100010016Y-103636431D01*
X100600000Y-103046447D01*
X100600000Y-103052661D01*
X100627259Y-103154394D01*
X100679920Y-103245606D01*
X100754394Y-103320080D01*
X100845606Y-103372741D01*
X100947339Y-103400000D01*
X100953553Y-103400000D01*
X100363568Y-103989983D01*
X100363568Y-103989984D01*
X100384165Y-104004949D01*
X100548956Y-104088915D01*
X100548959Y-104088916D01*
X100724852Y-104146066D01*
X100907527Y-104175000D01*
X101092473Y-104175000D01*
X101275147Y-104146066D01*
X101451040Y-104088916D01*
X101451043Y-104088915D01*
X101615836Y-104004947D01*
X101615845Y-104004942D01*
X101636430Y-103989984D01*
X101636431Y-103989983D01*
X101046448Y-103400000D01*
X101052661Y-103400000D01*
X101154394Y-103372741D01*
X101245606Y-103320080D01*
X101320080Y-103245606D01*
X101372741Y-103154394D01*
X101400000Y-103052661D01*
X101400000Y-103046448D01*
X101989983Y-103636431D01*
X101989984Y-103636430D01*
X102004942Y-103615845D01*
X102004947Y-103615836D01*
X102088915Y-103451043D01*
X102088916Y-103451040D01*
X102146066Y-103275147D01*
X102175000Y-103092473D01*
X102175000Y-102907526D01*
X102146066Y-102724852D01*
X102088916Y-102548959D01*
X102088915Y-102548956D01*
X102004949Y-102384165D01*
X101989983Y-102363568D01*
X101400000Y-102953551D01*
X101400000Y-102947339D01*
X101372741Y-102845606D01*
X101320080Y-102754394D01*
X101245606Y-102679920D01*
X101154394Y-102627259D01*
X101052661Y-102600000D01*
X101046447Y-102600000D01*
X101660675Y-101985771D01*
X101691165Y-101950836D01*
X101765787Y-101896621D01*
X101896621Y-101765787D01*
X102005378Y-101616096D01*
X102089379Y-101451235D01*
X102146555Y-101275264D01*
X102175500Y-101092514D01*
X102175500Y-100907486D01*
X102146555Y-100724736D01*
X102117967Y-100636750D01*
X102089380Y-100548767D01*
X102089379Y-100548764D01*
X102034801Y-100441650D01*
X102005378Y-100383904D01*
X101896621Y-100234213D01*
X101765787Y-100103379D01*
X101761576Y-100100319D01*
X101718909Y-100044994D01*
X101712926Y-99975381D01*
X101745529Y-99913585D01*
X101761570Y-99899684D01*
X101765787Y-99896621D01*
X101896621Y-99765787D01*
X102005378Y-99616096D01*
X102089379Y-99451235D01*
X102089682Y-99450304D01*
X102109339Y-99389803D01*
X102146555Y-99275264D01*
X102175500Y-99092514D01*
X102175500Y-98907486D01*
X102146555Y-98724736D01*
X102089379Y-98548765D01*
X102089379Y-98548764D01*
X102005377Y-98383903D01*
X101999839Y-98376281D01*
X101921453Y-98268392D01*
X101897974Y-98202586D01*
X101913799Y-98134532D01*
X101947459Y-98096241D01*
X102032546Y-98032546D01*
X102118796Y-97917331D01*
X102169091Y-97782483D01*
X102175500Y-97722873D01*
X102175499Y-96277128D01*
X102169091Y-96217517D01*
X102162253Y-96199184D01*
X102118797Y-96082671D01*
X102118793Y-96082664D01*
X102032547Y-95967455D01*
X102032544Y-95967452D01*
X101917335Y-95881206D01*
X101917328Y-95881202D01*
X101782482Y-95830908D01*
X101782483Y-95830908D01*
X101722883Y-95824501D01*
X101722881Y-95824500D01*
X101722873Y-95824500D01*
X101722864Y-95824500D01*
X100277129Y-95824500D01*
X100277123Y-95824501D01*
X100217516Y-95830908D01*
X100082671Y-95881202D01*
X100082664Y-95881206D01*
X99967455Y-95967452D01*
X99967452Y-95967455D01*
X99881206Y-96082664D01*
X99881203Y-96082669D01*
X99867715Y-96118834D01*
X99825843Y-96174767D01*
X99760379Y-96199184D01*
X99751533Y-96199500D01*
X99421154Y-96199500D01*
X99266509Y-96230261D01*
X99266501Y-96230263D01*
X99236448Y-96242712D01*
X99236447Y-96242712D01*
X99120827Y-96290602D01*
X99120814Y-96290609D01*
X98989712Y-96378209D01*
X98989710Y-96378212D01*
X97512181Y-97855741D01*
X97450858Y-97889226D01*
X97381166Y-97884242D01*
X97325233Y-97842370D01*
X97300816Y-97776906D01*
X97300500Y-97768060D01*
X97300500Y-96445207D01*
X97309939Y-96397755D01*
X97354321Y-96290606D01*
X97365894Y-96262666D01*
X97400500Y-96088691D01*
X97400500Y-95924500D01*
X97420185Y-95857461D01*
X97472989Y-95811706D01*
X97524500Y-95800500D01*
X98054793Y-95800500D01*
X98102245Y-95809939D01*
X98237334Y-95865894D01*
X98237336Y-95865894D01*
X98237341Y-95865896D01*
X98411304Y-95900499D01*
X98411307Y-95900500D01*
X98411309Y-95900500D01*
X98588693Y-95900500D01*
X98588694Y-95900499D01*
X98664121Y-95885496D01*
X98762658Y-95865896D01*
X98762661Y-95865894D01*
X98762666Y-95865894D01*
X98902535Y-95807958D01*
X98926540Y-95798016D01*
X98926540Y-95798015D01*
X98926547Y-95798013D01*
X99074035Y-95699464D01*
X99199464Y-95574035D01*
X99298013Y-95426547D01*
X99365894Y-95262666D01*
X99367569Y-95254249D01*
X99400499Y-95088695D01*
X99400500Y-95088693D01*
X99400500Y-94911306D01*
X99400499Y-94911304D01*
X99365896Y-94737341D01*
X99365893Y-94737332D01*
X99355286Y-94711725D01*
X99334428Y-94661368D01*
X99298016Y-94573459D01*
X99298009Y-94573446D01*
X99199464Y-94425965D01*
X99199461Y-94425961D01*
X99074038Y-94300538D01*
X99074034Y-94300535D01*
X98926553Y-94201990D01*
X98926540Y-94201983D01*
X98762667Y-94134106D01*
X98762658Y-94134103D01*
X98588694Y-94099500D01*
X98588691Y-94099500D01*
X98411309Y-94099500D01*
X98411306Y-94099500D01*
X98237341Y-94134103D01*
X98237332Y-94134106D01*
X98102245Y-94190061D01*
X98054793Y-94199500D01*
X89830301Y-94199500D01*
X89763262Y-94179815D01*
X89717507Y-94127011D01*
X89712595Y-94114504D01*
X89704043Y-94088695D01*
X89684814Y-94030666D01*
X89592712Y-93881344D01*
X89468656Y-93757288D01*
X89363543Y-93692454D01*
X89319336Y-93665187D01*
X89319331Y-93665185D01*
X89317862Y-93664698D01*
X89152797Y-93610001D01*
X89152795Y-93610000D01*
X89050010Y-93599500D01*
X86949998Y-93599500D01*
X86949981Y-93599501D01*
X86847203Y-93610000D01*
X86847200Y-93610001D01*
X86680668Y-93665185D01*
X86680663Y-93665187D01*
X86531342Y-93757289D01*
X86407289Y-93881342D01*
X86315187Y-94030663D01*
X86315185Y-94030668D01*
X86300335Y-94075482D01*
X86260001Y-94197203D01*
X86260001Y-94197204D01*
X86260000Y-94197204D01*
X86249500Y-94299983D01*
X86249500Y-95700001D01*
X86249501Y-95700018D01*
X86260000Y-95802796D01*
X86260001Y-95802799D01*
X86315185Y-95969331D01*
X86315187Y-95969336D01*
X86329373Y-95992335D01*
X86407288Y-96118656D01*
X86531344Y-96242712D01*
X86680666Y-96334814D01*
X86847203Y-96389999D01*
X86949991Y-96400500D01*
X89050008Y-96400499D01*
X89152797Y-96389999D01*
X89319334Y-96334814D01*
X89468656Y-96242712D01*
X89592712Y-96118656D01*
X89684814Y-95969334D01*
X89712595Y-95885495D01*
X89752368Y-95828051D01*
X89816884Y-95801228D01*
X89830301Y-95800500D01*
X95475500Y-95800500D01*
X95542539Y-95820185D01*
X95588294Y-95872989D01*
X95599500Y-95924500D01*
X95599500Y-96088695D01*
X95634104Y-96262658D01*
X95634107Y-96262670D01*
X95690061Y-96397755D01*
X95699500Y-96445207D01*
X95699500Y-99117060D01*
X95679815Y-99184099D01*
X95663181Y-99204741D01*
X93087681Y-101780240D01*
X93026358Y-101813725D01*
X92956666Y-101808741D01*
X92912319Y-101780240D01*
X92010292Y-100878213D01*
X92010288Y-100878210D01*
X91879185Y-100790609D01*
X91879172Y-100790602D01*
X91733501Y-100730264D01*
X91733489Y-100730261D01*
X91578845Y-100699500D01*
X91578842Y-100699500D01*
X88924500Y-100699500D01*
X88915814Y-100696949D01*
X88906853Y-100698238D01*
X88882812Y-100687259D01*
X88857461Y-100679815D01*
X88851533Y-100672974D01*
X88843297Y-100669213D01*
X88829007Y-100646978D01*
X88811706Y-100627011D01*
X88809418Y-100616496D01*
X88805523Y-100610435D01*
X88800500Y-100575500D01*
X88800500Y-100524499D01*
X88820185Y-100457460D01*
X88872989Y-100411705D01*
X88924500Y-100400499D01*
X89050002Y-100400499D01*
X89050008Y-100400499D01*
X89152797Y-100389999D01*
X89319334Y-100334814D01*
X89468656Y-100242712D01*
X89592712Y-100118656D01*
X89684814Y-99969334D01*
X89739999Y-99802797D01*
X89750500Y-99700009D01*
X89750499Y-98299992D01*
X89739999Y-98197203D01*
X89684814Y-98030666D01*
X89592712Y-97881344D01*
X89468656Y-97757288D01*
X89375598Y-97699890D01*
X89319336Y-97665187D01*
X89319331Y-97665185D01*
X89317862Y-97664698D01*
X89152797Y-97610001D01*
X89152795Y-97610000D01*
X89050010Y-97599500D01*
X86949998Y-97599500D01*
X86949981Y-97599501D01*
X86847203Y-97610000D01*
X86847200Y-97610001D01*
X86680668Y-97665185D01*
X86680663Y-97665187D01*
X86531342Y-97757289D01*
X86407289Y-97881342D01*
X86315187Y-98030663D01*
X86315185Y-98030668D01*
X86291560Y-98101965D01*
X86260001Y-98197203D01*
X86260001Y-98197204D01*
X86260000Y-98197204D01*
X86249500Y-98299983D01*
X86249500Y-99700001D01*
X86249501Y-99700018D01*
X86260000Y-99802796D01*
X86260001Y-99802799D01*
X86303719Y-99934729D01*
X86315186Y-99969334D01*
X86407288Y-100118656D01*
X86531344Y-100242712D01*
X86680666Y-100334814D01*
X86847203Y-100389999D01*
X86949991Y-100400500D01*
X87075500Y-100400499D01*
X87084185Y-100403049D01*
X87093147Y-100401761D01*
X87117184Y-100412738D01*
X87142539Y-100420183D01*
X87148467Y-100427025D01*
X87156703Y-100430786D01*
X87170989Y-100453017D01*
X87188294Y-100472987D01*
X87190581Y-100483502D01*
X87194477Y-100489564D01*
X87199500Y-100524499D01*
X87199500Y-100575500D01*
X87179815Y-100642539D01*
X87127011Y-100688294D01*
X87075500Y-100699500D01*
X80382940Y-100699500D01*
X80315901Y-100679815D01*
X80295259Y-100663181D01*
X77010292Y-97378213D01*
X77010288Y-97378210D01*
X76879185Y-97290609D01*
X76879172Y-97290602D01*
X76733501Y-97230264D01*
X76733489Y-97230261D01*
X76578845Y-97199500D01*
X76578842Y-97199500D01*
X76373887Y-97199500D01*
X76306848Y-97179815D01*
X76261093Y-97127011D01*
X76251149Y-97057853D01*
X76280174Y-96994297D01*
X76338952Y-96956523D01*
X76339291Y-96956424D01*
X76355395Y-96951745D01*
X76355395Y-96951744D01*
X76355398Y-96951744D01*
X76496865Y-96868081D01*
X76613081Y-96751865D01*
X76696744Y-96610398D01*
X76742598Y-96452569D01*
X76745500Y-96415694D01*
X76745500Y-95857130D01*
X76765185Y-95790091D01*
X76817989Y-95744336D01*
X76887147Y-95734392D01*
X76950703Y-95763417D01*
X76957181Y-95769449D01*
X78809517Y-97621786D01*
X78809521Y-97621789D01*
X78940624Y-97709390D01*
X78940628Y-97709392D01*
X78940631Y-97709394D01*
X79086313Y-97769738D01*
X79144691Y-97781349D01*
X79206601Y-97813734D01*
X79241176Y-97874449D01*
X79244500Y-97902967D01*
X79244500Y-98365833D01*
X79257050Y-98461155D01*
X79261725Y-98496662D01*
X79295800Y-98623829D01*
X79334140Y-98716390D01*
X79346302Y-98745750D01*
X79346303Y-98745751D01*
X79412120Y-98859749D01*
X79412132Y-98859767D01*
X79460648Y-98922993D01*
X79492459Y-98964449D01*
X79585551Y-99057541D01*
X79585555Y-99057544D01*
X79690232Y-99137867D01*
X79690236Y-99137869D01*
X79690243Y-99137875D01*
X79710137Y-99149361D01*
X79804248Y-99203696D01*
X79804249Y-99203697D01*
X79804252Y-99203698D01*
X79804257Y-99203701D01*
X79926171Y-99254200D01*
X80053338Y-99288275D01*
X80184174Y-99305500D01*
X80184181Y-99305500D01*
X80815819Y-99305500D01*
X80815826Y-99305500D01*
X80946662Y-99288275D01*
X81073829Y-99254200D01*
X81195743Y-99203701D01*
X81309757Y-99137875D01*
X81317519Y-99131919D01*
X81325070Y-99126125D01*
X81390239Y-99100930D01*
X81400557Y-99100500D01*
X82125501Y-99100500D01*
X82192540Y-99120185D01*
X82238295Y-99172989D01*
X82249501Y-99224500D01*
X82249501Y-99700018D01*
X82260000Y-99802796D01*
X82260001Y-99802799D01*
X82303719Y-99934729D01*
X82315186Y-99969334D01*
X82407288Y-100118656D01*
X82531344Y-100242712D01*
X82680666Y-100334814D01*
X82847203Y-100389999D01*
X82949991Y-100400500D01*
X85050008Y-100400499D01*
X85152797Y-100389999D01*
X85319334Y-100334814D01*
X85468656Y-100242712D01*
X85592712Y-100118656D01*
X85684814Y-99969334D01*
X85739999Y-99802797D01*
X85750500Y-99700009D01*
X85750499Y-98299992D01*
X85739999Y-98197203D01*
X85684814Y-98030666D01*
X85592712Y-97881344D01*
X85468656Y-97757288D01*
X85375598Y-97699890D01*
X85319336Y-97665187D01*
X85319331Y-97665185D01*
X85317862Y-97664698D01*
X85152797Y-97610001D01*
X85152795Y-97610000D01*
X85050016Y-97599500D01*
X85050009Y-97599500D01*
X83725316Y-97599500D01*
X83677864Y-97590061D01*
X83533501Y-97530264D01*
X83533489Y-97530261D01*
X83378845Y-97499500D01*
X83378842Y-97499500D01*
X81874500Y-97499500D01*
X81807461Y-97479815D01*
X81761706Y-97427011D01*
X81750500Y-97375500D01*
X81750499Y-96624500D01*
X81770183Y-96557461D01*
X81822987Y-96511706D01*
X81874499Y-96500500D01*
X83378844Y-96500500D01*
X83378845Y-96500499D01*
X83533497Y-96469737D01*
X83652265Y-96420542D01*
X83677866Y-96409938D01*
X83725318Y-96400499D01*
X85050002Y-96400499D01*
X85050008Y-96400499D01*
X85152797Y-96389999D01*
X85319334Y-96334814D01*
X85468656Y-96242712D01*
X85592712Y-96118656D01*
X85684814Y-95969334D01*
X85739999Y-95802797D01*
X85750500Y-95700009D01*
X85750499Y-94299992D01*
X85739999Y-94197203D01*
X85684814Y-94030666D01*
X85592712Y-93881344D01*
X85468656Y-93757288D01*
X85363543Y-93692454D01*
X85319336Y-93665187D01*
X85319331Y-93665185D01*
X85317862Y-93664698D01*
X85152797Y-93610001D01*
X85152795Y-93610000D01*
X85050010Y-93599500D01*
X82949998Y-93599500D01*
X82949981Y-93599501D01*
X82847203Y-93610000D01*
X82847200Y-93610001D01*
X82680668Y-93665185D01*
X82680663Y-93665187D01*
X82531342Y-93757289D01*
X82407289Y-93881342D01*
X82315187Y-94030663D01*
X82315185Y-94030668D01*
X82300335Y-94075482D01*
X82260001Y-94197203D01*
X82260001Y-94197204D01*
X82260000Y-94197204D01*
X82249500Y-94299983D01*
X82249500Y-94775500D01*
X82229815Y-94842539D01*
X82177011Y-94888294D01*
X82125500Y-94899500D01*
X81400557Y-94899500D01*
X81333518Y-94879815D01*
X81325070Y-94873875D01*
X81309758Y-94862125D01*
X81195751Y-94796303D01*
X81195750Y-94796302D01*
X81073829Y-94745800D01*
X81042227Y-94737332D01*
X80946662Y-94711725D01*
X80946661Y-94711724D01*
X80946658Y-94711724D01*
X80815833Y-94694500D01*
X80815826Y-94694500D01*
X80184174Y-94694500D01*
X80184166Y-94694500D01*
X80053341Y-94711724D01*
X79926170Y-94745800D01*
X79804249Y-94796302D01*
X79804248Y-94796303D01*
X79690250Y-94862120D01*
X79690232Y-94862132D01*
X79585555Y-94942455D01*
X79585545Y-94942464D01*
X79492464Y-95035545D01*
X79492455Y-95035555D01*
X79412132Y-95140232D01*
X79412120Y-95140250D01*
X79346303Y-95254248D01*
X79346302Y-95254249D01*
X79295800Y-95376170D01*
X79261725Y-95503339D01*
X79258888Y-95524887D01*
X79230620Y-95588783D01*
X79172295Y-95627253D01*
X79102430Y-95628083D01*
X79048268Y-95596380D01*
X76830102Y-93378213D01*
X76830098Y-93378210D01*
X76825255Y-93374974D01*
X76780450Y-93321362D01*
X76771743Y-93252037D01*
X76801897Y-93189009D01*
X76806465Y-93184191D01*
X77422586Y-92568070D01*
X78412320Y-91578336D01*
X78473641Y-91544853D01*
X78543333Y-91549837D01*
X78587680Y-91578338D01*
X80053454Y-93044112D01*
X80090693Y-93068994D01*
X80168192Y-93120777D01*
X80295667Y-93173578D01*
X80295672Y-93173580D01*
X80295676Y-93173580D01*
X80295677Y-93173581D01*
X80431004Y-93200500D01*
X80431007Y-93200500D01*
X102158481Y-93200500D01*
X102225520Y-93220185D01*
X102246162Y-93236819D01*
X106763181Y-97753838D01*
X106796666Y-97815161D01*
X106799500Y-97841519D01*
X106799500Y-102931006D01*
X106799500Y-103068994D01*
X106799500Y-103068996D01*
X106799499Y-103068996D01*
X106826418Y-103204322D01*
X106826421Y-103204332D01*
X106879222Y-103331807D01*
X106955886Y-103446543D01*
X106955888Y-103446546D01*
X109113454Y-105604112D01*
X109228192Y-105680777D01*
X109355667Y-105733578D01*
X109355672Y-105733580D01*
X109355676Y-105733580D01*
X109355677Y-105733581D01*
X109491003Y-105760500D01*
X109491006Y-105760500D01*
X109491007Y-105760500D01*
X112036453Y-105760500D01*
X112103492Y-105780185D01*
X112136769Y-105811614D01*
X112151282Y-105831588D01*
X112229892Y-105939788D01*
X112380211Y-106090107D01*
X112451200Y-106141682D01*
X112508385Y-106183229D01*
X112551051Y-106238558D01*
X112559500Y-106283547D01*
X112559500Y-112200500D01*
X112539815Y-112267539D01*
X112487011Y-112313294D01*
X112435500Y-112324500D01*
X112407486Y-112324500D01*
X112367028Y-112330908D01*
X112224734Y-112353445D01*
X112048767Y-112410619D01*
X112048764Y-112410620D01*
X111883903Y-112494622D01*
X111814194Y-112545269D01*
X111734213Y-112603379D01*
X111734211Y-112603381D01*
X111734210Y-112603381D01*
X111603381Y-112734210D01*
X111603381Y-112734211D01*
X111603379Y-112734213D01*
X111564050Y-112788345D01*
X111494622Y-112883903D01*
X111410620Y-113048764D01*
X111410619Y-113048767D01*
X111353445Y-113224734D01*
X111324500Y-113407486D01*
X111324500Y-113592513D01*
X111353445Y-113775265D01*
X111410619Y-113951232D01*
X111410620Y-113951235D01*
X111483434Y-114094138D01*
X111494622Y-114116096D01*
X111603379Y-114265787D01*
X111734213Y-114396621D01*
X111883904Y-114505378D01*
X111964763Y-114546577D01*
X112048764Y-114589379D01*
X112048767Y-114589380D01*
X112122461Y-114613324D01*
X112224736Y-114646555D01*
X112407486Y-114675500D01*
X112407487Y-114675500D01*
X112592510Y-114675500D01*
X112592514Y-114675500D01*
X112609816Y-114672759D01*
X112679106Y-114681712D01*
X112716895Y-114707551D01*
X113455886Y-115446542D01*
X113553456Y-115544112D01*
X113553459Y-115544115D01*
X113668182Y-115620771D01*
X113668186Y-115620773D01*
X113668189Y-115620775D01*
X113742866Y-115651707D01*
X113795671Y-115673580D01*
X113822591Y-115678934D01*
X113919630Y-115698237D01*
X113931006Y-115700500D01*
X113931007Y-115700500D01*
X117220996Y-115700500D01*
X117329412Y-115678934D01*
X117356328Y-115673580D01*
X117420069Y-115647177D01*
X117483807Y-115620777D01*
X117483808Y-115620776D01*
X117483811Y-115620775D01*
X117598543Y-115544114D01*
X119544114Y-113598543D01*
X119620775Y-113483811D01*
X119623452Y-113477350D01*
X119659676Y-113389895D01*
X119673580Y-113356328D01*
X119689924Y-113274162D01*
X119700500Y-113220996D01*
X119700500Y-103881822D01*
X119673581Y-103746495D01*
X119673580Y-103746491D01*
X119673580Y-103746490D01*
X119672621Y-103744174D01*
X119658214Y-103709393D01*
X119645953Y-103679792D01*
X119643380Y-103673580D01*
X119636496Y-103656961D01*
X119620778Y-103619013D01*
X119620771Y-103619000D01*
X119544115Y-103504277D01*
X119496119Y-103456281D01*
X119446542Y-103406704D01*
X118550819Y-102510981D01*
X118030174Y-101990335D01*
X116934247Y-100894408D01*
X116917910Y-100864490D01*
X116901142Y-100834777D01*
X116901193Y-100833875D01*
X116900762Y-100833085D01*
X116903192Y-100799096D01*
X116905151Y-100765023D01*
X116905704Y-100763974D01*
X116905746Y-100763393D01*
X116921625Y-100733822D01*
X116923252Y-100731583D01*
X116978592Y-100688936D01*
X117023547Y-100680500D01*
X126978233Y-100680500D01*
X127045272Y-100700185D01*
X127078550Y-100731614D01*
X127093063Y-100751588D01*
X127103379Y-100765787D01*
X127234213Y-100896621D01*
X127296666Y-100941996D01*
X127308831Y-100950834D01*
X127323806Y-100970254D01*
X127953554Y-101600000D01*
X127947339Y-101600000D01*
X127845606Y-101627259D01*
X127754394Y-101679920D01*
X127679920Y-101754394D01*
X127627259Y-101845606D01*
X127600000Y-101947339D01*
X127600000Y-101953553D01*
X127010015Y-101363568D01*
X126995049Y-101384167D01*
X126911084Y-101548956D01*
X126911083Y-101548959D01*
X126853933Y-101724852D01*
X126825000Y-101907526D01*
X126825000Y-102092473D01*
X126853933Y-102275147D01*
X126911083Y-102451040D01*
X126911084Y-102451043D01*
X126995050Y-102615834D01*
X127010015Y-102636430D01*
X127010016Y-102636431D01*
X127600000Y-102046447D01*
X127600000Y-102052661D01*
X127627259Y-102154394D01*
X127679920Y-102245606D01*
X127754394Y-102320080D01*
X127845606Y-102372741D01*
X127947339Y-102400000D01*
X127953553Y-102400000D01*
X127363568Y-102989983D01*
X127363568Y-102989984D01*
X127384165Y-103004949D01*
X127548956Y-103088915D01*
X127548959Y-103088916D01*
X127724852Y-103146066D01*
X127907527Y-103175000D01*
X128092473Y-103175000D01*
X128275147Y-103146066D01*
X128451040Y-103088916D01*
X128451043Y-103088915D01*
X128615836Y-103004947D01*
X128615845Y-103004942D01*
X128636430Y-102989984D01*
X128636431Y-102989983D01*
X128046448Y-102400000D01*
X128052661Y-102400000D01*
X128154394Y-102372741D01*
X128245606Y-102320080D01*
X128320080Y-102245606D01*
X128372741Y-102154394D01*
X128400000Y-102052661D01*
X128400000Y-102046447D01*
X128989983Y-102636430D01*
X128989984Y-102636430D01*
X129004942Y-102615845D01*
X129004947Y-102615836D01*
X129088915Y-102451043D01*
X129088916Y-102451040D01*
X129146066Y-102275147D01*
X129175000Y-102092473D01*
X129175000Y-101907526D01*
X129146066Y-101724852D01*
X129088916Y-101548959D01*
X129088915Y-101548956D01*
X129004949Y-101384165D01*
X128989983Y-101363568D01*
X128400000Y-101953551D01*
X128400000Y-101947339D01*
X128372741Y-101845606D01*
X128320080Y-101754394D01*
X128245606Y-101679920D01*
X128154394Y-101627259D01*
X128052661Y-101600000D01*
X128046447Y-101600000D01*
X128660675Y-100985771D01*
X128691165Y-100950836D01*
X128765787Y-100896621D01*
X128896621Y-100765787D01*
X129005378Y-100616096D01*
X129089379Y-100451235D01*
X129146555Y-100275264D01*
X129175500Y-100092514D01*
X129175500Y-99907486D01*
X129146555Y-99724736D01*
X129100927Y-99584306D01*
X129089380Y-99548767D01*
X129089379Y-99548764D01*
X129039683Y-99451232D01*
X129005378Y-99383904D01*
X128921453Y-99268392D01*
X128897974Y-99202586D01*
X128913799Y-99134532D01*
X128947459Y-99096241D01*
X129032546Y-99032546D01*
X129118796Y-98917331D01*
X129169091Y-98782483D01*
X129175500Y-98722873D01*
X129175499Y-97277128D01*
X129169369Y-97220104D01*
X129169091Y-97217516D01*
X129118797Y-97082671D01*
X129118793Y-97082664D01*
X129032547Y-96967455D01*
X129032544Y-96967452D01*
X128917335Y-96881206D01*
X128917328Y-96881202D01*
X128782482Y-96830908D01*
X128782483Y-96830908D01*
X128722883Y-96824501D01*
X128722881Y-96824500D01*
X128722873Y-96824500D01*
X128722864Y-96824500D01*
X127277129Y-96824500D01*
X127277123Y-96824501D01*
X127217516Y-96830908D01*
X127082671Y-96881202D01*
X127082664Y-96881206D01*
X126967455Y-96967452D01*
X126967452Y-96967455D01*
X126881206Y-97082664D01*
X126881202Y-97082671D01*
X126830418Y-97218833D01*
X126788547Y-97274767D01*
X126723083Y-97299184D01*
X126714236Y-97299500D01*
X117250987Y-97299500D01*
X117183948Y-97279815D01*
X117138193Y-97227011D01*
X117128514Y-97194898D01*
X117123490Y-97163181D01*
X117117246Y-97123757D01*
X117051557Y-96921588D01*
X116955051Y-96732184D01*
X116955049Y-96732181D01*
X116955048Y-96732179D01*
X116830109Y-96560213D01*
X116716569Y-96446673D01*
X116683084Y-96385350D01*
X116688068Y-96315658D01*
X116729940Y-96259725D01*
X116760915Y-96242810D01*
X116892331Y-96193796D01*
X117007546Y-96107546D01*
X117093796Y-95992331D01*
X117144091Y-95857483D01*
X117150500Y-95797873D01*
X117150499Y-94002128D01*
X117144091Y-93942517D01*
X117142810Y-93939083D01*
X117093797Y-93807671D01*
X117093793Y-93807664D01*
X117007547Y-93692455D01*
X117007544Y-93692452D01*
X116892335Y-93606206D01*
X116892328Y-93606202D01*
X116757482Y-93555908D01*
X116757483Y-93555908D01*
X116697883Y-93549501D01*
X116697881Y-93549500D01*
X116697873Y-93549500D01*
X116697864Y-93549500D01*
X114902129Y-93549500D01*
X114902123Y-93549501D01*
X114842516Y-93555908D01*
X114707671Y-93606202D01*
X114707664Y-93606206D01*
X114592455Y-93692452D01*
X114592452Y-93692455D01*
X114506206Y-93807664D01*
X114506203Y-93807669D01*
X114457189Y-93939083D01*
X114415317Y-93995016D01*
X114349853Y-94019433D01*
X114281580Y-94004581D01*
X114253326Y-93983430D01*
X114139786Y-93869890D01*
X113967820Y-93744951D01*
X113778414Y-93648444D01*
X113778413Y-93648443D01*
X113778412Y-93648443D01*
X113576243Y-93582754D01*
X113576241Y-93582753D01*
X113576240Y-93582753D01*
X113414957Y-93557208D01*
X113366287Y-93549500D01*
X113153713Y-93549500D01*
X113105042Y-93557208D01*
X112943760Y-93582753D01*
X112741585Y-93648444D01*
X112552179Y-93744951D01*
X112380213Y-93869890D01*
X112229890Y-94020213D01*
X112104951Y-94192179D01*
X112008444Y-94381585D01*
X111942753Y-94583759D01*
X111930461Y-94661368D01*
X111900531Y-94724502D01*
X111841219Y-94761433D01*
X111771357Y-94760435D01*
X111720307Y-94729650D01*
X105946546Y-88955888D01*
X105946545Y-88955887D01*
X105831807Y-88879222D01*
X105704332Y-88826421D01*
X105704322Y-88826418D01*
X105568996Y-88799500D01*
X105568994Y-88799500D01*
X105568993Y-88799500D01*
X97621889Y-88799500D01*
X97554850Y-88779815D01*
X97509095Y-88727011D01*
X97499151Y-88657853D01*
X97528176Y-88594297D01*
X97534208Y-88587819D01*
X97587819Y-88534208D01*
X97644517Y-88477510D01*
X97783343Y-88286433D01*
X97890568Y-88075992D01*
X97963553Y-87851368D01*
X97965332Y-87840135D01*
X98000500Y-87618097D01*
X98000500Y-87381902D01*
X97963553Y-87148631D01*
X97915259Y-87000000D01*
X97890568Y-86924008D01*
X97890566Y-86924005D01*
X97890566Y-86924003D01*
X97814779Y-86775264D01*
X97783343Y-86713567D01*
X97644517Y-86522490D01*
X97477510Y-86355483D01*
X97471449Y-86351079D01*
X97351614Y-86264012D01*
X97308948Y-86208682D01*
X97300500Y-86163695D01*
X97300500Y-83836302D01*
X97320185Y-83769263D01*
X97351609Y-83735988D01*
X97477510Y-83644517D01*
X97644517Y-83477510D01*
X97783343Y-83286433D01*
X97890568Y-83075992D01*
X97963553Y-82851368D01*
X97980194Y-82746300D01*
X98000500Y-82618097D01*
X98000500Y-82381902D01*
X97963553Y-82148631D01*
X97890566Y-81924003D01*
X97794174Y-81734824D01*
X97783343Y-81713567D01*
X97699657Y-81598383D01*
X97676178Y-81532580D01*
X97692003Y-81464526D01*
X97742109Y-81415831D01*
X97799976Y-81401500D01*
X111859481Y-81401500D01*
X111926520Y-81421185D01*
X111947162Y-81437819D01*
X112954551Y-82445208D01*
X112988036Y-82506531D01*
X112983052Y-82576223D01*
X112941180Y-82632156D01*
X112891061Y-82654506D01*
X112751925Y-82682182D01*
X112751917Y-82682184D01*
X112597140Y-82746295D01*
X112597131Y-82746300D01*
X112548789Y-82778602D01*
X112482112Y-82799480D01*
X112479898Y-82799500D01*
X108520102Y-82799500D01*
X108453063Y-82779815D01*
X108451211Y-82778602D01*
X108402868Y-82746300D01*
X108402859Y-82746295D01*
X108248082Y-82682184D01*
X108248074Y-82682182D01*
X108083771Y-82649500D01*
X108083767Y-82649500D01*
X107916233Y-82649500D01*
X107916228Y-82649500D01*
X107751925Y-82682182D01*
X107751917Y-82682184D01*
X107597139Y-82746295D01*
X107457837Y-82839373D01*
X107339373Y-82957837D01*
X107246295Y-83097139D01*
X107182184Y-83251917D01*
X107182182Y-83251925D01*
X107149500Y-83416228D01*
X107149500Y-83583771D01*
X107182182Y-83748074D01*
X107182184Y-83748082D01*
X107246295Y-83902860D01*
X107339373Y-84042162D01*
X107457837Y-84160626D01*
X107494075Y-84184839D01*
X107597137Y-84253703D01*
X107751918Y-84317816D01*
X107916228Y-84350499D01*
X107916232Y-84350500D01*
X107916233Y-84350500D01*
X108083768Y-84350500D01*
X108083769Y-84350499D01*
X108248082Y-84317816D01*
X108402863Y-84253703D01*
X108451211Y-84221398D01*
X108517888Y-84200520D01*
X108520102Y-84200500D01*
X112479898Y-84200500D01*
X112546937Y-84220185D01*
X112548789Y-84221398D01*
X112597137Y-84253703D01*
X112751918Y-84317816D01*
X112916228Y-84350499D01*
X112916232Y-84350500D01*
X112916233Y-84350500D01*
X113083768Y-84350500D01*
X113083769Y-84350499D01*
X113248082Y-84317816D01*
X113402863Y-84253703D01*
X113542162Y-84160626D01*
X113660626Y-84042162D01*
X113753703Y-83902863D01*
X113817816Y-83748082D01*
X113845493Y-83608935D01*
X113877877Y-83547027D01*
X113938593Y-83512453D01*
X114008362Y-83516192D01*
X114054791Y-83545448D01*
X114763181Y-84253838D01*
X114796666Y-84315161D01*
X114799500Y-84341519D01*
X114799500Y-85492764D01*
X114779815Y-85559803D01*
X114762493Y-85581128D01*
X114755885Y-85587632D01*
X114734213Y-85603379D01*
X114603379Y-85734213D01*
X114594296Y-85746713D01*
X114586993Y-85753904D01*
X114564864Y-85765763D01*
X114544981Y-85781094D01*
X114534597Y-85781985D01*
X114525410Y-85786909D01*
X114500382Y-85784921D01*
X114475367Y-85787069D01*
X114466147Y-85782203D01*
X114455759Y-85781379D01*
X114435780Y-85766177D01*
X114413574Y-85754459D01*
X114400406Y-85739263D01*
X114400155Y-85739072D01*
X114400092Y-85738901D01*
X114399686Y-85738432D01*
X114398514Y-85736819D01*
X114396621Y-85734213D01*
X114265787Y-85603379D01*
X114116096Y-85494622D01*
X113951235Y-85410620D01*
X113951232Y-85410619D01*
X113775265Y-85353445D01*
X113632972Y-85330908D01*
X113592514Y-85324500D01*
X113407486Y-85324500D01*
X113367028Y-85330908D01*
X113224734Y-85353445D01*
X113048767Y-85410619D01*
X113048764Y-85410620D01*
X112883903Y-85494622D01*
X112840973Y-85525813D01*
X112734213Y-85603379D01*
X112734211Y-85603381D01*
X112734210Y-85603381D01*
X112603381Y-85734210D01*
X112600314Y-85738432D01*
X112544981Y-85781094D01*
X112475367Y-85787069D01*
X112413574Y-85754459D01*
X112399686Y-85738432D01*
X112398514Y-85736819D01*
X112396621Y-85734213D01*
X112265787Y-85603379D01*
X112116096Y-85494622D01*
X111951235Y-85410620D01*
X111951232Y-85410619D01*
X111775265Y-85353445D01*
X111632972Y-85330908D01*
X111592514Y-85324500D01*
X111407486Y-85324500D01*
X111367028Y-85330908D01*
X111224734Y-85353445D01*
X111048767Y-85410619D01*
X111048764Y-85410620D01*
X110883903Y-85494622D01*
X110840973Y-85525813D01*
X110734213Y-85603379D01*
X110734211Y-85603381D01*
X110734210Y-85603381D01*
X110603381Y-85734210D01*
X110603381Y-85734211D01*
X110603379Y-85734213D01*
X110565093Y-85786909D01*
X110494622Y-85883903D01*
X110410620Y-86048764D01*
X110410619Y-86048767D01*
X110353445Y-86224734D01*
X110324500Y-86407486D01*
X110324500Y-86592513D01*
X110353445Y-86775265D01*
X110410619Y-86951232D01*
X110410620Y-86951235D01*
X110472894Y-87073453D01*
X110494622Y-87116096D01*
X110603379Y-87265787D01*
X110734213Y-87396621D01*
X110883904Y-87505378D01*
X110937224Y-87532546D01*
X111048764Y-87589379D01*
X111048767Y-87589380D01*
X111136486Y-87617881D01*
X111224736Y-87646555D01*
X111407486Y-87675500D01*
X111407487Y-87675500D01*
X111592509Y-87675500D01*
X111592514Y-87675500D01*
X111609815Y-87672759D01*
X111679105Y-87681712D01*
X111716894Y-87707551D01*
X117763181Y-93753838D01*
X117796666Y-93815161D01*
X117799500Y-93841519D01*
X117799500Y-94479897D01*
X117779815Y-94546936D01*
X117778602Y-94548788D01*
X117746300Y-94597130D01*
X117746295Y-94597140D01*
X117682184Y-94751917D01*
X117682182Y-94751925D01*
X117649500Y-94916228D01*
X117649500Y-95083771D01*
X117682182Y-95248074D01*
X117682184Y-95248082D01*
X117746295Y-95402860D01*
X117839373Y-95542162D01*
X117957837Y-95660626D01*
X118016789Y-95700016D01*
X118097137Y-95753703D01*
X118251918Y-95817816D01*
X118416228Y-95850499D01*
X118416232Y-95850500D01*
X118416233Y-95850500D01*
X118583768Y-95850500D01*
X118583769Y-95850499D01*
X118748082Y-95817816D01*
X118902863Y-95753703D01*
X119042162Y-95660626D01*
X119160626Y-95542162D01*
X119253703Y-95402863D01*
X119317816Y-95248082D01*
X119350500Y-95083767D01*
X119350500Y-94916233D01*
X119317816Y-94751918D01*
X119253703Y-94597137D01*
X119253701Y-94597134D01*
X119253699Y-94597130D01*
X119221398Y-94548788D01*
X119200520Y-94482110D01*
X119200500Y-94479897D01*
X119200500Y-93431004D01*
X119173581Y-93295677D01*
X119173580Y-93295676D01*
X119173580Y-93295672D01*
X119154621Y-93249901D01*
X119120777Y-93168193D01*
X119120776Y-93168191D01*
X119120775Y-93168189D01*
X119107530Y-93148367D01*
X119050701Y-93063316D01*
X119044112Y-93053454D01*
X119044109Y-93053451D01*
X113814150Y-87823493D01*
X113780665Y-87762170D01*
X113785649Y-87692478D01*
X113827521Y-87636545D01*
X113863514Y-87617881D01*
X113951229Y-87589381D01*
X113951235Y-87589379D01*
X113997460Y-87565826D01*
X114116096Y-87505378D01*
X114265787Y-87396621D01*
X114396621Y-87265787D01*
X114399680Y-87261576D01*
X114455006Y-87218909D01*
X114524619Y-87212926D01*
X114586415Y-87245529D01*
X114600315Y-87261570D01*
X114603379Y-87265787D01*
X114734213Y-87396621D01*
X114883904Y-87505378D01*
X114937224Y-87532546D01*
X115048764Y-87589379D01*
X115048767Y-87589380D01*
X115136486Y-87617881D01*
X115224736Y-87646555D01*
X115407486Y-87675500D01*
X115407487Y-87675500D01*
X115592513Y-87675500D01*
X115592514Y-87675500D01*
X115775264Y-87646555D01*
X115951235Y-87589379D01*
X116116096Y-87505378D01*
X116231608Y-87421453D01*
X116297412Y-87397974D01*
X116365466Y-87413799D01*
X116403758Y-87447460D01*
X116467455Y-87532547D01*
X116582664Y-87618793D01*
X116582671Y-87618797D01*
X116717517Y-87669091D01*
X116717516Y-87669091D01*
X116724444Y-87669835D01*
X116777127Y-87675500D01*
X118222872Y-87675499D01*
X118282483Y-87669091D01*
X118417331Y-87618796D01*
X118532546Y-87532546D01*
X118618796Y-87417331D01*
X118669091Y-87282483D01*
X118675500Y-87222873D01*
X118675499Y-85777128D01*
X118669091Y-85717517D01*
X118655775Y-85681816D01*
X118618797Y-85582671D01*
X118618793Y-85582664D01*
X118532547Y-85467455D01*
X118532544Y-85467452D01*
X118417335Y-85381206D01*
X118417328Y-85381202D01*
X118282482Y-85330908D01*
X118282483Y-85330908D01*
X118222883Y-85324501D01*
X118222881Y-85324500D01*
X118222873Y-85324500D01*
X118222864Y-85324500D01*
X116777129Y-85324500D01*
X116777123Y-85324501D01*
X116717516Y-85330908D01*
X116582671Y-85381202D01*
X116582664Y-85381206D01*
X116467455Y-85467452D01*
X116423766Y-85525813D01*
X116367832Y-85567683D01*
X116298140Y-85572667D01*
X116236817Y-85539181D01*
X116203333Y-85477857D01*
X116200500Y-85451501D01*
X116200500Y-83931004D01*
X116173581Y-83795677D01*
X116173580Y-83795676D01*
X116173580Y-83795672D01*
X116172320Y-83792629D01*
X116120778Y-83668195D01*
X116120776Y-83668191D01*
X116120775Y-83668189D01*
X116064366Y-83583767D01*
X116064366Y-83583766D01*
X116044117Y-83553462D01*
X116044114Y-83553457D01*
X113202838Y-80712181D01*
X113169353Y-80650858D01*
X113174337Y-80581166D01*
X113216209Y-80525233D01*
X113281673Y-80500816D01*
X113290519Y-80500500D01*
X114434108Y-80500500D01*
X114498599Y-80500500D01*
X114501381Y-80500531D01*
G37*
%TD.AperFunction*%
%TA.AperFunction,Conductor*%
G36*
X69110644Y-115582685D02*
G01*
X69156399Y-115635489D01*
X69165222Y-115662809D01*
X69182182Y-115748074D01*
X69182184Y-115748082D01*
X69246295Y-115902860D01*
X69339373Y-116042162D01*
X69457837Y-116160626D01*
X69518380Y-116201079D01*
X69597137Y-116253703D01*
X69751918Y-116317816D01*
X69916228Y-116350499D01*
X69916232Y-116350500D01*
X69916233Y-116350500D01*
X70083768Y-116350500D01*
X70083769Y-116350499D01*
X70248082Y-116317816D01*
X70402863Y-116253703D01*
X70542162Y-116160626D01*
X70589094Y-116113694D01*
X70597038Y-116109355D01*
X70602465Y-116102107D01*
X70627226Y-116092871D01*
X70650417Y-116080208D01*
X70659446Y-116080853D01*
X70667929Y-116077690D01*
X70693749Y-116083306D01*
X70720108Y-116085192D01*
X70729162Y-116091010D01*
X70736202Y-116092542D01*
X70764447Y-116113685D01*
X70764457Y-116113692D01*
X70769478Y-116118713D01*
X70769480Y-116118716D01*
X70881284Y-116230520D01*
X70881286Y-116230521D01*
X70888356Y-116237591D01*
X71515139Y-116864374D01*
X71515149Y-116864385D01*
X71519479Y-116868715D01*
X71519480Y-116868716D01*
X71631284Y-116980520D01*
X71718095Y-117030639D01*
X71718097Y-117030641D01*
X71750935Y-117049600D01*
X71768215Y-117059577D01*
X71920943Y-117100500D01*
X72913331Y-117100500D01*
X72913347Y-117100501D01*
X72920943Y-117100501D01*
X73079054Y-117100501D01*
X73079057Y-117100501D01*
X73231785Y-117059577D01*
X73281904Y-117030639D01*
X73368716Y-116980520D01*
X73480520Y-116868716D01*
X73480521Y-116868714D01*
X73980520Y-116368716D01*
X74059577Y-116231784D01*
X74100501Y-116079057D01*
X74100501Y-115920942D01*
X74100501Y-115913347D01*
X74100500Y-115913329D01*
X74100500Y-115687000D01*
X74120185Y-115619961D01*
X74172989Y-115574206D01*
X74224500Y-115563000D01*
X75274599Y-115563000D01*
X75341638Y-115582685D01*
X75387393Y-115635489D01*
X75397337Y-115704647D01*
X75368312Y-115768203D01*
X75343490Y-115790102D01*
X75182218Y-115897860D01*
X75182214Y-115897863D01*
X75042863Y-116037214D01*
X75042860Y-116037218D01*
X74933371Y-116201079D01*
X74933364Y-116201092D01*
X74857950Y-116383160D01*
X74857947Y-116383170D01*
X74819500Y-116576456D01*
X74819500Y-116576459D01*
X74819500Y-117573541D01*
X74819500Y-117573543D01*
X74819499Y-117573543D01*
X74857947Y-117766829D01*
X74857950Y-117766839D01*
X74933364Y-117948907D01*
X74933371Y-117948920D01*
X74971918Y-118006609D01*
X74992796Y-118073287D01*
X74974311Y-118140667D01*
X74922333Y-118187357D01*
X74868816Y-118199500D01*
X68131184Y-118199500D01*
X68064145Y-118179815D01*
X68018390Y-118127011D01*
X68008446Y-118057853D01*
X68028082Y-118006609D01*
X68066628Y-117948920D01*
X68066628Y-117948919D01*
X68066632Y-117948914D01*
X68142051Y-117766835D01*
X68163849Y-117657250D01*
X68180500Y-117573543D01*
X68180500Y-116576456D01*
X68142052Y-116383170D01*
X68142051Y-116383169D01*
X68142051Y-116383165D01*
X68142049Y-116383160D01*
X68066635Y-116201092D01*
X68066628Y-116201079D01*
X67957139Y-116037218D01*
X67957136Y-116037214D01*
X67817785Y-115897863D01*
X67817781Y-115897860D01*
X67656510Y-115790102D01*
X67611705Y-115736490D01*
X67602998Y-115667165D01*
X67633152Y-115604137D01*
X67692595Y-115567418D01*
X67725401Y-115563000D01*
X69043605Y-115563000D01*
X69110644Y-115582685D01*
G37*
%TD.AperFunction*%
%TA.AperFunction,Conductor*%
G36*
X97118834Y-100115758D02*
G01*
X97174767Y-100157630D01*
X97199184Y-100223094D01*
X97199500Y-100231940D01*
X97199500Y-109617060D01*
X97179815Y-109684099D01*
X97163181Y-109704741D01*
X88704741Y-118163181D01*
X88643418Y-118196666D01*
X88617060Y-118199500D01*
X76771184Y-118199500D01*
X76704145Y-118179815D01*
X76658390Y-118127011D01*
X76648446Y-118057853D01*
X76668082Y-118006609D01*
X76706628Y-117948920D01*
X76706628Y-117948919D01*
X76706632Y-117948914D01*
X76782051Y-117766835D01*
X76803849Y-117657250D01*
X76820500Y-117573543D01*
X76820500Y-116576456D01*
X76782052Y-116383170D01*
X76782051Y-116383169D01*
X76782051Y-116383165D01*
X76782049Y-116383160D01*
X76706635Y-116201092D01*
X76706628Y-116201079D01*
X76597139Y-116037218D01*
X76597136Y-116037214D01*
X76457785Y-115897863D01*
X76457781Y-115897860D01*
X76296510Y-115790102D01*
X76251705Y-115736490D01*
X76242998Y-115667165D01*
X76273152Y-115604137D01*
X76332595Y-115567418D01*
X76365401Y-115563000D01*
X77073229Y-115563000D01*
X77140268Y-115582685D01*
X77174867Y-115617929D01*
X77175179Y-115617683D01*
X77177471Y-115620582D01*
X77178766Y-115621901D01*
X77179660Y-115623350D01*
X77301650Y-115745340D01*
X77448484Y-115835908D01*
X77612247Y-115890174D01*
X77713323Y-115900500D01*
X78286676Y-115900499D01*
X78286684Y-115900498D01*
X78286687Y-115900498D01*
X78342030Y-115894844D01*
X78387753Y-115890174D01*
X78551516Y-115835908D01*
X78698350Y-115745340D01*
X78820340Y-115623350D01*
X78910908Y-115476516D01*
X78965174Y-115312753D01*
X78975500Y-115211677D01*
X78975499Y-114613324D01*
X78965174Y-114512247D01*
X78910908Y-114348484D01*
X78820340Y-114201650D01*
X78706017Y-114087327D01*
X78672532Y-114026004D01*
X78677516Y-113956312D01*
X78706017Y-113911964D01*
X78819948Y-113798033D01*
X78910448Y-113651311D01*
X78910453Y-113651300D01*
X78964680Y-113487652D01*
X78974999Y-113386654D01*
X78975000Y-113386641D01*
X78975000Y-113337500D01*
X78124000Y-113337500D01*
X78056961Y-113317815D01*
X78011206Y-113265011D01*
X78000000Y-113213500D01*
X78000000Y-113087500D01*
X77874000Y-113087500D01*
X77806961Y-113067815D01*
X77761206Y-113015011D01*
X77750000Y-112963500D01*
X77750000Y-112837500D01*
X78250000Y-112837500D01*
X78974999Y-112837500D01*
X78974999Y-112788360D01*
X78974998Y-112788345D01*
X78964680Y-112687347D01*
X78910453Y-112523699D01*
X78910448Y-112523688D01*
X78819947Y-112376965D01*
X78819944Y-112376961D01*
X78698038Y-112255055D01*
X78698034Y-112255052D01*
X78551311Y-112164551D01*
X78551300Y-112164546D01*
X78387652Y-112110319D01*
X78286654Y-112100000D01*
X78250000Y-112100000D01*
X78250000Y-112837500D01*
X77750000Y-112837500D01*
X77750000Y-112100000D01*
X77713361Y-112100000D01*
X77713343Y-112100001D01*
X77612347Y-112110319D01*
X77448699Y-112164546D01*
X77448688Y-112164551D01*
X77301965Y-112255052D01*
X77301961Y-112255055D01*
X77180055Y-112376961D01*
X77180052Y-112376965D01*
X77089551Y-112523688D01*
X77089546Y-112523699D01*
X77062206Y-112606208D01*
X77022433Y-112663653D01*
X76957918Y-112690476D01*
X76889142Y-112678161D01*
X76837942Y-112630618D01*
X76820500Y-112567204D01*
X76820500Y-112226456D01*
X76782052Y-112033170D01*
X76782051Y-112033169D01*
X76782051Y-112033165D01*
X76770866Y-112006162D01*
X76706635Y-111851092D01*
X76706628Y-111851079D01*
X76597139Y-111687218D01*
X76597136Y-111687214D01*
X76457785Y-111547863D01*
X76457781Y-111547860D01*
X76293920Y-111438371D01*
X76293907Y-111438364D01*
X76111839Y-111362950D01*
X76111829Y-111362947D01*
X75918543Y-111324500D01*
X75918541Y-111324500D01*
X75721459Y-111324500D01*
X75721457Y-111324500D01*
X75528166Y-111362948D01*
X75528160Y-111362950D01*
X75523863Y-111364730D01*
X75454394Y-111372195D01*
X75391916Y-111340916D01*
X75377150Y-111324476D01*
X75357190Y-111297812D01*
X75357186Y-111297809D01*
X75242088Y-111211647D01*
X75242086Y-111211645D01*
X75188594Y-111191694D01*
X75132660Y-111149823D01*
X75114000Y-111099794D01*
X75108243Y-111084359D01*
X75109176Y-111080072D01*
X75123095Y-111016085D01*
X75144241Y-110987835D01*
X75251234Y-110880842D01*
X75291454Y-110853968D01*
X75426547Y-110798013D01*
X75574035Y-110699464D01*
X75699464Y-110574035D01*
X75798013Y-110426547D01*
X75853968Y-110291454D01*
X75880844Y-110251232D01*
X77839435Y-108292641D01*
X77900754Y-108259159D01*
X77970446Y-108264143D01*
X78026379Y-108306015D01*
X78044818Y-108341320D01*
X78089547Y-108476302D01*
X78089551Y-108476311D01*
X78180052Y-108623034D01*
X78180055Y-108623038D01*
X78301961Y-108744944D01*
X78301965Y-108744947D01*
X78448688Y-108835448D01*
X78448699Y-108835453D01*
X78612347Y-108889680D01*
X78713352Y-108899999D01*
X78750000Y-108899999D01*
X79250000Y-108899999D01*
X79286640Y-108899999D01*
X79286654Y-108899998D01*
X79387652Y-108889680D01*
X79551300Y-108835453D01*
X79551311Y-108835448D01*
X79698034Y-108744947D01*
X79698038Y-108744944D01*
X79819943Y-108623039D01*
X79894461Y-108502228D01*
X79946409Y-108455504D01*
X80015372Y-108444282D01*
X80079454Y-108472125D01*
X80105539Y-108502228D01*
X80180056Y-108623039D01*
X80301961Y-108744944D01*
X80301965Y-108744947D01*
X80448688Y-108835448D01*
X80448699Y-108835453D01*
X80612347Y-108889680D01*
X80713352Y-108899999D01*
X80750000Y-108899999D01*
X81250000Y-108899999D01*
X81286640Y-108899999D01*
X81286654Y-108899998D01*
X81387652Y-108889680D01*
X81551300Y-108835453D01*
X81551311Y-108835448D01*
X81698034Y-108744947D01*
X81698038Y-108744944D01*
X81819944Y-108623038D01*
X81819947Y-108623034D01*
X81910448Y-108476311D01*
X81910453Y-108476300D01*
X81964680Y-108312652D01*
X81974999Y-108211654D01*
X81975000Y-108211641D01*
X81975000Y-108112500D01*
X81250000Y-108112500D01*
X81250000Y-108899999D01*
X80750000Y-108899999D01*
X80750000Y-108112500D01*
X79250000Y-108112500D01*
X79250000Y-108899999D01*
X78750000Y-108899999D01*
X78750000Y-107986500D01*
X78769685Y-107919461D01*
X78822489Y-107873706D01*
X78874000Y-107862500D01*
X79000000Y-107862500D01*
X79000000Y-107736500D01*
X79019685Y-107669461D01*
X79072489Y-107623706D01*
X79124000Y-107612500D01*
X81974999Y-107612500D01*
X81974999Y-107513360D01*
X81974998Y-107513345D01*
X81964680Y-107412347D01*
X81910453Y-107248699D01*
X81910448Y-107248688D01*
X81819947Y-107101965D01*
X81819944Y-107101961D01*
X81806017Y-107088034D01*
X81772532Y-107026711D01*
X81777516Y-106957019D01*
X81791496Y-106930134D01*
X81797950Y-106920739D01*
X81820340Y-106898350D01*
X81881849Y-106798624D01*
X81883573Y-106796117D01*
X81891031Y-106790045D01*
X81916895Y-106763227D01*
X81921723Y-106760001D01*
X81922789Y-106759289D01*
X83295259Y-105386817D01*
X83356582Y-105353333D01*
X83382940Y-105350499D01*
X84151123Y-105350499D01*
X84151123Y-105350498D01*
X84193889Y-105347600D01*
X84378693Y-105301641D01*
X84549296Y-105217030D01*
X84697722Y-105097722D01*
X84753353Y-105028514D01*
X84810696Y-104988595D01*
X84880518Y-104986015D01*
X84940651Y-105021594D01*
X84946647Y-105028514D01*
X85002277Y-105097721D01*
X85002278Y-105097722D01*
X85153187Y-105219026D01*
X85193106Y-105276369D01*
X85199500Y-105315673D01*
X85199500Y-108525500D01*
X85179815Y-108592539D01*
X85127011Y-108638294D01*
X85075500Y-108649500D01*
X84541971Y-108649500D01*
X84541965Y-108649500D01*
X84541964Y-108649501D01*
X84530316Y-108650536D01*
X84422584Y-108660113D01*
X84226954Y-108716089D01*
X84171709Y-108744947D01*
X84046593Y-108810302D01*
X84046591Y-108810303D01*
X84046590Y-108810304D01*
X83888890Y-108938890D01*
X83760304Y-109096590D01*
X83760302Y-109096593D01*
X83721439Y-109170992D01*
X83666089Y-109276954D01*
X83610114Y-109472583D01*
X83610113Y-109472586D01*
X83599500Y-109591966D01*
X83599500Y-110708028D01*
X83599500Y-110708033D01*
X83599501Y-110708036D01*
X83599622Y-110709394D01*
X83610113Y-110827415D01*
X83666089Y-111023045D01*
X83666090Y-111023048D01*
X83666091Y-111023049D01*
X83760302Y-111203407D01*
X83787699Y-111237007D01*
X83888890Y-111361109D01*
X83926995Y-111392179D01*
X84046593Y-111489698D01*
X84226951Y-111583909D01*
X84422582Y-111639886D01*
X84541963Y-111650500D01*
X87458036Y-111650499D01*
X87577418Y-111639886D01*
X87773049Y-111583909D01*
X87953407Y-111489698D01*
X88111109Y-111361109D01*
X88239698Y-111203407D01*
X88333909Y-111023049D01*
X88389886Y-110827418D01*
X88400500Y-110708037D01*
X88400499Y-109591964D01*
X88389886Y-109472582D01*
X88333909Y-109276951D01*
X88239698Y-109096593D01*
X88174557Y-109016704D01*
X88111109Y-108938890D01*
X87984246Y-108835448D01*
X87953407Y-108810302D01*
X87773049Y-108716091D01*
X87773048Y-108716090D01*
X87773045Y-108716089D01*
X87655829Y-108682550D01*
X87577418Y-108660114D01*
X87577415Y-108660113D01*
X87577413Y-108660113D01*
X87504631Y-108653642D01*
X87458037Y-108649500D01*
X87458033Y-108649500D01*
X86924500Y-108649500D01*
X86857461Y-108629815D01*
X86811706Y-108577011D01*
X86800500Y-108525500D01*
X86800500Y-108211654D01*
X90025001Y-108211654D01*
X90035319Y-108312652D01*
X90089546Y-108476300D01*
X90089551Y-108476311D01*
X90180052Y-108623034D01*
X90180055Y-108623038D01*
X90301961Y-108744944D01*
X90301965Y-108744947D01*
X90448688Y-108835448D01*
X90448699Y-108835453D01*
X90612347Y-108889680D01*
X90713352Y-108899999D01*
X90750000Y-108899999D01*
X91250000Y-108899999D01*
X91286640Y-108899999D01*
X91286654Y-108899998D01*
X91387652Y-108889680D01*
X91551300Y-108835453D01*
X91551311Y-108835448D01*
X91698034Y-108744947D01*
X91698038Y-108744944D01*
X91819943Y-108623039D01*
X91894461Y-108502228D01*
X91946409Y-108455504D01*
X92015372Y-108444282D01*
X92079454Y-108472125D01*
X92105539Y-108502228D01*
X92180056Y-108623039D01*
X92301961Y-108744944D01*
X92301965Y-108744947D01*
X92448688Y-108835448D01*
X92448699Y-108835453D01*
X92612347Y-108889680D01*
X92713352Y-108899999D01*
X92750000Y-108899999D01*
X93250000Y-108899999D01*
X93286640Y-108899999D01*
X93286654Y-108899998D01*
X93387652Y-108889680D01*
X93551300Y-108835453D01*
X93551311Y-108835448D01*
X93698034Y-108744947D01*
X93698038Y-108744944D01*
X93819944Y-108623038D01*
X93819947Y-108623034D01*
X93910448Y-108476311D01*
X93910453Y-108476300D01*
X93964680Y-108312652D01*
X93974999Y-108211654D01*
X93975000Y-108211641D01*
X93975000Y-108112500D01*
X93250000Y-108112500D01*
X93250000Y-108899999D01*
X92750000Y-108899999D01*
X92750000Y-108112500D01*
X91250000Y-108112500D01*
X91250000Y-108899999D01*
X90750000Y-108899999D01*
X90750000Y-108112500D01*
X90025001Y-108112500D01*
X90025001Y-108211654D01*
X86800500Y-108211654D01*
X86800500Y-107062000D01*
X86820185Y-106994961D01*
X86872989Y-106949206D01*
X86924500Y-106938000D01*
X90059013Y-106938000D01*
X90126052Y-106957685D01*
X90171807Y-107010489D01*
X90181751Y-107079647D01*
X90164551Y-107127097D01*
X90089551Y-107248688D01*
X90089546Y-107248699D01*
X90035319Y-107412347D01*
X90025000Y-107513345D01*
X90025000Y-107612500D01*
X93974999Y-107612500D01*
X93974999Y-107513360D01*
X93974998Y-107513345D01*
X93964680Y-107412347D01*
X93910453Y-107248699D01*
X93910448Y-107248688D01*
X93819947Y-107101965D01*
X93819944Y-107101961D01*
X93806017Y-107088034D01*
X93772532Y-107026711D01*
X93777516Y-106957019D01*
X93806017Y-106912672D01*
X93820340Y-106898350D01*
X93910908Y-106751516D01*
X93965174Y-106587753D01*
X93975500Y-106486677D01*
X93975499Y-105788324D01*
X93973377Y-105767555D01*
X93965174Y-105687247D01*
X93953758Y-105652796D01*
X93910908Y-105523484D01*
X93820340Y-105376650D01*
X93820338Y-105376648D01*
X93818961Y-105374415D01*
X93800500Y-105309318D01*
X93800500Y-103382940D01*
X93820185Y-103315901D01*
X93836819Y-103295259D01*
X96987819Y-100144259D01*
X97049142Y-100110774D01*
X97118834Y-100115758D01*
G37*
%TD.AperFunction*%
%TA.AperFunction,Conductor*%
G36*
X117171320Y-103115362D02*
G01*
X117187557Y-103129031D01*
X118263181Y-104204655D01*
X118296666Y-104265978D01*
X118299500Y-104292336D01*
X118299500Y-112810480D01*
X118279815Y-112877519D01*
X118263181Y-112898161D01*
X117887180Y-113274162D01*
X117825857Y-113307647D01*
X117756165Y-113302663D01*
X117700232Y-113260791D01*
X117675815Y-113195327D01*
X117675499Y-113186481D01*
X117675499Y-112777129D01*
X117675498Y-112777123D01*
X117669091Y-112717516D01*
X117618797Y-112582671D01*
X117618793Y-112582664D01*
X117532547Y-112467455D01*
X117532544Y-112467452D01*
X117417335Y-112381206D01*
X117417328Y-112381202D01*
X117282482Y-112330908D01*
X117282483Y-112330908D01*
X117222883Y-112324501D01*
X117222881Y-112324500D01*
X117222873Y-112324500D01*
X117222864Y-112324500D01*
X115777129Y-112324500D01*
X115777123Y-112324501D01*
X115717516Y-112330908D01*
X115582671Y-112381202D01*
X115582664Y-112381206D01*
X115467455Y-112467452D01*
X115403758Y-112552539D01*
X115347823Y-112594410D01*
X115278132Y-112599393D01*
X115231607Y-112578545D01*
X115116099Y-112494624D01*
X115116098Y-112494623D01*
X115116096Y-112494622D01*
X115048351Y-112460104D01*
X114951235Y-112410620D01*
X114951232Y-112410619D01*
X114775265Y-112353445D01*
X114632972Y-112330908D01*
X114592514Y-112324500D01*
X114407486Y-112324500D01*
X114407482Y-112324500D01*
X114390179Y-112327240D01*
X114320886Y-112318283D01*
X114283104Y-112292447D01*
X113996819Y-112006162D01*
X113963334Y-111944839D01*
X113960500Y-111918481D01*
X113960500Y-106283547D01*
X113980185Y-106216508D01*
X114011614Y-106183230D01*
X114139792Y-106090104D01*
X114290104Y-105939792D01*
X114290106Y-105939788D01*
X114290109Y-105939786D01*
X114368718Y-105831588D01*
X114415051Y-105767816D01*
X114419793Y-105758508D01*
X114467763Y-105707711D01*
X114535583Y-105690911D01*
X114601719Y-105713445D01*
X114640763Y-105758500D01*
X114645377Y-105767555D01*
X114770272Y-105939459D01*
X114770276Y-105939464D01*
X114920535Y-106089723D01*
X114920540Y-106089727D01*
X115092442Y-106214620D01*
X115281782Y-106311095D01*
X115483871Y-106376757D01*
X115550000Y-106387231D01*
X115550000Y-105493012D01*
X115607007Y-105525925D01*
X115734174Y-105560000D01*
X115865826Y-105560000D01*
X115992993Y-105525925D01*
X116050000Y-105493012D01*
X116050000Y-106387230D01*
X116116126Y-106376757D01*
X116116129Y-106376757D01*
X116318217Y-106311095D01*
X116507557Y-106214620D01*
X116679459Y-106089727D01*
X116679464Y-106089723D01*
X116829723Y-105939464D01*
X116829727Y-105939459D01*
X116954620Y-105767557D01*
X117051095Y-105578217D01*
X117116757Y-105376129D01*
X117116757Y-105376126D01*
X117127231Y-105310000D01*
X116233012Y-105310000D01*
X116265925Y-105252993D01*
X116300000Y-105125826D01*
X116300000Y-104994174D01*
X116265925Y-104867007D01*
X116233012Y-104810000D01*
X117127231Y-104810000D01*
X117116757Y-104743873D01*
X117116757Y-104743870D01*
X117051095Y-104541782D01*
X116954620Y-104352442D01*
X116829727Y-104180540D01*
X116829723Y-104180535D01*
X116679464Y-104030276D01*
X116679459Y-104030272D01*
X116507555Y-103905377D01*
X116498500Y-103900763D01*
X116447706Y-103852788D01*
X116430912Y-103784966D01*
X116453451Y-103718832D01*
X116498508Y-103679793D01*
X116507816Y-103675051D01*
X116611116Y-103600000D01*
X116679786Y-103550109D01*
X116679788Y-103550106D01*
X116679792Y-103550104D01*
X116830104Y-103399792D01*
X116830106Y-103399788D01*
X116830109Y-103399786D01*
X116955048Y-103227820D01*
X116955047Y-103227820D01*
X116955051Y-103227816D01*
X116989393Y-103160415D01*
X117037364Y-103109622D01*
X117105185Y-103092826D01*
X117171320Y-103115362D01*
G37*
%TD.AperFunction*%
%TA.AperFunction,Conductor*%
G36*
X56321575Y-109082993D02*
G01*
X56387401Y-109197007D01*
X56480493Y-109290099D01*
X56594507Y-109355925D01*
X56658091Y-109372962D01*
X56057471Y-109973581D01*
X56136211Y-110090895D01*
X56137420Y-110094729D01*
X56140344Y-110097491D01*
X56147843Y-110127778D01*
X56157227Y-110157529D01*
X56156171Y-110161408D01*
X56157138Y-110165312D01*
X56147073Y-110194844D01*
X56138883Y-110224947D01*
X56135897Y-110227640D01*
X56134600Y-110231447D01*
X56089551Y-110270483D01*
X56079940Y-110275380D01*
X56025782Y-110314727D01*
X56025782Y-110314728D01*
X56658091Y-110947037D01*
X56594507Y-110964075D01*
X56480493Y-111029901D01*
X56387401Y-111122993D01*
X56321575Y-111237007D01*
X56304537Y-111300591D01*
X55672228Y-110668282D01*
X55672227Y-110668282D01*
X55632880Y-110722440D01*
X55632876Y-110722446D01*
X55628260Y-110731505D01*
X55580281Y-110782297D01*
X55512459Y-110799087D01*
X55446326Y-110776543D01*
X55407294Y-110731493D01*
X55402551Y-110722184D01*
X55402549Y-110722181D01*
X55402548Y-110722179D01*
X55277609Y-110550213D01*
X55127286Y-110399890D01*
X54955320Y-110274951D01*
X54954615Y-110274591D01*
X54946554Y-110270485D01*
X54895759Y-110222512D01*
X54878963Y-110154692D01*
X54901499Y-110088556D01*
X54946554Y-110049515D01*
X54955316Y-110045051D01*
X55010070Y-110005270D01*
X55127286Y-109920109D01*
X55127288Y-109920106D01*
X55127292Y-109920104D01*
X55277604Y-109769792D01*
X55277606Y-109769788D01*
X55277609Y-109769786D01*
X55363390Y-109651717D01*
X55402551Y-109597816D01*
X55407293Y-109588508D01*
X55455263Y-109537711D01*
X55523083Y-109520911D01*
X55589219Y-109543445D01*
X55628263Y-109588500D01*
X55632873Y-109597547D01*
X55672228Y-109651716D01*
X56304537Y-109019408D01*
X56321575Y-109082993D01*
G37*
%TD.AperFunction*%
%TA.AperFunction,Conductor*%
G36*
X76950703Y-99583227D02*
G01*
X76957181Y-99589259D01*
X79378211Y-102010289D01*
X79439650Y-102071728D01*
X79489712Y-102121790D01*
X79620814Y-102209390D01*
X79620818Y-102209392D01*
X79620821Y-102209394D01*
X79723484Y-102251918D01*
X79723485Y-102251918D01*
X79723487Y-102251920D01*
X79766497Y-102269735D01*
X79766502Y-102269737D01*
X79919166Y-102300104D01*
X79921152Y-102300499D01*
X79921155Y-102300500D01*
X79921157Y-102300500D01*
X79921158Y-102300500D01*
X82725523Y-102300500D01*
X82792562Y-102320185D01*
X82838317Y-102372989D01*
X82848261Y-102442147D01*
X82819236Y-102505703D01*
X82803211Y-102521145D01*
X82779755Y-102540000D01*
X82702278Y-102602277D01*
X82702277Y-102602278D01*
X82582969Y-102750704D01*
X82582967Y-102750707D01*
X82498360Y-102921302D01*
X82452400Y-103106107D01*
X82449500Y-103148879D01*
X82449500Y-103917059D01*
X82429815Y-103984098D01*
X82413181Y-104004740D01*
X81354739Y-105063181D01*
X81293416Y-105096666D01*
X81267058Y-105099500D01*
X80713330Y-105099500D01*
X80713312Y-105099501D01*
X80612247Y-105109825D01*
X80448484Y-105164092D01*
X80448481Y-105164093D01*
X80301648Y-105254661D01*
X80255629Y-105300681D01*
X80194306Y-105334166D01*
X80167948Y-105337000D01*
X79832052Y-105337000D01*
X79765013Y-105317315D01*
X79744371Y-105300681D01*
X79698351Y-105254661D01*
X79698350Y-105254660D01*
X79601543Y-105194949D01*
X79551518Y-105164093D01*
X79551513Y-105164091D01*
X79501867Y-105147640D01*
X79387753Y-105109826D01*
X79387751Y-105109825D01*
X79286678Y-105099500D01*
X78713330Y-105099500D01*
X78713312Y-105099501D01*
X78612247Y-105109825D01*
X78448484Y-105164092D01*
X78448481Y-105164093D01*
X78301648Y-105254661D01*
X78179661Y-105376648D01*
X78089093Y-105523481D01*
X78089091Y-105523486D01*
X78067620Y-105588282D01*
X78034826Y-105687247D01*
X78034826Y-105687248D01*
X78034825Y-105687248D01*
X78024500Y-105788315D01*
X78024500Y-105792059D01*
X78004815Y-105859098D01*
X77988181Y-105879740D01*
X74748769Y-109119151D01*
X74741837Y-109123782D01*
X74738894Y-109128022D01*
X74708540Y-109146031D01*
X74649647Y-109170425D01*
X74580178Y-109177894D01*
X74517699Y-109146619D01*
X74482047Y-109086530D01*
X74484541Y-109016704D01*
X74494808Y-108993864D01*
X74534577Y-108924982D01*
X74575501Y-108772255D01*
X74575501Y-108614140D01*
X74575501Y-108606545D01*
X74575500Y-108606527D01*
X74575500Y-103765128D01*
X74575499Y-103765121D01*
X74573562Y-103757894D01*
X74570507Y-103746489D01*
X74534577Y-103612398D01*
X74495153Y-103544114D01*
X74455520Y-103475467D01*
X74343716Y-103363663D01*
X74343715Y-103363662D01*
X74339385Y-103359332D01*
X74339374Y-103359322D01*
X73673575Y-102693523D01*
X73640090Y-102632200D01*
X73645074Y-102562508D01*
X73673575Y-102518161D01*
X73738727Y-102453009D01*
X73885520Y-102306217D01*
X73964577Y-102169285D01*
X74005501Y-102016558D01*
X74005501Y-101965907D01*
X74025186Y-101898868D01*
X74077990Y-101853113D01*
X74147148Y-101843169D01*
X74192620Y-101859174D01*
X74264602Y-101901744D01*
X74284504Y-101907526D01*
X74422426Y-101947597D01*
X74422429Y-101947597D01*
X74422431Y-101947598D01*
X74459306Y-101950500D01*
X74459314Y-101950500D01*
X74890686Y-101950500D01*
X74890694Y-101950500D01*
X74927569Y-101947598D01*
X74927571Y-101947597D01*
X74927573Y-101947597D01*
X75010703Y-101923445D01*
X75085398Y-101901744D01*
X75226865Y-101818081D01*
X75226870Y-101818075D01*
X75233031Y-101813298D01*
X75234933Y-101815750D01*
X75283579Y-101789155D01*
X75353274Y-101794104D01*
X75385695Y-101814940D01*
X75386969Y-101813298D01*
X75393132Y-101818078D01*
X75393135Y-101818081D01*
X75534602Y-101901744D01*
X75554504Y-101907526D01*
X75692426Y-101947597D01*
X75692429Y-101947597D01*
X75692431Y-101947598D01*
X75729306Y-101950500D01*
X75729314Y-101950500D01*
X76160686Y-101950500D01*
X76160694Y-101950500D01*
X76197569Y-101947598D01*
X76197571Y-101947597D01*
X76197573Y-101947597D01*
X76280703Y-101923445D01*
X76355398Y-101901744D01*
X76496865Y-101818081D01*
X76613081Y-101701865D01*
X76696744Y-101560398D01*
X76742598Y-101402569D01*
X76745500Y-101365694D01*
X76745500Y-99676940D01*
X76765185Y-99609901D01*
X76817989Y-99564146D01*
X76887147Y-99554202D01*
X76950703Y-99583227D01*
G37*
%TD.AperFunction*%
%TA.AperFunction,Conductor*%
G36*
X56321575Y-106542993D02*
G01*
X56387401Y-106657007D01*
X56480493Y-106750099D01*
X56594507Y-106815925D01*
X56658091Y-106832962D01*
X56057471Y-107433581D01*
X56136211Y-107550895D01*
X56137420Y-107554729D01*
X56140344Y-107557491D01*
X56147843Y-107587778D01*
X56157227Y-107617529D01*
X56156171Y-107621408D01*
X56157138Y-107625312D01*
X56147073Y-107654844D01*
X56138883Y-107684947D01*
X56135897Y-107687640D01*
X56134600Y-107691447D01*
X56089551Y-107730483D01*
X56079940Y-107735380D01*
X56025782Y-107774727D01*
X56025782Y-107774728D01*
X56658091Y-108407037D01*
X56594507Y-108424075D01*
X56480493Y-108489901D01*
X56387401Y-108582993D01*
X56321575Y-108697007D01*
X56304537Y-108760591D01*
X55672228Y-108128282D01*
X55672227Y-108128282D01*
X55632880Y-108182440D01*
X55632876Y-108182446D01*
X55628260Y-108191505D01*
X55580281Y-108242297D01*
X55512459Y-108259087D01*
X55446326Y-108236543D01*
X55407294Y-108191493D01*
X55402551Y-108182184D01*
X55402549Y-108182181D01*
X55402548Y-108182179D01*
X55277609Y-108010213D01*
X55127286Y-107859890D01*
X54955320Y-107734951D01*
X54954615Y-107734591D01*
X54946554Y-107730485D01*
X54895759Y-107682512D01*
X54878963Y-107614692D01*
X54901499Y-107548556D01*
X54946554Y-107509515D01*
X54955316Y-107505051D01*
X55010070Y-107465270D01*
X55127286Y-107380109D01*
X55127288Y-107380106D01*
X55127292Y-107380104D01*
X55277604Y-107229792D01*
X55277606Y-107229788D01*
X55277609Y-107229786D01*
X55363390Y-107111717D01*
X55402551Y-107057816D01*
X55407293Y-107048508D01*
X55455263Y-106997711D01*
X55523083Y-106980911D01*
X55589219Y-107003445D01*
X55628263Y-107048500D01*
X55632873Y-107057547D01*
X55672228Y-107111716D01*
X56304537Y-106479408D01*
X56321575Y-106542993D01*
G37*
%TD.AperFunction*%
%TA.AperFunction,Conductor*%
G36*
X56321575Y-104002993D02*
G01*
X56387401Y-104117007D01*
X56480493Y-104210099D01*
X56594507Y-104275925D01*
X56658091Y-104292962D01*
X56057471Y-104893581D01*
X56136211Y-105010895D01*
X56137420Y-105014729D01*
X56140344Y-105017491D01*
X56147843Y-105047778D01*
X56157227Y-105077529D01*
X56156171Y-105081408D01*
X56157138Y-105085312D01*
X56147073Y-105114844D01*
X56138883Y-105144947D01*
X56135897Y-105147640D01*
X56134600Y-105151447D01*
X56089551Y-105190483D01*
X56079940Y-105195380D01*
X56025782Y-105234727D01*
X56025782Y-105234728D01*
X56658091Y-105867037D01*
X56594507Y-105884075D01*
X56480493Y-105949901D01*
X56387401Y-106042993D01*
X56321575Y-106157007D01*
X56304537Y-106220591D01*
X55672228Y-105588282D01*
X55672227Y-105588282D01*
X55632880Y-105642440D01*
X55632876Y-105642446D01*
X55628260Y-105651505D01*
X55580281Y-105702297D01*
X55512459Y-105719087D01*
X55446326Y-105696543D01*
X55407294Y-105651493D01*
X55402551Y-105642184D01*
X55402549Y-105642181D01*
X55402548Y-105642179D01*
X55277609Y-105470213D01*
X55127286Y-105319890D01*
X54955320Y-105194951D01*
X54954615Y-105194591D01*
X54946554Y-105190485D01*
X54895759Y-105142512D01*
X54878963Y-105074692D01*
X54901499Y-105008556D01*
X54946554Y-104969515D01*
X54955316Y-104965051D01*
X55068333Y-104882940D01*
X55127286Y-104840109D01*
X55127288Y-104840106D01*
X55127292Y-104840104D01*
X55277604Y-104689792D01*
X55277606Y-104689788D01*
X55277609Y-104689786D01*
X55363390Y-104571717D01*
X55402551Y-104517816D01*
X55407293Y-104508508D01*
X55455263Y-104457711D01*
X55523083Y-104440911D01*
X55589219Y-104463445D01*
X55628263Y-104508500D01*
X55632873Y-104517547D01*
X55672228Y-104571716D01*
X56304537Y-103939408D01*
X56321575Y-104002993D01*
G37*
%TD.AperFunction*%
%TA.AperFunction,Conductor*%
G36*
X91184099Y-102320185D02*
G01*
X91204741Y-102336819D01*
X92163181Y-103295259D01*
X92196666Y-103356582D01*
X92199500Y-103382940D01*
X92199500Y-105213000D01*
X92196949Y-105221685D01*
X92198238Y-105230647D01*
X92187259Y-105254687D01*
X92179815Y-105280039D01*
X92172974Y-105285966D01*
X92169213Y-105294203D01*
X92146978Y-105308492D01*
X92127011Y-105325794D01*
X92116496Y-105328081D01*
X92110435Y-105331977D01*
X92075500Y-105337000D01*
X91832052Y-105337000D01*
X91765013Y-105317315D01*
X91744371Y-105300681D01*
X91698351Y-105254661D01*
X91698350Y-105254660D01*
X91601543Y-105194949D01*
X91551518Y-105164093D01*
X91551513Y-105164091D01*
X91501867Y-105147640D01*
X91387753Y-105109826D01*
X91387751Y-105109825D01*
X91286678Y-105099500D01*
X90713330Y-105099500D01*
X90713312Y-105099501D01*
X90612247Y-105109825D01*
X90448484Y-105164092D01*
X90448481Y-105164093D01*
X90301648Y-105254661D01*
X90255629Y-105300681D01*
X90194306Y-105334166D01*
X90167948Y-105337000D01*
X89351434Y-105337000D01*
X89284395Y-105317315D01*
X89238640Y-105264511D01*
X89228696Y-105195353D01*
X89257721Y-105131797D01*
X89273747Y-105116352D01*
X89297369Y-105097364D01*
X89416607Y-104949025D01*
X89416609Y-104949022D01*
X89501168Y-104778523D01*
X89547102Y-104593824D01*
X89550000Y-104551096D01*
X89550000Y-104100000D01*
X88424000Y-104100000D01*
X88356961Y-104080315D01*
X88311206Y-104027511D01*
X88300000Y-103976000D01*
X88300000Y-103724000D01*
X88319685Y-103656961D01*
X88372489Y-103611206D01*
X88424000Y-103600000D01*
X89550000Y-103600000D01*
X89550000Y-103148903D01*
X89547102Y-103106175D01*
X89501168Y-102921476D01*
X89416609Y-102750977D01*
X89416607Y-102750974D01*
X89297367Y-102602633D01*
X89297366Y-102602632D01*
X89195994Y-102521147D01*
X89156075Y-102463804D01*
X89153495Y-102393982D01*
X89189074Y-102333849D01*
X89251514Y-102302497D01*
X89273681Y-102300500D01*
X91117060Y-102300500D01*
X91184099Y-102320185D01*
G37*
%TD.AperFunction*%
%TA.AperFunction,Conductor*%
G36*
X108405703Y-101379391D02*
G01*
X108427603Y-101404214D01*
X108455887Y-101446545D01*
X108455888Y-101446546D01*
X109906975Y-102897631D01*
X109922396Y-102916421D01*
X109955885Y-102966542D01*
X110053454Y-103064111D01*
X110053458Y-103064114D01*
X110168182Y-103140771D01*
X110168195Y-103140778D01*
X110295667Y-103193578D01*
X110295672Y-103193580D01*
X110295676Y-103193580D01*
X110295677Y-103193581D01*
X110431004Y-103220500D01*
X110431007Y-103220500D01*
X110568993Y-103220500D01*
X112036453Y-103220500D01*
X112103492Y-103240185D01*
X112136769Y-103271614D01*
X112151280Y-103291585D01*
X112229892Y-103399788D01*
X112380213Y-103550109D01*
X112552182Y-103675050D01*
X112560946Y-103679516D01*
X112611742Y-103727491D01*
X112628536Y-103795312D01*
X112605998Y-103861447D01*
X112560946Y-103900484D01*
X112552182Y-103904949D01*
X112380213Y-104029890D01*
X112229892Y-104180211D01*
X112185747Y-104240974D01*
X112136770Y-104308385D01*
X112081442Y-104351051D01*
X112036453Y-104359500D01*
X109901519Y-104359500D01*
X109834480Y-104339815D01*
X109813838Y-104323181D01*
X108236819Y-102746162D01*
X108203334Y-102684839D01*
X108200500Y-102658481D01*
X108200500Y-101473104D01*
X108220185Y-101406065D01*
X108272989Y-101360310D01*
X108342147Y-101350366D01*
X108405703Y-101379391D01*
G37*
%TD.AperFunction*%
%TA.AperFunction,Conductor*%
G36*
X56321575Y-101462993D02*
G01*
X56387401Y-101577007D01*
X56480493Y-101670099D01*
X56594507Y-101735925D01*
X56658091Y-101752962D01*
X56057471Y-102353581D01*
X56136211Y-102470895D01*
X56137420Y-102474729D01*
X56140344Y-102477491D01*
X56147843Y-102507778D01*
X56157227Y-102537529D01*
X56156171Y-102541408D01*
X56157138Y-102545312D01*
X56147073Y-102574844D01*
X56138883Y-102604947D01*
X56135897Y-102607640D01*
X56134600Y-102611447D01*
X56089551Y-102650483D01*
X56079940Y-102655380D01*
X56025782Y-102694727D01*
X56025782Y-102694728D01*
X56658091Y-103327037D01*
X56594507Y-103344075D01*
X56480493Y-103409901D01*
X56387401Y-103502993D01*
X56321575Y-103617007D01*
X56304537Y-103680591D01*
X55672228Y-103048282D01*
X55672227Y-103048282D01*
X55632880Y-103102440D01*
X55632876Y-103102446D01*
X55628260Y-103111505D01*
X55580281Y-103162297D01*
X55512459Y-103179087D01*
X55446326Y-103156543D01*
X55407294Y-103111493D01*
X55402551Y-103102184D01*
X55402549Y-103102181D01*
X55402548Y-103102179D01*
X55277609Y-102930213D01*
X55127286Y-102779890D01*
X54955320Y-102654951D01*
X54954615Y-102654591D01*
X54946554Y-102650485D01*
X54895759Y-102602512D01*
X54878963Y-102534692D01*
X54901499Y-102468556D01*
X54946554Y-102429515D01*
X54955316Y-102425051D01*
X55010070Y-102385270D01*
X55127286Y-102300109D01*
X55127288Y-102300106D01*
X55127292Y-102300104D01*
X55277604Y-102149792D01*
X55277606Y-102149788D01*
X55277609Y-102149786D01*
X55363390Y-102031717D01*
X55402551Y-101977816D01*
X55407293Y-101968508D01*
X55455263Y-101917711D01*
X55523083Y-101900911D01*
X55589219Y-101923445D01*
X55628263Y-101968500D01*
X55632873Y-101977547D01*
X55672228Y-102031716D01*
X56304537Y-101399408D01*
X56321575Y-101462993D01*
G37*
%TD.AperFunction*%
%TA.AperFunction,Conductor*%
G36*
X87393358Y-102320185D02*
G01*
X87439113Y-102372989D01*
X87449057Y-102442147D01*
X87420032Y-102505703D01*
X87404006Y-102521147D01*
X87302635Y-102602631D01*
X87246967Y-102671885D01*
X87234949Y-102680251D01*
X87226384Y-102692127D01*
X87206851Y-102699810D01*
X87189624Y-102711803D01*
X87174990Y-102712343D01*
X87161364Y-102717704D01*
X87140777Y-102713607D01*
X87119801Y-102714383D01*
X87105975Y-102706682D01*
X87092838Y-102704069D01*
X87075083Y-102689478D01*
X87064212Y-102683424D01*
X87058580Y-102677988D01*
X86997722Y-102602278D01*
X86892405Y-102517621D01*
X86888369Y-102513727D01*
X86873749Y-102488049D01*
X86856871Y-102463804D01*
X86856657Y-102458029D01*
X86853799Y-102453009D01*
X86855382Y-102423508D01*
X86854291Y-102393982D01*
X86857233Y-102389008D01*
X86857543Y-102383239D01*
X86874823Y-102359278D01*
X86889869Y-102333849D01*
X86895033Y-102331255D01*
X86898413Y-102326570D01*
X86925901Y-102315756D01*
X86952310Y-102302497D01*
X86961777Y-102301644D01*
X86963433Y-102300993D01*
X86965169Y-102301338D01*
X86974477Y-102300500D01*
X87326319Y-102300500D01*
X87393358Y-102320185D01*
G37*
%TD.AperFunction*%
%TA.AperFunction,Conductor*%
G36*
X56321575Y-98922993D02*
G01*
X56387401Y-99037007D01*
X56480493Y-99130099D01*
X56594507Y-99195925D01*
X56658091Y-99212962D01*
X56057471Y-99813581D01*
X56136211Y-99930895D01*
X56137420Y-99934729D01*
X56140344Y-99937491D01*
X56147843Y-99967778D01*
X56157227Y-99997529D01*
X56156171Y-100001408D01*
X56157138Y-100005312D01*
X56147073Y-100034844D01*
X56138883Y-100064947D01*
X56135897Y-100067640D01*
X56134600Y-100071447D01*
X56089551Y-100110483D01*
X56079940Y-100115380D01*
X56025782Y-100154727D01*
X56025782Y-100154728D01*
X56658091Y-100787037D01*
X56594507Y-100804075D01*
X56480493Y-100869901D01*
X56387401Y-100962993D01*
X56321575Y-101077007D01*
X56304537Y-101140591D01*
X55672228Y-100508282D01*
X55672227Y-100508282D01*
X55632880Y-100562440D01*
X55632876Y-100562446D01*
X55628260Y-100571505D01*
X55580281Y-100622297D01*
X55512459Y-100639087D01*
X55446326Y-100616543D01*
X55407294Y-100571493D01*
X55402551Y-100562184D01*
X55402549Y-100562181D01*
X55402548Y-100562179D01*
X55277609Y-100390213D01*
X55127286Y-100239890D01*
X54955320Y-100114951D01*
X54954615Y-100114591D01*
X54946554Y-100110485D01*
X54895759Y-100062512D01*
X54878963Y-99994692D01*
X54901499Y-99928556D01*
X54946554Y-99889515D01*
X54955316Y-99885051D01*
X55010070Y-99845270D01*
X55127286Y-99760109D01*
X55127288Y-99760106D01*
X55127292Y-99760104D01*
X55277604Y-99609792D01*
X55277606Y-99609788D01*
X55277609Y-99609786D01*
X55363390Y-99491717D01*
X55402551Y-99437816D01*
X55407293Y-99428508D01*
X55455263Y-99377711D01*
X55523083Y-99360911D01*
X55589219Y-99383445D01*
X55628263Y-99428500D01*
X55632873Y-99437547D01*
X55672228Y-99491716D01*
X56304536Y-98859407D01*
X56321575Y-98922993D01*
G37*
%TD.AperFunction*%
%TA.AperFunction,Conductor*%
G36*
X77328814Y-88501067D02*
G01*
X77342147Y-88499151D01*
X77362290Y-88508350D01*
X77383927Y-88513057D01*
X77401652Y-88526325D01*
X77405703Y-88528176D01*
X77412181Y-88534208D01*
X77522490Y-88644517D01*
X77713567Y-88783343D01*
X77731794Y-88792630D01*
X77782590Y-88840603D01*
X77799500Y-88903115D01*
X77799500Y-90158481D01*
X77779815Y-90225520D01*
X77763181Y-90246162D01*
X75746162Y-92263181D01*
X75684839Y-92296666D01*
X75658481Y-92299500D01*
X74490519Y-92299500D01*
X74423480Y-92279815D01*
X74377725Y-92227011D01*
X74367781Y-92157853D01*
X74396806Y-92094297D01*
X74402838Y-92087819D01*
X77044112Y-89446545D01*
X77044114Y-89446543D01*
X77120775Y-89331811D01*
X77173580Y-89204328D01*
X77187035Y-89136687D01*
X77200500Y-89068996D01*
X77200500Y-88621889D01*
X77206738Y-88600643D01*
X77208318Y-88578555D01*
X77216390Y-88567771D01*
X77220185Y-88554850D01*
X77236918Y-88540350D01*
X77250190Y-88522622D01*
X77262810Y-88517914D01*
X77272989Y-88509095D01*
X77294906Y-88505943D01*
X77315654Y-88498205D01*
X77328814Y-88501067D01*
G37*
%TD.AperFunction*%
%TA.AperFunction,Conductor*%
G36*
X79718834Y-88505707D02*
G01*
X79774767Y-88547579D01*
X79799184Y-88613043D01*
X79799500Y-88621889D01*
X79799500Y-89431006D01*
X79799500Y-89568994D01*
X79799500Y-89568996D01*
X79799499Y-89568996D01*
X79826418Y-89704322D01*
X79826421Y-89704332D01*
X79879222Y-89831807D01*
X79955887Y-89946545D01*
X79955888Y-89946546D01*
X81597162Y-91587819D01*
X81630647Y-91649142D01*
X81625663Y-91718834D01*
X81583791Y-91774767D01*
X81518327Y-91799184D01*
X81509481Y-91799500D01*
X80841519Y-91799500D01*
X80774480Y-91779815D01*
X80753838Y-91763181D01*
X79236819Y-90246162D01*
X79203334Y-90184839D01*
X79200500Y-90158481D01*
X79200500Y-88903115D01*
X79220185Y-88836076D01*
X79268205Y-88792630D01*
X79286433Y-88783343D01*
X79477510Y-88644517D01*
X79587819Y-88534208D01*
X79649142Y-88500723D01*
X79718834Y-88505707D01*
G37*
%TD.AperFunction*%
%TA.AperFunction,Conductor*%
G36*
X65068613Y-88024556D02*
G01*
X65124546Y-88066428D01*
X65148963Y-88131892D01*
X65134111Y-88200165D01*
X65130818Y-88205834D01*
X65089095Y-88273477D01*
X65089091Y-88273486D01*
X65084887Y-88286174D01*
X65034826Y-88437247D01*
X65034826Y-88437248D01*
X65034825Y-88437248D01*
X65024500Y-88538315D01*
X65024500Y-89136669D01*
X65024501Y-89136687D01*
X65034825Y-89237752D01*
X65065994Y-89331811D01*
X65086769Y-89394507D01*
X65089092Y-89401515D01*
X65089093Y-89401518D01*
X65115846Y-89444891D01*
X65143257Y-89489332D01*
X65179661Y-89548351D01*
X65293629Y-89662319D01*
X65327114Y-89723642D01*
X65322130Y-89793334D01*
X65293629Y-89837681D01*
X65179661Y-89951648D01*
X65089093Y-90098481D01*
X65089091Y-90098486D01*
X65069211Y-90158481D01*
X65034826Y-90262247D01*
X65034826Y-90262248D01*
X65034825Y-90262248D01*
X65024500Y-90363315D01*
X65024500Y-90961669D01*
X65024501Y-90961687D01*
X65034825Y-91062752D01*
X65034826Y-91062755D01*
X65059262Y-91136496D01*
X65061664Y-91206324D01*
X65025932Y-91266366D01*
X64963412Y-91297559D01*
X64941556Y-91299500D01*
X61990519Y-91299500D01*
X61923480Y-91279815D01*
X61877725Y-91227011D01*
X61867781Y-91157853D01*
X61896806Y-91094297D01*
X61902838Y-91087819D01*
X64171359Y-88819297D01*
X64937600Y-88053055D01*
X64998921Y-88019572D01*
X65068613Y-88024556D01*
G37*
%TD.AperFunction*%
%TA.AperFunction,Conductor*%
G36*
X77212105Y-81405047D02*
G01*
X77224650Y-81403970D01*
X77244995Y-81414705D01*
X77267063Y-81421185D01*
X77275306Y-81430699D01*
X77286445Y-81436576D01*
X77297757Y-81456608D01*
X77312818Y-81473989D01*
X77314609Y-81486449D01*
X77320802Y-81497415D01*
X77319488Y-81520380D01*
X77322762Y-81543147D01*
X77317435Y-81556270D01*
X77316812Y-81567171D01*
X77300344Y-81598381D01*
X77255374Y-81660277D01*
X77216657Y-81713566D01*
X77109433Y-81924003D01*
X77036446Y-82148631D01*
X76999500Y-82381902D01*
X76999500Y-82618097D01*
X77036446Y-82851368D01*
X77109433Y-83075996D01*
X77203534Y-83260678D01*
X77216657Y-83286433D01*
X77355483Y-83477510D01*
X77522490Y-83644517D01*
X77713567Y-83783343D01*
X77731794Y-83792630D01*
X77782590Y-83840603D01*
X77799500Y-83903115D01*
X77799500Y-84158481D01*
X77779815Y-84225520D01*
X77763181Y-84246162D01*
X77246162Y-84763181D01*
X77184839Y-84796666D01*
X77158481Y-84799500D01*
X76931004Y-84799500D01*
X76795677Y-84826418D01*
X76795667Y-84826421D01*
X76668192Y-84879222D01*
X76553454Y-84955887D01*
X75955887Y-85553454D01*
X75879222Y-85668192D01*
X75826421Y-85795667D01*
X75826418Y-85795677D01*
X75799500Y-85931004D01*
X75799500Y-88658481D01*
X75779815Y-88725520D01*
X75763181Y-88746162D01*
X73246162Y-91263181D01*
X73184839Y-91296666D01*
X73158481Y-91299500D01*
X70615518Y-91299500D01*
X70594272Y-91293261D01*
X70572184Y-91291682D01*
X70561400Y-91283609D01*
X70548479Y-91279815D01*
X70533979Y-91263081D01*
X70516251Y-91249810D01*
X70511543Y-91237189D01*
X70502724Y-91227011D01*
X70499572Y-91205093D01*
X70491834Y-91184346D01*
X70494696Y-91171185D01*
X70492780Y-91157853D01*
X70501979Y-91137709D01*
X70506686Y-91116073D01*
X70519954Y-91098347D01*
X70521805Y-91094297D01*
X70527837Y-91087819D01*
X70603838Y-91011818D01*
X70665161Y-90978333D01*
X70691519Y-90975499D01*
X70961670Y-90975499D01*
X70961676Y-90975499D01*
X71062753Y-90965174D01*
X71226516Y-90910908D01*
X71373350Y-90820340D01*
X71495340Y-90698350D01*
X71585908Y-90551516D01*
X71640174Y-90387753D01*
X71650500Y-90286677D01*
X71650499Y-89713324D01*
X71649580Y-89704332D01*
X71640174Y-89612247D01*
X71625841Y-89568994D01*
X71585908Y-89448484D01*
X71495340Y-89301650D01*
X71373350Y-89179660D01*
X71226516Y-89089092D01*
X71062753Y-89034826D01*
X71062751Y-89034825D01*
X70961684Y-89024500D01*
X70329631Y-89024500D01*
X70262592Y-89004815D01*
X70216837Y-88952011D01*
X70206893Y-88882853D01*
X70235918Y-88819297D01*
X70273337Y-88790015D01*
X70286433Y-88783343D01*
X70477510Y-88644517D01*
X70644517Y-88477510D01*
X70783343Y-88286433D01*
X70890568Y-88075992D01*
X70963553Y-87851368D01*
X70965332Y-87840135D01*
X71000500Y-87618097D01*
X71000500Y-87381902D01*
X72499500Y-87381902D01*
X72499500Y-87618097D01*
X72536446Y-87851368D01*
X72609433Y-88075996D01*
X72692767Y-88239546D01*
X72716657Y-88286433D01*
X72855483Y-88477510D01*
X73022490Y-88644517D01*
X73213567Y-88783343D01*
X73299500Y-88827128D01*
X73424003Y-88890566D01*
X73424005Y-88890566D01*
X73424008Y-88890568D01*
X73544412Y-88929689D01*
X73648631Y-88963553D01*
X73881903Y-89000500D01*
X73881908Y-89000500D01*
X74118097Y-89000500D01*
X74351368Y-88963553D01*
X74374961Y-88955887D01*
X74575992Y-88890568D01*
X74786433Y-88783343D01*
X74977510Y-88644517D01*
X75144517Y-88477510D01*
X75283343Y-88286433D01*
X75390568Y-88075992D01*
X75463553Y-87851368D01*
X75465332Y-87840135D01*
X75500500Y-87618097D01*
X75500500Y-87381902D01*
X75463553Y-87148631D01*
X75415259Y-87000000D01*
X75390568Y-86924008D01*
X75390566Y-86924005D01*
X75390566Y-86924003D01*
X75314779Y-86775264D01*
X75283343Y-86713567D01*
X75144517Y-86522490D01*
X74977510Y-86355483D01*
X74786433Y-86216657D01*
X74701890Y-86173580D01*
X74575996Y-86109433D01*
X74351368Y-86036446D01*
X74118097Y-85999500D01*
X74118092Y-85999500D01*
X73881908Y-85999500D01*
X73881903Y-85999500D01*
X73648631Y-86036446D01*
X73424003Y-86109433D01*
X73213566Y-86216657D01*
X73130047Y-86277338D01*
X73022490Y-86355483D01*
X73022488Y-86355485D01*
X73022487Y-86355485D01*
X72855485Y-86522487D01*
X72855485Y-86522488D01*
X72855483Y-86522490D01*
X72795862Y-86604550D01*
X72716657Y-86713566D01*
X72609433Y-86924003D01*
X72536446Y-87148631D01*
X72499500Y-87381902D01*
X71000500Y-87381902D01*
X70963553Y-87148631D01*
X70915259Y-87000000D01*
X70890568Y-86924008D01*
X70890566Y-86924005D01*
X70890566Y-86924003D01*
X70814779Y-86775264D01*
X70783343Y-86713567D01*
X70644517Y-86522490D01*
X70477510Y-86355483D01*
X70286433Y-86216657D01*
X70201890Y-86173580D01*
X70075996Y-86109433D01*
X69851368Y-86036446D01*
X69618097Y-85999500D01*
X69618092Y-85999500D01*
X69381908Y-85999500D01*
X69381903Y-85999500D01*
X69148631Y-86036446D01*
X68924003Y-86109433D01*
X68713566Y-86216657D01*
X68630047Y-86277338D01*
X68522490Y-86355483D01*
X68522488Y-86355485D01*
X68522487Y-86355485D01*
X68355485Y-86522487D01*
X68355485Y-86522488D01*
X68355483Y-86522490D01*
X68295862Y-86604550D01*
X68216657Y-86713566D01*
X68109433Y-86924003D01*
X68036446Y-87148631D01*
X67999500Y-87381902D01*
X67999500Y-87618097D01*
X68036446Y-87851368D01*
X68109433Y-88075996D01*
X68192767Y-88239546D01*
X68216657Y-88286433D01*
X68355483Y-88477510D01*
X68522490Y-88644517D01*
X68633981Y-88725520D01*
X68713568Y-88783344D01*
X68726661Y-88790015D01*
X68777458Y-88837989D01*
X68794253Y-88905810D01*
X68771716Y-88971945D01*
X68717001Y-89015397D01*
X68670368Y-89024500D01*
X68538331Y-89024500D01*
X68538312Y-89024501D01*
X68437247Y-89034825D01*
X68273484Y-89089092D01*
X68273481Y-89089093D01*
X68126648Y-89179661D01*
X68004661Y-89301648D01*
X67914093Y-89448481D01*
X67914091Y-89448486D01*
X67900555Y-89489336D01*
X67859826Y-89612247D01*
X67859826Y-89612248D01*
X67859825Y-89612248D01*
X67849500Y-89713315D01*
X67849500Y-90286669D01*
X67849501Y-90286687D01*
X67859825Y-90387752D01*
X67861244Y-90394378D01*
X67859692Y-90394710D01*
X67861810Y-90456328D01*
X67826076Y-90516369D01*
X67763555Y-90547559D01*
X67741703Y-90549500D01*
X67099499Y-90549500D01*
X67032460Y-90529815D01*
X66986705Y-90477011D01*
X66975499Y-90425500D01*
X66975499Y-90363330D01*
X66975498Y-90363313D01*
X66965174Y-90262247D01*
X66923718Y-90137143D01*
X66910908Y-90098484D01*
X66820340Y-89951650D01*
X66706371Y-89837681D01*
X66672886Y-89776358D01*
X66677870Y-89706666D01*
X66706371Y-89662319D01*
X66756443Y-89612247D01*
X66820340Y-89548350D01*
X66910908Y-89401516D01*
X66965174Y-89237753D01*
X66975500Y-89136677D01*
X66975499Y-88538324D01*
X66974462Y-88528176D01*
X66965174Y-88437247D01*
X66910908Y-88273484D01*
X66820340Y-88126650D01*
X66820338Y-88126648D01*
X66818961Y-88124415D01*
X66814264Y-88107855D01*
X66805523Y-88094253D01*
X66800500Y-88059318D01*
X66800500Y-87945207D01*
X66809939Y-87897755D01*
X66865892Y-87762670D01*
X66865894Y-87762666D01*
X66900500Y-87588691D01*
X66900500Y-87411309D01*
X66900500Y-87411306D01*
X66900499Y-87411304D01*
X66865896Y-87237341D01*
X66865893Y-87237332D01*
X66862856Y-87230001D01*
X66829153Y-87148632D01*
X66798016Y-87073459D01*
X66798009Y-87073446D01*
X66699464Y-86925965D01*
X66699461Y-86925961D01*
X66574038Y-86800538D01*
X66469524Y-86730703D01*
X66424720Y-86677090D01*
X66416013Y-86607765D01*
X66446168Y-86544738D01*
X66450714Y-86539941D01*
X67253838Y-85736819D01*
X67315161Y-85703334D01*
X67341519Y-85700500D01*
X71568996Y-85700500D01*
X71662923Y-85681816D01*
X71704328Y-85673580D01*
X71768069Y-85647177D01*
X71831807Y-85620777D01*
X71831808Y-85620776D01*
X71831811Y-85620775D01*
X71946543Y-85544114D01*
X73503177Y-83987478D01*
X73564498Y-83953995D01*
X73629175Y-83957230D01*
X73648632Y-83963553D01*
X73736110Y-83977408D01*
X73881903Y-84000500D01*
X73881908Y-84000500D01*
X74118097Y-84000500D01*
X74351368Y-83963553D01*
X74380784Y-83953995D01*
X74575992Y-83890568D01*
X74786433Y-83783343D01*
X74977510Y-83644517D01*
X75144517Y-83477510D01*
X75283343Y-83286433D01*
X75390568Y-83075992D01*
X75463553Y-82851368D01*
X75480194Y-82746300D01*
X75500500Y-82618097D01*
X75500500Y-82381902D01*
X75463553Y-82148631D01*
X75390566Y-81924003D01*
X75294174Y-81734824D01*
X75283343Y-81713567D01*
X75199657Y-81598383D01*
X75176178Y-81532580D01*
X75192003Y-81464526D01*
X75242109Y-81415831D01*
X75299976Y-81401500D01*
X77200024Y-81401500D01*
X77212105Y-81405047D01*
G37*
%TD.AperFunction*%
%TA.AperFunction,Conductor*%
G36*
X55708874Y-89406821D02*
G01*
X55753834Y-89444891D01*
X55757390Y-89449785D01*
X55757394Y-89449790D01*
X55907713Y-89600109D01*
X56079679Y-89725048D01*
X56079681Y-89725049D01*
X56079684Y-89725051D01*
X56088993Y-89729794D01*
X56139790Y-89777766D01*
X56156587Y-89845587D01*
X56134052Y-89911722D01*
X56089005Y-89950760D01*
X56079946Y-89955376D01*
X56079940Y-89955380D01*
X56025782Y-89994727D01*
X56025782Y-89994728D01*
X56658091Y-90627037D01*
X56594507Y-90644075D01*
X56480493Y-90709901D01*
X56387401Y-90802993D01*
X56321575Y-90917007D01*
X56304537Y-90980591D01*
X55672228Y-90348282D01*
X55672227Y-90348282D01*
X55632880Y-90402440D01*
X55632876Y-90402446D01*
X55628260Y-90411505D01*
X55580281Y-90462297D01*
X55512459Y-90479087D01*
X55446326Y-90456543D01*
X55407294Y-90411493D01*
X55402551Y-90402184D01*
X55402549Y-90402181D01*
X55402548Y-90402179D01*
X55277609Y-90230213D01*
X55127290Y-90079894D01*
X55127285Y-90079890D01*
X55122391Y-90076334D01*
X55079727Y-90021003D01*
X55073749Y-89951390D01*
X55106357Y-89889595D01*
X55156274Y-89858312D01*
X55166834Y-89854814D01*
X55316156Y-89762712D01*
X55440212Y-89638656D01*
X55532314Y-89489334D01*
X55535812Y-89478775D01*
X55575582Y-89421332D01*
X55640098Y-89394507D01*
X55708874Y-89406821D01*
G37*
%TD.AperFunction*%
%TA.AperFunction,Conductor*%
G36*
X90712723Y-81405047D02*
G01*
X90725268Y-81403970D01*
X90745613Y-81414705D01*
X90767681Y-81421185D01*
X90775924Y-81430699D01*
X90787063Y-81436576D01*
X90798375Y-81456608D01*
X90813436Y-81473989D01*
X90815227Y-81486449D01*
X90821420Y-81497415D01*
X90820106Y-81520381D01*
X90823380Y-81543147D01*
X90818054Y-81556268D01*
X90817431Y-81567171D01*
X90800960Y-81598386D01*
X90717085Y-81713828D01*
X90609897Y-81924197D01*
X90536934Y-82148752D01*
X90500000Y-82381947D01*
X90500000Y-82618052D01*
X90536934Y-82851247D01*
X90609897Y-83075802D01*
X90717087Y-83286174D01*
X90777338Y-83369104D01*
X90777340Y-83369105D01*
X91517037Y-82629408D01*
X91534075Y-82692993D01*
X91599901Y-82807007D01*
X91692993Y-82900099D01*
X91807007Y-82965925D01*
X91870590Y-82982962D01*
X91130893Y-83722658D01*
X91213828Y-83782914D01*
X91424197Y-83890102D01*
X91648752Y-83963065D01*
X91648751Y-83963065D01*
X91881948Y-84000000D01*
X92118052Y-84000000D01*
X92351247Y-83963065D01*
X92575802Y-83890102D01*
X92786163Y-83782918D01*
X92786169Y-83782914D01*
X92869104Y-83722658D01*
X92869105Y-83722658D01*
X92129408Y-82982962D01*
X92192993Y-82965925D01*
X92307007Y-82900099D01*
X92400099Y-82807007D01*
X92465925Y-82692993D01*
X92482962Y-82629409D01*
X93222658Y-83369105D01*
X93222658Y-83369104D01*
X93282914Y-83286169D01*
X93282918Y-83286163D01*
X93390102Y-83075802D01*
X93463065Y-82851247D01*
X93500000Y-82618052D01*
X93500000Y-82381947D01*
X93463065Y-82148752D01*
X93390102Y-81924197D01*
X93282914Y-81713828D01*
X93199040Y-81598386D01*
X93175560Y-81532580D01*
X93191385Y-81464526D01*
X93241491Y-81415831D01*
X93299358Y-81401500D01*
X95200024Y-81401500D01*
X95267063Y-81421185D01*
X95312818Y-81473989D01*
X95322762Y-81543147D01*
X95300343Y-81598383D01*
X95255374Y-81660277D01*
X95216657Y-81713566D01*
X95109433Y-81924003D01*
X95036446Y-82148631D01*
X94999500Y-82381902D01*
X94999500Y-82618097D01*
X95036446Y-82851368D01*
X95109433Y-83075996D01*
X95203534Y-83260678D01*
X95216657Y-83286433D01*
X95355483Y-83477510D01*
X95522490Y-83644517D01*
X95648388Y-83735987D01*
X95691051Y-83791313D01*
X95699500Y-83836302D01*
X95699500Y-86163695D01*
X95679815Y-86230734D01*
X95648386Y-86264012D01*
X95522496Y-86355478D01*
X95522487Y-86355485D01*
X95355485Y-86522487D01*
X95355485Y-86522488D01*
X95355483Y-86522490D01*
X95295862Y-86604550D01*
X95216657Y-86713566D01*
X95109433Y-86924003D01*
X95036446Y-87148631D01*
X94999500Y-87381902D01*
X94999500Y-87618097D01*
X95036446Y-87851368D01*
X95109433Y-88075996D01*
X95192767Y-88239546D01*
X95216657Y-88286433D01*
X95355483Y-88477510D01*
X95355485Y-88477512D01*
X95465792Y-88587819D01*
X95499277Y-88649142D01*
X95494293Y-88718834D01*
X95452421Y-88774767D01*
X95386957Y-88799184D01*
X95378111Y-88799500D01*
X92997200Y-88799500D01*
X92930161Y-88779815D01*
X92912812Y-88759794D01*
X92909527Y-88763080D01*
X92129408Y-87982962D01*
X92192993Y-87965925D01*
X92307007Y-87900099D01*
X92400099Y-87807007D01*
X92465925Y-87692993D01*
X92482962Y-87629409D01*
X93222658Y-88369105D01*
X93222658Y-88369104D01*
X93282914Y-88286169D01*
X93282918Y-88286163D01*
X93390102Y-88075802D01*
X93463065Y-87851247D01*
X93500000Y-87618052D01*
X93500000Y-87381947D01*
X93463065Y-87148752D01*
X93390102Y-86924197D01*
X93282914Y-86713828D01*
X93222658Y-86630894D01*
X93222658Y-86630893D01*
X92482962Y-87370590D01*
X92465925Y-87307007D01*
X92400099Y-87192993D01*
X92307007Y-87099901D01*
X92192993Y-87034075D01*
X92129409Y-87017037D01*
X92869105Y-86277340D01*
X92869104Y-86277338D01*
X92786174Y-86217087D01*
X92575802Y-86109897D01*
X92351247Y-86036934D01*
X92351248Y-86036934D01*
X92118052Y-86000000D01*
X91881948Y-86000000D01*
X91648752Y-86036934D01*
X91424197Y-86109897D01*
X91213830Y-86217084D01*
X91130894Y-86277340D01*
X91870591Y-87017037D01*
X91807007Y-87034075D01*
X91692993Y-87099901D01*
X91599901Y-87192993D01*
X91534075Y-87307007D01*
X91517037Y-87370591D01*
X90777340Y-86630894D01*
X90717084Y-86713830D01*
X90609897Y-86924197D01*
X90536934Y-87148752D01*
X90500000Y-87381947D01*
X90500000Y-87618052D01*
X90536934Y-87851247D01*
X90609897Y-88075802D01*
X90717087Y-88286174D01*
X90777338Y-88369104D01*
X90777340Y-88369105D01*
X91517037Y-87629408D01*
X91534075Y-87692993D01*
X91599901Y-87807007D01*
X91692993Y-87900099D01*
X91807007Y-87965925D01*
X91870591Y-87982962D01*
X91090472Y-88763080D01*
X91086977Y-88759585D01*
X91063056Y-88783875D01*
X91002799Y-88799500D01*
X88621889Y-88799500D01*
X88554850Y-88779815D01*
X88509095Y-88727011D01*
X88499151Y-88657853D01*
X88528176Y-88594297D01*
X88534208Y-88587819D01*
X88587819Y-88534208D01*
X88644517Y-88477510D01*
X88783343Y-88286433D01*
X88890568Y-88075992D01*
X88963553Y-87851368D01*
X88965332Y-87840135D01*
X89000500Y-87618097D01*
X89000500Y-87381902D01*
X88963553Y-87148631D01*
X88915259Y-87000000D01*
X88890568Y-86924008D01*
X88890566Y-86924005D01*
X88890566Y-86924003D01*
X88814779Y-86775264D01*
X88783343Y-86713567D01*
X88644517Y-86522490D01*
X88477510Y-86355483D01*
X88286433Y-86216657D01*
X88201890Y-86173580D01*
X88075996Y-86109433D01*
X87851368Y-86036446D01*
X87618097Y-85999500D01*
X87618092Y-85999500D01*
X87381908Y-85999500D01*
X87381903Y-85999500D01*
X87148631Y-86036446D01*
X86924003Y-86109433D01*
X86713566Y-86216657D01*
X86630047Y-86277338D01*
X86522490Y-86355483D01*
X86522488Y-86355485D01*
X86522487Y-86355485D01*
X86412181Y-86465792D01*
X86350858Y-86499277D01*
X86281166Y-86494293D01*
X86225233Y-86452421D01*
X86200816Y-86386957D01*
X86200500Y-86378111D01*
X86200500Y-84841518D01*
X86220185Y-84774479D01*
X86236815Y-84753841D01*
X87003177Y-83987478D01*
X87064498Y-83953995D01*
X87129175Y-83957230D01*
X87148632Y-83963553D01*
X87236110Y-83977408D01*
X87381903Y-84000500D01*
X87381908Y-84000500D01*
X87618097Y-84000500D01*
X87851368Y-83963553D01*
X87880784Y-83953995D01*
X88075992Y-83890568D01*
X88286433Y-83783343D01*
X88477510Y-83644517D01*
X88644517Y-83477510D01*
X88783343Y-83286433D01*
X88890568Y-83075992D01*
X88963553Y-82851368D01*
X88980194Y-82746300D01*
X89000500Y-82618097D01*
X89000500Y-82381902D01*
X88963553Y-82148631D01*
X88890566Y-81924003D01*
X88794174Y-81734824D01*
X88783343Y-81713567D01*
X88699657Y-81598383D01*
X88676178Y-81532580D01*
X88692003Y-81464526D01*
X88742109Y-81415831D01*
X88799976Y-81401500D01*
X90700642Y-81401500D01*
X90712723Y-81405047D01*
G37*
%TD.AperFunction*%
%TD*%
M02*
