M48
; DRILL file {KiCad 8.0.4} date 2024-09-03T19:15:54+0530
; FORMAT={-:-/ absolute / inch / decimal}
; #@! TF.CreationDate,2024-09-03T19:15:54+05:30
; #@! TF.GenerationSoftware,Kicad,Pcbnew,8.0.4
; #@! TF.FileFunction,Plated,1,2,PTH
FMAT,2
INCH
; #@! TA.AperFunction,Plated,PTH,ViaDrill
T1C0.0118
; #@! TA.AperFunction,Plated,PTH,ViaDrill
T2C0.0157
; #@! TA.AperFunction,Plated,PTH,ComponentDrill
T3C0.0315
; #@! TA.AperFunction,Plated,PTH,ComponentDrill
T4C0.0748
%
G90
G05
T1
X-0.4921Y0.1323
X-0.4504Y0.05
X-0.4488Y-0.2913
X-0.4055Y-0.2953
X-0.2874Y0.4606
X-0.2874Y0.4331
X-0.2087Y-0.3937
X-0.2008Y0.3543
X-0.2008Y-0.1496
X-0.1929Y0.4961
X-0.1654Y0.4961
X-0.1535Y-0.0197
X-0.1417Y0.3937
X-0.1107Y-0.0263
X-0.1063Y0.185
X-0.0945Y0.2559
X-0.0728Y0.3661
X-0.0709Y0.4567
X-0.0669Y-0.378
X-0.0433Y-0.2953
X-0.0354Y-0.0709
X-0.0354Y-0.0984
X-0.0354Y-0.126
X-0.0246Y-0.2126
X-0.0079Y0.0354
X0.06Y0.4567
X0.0787Y-0.1535
X0.1457Y0.3858
X0.1457Y0.3465
X0.1496Y-0.0433
X0.1732Y0.3228
X0.1844Y0.0633
X0.189Y-0.1496
X0.2165Y-0.1496
X0.2402Y0.3976
X0.2598Y-0.3268
X0.2992Y0.4055
X0.3031Y0.189
X0.3228Y-0.2913
X0.3504Y-0.2913
X0.378Y-0.2756
X0.4055Y-0.2756
X0.4107Y0.3753
X0.4213Y0.0669
X0.4803Y-0.0462
X0.5512Y0.248
X0.5551Y-0.0394
T2
X-0.5906Y0.0787
X-0.5906Y-0.0197
X-0.5807Y0.1378
X-0.4429Y0.1476
X-0.4409Y0.2913
X-0.4409Y0.252
X0.2165Y-0.3445
X0.2264Y-0.4724
X0.2264Y-0.5413
X0.2461Y-0.374
X0.4394Y-0.228
T3
X-0.1181Y0.5315
X-0.1181Y-0.5315
X-0.0394Y0.5315
X-0.0394Y-0.5315
X0.0394Y0.5315
X0.0394Y-0.5315
X0.1181Y0.5315
X0.1181Y-0.5315
T4
X-0.3346Y0.0
X0.2366Y0.2366
X0.2366Y-0.2366
X0.3346Y0.0
M30
