%TF.GenerationSoftware,KiCad,Pcbnew,8.0.4*%
%TF.CreationDate,2024-09-03T19:15:54+05:30*%
%TF.ProjectId,OGS_B4_ISB1,4f47535f-4234-45f4-9953-42312e6b6963,rev?*%
%TF.SameCoordinates,Original*%
%TF.FileFunction,Legend,Top*%
%TF.FilePolarity,Positive*%
%FSLAX46Y46*%
G04 Gerber Fmt 4.6, Leading zero omitted, Abs format (unit mm)*
G04 Created by KiCad (PCBNEW 8.0.4) date 2024-09-03 19:15:54*
%MOMM*%
%LPD*%
G01*
G04 APERTURE LIST*
G04 Aperture macros list*
%AMRoundRect*
0 Rectangle with rounded corners*
0 $1 Rounding radius*
0 $2 $3 $4 $5 $6 $7 $8 $9 X,Y pos of 4 corners*
0 Add a 4 corners polygon primitive as box body*
4,1,4,$2,$3,$4,$5,$6,$7,$8,$9,$2,$3,0*
0 Add four circle primitives for the rounded corners*
1,1,$1+$1,$2,$3*
1,1,$1+$1,$4,$5*
1,1,$1+$1,$6,$7*
1,1,$1+$1,$8,$9*
0 Add four rect primitives between the rounded corners*
20,1,$1+$1,$2,$3,$4,$5,0*
20,1,$1+$1,$4,$5,$6,$7,0*
20,1,$1+$1,$6,$7,$8,$9,0*
20,1,$1+$1,$8,$9,$2,$3,0*%
%AMFreePoly0*
4,1,19,0.550000,-0.750000,0.000000,-0.750000,0.000000,-0.744911,-0.071157,-0.744911,-0.207708,-0.704816,-0.327430,-0.627875,-0.420627,-0.520320,-0.479746,-0.390866,-0.500000,-0.250000,-0.500000,0.250000,-0.479746,0.390866,-0.420627,0.520320,-0.327430,0.627875,-0.207708,0.704816,-0.071157,0.744911,0.000000,0.744911,0.000000,0.750000,0.550000,0.750000,0.550000,-0.750000,0.550000,-0.750000,
$1*%
%AMFreePoly1*
4,1,19,0.000000,0.744911,0.071157,0.744911,0.207708,0.704816,0.327430,0.627875,0.420627,0.520320,0.479746,0.390866,0.500000,0.250000,0.500000,-0.250000,0.479746,-0.390866,0.420627,-0.520320,0.327430,-0.627875,0.207708,-0.704816,0.071157,-0.744911,0.000000,-0.744911,0.000000,-0.750000,-0.550000,-0.750000,-0.550000,0.750000,0.000000,0.750000,0.000000,0.744911,0.000000,0.744911,
$1*%
G04 Aperture macros list end*
%ADD10C,0.400000*%
%ADD11C,0.150000*%
%ADD12C,0.120000*%
%ADD13RoundRect,0.225000X-0.225000X-0.250000X0.225000X-0.250000X0.225000X0.250000X-0.225000X0.250000X0*%
%ADD14RoundRect,0.200000X-0.200000X-0.275000X0.200000X-0.275000X0.200000X0.275000X-0.200000X0.275000X0*%
%ADD15RoundRect,0.200000X0.200000X0.275000X-0.200000X0.275000X-0.200000X-0.275000X0.200000X-0.275000X0*%
%ADD16RoundRect,0.200000X-0.275000X0.200000X-0.275000X-0.200000X0.275000X-0.200000X0.275000X0.200000X0*%
%ADD17RoundRect,0.200000X0.275000X-0.200000X0.275000X0.200000X-0.275000X0.200000X-0.275000X-0.200000X0*%
%ADD18RoundRect,0.150000X0.150000X-0.825000X0.150000X0.825000X-0.150000X0.825000X-0.150000X-0.825000X0*%
%ADD19RoundRect,0.225000X-0.250000X0.225000X-0.250000X-0.225000X0.250000X-0.225000X0.250000X0.225000X0*%
%ADD20RoundRect,0.250000X0.925000X-0.412500X0.925000X0.412500X-0.925000X0.412500X-0.925000X-0.412500X0*%
%ADD21FreePoly0,270.000000*%
%ADD22R,1.500000X1.000000*%
%ADD23FreePoly1,270.000000*%
%ADD24RoundRect,0.150000X0.512500X0.150000X-0.512500X0.150000X-0.512500X-0.150000X0.512500X-0.150000X0*%
%ADD25RoundRect,0.250000X0.400000X0.600000X-0.400000X0.600000X-0.400000X-0.600000X0.400000X-0.600000X0*%
%ADD26RoundRect,0.150000X0.825000X0.150000X-0.825000X0.150000X-0.825000X-0.150000X0.825000X-0.150000X0*%
%ADD27C,1.524000*%
%ADD28C,2.750000*%
G04 APERTURE END LIST*
D10*
X-1090000Y-9950000D02*
X-1090000Y-11310000D01*
D11*
X-5780000Y4220000D02*
X-5780000Y5690000D01*
X-6360000Y3850000D02*
X-5780000Y4220000D01*
X-5780000Y6460000D02*
X-5450000Y6460000D01*
X-5780000Y5690000D02*
X-5780000Y6310000D01*
D10*
X-8120000Y-9960000D02*
X-8120000Y-11320000D01*
D11*
X-5780000Y6310000D02*
X-5780000Y6460000D01*
X-10600000Y-390000D02*
X-10850000Y-760000D01*
X1260588Y15482562D02*
X1165350Y15530181D01*
X1165350Y15530181D02*
X1022493Y15530181D01*
X1022493Y15530181D02*
X879636Y15482562D01*
X879636Y15482562D02*
X784398Y15387324D01*
X784398Y15387324D02*
X736779Y15292086D01*
X736779Y15292086D02*
X689160Y15101610D01*
X689160Y15101610D02*
X689160Y14958753D01*
X689160Y14958753D02*
X736779Y14768277D01*
X736779Y14768277D02*
X784398Y14673039D01*
X784398Y14673039D02*
X879636Y14577800D01*
X879636Y14577800D02*
X1022493Y14530181D01*
X1022493Y14530181D02*
X1117731Y14530181D01*
X1117731Y14530181D02*
X1260588Y14577800D01*
X1260588Y14577800D02*
X1308207Y14625420D01*
X1308207Y14625420D02*
X1308207Y14958753D01*
X1308207Y14958753D02*
X1117731Y14958753D01*
G36*
X-12148974Y2210820D02*
G01*
X-12122480Y2184326D01*
X-12088222Y2115810D01*
X-12088222Y2008363D01*
X-12122481Y1939847D01*
X-12152888Y1909439D01*
X-12221403Y1875181D01*
X-12509650Y1875181D01*
X-12509650Y2248991D01*
X-12263487Y2248991D01*
X-12148974Y2210820D01*
G37*
G36*
X-12200506Y2690923D02*
G01*
X-12170099Y2660516D01*
X-12135841Y2592000D01*
X-12135841Y2532172D01*
X-12170099Y2463656D01*
X-12200506Y2433249D01*
X-12269022Y2398991D01*
X-12509650Y2398991D01*
X-12509650Y2725181D01*
X-12269022Y2725181D01*
X-12200506Y2690923D01*
G37*
G36*
X-10876171Y1614070D02*
G01*
X-14199332Y1614070D01*
X-14199332Y2800181D01*
X-14088221Y2800181D01*
X-14088221Y1800181D01*
X-14086780Y1785549D01*
X-14075581Y1758513D01*
X-14054889Y1737821D01*
X-14027853Y1726622D01*
X-13998589Y1726622D01*
X-13971553Y1737821D01*
X-13950861Y1758513D01*
X-13939662Y1785549D01*
X-13938221Y1800181D01*
X-13938221Y2609705D01*
X-13659650Y2609705D01*
X-13659650Y2514467D01*
X-13658209Y2499835D01*
X-13657178Y2497346D01*
X-13656987Y2494658D01*
X-13651732Y2480926D01*
X-13604113Y2385688D01*
X-13600149Y2379389D01*
X-13599391Y2377561D01*
X-13597703Y2375505D01*
X-13596281Y2373245D01*
X-13594783Y2371946D01*
X-13590064Y2366196D01*
X-13542445Y2318577D01*
X-13536696Y2313859D01*
X-13535396Y2312360D01*
X-13533137Y2310939D01*
X-13531080Y2309250D01*
X-13529253Y2308493D01*
X-13522953Y2304528D01*
X-13427715Y2256909D01*
X-13426646Y2256500D01*
X-13426210Y2256177D01*
X-13420074Y2253985D01*
X-13413984Y2251654D01*
X-13413444Y2251616D01*
X-13412364Y2251230D01*
X-13229874Y2205608D01*
X-13152887Y2167114D01*
X-13122480Y2136707D01*
X-13088222Y2068191D01*
X-13088222Y2008363D01*
X-13122481Y1939847D01*
X-13152888Y1909439D01*
X-13221403Y1875181D01*
X-13429623Y1875181D01*
X-13560933Y1918951D01*
X-13575270Y1922211D01*
X-13604460Y1920136D01*
X-13630633Y1907050D01*
X-13649807Y1884943D01*
X-13659061Y1857180D01*
X-13656986Y1827990D01*
X-13643900Y1801817D01*
X-13621793Y1782643D01*
X-13608367Y1776649D01*
X-13465511Y1729030D01*
X-13458256Y1727381D01*
X-13456425Y1726622D01*
X-13453772Y1726361D01*
X-13451174Y1725770D01*
X-13449200Y1725911D01*
X-13441793Y1725181D01*
X-13203698Y1725181D01*
X-13189066Y1726622D01*
X-13186577Y1727654D01*
X-13183889Y1727844D01*
X-13170157Y1733099D01*
X-13074919Y1780718D01*
X-13068620Y1784683D01*
X-13066792Y1785440D01*
X-13064736Y1787128D01*
X-13062476Y1788550D01*
X-13061176Y1790050D01*
X-13055426Y1794768D01*
X-13007808Y1842387D01*
X-13003090Y1848137D01*
X-13001591Y1849436D01*
X-13000170Y1851695D01*
X-12998480Y1853753D01*
X-12997723Y1855583D01*
X-12993759Y1861879D01*
X-12946140Y1957117D01*
X-12940885Y1970848D01*
X-12940694Y1973538D01*
X-12939663Y1976026D01*
X-12938222Y1990658D01*
X-12938222Y2085896D01*
X-12939663Y2100528D01*
X-12940694Y2103017D01*
X-12940885Y2105706D01*
X-12946140Y2119437D01*
X-12993759Y2214675D01*
X-12997724Y2220975D01*
X-12998481Y2222802D01*
X-13000170Y2224859D01*
X-13001591Y2227118D01*
X-13003090Y2228418D01*
X-13007808Y2234167D01*
X-13055427Y2281786D01*
X-13061177Y2286505D01*
X-13062476Y2288003D01*
X-13064736Y2289425D01*
X-13066792Y2291113D01*
X-13068620Y2291871D01*
X-13074919Y2295835D01*
X-13170157Y2343454D01*
X-13171227Y2343864D01*
X-13171662Y2344186D01*
X-13177808Y2346382D01*
X-13183889Y2348709D01*
X-13184429Y2348748D01*
X-13185508Y2349133D01*
X-13367998Y2394756D01*
X-13444985Y2433249D01*
X-13475392Y2463656D01*
X-13509650Y2532172D01*
X-13509650Y2592000D01*
X-13475392Y2660516D01*
X-13444985Y2690923D01*
X-13376469Y2725181D01*
X-13168249Y2725181D01*
X-13036940Y2681411D01*
X-13022603Y2678151D01*
X-12993413Y2680226D01*
X-12967239Y2693312D01*
X-12948065Y2715420D01*
X-12938811Y2743182D01*
X-12940886Y2772372D01*
X-12953973Y2798545D01*
X-12955859Y2800181D01*
X-12659650Y2800181D01*
X-12659650Y1800181D01*
X-12658209Y1785549D01*
X-12647010Y1758513D01*
X-12626318Y1737821D01*
X-12599282Y1726622D01*
X-12584650Y1725181D01*
X-12203698Y1725181D01*
X-12189066Y1726622D01*
X-12186577Y1727654D01*
X-12183889Y1727844D01*
X-12170157Y1733099D01*
X-12074919Y1780718D01*
X-12068620Y1784683D01*
X-12066792Y1785440D01*
X-12064736Y1787128D01*
X-12062476Y1788550D01*
X-12061176Y1790050D01*
X-12055426Y1794768D01*
X-12007808Y1842387D01*
X-12003090Y1848137D01*
X-12001591Y1849436D01*
X-12000170Y1851695D01*
X-11998480Y1853753D01*
X-11997723Y1855583D01*
X-11993759Y1861879D01*
X-11946140Y1957117D01*
X-11940885Y1970848D01*
X-11940694Y1973538D01*
X-11939663Y1976026D01*
X-11938222Y1990658D01*
X-11938222Y2133515D01*
X-11939663Y2148147D01*
X-11940694Y2150636D01*
X-11940885Y2153325D01*
X-11946140Y2167056D01*
X-11993759Y2262294D01*
X-11997724Y2268594D01*
X-11998481Y2270421D01*
X-12000170Y2272478D01*
X-12001591Y2274737D01*
X-12003090Y2276037D01*
X-12007808Y2281786D01*
X-12055427Y2329405D01*
X-12066792Y2338732D01*
X-12069283Y2339764D01*
X-12071318Y2341529D01*
X-12077386Y2344238D01*
X-12055427Y2366196D01*
X-12050709Y2371946D01*
X-12049210Y2373245D01*
X-12047789Y2375505D01*
X-12046100Y2377561D01*
X-12045343Y2379389D01*
X-12041378Y2385688D01*
X-11993759Y2480926D01*
X-11988504Y2494657D01*
X-11988313Y2497347D01*
X-11987282Y2499835D01*
X-11985841Y2514467D01*
X-11985841Y2523848D01*
X-11706680Y2523848D01*
X-11704606Y2494658D01*
X-11691519Y2468483D01*
X-11669411Y2449310D01*
X-11641650Y2440056D01*
X-11612460Y2442130D01*
X-11598728Y2447385D01*
X-11503490Y2495004D01*
X-11497191Y2498969D01*
X-11495363Y2499726D01*
X-11493307Y2501415D01*
X-11491047Y2502836D01*
X-11489748Y2504335D01*
X-11483998Y2509053D01*
X-11421555Y2571496D01*
X-11421555Y1875181D01*
X-11632269Y1875181D01*
X-11646901Y1873740D01*
X-11673937Y1862541D01*
X-11694629Y1841849D01*
X-11705828Y1814813D01*
X-11705828Y1785549D01*
X-11694629Y1758513D01*
X-11673937Y1737821D01*
X-11646901Y1726622D01*
X-11632269Y1725181D01*
X-11060841Y1725181D01*
X-11046209Y1726622D01*
X-11019173Y1737821D01*
X-10998481Y1758513D01*
X-10987282Y1785549D01*
X-10987282Y1814813D01*
X-10998481Y1841849D01*
X-11019173Y1862541D01*
X-11046209Y1873740D01*
X-11060841Y1875181D01*
X-11271555Y1875181D01*
X-11271555Y2800181D01*
X-11271561Y2800234D01*
X-11271555Y2800260D01*
X-11271571Y2800337D01*
X-11272996Y2814813D01*
X-11275838Y2821674D01*
X-11277294Y2828955D01*
X-11281384Y2835062D01*
X-11284195Y2841849D01*
X-11289444Y2847098D01*
X-11293577Y2853270D01*
X-11299694Y2857348D01*
X-11304887Y2862541D01*
X-11311747Y2865383D01*
X-11317926Y2869502D01*
X-11325135Y2870928D01*
X-11331923Y2873740D01*
X-11339350Y2873740D01*
X-11346634Y2875181D01*
X-11353839Y2873740D01*
X-11361187Y2873740D01*
X-11368048Y2870899D01*
X-11375328Y2869442D01*
X-11381434Y2865354D01*
X-11388223Y2862541D01*
X-11393474Y2857291D01*
X-11399643Y2853159D01*
X-11408864Y2841901D01*
X-11408915Y2841849D01*
X-11408925Y2841827D01*
X-11408959Y2841784D01*
X-11500079Y2705104D01*
X-11581458Y2623725D01*
X-11665810Y2581549D01*
X-11678253Y2573717D01*
X-11697426Y2551609D01*
X-11706680Y2523848D01*
X-11985841Y2523848D01*
X-11985841Y2609705D01*
X-11987282Y2624337D01*
X-11988313Y2626826D01*
X-11988504Y2629515D01*
X-11993759Y2643246D01*
X-12041378Y2738484D01*
X-12045343Y2744784D01*
X-12046100Y2746611D01*
X-12047789Y2748668D01*
X-12049210Y2750927D01*
X-12050709Y2752227D01*
X-12055427Y2757976D01*
X-12103046Y2805595D01*
X-12108796Y2810314D01*
X-12110095Y2811812D01*
X-12112355Y2813234D01*
X-12114411Y2814922D01*
X-12116239Y2815680D01*
X-12122538Y2819644D01*
X-12217776Y2867263D01*
X-12231508Y2872518D01*
X-12234196Y2872709D01*
X-12236685Y2873740D01*
X-12251317Y2875181D01*
X-12584650Y2875181D01*
X-12599282Y2873740D01*
X-12626318Y2862541D01*
X-12647010Y2841849D01*
X-12658209Y2814813D01*
X-12659650Y2800181D01*
X-12955859Y2800181D01*
X-12976080Y2817719D01*
X-12989505Y2823713D01*
X-13132362Y2871332D01*
X-13139616Y2872982D01*
X-13141447Y2873740D01*
X-13144102Y2874002D01*
X-13146699Y2874592D01*
X-13148674Y2874452D01*
X-13156079Y2875181D01*
X-13394174Y2875181D01*
X-13408806Y2873740D01*
X-13411295Y2872710D01*
X-13413984Y2872518D01*
X-13427715Y2867263D01*
X-13522953Y2819644D01*
X-13529253Y2815680D01*
X-13531080Y2814922D01*
X-13533137Y2813234D01*
X-13535396Y2811812D01*
X-13536696Y2810314D01*
X-13542445Y2805595D01*
X-13590064Y2757976D01*
X-13594783Y2752227D01*
X-13596281Y2750927D01*
X-13597703Y2748668D01*
X-13599391Y2746611D01*
X-13600149Y2744784D01*
X-13604113Y2738484D01*
X-13651732Y2643246D01*
X-13656987Y2629514D01*
X-13657178Y2626827D01*
X-13658209Y2624337D01*
X-13659650Y2609705D01*
X-13938221Y2609705D01*
X-13938221Y2800181D01*
X-13939662Y2814813D01*
X-13950861Y2841849D01*
X-13971553Y2862541D01*
X-13998589Y2873740D01*
X-14027853Y2873740D01*
X-14054889Y2862541D01*
X-14075581Y2841849D01*
X-14086780Y2814813D01*
X-14088221Y2800181D01*
X-14199332Y2800181D01*
X-14199332Y2986292D01*
X-10876171Y2986292D01*
X-10876171Y1614070D01*
G37*
X2693922Y15380181D02*
X3027255Y14380181D01*
X3027255Y14380181D02*
X3360588Y15380181D01*
X-3210840Y14715896D02*
X-2734650Y14715896D01*
X-3306078Y14430181D02*
X-2972745Y15430181D01*
X-2972745Y15430181D02*
X-2639412Y14430181D01*
X-1458459Y15530181D02*
X-1220364Y14530181D01*
X-1220364Y14530181D02*
X-1029888Y15244467D01*
X-1029888Y15244467D02*
X-839412Y14530181D01*
X-839412Y14530181D02*
X-601316Y15530181D01*
G36*
X-13538707Y4260896D02*
G01*
X-13806783Y4260896D01*
X-13672745Y4663011D01*
X-13538707Y4260896D01*
G37*
G36*
X-12297599Y3714070D02*
G01*
X-14191600Y3714070D01*
X-14191600Y3909561D01*
X-14080489Y3909561D01*
X-14078414Y3880371D01*
X-14065328Y3854198D01*
X-14043221Y3835024D01*
X-14015458Y3825770D01*
X-13986268Y3827845D01*
X-13960095Y3840931D01*
X-13940921Y3863038D01*
X-13934927Y3876464D01*
X-13856783Y4110896D01*
X-13488707Y4110896D01*
X-13410563Y3876464D01*
X-13404569Y3863039D01*
X-13385395Y3840932D01*
X-13359222Y3827845D01*
X-13330032Y3825770D01*
X-13302270Y3835024D01*
X-13280162Y3854198D01*
X-13267076Y3880372D01*
X-13265001Y3909562D01*
X-13268261Y3923898D01*
X-13501577Y4623848D01*
X-13128108Y4623848D01*
X-13126034Y4594658D01*
X-13112947Y4568483D01*
X-13090839Y4549310D01*
X-13063078Y4540056D01*
X-13033888Y4542130D01*
X-13020156Y4547385D01*
X-12924918Y4595004D01*
X-12918619Y4598969D01*
X-12916791Y4599726D01*
X-12914735Y4601415D01*
X-12912475Y4602836D01*
X-12911176Y4604335D01*
X-12905426Y4609053D01*
X-12842983Y4671496D01*
X-12842983Y3975181D01*
X-13053697Y3975181D01*
X-13068329Y3973740D01*
X-13095365Y3962541D01*
X-13116057Y3941849D01*
X-13127256Y3914813D01*
X-13127256Y3885549D01*
X-13116057Y3858513D01*
X-13095365Y3837821D01*
X-13068329Y3826622D01*
X-13053697Y3825181D01*
X-12482269Y3825181D01*
X-12467637Y3826622D01*
X-12440601Y3837821D01*
X-12419909Y3858513D01*
X-12408710Y3885549D01*
X-12408710Y3914813D01*
X-12419909Y3941849D01*
X-12440601Y3962541D01*
X-12467637Y3973740D01*
X-12482269Y3975181D01*
X-12692983Y3975181D01*
X-12692983Y4900181D01*
X-12692989Y4900234D01*
X-12692983Y4900260D01*
X-12692999Y4900337D01*
X-12694424Y4914813D01*
X-12697266Y4921674D01*
X-12698722Y4928955D01*
X-12702812Y4935062D01*
X-12705623Y4941849D01*
X-12710872Y4947098D01*
X-12715005Y4953270D01*
X-12721122Y4957348D01*
X-12726315Y4962541D01*
X-12733175Y4965383D01*
X-12739354Y4969502D01*
X-12746563Y4970928D01*
X-12753351Y4973740D01*
X-12760778Y4973740D01*
X-12768062Y4975181D01*
X-12775267Y4973740D01*
X-12782615Y4973740D01*
X-12789476Y4970899D01*
X-12796756Y4969442D01*
X-12802862Y4965354D01*
X-12809651Y4962541D01*
X-12814902Y4957291D01*
X-12821071Y4953159D01*
X-12830292Y4941901D01*
X-12830343Y4941849D01*
X-12830353Y4941827D01*
X-12830387Y4941784D01*
X-12921507Y4805104D01*
X-13002886Y4723725D01*
X-13087238Y4681549D01*
X-13099681Y4673717D01*
X-13118854Y4651609D01*
X-13128108Y4623848D01*
X-13501577Y4623848D01*
X-13601594Y4923898D01*
X-13607588Y4937324D01*
X-13611100Y4941373D01*
X-13613495Y4946164D01*
X-13620599Y4952326D01*
X-13626762Y4959431D01*
X-13631556Y4961828D01*
X-13635603Y4965338D01*
X-13644525Y4968312D01*
X-13652935Y4972517D01*
X-13658280Y4972897D01*
X-13663365Y4974592D01*
X-13672745Y4973926D01*
X-13682125Y4974592D01*
X-13687211Y4972897D01*
X-13692555Y4972517D01*
X-13700963Y4968313D01*
X-13709888Y4965338D01*
X-13713939Y4961825D01*
X-13718728Y4959430D01*
X-13724887Y4952330D01*
X-13731995Y4946164D01*
X-13734392Y4941371D01*
X-13737902Y4937323D01*
X-13743896Y4923898D01*
X-14077229Y3923898D01*
X-14080489Y3909561D01*
X-14191600Y3909561D01*
X-14191600Y5086292D01*
X-12297599Y5086292D01*
X-12297599Y3714070D01*
G37*
D12*
X4514188Y4640001D02*
X4542760Y4611429D01*
X4542760Y4611429D02*
X4571331Y4525715D01*
X4571331Y4525715D02*
X4571331Y4468572D01*
X4571331Y4468572D02*
X4542760Y4382858D01*
X4542760Y4382858D02*
X4485617Y4325715D01*
X4485617Y4325715D02*
X4428474Y4297144D01*
X4428474Y4297144D02*
X4314188Y4268572D01*
X4314188Y4268572D02*
X4228474Y4268572D01*
X4228474Y4268572D02*
X4114188Y4297144D01*
X4114188Y4297144D02*
X4057045Y4325715D01*
X4057045Y4325715D02*
X3999902Y4382858D01*
X3999902Y4382858D02*
X3971331Y4468572D01*
X3971331Y4468572D02*
X3971331Y4525715D01*
X3971331Y4525715D02*
X3999902Y4611429D01*
X3999902Y4611429D02*
X4028474Y4640001D01*
X4228474Y4982858D02*
X4199902Y4925715D01*
X4199902Y4925715D02*
X4171331Y4897144D01*
X4171331Y4897144D02*
X4114188Y4868572D01*
X4114188Y4868572D02*
X4085617Y4868572D01*
X4085617Y4868572D02*
X4028474Y4897144D01*
X4028474Y4897144D02*
X3999902Y4925715D01*
X3999902Y4925715D02*
X3971331Y4982858D01*
X3971331Y4982858D02*
X3971331Y5097144D01*
X3971331Y5097144D02*
X3999902Y5154286D01*
X3999902Y5154286D02*
X4028474Y5182858D01*
X4028474Y5182858D02*
X4085617Y5211429D01*
X4085617Y5211429D02*
X4114188Y5211429D01*
X4114188Y5211429D02*
X4171331Y5182858D01*
X4171331Y5182858D02*
X4199902Y5154286D01*
X4199902Y5154286D02*
X4228474Y5097144D01*
X4228474Y5097144D02*
X4228474Y4982858D01*
X4228474Y4982858D02*
X4257045Y4925715D01*
X4257045Y4925715D02*
X4285617Y4897144D01*
X4285617Y4897144D02*
X4342760Y4868572D01*
X4342760Y4868572D02*
X4457045Y4868572D01*
X4457045Y4868572D02*
X4514188Y4897144D01*
X4514188Y4897144D02*
X4542760Y4925715D01*
X4542760Y4925715D02*
X4571331Y4982858D01*
X4571331Y4982858D02*
X4571331Y5097144D01*
X4571331Y5097144D02*
X4542760Y5154286D01*
X4542760Y5154286D02*
X4514188Y5182858D01*
X4514188Y5182858D02*
X4457045Y5211429D01*
X4457045Y5211429D02*
X4342760Y5211429D01*
X4342760Y5211429D02*
X4285617Y5182858D01*
X4285617Y5182858D02*
X4257045Y5154286D01*
X4257045Y5154286D02*
X4228474Y5097144D01*
X-11635715Y6188669D02*
X-11835715Y6474383D01*
X-11978572Y6188669D02*
X-11978572Y6788669D01*
X-11978572Y6788669D02*
X-11750001Y6788669D01*
X-11750001Y6788669D02*
X-11692858Y6760098D01*
X-11692858Y6760098D02*
X-11664287Y6731526D01*
X-11664287Y6731526D02*
X-11635715Y6674383D01*
X-11635715Y6674383D02*
X-11635715Y6588669D01*
X-11635715Y6588669D02*
X-11664287Y6531526D01*
X-11664287Y6531526D02*
X-11692858Y6502955D01*
X-11692858Y6502955D02*
X-11750001Y6474383D01*
X-11750001Y6474383D02*
X-11978572Y6474383D01*
X-11407144Y6731526D02*
X-11378572Y6760098D01*
X-11378572Y6760098D02*
X-11321429Y6788669D01*
X-11321429Y6788669D02*
X-11178572Y6788669D01*
X-11178572Y6788669D02*
X-11121429Y6760098D01*
X-11121429Y6760098D02*
X-11092858Y6731526D01*
X-11092858Y6731526D02*
X-11064287Y6674383D01*
X-11064287Y6674383D02*
X-11064287Y6617240D01*
X-11064287Y6617240D02*
X-11092858Y6531526D01*
X-11092858Y6531526D02*
X-11435715Y6188669D01*
X-11435715Y6188669D02*
X-11064287Y6188669D01*
X-10550000Y6588669D02*
X-10550000Y6188669D01*
X-10692858Y6817240D02*
X-10835715Y6388669D01*
X-10835715Y6388669D02*
X-10464286Y6388669D01*
X7971331Y3914286D02*
X7685617Y3714286D01*
X7971331Y3571429D02*
X7371331Y3571429D01*
X7371331Y3571429D02*
X7371331Y3800000D01*
X7371331Y3800000D02*
X7399902Y3857143D01*
X7399902Y3857143D02*
X7428474Y3885714D01*
X7428474Y3885714D02*
X7485617Y3914286D01*
X7485617Y3914286D02*
X7571331Y3914286D01*
X7571331Y3914286D02*
X7628474Y3885714D01*
X7628474Y3885714D02*
X7657045Y3857143D01*
X7657045Y3857143D02*
X7685617Y3800000D01*
X7685617Y3800000D02*
X7685617Y3571429D01*
X7971331Y4485714D02*
X7971331Y4142857D01*
X7971331Y4314286D02*
X7371331Y4314286D01*
X7371331Y4314286D02*
X7457045Y4257143D01*
X7457045Y4257143D02*
X7514188Y4200000D01*
X7514188Y4200000D02*
X7542760Y4142857D01*
X7371331Y4685715D02*
X7371331Y5085715D01*
X7371331Y5085715D02*
X7971331Y4828572D01*
X7914188Y2400001D02*
X7942760Y2371429D01*
X7942760Y2371429D02*
X7971331Y2285715D01*
X7971331Y2285715D02*
X7971331Y2228572D01*
X7971331Y2228572D02*
X7942760Y2142858D01*
X7942760Y2142858D02*
X7885617Y2085715D01*
X7885617Y2085715D02*
X7828474Y2057144D01*
X7828474Y2057144D02*
X7714188Y2028572D01*
X7714188Y2028572D02*
X7628474Y2028572D01*
X7628474Y2028572D02*
X7514188Y2057144D01*
X7514188Y2057144D02*
X7457045Y2085715D01*
X7457045Y2085715D02*
X7399902Y2142858D01*
X7399902Y2142858D02*
X7371331Y2228572D01*
X7371331Y2228572D02*
X7371331Y2285715D01*
X7371331Y2285715D02*
X7399902Y2371429D01*
X7399902Y2371429D02*
X7428474Y2400001D01*
X7371331Y2600001D02*
X7371331Y3000001D01*
X7371331Y3000001D02*
X7971331Y2742858D01*
X-11645715Y7858669D02*
X-11845715Y8144383D01*
X-11988572Y7858669D02*
X-11988572Y8458669D01*
X-11988572Y8458669D02*
X-11760001Y8458669D01*
X-11760001Y8458669D02*
X-11702858Y8430098D01*
X-11702858Y8430098D02*
X-11674287Y8401526D01*
X-11674287Y8401526D02*
X-11645715Y8344383D01*
X-11645715Y8344383D02*
X-11645715Y8258669D01*
X-11645715Y8258669D02*
X-11674287Y8201526D01*
X-11674287Y8201526D02*
X-11702858Y8172955D01*
X-11702858Y8172955D02*
X-11760001Y8144383D01*
X-11760001Y8144383D02*
X-11988572Y8144383D01*
X-11074287Y7858669D02*
X-11417144Y7858669D01*
X-11245715Y7858669D02*
X-11245715Y8458669D01*
X-11245715Y8458669D02*
X-11302858Y8372955D01*
X-11302858Y8372955D02*
X-11360001Y8315812D01*
X-11360001Y8315812D02*
X-11417144Y8287240D01*
X-10702858Y8458669D02*
X-10645715Y8458669D01*
X-10645715Y8458669D02*
X-10588572Y8430098D01*
X-10588572Y8430098D02*
X-10560000Y8401526D01*
X-10560000Y8401526D02*
X-10531429Y8344383D01*
X-10531429Y8344383D02*
X-10502858Y8230098D01*
X-10502858Y8230098D02*
X-10502858Y8087240D01*
X-10502858Y8087240D02*
X-10531429Y7972955D01*
X-10531429Y7972955D02*
X-10560000Y7915812D01*
X-10560000Y7915812D02*
X-10588572Y7887240D01*
X-10588572Y7887240D02*
X-10645715Y7858669D01*
X-10645715Y7858669D02*
X-10702858Y7858669D01*
X-10702858Y7858669D02*
X-10760000Y7887240D01*
X-10760000Y7887240D02*
X-10788572Y7915812D01*
X-10788572Y7915812D02*
X-10817143Y7972955D01*
X-10817143Y7972955D02*
X-10845715Y8087240D01*
X-10845715Y8087240D02*
X-10845715Y8230098D01*
X-10845715Y8230098D02*
X-10817143Y8344383D01*
X-10817143Y8344383D02*
X-10788572Y8401526D01*
X-10788572Y8401526D02*
X-10760000Y8430098D01*
X-10760000Y8430098D02*
X-10702858Y8458669D01*
X-10325812Y-4799999D02*
X-10297240Y-4828571D01*
X-10297240Y-4828571D02*
X-10268669Y-4914285D01*
X-10268669Y-4914285D02*
X-10268669Y-4971428D01*
X-10268669Y-4971428D02*
X-10297240Y-5057142D01*
X-10297240Y-5057142D02*
X-10354383Y-5114285D01*
X-10354383Y-5114285D02*
X-10411526Y-5142856D01*
X-10411526Y-5142856D02*
X-10525812Y-5171428D01*
X-10525812Y-5171428D02*
X-10611526Y-5171428D01*
X-10611526Y-5171428D02*
X-10725812Y-5142856D01*
X-10725812Y-5142856D02*
X-10782955Y-5114285D01*
X-10782955Y-5114285D02*
X-10840098Y-5057142D01*
X-10840098Y-5057142D02*
X-10868669Y-4971428D01*
X-10868669Y-4971428D02*
X-10868669Y-4914285D01*
X-10868669Y-4914285D02*
X-10840098Y-4828571D01*
X-10840098Y-4828571D02*
X-10811526Y-4799999D01*
X-10268669Y-4228571D02*
X-10268669Y-4571428D01*
X-10268669Y-4399999D02*
X-10868669Y-4399999D01*
X-10868669Y-4399999D02*
X-10782955Y-4457142D01*
X-10782955Y-4457142D02*
X-10725812Y-4514285D01*
X-10725812Y-4514285D02*
X-10697240Y-4571428D01*
X-9485715Y10885812D02*
X-9514287Y10857240D01*
X-9514287Y10857240D02*
X-9600001Y10828669D01*
X-9600001Y10828669D02*
X-9657144Y10828669D01*
X-9657144Y10828669D02*
X-9742858Y10857240D01*
X-9742858Y10857240D02*
X-9800001Y10914383D01*
X-9800001Y10914383D02*
X-9828572Y10971526D01*
X-9828572Y10971526D02*
X-9857144Y11085812D01*
X-9857144Y11085812D02*
X-9857144Y11171526D01*
X-9857144Y11171526D02*
X-9828572Y11285812D01*
X-9828572Y11285812D02*
X-9800001Y11342955D01*
X-9800001Y11342955D02*
X-9742858Y11400098D01*
X-9742858Y11400098D02*
X-9657144Y11428669D01*
X-9657144Y11428669D02*
X-9600001Y11428669D01*
X-9600001Y11428669D02*
X-9514287Y11400098D01*
X-9514287Y11400098D02*
X-9485715Y11371526D01*
X-8914287Y10828669D02*
X-9257144Y10828669D01*
X-9085715Y10828669D02*
X-9085715Y11428669D01*
X-9085715Y11428669D02*
X-9142858Y11342955D01*
X-9142858Y11342955D02*
X-9200001Y11285812D01*
X-9200001Y11285812D02*
X-9257144Y11257240D01*
X-8342858Y10828669D02*
X-8685715Y10828669D01*
X-8514286Y10828669D02*
X-8514286Y11428669D01*
X-8514286Y11428669D02*
X-8571429Y11342955D01*
X-8571429Y11342955D02*
X-8628572Y11285812D01*
X-8628572Y11285812D02*
X-8685715Y11257240D01*
X-6978669Y-6015714D02*
X-7264383Y-6215714D01*
X-6978669Y-6358571D02*
X-7578669Y-6358571D01*
X-7578669Y-6358571D02*
X-7578669Y-6130000D01*
X-7578669Y-6130000D02*
X-7550098Y-6072857D01*
X-7550098Y-6072857D02*
X-7521526Y-6044286D01*
X-7521526Y-6044286D02*
X-7464383Y-6015714D01*
X-7464383Y-6015714D02*
X-7378669Y-6015714D01*
X-7378669Y-6015714D02*
X-7321526Y-6044286D01*
X-7321526Y-6044286D02*
X-7292955Y-6072857D01*
X-7292955Y-6072857D02*
X-7264383Y-6130000D01*
X-7264383Y-6130000D02*
X-7264383Y-6358571D01*
X-6978669Y-5444286D02*
X-6978669Y-5787143D01*
X-6978669Y-5615714D02*
X-7578669Y-5615714D01*
X-7578669Y-5615714D02*
X-7492955Y-5672857D01*
X-7492955Y-5672857D02*
X-7435812Y-5730000D01*
X-7435812Y-5730000D02*
X-7407240Y-5787143D01*
X-7321526Y-5101428D02*
X-7350098Y-5158571D01*
X-7350098Y-5158571D02*
X-7378669Y-5187142D01*
X-7378669Y-5187142D02*
X-7435812Y-5215714D01*
X-7435812Y-5215714D02*
X-7464383Y-5215714D01*
X-7464383Y-5215714D02*
X-7521526Y-5187142D01*
X-7521526Y-5187142D02*
X-7550098Y-5158571D01*
X-7550098Y-5158571D02*
X-7578669Y-5101428D01*
X-7578669Y-5101428D02*
X-7578669Y-4987142D01*
X-7578669Y-4987142D02*
X-7550098Y-4930000D01*
X-7550098Y-4930000D02*
X-7521526Y-4901428D01*
X-7521526Y-4901428D02*
X-7464383Y-4872857D01*
X-7464383Y-4872857D02*
X-7435812Y-4872857D01*
X-7435812Y-4872857D02*
X-7378669Y-4901428D01*
X-7378669Y-4901428D02*
X-7350098Y-4930000D01*
X-7350098Y-4930000D02*
X-7321526Y-4987142D01*
X-7321526Y-4987142D02*
X-7321526Y-5101428D01*
X-7321526Y-5101428D02*
X-7292955Y-5158571D01*
X-7292955Y-5158571D02*
X-7264383Y-5187142D01*
X-7264383Y-5187142D02*
X-7207240Y-5215714D01*
X-7207240Y-5215714D02*
X-7092955Y-5215714D01*
X-7092955Y-5215714D02*
X-7035812Y-5187142D01*
X-7035812Y-5187142D02*
X-7007240Y-5158571D01*
X-7007240Y-5158571D02*
X-6978669Y-5101428D01*
X-6978669Y-5101428D02*
X-6978669Y-4987142D01*
X-6978669Y-4987142D02*
X-7007240Y-4930000D01*
X-7007240Y-4930000D02*
X-7035812Y-4901428D01*
X-7035812Y-4901428D02*
X-7092955Y-4872857D01*
X-7092955Y-4872857D02*
X-7207240Y-4872857D01*
X-7207240Y-4872857D02*
X-7264383Y-4901428D01*
X-7264383Y-4901428D02*
X-7292955Y-4930000D01*
X-7292955Y-4930000D02*
X-7321526Y-4987142D01*
X-10278669Y234286D02*
X-10564383Y34286D01*
X-10278669Y-108571D02*
X-10878669Y-108571D01*
X-10878669Y-108571D02*
X-10878669Y120000D01*
X-10878669Y120000D02*
X-10850098Y177143D01*
X-10850098Y177143D02*
X-10821526Y205714D01*
X-10821526Y205714D02*
X-10764383Y234286D01*
X-10764383Y234286D02*
X-10678669Y234286D01*
X-10678669Y234286D02*
X-10621526Y205714D01*
X-10621526Y205714D02*
X-10592955Y177143D01*
X-10592955Y177143D02*
X-10564383Y120000D01*
X-10564383Y120000D02*
X-10564383Y-108571D01*
X-10878669Y434286D02*
X-10878669Y805714D01*
X-10878669Y805714D02*
X-10650098Y605714D01*
X-10650098Y605714D02*
X-10650098Y691429D01*
X-10650098Y691429D02*
X-10621526Y748571D01*
X-10621526Y748571D02*
X-10592955Y777143D01*
X-10592955Y777143D02*
X-10535812Y805714D01*
X-10535812Y805714D02*
X-10392955Y805714D01*
X-10392955Y805714D02*
X-10335812Y777143D01*
X-10335812Y777143D02*
X-10307240Y748571D01*
X-10307240Y748571D02*
X-10278669Y691429D01*
X-10278669Y691429D02*
X-10278669Y520000D01*
X-10278669Y520000D02*
X-10307240Y462857D01*
X-10307240Y462857D02*
X-10335812Y434286D01*
X-10278669Y1377143D02*
X-10278669Y1034286D01*
X-10278669Y1205715D02*
X-10878669Y1205715D01*
X-10878669Y1205715D02*
X-10792955Y1148572D01*
X-10792955Y1148572D02*
X-10735812Y1091429D01*
X-10735812Y1091429D02*
X-10707240Y1034286D01*
X-7028669Y1742858D02*
X-6542955Y1742858D01*
X-6542955Y1742858D02*
X-6485812Y1771429D01*
X-6485812Y1771429D02*
X-6457240Y1800000D01*
X-6457240Y1800000D02*
X-6428669Y1857143D01*
X-6428669Y1857143D02*
X-6428669Y1971429D01*
X-6428669Y1971429D02*
X-6457240Y2028572D01*
X-6457240Y2028572D02*
X-6485812Y2057143D01*
X-6485812Y2057143D02*
X-6542955Y2085715D01*
X-6542955Y2085715D02*
X-7028669Y2085715D01*
X-6428669Y2685714D02*
X-6428669Y2342857D01*
X-6428669Y2514286D02*
X-7028669Y2514286D01*
X-7028669Y2514286D02*
X-6942955Y2457143D01*
X-6942955Y2457143D02*
X-6885812Y2400000D01*
X-6885812Y2400000D02*
X-6857240Y2342857D01*
X4374285Y-4424188D02*
X4345713Y-4452760D01*
X4345713Y-4452760D02*
X4259999Y-4481331D01*
X4259999Y-4481331D02*
X4202856Y-4481331D01*
X4202856Y-4481331D02*
X4117142Y-4452760D01*
X4117142Y-4452760D02*
X4059999Y-4395617D01*
X4059999Y-4395617D02*
X4031428Y-4338474D01*
X4031428Y-4338474D02*
X4002856Y-4224188D01*
X4002856Y-4224188D02*
X4002856Y-4138474D01*
X4002856Y-4138474D02*
X4031428Y-4024188D01*
X4031428Y-4024188D02*
X4059999Y-3967045D01*
X4059999Y-3967045D02*
X4117142Y-3909902D01*
X4117142Y-3909902D02*
X4202856Y-3881331D01*
X4202856Y-3881331D02*
X4259999Y-3881331D01*
X4259999Y-3881331D02*
X4345713Y-3909902D01*
X4345713Y-3909902D02*
X4374285Y-3938474D01*
X4945713Y-4481331D02*
X4602856Y-4481331D01*
X4774285Y-4481331D02*
X4774285Y-3881331D01*
X4774285Y-3881331D02*
X4717142Y-3967045D01*
X4717142Y-3967045D02*
X4659999Y-4024188D01*
X4659999Y-4024188D02*
X4602856Y-4052760D01*
X5174285Y-3938474D02*
X5202857Y-3909902D01*
X5202857Y-3909902D02*
X5260000Y-3881331D01*
X5260000Y-3881331D02*
X5402857Y-3881331D01*
X5402857Y-3881331D02*
X5460000Y-3909902D01*
X5460000Y-3909902D02*
X5488571Y-3938474D01*
X5488571Y-3938474D02*
X5517142Y-3995617D01*
X5517142Y-3995617D02*
X5517142Y-4052760D01*
X5517142Y-4052760D02*
X5488571Y-4138474D01*
X5488571Y-4138474D02*
X5145714Y-4481331D01*
X5145714Y-4481331D02*
X5517142Y-4481331D01*
X-13848669Y-5385714D02*
X-14134383Y-5585714D01*
X-13848669Y-5728571D02*
X-14448669Y-5728571D01*
X-14448669Y-5728571D02*
X-14448669Y-5500000D01*
X-14448669Y-5500000D02*
X-14420098Y-5442857D01*
X-14420098Y-5442857D02*
X-14391526Y-5414286D01*
X-14391526Y-5414286D02*
X-14334383Y-5385714D01*
X-14334383Y-5385714D02*
X-14248669Y-5385714D01*
X-14248669Y-5385714D02*
X-14191526Y-5414286D01*
X-14191526Y-5414286D02*
X-14162955Y-5442857D01*
X-14162955Y-5442857D02*
X-14134383Y-5500000D01*
X-14134383Y-5500000D02*
X-14134383Y-5728571D01*
X-14448669Y-4842857D02*
X-14448669Y-5128571D01*
X-14448669Y-5128571D02*
X-14162955Y-5157143D01*
X-14162955Y-5157143D02*
X-14191526Y-5128571D01*
X-14191526Y-5128571D02*
X-14220098Y-5071429D01*
X-14220098Y-5071429D02*
X-14220098Y-4928571D01*
X-14220098Y-4928571D02*
X-14191526Y-4871429D01*
X-14191526Y-4871429D02*
X-14162955Y-4842857D01*
X-14162955Y-4842857D02*
X-14105812Y-4814286D01*
X-14105812Y-4814286D02*
X-13962955Y-4814286D01*
X-13962955Y-4814286D02*
X-13905812Y-4842857D01*
X-13905812Y-4842857D02*
X-13877240Y-4871429D01*
X-13877240Y-4871429D02*
X-13848669Y-4928571D01*
X-13848669Y-4928571D02*
X-13848669Y-5071429D01*
X-13848669Y-5071429D02*
X-13877240Y-5128571D01*
X-13877240Y-5128571D02*
X-13905812Y-5157143D01*
X-14162955Y-4357142D02*
X-14134383Y-4271428D01*
X-14134383Y-4271428D02*
X-14105812Y-4242857D01*
X-14105812Y-4242857D02*
X-14048669Y-4214285D01*
X-14048669Y-4214285D02*
X-13962955Y-4214285D01*
X-13962955Y-4214285D02*
X-13905812Y-4242857D01*
X-13905812Y-4242857D02*
X-13877240Y-4271428D01*
X-13877240Y-4271428D02*
X-13848669Y-4328571D01*
X-13848669Y-4328571D02*
X-13848669Y-4557142D01*
X-13848669Y-4557142D02*
X-14448669Y-4557142D01*
X-14448669Y-4557142D02*
X-14448669Y-4357142D01*
X-14448669Y-4357142D02*
X-14420098Y-4300000D01*
X-14420098Y-4300000D02*
X-14391526Y-4271428D01*
X-14391526Y-4271428D02*
X-14334383Y-4242857D01*
X-14334383Y-4242857D02*
X-14277240Y-4242857D01*
X-14277240Y-4242857D02*
X-14220098Y-4271428D01*
X-14220098Y-4271428D02*
X-14191526Y-4300000D01*
X-14191526Y-4300000D02*
X-14162955Y-4357142D01*
X-14162955Y-4357142D02*
X-14162955Y-4557142D01*
X-14448669Y-3842857D02*
X-14448669Y-3785714D01*
X-14448669Y-3785714D02*
X-14420098Y-3728571D01*
X-14420098Y-3728571D02*
X-14391526Y-3700000D01*
X-14391526Y-3700000D02*
X-14334383Y-3671428D01*
X-14334383Y-3671428D02*
X-14220098Y-3642857D01*
X-14220098Y-3642857D02*
X-14077240Y-3642857D01*
X-14077240Y-3642857D02*
X-13962955Y-3671428D01*
X-13962955Y-3671428D02*
X-13905812Y-3700000D01*
X-13905812Y-3700000D02*
X-13877240Y-3728571D01*
X-13877240Y-3728571D02*
X-13848669Y-3785714D01*
X-13848669Y-3785714D02*
X-13848669Y-3842857D01*
X-13848669Y-3842857D02*
X-13877240Y-3900000D01*
X-13877240Y-3900000D02*
X-13905812Y-3928571D01*
X-13905812Y-3928571D02*
X-13962955Y-3957142D01*
X-13962955Y-3957142D02*
X-14077240Y-3985714D01*
X-14077240Y-3985714D02*
X-14220098Y-3985714D01*
X-14220098Y-3985714D02*
X-14334383Y-3957142D01*
X-14334383Y-3957142D02*
X-14391526Y-3928571D01*
X-14391526Y-3928571D02*
X-14420098Y-3900000D01*
X-14420098Y-3900000D02*
X-14448669Y-3842857D01*
X-14248669Y-2595714D02*
X-14534383Y-2795714D01*
X-14248669Y-2938571D02*
X-14848669Y-2938571D01*
X-14848669Y-2938571D02*
X-14848669Y-2710000D01*
X-14848669Y-2710000D02*
X-14820098Y-2652857D01*
X-14820098Y-2652857D02*
X-14791526Y-2624286D01*
X-14791526Y-2624286D02*
X-14734383Y-2595714D01*
X-14734383Y-2595714D02*
X-14648669Y-2595714D01*
X-14648669Y-2595714D02*
X-14591526Y-2624286D01*
X-14591526Y-2624286D02*
X-14562955Y-2652857D01*
X-14562955Y-2652857D02*
X-14534383Y-2710000D01*
X-14534383Y-2710000D02*
X-14534383Y-2938571D01*
X-14848669Y-2395714D02*
X-14848669Y-2024286D01*
X-14848669Y-2024286D02*
X-14620098Y-2224286D01*
X-14620098Y-2224286D02*
X-14620098Y-2138571D01*
X-14620098Y-2138571D02*
X-14591526Y-2081429D01*
X-14591526Y-2081429D02*
X-14562955Y-2052857D01*
X-14562955Y-2052857D02*
X-14505812Y-2024286D01*
X-14505812Y-2024286D02*
X-14362955Y-2024286D01*
X-14362955Y-2024286D02*
X-14305812Y-2052857D01*
X-14305812Y-2052857D02*
X-14277240Y-2081429D01*
X-14277240Y-2081429D02*
X-14248669Y-2138571D01*
X-14248669Y-2138571D02*
X-14248669Y-2310000D01*
X-14248669Y-2310000D02*
X-14277240Y-2367143D01*
X-14277240Y-2367143D02*
X-14305812Y-2395714D01*
X-14791526Y-1795714D02*
X-14820098Y-1767142D01*
X-14820098Y-1767142D02*
X-14848669Y-1710000D01*
X-14848669Y-1710000D02*
X-14848669Y-1567142D01*
X-14848669Y-1567142D02*
X-14820098Y-1510000D01*
X-14820098Y-1510000D02*
X-14791526Y-1481428D01*
X-14791526Y-1481428D02*
X-14734383Y-1452857D01*
X-14734383Y-1452857D02*
X-14677240Y-1452857D01*
X-14677240Y-1452857D02*
X-14591526Y-1481428D01*
X-14591526Y-1481428D02*
X-14248669Y-1824285D01*
X-14248669Y-1824285D02*
X-14248669Y-1452857D01*
X9187142Y10268669D02*
X8987142Y10554383D01*
X8844285Y10268669D02*
X8844285Y10868669D01*
X8844285Y10868669D02*
X9072856Y10868669D01*
X9072856Y10868669D02*
X9129999Y10840098D01*
X9129999Y10840098D02*
X9158570Y10811526D01*
X9158570Y10811526D02*
X9187142Y10754383D01*
X9187142Y10754383D02*
X9187142Y10668669D01*
X9187142Y10668669D02*
X9158570Y10611526D01*
X9158570Y10611526D02*
X9129999Y10582955D01*
X9129999Y10582955D02*
X9072856Y10554383D01*
X9072856Y10554383D02*
X8844285Y10554383D01*
X9387142Y10868669D02*
X9787142Y10868669D01*
X9787142Y10868669D02*
X9529999Y10268669D01*
X9987142Y10440098D02*
X10272857Y10440098D01*
X9929999Y10268669D02*
X10129999Y10868669D01*
X10129999Y10868669D02*
X10329999Y10268669D01*
X10644285Y10868669D02*
X10701428Y10868669D01*
X10701428Y10868669D02*
X10758571Y10840098D01*
X10758571Y10840098D02*
X10787143Y10811526D01*
X10787143Y10811526D02*
X10815714Y10754383D01*
X10815714Y10754383D02*
X10844285Y10640098D01*
X10844285Y10640098D02*
X10844285Y10497240D01*
X10844285Y10497240D02*
X10815714Y10382955D01*
X10815714Y10382955D02*
X10787143Y10325812D01*
X10787143Y10325812D02*
X10758571Y10297240D01*
X10758571Y10297240D02*
X10701428Y10268669D01*
X10701428Y10268669D02*
X10644285Y10268669D01*
X10644285Y10268669D02*
X10587143Y10297240D01*
X10587143Y10297240D02*
X10558571Y10325812D01*
X10558571Y10325812D02*
X10530000Y10382955D01*
X10530000Y10382955D02*
X10501428Y10497240D01*
X10501428Y10497240D02*
X10501428Y10640098D01*
X10501428Y10640098D02*
X10530000Y10754383D01*
X10530000Y10754383D02*
X10558571Y10811526D01*
X10558571Y10811526D02*
X10587143Y10840098D01*
X10587143Y10840098D02*
X10644285Y10868669D01*
X-6400000Y12385812D02*
X-6428572Y12357240D01*
X-6428572Y12357240D02*
X-6514286Y12328669D01*
X-6514286Y12328669D02*
X-6571429Y12328669D01*
X-6571429Y12328669D02*
X-6657143Y12357240D01*
X-6657143Y12357240D02*
X-6714286Y12414383D01*
X-6714286Y12414383D02*
X-6742857Y12471526D01*
X-6742857Y12471526D02*
X-6771429Y12585812D01*
X-6771429Y12585812D02*
X-6771429Y12671526D01*
X-6771429Y12671526D02*
X-6742857Y12785812D01*
X-6742857Y12785812D02*
X-6714286Y12842955D01*
X-6714286Y12842955D02*
X-6657143Y12900098D01*
X-6657143Y12900098D02*
X-6571429Y12928669D01*
X-6571429Y12928669D02*
X-6514286Y12928669D01*
X-6514286Y12928669D02*
X-6428572Y12900098D01*
X-6428572Y12900098D02*
X-6400000Y12871526D01*
X-6200000Y12928669D02*
X-5828572Y12928669D01*
X-5828572Y12928669D02*
X-6028572Y12700098D01*
X-6028572Y12700098D02*
X-5942857Y12700098D01*
X-5942857Y12700098D02*
X-5885714Y12671526D01*
X-5885714Y12671526D02*
X-5857143Y12642955D01*
X-5857143Y12642955D02*
X-5828572Y12585812D01*
X-5828572Y12585812D02*
X-5828572Y12442955D01*
X-5828572Y12442955D02*
X-5857143Y12385812D01*
X-5857143Y12385812D02*
X-5885714Y12357240D01*
X-5885714Y12357240D02*
X-5942857Y12328669D01*
X-5942857Y12328669D02*
X-6114286Y12328669D01*
X-6114286Y12328669D02*
X-6171429Y12357240D01*
X-6171429Y12357240D02*
X-6200000Y12385812D01*
X-228669Y1742858D02*
X257045Y1742858D01*
X257045Y1742858D02*
X314188Y1771429D01*
X314188Y1771429D02*
X342760Y1800000D01*
X342760Y1800000D02*
X371331Y1857143D01*
X371331Y1857143D02*
X371331Y1971429D01*
X371331Y1971429D02*
X342760Y2028572D01*
X342760Y2028572D02*
X314188Y2057143D01*
X314188Y2057143D02*
X257045Y2085715D01*
X257045Y2085715D02*
X-228669Y2085715D01*
X-28669Y2628571D02*
X371331Y2628571D01*
X-257240Y2485714D02*
X171331Y2342857D01*
X171331Y2342857D02*
X171331Y2714286D01*
X1451331Y7824286D02*
X1165617Y7624286D01*
X1451331Y7481429D02*
X851331Y7481429D01*
X851331Y7481429D02*
X851331Y7710000D01*
X851331Y7710000D02*
X879902Y7767143D01*
X879902Y7767143D02*
X908474Y7795714D01*
X908474Y7795714D02*
X965617Y7824286D01*
X965617Y7824286D02*
X1051331Y7824286D01*
X1051331Y7824286D02*
X1108474Y7795714D01*
X1108474Y7795714D02*
X1137045Y7767143D01*
X1137045Y7767143D02*
X1165617Y7710000D01*
X1165617Y7710000D02*
X1165617Y7481429D01*
X908474Y8052857D02*
X879902Y8081429D01*
X879902Y8081429D02*
X851331Y8138571D01*
X851331Y8138571D02*
X851331Y8281429D01*
X851331Y8281429D02*
X879902Y8338571D01*
X879902Y8338571D02*
X908474Y8367143D01*
X908474Y8367143D02*
X965617Y8395714D01*
X965617Y8395714D02*
X1022760Y8395714D01*
X1022760Y8395714D02*
X1108474Y8367143D01*
X1108474Y8367143D02*
X1451331Y8024286D01*
X1451331Y8024286D02*
X1451331Y8395714D01*
X851331Y8595715D02*
X851331Y8967143D01*
X851331Y8967143D02*
X1079902Y8767143D01*
X1079902Y8767143D02*
X1079902Y8852858D01*
X1079902Y8852858D02*
X1108474Y8910000D01*
X1108474Y8910000D02*
X1137045Y8938572D01*
X1137045Y8938572D02*
X1194188Y8967143D01*
X1194188Y8967143D02*
X1337045Y8967143D01*
X1337045Y8967143D02*
X1394188Y8938572D01*
X1394188Y8938572D02*
X1422760Y8910000D01*
X1422760Y8910000D02*
X1451331Y8852858D01*
X1451331Y8852858D02*
X1451331Y8681429D01*
X1451331Y8681429D02*
X1422760Y8624286D01*
X1422760Y8624286D02*
X1394188Y8595715D01*
X-4600000Y12328669D02*
X-4800000Y12614383D01*
X-4942857Y12328669D02*
X-4942857Y12928669D01*
X-4942857Y12928669D02*
X-4714286Y12928669D01*
X-4714286Y12928669D02*
X-4657143Y12900098D01*
X-4657143Y12900098D02*
X-4628572Y12871526D01*
X-4628572Y12871526D02*
X-4600000Y12814383D01*
X-4600000Y12814383D02*
X-4600000Y12728669D01*
X-4600000Y12728669D02*
X-4628572Y12671526D01*
X-4628572Y12671526D02*
X-4657143Y12642955D01*
X-4657143Y12642955D02*
X-4714286Y12614383D01*
X-4714286Y12614383D02*
X-4942857Y12614383D01*
X-4028572Y12328669D02*
X-4371429Y12328669D01*
X-4200000Y12328669D02*
X-4200000Y12928669D01*
X-4200000Y12928669D02*
X-4257143Y12842955D01*
X-4257143Y12842955D02*
X-4314286Y12785812D01*
X-4314286Y12785812D02*
X-4371429Y12757240D01*
X-735715Y-3821331D02*
X-935715Y-3535617D01*
X-1078572Y-3821331D02*
X-1078572Y-3221331D01*
X-1078572Y-3221331D02*
X-850001Y-3221331D01*
X-850001Y-3221331D02*
X-792858Y-3249902D01*
X-792858Y-3249902D02*
X-764287Y-3278474D01*
X-764287Y-3278474D02*
X-735715Y-3335617D01*
X-735715Y-3335617D02*
X-735715Y-3421331D01*
X-735715Y-3421331D02*
X-764287Y-3478474D01*
X-764287Y-3478474D02*
X-792858Y-3507045D01*
X-792858Y-3507045D02*
X-850001Y-3535617D01*
X-850001Y-3535617D02*
X-1078572Y-3535617D01*
X-164287Y-3821331D02*
X-507144Y-3821331D01*
X-335715Y-3821331D02*
X-335715Y-3221331D01*
X-335715Y-3221331D02*
X-392858Y-3307045D01*
X-392858Y-3307045D02*
X-450001Y-3364188D01*
X-450001Y-3364188D02*
X-507144Y-3392760D01*
X407142Y-3821331D02*
X64285Y-3821331D01*
X235714Y-3821331D02*
X235714Y-3221331D01*
X235714Y-3221331D02*
X178571Y-3307045D01*
X178571Y-3307045D02*
X121428Y-3364188D01*
X121428Y-3364188D02*
X64285Y-3392760D01*
X1714188Y11600001D02*
X1742760Y11571429D01*
X1742760Y11571429D02*
X1771331Y11485715D01*
X1771331Y11485715D02*
X1771331Y11428572D01*
X1771331Y11428572D02*
X1742760Y11342858D01*
X1742760Y11342858D02*
X1685617Y11285715D01*
X1685617Y11285715D02*
X1628474Y11257144D01*
X1628474Y11257144D02*
X1514188Y11228572D01*
X1514188Y11228572D02*
X1428474Y11228572D01*
X1428474Y11228572D02*
X1314188Y11257144D01*
X1314188Y11257144D02*
X1257045Y11285715D01*
X1257045Y11285715D02*
X1199902Y11342858D01*
X1199902Y11342858D02*
X1171331Y11428572D01*
X1171331Y11428572D02*
X1171331Y11485715D01*
X1171331Y11485715D02*
X1199902Y11571429D01*
X1199902Y11571429D02*
X1228474Y11600001D01*
X1371331Y12114286D02*
X1771331Y12114286D01*
X1142760Y11971429D02*
X1571331Y11828572D01*
X1571331Y11828572D02*
X1571331Y12200001D01*
X-5038669Y-5065714D02*
X-5324383Y-5265714D01*
X-5038669Y-5408571D02*
X-5638669Y-5408571D01*
X-5638669Y-5408571D02*
X-5638669Y-5180000D01*
X-5638669Y-5180000D02*
X-5610098Y-5122857D01*
X-5610098Y-5122857D02*
X-5581526Y-5094286D01*
X-5581526Y-5094286D02*
X-5524383Y-5065714D01*
X-5524383Y-5065714D02*
X-5438669Y-5065714D01*
X-5438669Y-5065714D02*
X-5381526Y-5094286D01*
X-5381526Y-5094286D02*
X-5352955Y-5122857D01*
X-5352955Y-5122857D02*
X-5324383Y-5180000D01*
X-5324383Y-5180000D02*
X-5324383Y-5408571D01*
X-5581526Y-4837143D02*
X-5610098Y-4808571D01*
X-5610098Y-4808571D02*
X-5638669Y-4751429D01*
X-5638669Y-4751429D02*
X-5638669Y-4608571D01*
X-5638669Y-4608571D02*
X-5610098Y-4551429D01*
X-5610098Y-4551429D02*
X-5581526Y-4522857D01*
X-5581526Y-4522857D02*
X-5524383Y-4494286D01*
X-5524383Y-4494286D02*
X-5467240Y-4494286D01*
X-5467240Y-4494286D02*
X-5381526Y-4522857D01*
X-5381526Y-4522857D02*
X-5038669Y-4865714D01*
X-5038669Y-4865714D02*
X-5038669Y-4494286D01*
X-5638669Y-3980000D02*
X-5638669Y-4094285D01*
X-5638669Y-4094285D02*
X-5610098Y-4151428D01*
X-5610098Y-4151428D02*
X-5581526Y-4180000D01*
X-5581526Y-4180000D02*
X-5495812Y-4237142D01*
X-5495812Y-4237142D02*
X-5381526Y-4265714D01*
X-5381526Y-4265714D02*
X-5152955Y-4265714D01*
X-5152955Y-4265714D02*
X-5095812Y-4237142D01*
X-5095812Y-4237142D02*
X-5067240Y-4208571D01*
X-5067240Y-4208571D02*
X-5038669Y-4151428D01*
X-5038669Y-4151428D02*
X-5038669Y-4037142D01*
X-5038669Y-4037142D02*
X-5067240Y-3980000D01*
X-5067240Y-3980000D02*
X-5095812Y-3951428D01*
X-5095812Y-3951428D02*
X-5152955Y-3922857D01*
X-5152955Y-3922857D02*
X-5295812Y-3922857D01*
X-5295812Y-3922857D02*
X-5352955Y-3951428D01*
X-5352955Y-3951428D02*
X-5381526Y-3980000D01*
X-5381526Y-3980000D02*
X-5410098Y-4037142D01*
X-5410098Y-4037142D02*
X-5410098Y-4151428D01*
X-5410098Y-4151428D02*
X-5381526Y-4208571D01*
X-5381526Y-4208571D02*
X-5352955Y-4237142D01*
X-5352955Y-4237142D02*
X-5295812Y-4265714D01*
X1771331Y9800001D02*
X1485617Y9600001D01*
X1771331Y9457144D02*
X1171331Y9457144D01*
X1171331Y9457144D02*
X1171331Y9685715D01*
X1171331Y9685715D02*
X1199902Y9742858D01*
X1199902Y9742858D02*
X1228474Y9771429D01*
X1228474Y9771429D02*
X1285617Y9800001D01*
X1285617Y9800001D02*
X1371331Y9800001D01*
X1371331Y9800001D02*
X1428474Y9771429D01*
X1428474Y9771429D02*
X1457045Y9742858D01*
X1457045Y9742858D02*
X1485617Y9685715D01*
X1485617Y9685715D02*
X1485617Y9457144D01*
X1371331Y10314286D02*
X1771331Y10314286D01*
X1142760Y10171429D02*
X1571331Y10028572D01*
X1571331Y10028572D02*
X1571331Y10400001D01*
X9634188Y-2089999D02*
X9662760Y-2118571D01*
X9662760Y-2118571D02*
X9691331Y-2204285D01*
X9691331Y-2204285D02*
X9691331Y-2261428D01*
X9691331Y-2261428D02*
X9662760Y-2347142D01*
X9662760Y-2347142D02*
X9605617Y-2404285D01*
X9605617Y-2404285D02*
X9548474Y-2432856D01*
X9548474Y-2432856D02*
X9434188Y-2461428D01*
X9434188Y-2461428D02*
X9348474Y-2461428D01*
X9348474Y-2461428D02*
X9234188Y-2432856D01*
X9234188Y-2432856D02*
X9177045Y-2404285D01*
X9177045Y-2404285D02*
X9119902Y-2347142D01*
X9119902Y-2347142D02*
X9091331Y-2261428D01*
X9091331Y-2261428D02*
X9091331Y-2204285D01*
X9091331Y-2204285D02*
X9119902Y-2118571D01*
X9119902Y-2118571D02*
X9148474Y-2089999D01*
X9091331Y-1575714D02*
X9091331Y-1689999D01*
X9091331Y-1689999D02*
X9119902Y-1747142D01*
X9119902Y-1747142D02*
X9148474Y-1775714D01*
X9148474Y-1775714D02*
X9234188Y-1832856D01*
X9234188Y-1832856D02*
X9348474Y-1861428D01*
X9348474Y-1861428D02*
X9577045Y-1861428D01*
X9577045Y-1861428D02*
X9634188Y-1832856D01*
X9634188Y-1832856D02*
X9662760Y-1804285D01*
X9662760Y-1804285D02*
X9691331Y-1747142D01*
X9691331Y-1747142D02*
X9691331Y-1632856D01*
X9691331Y-1632856D02*
X9662760Y-1575714D01*
X9662760Y-1575714D02*
X9634188Y-1547142D01*
X9634188Y-1547142D02*
X9577045Y-1518571D01*
X9577045Y-1518571D02*
X9434188Y-1518571D01*
X9434188Y-1518571D02*
X9377045Y-1547142D01*
X9377045Y-1547142D02*
X9348474Y-1575714D01*
X9348474Y-1575714D02*
X9319902Y-1632856D01*
X9319902Y-1632856D02*
X9319902Y-1747142D01*
X9319902Y-1747142D02*
X9348474Y-1804285D01*
X9348474Y-1804285D02*
X9377045Y-1832856D01*
X9377045Y-1832856D02*
X9434188Y-1861428D01*
X-2900000Y8828669D02*
X-3100000Y9114383D01*
X-3242857Y8828669D02*
X-3242857Y9428669D01*
X-3242857Y9428669D02*
X-3014286Y9428669D01*
X-3014286Y9428669D02*
X-2957143Y9400098D01*
X-2957143Y9400098D02*
X-2928572Y9371526D01*
X-2928572Y9371526D02*
X-2900000Y9314383D01*
X-2900000Y9314383D02*
X-2900000Y9228669D01*
X-2900000Y9228669D02*
X-2928572Y9171526D01*
X-2928572Y9171526D02*
X-2957143Y9142955D01*
X-2957143Y9142955D02*
X-3014286Y9114383D01*
X-3014286Y9114383D02*
X-3242857Y9114383D01*
X-2700000Y9428669D02*
X-2328572Y9428669D01*
X-2328572Y9428669D02*
X-2528572Y9200098D01*
X-2528572Y9200098D02*
X-2442857Y9200098D01*
X-2442857Y9200098D02*
X-2385714Y9171526D01*
X-2385714Y9171526D02*
X-2357143Y9142955D01*
X-2357143Y9142955D02*
X-2328572Y9085812D01*
X-2328572Y9085812D02*
X-2328572Y8942955D01*
X-2328572Y8942955D02*
X-2357143Y8885812D01*
X-2357143Y8885812D02*
X-2385714Y8857240D01*
X-2385714Y8857240D02*
X-2442857Y8828669D01*
X-2442857Y8828669D02*
X-2614286Y8828669D01*
X-2614286Y8828669D02*
X-2671429Y8857240D01*
X-2671429Y8857240D02*
X-2700000Y8885812D01*
X-6758669Y7404286D02*
X-7044383Y7204286D01*
X-6758669Y7061429D02*
X-7358669Y7061429D01*
X-7358669Y7061429D02*
X-7358669Y7290000D01*
X-7358669Y7290000D02*
X-7330098Y7347143D01*
X-7330098Y7347143D02*
X-7301526Y7375714D01*
X-7301526Y7375714D02*
X-7244383Y7404286D01*
X-7244383Y7404286D02*
X-7158669Y7404286D01*
X-7158669Y7404286D02*
X-7101526Y7375714D01*
X-7101526Y7375714D02*
X-7072955Y7347143D01*
X-7072955Y7347143D02*
X-7044383Y7290000D01*
X-7044383Y7290000D02*
X-7044383Y7061429D01*
X-7301526Y7632857D02*
X-7330098Y7661429D01*
X-7330098Y7661429D02*
X-7358669Y7718571D01*
X-7358669Y7718571D02*
X-7358669Y7861429D01*
X-7358669Y7861429D02*
X-7330098Y7918571D01*
X-7330098Y7918571D02*
X-7301526Y7947143D01*
X-7301526Y7947143D02*
X-7244383Y7975714D01*
X-7244383Y7975714D02*
X-7187240Y7975714D01*
X-7187240Y7975714D02*
X-7101526Y7947143D01*
X-7101526Y7947143D02*
X-6758669Y7604286D01*
X-6758669Y7604286D02*
X-6758669Y7975714D01*
X-7301526Y8204286D02*
X-7330098Y8232858D01*
X-7330098Y8232858D02*
X-7358669Y8290000D01*
X-7358669Y8290000D02*
X-7358669Y8432858D01*
X-7358669Y8432858D02*
X-7330098Y8490000D01*
X-7330098Y8490000D02*
X-7301526Y8518572D01*
X-7301526Y8518572D02*
X-7244383Y8547143D01*
X-7244383Y8547143D02*
X-7187240Y8547143D01*
X-7187240Y8547143D02*
X-7101526Y8518572D01*
X-7101526Y8518572D02*
X-6758669Y8175715D01*
X-6758669Y8175715D02*
X-6758669Y8547143D01*
X8171331Y6100001D02*
X7885617Y5900001D01*
X8171331Y5757144D02*
X7571331Y5757144D01*
X7571331Y5757144D02*
X7571331Y5985715D01*
X7571331Y5985715D02*
X7599902Y6042858D01*
X7599902Y6042858D02*
X7628474Y6071429D01*
X7628474Y6071429D02*
X7685617Y6100001D01*
X7685617Y6100001D02*
X7771331Y6100001D01*
X7771331Y6100001D02*
X7828474Y6071429D01*
X7828474Y6071429D02*
X7857045Y6042858D01*
X7857045Y6042858D02*
X7885617Y5985715D01*
X7885617Y5985715D02*
X7885617Y5757144D01*
X8171331Y6385715D02*
X8171331Y6500001D01*
X8171331Y6500001D02*
X8142760Y6557144D01*
X8142760Y6557144D02*
X8114188Y6585715D01*
X8114188Y6585715D02*
X8028474Y6642858D01*
X8028474Y6642858D02*
X7914188Y6671429D01*
X7914188Y6671429D02*
X7685617Y6671429D01*
X7685617Y6671429D02*
X7628474Y6642858D01*
X7628474Y6642858D02*
X7599902Y6614286D01*
X7599902Y6614286D02*
X7571331Y6557144D01*
X7571331Y6557144D02*
X7571331Y6442858D01*
X7571331Y6442858D02*
X7599902Y6385715D01*
X7599902Y6385715D02*
X7628474Y6357144D01*
X7628474Y6357144D02*
X7685617Y6328572D01*
X7685617Y6328572D02*
X7828474Y6328572D01*
X7828474Y6328572D02*
X7885617Y6357144D01*
X7885617Y6357144D02*
X7914188Y6385715D01*
X7914188Y6385715D02*
X7942760Y6442858D01*
X7942760Y6442858D02*
X7942760Y6557144D01*
X7942760Y6557144D02*
X7914188Y6614286D01*
X7914188Y6614286D02*
X7885617Y6642858D01*
X7885617Y6642858D02*
X7828474Y6671429D01*
X-5285715Y-13314188D02*
X-5314287Y-13342760D01*
X-5314287Y-13342760D02*
X-5400001Y-13371331D01*
X-5400001Y-13371331D02*
X-5457144Y-13371331D01*
X-5457144Y-13371331D02*
X-5542858Y-13342760D01*
X-5542858Y-13342760D02*
X-5600001Y-13285617D01*
X-5600001Y-13285617D02*
X-5628572Y-13228474D01*
X-5628572Y-13228474D02*
X-5657144Y-13114188D01*
X-5657144Y-13114188D02*
X-5657144Y-13028474D01*
X-5657144Y-13028474D02*
X-5628572Y-12914188D01*
X-5628572Y-12914188D02*
X-5600001Y-12857045D01*
X-5600001Y-12857045D02*
X-5542858Y-12799902D01*
X-5542858Y-12799902D02*
X-5457144Y-12771331D01*
X-5457144Y-12771331D02*
X-5400001Y-12771331D01*
X-5400001Y-12771331D02*
X-5314287Y-12799902D01*
X-5314287Y-12799902D02*
X-5285715Y-12828474D01*
X-4714287Y-13371331D02*
X-5057144Y-13371331D01*
X-4885715Y-13371331D02*
X-4885715Y-12771331D01*
X-4885715Y-12771331D02*
X-4942858Y-12857045D01*
X-4942858Y-12857045D02*
X-5000001Y-12914188D01*
X-5000001Y-12914188D02*
X-5057144Y-12942760D01*
X-4514286Y-12771331D02*
X-4142858Y-12771331D01*
X-4142858Y-12771331D02*
X-4342858Y-12999902D01*
X-4342858Y-12999902D02*
X-4257143Y-12999902D01*
X-4257143Y-12999902D02*
X-4200000Y-13028474D01*
X-4200000Y-13028474D02*
X-4171429Y-13057045D01*
X-4171429Y-13057045D02*
X-4142858Y-13114188D01*
X-4142858Y-13114188D02*
X-4142858Y-13257045D01*
X-4142858Y-13257045D02*
X-4171429Y-13314188D01*
X-4171429Y-13314188D02*
X-4200000Y-13342760D01*
X-4200000Y-13342760D02*
X-4257143Y-13371331D01*
X-4257143Y-13371331D02*
X-4428572Y-13371331D01*
X-4428572Y-13371331D02*
X-4485715Y-13342760D01*
X-4485715Y-13342760D02*
X-4514286Y-13314188D01*
X-13132858Y-7871331D02*
X-13332858Y-7585617D01*
X-13475715Y-7871331D02*
X-13475715Y-7271331D01*
X-13475715Y-7271331D02*
X-13247144Y-7271331D01*
X-13247144Y-7271331D02*
X-13190001Y-7299902D01*
X-13190001Y-7299902D02*
X-13161430Y-7328474D01*
X-13161430Y-7328474D02*
X-13132858Y-7385617D01*
X-13132858Y-7385617D02*
X-13132858Y-7471331D01*
X-13132858Y-7471331D02*
X-13161430Y-7528474D01*
X-13161430Y-7528474D02*
X-13190001Y-7557045D01*
X-13190001Y-7557045D02*
X-13247144Y-7585617D01*
X-13247144Y-7585617D02*
X-13475715Y-7585617D01*
X-12590001Y-7271331D02*
X-12875715Y-7271331D01*
X-12875715Y-7271331D02*
X-12904287Y-7557045D01*
X-12904287Y-7557045D02*
X-12875715Y-7528474D01*
X-12875715Y-7528474D02*
X-12818572Y-7499902D01*
X-12818572Y-7499902D02*
X-12675715Y-7499902D01*
X-12675715Y-7499902D02*
X-12618572Y-7528474D01*
X-12618572Y-7528474D02*
X-12590001Y-7557045D01*
X-12590001Y-7557045D02*
X-12561430Y-7614188D01*
X-12561430Y-7614188D02*
X-12561430Y-7757045D01*
X-12561430Y-7757045D02*
X-12590001Y-7814188D01*
X-12590001Y-7814188D02*
X-12618572Y-7842760D01*
X-12618572Y-7842760D02*
X-12675715Y-7871331D01*
X-12675715Y-7871331D02*
X-12818572Y-7871331D01*
X-12818572Y-7871331D02*
X-12875715Y-7842760D01*
X-12875715Y-7842760D02*
X-12904287Y-7814188D01*
X-12332858Y-7699902D02*
X-12047143Y-7699902D01*
X-12390001Y-7871331D02*
X-12190001Y-7271331D01*
X-12190001Y-7271331D02*
X-11990001Y-7871331D01*
X-11675715Y-7271331D02*
X-11618572Y-7271331D01*
X-11618572Y-7271331D02*
X-11561429Y-7299902D01*
X-11561429Y-7299902D02*
X-11532857Y-7328474D01*
X-11532857Y-7328474D02*
X-11504286Y-7385617D01*
X-11504286Y-7385617D02*
X-11475715Y-7499902D01*
X-11475715Y-7499902D02*
X-11475715Y-7642760D01*
X-11475715Y-7642760D02*
X-11504286Y-7757045D01*
X-11504286Y-7757045D02*
X-11532857Y-7814188D01*
X-11532857Y-7814188D02*
X-11561429Y-7842760D01*
X-11561429Y-7842760D02*
X-11618572Y-7871331D01*
X-11618572Y-7871331D02*
X-11675715Y-7871331D01*
X-11675715Y-7871331D02*
X-11732857Y-7842760D01*
X-11732857Y-7842760D02*
X-11761429Y-7814188D01*
X-11761429Y-7814188D02*
X-11790000Y-7757045D01*
X-11790000Y-7757045D02*
X-11818572Y-7642760D01*
X-11818572Y-7642760D02*
X-11818572Y-7499902D01*
X-11818572Y-7499902D02*
X-11790000Y-7385617D01*
X-11790000Y-7385617D02*
X-11761429Y-7328474D01*
X-11761429Y-7328474D02*
X-11732857Y-7299902D01*
X-11732857Y-7299902D02*
X-11675715Y-7271331D01*
X-12415715Y-8941331D02*
X-12615715Y-8655617D01*
X-12758572Y-8941331D02*
X-12758572Y-8341331D01*
X-12758572Y-8341331D02*
X-12530001Y-8341331D01*
X-12530001Y-8341331D02*
X-12472858Y-8369902D01*
X-12472858Y-8369902D02*
X-12444287Y-8398474D01*
X-12444287Y-8398474D02*
X-12415715Y-8455617D01*
X-12415715Y-8455617D02*
X-12415715Y-8541331D01*
X-12415715Y-8541331D02*
X-12444287Y-8598474D01*
X-12444287Y-8598474D02*
X-12472858Y-8627045D01*
X-12472858Y-8627045D02*
X-12530001Y-8655617D01*
X-12530001Y-8655617D02*
X-12758572Y-8655617D01*
X-12187144Y-8398474D02*
X-12158572Y-8369902D01*
X-12158572Y-8369902D02*
X-12101429Y-8341331D01*
X-12101429Y-8341331D02*
X-11958572Y-8341331D01*
X-11958572Y-8341331D02*
X-11901429Y-8369902D01*
X-11901429Y-8369902D02*
X-11872858Y-8398474D01*
X-11872858Y-8398474D02*
X-11844287Y-8455617D01*
X-11844287Y-8455617D02*
X-11844287Y-8512760D01*
X-11844287Y-8512760D02*
X-11872858Y-8598474D01*
X-11872858Y-8598474D02*
X-12215715Y-8941331D01*
X-12215715Y-8941331D02*
X-11844287Y-8941331D01*
X-11301429Y-8341331D02*
X-11587143Y-8341331D01*
X-11587143Y-8341331D02*
X-11615715Y-8627045D01*
X-11615715Y-8627045D02*
X-11587143Y-8598474D01*
X-11587143Y-8598474D02*
X-11530000Y-8569902D01*
X-11530000Y-8569902D02*
X-11387143Y-8569902D01*
X-11387143Y-8569902D02*
X-11330000Y-8598474D01*
X-11330000Y-8598474D02*
X-11301429Y-8627045D01*
X-11301429Y-8627045D02*
X-11272858Y-8684188D01*
X-11272858Y-8684188D02*
X-11272858Y-8827045D01*
X-11272858Y-8827045D02*
X-11301429Y-8884188D01*
X-11301429Y-8884188D02*
X-11330000Y-8912760D01*
X-11330000Y-8912760D02*
X-11387143Y-8941331D01*
X-11387143Y-8941331D02*
X-11530000Y-8941331D01*
X-11530000Y-8941331D02*
X-11587143Y-8912760D01*
X-11587143Y-8912760D02*
X-11615715Y-8884188D01*
X-14560000Y148669D02*
X-14760000Y434383D01*
X-14902857Y148669D02*
X-14902857Y748669D01*
X-14902857Y748669D02*
X-14674286Y748669D01*
X-14674286Y748669D02*
X-14617143Y720098D01*
X-14617143Y720098D02*
X-14588572Y691526D01*
X-14588572Y691526D02*
X-14560000Y634383D01*
X-14560000Y634383D02*
X-14560000Y548669D01*
X-14560000Y548669D02*
X-14588572Y491526D01*
X-14588572Y491526D02*
X-14617143Y462955D01*
X-14617143Y462955D02*
X-14674286Y434383D01*
X-14674286Y434383D02*
X-14902857Y434383D01*
X-14360000Y748669D02*
X-13960000Y748669D01*
X-13960000Y748669D02*
X-14217143Y148669D01*
X-10268669Y-6599999D02*
X-10554383Y-6799999D01*
X-10268669Y-6942856D02*
X-10868669Y-6942856D01*
X-10868669Y-6942856D02*
X-10868669Y-6714285D01*
X-10868669Y-6714285D02*
X-10840098Y-6657142D01*
X-10840098Y-6657142D02*
X-10811526Y-6628571D01*
X-10811526Y-6628571D02*
X-10754383Y-6599999D01*
X-10754383Y-6599999D02*
X-10668669Y-6599999D01*
X-10668669Y-6599999D02*
X-10611526Y-6628571D01*
X-10611526Y-6628571D02*
X-10582955Y-6657142D01*
X-10582955Y-6657142D02*
X-10554383Y-6714285D01*
X-10554383Y-6714285D02*
X-10554383Y-6942856D01*
X-10868669Y-6085714D02*
X-10868669Y-6199999D01*
X-10868669Y-6199999D02*
X-10840098Y-6257142D01*
X-10840098Y-6257142D02*
X-10811526Y-6285714D01*
X-10811526Y-6285714D02*
X-10725812Y-6342856D01*
X-10725812Y-6342856D02*
X-10611526Y-6371428D01*
X-10611526Y-6371428D02*
X-10382955Y-6371428D01*
X-10382955Y-6371428D02*
X-10325812Y-6342856D01*
X-10325812Y-6342856D02*
X-10297240Y-6314285D01*
X-10297240Y-6314285D02*
X-10268669Y-6257142D01*
X-10268669Y-6257142D02*
X-10268669Y-6142856D01*
X-10268669Y-6142856D02*
X-10297240Y-6085714D01*
X-10297240Y-6085714D02*
X-10325812Y-6057142D01*
X-10325812Y-6057142D02*
X-10382955Y-6028571D01*
X-10382955Y-6028571D02*
X-10525812Y-6028571D01*
X-10525812Y-6028571D02*
X-10582955Y-6057142D01*
X-10582955Y-6057142D02*
X-10611526Y-6085714D01*
X-10611526Y-6085714D02*
X-10640098Y-6142856D01*
X-10640098Y-6142856D02*
X-10640098Y-6257142D01*
X-10640098Y-6257142D02*
X-10611526Y-6314285D01*
X-10611526Y-6314285D02*
X-10582955Y-6342856D01*
X-10582955Y-6342856D02*
X-10525812Y-6371428D01*
X-5081429Y3518669D02*
X-5281429Y3804383D01*
X-5424286Y3518669D02*
X-5424286Y4118669D01*
X-5424286Y4118669D02*
X-5195715Y4118669D01*
X-5195715Y4118669D02*
X-5138572Y4090098D01*
X-5138572Y4090098D02*
X-5110001Y4061526D01*
X-5110001Y4061526D02*
X-5081429Y4004383D01*
X-5081429Y4004383D02*
X-5081429Y3918669D01*
X-5081429Y3918669D02*
X-5110001Y3861526D01*
X-5110001Y3861526D02*
X-5138572Y3832955D01*
X-5138572Y3832955D02*
X-5195715Y3804383D01*
X-5195715Y3804383D02*
X-5424286Y3804383D01*
X-4510001Y3518669D02*
X-4852858Y3518669D01*
X-4681429Y3518669D02*
X-4681429Y4118669D01*
X-4681429Y4118669D02*
X-4738572Y4032955D01*
X-4738572Y4032955D02*
X-4795715Y3975812D01*
X-4795715Y3975812D02*
X-4852858Y3947240D01*
X-4224286Y3518669D02*
X-4110000Y3518669D01*
X-4110000Y3518669D02*
X-4052857Y3547240D01*
X-4052857Y3547240D02*
X-4024286Y3575812D01*
X-4024286Y3575812D02*
X-3967143Y3661526D01*
X-3967143Y3661526D02*
X-3938572Y3775812D01*
X-3938572Y3775812D02*
X-3938572Y4004383D01*
X-3938572Y4004383D02*
X-3967143Y4061526D01*
X-3967143Y4061526D02*
X-3995714Y4090098D01*
X-3995714Y4090098D02*
X-4052857Y4118669D01*
X-4052857Y4118669D02*
X-4167143Y4118669D01*
X-4167143Y4118669D02*
X-4224286Y4090098D01*
X-4224286Y4090098D02*
X-4252857Y4061526D01*
X-4252857Y4061526D02*
X-4281429Y4004383D01*
X-4281429Y4004383D02*
X-4281429Y3861526D01*
X-4281429Y3861526D02*
X-4252857Y3804383D01*
X-4252857Y3804383D02*
X-4224286Y3775812D01*
X-4224286Y3775812D02*
X-4167143Y3747240D01*
X-4167143Y3747240D02*
X-4052857Y3747240D01*
X-4052857Y3747240D02*
X-3995714Y3775812D01*
X-3995714Y3775812D02*
X-3967143Y3804383D01*
X-3967143Y3804383D02*
X-3938572Y3861526D01*
X-3481428Y3832955D02*
X-3395714Y3804383D01*
X-3395714Y3804383D02*
X-3367143Y3775812D01*
X-3367143Y3775812D02*
X-3338571Y3718669D01*
X-3338571Y3718669D02*
X-3338571Y3632955D01*
X-3338571Y3632955D02*
X-3367143Y3575812D01*
X-3367143Y3575812D02*
X-3395714Y3547240D01*
X-3395714Y3547240D02*
X-3452857Y3518669D01*
X-3452857Y3518669D02*
X-3681428Y3518669D01*
X-3681428Y3518669D02*
X-3681428Y4118669D01*
X-3681428Y4118669D02*
X-3481428Y4118669D01*
X-3481428Y4118669D02*
X-3424285Y4090098D01*
X-3424285Y4090098D02*
X-3395714Y4061526D01*
X-3395714Y4061526D02*
X-3367143Y4004383D01*
X-3367143Y4004383D02*
X-3367143Y3947240D01*
X-3367143Y3947240D02*
X-3395714Y3890098D01*
X-3395714Y3890098D02*
X-3424285Y3861526D01*
X-3424285Y3861526D02*
X-3481428Y3832955D01*
X-3481428Y3832955D02*
X-3681428Y3832955D01*
X-2967143Y4118669D02*
X-2910000Y4118669D01*
X-2910000Y4118669D02*
X-2852857Y4090098D01*
X-2852857Y4090098D02*
X-2824285Y4061526D01*
X-2824285Y4061526D02*
X-2795714Y4004383D01*
X-2795714Y4004383D02*
X-2767143Y3890098D01*
X-2767143Y3890098D02*
X-2767143Y3747240D01*
X-2767143Y3747240D02*
X-2795714Y3632955D01*
X-2795714Y3632955D02*
X-2824285Y3575812D01*
X-2824285Y3575812D02*
X-2852857Y3547240D01*
X-2852857Y3547240D02*
X-2910000Y3518669D01*
X-2910000Y3518669D02*
X-2967143Y3518669D01*
X-2967143Y3518669D02*
X-3024285Y3547240D01*
X-3024285Y3547240D02*
X-3052857Y3575812D01*
X-3052857Y3575812D02*
X-3081428Y3632955D01*
X-3081428Y3632955D02*
X-3110000Y3747240D01*
X-3110000Y3747240D02*
X-3110000Y3890098D01*
X-3110000Y3890098D02*
X-3081428Y4004383D01*
X-3081428Y4004383D02*
X-3052857Y4061526D01*
X-3052857Y4061526D02*
X-3024285Y4090098D01*
X-3024285Y4090098D02*
X-2967143Y4118669D01*
X-7200000Y-13071331D02*
X-7485714Y-13071331D01*
X-7485714Y-13071331D02*
X-7485714Y-12471331D01*
X-7000000Y-13071331D02*
X-7000000Y-12471331D01*
X-6657143Y-13071331D02*
X-6914286Y-12728474D01*
X-6657143Y-12471331D02*
X-7000000Y-12814188D01*
X-6085715Y-13071331D02*
X-6428572Y-13071331D01*
X-6257143Y-13071331D02*
X-6257143Y-12471331D01*
X-6257143Y-12471331D02*
X-6314286Y-12557045D01*
X-6314286Y-12557045D02*
X-6371429Y-12614188D01*
X-6371429Y-12614188D02*
X-6428572Y-12642760D01*
X3260000Y7435812D02*
X3231428Y7407240D01*
X3231428Y7407240D02*
X3145714Y7378669D01*
X3145714Y7378669D02*
X3088571Y7378669D01*
X3088571Y7378669D02*
X3002857Y7407240D01*
X3002857Y7407240D02*
X2945714Y7464383D01*
X2945714Y7464383D02*
X2917143Y7521526D01*
X2917143Y7521526D02*
X2888571Y7635812D01*
X2888571Y7635812D02*
X2888571Y7721526D01*
X2888571Y7721526D02*
X2917143Y7835812D01*
X2917143Y7835812D02*
X2945714Y7892955D01*
X2945714Y7892955D02*
X3002857Y7950098D01*
X3002857Y7950098D02*
X3088571Y7978669D01*
X3088571Y7978669D02*
X3145714Y7978669D01*
X3145714Y7978669D02*
X3231428Y7950098D01*
X3231428Y7950098D02*
X3260000Y7921526D01*
X3488571Y7921526D02*
X3517143Y7950098D01*
X3517143Y7950098D02*
X3574286Y7978669D01*
X3574286Y7978669D02*
X3717143Y7978669D01*
X3717143Y7978669D02*
X3774286Y7950098D01*
X3774286Y7950098D02*
X3802857Y7921526D01*
X3802857Y7921526D02*
X3831428Y7864383D01*
X3831428Y7864383D02*
X3831428Y7807240D01*
X3831428Y7807240D02*
X3802857Y7721526D01*
X3802857Y7721526D02*
X3460000Y7378669D01*
X3460000Y7378669D02*
X3831428Y7378669D01*
X4572857Y8328669D02*
X4572857Y7842955D01*
X4572857Y7842955D02*
X4601428Y7785812D01*
X4601428Y7785812D02*
X4630000Y7757240D01*
X4630000Y7757240D02*
X4687142Y7728669D01*
X4687142Y7728669D02*
X4801428Y7728669D01*
X4801428Y7728669D02*
X4858571Y7757240D01*
X4858571Y7757240D02*
X4887142Y7785812D01*
X4887142Y7785812D02*
X4915714Y7842955D01*
X4915714Y7842955D02*
X4915714Y8328669D01*
X5172856Y8271526D02*
X5201428Y8300098D01*
X5201428Y8300098D02*
X5258571Y8328669D01*
X5258571Y8328669D02*
X5401428Y8328669D01*
X5401428Y8328669D02*
X5458571Y8300098D01*
X5458571Y8300098D02*
X5487142Y8271526D01*
X5487142Y8271526D02*
X5515713Y8214383D01*
X5515713Y8214383D02*
X5515713Y8157240D01*
X5515713Y8157240D02*
X5487142Y8071526D01*
X5487142Y8071526D02*
X5144285Y7728669D01*
X5144285Y7728669D02*
X5515713Y7728669D01*
X-2208669Y5528572D02*
X-2494383Y5328572D01*
X-2208669Y5185715D02*
X-2808669Y5185715D01*
X-2808669Y5185715D02*
X-2808669Y5414286D01*
X-2808669Y5414286D02*
X-2780098Y5471429D01*
X-2780098Y5471429D02*
X-2751526Y5500000D01*
X-2751526Y5500000D02*
X-2694383Y5528572D01*
X-2694383Y5528572D02*
X-2608669Y5528572D01*
X-2608669Y5528572D02*
X-2551526Y5500000D01*
X-2551526Y5500000D02*
X-2522955Y5471429D01*
X-2522955Y5471429D02*
X-2494383Y5414286D01*
X-2494383Y5414286D02*
X-2494383Y5185715D01*
X-2751526Y5757143D02*
X-2780098Y5785715D01*
X-2780098Y5785715D02*
X-2808669Y5842857D01*
X-2808669Y5842857D02*
X-2808669Y5985715D01*
X-2808669Y5985715D02*
X-2780098Y6042857D01*
X-2780098Y6042857D02*
X-2751526Y6071429D01*
X-2751526Y6071429D02*
X-2694383Y6100000D01*
X-2694383Y6100000D02*
X-2637240Y6100000D01*
X-2637240Y6100000D02*
X-2551526Y6071429D01*
X-2551526Y6071429D02*
X-2208669Y5728572D01*
X-2208669Y5728572D02*
X-2208669Y6100000D01*
X-2208669Y6671429D02*
X-2208669Y6328572D01*
X-2208669Y6500001D02*
X-2808669Y6500001D01*
X-2808669Y6500001D02*
X-2722955Y6442858D01*
X-2722955Y6442858D02*
X-2665812Y6385715D01*
X-2665812Y6385715D02*
X-2637240Y6328572D01*
X-2522955Y7128573D02*
X-2494383Y7214287D01*
X-2494383Y7214287D02*
X-2465812Y7242858D01*
X-2465812Y7242858D02*
X-2408669Y7271430D01*
X-2408669Y7271430D02*
X-2322955Y7271430D01*
X-2322955Y7271430D02*
X-2265812Y7242858D01*
X-2265812Y7242858D02*
X-2237240Y7214287D01*
X-2237240Y7214287D02*
X-2208669Y7157144D01*
X-2208669Y7157144D02*
X-2208669Y6928573D01*
X-2208669Y6928573D02*
X-2808669Y6928573D01*
X-2808669Y6928573D02*
X-2808669Y7128573D01*
X-2808669Y7128573D02*
X-2780098Y7185715D01*
X-2780098Y7185715D02*
X-2751526Y7214287D01*
X-2751526Y7214287D02*
X-2694383Y7242858D01*
X-2694383Y7242858D02*
X-2637240Y7242858D01*
X-2637240Y7242858D02*
X-2580098Y7214287D01*
X-2580098Y7214287D02*
X-2551526Y7185715D01*
X-2551526Y7185715D02*
X-2522955Y7128573D01*
X-2522955Y7128573D02*
X-2522955Y6928573D01*
X-2808669Y7642858D02*
X-2808669Y7700001D01*
X-2808669Y7700001D02*
X-2780098Y7757144D01*
X-2780098Y7757144D02*
X-2751526Y7785715D01*
X-2751526Y7785715D02*
X-2694383Y7814287D01*
X-2694383Y7814287D02*
X-2580098Y7842858D01*
X-2580098Y7842858D02*
X-2437240Y7842858D01*
X-2437240Y7842858D02*
X-2322955Y7814287D01*
X-2322955Y7814287D02*
X-2265812Y7785715D01*
X-2265812Y7785715D02*
X-2237240Y7757144D01*
X-2237240Y7757144D02*
X-2208669Y7700001D01*
X-2208669Y7700001D02*
X-2208669Y7642858D01*
X-2208669Y7642858D02*
X-2237240Y7585715D01*
X-2237240Y7585715D02*
X-2265812Y7557144D01*
X-2265812Y7557144D02*
X-2322955Y7528573D01*
X-2322955Y7528573D02*
X-2437240Y7500001D01*
X-2437240Y7500001D02*
X-2580098Y7500001D01*
X-2580098Y7500001D02*
X-2694383Y7528573D01*
X-2694383Y7528573D02*
X-2751526Y7557144D01*
X-2751526Y7557144D02*
X-2780098Y7585715D01*
X-2780098Y7585715D02*
X-2808669Y7642858D01*
X-11050000Y4585812D02*
X-11078572Y4557240D01*
X-11078572Y4557240D02*
X-11164286Y4528669D01*
X-11164286Y4528669D02*
X-11221429Y4528669D01*
X-11221429Y4528669D02*
X-11307143Y4557240D01*
X-11307143Y4557240D02*
X-11364286Y4614383D01*
X-11364286Y4614383D02*
X-11392857Y4671526D01*
X-11392857Y4671526D02*
X-11421429Y4785812D01*
X-11421429Y4785812D02*
X-11421429Y4871526D01*
X-11421429Y4871526D02*
X-11392857Y4985812D01*
X-11392857Y4985812D02*
X-11364286Y5042955D01*
X-11364286Y5042955D02*
X-11307143Y5100098D01*
X-11307143Y5100098D02*
X-11221429Y5128669D01*
X-11221429Y5128669D02*
X-11164286Y5128669D01*
X-11164286Y5128669D02*
X-11078572Y5100098D01*
X-11078572Y5100098D02*
X-11050000Y5071526D01*
X-10764286Y4528669D02*
X-10650000Y4528669D01*
X-10650000Y4528669D02*
X-10592857Y4557240D01*
X-10592857Y4557240D02*
X-10564286Y4585812D01*
X-10564286Y4585812D02*
X-10507143Y4671526D01*
X-10507143Y4671526D02*
X-10478572Y4785812D01*
X-10478572Y4785812D02*
X-10478572Y5014383D01*
X-10478572Y5014383D02*
X-10507143Y5071526D01*
X-10507143Y5071526D02*
X-10535714Y5100098D01*
X-10535714Y5100098D02*
X-10592857Y5128669D01*
X-10592857Y5128669D02*
X-10707143Y5128669D01*
X-10707143Y5128669D02*
X-10764286Y5100098D01*
X-10764286Y5100098D02*
X-10792857Y5071526D01*
X-10792857Y5071526D02*
X-10821429Y5014383D01*
X-10821429Y5014383D02*
X-10821429Y4871526D01*
X-10821429Y4871526D02*
X-10792857Y4814383D01*
X-10792857Y4814383D02*
X-10764286Y4785812D01*
X-10764286Y4785812D02*
X-10707143Y4757240D01*
X-10707143Y4757240D02*
X-10592857Y4757240D01*
X-10592857Y4757240D02*
X-10535714Y4785812D01*
X-10535714Y4785812D02*
X-10507143Y4814383D01*
X-10507143Y4814383D02*
X-10478572Y4871526D01*
X-5508669Y7924286D02*
X-5794383Y7724286D01*
X-5508669Y7581429D02*
X-6108669Y7581429D01*
X-6108669Y7581429D02*
X-6108669Y7810000D01*
X-6108669Y7810000D02*
X-6080098Y7867143D01*
X-6080098Y7867143D02*
X-6051526Y7895714D01*
X-6051526Y7895714D02*
X-5994383Y7924286D01*
X-5994383Y7924286D02*
X-5908669Y7924286D01*
X-5908669Y7924286D02*
X-5851526Y7895714D01*
X-5851526Y7895714D02*
X-5822955Y7867143D01*
X-5822955Y7867143D02*
X-5794383Y7810000D01*
X-5794383Y7810000D02*
X-5794383Y7581429D01*
X-6051526Y8152857D02*
X-6080098Y8181429D01*
X-6080098Y8181429D02*
X-6108669Y8238571D01*
X-6108669Y8238571D02*
X-6108669Y8381429D01*
X-6108669Y8381429D02*
X-6080098Y8438571D01*
X-6080098Y8438571D02*
X-6051526Y8467143D01*
X-6051526Y8467143D02*
X-5994383Y8495714D01*
X-5994383Y8495714D02*
X-5937240Y8495714D01*
X-5937240Y8495714D02*
X-5851526Y8467143D01*
X-5851526Y8467143D02*
X-5508669Y8124286D01*
X-5508669Y8124286D02*
X-5508669Y8495714D01*
X-6108669Y8867143D02*
X-6108669Y8924286D01*
X-6108669Y8924286D02*
X-6080098Y8981429D01*
X-6080098Y8981429D02*
X-6051526Y9010000D01*
X-6051526Y9010000D02*
X-5994383Y9038572D01*
X-5994383Y9038572D02*
X-5880098Y9067143D01*
X-5880098Y9067143D02*
X-5737240Y9067143D01*
X-5737240Y9067143D02*
X-5622955Y9038572D01*
X-5622955Y9038572D02*
X-5565812Y9010000D01*
X-5565812Y9010000D02*
X-5537240Y8981429D01*
X-5537240Y8981429D02*
X-5508669Y8924286D01*
X-5508669Y8924286D02*
X-5508669Y8867143D01*
X-5508669Y8867143D02*
X-5537240Y8810000D01*
X-5537240Y8810000D02*
X-5565812Y8781429D01*
X-5565812Y8781429D02*
X-5622955Y8752858D01*
X-5622955Y8752858D02*
X-5737240Y8724286D01*
X-5737240Y8724286D02*
X-5880098Y8724286D01*
X-5880098Y8724286D02*
X-5994383Y8752858D01*
X-5994383Y8752858D02*
X-6051526Y8781429D01*
X-6051526Y8781429D02*
X-6080098Y8810000D01*
X-6080098Y8810000D02*
X-6108669Y8867143D01*
X12671331Y8214286D02*
X12385617Y8014286D01*
X12671331Y7871429D02*
X12071331Y7871429D01*
X12071331Y7871429D02*
X12071331Y8100000D01*
X12071331Y8100000D02*
X12099902Y8157143D01*
X12099902Y8157143D02*
X12128474Y8185714D01*
X12128474Y8185714D02*
X12185617Y8214286D01*
X12185617Y8214286D02*
X12271331Y8214286D01*
X12271331Y8214286D02*
X12328474Y8185714D01*
X12328474Y8185714D02*
X12357045Y8157143D01*
X12357045Y8157143D02*
X12385617Y8100000D01*
X12385617Y8100000D02*
X12385617Y7871429D01*
X12128474Y8442857D02*
X12099902Y8471429D01*
X12099902Y8471429D02*
X12071331Y8528571D01*
X12071331Y8528571D02*
X12071331Y8671429D01*
X12071331Y8671429D02*
X12099902Y8728571D01*
X12099902Y8728571D02*
X12128474Y8757143D01*
X12128474Y8757143D02*
X12185617Y8785714D01*
X12185617Y8785714D02*
X12242760Y8785714D01*
X12242760Y8785714D02*
X12328474Y8757143D01*
X12328474Y8757143D02*
X12671331Y8414286D01*
X12671331Y8414286D02*
X12671331Y8785714D01*
X12671331Y9071429D02*
X12671331Y9185715D01*
X12671331Y9185715D02*
X12642760Y9242858D01*
X12642760Y9242858D02*
X12614188Y9271429D01*
X12614188Y9271429D02*
X12528474Y9328572D01*
X12528474Y9328572D02*
X12414188Y9357143D01*
X12414188Y9357143D02*
X12185617Y9357143D01*
X12185617Y9357143D02*
X12128474Y9328572D01*
X12128474Y9328572D02*
X12099902Y9300000D01*
X12099902Y9300000D02*
X12071331Y9242858D01*
X12071331Y9242858D02*
X12071331Y9128572D01*
X12071331Y9128572D02*
X12099902Y9071429D01*
X12099902Y9071429D02*
X12128474Y9042858D01*
X12128474Y9042858D02*
X12185617Y9014286D01*
X12185617Y9014286D02*
X12328474Y9014286D01*
X12328474Y9014286D02*
X12385617Y9042858D01*
X12385617Y9042858D02*
X12414188Y9071429D01*
X12414188Y9071429D02*
X12442760Y9128572D01*
X12442760Y9128572D02*
X12442760Y9242858D01*
X12442760Y9242858D02*
X12414188Y9300000D01*
X12414188Y9300000D02*
X12385617Y9328572D01*
X12385617Y9328572D02*
X12328474Y9357143D01*
X11964188Y-8979999D02*
X11992760Y-9008571D01*
X11992760Y-9008571D02*
X12021331Y-9094285D01*
X12021331Y-9094285D02*
X12021331Y-9151428D01*
X12021331Y-9151428D02*
X11992760Y-9237142D01*
X11992760Y-9237142D02*
X11935617Y-9294285D01*
X11935617Y-9294285D02*
X11878474Y-9322856D01*
X11878474Y-9322856D02*
X11764188Y-9351428D01*
X11764188Y-9351428D02*
X11678474Y-9351428D01*
X11678474Y-9351428D02*
X11564188Y-9322856D01*
X11564188Y-9322856D02*
X11507045Y-9294285D01*
X11507045Y-9294285D02*
X11449902Y-9237142D01*
X11449902Y-9237142D02*
X11421331Y-9151428D01*
X11421331Y-9151428D02*
X11421331Y-9094285D01*
X11421331Y-9094285D02*
X11449902Y-9008571D01*
X11449902Y-9008571D02*
X11478474Y-8979999D01*
X11421331Y-8437142D02*
X11421331Y-8722856D01*
X11421331Y-8722856D02*
X11707045Y-8751428D01*
X11707045Y-8751428D02*
X11678474Y-8722856D01*
X11678474Y-8722856D02*
X11649902Y-8665714D01*
X11649902Y-8665714D02*
X11649902Y-8522856D01*
X11649902Y-8522856D02*
X11678474Y-8465714D01*
X11678474Y-8465714D02*
X11707045Y-8437142D01*
X11707045Y-8437142D02*
X11764188Y-8408571D01*
X11764188Y-8408571D02*
X11907045Y-8408571D01*
X11907045Y-8408571D02*
X11964188Y-8437142D01*
X11964188Y-8437142D02*
X11992760Y-8465714D01*
X11992760Y-8465714D02*
X12021331Y-8522856D01*
X12021331Y-8522856D02*
X12021331Y-8665714D01*
X12021331Y-8665714D02*
X11992760Y-8722856D01*
X11992760Y-8722856D02*
X11964188Y-8751428D01*
X11814285Y-1171331D02*
X11614285Y-885617D01*
X11471428Y-1171331D02*
X11471428Y-571331D01*
X11471428Y-571331D02*
X11699999Y-571331D01*
X11699999Y-571331D02*
X11757142Y-599902D01*
X11757142Y-599902D02*
X11785713Y-628474D01*
X11785713Y-628474D02*
X11814285Y-685617D01*
X11814285Y-685617D02*
X11814285Y-771331D01*
X11814285Y-771331D02*
X11785713Y-828474D01*
X11785713Y-828474D02*
X11757142Y-857045D01*
X11757142Y-857045D02*
X11699999Y-885617D01*
X11699999Y-885617D02*
X11471428Y-885617D01*
X12385713Y-1171331D02*
X12042856Y-1171331D01*
X12214285Y-1171331D02*
X12214285Y-571331D01*
X12214285Y-571331D02*
X12157142Y-657045D01*
X12157142Y-657045D02*
X12099999Y-714188D01*
X12099999Y-714188D02*
X12042856Y-742760D01*
X12585714Y-571331D02*
X12957142Y-571331D01*
X12957142Y-571331D02*
X12757142Y-799902D01*
X12757142Y-799902D02*
X12842857Y-799902D01*
X12842857Y-799902D02*
X12900000Y-828474D01*
X12900000Y-828474D02*
X12928571Y-857045D01*
X12928571Y-857045D02*
X12957142Y-914188D01*
X12957142Y-914188D02*
X12957142Y-1057045D01*
X12957142Y-1057045D02*
X12928571Y-1114188D01*
X12928571Y-1114188D02*
X12900000Y-1142760D01*
X12900000Y-1142760D02*
X12842857Y-1171331D01*
X12842857Y-1171331D02*
X12671428Y-1171331D01*
X12671428Y-1171331D02*
X12614285Y-1142760D01*
X12614285Y-1142760D02*
X12585714Y-1114188D01*
X7434285Y-2551331D02*
X7234285Y-2265617D01*
X7091428Y-2551331D02*
X7091428Y-1951331D01*
X7091428Y-1951331D02*
X7319999Y-1951331D01*
X7319999Y-1951331D02*
X7377142Y-1979902D01*
X7377142Y-1979902D02*
X7405713Y-2008474D01*
X7405713Y-2008474D02*
X7434285Y-2065617D01*
X7434285Y-2065617D02*
X7434285Y-2151331D01*
X7434285Y-2151331D02*
X7405713Y-2208474D01*
X7405713Y-2208474D02*
X7377142Y-2237045D01*
X7377142Y-2237045D02*
X7319999Y-2265617D01*
X7319999Y-2265617D02*
X7091428Y-2265617D01*
X8005713Y-2551331D02*
X7662856Y-2551331D01*
X7834285Y-2551331D02*
X7834285Y-1951331D01*
X7834285Y-1951331D02*
X7777142Y-2037045D01*
X7777142Y-2037045D02*
X7719999Y-2094188D01*
X7719999Y-2094188D02*
X7662856Y-2122760D01*
X8520000Y-2151331D02*
X8520000Y-2551331D01*
X8377142Y-1922760D02*
X8234285Y-2351331D01*
X8234285Y-2351331D02*
X8605714Y-2351331D01*
X-5088669Y-7155714D02*
X-5374383Y-7355714D01*
X-5088669Y-7498571D02*
X-5688669Y-7498571D01*
X-5688669Y-7498571D02*
X-5688669Y-7270000D01*
X-5688669Y-7270000D02*
X-5660098Y-7212857D01*
X-5660098Y-7212857D02*
X-5631526Y-7184286D01*
X-5631526Y-7184286D02*
X-5574383Y-7155714D01*
X-5574383Y-7155714D02*
X-5488669Y-7155714D01*
X-5488669Y-7155714D02*
X-5431526Y-7184286D01*
X-5431526Y-7184286D02*
X-5402955Y-7212857D01*
X-5402955Y-7212857D02*
X-5374383Y-7270000D01*
X-5374383Y-7270000D02*
X-5374383Y-7498571D01*
X-5631526Y-6927143D02*
X-5660098Y-6898571D01*
X-5660098Y-6898571D02*
X-5688669Y-6841429D01*
X-5688669Y-6841429D02*
X-5688669Y-6698571D01*
X-5688669Y-6698571D02*
X-5660098Y-6641429D01*
X-5660098Y-6641429D02*
X-5631526Y-6612857D01*
X-5631526Y-6612857D02*
X-5574383Y-6584286D01*
X-5574383Y-6584286D02*
X-5517240Y-6584286D01*
X-5517240Y-6584286D02*
X-5431526Y-6612857D01*
X-5431526Y-6612857D02*
X-5088669Y-6955714D01*
X-5088669Y-6955714D02*
X-5088669Y-6584286D01*
X-5431526Y-6241428D02*
X-5460098Y-6298571D01*
X-5460098Y-6298571D02*
X-5488669Y-6327142D01*
X-5488669Y-6327142D02*
X-5545812Y-6355714D01*
X-5545812Y-6355714D02*
X-5574383Y-6355714D01*
X-5574383Y-6355714D02*
X-5631526Y-6327142D01*
X-5631526Y-6327142D02*
X-5660098Y-6298571D01*
X-5660098Y-6298571D02*
X-5688669Y-6241428D01*
X-5688669Y-6241428D02*
X-5688669Y-6127142D01*
X-5688669Y-6127142D02*
X-5660098Y-6070000D01*
X-5660098Y-6070000D02*
X-5631526Y-6041428D01*
X-5631526Y-6041428D02*
X-5574383Y-6012857D01*
X-5574383Y-6012857D02*
X-5545812Y-6012857D01*
X-5545812Y-6012857D02*
X-5488669Y-6041428D01*
X-5488669Y-6041428D02*
X-5460098Y-6070000D01*
X-5460098Y-6070000D02*
X-5431526Y-6127142D01*
X-5431526Y-6127142D02*
X-5431526Y-6241428D01*
X-5431526Y-6241428D02*
X-5402955Y-6298571D01*
X-5402955Y-6298571D02*
X-5374383Y-6327142D01*
X-5374383Y-6327142D02*
X-5317240Y-6355714D01*
X-5317240Y-6355714D02*
X-5202955Y-6355714D01*
X-5202955Y-6355714D02*
X-5145812Y-6327142D01*
X-5145812Y-6327142D02*
X-5117240Y-6298571D01*
X-5117240Y-6298571D02*
X-5088669Y-6241428D01*
X-5088669Y-6241428D02*
X-5088669Y-6127142D01*
X-5088669Y-6127142D02*
X-5117240Y-6070000D01*
X-5117240Y-6070000D02*
X-5145812Y-6041428D01*
X-5145812Y-6041428D02*
X-5202955Y-6012857D01*
X-5202955Y-6012857D02*
X-5317240Y-6012857D01*
X-5317240Y-6012857D02*
X-5374383Y-6041428D01*
X-5374383Y-6041428D02*
X-5402955Y-6070000D01*
X-5402955Y-6070000D02*
X-5431526Y-6127142D01*
X-10275715Y-11571331D02*
X-10475715Y-11285617D01*
X-10618572Y-11571331D02*
X-10618572Y-10971331D01*
X-10618572Y-10971331D02*
X-10390001Y-10971331D01*
X-10390001Y-10971331D02*
X-10332858Y-10999902D01*
X-10332858Y-10999902D02*
X-10304287Y-11028474D01*
X-10304287Y-11028474D02*
X-10275715Y-11085617D01*
X-10275715Y-11085617D02*
X-10275715Y-11171331D01*
X-10275715Y-11171331D02*
X-10304287Y-11228474D01*
X-10304287Y-11228474D02*
X-10332858Y-11257045D01*
X-10332858Y-11257045D02*
X-10390001Y-11285617D01*
X-10390001Y-11285617D02*
X-10618572Y-11285617D01*
X-10047144Y-11028474D02*
X-10018572Y-10999902D01*
X-10018572Y-10999902D02*
X-9961429Y-10971331D01*
X-9961429Y-10971331D02*
X-9818572Y-10971331D01*
X-9818572Y-10971331D02*
X-9761429Y-10999902D01*
X-9761429Y-10999902D02*
X-9732858Y-11028474D01*
X-9732858Y-11028474D02*
X-9704287Y-11085617D01*
X-9704287Y-11085617D02*
X-9704287Y-11142760D01*
X-9704287Y-11142760D02*
X-9732858Y-11228474D01*
X-9732858Y-11228474D02*
X-10075715Y-11571331D01*
X-10075715Y-11571331D02*
X-9704287Y-11571331D01*
X-9504286Y-10971331D02*
X-9104286Y-10971331D01*
X-9104286Y-10971331D02*
X-9361429Y-11571331D01*
X1401331Y-6865714D02*
X1115617Y-7065714D01*
X1401331Y-7208571D02*
X801331Y-7208571D01*
X801331Y-7208571D02*
X801331Y-6980000D01*
X801331Y-6980000D02*
X829902Y-6922857D01*
X829902Y-6922857D02*
X858474Y-6894286D01*
X858474Y-6894286D02*
X915617Y-6865714D01*
X915617Y-6865714D02*
X1001331Y-6865714D01*
X1001331Y-6865714D02*
X1058474Y-6894286D01*
X1058474Y-6894286D02*
X1087045Y-6922857D01*
X1087045Y-6922857D02*
X1115617Y-6980000D01*
X1115617Y-6980000D02*
X1115617Y-7208571D01*
X858474Y-6637143D02*
X829902Y-6608571D01*
X829902Y-6608571D02*
X801331Y-6551429D01*
X801331Y-6551429D02*
X801331Y-6408571D01*
X801331Y-6408571D02*
X829902Y-6351429D01*
X829902Y-6351429D02*
X858474Y-6322857D01*
X858474Y-6322857D02*
X915617Y-6294286D01*
X915617Y-6294286D02*
X972760Y-6294286D01*
X972760Y-6294286D02*
X1058474Y-6322857D01*
X1058474Y-6322857D02*
X1401331Y-6665714D01*
X1401331Y-6665714D02*
X1401331Y-6294286D01*
X1401331Y-5722857D02*
X1401331Y-6065714D01*
X1401331Y-5894285D02*
X801331Y-5894285D01*
X801331Y-5894285D02*
X887045Y-5951428D01*
X887045Y-5951428D02*
X944188Y-6008571D01*
X944188Y-6008571D02*
X972760Y-6065714D01*
X7687142Y12068669D02*
X7487142Y12354383D01*
X7344285Y12068669D02*
X7344285Y12668669D01*
X7344285Y12668669D02*
X7572856Y12668669D01*
X7572856Y12668669D02*
X7629999Y12640098D01*
X7629999Y12640098D02*
X7658570Y12611526D01*
X7658570Y12611526D02*
X7687142Y12554383D01*
X7687142Y12554383D02*
X7687142Y12468669D01*
X7687142Y12468669D02*
X7658570Y12411526D01*
X7658570Y12411526D02*
X7629999Y12382955D01*
X7629999Y12382955D02*
X7572856Y12354383D01*
X7572856Y12354383D02*
X7344285Y12354383D01*
X8201428Y12668669D02*
X8087142Y12668669D01*
X8087142Y12668669D02*
X8029999Y12640098D01*
X8029999Y12640098D02*
X8001428Y12611526D01*
X8001428Y12611526D02*
X7944285Y12525812D01*
X7944285Y12525812D02*
X7915713Y12411526D01*
X7915713Y12411526D02*
X7915713Y12182955D01*
X7915713Y12182955D02*
X7944285Y12125812D01*
X7944285Y12125812D02*
X7972856Y12097240D01*
X7972856Y12097240D02*
X8029999Y12068669D01*
X8029999Y12068669D02*
X8144285Y12068669D01*
X8144285Y12068669D02*
X8201428Y12097240D01*
X8201428Y12097240D02*
X8229999Y12125812D01*
X8229999Y12125812D02*
X8258570Y12182955D01*
X8258570Y12182955D02*
X8258570Y12325812D01*
X8258570Y12325812D02*
X8229999Y12382955D01*
X8229999Y12382955D02*
X8201428Y12411526D01*
X8201428Y12411526D02*
X8144285Y12440098D01*
X8144285Y12440098D02*
X8029999Y12440098D01*
X8029999Y12440098D02*
X7972856Y12411526D01*
X7972856Y12411526D02*
X7944285Y12382955D01*
X7944285Y12382955D02*
X7915713Y12325812D01*
X8487142Y12240098D02*
X8772857Y12240098D01*
X8429999Y12068669D02*
X8629999Y12668669D01*
X8629999Y12668669D02*
X8829999Y12068669D01*
X9144285Y12668669D02*
X9201428Y12668669D01*
X9201428Y12668669D02*
X9258571Y12640098D01*
X9258571Y12640098D02*
X9287143Y12611526D01*
X9287143Y12611526D02*
X9315714Y12554383D01*
X9315714Y12554383D02*
X9344285Y12440098D01*
X9344285Y12440098D02*
X9344285Y12297240D01*
X9344285Y12297240D02*
X9315714Y12182955D01*
X9315714Y12182955D02*
X9287143Y12125812D01*
X9287143Y12125812D02*
X9258571Y12097240D01*
X9258571Y12097240D02*
X9201428Y12068669D01*
X9201428Y12068669D02*
X9144285Y12068669D01*
X9144285Y12068669D02*
X9087143Y12097240D01*
X9087143Y12097240D02*
X9058571Y12125812D01*
X9058571Y12125812D02*
X9030000Y12182955D01*
X9030000Y12182955D02*
X9001428Y12297240D01*
X9001428Y12297240D02*
X9001428Y12440098D01*
X9001428Y12440098D02*
X9030000Y12554383D01*
X9030000Y12554383D02*
X9058571Y12611526D01*
X9058571Y12611526D02*
X9087143Y12640098D01*
X9087143Y12640098D02*
X9144285Y12668669D01*
X2001332Y-11889998D02*
X2001332Y-12175712D01*
X2001332Y-12175712D02*
X1401332Y-12175712D01*
X2001332Y-11689998D02*
X1401332Y-11689998D01*
X2001332Y-11347141D02*
X1658475Y-11604284D01*
X1401332Y-11347141D02*
X1744189Y-11689998D01*
X1458475Y-11118570D02*
X1429903Y-11089998D01*
X1429903Y-11089998D02*
X1401332Y-11032856D01*
X1401332Y-11032856D02*
X1401332Y-10889998D01*
X1401332Y-10889998D02*
X1429903Y-10832856D01*
X1429903Y-10832856D02*
X1458475Y-10804284D01*
X1458475Y-10804284D02*
X1515618Y-10775713D01*
X1515618Y-10775713D02*
X1572761Y-10775713D01*
X1572761Y-10775713D02*
X1658475Y-10804284D01*
X1658475Y-10804284D02*
X2001332Y-11147141D01*
X2001332Y-11147141D02*
X2001332Y-10775713D01*
X4514285Y14028669D02*
X4314285Y14314383D01*
X4171428Y14028669D02*
X4171428Y14628669D01*
X4171428Y14628669D02*
X4399999Y14628669D01*
X4399999Y14628669D02*
X4457142Y14600098D01*
X4457142Y14600098D02*
X4485713Y14571526D01*
X4485713Y14571526D02*
X4514285Y14514383D01*
X4514285Y14514383D02*
X4514285Y14428669D01*
X4514285Y14428669D02*
X4485713Y14371526D01*
X4485713Y14371526D02*
X4457142Y14342955D01*
X4457142Y14342955D02*
X4399999Y14314383D01*
X4399999Y14314383D02*
X4171428Y14314383D01*
X5028571Y14628669D02*
X4914285Y14628669D01*
X4914285Y14628669D02*
X4857142Y14600098D01*
X4857142Y14600098D02*
X4828571Y14571526D01*
X4828571Y14571526D02*
X4771428Y14485812D01*
X4771428Y14485812D02*
X4742856Y14371526D01*
X4742856Y14371526D02*
X4742856Y14142955D01*
X4742856Y14142955D02*
X4771428Y14085812D01*
X4771428Y14085812D02*
X4799999Y14057240D01*
X4799999Y14057240D02*
X4857142Y14028669D01*
X4857142Y14028669D02*
X4971428Y14028669D01*
X4971428Y14028669D02*
X5028571Y14057240D01*
X5028571Y14057240D02*
X5057142Y14085812D01*
X5057142Y14085812D02*
X5085713Y14142955D01*
X5085713Y14142955D02*
X5085713Y14285812D01*
X5085713Y14285812D02*
X5057142Y14342955D01*
X5057142Y14342955D02*
X5028571Y14371526D01*
X5028571Y14371526D02*
X4971428Y14400098D01*
X4971428Y14400098D02*
X4857142Y14400098D01*
X4857142Y14400098D02*
X4799999Y14371526D01*
X4799999Y14371526D02*
X4771428Y14342955D01*
X4771428Y14342955D02*
X4742856Y14285812D01*
X5542857Y14342955D02*
X5628571Y14314383D01*
X5628571Y14314383D02*
X5657142Y14285812D01*
X5657142Y14285812D02*
X5685714Y14228669D01*
X5685714Y14228669D02*
X5685714Y14142955D01*
X5685714Y14142955D02*
X5657142Y14085812D01*
X5657142Y14085812D02*
X5628571Y14057240D01*
X5628571Y14057240D02*
X5571428Y14028669D01*
X5571428Y14028669D02*
X5342857Y14028669D01*
X5342857Y14028669D02*
X5342857Y14628669D01*
X5342857Y14628669D02*
X5542857Y14628669D01*
X5542857Y14628669D02*
X5600000Y14600098D01*
X5600000Y14600098D02*
X5628571Y14571526D01*
X5628571Y14571526D02*
X5657142Y14514383D01*
X5657142Y14514383D02*
X5657142Y14457240D01*
X5657142Y14457240D02*
X5628571Y14400098D01*
X5628571Y14400098D02*
X5600000Y14371526D01*
X5600000Y14371526D02*
X5542857Y14342955D01*
X5542857Y14342955D02*
X5342857Y14342955D01*
X6057142Y14628669D02*
X6114285Y14628669D01*
X6114285Y14628669D02*
X6171428Y14600098D01*
X6171428Y14600098D02*
X6200000Y14571526D01*
X6200000Y14571526D02*
X6228571Y14514383D01*
X6228571Y14514383D02*
X6257142Y14400098D01*
X6257142Y14400098D02*
X6257142Y14257240D01*
X6257142Y14257240D02*
X6228571Y14142955D01*
X6228571Y14142955D02*
X6200000Y14085812D01*
X6200000Y14085812D02*
X6171428Y14057240D01*
X6171428Y14057240D02*
X6114285Y14028669D01*
X6114285Y14028669D02*
X6057142Y14028669D01*
X6057142Y14028669D02*
X6000000Y14057240D01*
X6000000Y14057240D02*
X5971428Y14085812D01*
X5971428Y14085812D02*
X5942857Y14142955D01*
X5942857Y14142955D02*
X5914285Y14257240D01*
X5914285Y14257240D02*
X5914285Y14400098D01*
X5914285Y14400098D02*
X5942857Y14514383D01*
X5942857Y14514383D02*
X5971428Y14571526D01*
X5971428Y14571526D02*
X6000000Y14600098D01*
X6000000Y14600098D02*
X6057142Y14628669D01*
X13677143Y-5941331D02*
X13677143Y-5341331D01*
X13677143Y-5341331D02*
X13820000Y-5341331D01*
X13820000Y-5341331D02*
X13905714Y-5369902D01*
X13905714Y-5369902D02*
X13962857Y-5427045D01*
X13962857Y-5427045D02*
X13991428Y-5484188D01*
X13991428Y-5484188D02*
X14020000Y-5598474D01*
X14020000Y-5598474D02*
X14020000Y-5684188D01*
X14020000Y-5684188D02*
X13991428Y-5798474D01*
X13991428Y-5798474D02*
X13962857Y-5855617D01*
X13962857Y-5855617D02*
X13905714Y-5912760D01*
X13905714Y-5912760D02*
X13820000Y-5941331D01*
X13820000Y-5941331D02*
X13677143Y-5941331D01*
X14591428Y-5941331D02*
X14248571Y-5941331D01*
X14420000Y-5941331D02*
X14420000Y-5341331D01*
X14420000Y-5341331D02*
X14362857Y-5427045D01*
X14362857Y-5427045D02*
X14305714Y-5484188D01*
X14305714Y-5484188D02*
X14248571Y-5512760D01*
X11271331Y614286D02*
X10985617Y414286D01*
X11271331Y271429D02*
X10671331Y271429D01*
X10671331Y271429D02*
X10671331Y500000D01*
X10671331Y500000D02*
X10699902Y557143D01*
X10699902Y557143D02*
X10728474Y585714D01*
X10728474Y585714D02*
X10785617Y614286D01*
X10785617Y614286D02*
X10871331Y614286D01*
X10871331Y614286D02*
X10928474Y585714D01*
X10928474Y585714D02*
X10957045Y557143D01*
X10957045Y557143D02*
X10985617Y500000D01*
X10985617Y500000D02*
X10985617Y271429D01*
X11271331Y1185714D02*
X11271331Y842857D01*
X11271331Y1014286D02*
X10671331Y1014286D01*
X10671331Y1014286D02*
X10757045Y957143D01*
X10757045Y957143D02*
X10814188Y900000D01*
X10814188Y900000D02*
X10842760Y842857D01*
X10728474Y1414286D02*
X10699902Y1442858D01*
X10699902Y1442858D02*
X10671331Y1500000D01*
X10671331Y1500000D02*
X10671331Y1642858D01*
X10671331Y1642858D02*
X10699902Y1700000D01*
X10699902Y1700000D02*
X10728474Y1728572D01*
X10728474Y1728572D02*
X10785617Y1757143D01*
X10785617Y1757143D02*
X10842760Y1757143D01*
X10842760Y1757143D02*
X10928474Y1728572D01*
X10928474Y1728572D02*
X11271331Y1385715D01*
X11271331Y1385715D02*
X11271331Y1757143D01*
X11814285Y6128669D02*
X11614285Y6414383D01*
X11471428Y6128669D02*
X11471428Y6728669D01*
X11471428Y6728669D02*
X11699999Y6728669D01*
X11699999Y6728669D02*
X11757142Y6700098D01*
X11757142Y6700098D02*
X11785713Y6671526D01*
X11785713Y6671526D02*
X11814285Y6614383D01*
X11814285Y6614383D02*
X11814285Y6528669D01*
X11814285Y6528669D02*
X11785713Y6471526D01*
X11785713Y6471526D02*
X11757142Y6442955D01*
X11757142Y6442955D02*
X11699999Y6414383D01*
X11699999Y6414383D02*
X11471428Y6414383D01*
X12014285Y6728669D02*
X12385713Y6728669D01*
X12385713Y6728669D02*
X12185713Y6500098D01*
X12185713Y6500098D02*
X12271428Y6500098D01*
X12271428Y6500098D02*
X12328571Y6471526D01*
X12328571Y6471526D02*
X12357142Y6442955D01*
X12357142Y6442955D02*
X12385713Y6385812D01*
X12385713Y6385812D02*
X12385713Y6242955D01*
X12385713Y6242955D02*
X12357142Y6185812D01*
X12357142Y6185812D02*
X12328571Y6157240D01*
X12328571Y6157240D02*
X12271428Y6128669D01*
X12271428Y6128669D02*
X12099999Y6128669D01*
X12099999Y6128669D02*
X12042856Y6157240D01*
X12042856Y6157240D02*
X12014285Y6185812D01*
X12757142Y6728669D02*
X12814285Y6728669D01*
X12814285Y6728669D02*
X12871428Y6700098D01*
X12871428Y6700098D02*
X12900000Y6671526D01*
X12900000Y6671526D02*
X12928571Y6614383D01*
X12928571Y6614383D02*
X12957142Y6500098D01*
X12957142Y6500098D02*
X12957142Y6357240D01*
X12957142Y6357240D02*
X12928571Y6242955D01*
X12928571Y6242955D02*
X12900000Y6185812D01*
X12900000Y6185812D02*
X12871428Y6157240D01*
X12871428Y6157240D02*
X12814285Y6128669D01*
X12814285Y6128669D02*
X12757142Y6128669D01*
X12757142Y6128669D02*
X12700000Y6157240D01*
X12700000Y6157240D02*
X12671428Y6185812D01*
X12671428Y6185812D02*
X12642857Y6242955D01*
X12642857Y6242955D02*
X12614285Y6357240D01*
X12614285Y6357240D02*
X12614285Y6500098D01*
X12614285Y6500098D02*
X12642857Y6614383D01*
X12642857Y6614383D02*
X12671428Y6671526D01*
X12671428Y6671526D02*
X12700000Y6700098D01*
X12700000Y6700098D02*
X12757142Y6728669D01*
X-1748572Y3518669D02*
X-1948572Y3804383D01*
X-2091429Y3518669D02*
X-2091429Y4118669D01*
X-2091429Y4118669D02*
X-1862858Y4118669D01*
X-1862858Y4118669D02*
X-1805715Y4090098D01*
X-1805715Y4090098D02*
X-1777144Y4061526D01*
X-1777144Y4061526D02*
X-1748572Y4004383D01*
X-1748572Y4004383D02*
X-1748572Y3918669D01*
X-1748572Y3918669D02*
X-1777144Y3861526D01*
X-1777144Y3861526D02*
X-1805715Y3832955D01*
X-1805715Y3832955D02*
X-1862858Y3804383D01*
X-1862858Y3804383D02*
X-2091429Y3804383D01*
X-1520001Y4061526D02*
X-1491429Y4090098D01*
X-1491429Y4090098D02*
X-1434286Y4118669D01*
X-1434286Y4118669D02*
X-1291429Y4118669D01*
X-1291429Y4118669D02*
X-1234286Y4090098D01*
X-1234286Y4090098D02*
X-1205715Y4061526D01*
X-1205715Y4061526D02*
X-1177144Y4004383D01*
X-1177144Y4004383D02*
X-1177144Y3947240D01*
X-1177144Y3947240D02*
X-1205715Y3861526D01*
X-1205715Y3861526D02*
X-1548572Y3518669D01*
X-1548572Y3518669D02*
X-1177144Y3518669D01*
X-605715Y3518669D02*
X-948572Y3518669D01*
X-777143Y3518669D02*
X-777143Y4118669D01*
X-777143Y4118669D02*
X-834286Y4032955D01*
X-834286Y4032955D02*
X-891429Y3975812D01*
X-891429Y3975812D02*
X-948572Y3947240D01*
X-377143Y3690098D02*
X-91428Y3690098D01*
X-434286Y3518669D02*
X-234286Y4118669D01*
X-234286Y4118669D02*
X-34286Y3518669D01*
X280000Y4118669D02*
X337143Y4118669D01*
X337143Y4118669D02*
X394286Y4090098D01*
X394286Y4090098D02*
X422858Y4061526D01*
X422858Y4061526D02*
X451429Y4004383D01*
X451429Y4004383D02*
X480000Y3890098D01*
X480000Y3890098D02*
X480000Y3747240D01*
X480000Y3747240D02*
X451429Y3632955D01*
X451429Y3632955D02*
X422858Y3575812D01*
X422858Y3575812D02*
X394286Y3547240D01*
X394286Y3547240D02*
X337143Y3518669D01*
X337143Y3518669D02*
X280000Y3518669D01*
X280000Y3518669D02*
X222858Y3547240D01*
X222858Y3547240D02*
X194286Y3575812D01*
X194286Y3575812D02*
X165715Y3632955D01*
X165715Y3632955D02*
X137143Y3747240D01*
X137143Y3747240D02*
X137143Y3890098D01*
X137143Y3890098D02*
X165715Y4004383D01*
X165715Y4004383D02*
X194286Y4061526D01*
X194286Y4061526D02*
X222858Y4090098D01*
X222858Y4090098D02*
X280000Y4118669D01*
X-1405715Y-7821331D02*
X-1605715Y-7535617D01*
X-1748572Y-7821331D02*
X-1748572Y-7221331D01*
X-1748572Y-7221331D02*
X-1520001Y-7221331D01*
X-1520001Y-7221331D02*
X-1462858Y-7249902D01*
X-1462858Y-7249902D02*
X-1434287Y-7278474D01*
X-1434287Y-7278474D02*
X-1405715Y-7335617D01*
X-1405715Y-7335617D02*
X-1405715Y-7421331D01*
X-1405715Y-7421331D02*
X-1434287Y-7478474D01*
X-1434287Y-7478474D02*
X-1462858Y-7507045D01*
X-1462858Y-7507045D02*
X-1520001Y-7535617D01*
X-1520001Y-7535617D02*
X-1748572Y-7535617D01*
X-834287Y-7821331D02*
X-1177144Y-7821331D01*
X-1005715Y-7821331D02*
X-1005715Y-7221331D01*
X-1005715Y-7221331D02*
X-1062858Y-7307045D01*
X-1062858Y-7307045D02*
X-1120001Y-7364188D01*
X-1120001Y-7364188D02*
X-1177144Y-7392760D01*
X-548572Y-7821331D02*
X-434286Y-7821331D01*
X-434286Y-7821331D02*
X-377143Y-7792760D01*
X-377143Y-7792760D02*
X-348572Y-7764188D01*
X-348572Y-7764188D02*
X-291429Y-7678474D01*
X-291429Y-7678474D02*
X-262858Y-7564188D01*
X-262858Y-7564188D02*
X-262858Y-7335617D01*
X-262858Y-7335617D02*
X-291429Y-7278474D01*
X-291429Y-7278474D02*
X-320000Y-7249902D01*
X-320000Y-7249902D02*
X-377143Y-7221331D01*
X-377143Y-7221331D02*
X-491429Y-7221331D01*
X-491429Y-7221331D02*
X-548572Y-7249902D01*
X-548572Y-7249902D02*
X-577143Y-7278474D01*
X-577143Y-7278474D02*
X-605715Y-7335617D01*
X-605715Y-7335617D02*
X-605715Y-7478474D01*
X-605715Y-7478474D02*
X-577143Y-7535617D01*
X-577143Y-7535617D02*
X-548572Y-7564188D01*
X-548572Y-7564188D02*
X-491429Y-7592760D01*
X-491429Y-7592760D02*
X-377143Y-7592760D01*
X-377143Y-7592760D02*
X-320000Y-7564188D01*
X-320000Y-7564188D02*
X-291429Y-7535617D01*
X-291429Y-7535617D02*
X-262858Y-7478474D01*
X14071331Y6530001D02*
X13785617Y6330001D01*
X14071331Y6187144D02*
X13471331Y6187144D01*
X13471331Y6187144D02*
X13471331Y6415715D01*
X13471331Y6415715D02*
X13499902Y6472858D01*
X13499902Y6472858D02*
X13528474Y6501429D01*
X13528474Y6501429D02*
X13585617Y6530001D01*
X13585617Y6530001D02*
X13671331Y6530001D01*
X13671331Y6530001D02*
X13728474Y6501429D01*
X13728474Y6501429D02*
X13757045Y6472858D01*
X13757045Y6472858D02*
X13785617Y6415715D01*
X13785617Y6415715D02*
X13785617Y6187144D01*
X13728474Y6872858D02*
X13699902Y6815715D01*
X13699902Y6815715D02*
X13671331Y6787144D01*
X13671331Y6787144D02*
X13614188Y6758572D01*
X13614188Y6758572D02*
X13585617Y6758572D01*
X13585617Y6758572D02*
X13528474Y6787144D01*
X13528474Y6787144D02*
X13499902Y6815715D01*
X13499902Y6815715D02*
X13471331Y6872858D01*
X13471331Y6872858D02*
X13471331Y6987144D01*
X13471331Y6987144D02*
X13499902Y7044286D01*
X13499902Y7044286D02*
X13528474Y7072858D01*
X13528474Y7072858D02*
X13585617Y7101429D01*
X13585617Y7101429D02*
X13614188Y7101429D01*
X13614188Y7101429D02*
X13671331Y7072858D01*
X13671331Y7072858D02*
X13699902Y7044286D01*
X13699902Y7044286D02*
X13728474Y6987144D01*
X13728474Y6987144D02*
X13728474Y6872858D01*
X13728474Y6872858D02*
X13757045Y6815715D01*
X13757045Y6815715D02*
X13785617Y6787144D01*
X13785617Y6787144D02*
X13842760Y6758572D01*
X13842760Y6758572D02*
X13957045Y6758572D01*
X13957045Y6758572D02*
X14014188Y6787144D01*
X14014188Y6787144D02*
X14042760Y6815715D01*
X14042760Y6815715D02*
X14071331Y6872858D01*
X14071331Y6872858D02*
X14071331Y6987144D01*
X14071331Y6987144D02*
X14042760Y7044286D01*
X14042760Y7044286D02*
X14014188Y7072858D01*
X14014188Y7072858D02*
X13957045Y7101429D01*
X13957045Y7101429D02*
X13842760Y7101429D01*
X13842760Y7101429D02*
X13785617Y7072858D01*
X13785617Y7072858D02*
X13757045Y7044286D01*
X13757045Y7044286D02*
X13728474Y6987144D01*
X-8638572Y3028669D02*
X-8838572Y3314383D01*
X-8981429Y3028669D02*
X-8981429Y3628669D01*
X-8981429Y3628669D02*
X-8752858Y3628669D01*
X-8752858Y3628669D02*
X-8695715Y3600098D01*
X-8695715Y3600098D02*
X-8667144Y3571526D01*
X-8667144Y3571526D02*
X-8638572Y3514383D01*
X-8638572Y3514383D02*
X-8638572Y3428669D01*
X-8638572Y3428669D02*
X-8667144Y3371526D01*
X-8667144Y3371526D02*
X-8695715Y3342955D01*
X-8695715Y3342955D02*
X-8752858Y3314383D01*
X-8752858Y3314383D02*
X-8981429Y3314383D01*
X-8067144Y3028669D02*
X-8410001Y3028669D01*
X-8238572Y3028669D02*
X-8238572Y3628669D01*
X-8238572Y3628669D02*
X-8295715Y3542955D01*
X-8295715Y3542955D02*
X-8352858Y3485812D01*
X-8352858Y3485812D02*
X-8410001Y3457240D01*
X-7781429Y3028669D02*
X-7667143Y3028669D01*
X-7667143Y3028669D02*
X-7610000Y3057240D01*
X-7610000Y3057240D02*
X-7581429Y3085812D01*
X-7581429Y3085812D02*
X-7524286Y3171526D01*
X-7524286Y3171526D02*
X-7495715Y3285812D01*
X-7495715Y3285812D02*
X-7495715Y3514383D01*
X-7495715Y3514383D02*
X-7524286Y3571526D01*
X-7524286Y3571526D02*
X-7552857Y3600098D01*
X-7552857Y3600098D02*
X-7610000Y3628669D01*
X-7610000Y3628669D02*
X-7724286Y3628669D01*
X-7724286Y3628669D02*
X-7781429Y3600098D01*
X-7781429Y3600098D02*
X-7810000Y3571526D01*
X-7810000Y3571526D02*
X-7838572Y3514383D01*
X-7838572Y3514383D02*
X-7838572Y3371526D01*
X-7838572Y3371526D02*
X-7810000Y3314383D01*
X-7810000Y3314383D02*
X-7781429Y3285812D01*
X-7781429Y3285812D02*
X-7724286Y3257240D01*
X-7724286Y3257240D02*
X-7610000Y3257240D01*
X-7610000Y3257240D02*
X-7552857Y3285812D01*
X-7552857Y3285812D02*
X-7524286Y3314383D01*
X-7524286Y3314383D02*
X-7495715Y3371526D01*
X-7267143Y3200098D02*
X-6981428Y3200098D01*
X-7324286Y3028669D02*
X-7124286Y3628669D01*
X-7124286Y3628669D02*
X-6924286Y3028669D01*
X-6610000Y3628669D02*
X-6552857Y3628669D01*
X-6552857Y3628669D02*
X-6495714Y3600098D01*
X-6495714Y3600098D02*
X-6467142Y3571526D01*
X-6467142Y3571526D02*
X-6438571Y3514383D01*
X-6438571Y3514383D02*
X-6410000Y3400098D01*
X-6410000Y3400098D02*
X-6410000Y3257240D01*
X-6410000Y3257240D02*
X-6438571Y3142955D01*
X-6438571Y3142955D02*
X-6467142Y3085812D01*
X-6467142Y3085812D02*
X-6495714Y3057240D01*
X-6495714Y3057240D02*
X-6552857Y3028669D01*
X-6552857Y3028669D02*
X-6610000Y3028669D01*
X-6610000Y3028669D02*
X-6667142Y3057240D01*
X-6667142Y3057240D02*
X-6695714Y3085812D01*
X-6695714Y3085812D02*
X-6724285Y3142955D01*
X-6724285Y3142955D02*
X-6752857Y3257240D01*
X-6752857Y3257240D02*
X-6752857Y3400098D01*
X-6752857Y3400098D02*
X-6724285Y3514383D01*
X-6724285Y3514383D02*
X-6695714Y3571526D01*
X-6695714Y3571526D02*
X-6667142Y3600098D01*
X-6667142Y3600098D02*
X-6610000Y3628669D01*
X15471331Y814286D02*
X15185617Y614286D01*
X15471331Y471429D02*
X14871331Y471429D01*
X14871331Y471429D02*
X14871331Y700000D01*
X14871331Y700000D02*
X14899902Y757143D01*
X14899902Y757143D02*
X14928474Y785714D01*
X14928474Y785714D02*
X14985617Y814286D01*
X14985617Y814286D02*
X15071331Y814286D01*
X15071331Y814286D02*
X15128474Y785714D01*
X15128474Y785714D02*
X15157045Y757143D01*
X15157045Y757143D02*
X15185617Y700000D01*
X15185617Y700000D02*
X15185617Y471429D01*
X15471331Y1385714D02*
X15471331Y1042857D01*
X15471331Y1214286D02*
X14871331Y1214286D01*
X14871331Y1214286D02*
X14957045Y1157143D01*
X14957045Y1157143D02*
X15014188Y1100000D01*
X15014188Y1100000D02*
X15042760Y1042857D01*
X14871331Y1928572D02*
X14871331Y1642858D01*
X14871331Y1642858D02*
X15157045Y1614286D01*
X15157045Y1614286D02*
X15128474Y1642858D01*
X15128474Y1642858D02*
X15099902Y1700000D01*
X15099902Y1700000D02*
X15099902Y1842858D01*
X15099902Y1842858D02*
X15128474Y1900000D01*
X15128474Y1900000D02*
X15157045Y1928572D01*
X15157045Y1928572D02*
X15214188Y1957143D01*
X15214188Y1957143D02*
X15357045Y1957143D01*
X15357045Y1957143D02*
X15414188Y1928572D01*
X15414188Y1928572D02*
X15442760Y1900000D01*
X15442760Y1900000D02*
X15471331Y1842858D01*
X15471331Y1842858D02*
X15471331Y1700000D01*
X15471331Y1700000D02*
X15442760Y1642858D01*
X15442760Y1642858D02*
X15414188Y1614286D01*
X15471331Y-2385714D02*
X15185617Y-2585714D01*
X15471331Y-2728571D02*
X14871331Y-2728571D01*
X14871331Y-2728571D02*
X14871331Y-2500000D01*
X14871331Y-2500000D02*
X14899902Y-2442857D01*
X14899902Y-2442857D02*
X14928474Y-2414286D01*
X14928474Y-2414286D02*
X14985617Y-2385714D01*
X14985617Y-2385714D02*
X15071331Y-2385714D01*
X15071331Y-2385714D02*
X15128474Y-2414286D01*
X15128474Y-2414286D02*
X15157045Y-2442857D01*
X15157045Y-2442857D02*
X15185617Y-2500000D01*
X15185617Y-2500000D02*
X15185617Y-2728571D01*
X15471331Y-1814286D02*
X15471331Y-2157143D01*
X15471331Y-1985714D02*
X14871331Y-1985714D01*
X14871331Y-1985714D02*
X14957045Y-2042857D01*
X14957045Y-2042857D02*
X15014188Y-2100000D01*
X15014188Y-2100000D02*
X15042760Y-2157143D01*
X14871331Y-1300000D02*
X14871331Y-1414285D01*
X14871331Y-1414285D02*
X14899902Y-1471428D01*
X14899902Y-1471428D02*
X14928474Y-1500000D01*
X14928474Y-1500000D02*
X15014188Y-1557142D01*
X15014188Y-1557142D02*
X15128474Y-1585714D01*
X15128474Y-1585714D02*
X15357045Y-1585714D01*
X15357045Y-1585714D02*
X15414188Y-1557142D01*
X15414188Y-1557142D02*
X15442760Y-1528571D01*
X15442760Y-1528571D02*
X15471331Y-1471428D01*
X15471331Y-1471428D02*
X15471331Y-1357142D01*
X15471331Y-1357142D02*
X15442760Y-1300000D01*
X15442760Y-1300000D02*
X15414188Y-1271428D01*
X15414188Y-1271428D02*
X15357045Y-1242857D01*
X15357045Y-1242857D02*
X15214188Y-1242857D01*
X15214188Y-1242857D02*
X15157045Y-1271428D01*
X15157045Y-1271428D02*
X15128474Y-1300000D01*
X15128474Y-1300000D02*
X15099902Y-1357142D01*
X15099902Y-1357142D02*
X15099902Y-1471428D01*
X15099902Y-1471428D02*
X15128474Y-1528571D01*
X15128474Y-1528571D02*
X15157045Y-1557142D01*
X15157045Y-1557142D02*
X15214188Y-1585714D01*
X6671331Y7914286D02*
X6385617Y7714286D01*
X6671331Y7571429D02*
X6071331Y7571429D01*
X6071331Y7571429D02*
X6071331Y7800000D01*
X6071331Y7800000D02*
X6099902Y7857143D01*
X6099902Y7857143D02*
X6128474Y7885714D01*
X6128474Y7885714D02*
X6185617Y7914286D01*
X6185617Y7914286D02*
X6271331Y7914286D01*
X6271331Y7914286D02*
X6328474Y7885714D01*
X6328474Y7885714D02*
X6357045Y7857143D01*
X6357045Y7857143D02*
X6385617Y7800000D01*
X6385617Y7800000D02*
X6385617Y7571429D01*
X6071331Y8114286D02*
X6071331Y8514286D01*
X6071331Y8514286D02*
X6671331Y8257143D01*
X6357045Y8942858D02*
X6385617Y9028572D01*
X6385617Y9028572D02*
X6414188Y9057143D01*
X6414188Y9057143D02*
X6471331Y9085715D01*
X6471331Y9085715D02*
X6557045Y9085715D01*
X6557045Y9085715D02*
X6614188Y9057143D01*
X6614188Y9057143D02*
X6642760Y9028572D01*
X6642760Y9028572D02*
X6671331Y8971429D01*
X6671331Y8971429D02*
X6671331Y8742858D01*
X6671331Y8742858D02*
X6071331Y8742858D01*
X6071331Y8742858D02*
X6071331Y8942858D01*
X6071331Y8942858D02*
X6099902Y9000000D01*
X6099902Y9000000D02*
X6128474Y9028572D01*
X6128474Y9028572D02*
X6185617Y9057143D01*
X6185617Y9057143D02*
X6242760Y9057143D01*
X6242760Y9057143D02*
X6299902Y9028572D01*
X6299902Y9028572D02*
X6328474Y9000000D01*
X6328474Y9000000D02*
X6357045Y8942858D01*
X6357045Y8942858D02*
X6357045Y8742858D01*
X6071331Y9457143D02*
X6071331Y9514286D01*
X6071331Y9514286D02*
X6099902Y9571429D01*
X6099902Y9571429D02*
X6128474Y9600000D01*
X6128474Y9600000D02*
X6185617Y9628572D01*
X6185617Y9628572D02*
X6299902Y9657143D01*
X6299902Y9657143D02*
X6442760Y9657143D01*
X6442760Y9657143D02*
X6557045Y9628572D01*
X6557045Y9628572D02*
X6614188Y9600000D01*
X6614188Y9600000D02*
X6642760Y9571429D01*
X6642760Y9571429D02*
X6671331Y9514286D01*
X6671331Y9514286D02*
X6671331Y9457143D01*
X6671331Y9457143D02*
X6642760Y9400000D01*
X6642760Y9400000D02*
X6614188Y9371429D01*
X6614188Y9371429D02*
X6557045Y9342858D01*
X6557045Y9342858D02*
X6442760Y9314286D01*
X6442760Y9314286D02*
X6299902Y9314286D01*
X6299902Y9314286D02*
X6185617Y9342858D01*
X6185617Y9342858D02*
X6128474Y9371429D01*
X6128474Y9371429D02*
X6099902Y9400000D01*
X6099902Y9400000D02*
X6071331Y9457143D01*
X6922857Y-13001331D02*
X6922857Y-13487045D01*
X6922857Y-13487045D02*
X6951428Y-13544188D01*
X6951428Y-13544188D02*
X6980000Y-13572760D01*
X6980000Y-13572760D02*
X7037142Y-13601331D01*
X7037142Y-13601331D02*
X7151428Y-13601331D01*
X7151428Y-13601331D02*
X7208571Y-13572760D01*
X7208571Y-13572760D02*
X7237142Y-13544188D01*
X7237142Y-13544188D02*
X7265714Y-13487045D01*
X7265714Y-13487045D02*
X7265714Y-13001331D01*
X7494285Y-13001331D02*
X7865713Y-13001331D01*
X7865713Y-13001331D02*
X7665713Y-13229902D01*
X7665713Y-13229902D02*
X7751428Y-13229902D01*
X7751428Y-13229902D02*
X7808571Y-13258474D01*
X7808571Y-13258474D02*
X7837142Y-13287045D01*
X7837142Y-13287045D02*
X7865713Y-13344188D01*
X7865713Y-13344188D02*
X7865713Y-13487045D01*
X7865713Y-13487045D02*
X7837142Y-13544188D01*
X7837142Y-13544188D02*
X7808571Y-13572760D01*
X7808571Y-13572760D02*
X7751428Y-13601331D01*
X7751428Y-13601331D02*
X7579999Y-13601331D01*
X7579999Y-13601331D02*
X7522856Y-13572760D01*
X7522856Y-13572760D02*
X7494285Y-13544188D01*
X-8999999Y-2121330D02*
X-9199999Y-1835616D01*
X-9342856Y-2121330D02*
X-9342856Y-1521330D01*
X-9342856Y-1521330D02*
X-9114285Y-1521330D01*
X-9114285Y-1521330D02*
X-9057142Y-1549901D01*
X-9057142Y-1549901D02*
X-9028571Y-1578473D01*
X-9028571Y-1578473D02*
X-8999999Y-1635616D01*
X-8999999Y-1635616D02*
X-8999999Y-1721330D01*
X-8999999Y-1721330D02*
X-9028571Y-1778473D01*
X-9028571Y-1778473D02*
X-9057142Y-1807044D01*
X-9057142Y-1807044D02*
X-9114285Y-1835616D01*
X-9114285Y-1835616D02*
X-9342856Y-1835616D01*
X-8771428Y-1578473D02*
X-8742856Y-1549901D01*
X-8742856Y-1549901D02*
X-8685713Y-1521330D01*
X-8685713Y-1521330D02*
X-8542856Y-1521330D01*
X-8542856Y-1521330D02*
X-8485713Y-1549901D01*
X-8485713Y-1549901D02*
X-8457142Y-1578473D01*
X-8457142Y-1578473D02*
X-8428571Y-1635616D01*
X-8428571Y-1635616D02*
X-8428571Y-1692759D01*
X-8428571Y-1692759D02*
X-8457142Y-1778473D01*
X-8457142Y-1778473D02*
X-8799999Y-2121330D01*
X-8799999Y-2121330D02*
X-8428571Y-2121330D01*
%TO.C,C8*%
X2359420Y5310000D02*
X2640580Y5310000D01*
X2359420Y4290000D02*
X2640580Y4290000D01*
%TO.C,R24*%
X-9337258Y7022500D02*
X-8862742Y7022500D01*
X-9337258Y5977500D02*
X-8862742Y5977500D01*
%TO.C,R17*%
X9362742Y4822500D02*
X9837258Y4822500D01*
X9362742Y3777500D02*
X9837258Y3777500D01*
%TO.C,C7*%
X9459420Y3010000D02*
X9740580Y3010000D01*
X9459420Y1990000D02*
X9740580Y1990000D01*
%TO.C,R10*%
X-8862742Y8722500D02*
X-9337258Y8722500D01*
X-8862742Y7677500D02*
X-9337258Y7677500D01*
%TO.C,C1*%
X-9040580Y-4190000D02*
X-8759420Y-4190000D01*
X-9040580Y-5210000D02*
X-8759420Y-5210000D01*
%TO.C,C11*%
X-9240580Y10510000D02*
X-8959420Y10510000D01*
X-9240580Y9490000D02*
X-8959420Y9490000D01*
%TO.C,R18*%
X-6822500Y-5362742D02*
X-6822500Y-5837258D01*
X-5777500Y-5362742D02*
X-5777500Y-5837258D01*
%TO.C,R31*%
X-12022500Y-2437258D02*
X-12022500Y-1962742D01*
X-10977500Y-2437258D02*
X-10977500Y-1962742D01*
%TO.C,U1*%
X-6060000Y0D02*
X-6060000Y1950000D01*
X-6060000Y0D02*
X-6060000Y-1950000D01*
X-940000Y0D02*
X-940000Y1950000D01*
X-940000Y0D02*
X-940000Y-1950000D01*
X-5965000Y-2700000D02*
X-6295000Y-2940000D01*
X-6295000Y-2460000D01*
X-5965000Y-2700000D01*
G36*
X-5965000Y-2700000D02*
G01*
X-6295000Y-2940000D01*
X-6295000Y-2460000D01*
X-5965000Y-2700000D01*
G37*
%TO.C,C12*%
X2559420Y-4190000D02*
X2840580Y-4190000D01*
X2559420Y-5210000D02*
X2840580Y-5210000D01*
%TO.C,R5B0*%
X-12437258Y-4177500D02*
X-11962742Y-4177500D01*
X-12437258Y-5222500D02*
X-11962742Y-5222500D01*
%TO.C,R32*%
X-13922500Y-2437258D02*
X-13922500Y-1962742D01*
X-12877500Y-2437258D02*
X-12877500Y-1962742D01*
%TO.C,R7A0*%
X8877500Y8362742D02*
X8877500Y8837258D01*
X9922500Y8362742D02*
X9922500Y8837258D01*
%TO.C,C3*%
X-6810000Y10940580D02*
X-6810000Y10659420D01*
X-5790000Y10940580D02*
X-5790000Y10659420D01*
%TO.C,U4*%
X690000Y0D02*
X690000Y1950000D01*
X690000Y0D02*
X690000Y-1950000D01*
X5810000Y0D02*
X5810000Y1950000D01*
X5810000Y0D02*
X5810000Y-1950000D01*
X785000Y-2700000D02*
X455000Y-2940000D01*
X455000Y-2460000D01*
X785000Y-2700000D01*
G36*
X785000Y-2700000D02*
G01*
X455000Y-2940000D01*
X455000Y-2460000D01*
X785000Y-2700000D01*
G37*
%TO.C,R23*%
X-562742Y8722500D02*
X-1037258Y8722500D01*
X-562742Y7677500D02*
X-1037258Y7677500D01*
%TO.C,R1*%
X-5022500Y10562742D02*
X-5022500Y11037258D01*
X-3977500Y10562742D02*
X-3977500Y11037258D01*
%TO.C,R11*%
X-737258Y-4177500D02*
X-262742Y-4177500D01*
X-737258Y-5222500D02*
X-262742Y-5222500D01*
%TO.C,C4*%
X-340580Y12210000D02*
X-59420Y12210000D01*
X-340580Y11190000D02*
X-59420Y11190000D01*
%TO.C,R26*%
X-3937258Y-4177500D02*
X-3462742Y-4177500D01*
X-3937258Y-5222500D02*
X-3462742Y-5222500D01*
%TO.C,R4*%
X37258Y10522500D02*
X-437258Y10522500D01*
X37258Y9477500D02*
X-437258Y9477500D01*
%TO.C,C6*%
X9890000Y-2559420D02*
X9890000Y-2840580D01*
X10910000Y-2559420D02*
X10910000Y-2840580D01*
%TO.C,R3*%
X-3222500Y11037258D02*
X-3222500Y10562742D01*
X-2177500Y11037258D02*
X-2177500Y10562742D01*
%TO.C,R22*%
X-7122500Y5362742D02*
X-7122500Y5837258D01*
X-6077500Y5362742D02*
X-6077500Y5837258D01*
%TO.C,R9*%
X9362742Y6622500D02*
X9837258Y6622500D01*
X9362742Y5577500D02*
X9837258Y5577500D01*
%TO.C,C13*%
X-4810000Y-8287500D02*
X-4810000Y-12497500D01*
X-4810000Y-12497500D02*
X-1790000Y-12497500D01*
X-1790000Y-12497500D02*
X-1790000Y-8287500D01*
%TO.C,R5A0*%
X-12437258Y-5977500D02*
X-11962742Y-5977500D01*
X-12437258Y-7022500D02*
X-11962742Y-7022500D01*
%TO.C,R25*%
X-9662742Y-7877500D02*
X-10137258Y-7877500D01*
X-9662742Y-8922500D02*
X-10137258Y-8922500D01*
%TO.C,R7*%
X-12837258Y922500D02*
X-12362742Y922500D01*
X-12837258Y-122500D02*
X-12362742Y-122500D01*
%TO.C,R6*%
X-9137258Y-5977500D02*
X-8662742Y-5977500D01*
X-9137258Y-7022500D02*
X-8662742Y-7022500D01*
%TO.C,R19B0*%
X-4337258Y5322500D02*
X-3862742Y5322500D01*
X-4337258Y4277500D02*
X-3862742Y4277500D01*
%TO.C,LK1*%
X-8300000Y-8500000D02*
X-8300000Y-9100000D01*
X-8000000Y-8800000D02*
X-8300000Y-8500000D01*
X-8000000Y-8800000D02*
X-8300000Y-9100000D01*
X-7800000Y-11400000D02*
X-7800000Y-8600000D01*
X-7100000Y-7950000D02*
X-6500000Y-7950000D01*
X-6500000Y-12050000D02*
X-7100000Y-12050000D01*
X-5800000Y-8600000D02*
X-5800000Y-11400000D01*
X-7800000Y-8650000D02*
G75*
G02*
X-7100000Y-7950000I699999J1D01*
G01*
X-7100000Y-12050000D02*
G75*
G02*
X-7800000Y-11350000I0J700000D01*
G01*
X-6500000Y-7950000D02*
G75*
G02*
X-5800000Y-8650000I1J-699999D01*
G01*
X-5800000Y-11350000D02*
G75*
G02*
X-6500000Y-12050000I-700000J0D01*
G01*
%TO.C,C2*%
X2359420Y7010000D02*
X2640580Y7010000D01*
X2359420Y5990000D02*
X2640580Y5990000D01*
%TO.C,U2*%
X3700000Y11960000D02*
X2900000Y11960000D01*
X3700000Y11960000D02*
X4500000Y11960000D01*
X3700000Y8840000D02*
X2900000Y8840000D01*
X3700000Y8840000D02*
X4500000Y8840000D01*
X5240000Y8560000D02*
X4760000Y8560000D01*
X5000000Y8890000D01*
X5240000Y8560000D01*
G36*
X5240000Y8560000D02*
G01*
X4760000Y8560000D01*
X5000000Y8890000D01*
X5240000Y8560000D01*
G37*
%TO.C,R21B0*%
X-562742Y7022500D02*
X-1037258Y7022500D01*
X-562742Y5977500D02*
X-1037258Y5977500D01*
%TO.C,C9*%
X-9240580Y5310000D02*
X-8959420Y5310000D01*
X-9240580Y4290000D02*
X-8959420Y4290000D01*
%TO.C,R20*%
X-3862742Y8722500D02*
X-4337258Y8722500D01*
X-3862742Y7677500D02*
X-4337258Y7677500D01*
%TO.C,R29*%
X10677500Y8837258D02*
X10677500Y8362742D01*
X11722500Y8837258D02*
X11722500Y8362742D01*
%TO.C,C5*%
X9990000Y-8759420D02*
X9990000Y-9040580D01*
X11010000Y-8759420D02*
X11010000Y-9040580D01*
%TO.C,R13*%
X11677500Y-2462742D02*
X11677500Y-2937258D01*
X12722500Y-2462742D02*
X12722500Y-2937258D01*
%TO.C,R14*%
X8037258Y-2977500D02*
X7562742Y-2977500D01*
X8037258Y-4022500D02*
X7562742Y-4022500D01*
%TO.C,R28*%
X-3937258Y-5977500D02*
X-3462742Y-5977500D01*
X-3937258Y-7022500D02*
X-3462742Y-7022500D01*
%TO.C,R27*%
X-10137258Y-9677500D02*
X-9662742Y-9677500D01*
X-10137258Y-10722500D02*
X-9662742Y-10722500D01*
%TO.C,R21*%
X2937258Y-5977500D02*
X2462742Y-5977500D01*
X2937258Y-7022500D02*
X2462742Y-7022500D01*
%TO.C,R6A0*%
X7262742Y11722500D02*
X7737258Y11722500D01*
X7262742Y10677500D02*
X7737258Y10677500D01*
%TO.C,LK2*%
X-1300000Y-8500000D02*
X-1300000Y-9100000D01*
X-1000000Y-8800000D02*
X-1300000Y-8500000D01*
X-1000000Y-8800000D02*
X-1300000Y-9100000D01*
X-800000Y-11400000D02*
X-800000Y-8600000D01*
X-100000Y-7950000D02*
X500000Y-7950000D01*
X500000Y-12050000D02*
X-100000Y-12050000D01*
X1200000Y-8600000D02*
X1200000Y-11400000D01*
X-800000Y-8650000D02*
G75*
G02*
X-100000Y-7950000I699999J1D01*
G01*
X-100000Y-12050000D02*
G75*
G02*
X-800000Y-11350000I0J700000D01*
G01*
X500000Y-7950000D02*
G75*
G02*
X1200000Y-8650000I1J-699999D01*
G01*
X1200000Y-11350000D02*
G75*
G02*
X500000Y-12050000I-700000J0D01*
G01*
%TO.C,R6B0*%
X5762742Y13622500D02*
X6237258Y13622500D01*
X5762742Y12577500D02*
X6237258Y12577500D01*
%TO.C,D1*%
X9050000Y-6810000D02*
X13460000Y-6810000D01*
X13460000Y-4590000D02*
X9050000Y-4590000D01*
X13460000Y-6810000D02*
X13460000Y-4590000D01*
%TO.C,R12*%
X11677500Y962742D02*
X11677500Y1437258D01*
X12722500Y962742D02*
X12722500Y1437258D01*
%TO.C,R30*%
X11677500Y4737258D02*
X11677500Y4262742D01*
X12722500Y4737258D02*
X12722500Y4262742D01*
%TO.C,R21A0*%
X-562742Y5322500D02*
X-1037258Y5322500D01*
X-562742Y4277500D02*
X-1037258Y4277500D01*
%TO.C,R19*%
X-262742Y-5977500D02*
X-737258Y-5977500D01*
X-262742Y-7022500D02*
X-737258Y-7022500D01*
%TO.C,R8*%
X13477500Y4262742D02*
X13477500Y4737258D01*
X14522500Y4262742D02*
X14522500Y4737258D01*
%TO.C,R19A0*%
X-4337258Y7022500D02*
X-3862742Y7022500D01*
X-4337258Y5977500D02*
X-3862742Y5977500D01*
%TO.C,R15*%
X13577500Y962742D02*
X13577500Y1437258D01*
X14622500Y962742D02*
X14622500Y1437258D01*
%TO.C,R16*%
X13577500Y-2462742D02*
X13577500Y-2937258D01*
X14622500Y-2462742D02*
X14622500Y-2937258D01*
%TO.C,R7B0*%
X7077500Y8362742D02*
X7077500Y8837258D01*
X8122500Y8362742D02*
X8122500Y8837258D01*
%TO.C,U3*%
X5700000Y-7540000D02*
X3750000Y-7540000D01*
X5700000Y-7540000D02*
X7650000Y-7540000D01*
X5700000Y-12660000D02*
X3750000Y-12660000D01*
X5700000Y-12660000D02*
X7650000Y-12660000D01*
X8640000Y-12895000D02*
X8160000Y-12895000D01*
X8400000Y-12565000D01*
X8640000Y-12895000D01*
G36*
X8640000Y-12895000D02*
G01*
X8160000Y-12895000D01*
X8400000Y-12565000D01*
X8640000Y-12895000D01*
G37*
%TO.C,R2*%
X-8662742Y-2377500D02*
X-9137258Y-2377500D01*
X-8662742Y-3422500D02*
X-9137258Y-3422500D01*
%TD*%
%LPC*%
D13*
%TO.C,C8*%
X1725000Y4800000D03*
X3275000Y4800000D03*
%TD*%
D14*
%TO.C,R24*%
X-9925000Y6500000D03*
X-8275000Y6500000D03*
%TD*%
%TO.C,R17*%
X8775000Y4300000D03*
X10425000Y4300000D03*
%TD*%
D13*
%TO.C,C7*%
X8825000Y2500000D03*
X10375000Y2500000D03*
%TD*%
D15*
%TO.C,R10*%
X-8275000Y8200000D03*
X-9925000Y8200000D03*
%TD*%
D13*
%TO.C,C1*%
X-9675000Y-4700000D03*
X-8125000Y-4700000D03*
%TD*%
%TO.C,C11*%
X-9875000Y10000000D03*
X-8325000Y10000000D03*
%TD*%
D16*
%TO.C,R18*%
X-6300000Y-4775000D03*
X-6300000Y-6425000D03*
%TD*%
D17*
%TO.C,R31*%
X-11500000Y-3025000D03*
X-11500000Y-1375000D03*
%TD*%
D18*
%TO.C,U1*%
X-5405000Y-2475000D03*
X-4135000Y-2475000D03*
X-2865000Y-2475000D03*
X-1595000Y-2475000D03*
X-1595000Y2475000D03*
X-2865000Y2475000D03*
X-4135000Y2475000D03*
X-5405000Y2475000D03*
%TD*%
D13*
%TO.C,C12*%
X1925000Y-4700000D03*
X3475000Y-4700000D03*
%TD*%
D14*
%TO.C,R5B0*%
X-13025000Y-4700000D03*
X-11375000Y-4700000D03*
%TD*%
D17*
%TO.C,R32*%
X-13400000Y-3025000D03*
X-13400000Y-1375000D03*
%TD*%
%TO.C,R7A0*%
X9400000Y7775000D03*
X9400000Y9425000D03*
%TD*%
D19*
%TO.C,C3*%
X-6300000Y11575000D03*
X-6300000Y10025000D03*
%TD*%
D18*
%TO.C,U4*%
X1345000Y-2475000D03*
X2615000Y-2475000D03*
X3885000Y-2475000D03*
X5155000Y-2475000D03*
X5155000Y2475000D03*
X3885000Y2475000D03*
X2615000Y2475000D03*
X1345000Y2475000D03*
%TD*%
D15*
%TO.C,R23*%
X25000Y8200000D03*
X-1625000Y8200000D03*
%TD*%
D17*
%TO.C,R1*%
X-4500000Y9975000D03*
X-4500000Y11625000D03*
%TD*%
D14*
%TO.C,R11*%
X-1325000Y-4700000D03*
X325000Y-4700000D03*
%TD*%
D13*
%TO.C,C4*%
X-975000Y11700000D03*
X575000Y11700000D03*
%TD*%
D14*
%TO.C,R26*%
X-4525000Y-4700000D03*
X-2875000Y-4700000D03*
%TD*%
D15*
%TO.C,R4*%
X625000Y10000000D03*
X-1025000Y10000000D03*
%TD*%
D19*
%TO.C,C6*%
X10400000Y-1925000D03*
X10400000Y-3475000D03*
%TD*%
D16*
%TO.C,R3*%
X-2700000Y11625000D03*
X-2700000Y9975000D03*
%TD*%
D17*
%TO.C,R22*%
X-6600000Y4775000D03*
X-6600000Y6425000D03*
%TD*%
D14*
%TO.C,R9*%
X8775000Y6100000D03*
X10425000Y6100000D03*
%TD*%
D20*
%TO.C,C13*%
X-3300000Y-11575000D03*
X-3300000Y-8500000D03*
%TD*%
D14*
%TO.C,R5A0*%
X-13025000Y-6500000D03*
X-11375000Y-6500000D03*
%TD*%
D15*
%TO.C,R25*%
X-9075000Y-8400000D03*
X-10725000Y-8400000D03*
%TD*%
D14*
%TO.C,R7*%
X-13425000Y400000D03*
X-11775000Y400000D03*
%TD*%
%TO.C,R6*%
X-9725000Y-6500000D03*
X-8075000Y-6500000D03*
%TD*%
%TO.C,R19B0*%
X-4925000Y4800000D03*
X-3275000Y4800000D03*
%TD*%
D21*
%TO.C,LK1*%
X-6800000Y-8700000D03*
D22*
X-6800000Y-10000000D03*
D23*
X-6800000Y-11300000D03*
%TD*%
D13*
%TO.C,C2*%
X1725000Y6500000D03*
X3275000Y6500000D03*
%TD*%
D24*
%TO.C,U2*%
X4837500Y9450000D03*
X4837500Y10400000D03*
X4837500Y11350000D03*
X2562500Y11350000D03*
X2562500Y9450000D03*
%TD*%
D15*
%TO.C,R21B0*%
X25000Y6500000D03*
X-1625000Y6500000D03*
%TD*%
D13*
%TO.C,C9*%
X-9875000Y4800000D03*
X-8325000Y4800000D03*
%TD*%
D15*
%TO.C,R20*%
X-3275000Y8200000D03*
X-4925000Y8200000D03*
%TD*%
D16*
%TO.C,R29*%
X11200000Y9425000D03*
X11200000Y7775000D03*
%TD*%
D19*
%TO.C,C5*%
X10500000Y-8125000D03*
X10500000Y-9675000D03*
%TD*%
D16*
%TO.C,R13*%
X12200000Y-1875000D03*
X12200000Y-3525000D03*
%TD*%
D15*
%TO.C,R14*%
X8625000Y-3500000D03*
X6975000Y-3500000D03*
%TD*%
D14*
%TO.C,R28*%
X-4525000Y-6500000D03*
X-2875000Y-6500000D03*
%TD*%
%TO.C,R27*%
X-10725000Y-10200000D03*
X-9075000Y-10200000D03*
%TD*%
D15*
%TO.C,R21*%
X3525000Y-6500000D03*
X1875000Y-6500000D03*
%TD*%
D14*
%TO.C,R6A0*%
X6675000Y11200000D03*
X8325000Y11200000D03*
%TD*%
D21*
%TO.C,LK2*%
X200000Y-8700000D03*
D22*
X200000Y-10000000D03*
D23*
X200000Y-11300000D03*
%TD*%
D14*
%TO.C,R6B0*%
X5175000Y13100000D03*
X6825000Y13100000D03*
%TD*%
D25*
%TO.C,D1*%
X12550000Y-5700000D03*
X9050000Y-5700000D03*
%TD*%
D17*
%TO.C,R12*%
X12200000Y375000D03*
X12200000Y2025000D03*
%TD*%
D16*
%TO.C,R30*%
X12200000Y5325000D03*
X12200000Y3675000D03*
%TD*%
D15*
%TO.C,R21A0*%
X25000Y4800000D03*
X-1625000Y4800000D03*
%TD*%
%TO.C,R19*%
X325000Y-6500000D03*
X-1325000Y-6500000D03*
%TD*%
D17*
%TO.C,R8*%
X14000000Y3675000D03*
X14000000Y5325000D03*
%TD*%
D14*
%TO.C,R19A0*%
X-4925000Y6500000D03*
X-3275000Y6500000D03*
%TD*%
D17*
%TO.C,R15*%
X14100000Y375000D03*
X14100000Y2025000D03*
%TD*%
D16*
%TO.C,R16*%
X14100000Y-1875000D03*
X14100000Y-3525000D03*
%TD*%
D17*
%TO.C,R7B0*%
X7600000Y7775000D03*
X7600000Y9425000D03*
%TD*%
D26*
%TO.C,U3*%
X8175000Y-12005000D03*
X8175000Y-10735000D03*
X8175000Y-9465000D03*
X8175000Y-8195000D03*
X3225000Y-8195000D03*
X3225000Y-9465000D03*
X3225000Y-10735000D03*
X3225000Y-12005000D03*
%TD*%
D15*
%TO.C,R2*%
X-8075000Y-2900000D03*
X-9725000Y-2900000D03*
%TD*%
D27*
%TO.C,U5*%
X3000000Y13500000D03*
X1000000Y13500000D03*
X-1000000Y13500000D03*
X-3000000Y13500000D03*
X3000000Y-13500000D03*
X1000000Y-13500000D03*
X-1000000Y-13500000D03*
X-3000000Y-13500000D03*
%TD*%
D28*
%TO.C,SN1*%
X-8500000Y0D03*
X6010408Y6010408D03*
X8500000Y0D03*
X6010408Y-6010408D03*
%TD*%
%LPD*%
M02*
