%TF.GenerationSoftware,KiCad,Pcbnew,8.0.4*%
%TF.CreationDate,2024-09-03T19:15:54+05:30*%
%TF.ProjectId,OGS_B4_ISB1,4f47535f-4234-45f4-9953-42312e6b6963,rev?*%
%TF.SameCoordinates,Original*%
%TF.FileFunction,Copper,L2,Bot*%
%TF.FilePolarity,Positive*%
%FSLAX46Y46*%
G04 Gerber Fmt 4.6, Leading zero omitted, Abs format (unit mm)*
G04 Created by KiCad (PCBNEW 8.0.4) date 2024-09-03 19:15:54*
%MOMM*%
%LPD*%
G01*
G04 APERTURE LIST*
G04 Aperture macros list*
%AMRoundRect*
0 Rectangle with rounded corners*
0 $1 Rounding radius*
0 $2 $3 $4 $5 $6 $7 $8 $9 X,Y pos of 4 corners*
0 Add a 4 corners polygon primitive as box body*
4,1,4,$2,$3,$4,$5,$6,$7,$8,$9,$2,$3,0*
0 Add four circle primitives for the rounded corners*
1,1,$1+$1,$2,$3*
1,1,$1+$1,$4,$5*
1,1,$1+$1,$6,$7*
1,1,$1+$1,$8,$9*
0 Add four rect primitives between the rounded corners*
20,1,$1+$1,$2,$3,$4,$5,0*
20,1,$1+$1,$4,$5,$6,$7,0*
20,1,$1+$1,$6,$7,$8,$9,0*
20,1,$1+$1,$8,$9,$2,$3,0*%
G04 Aperture macros list end*
%TA.AperFunction,ComponentPad*%
%ADD10C,1.524000*%
%TD*%
%TA.AperFunction,SMDPad,CuDef*%
%ADD11RoundRect,0.225000X0.225000X0.250000X-0.225000X0.250000X-0.225000X-0.250000X0.225000X-0.250000X0*%
%TD*%
%TA.AperFunction,ComponentPad*%
%ADD12C,2.750000*%
%TD*%
%TA.AperFunction,SMDPad,CuDef*%
%ADD13RoundRect,0.150000X-0.150000X0.587500X-0.150000X-0.587500X0.150000X-0.587500X0.150000X0.587500X0*%
%TD*%
%TA.AperFunction,ViaPad*%
%ADD14C,0.600000*%
%TD*%
%TA.AperFunction,ViaPad*%
%ADD15C,0.800000*%
%TD*%
%TA.AperFunction,Conductor*%
%ADD16C,0.400000*%
%TD*%
%TA.AperFunction,Conductor*%
%ADD17C,0.250000*%
%TD*%
G04 APERTURE END LIST*
D10*
%TO.P,U5,7,+5V*%
%TO.N,VCC*%
X3000000Y13500000D03*
%TO.P,U5,8,GND*%
%TO.N,GNDA*%
X1000000Y13500000D03*
%TO.P,U5,9,W*%
%TO.N,O{slash}P1*%
X-1000000Y13500000D03*
%TO.P,U5,10,A*%
%TO.N,O{slash}P2*%
X-3000000Y13500000D03*
%TO.P,U5,11,3V3*%
%TO.N,+3V3*%
X3000000Y-13500000D03*
%TO.P,U5,12,GND*%
%TO.N,GND*%
X1000000Y-13500000D03*
%TO.P,U5,13,SCL*%
%TO.N,TEMP*%
X-1000000Y-13500000D03*
%TO.P,U5,14,SDA*%
%TO.N,unconnected-(U5-SDA-Pad14)*%
X-3000000Y-13500000D03*
%TD*%
D11*
%TO.P,C10,1*%
%TO.N,GNDA*%
X775000Y7000000D03*
%TO.P,C10,2*%
%TO.N,VCC*%
X-775000Y7000000D03*
%TD*%
D12*
%TO.P,SN1,1,AE*%
%TO.N,Net-(SN1-AE)*%
X-8500000Y0D03*
%TO.P,SN1,2,RE*%
%TO.N,Net-(SN1-RE)*%
X6010408Y6010408D03*
%TO.P,SN1,3,WE*%
%TO.N,Net-(SN1-WE)*%
X8500000Y0D03*
%TO.P,SN1,4,CE*%
%TO.N,Net-(SN1-CE)*%
X6010408Y-6010408D03*
%TD*%
D13*
%TO.P,U6,1,V_{DD}*%
%TO.N,VCC*%
X-950000Y5187500D03*
%TO.P,U6,2,V_{OUT}*%
%TO.N,TEMP*%
X950000Y5187500D03*
%TO.P,U6,3,GND*%
%TO.N,GNDA*%
X0Y3312500D03*
%TD*%
D14*
%TO.N,Net-(SN1-CE)*%
X-625000Y-5400000D03*
%TO.N,Net-(C1-Pad2)*%
X-5100000Y-3800000D03*
X-2400000Y6500000D03*
%TO.N,Net-(SN1-RE)*%
X12200000Y-1174500D03*
%TO.N,Net-(C4-Pad1)*%
X-1800000Y11600000D03*
X1524500Y11600000D03*
%TO.N,Net-(U4B--)*%
X-10300000Y-7500000D03*
X-12500000Y3360000D03*
X-5100000Y9000000D03*
%TO.N,Net-(C7-Pad2)*%
X10700000Y1700000D03*
X7600000Y10300000D03*
%TO.N,GNDA*%
X4400000Y8200000D03*
X6600000Y-8300000D03*
D15*
X-15000000Y-500000D03*
D14*
X6100000Y10100000D03*
X-1100000Y-7500000D03*
X4800000Y-3800000D03*
X-1850000Y9300000D03*
X3700000Y9800000D03*
D15*
X5750000Y-13750000D03*
D14*
X-900000Y-1800000D03*
X10300000Y-7000000D03*
X5500000Y-3800000D03*
X2000000Y-3900000D03*
D15*
X-15000000Y2000000D03*
D14*
X-7300000Y11000000D03*
D15*
X-11200000Y7400000D03*
X-14750000Y3500000D03*
D14*
X7700000Y4800000D03*
X-7300000Y11700000D03*
X-4900000Y12600000D03*
X-4200000Y12600000D03*
X-900000Y-3200000D03*
X8900000Y-7400000D03*
X-11440000Y1270000D03*
X3700000Y8800000D03*
X-900000Y-2500000D03*
D15*
X5750000Y-12000000D03*
X-11250000Y3750000D03*
D14*
X9600000Y-7000000D03*
D15*
X-11200000Y6400000D03*
D14*
X14000000Y6300000D03*
D15*
X6250000Y-9500000D03*
X5500000Y-8750000D03*
D14*
X8200000Y-7400000D03*
%TO.N,VPOT1*%
X-11400000Y-7400000D03*
X10432122Y9532122D03*
%TO.N,Net-(R19B0-Pad2)*%
X-3900000Y-500000D03*
X-2700000Y4700000D03*
%TO.N,VCC*%
X14100000Y-1000000D03*
D15*
%TO.N,+6V*%
X11160000Y-5790000D03*
D14*
X-200000Y900000D03*
%TO.N,O{slash}P1*%
X-3600000Y10000000D03*
%TO.N,VMID*%
X4683131Y1607845D03*
X-5300000Y-10000000D03*
X-2811376Y-668563D03*
%TO.N,VCE*%
X-1700000Y-9600000D03*
X3800000Y-1099500D03*
%TD*%
D16*
%TO.N,Net-(SN1-CE)*%
X4900000Y-4900000D02*
X6010408Y-6010408D01*
X-125000Y-4900000D02*
X4900000Y-4900000D01*
X-625000Y-5400000D02*
X-125000Y-4900000D01*
%TO.N,Net-(C1-Pad2)*%
X-5100000Y4900000D02*
X-5100000Y-3800000D01*
X-3500000Y6500000D02*
X-5100000Y4900000D01*
X-5100000Y-3700000D02*
X-5100000Y-3800000D01*
X-5200000Y-3800000D02*
X-5100000Y-3700000D01*
X-5100000Y-3800000D02*
X-5200000Y-3800000D01*
X-2400000Y6500000D02*
X-3500000Y6500000D01*
%TO.N,Net-(SN1-RE)*%
X10000000Y1025500D02*
X12200000Y-1174500D01*
X6010408Y6010408D02*
X8789592Y6010408D01*
X10000000Y4800000D02*
X10000000Y1025500D01*
X8789592Y6010408D02*
X10000000Y4800000D01*
%TO.N,Net-(C4-Pad1)*%
X-1800000Y11600000D02*
X1524500Y11600000D01*
%TO.N,Net-(U4B--)*%
X-9600000Y9000000D02*
X-5100000Y9000000D01*
X-12500000Y-2188731D02*
X-12500000Y6100000D01*
X-10300000Y-7500000D02*
G75*
G02*
X-12500012Y-2188731I5311300J5311300D01*
G01*
X-12500000Y6100000D02*
G75*
G02*
X-9600000Y9000000I2900000J0D01*
G01*
%TO.N,Net-(C7-Pad2)*%
X10700000Y7200000D02*
X7600000Y10300000D01*
X10700000Y1700000D02*
X10700000Y7200000D01*
%TO.N,VPOT1*%
X10432122Y9532122D02*
X6170331Y13793912D01*
X-12334315Y8865686D02*
X-8900000Y12300000D01*
X-12380760Y8819240D02*
X-12334315Y8865686D01*
X-13300000Y-2812995D02*
X-13300000Y6600000D01*
X3500001Y14900000D02*
X-3627208Y14900000D01*
X-8900000Y12300000D02*
X-8189950Y13010050D01*
X-11400000Y-7400000D02*
G75*
G02*
X-13299998Y-2812995I4587000J4587000D01*
G01*
X-13300000Y6600000D02*
G75*
G02*
X-12380765Y8819245I3138500J0D01*
G01*
X6170331Y13793912D02*
G75*
G03*
X3500001Y14900005I-2670331J-2670312D01*
G01*
X-8189950Y13010050D02*
G75*
G02*
X-3627208Y14900003I4562750J-4562750D01*
G01*
%TO.N,Net-(R19B0-Pad2)*%
X-3400000Y4700000D02*
X-2700000Y4700000D01*
X-3900000Y4200000D02*
X-3400000Y4700000D01*
X-3900000Y-500000D02*
X-3900000Y4200000D01*
D17*
%TO.N,VCC*%
X-775000Y7000000D02*
X-775000Y8725000D01*
X-950000Y5187500D02*
X-950000Y6825000D01*
D16*
X5400000Y13500000D02*
X3000000Y13500000D01*
X11400000Y1700000D02*
X11400000Y7500000D01*
D17*
X1750000Y9250000D02*
X3000000Y10500000D01*
X-950000Y6825000D02*
X-775000Y7000000D01*
D16*
X11400000Y7500000D02*
X5400000Y13500000D01*
D17*
X-775000Y8725000D02*
X-250000Y9250000D01*
X3000000Y10500000D02*
X3000000Y13500000D01*
X-250000Y9250000D02*
X1750000Y9250000D01*
D16*
X14100000Y-1000000D02*
X11400000Y1700000D01*
%TO.N,+6V*%
X11160000Y-5790000D02*
X11160000Y-4280000D01*
X10350000Y-3470000D02*
X7260000Y-3470000D01*
X11160000Y-4280000D02*
X10350000Y-3470000D01*
X7260000Y-3470000D02*
X2890000Y900000D01*
X2890000Y900000D02*
X-200000Y900000D01*
%TO.N,O{slash}P1*%
X-3600000Y10900000D02*
X-1000000Y13500000D01*
X-3600000Y10000000D02*
X-3600000Y10900000D01*
D17*
%TO.N,TEMP*%
X11000000Y-2250000D02*
X12500000Y-3750000D01*
X7500000Y-2250000D02*
X11000000Y-2250000D01*
X3312500Y5187500D02*
X6000000Y2500000D01*
X12500000Y-3750000D02*
X12500000Y-8000000D01*
X12500000Y-8000000D02*
X9750000Y-10750000D01*
X9750000Y-10750000D02*
X0Y-10750000D01*
X0Y-10750000D02*
X-1000000Y-11750000D01*
X-1000000Y-11750000D02*
X-1000000Y-13500000D01*
X6000000Y-750000D02*
X7500000Y-2250000D01*
X950000Y5187500D02*
X3312500Y5187500D01*
X6000000Y2500000D02*
X6000000Y-750000D01*
D16*
%TO.N,VMID*%
X-1000000Y1600000D02*
X-2800000Y-200000D01*
X-2800000Y-657187D02*
X-2811376Y-668563D01*
X4675286Y1600000D02*
X-1000000Y1600000D01*
X4683131Y1607845D02*
X4675286Y1600000D01*
X-2800000Y-9150000D02*
X-3650000Y-10000000D01*
X-3650000Y-10000000D02*
X-5300000Y-10000000D01*
X-2800000Y-200000D02*
X-2800000Y-657187D01*
X-2811376Y-668563D02*
X-2800000Y-679939D01*
X-2800000Y-679939D02*
X-2800000Y-9150000D01*
%TO.N,VCE*%
X-1700000Y-9600000D02*
X-1900000Y-9400000D01*
X-1900000Y-1200000D02*
X-600000Y100000D01*
X-600000Y100000D02*
X2700000Y100000D01*
X3800000Y-1000000D02*
X3800000Y-1099500D01*
X2700000Y100000D02*
X3800000Y-1000000D01*
X-1900000Y-9400000D02*
X-1900000Y-1200000D01*
%TD*%
%TA.AperFunction,Conductor*%
%TO.N,GNDA*%
G36*
X6199382Y14751225D02*
G01*
X6205298Y14749061D01*
X6247767Y14732270D01*
X6249092Y14731735D01*
X6251531Y14730736D01*
X6253931Y14729752D01*
X6256730Y14728564D01*
X6261643Y14726405D01*
X6262960Y14725815D01*
X6979065Y14400240D01*
X6980447Y14399601D01*
X6985222Y14397357D01*
X6988004Y14396007D01*
X6992626Y14393693D01*
X6993940Y14393025D01*
X7450746Y14156996D01*
X7692900Y14031877D01*
X7694270Y14031158D01*
X7698840Y14028724D01*
X7701587Y14027216D01*
X7706114Y14024656D01*
X7707437Y14023898D01*
X8218227Y13726595D01*
X8387316Y13628177D01*
X8388656Y13627385D01*
X8393127Y13624707D01*
X8395756Y13623088D01*
X8400192Y13620277D01*
X8401432Y13619480D01*
X9060626Y13190123D01*
X9061926Y13189264D01*
X9066227Y13186385D01*
X9068756Y13184647D01*
X9073107Y13181574D01*
X9074306Y13180715D01*
X9711121Y12718821D01*
X9712365Y12717907D01*
X9716494Y12714833D01*
X9718987Y12712928D01*
X9723063Y12709730D01*
X9724271Y12708770D01*
X10337085Y12215520D01*
X10338290Y12214537D01*
X10342302Y12211224D01*
X10344677Y12209213D01*
X10348597Y12205807D01*
X10349766Y12204778D01*
X10937034Y11681419D01*
X10938190Y11680375D01*
X10942037Y11676859D01*
X10944308Y11674731D01*
X10948038Y11671146D01*
X10949153Y11670061D01*
X11509440Y11117872D01*
X11510557Y11116757D01*
X11514203Y11113071D01*
X11516337Y11110859D01*
X11519912Y11107061D01*
X11520983Y11105909D01*
X11779574Y10824108D01*
X12052841Y10526315D01*
X12053845Y10525207D01*
X12057347Y10521294D01*
X12059402Y10518938D01*
X12062738Y10515015D01*
X12063730Y10513834D01*
X12565897Y9908205D01*
X12566821Y9907076D01*
X12570136Y9902976D01*
X12572046Y9900551D01*
X12575243Y9896384D01*
X12576168Y9895162D01*
X12871285Y9500500D01*
X13009778Y9315291D01*
X13047194Y9265255D01*
X13048125Y9263993D01*
X13051228Y9259732D01*
X13053007Y9257225D01*
X13055999Y9252894D01*
X13056847Y9251648D01*
X13495722Y8598822D01*
X13496590Y8597514D01*
X13499439Y8593158D01*
X13501098Y8590551D01*
X13503831Y8586136D01*
X13504646Y8584800D01*
X13910196Y7910795D01*
X13910982Y7909470D01*
X13913624Y7904953D01*
X13915139Y7902288D01*
X13917687Y7897668D01*
X13918420Y7896317D01*
X14289617Y7202849D01*
X14290346Y7201468D01*
X14292782Y7196776D01*
X14294171Y7194017D01*
X14296440Y7189367D01*
X14297121Y7187948D01*
X14626770Y6490024D01*
X14633080Y6476666D01*
X14633729Y6475270D01*
X14635894Y6470535D01*
X14637170Y6467647D01*
X14639228Y6462825D01*
X14639819Y6461416D01*
X14939635Y5734242D01*
X14940222Y5732792D01*
X14942164Y5727908D01*
X14943277Y5725004D01*
X14945063Y5720162D01*
X14945591Y5718703D01*
X15208565Y4977324D01*
X15209077Y4975852D01*
X15210761Y4970908D01*
X15211726Y4967953D01*
X15213270Y4963018D01*
X15213726Y4961529D01*
X15439179Y4207850D01*
X15439616Y4206353D01*
X15441038Y4201372D01*
X15441849Y4198391D01*
X15443162Y4193316D01*
X15443547Y4191788D01*
X15630870Y3427845D01*
X15631232Y3426330D01*
X15632413Y3421238D01*
X15633079Y3418190D01*
X15634128Y3413087D01*
X15634430Y3411569D01*
X15783181Y2639203D01*
X15783466Y2637676D01*
X15784399Y2632482D01*
X15784912Y2629401D01*
X15785689Y2624347D01*
X15785915Y2622816D01*
X15895750Y1843756D01*
X15895959Y1842204D01*
X15896609Y1837131D01*
X15896964Y1834053D01*
X15897495Y1828888D01*
X15897645Y1827334D01*
X15968240Y1043817D01*
X15968370Y1042268D01*
X15968770Y1037105D01*
X15968971Y1034006D01*
X15969240Y1028865D01*
X15969312Y1027302D01*
X16000504Y241158D01*
X16000555Y239602D01*
X16000693Y234511D01*
X16000739Y231410D01*
X16000750Y226153D01*
X16000743Y224586D01*
X15992447Y-561997D01*
X15992422Y-563523D01*
X15992304Y-568685D01*
X15992191Y-571836D01*
X15991938Y-577072D01*
X15991854Y-578615D01*
X15944104Y-1363724D01*
X15944000Y-1365279D01*
X15943615Y-1370521D01*
X15943349Y-1373610D01*
X15942842Y-1378750D01*
X15942679Y-1380307D01*
X15855581Y-2162125D01*
X15855397Y-2163680D01*
X15854751Y-2168881D01*
X15854336Y-2171910D01*
X15853699Y-2176174D01*
X15853566Y-2177063D01*
X15853326Y-2178595D01*
X15727114Y-2955005D01*
X15726855Y-2956541D01*
X15725946Y-2961721D01*
X15725373Y-2964761D01*
X15724361Y-2969788D01*
X15724041Y-2971329D01*
X15558999Y-3740561D01*
X15558662Y-3742083D01*
X15557526Y-3747071D01*
X15556799Y-3750091D01*
X15555512Y-3755153D01*
X15555118Y-3756662D01*
X15351710Y-4516548D01*
X15351298Y-4518050D01*
X15349887Y-4523068D01*
X15349012Y-4526036D01*
X15347484Y-4530992D01*
X15347011Y-4532492D01*
X15105722Y-5281229D01*
X15105235Y-5282708D01*
X15103579Y-5287634D01*
X15102546Y-5290582D01*
X15100786Y-5295411D01*
X15100249Y-5296858D01*
X14821685Y-6032569D01*
X14821118Y-6034037D01*
X14819218Y-6038869D01*
X14818052Y-6041731D01*
X14816020Y-6046543D01*
X14815403Y-6047977D01*
X14500288Y-6768742D01*
X14499649Y-6770179D01*
X14497521Y-6774883D01*
X14496208Y-6777693D01*
X14493953Y-6782363D01*
X14493270Y-6783755D01*
X14142368Y-7487834D01*
X14141658Y-7489235D01*
X14139283Y-7493853D01*
X14137831Y-7496592D01*
X14135331Y-7501168D01*
X14134577Y-7502527D01*
X13748809Y-8188070D01*
X13748034Y-8189427D01*
X13745448Y-8193890D01*
X13743853Y-8196566D01*
X13741142Y-8200985D01*
X13740325Y-8202299D01*
X13320586Y-8867708D01*
X13319751Y-8869013D01*
X13316946Y-8873339D01*
X13315212Y-8875940D01*
X13312307Y-8880182D01*
X13311424Y-8881455D01*
X12858850Y-9524924D01*
X12857955Y-9526180D01*
X12854915Y-9530390D01*
X12853043Y-9532914D01*
X12849897Y-9537046D01*
X12848956Y-9538266D01*
X12364713Y-10158152D01*
X12363749Y-10159370D01*
X12360457Y-10163477D01*
X12358476Y-10165886D01*
X12355177Y-10169796D01*
X12354169Y-10170976D01*
X11839388Y-10765830D01*
X11838351Y-10767012D01*
X11834869Y-10770934D01*
X11832797Y-10773210D01*
X11829290Y-10776968D01*
X11828209Y-10778113D01*
X11284215Y-11346396D01*
X11283122Y-11347523D01*
X11279503Y-11351209D01*
X11277295Y-11353403D01*
X11273532Y-11357048D01*
X11272417Y-11358114D01*
X10700631Y-11898349D01*
X10699503Y-11899402D01*
X10695705Y-11902902D01*
X10693371Y-11904998D01*
X10689474Y-11908411D01*
X10688306Y-11909422D01*
X10090080Y-12420326D01*
X10088906Y-12421316D01*
X10084934Y-12424624D01*
X10082500Y-12426599D01*
X10078435Y-12429814D01*
X10077210Y-12430771D01*
X9454145Y-12910977D01*
X9452910Y-12911916D01*
X9448734Y-12915052D01*
X9446217Y-12916894D01*
X9442021Y-12919883D01*
X9440749Y-12920776D01*
X8794329Y-13369142D01*
X8793042Y-13370024D01*
X8788754Y-13372919D01*
X8786151Y-13374629D01*
X8781786Y-13377419D01*
X8780474Y-13378245D01*
X8112375Y-13793605D01*
X8111042Y-13794422D01*
X8106639Y-13797083D01*
X8103973Y-13798650D01*
X8099390Y-13801266D01*
X8098023Y-13802035D01*
X7700433Y-14022361D01*
X7409964Y-14183325D01*
X7408733Y-14183997D01*
X7404055Y-14186513D01*
X7401327Y-14187936D01*
X7396652Y-14190301D01*
X7395262Y-14190993D01*
X6688952Y-14537267D01*
X6687575Y-14537931D01*
X6682878Y-14540162D01*
X6680051Y-14541461D01*
X6675231Y-14543602D01*
X6673823Y-14544217D01*
X5950146Y-14854991D01*
X5948890Y-14855522D01*
X5944628Y-14857297D01*
X5942110Y-14858314D01*
X5937954Y-14859939D01*
X5936676Y-14860431D01*
X5624312Y-14978604D01*
X5613660Y-14982092D01*
X5577696Y-14992094D01*
X5555670Y-14996121D01*
X5529149Y-14998525D01*
X5518503Y-14999491D01*
X5507308Y-14999998D01*
X-5507308Y-14999998D01*
X-5518505Y-14999491D01*
X-5524645Y-14998934D01*
X-5555670Y-14996121D01*
X-5577697Y-14992094D01*
X-5613661Y-14982092D01*
X-5624313Y-14978604D01*
X-5936677Y-14860431D01*
X-5937881Y-14859967D01*
X-5942127Y-14858307D01*
X-5944629Y-14857297D01*
X-5948891Y-14855522D01*
X-5950147Y-14854991D01*
X-6673824Y-14544217D01*
X-6675232Y-14543602D01*
X-6680052Y-14541461D01*
X-6682850Y-14540176D01*
X-6687635Y-14537903D01*
X-6688953Y-14537267D01*
X-7395263Y-14190993D01*
X-7396653Y-14190301D01*
X-7401328Y-14187936D01*
X-7404024Y-14186530D01*
X-7408800Y-14183961D01*
X-7409897Y-14183362D01*
X-8098042Y-13802025D01*
X-8099391Y-13801266D01*
X-8103974Y-13798650D01*
X-8106640Y-13797083D01*
X-8111043Y-13794422D01*
X-8112376Y-13793605D01*
X-8780475Y-13378245D01*
X-8781787Y-13377419D01*
X-8784115Y-13375931D01*
X-8786172Y-13374616D01*
X-8788720Y-13372942D01*
X-8793138Y-13369959D01*
X-8794330Y-13369142D01*
X-9440750Y-12920776D01*
X-9442022Y-12919883D01*
X-9446241Y-12916877D01*
X-9448735Y-12915052D01*
X-9452911Y-12911916D01*
X-9454146Y-12910977D01*
X-10054397Y-12448354D01*
X-10077228Y-12430757D01*
X-10078436Y-12429814D01*
X-10082501Y-12426599D01*
X-10084885Y-12424664D01*
X-10088907Y-12421316D01*
X-10090081Y-12420326D01*
X-10688307Y-11909422D01*
X-10689475Y-11908411D01*
X-10693372Y-11904998D01*
X-10695686Y-11902920D01*
X-10699518Y-11899389D01*
X-10700632Y-11898349D01*
X-11272418Y-11358114D01*
X-11273533Y-11357048D01*
X-11277296Y-11353403D01*
X-11279504Y-11351209D01*
X-11283123Y-11347523D01*
X-11284168Y-11346446D01*
X-11828210Y-10778113D01*
X-11829291Y-10776968D01*
X-11832798Y-10773210D01*
X-11834870Y-10770934D01*
X-11838352Y-10767012D01*
X-11839389Y-10765830D01*
X-12341996Y-10185044D01*
X-12354178Y-10170967D01*
X-12355132Y-10169850D01*
X-12358491Y-10165869D01*
X-12360458Y-10163477D01*
X-12363750Y-10159370D01*
X-12364714Y-10158152D01*
X-12466375Y-10028014D01*
X-12848981Y-9538235D01*
X-12849898Y-9537046D01*
X-12853069Y-9532881D01*
X-12854887Y-9530429D01*
X-12857956Y-9526180D01*
X-12858851Y-9524924D01*
X-13107274Y-9171716D01*
X-13311455Y-8881413D01*
X-13312264Y-8880245D01*
X-13315254Y-8875878D01*
X-13316898Y-8873413D01*
X-13319833Y-8868886D01*
X-13320539Y-8867784D01*
X-13740326Y-8202299D01*
X-13741143Y-8200985D01*
X-13743854Y-8196566D01*
X-13745449Y-8193890D01*
X-13748076Y-8189355D01*
X-13748774Y-8188134D01*
X-14134602Y-7502483D01*
X-14135332Y-7501168D01*
X-14137850Y-7496559D01*
X-14139284Y-7493853D01*
X-14141659Y-7489235D01*
X-14142333Y-7487906D01*
X-14493271Y-6783755D01*
X-14493954Y-6782363D01*
X-14496227Y-6777656D01*
X-14497522Y-6774883D01*
X-14499690Y-6770089D01*
X-14500289Y-6768742D01*
X-14815404Y-6047977D01*
X-14816021Y-6046543D01*
X-14818053Y-6041731D01*
X-14819219Y-6038869D01*
X-14821119Y-6034037D01*
X-14821656Y-6032647D01*
X-15093041Y-5315898D01*
X-15100250Y-5296858D01*
X-15100787Y-5295411D01*
X-15102547Y-5290582D01*
X-15103580Y-5287634D01*
X-15105272Y-5282599D01*
X-15105690Y-5281331D01*
X-15347049Y-4532377D01*
X-15347442Y-4531128D01*
X-15349029Y-4525985D01*
X-15349872Y-4523122D01*
X-15351310Y-4518010D01*
X-15351711Y-4516548D01*
X-15369258Y-4450995D01*
X-15555139Y-3756587D01*
X-15555486Y-3755259D01*
X-15556807Y-3750063D01*
X-15557527Y-3747071D01*
X-15558663Y-3742083D01*
X-15559000Y-3740561D01*
X-15560386Y-3734102D01*
X-15724068Y-2971207D01*
X-15724329Y-2969951D01*
X-15725380Y-2964730D01*
X-15725947Y-2961721D01*
X-15726870Y-2956461D01*
X-15727115Y-2955005D01*
X-15727959Y-2949815D01*
X-15853328Y-2178593D01*
X-15853548Y-2177185D01*
X-15854349Y-2171832D01*
X-15854752Y-2168881D01*
X-15855398Y-2163680D01*
X-15855567Y-2162252D01*
X-15942694Y-1380174D01*
X-15942833Y-1378852D01*
X-15943351Y-1373605D01*
X-15943616Y-1370521D01*
X-15944001Y-1365279D01*
X-15944097Y-1363849D01*
X-15991858Y-578564D01*
X-15991939Y-577072D01*
X-15992192Y-571836D01*
X-15992302Y-568784D01*
X-15992425Y-563424D01*
X-15992448Y-561997D01*
X-15994367Y-380038D01*
X-16000745Y224684D01*
X-16000751Y226063D01*
X-16000740Y231471D01*
X-16000695Y234445D01*
X-16000552Y239744D01*
X-16000509Y241046D01*
X-15969308Y1027427D01*
X-15969251Y1028669D01*
X-15968968Y1034077D01*
X-15968776Y1037032D01*
X-15968356Y1042458D01*
X-15968252Y1043695D01*
X-15897640Y1827401D01*
X-15897506Y1828786D01*
X-15896960Y1834098D01*
X-15896623Y1837024D01*
X-15895932Y1842414D01*
X-15895751Y1843756D01*
X-15785893Y2622974D01*
X-15785723Y2624125D01*
X-15784897Y2629501D01*
X-15784414Y2632402D01*
X-15783447Y2637784D01*
X-15783204Y2639087D01*
X-15634412Y3411668D01*
X-15634129Y3413087D01*
X-15633080Y3418190D01*
X-15632426Y3421188D01*
X-15631191Y3426507D01*
X-15630910Y3427683D01*
X-15443517Y4191912D01*
X-15443163Y4193316D01*
X-15441850Y4198391D01*
X-15441039Y4201372D01*
X-15439617Y4206353D01*
X-15439208Y4207758D01*
X-15213705Y4961604D01*
X-15213271Y4963018D01*
X-15211727Y4967953D01*
X-15210762Y4970908D01*
X-15209078Y4975852D01*
X-15208566Y4977324D01*
X-15177849Y5063920D01*
X-14945576Y5718748D01*
X-14945064Y5720162D01*
X-14943278Y5725004D01*
X-14942165Y5727908D01*
X-14940223Y5732792D01*
X-14939687Y5734117D01*
X-14639807Y6461450D01*
X-14639229Y6462825D01*
X-14638616Y6464264D01*
X-14637150Y6467695D01*
X-14635930Y6470458D01*
X-14633664Y6475413D01*
X-14633156Y6476507D01*
X-14297066Y7188067D01*
X-14296517Y7189210D01*
X-14294155Y7194053D01*
X-14292783Y7196776D01*
X-14290347Y7201468D01*
X-14289618Y7202849D01*
X-13918378Y7896398D01*
X-13917776Y7897508D01*
X-13915107Y7902347D01*
X-13913657Y7904898D01*
X-13910983Y7909470D01*
X-13910197Y7910795D01*
X-13533282Y8537210D01*
X-13481853Y8584502D01*
X-13413018Y8596483D01*
X-13348633Y8569348D01*
X-13309140Y8511710D01*
X-13307077Y8441871D01*
X-13317676Y8414825D01*
X-13455085Y8157749D01*
X-13455095Y8157728D01*
X-13591912Y7827420D01*
X-13695705Y7485257D01*
X-13695708Y7485246D01*
X-13765456Y7134593D01*
X-13783550Y6950874D01*
X-13798129Y6802840D01*
X-13800500Y6778769D01*
X-13800500Y-2887130D01*
X-13800497Y-2887175D01*
X-13800497Y-3062556D01*
X-13764891Y-3560401D01*
X-13693859Y-4054445D01*
X-13587767Y-4542144D01*
X-13587764Y-4542154D01*
X-13492209Y-4867583D01*
X-13447146Y-5021053D01*
X-13417287Y-5101109D01*
X-13272720Y-5488709D01*
X-13272718Y-5488712D01*
X-13065388Y-5942704D01*
X-13065384Y-5942711D01*
X-12891678Y-6260829D01*
X-12826179Y-6380782D01*
X-12668988Y-6625375D01*
X-12556336Y-6800666D01*
X-12556332Y-6800671D01*
X-12257227Y-7200231D01*
X-12015998Y-7478624D01*
X-11986973Y-7542180D01*
X-11986772Y-7543638D01*
X-11985044Y-7556762D01*
X-11924536Y-7702841D01*
X-11828282Y-7828282D01*
X-11702841Y-7924536D01*
X-11556762Y-7985044D01*
X-11478381Y-7995363D01*
X-11400001Y-8005682D01*
X-11400000Y-8005682D01*
X-11399999Y-8005682D01*
X-11347746Y-7998802D01*
X-11243238Y-7985044D01*
X-11097159Y-7924536D01*
X-10971718Y-7828282D01*
X-10971716Y-7828279D01*
X-10965271Y-7823334D01*
X-10963049Y-7826230D01*
X-10916721Y-7800600D01*
X-10847003Y-7805200D01*
X-10791319Y-7846132D01*
X-10728285Y-7928279D01*
X-10728284Y-7928280D01*
X-10728282Y-7928282D01*
X-10602841Y-8024536D01*
X-10456762Y-8085044D01*
X-10378381Y-8095363D01*
X-10300001Y-8105682D01*
X-10300000Y-8105682D01*
X-10299999Y-8105682D01*
X-10247746Y-8098802D01*
X-10143238Y-8085044D01*
X-9997159Y-8024536D01*
X-9871718Y-7928282D01*
X-9775464Y-7802841D01*
X-9714956Y-7656762D01*
X-9694318Y-7500000D01*
X-9694767Y-7496592D01*
X-9714956Y-7343239D01*
X-9714956Y-7343238D01*
X-9775464Y-7197159D01*
X-9871718Y-7071718D01*
X-9997159Y-6975464D01*
X-9997161Y-6975463D01*
X-10147698Y-6913108D01*
X-10191000Y-6883043D01*
X-10284105Y-6783041D01*
X-10289901Y-6776351D01*
X-10598359Y-6393579D01*
X-10603664Y-6386493D01*
X-10843037Y-6041731D01*
X-10884038Y-5982680D01*
X-10888822Y-5975236D01*
X-10976014Y-5828282D01*
X-11139682Y-5552435D01*
X-11143921Y-5544671D01*
X-11158687Y-5515172D01*
X-11363981Y-5105049D01*
X-11367642Y-5097032D01*
X-11555787Y-4642813D01*
X-11558873Y-4634537D01*
X-11585243Y-4555309D01*
X-11714122Y-4168092D01*
X-11716616Y-4159599D01*
X-11731103Y-4102839D01*
X-11838198Y-3683252D01*
X-11840071Y-3674645D01*
X-11927367Y-3190804D01*
X-11928624Y-3182051D01*
X-11940725Y-3069500D01*
X-11981174Y-2693278D01*
X-11981805Y-2684453D01*
X-11982114Y-2675816D01*
X-11999421Y-2191275D01*
X-11999500Y-2186849D01*
X-11999500Y5D01*
X-10180198Y5D01*
X-10180198Y-4D01*
X-10161433Y-250419D01*
X-10105555Y-495235D01*
X-10105552Y-495247D01*
X-10105550Y-495252D01*
X-10013806Y-729011D01*
X-10013807Y-729011D01*
X-9946030Y-846402D01*
X-9888245Y-946489D01*
X-9763805Y-1102531D01*
X-9731669Y-1142829D01*
X-9609416Y-1256262D01*
X-9547586Y-1313632D01*
X-9340099Y-1455094D01*
X-9340094Y-1455096D01*
X-9340093Y-1455097D01*
X-9340092Y-1455098D01*
X-9293903Y-1477341D01*
X-9113849Y-1564050D01*
X-9113848Y-1564050D01*
X-9113845Y-1564052D01*
X-8873879Y-1638072D01*
X-8625561Y-1675500D01*
X-8625560Y-1675500D01*
X-8374440Y-1675500D01*
X-8374439Y-1675500D01*
X-8126121Y-1638072D01*
X-7886155Y-1564052D01*
X-7659901Y-1455094D01*
X-7452414Y-1313632D01*
X-7302467Y-1174501D01*
X-7268332Y-1142829D01*
X-7268332Y-1142827D01*
X-7268328Y-1142825D01*
X-7111755Y-946489D01*
X-6986194Y-729011D01*
X-6894448Y-495247D01*
X-6838568Y-250421D01*
X-6824540Y-63231D01*
X-6819802Y-4D01*
X-6819802Y5D01*
X-6837768Y239744D01*
X-6838568Y250421D01*
X-6894448Y495247D01*
X-6986194Y729011D01*
X-6986195Y729012D01*
X-6986194Y729012D01*
X-7084915Y900000D01*
X-7111755Y946489D01*
X-7268328Y1142825D01*
X-7268329Y1142826D01*
X-7268332Y1142830D01*
X-7452414Y1313632D01*
X-7500501Y1346417D01*
X-7659901Y1455094D01*
X-7659905Y1455096D01*
X-7659908Y1455098D01*
X-7659909Y1455099D01*
X-7886153Y1564051D01*
X-7886151Y1564051D01*
X-8126113Y1638070D01*
X-8126117Y1638071D01*
X-8126121Y1638072D01*
X-8245568Y1656076D01*
X-8374434Y1675500D01*
X-8374439Y1675500D01*
X-8625561Y1675500D01*
X-8625567Y1675500D01*
X-8780208Y1652191D01*
X-8873879Y1638072D01*
X-8873882Y1638071D01*
X-8873888Y1638070D01*
X-9113849Y1564051D01*
X-9340092Y1455099D01*
X-9340093Y1455098D01*
X-9547587Y1313632D01*
X-9731669Y1142830D01*
X-9888245Y946489D01*
X-10013806Y729012D01*
X-10105550Y495253D01*
X-10105555Y495236D01*
X-10161433Y250420D01*
X-10180198Y5D01*
X-11999500Y5D01*
X-11999500Y2983743D01*
X-11979815Y3050782D01*
X-11976076Y3056100D01*
X-11975468Y3057155D01*
X-11975464Y3057159D01*
X-11914956Y3203238D01*
X-11894318Y3360000D01*
X-11902374Y3421188D01*
X-11914956Y3516761D01*
X-11914956Y3516762D01*
X-11975464Y3662841D01*
X-11975466Y3662844D01*
X-11979528Y3669881D01*
X-11977787Y3670887D01*
X-11999070Y3725943D01*
X-11999500Y3736258D01*
X-11999500Y6096250D01*
X-11999274Y6103737D01*
X-11998100Y6123149D01*
X-11982458Y6381745D01*
X-11980653Y6396606D01*
X-11967634Y6467647D01*
X-11931126Y6666871D01*
X-11927546Y6681392D01*
X-11845801Y6943719D01*
X-11840499Y6957702D01*
X-11727727Y7208272D01*
X-11720776Y7221517D01*
X-11578622Y7456667D01*
X-11570135Y7468963D01*
X-11400669Y7685271D01*
X-11390754Y7696462D01*
X-11196462Y7890754D01*
X-11185271Y7900669D01*
X-10968963Y8070135D01*
X-10956667Y8078622D01*
X-10721517Y8220776D01*
X-10708272Y8227727D01*
X-10457702Y8340499D01*
X-10443719Y8345801D01*
X-10181392Y8427546D01*
X-10166871Y8431126D01*
X-9896605Y8480654D01*
X-9881745Y8482458D01*
X-9603736Y8499274D01*
X-9596249Y8499500D01*
X-9534108Y8499500D01*
X-5476257Y8499500D01*
X-5409218Y8479815D01*
X-5403901Y8476076D01*
X-5402843Y8475466D01*
X-5402841Y8475464D01*
X-5402840Y8475464D01*
X-5402837Y8475462D01*
X-5329802Y8445210D01*
X-5256762Y8414956D01*
X-5178381Y8404637D01*
X-5100001Y8394318D01*
X-5100000Y8394318D01*
X-5099999Y8394318D01*
X-5047746Y8401198D01*
X-4943238Y8414956D01*
X-4797159Y8475464D01*
X-4671718Y8571718D01*
X-4575464Y8697159D01*
X-4514956Y8843238D01*
X-4496127Y8986260D01*
X-4494318Y8999999D01*
X-4494318Y9000002D01*
X-4514956Y9156761D01*
X-4514956Y9156762D01*
X-4575464Y9302841D01*
X-4671718Y9428282D01*
X-4797159Y9524536D01*
X-4815471Y9532121D01*
X-4943238Y9585044D01*
X-4943240Y9585045D01*
X-5099999Y9605682D01*
X-5100001Y9605682D01*
X-5256761Y9585045D01*
X-5256766Y9585043D01*
X-5402837Y9524539D01*
X-5409876Y9520474D01*
X-5410883Y9522217D01*
X-5465932Y9500931D01*
X-5476257Y9500500D01*
X-9534108Y9500500D01*
X-9600000Y9500500D01*
X-9778213Y9500500D01*
X-9955449Y9481872D01*
X-10132689Y9463244D01*
X-10132690Y9463243D01*
X-10481318Y9389141D01*
X-10481319Y9389140D01*
X-10820296Y9279000D01*
X-10917301Y9235811D01*
X-10986552Y9226527D01*
X-11049828Y9256156D01*
X-11087041Y9315291D01*
X-11086375Y9385158D01*
X-11055419Y9436770D01*
X-8602896Y11889292D01*
X-8602891Y11889296D01*
X-8592688Y11899500D01*
X-8592686Y11899500D01*
X-7837622Y12654565D01*
X-7834488Y12657590D01*
X-7528287Y12942675D01*
X-7521638Y12948436D01*
X-7197661Y13209512D01*
X-7190581Y13214811D01*
X-6848820Y13452101D01*
X-6841423Y13456855D01*
X-6483574Y13669176D01*
X-6475850Y13673393D01*
X-6198734Y13812108D01*
X-6103794Y13859631D01*
X-6095743Y13863308D01*
X-5711360Y14022526D01*
X-5703088Y14025610D01*
X-5308325Y14157001D01*
X-5299861Y14159486D01*
X-4896709Y14262384D01*
X-4888113Y14264255D01*
X-4478629Y14338134D01*
X-4469919Y14339387D01*
X-4056209Y14383866D01*
X-4047420Y14384494D01*
X-3911154Y14389361D01*
X-3843456Y14372082D01*
X-3795845Y14320945D01*
X-3783439Y14252185D01*
X-3810177Y14187634D01*
X-3810875Y14186776D01*
X-3887708Y14093154D01*
X-3887711Y14093150D01*
X-3922148Y14028724D01*
X-3986371Y13908572D01*
X-4047128Y13708285D01*
X-4067641Y13500000D01*
X-4047128Y13291716D01*
X-4047127Y13291714D01*
X-3986372Y13091431D01*
X-3906850Y12942656D01*
X-3887709Y12906847D01*
X-3754937Y12745064D01*
X-3593154Y12612292D01*
X-3593150Y12612289D01*
X-3408569Y12513628D01*
X-3208286Y12452873D01*
X-3056503Y12437924D01*
X-2991716Y12411763D01*
X-2951357Y12354729D01*
X-2948240Y12284929D01*
X-2980976Y12226840D01*
X-3924755Y11283060D01*
X-3924756Y11283060D01*
X-3924755Y11283059D01*
X-4000500Y11207314D01*
X-4066392Y11093188D01*
X-4100500Y10965892D01*
X-4100500Y10376258D01*
X-4120185Y10309219D01*
X-4123927Y10303897D01*
X-4124535Y10302844D01*
X-4185044Y10156763D01*
X-4185045Y10156761D01*
X-4205682Y10000002D01*
X-4205682Y9999999D01*
X-4185045Y9843240D01*
X-4185044Y9843238D01*
X-4130609Y9711819D01*
X-4124536Y9697159D01*
X-4028282Y9571718D01*
X-3902841Y9475464D01*
X-3756762Y9414956D01*
X-3678381Y9404637D01*
X-3600001Y9394318D01*
X-3600000Y9394318D01*
X-3599999Y9394318D01*
X-3547746Y9401198D01*
X-3443238Y9414956D01*
X-3297159Y9475464D01*
X-3171718Y9571718D01*
X-3075464Y9697159D01*
X-3014956Y9843238D01*
X-2994318Y10000000D01*
X-3014956Y10156762D01*
X-3075464Y10302841D01*
X-3075466Y10302844D01*
X-3079528Y10309881D01*
X-3077787Y10310887D01*
X-3099070Y10365943D01*
X-3099500Y10376258D01*
X-3099500Y10641325D01*
X-3079815Y10708364D01*
X-3063181Y10729006D01*
X-2797869Y10994318D01*
X-2498539Y11293649D01*
X-2437218Y11327132D01*
X-2367527Y11322148D01*
X-2312485Y11281454D01*
X-2228282Y11171718D01*
X-2102841Y11075464D01*
X-1956762Y11014956D01*
X-1878381Y11004637D01*
X-1800001Y10994318D01*
X-1800000Y10994318D01*
X-1799999Y10994318D01*
X-1747746Y11001198D01*
X-1643238Y11014956D01*
X-1497159Y11075464D01*
X-1497155Y11075468D01*
X-1490124Y11079526D01*
X-1489118Y11077784D01*
X-1434068Y11099069D01*
X-1423743Y11099500D01*
X1148243Y11099500D01*
X1215282Y11079815D01*
X1220599Y11076076D01*
X1221657Y11075466D01*
X1221659Y11075464D01*
X1221660Y11075464D01*
X1221663Y11075462D01*
X1294698Y11045210D01*
X1367738Y11014956D01*
X1446119Y11004637D01*
X1524499Y10994318D01*
X1524500Y10994318D01*
X1524501Y10994318D01*
X1576754Y11001198D01*
X1681262Y11014956D01*
X1827341Y11075464D01*
X1952782Y11171718D01*
X2049036Y11297159D01*
X2109544Y11443238D01*
X2130182Y11600000D01*
X2119600Y11680375D01*
X2109544Y11756761D01*
X2109544Y11756762D01*
X2049036Y11902841D01*
X1952782Y12028282D01*
X1827341Y12124536D01*
X1681262Y12185044D01*
X1681260Y12185045D01*
X1524501Y12205682D01*
X1524499Y12205682D01*
X1367739Y12185045D01*
X1367734Y12185043D01*
X1221663Y12124539D01*
X1214624Y12120474D01*
X1213617Y12122217D01*
X1158568Y12100931D01*
X1148243Y12100500D01*
X-1392325Y12100500D01*
X-1459364Y12120185D01*
X-1505119Y12172989D01*
X-1515063Y12242147D01*
X-1486038Y12305703D01*
X-1480021Y12312167D01*
X-1361370Y12430818D01*
X-1300051Y12464300D01*
X-1237699Y12461796D01*
X-1208286Y12452873D01*
X-1000000Y12432359D01*
X-791714Y12452873D01*
X-591431Y12513628D01*
X-406850Y12612289D01*
X-245064Y12745064D01*
X-112289Y12906850D01*
X-13628Y13091431D01*
X47127Y13291714D01*
X67641Y13500000D01*
X47127Y13708286D01*
X-13628Y13908569D01*
X-112289Y14093150D01*
X-112292Y14093154D01*
X-197381Y14196835D01*
X-224694Y14261145D01*
X-212903Y14330012D01*
X-165751Y14381573D01*
X-101528Y14399500D01*
X2101528Y14399500D01*
X2168567Y14379815D01*
X2214322Y14327011D01*
X2224266Y14257853D01*
X2197381Y14196835D01*
X2112291Y14093154D01*
X2013629Y13908572D01*
X1952872Y13708285D01*
X1932359Y13500000D01*
X1952872Y13291716D01*
X1952873Y13291714D01*
X2013628Y13091431D01*
X2093150Y12942656D01*
X2112291Y12906847D01*
X2245063Y12745064D01*
X2406848Y12612290D01*
X2406851Y12612288D01*
X2444927Y12591937D01*
X2508953Y12557714D01*
X2558797Y12508753D01*
X2574500Y12448356D01*
X2574500Y10727610D01*
X2554815Y10660571D01*
X2538181Y10639929D01*
X1610071Y9711819D01*
X1548748Y9678334D01*
X1522390Y9675500D01*
X-306018Y9675500D01*
X-414237Y9646503D01*
X-414240Y9646502D01*
X-511260Y9590487D01*
X-511266Y9590483D01*
X-1115483Y8986266D01*
X-1115487Y8986260D01*
X-1171502Y8889240D01*
X-1171503Y8889237D01*
X-1200500Y8781018D01*
X-1200500Y7818341D01*
X-1220185Y7751302D01*
X-1254399Y7719045D01*
X-1253218Y7717488D01*
X-1375079Y7625079D01*
X-1462364Y7509977D01*
X-1515360Y7375589D01*
X-1520935Y7329159D01*
X-1525500Y7291144D01*
X-1525500Y6708856D01*
X-1520175Y6664506D01*
X-1515360Y6624412D01*
X-1462364Y6490024D01*
X-1400697Y6408706D01*
X-1375873Y6343395D01*
X-1375500Y6333780D01*
X-1375500Y6194177D01*
X-1395185Y6127138D01*
X-1416383Y6104523D01*
X-1415580Y6103720D01*
X-1422149Y6097152D01*
X-1502793Y5987883D01*
X-1502794Y5987881D01*
X-1547647Y5859702D01*
X-1547647Y5859700D01*
X-1550500Y5829270D01*
X-1550500Y4545731D01*
X-1547647Y4515301D01*
X-1547647Y4515299D01*
X-1503874Y4390206D01*
X-1502793Y4387118D01*
X-1422150Y4277850D01*
X-1312882Y4197207D01*
X-1297395Y4191788D01*
X-1184701Y4152354D01*
X-1154270Y4149500D01*
X-1154266Y4149500D01*
X-745730Y4149500D01*
X-715301Y4152354D01*
X-715299Y4152354D01*
X-636822Y4179815D01*
X-587118Y4197207D01*
X-477850Y4277850D01*
X-397207Y4387118D01*
X-374431Y4452207D01*
X-352354Y4515299D01*
X-352354Y4515301D01*
X-349500Y4545731D01*
X-349500Y5829270D01*
X-352354Y5859700D01*
X-352354Y5859702D01*
X-393076Y5976076D01*
X-397207Y5987882D01*
X-448603Y6057521D01*
X-472572Y6123149D01*
X-457256Y6191319D01*
X-407516Y6240387D01*
X-394334Y6246502D01*
X-290025Y6287636D01*
X-174922Y6374922D01*
X-87636Y6490025D01*
X-34641Y6624410D01*
X-24500Y6708856D01*
X-24500Y7291144D01*
X-34641Y7375590D01*
X-87636Y7509975D01*
X-87637Y7509976D01*
X-87637Y7509977D01*
X-174922Y7625079D01*
X-296782Y7717488D01*
X-295274Y7719478D01*
X-335070Y7760285D01*
X-349500Y7818341D01*
X-349500Y8497390D01*
X-329815Y8564429D01*
X-313181Y8585071D01*
X-110071Y8788181D01*
X-48748Y8821666D01*
X-22390Y8824500D01*
X1806016Y8824500D01*
X1806018Y8824500D01*
X1914237Y8853497D01*
X2011263Y8909515D01*
X3340485Y10238737D01*
X3396503Y10335763D01*
X3425500Y10443982D01*
X3425500Y10556018D01*
X3425500Y12448356D01*
X3445185Y12515395D01*
X3491045Y12557714D01*
X3593150Y12612289D01*
X3754936Y12745064D01*
X3887711Y12906850D01*
X3902199Y12933956D01*
X3951161Y12983798D01*
X4011556Y12999500D01*
X5141324Y12999500D01*
X5208363Y12979815D01*
X5229005Y12963181D01*
X7237063Y10955123D01*
X7270548Y10893800D01*
X7265564Y10824108D01*
X7224869Y10769067D01*
X7171720Y10728285D01*
X7075463Y10602840D01*
X7014956Y10456763D01*
X7014955Y10456761D01*
X6994318Y10300002D01*
X6994318Y10299999D01*
X7014955Y10143240D01*
X7014956Y10143238D01*
X7074287Y9999999D01*
X7075464Y9997159D01*
X7171718Y9871718D01*
X7297159Y9775464D01*
X7443238Y9714956D01*
X7443243Y9714956D01*
X7451094Y9712851D01*
X7450572Y9710907D01*
X7504544Y9687033D01*
X7512148Y9680038D01*
X10163181Y7029005D01*
X10196666Y6967682D01*
X10199500Y6941324D01*
X10199500Y5607676D01*
X10179815Y5540637D01*
X10127011Y5494882D01*
X10057853Y5484938D01*
X9994297Y5513963D01*
X9987819Y5519995D01*
X9096908Y6410906D01*
X9096906Y6410908D01*
X9009365Y6461450D01*
X8982779Y6476800D01*
X8896197Y6499999D01*
X8855484Y6510908D01*
X8855483Y6510908D01*
X7698439Y6510908D01*
X7631400Y6530593D01*
X7585645Y6583397D01*
X7583011Y6589606D01*
X7524214Y6739419D01*
X7398653Y6956897D01*
X7242080Y7153233D01*
X7242079Y7153234D01*
X7242076Y7153238D01*
X7057994Y7324040D01*
X6982385Y7375589D01*
X6850507Y7465502D01*
X6850503Y7465504D01*
X6850500Y7465506D01*
X6850499Y7465507D01*
X6624255Y7574459D01*
X6624257Y7574459D01*
X6384295Y7648478D01*
X6384291Y7648479D01*
X6384287Y7648480D01*
X6264840Y7666484D01*
X6135974Y7685908D01*
X6135969Y7685908D01*
X5884847Y7685908D01*
X5884841Y7685908D01*
X5730200Y7662599D01*
X5636529Y7648480D01*
X5636526Y7648479D01*
X5636520Y7648478D01*
X5396559Y7574459D01*
X5170316Y7465507D01*
X5170315Y7465506D01*
X4962821Y7324040D01*
X4778739Y7153238D01*
X4622163Y6956897D01*
X4496602Y6739420D01*
X4404858Y6505661D01*
X4404853Y6505644D01*
X4348975Y6260828D01*
X4330210Y6010413D01*
X4330210Y6010404D01*
X4348975Y5759989D01*
X4404853Y5515173D01*
X4404856Y5515161D01*
X4486038Y5308314D01*
X4496602Y5281397D01*
X4496601Y5281397D01*
X4563000Y5166392D01*
X4622163Y5063919D01*
X4748625Y4905341D01*
X4778739Y4867579D01*
X4928087Y4729005D01*
X4962822Y4696776D01*
X5170309Y4555314D01*
X5170314Y4555312D01*
X5170315Y4555311D01*
X5170316Y4555310D01*
X5253397Y4515301D01*
X5396559Y4446358D01*
X5396560Y4446358D01*
X5396563Y4446356D01*
X5636529Y4372336D01*
X5884847Y4334908D01*
X5884848Y4334908D01*
X6135968Y4334908D01*
X6135969Y4334908D01*
X6384287Y4372336D01*
X6624253Y4446356D01*
X6803037Y4532455D01*
X6850499Y4555310D01*
X6850499Y4555311D01*
X6850507Y4555314D01*
X7057994Y4696776D01*
X7242080Y4867583D01*
X7398653Y5063919D01*
X7524214Y5281397D01*
X7583011Y5431211D01*
X7625827Y5486424D01*
X7691696Y5509725D01*
X7698439Y5509908D01*
X8530916Y5509908D01*
X8597955Y5490223D01*
X8618597Y5473589D01*
X9463181Y4629005D01*
X9496666Y4567682D01*
X9499500Y4541324D01*
X9499500Y1575676D01*
X9479815Y1508637D01*
X9427011Y1462882D01*
X9357853Y1452938D01*
X9321699Y1463956D01*
X9113847Y1564051D01*
X9113849Y1564051D01*
X8873887Y1638070D01*
X8873883Y1638071D01*
X8873879Y1638072D01*
X8754432Y1656076D01*
X8625566Y1675500D01*
X8625561Y1675500D01*
X8374439Y1675500D01*
X8374433Y1675500D01*
X8219792Y1652191D01*
X8126121Y1638072D01*
X8126118Y1638071D01*
X8126112Y1638070D01*
X7886151Y1564051D01*
X7659908Y1455099D01*
X7659907Y1455098D01*
X7452413Y1313632D01*
X7268331Y1142830D01*
X7111755Y946489D01*
X6986194Y729012D01*
X6894450Y495253D01*
X6894445Y495236D01*
X6838567Y250420D01*
X6819802Y5D01*
X6819802Y-4D01*
X6838567Y-250419D01*
X6894445Y-495235D01*
X6894448Y-495247D01*
X6894450Y-495252D01*
X6986194Y-729011D01*
X6986193Y-729011D01*
X7053970Y-846402D01*
X7068552Y-871660D01*
X7069093Y-872596D01*
X7085566Y-940496D01*
X7062714Y-1006523D01*
X7007792Y-1049714D01*
X6938239Y-1056355D01*
X6876136Y-1024339D01*
X6874025Y-1022277D01*
X6461819Y-610071D01*
X6428334Y-548748D01*
X6425500Y-522390D01*
X6425500Y2556016D01*
X6425500Y2556018D01*
X6396503Y2664237D01*
X6340485Y2761263D01*
X6261263Y2840485D01*
X3573763Y5527985D01*
X3476737Y5584003D01*
X3368518Y5613000D01*
X3368517Y5613000D01*
X1674500Y5613000D01*
X1607461Y5632685D01*
X1561706Y5685489D01*
X1550500Y5737000D01*
X1550500Y5829270D01*
X1547646Y5859700D01*
X1547646Y5859702D01*
X1506924Y5976076D01*
X1502793Y5987882D01*
X1422150Y6097150D01*
X1312882Y6177793D01*
X1312880Y6177794D01*
X1184700Y6222647D01*
X1154270Y6225500D01*
X1154266Y6225500D01*
X745734Y6225500D01*
X745730Y6225500D01*
X715300Y6222647D01*
X715298Y6222647D01*
X587119Y6177794D01*
X587117Y6177793D01*
X477850Y6097150D01*
X397207Y5987883D01*
X397206Y5987881D01*
X352353Y5859702D01*
X352353Y5859700D01*
X349500Y5829270D01*
X349500Y4545731D01*
X352353Y4515301D01*
X352353Y4515299D01*
X396126Y4390206D01*
X397207Y4387118D01*
X477850Y4277850D01*
X587118Y4197207D01*
X602605Y4191788D01*
X715299Y4152354D01*
X745730Y4149500D01*
X745734Y4149500D01*
X1154270Y4149500D01*
X1184699Y4152354D01*
X1184701Y4152354D01*
X1263178Y4179815D01*
X1312882Y4197207D01*
X1422150Y4277850D01*
X1502793Y4387118D01*
X1525569Y4452207D01*
X1547646Y4515299D01*
X1547646Y4515301D01*
X1550500Y4545731D01*
X1550500Y4638000D01*
X1570185Y4705039D01*
X1622989Y4750794D01*
X1674500Y4762000D01*
X3084890Y4762000D01*
X3151929Y4742315D01*
X3172571Y4725681D01*
X5538181Y2360071D01*
X5571666Y2298748D01*
X5574500Y2272390D01*
X5574500Y-777324D01*
X5554815Y-844363D01*
X5502011Y-890118D01*
X5432853Y-900062D01*
X5369297Y-871037D01*
X5362819Y-865005D01*
X3609995Y887819D01*
X3576510Y949142D01*
X3581494Y1018834D01*
X3623366Y1074767D01*
X3688830Y1099184D01*
X3697676Y1099500D01*
X4319021Y1099500D01*
X4372288Y1085228D01*
X4372782Y1086419D01*
X4380289Y1083310D01*
X4380290Y1083309D01*
X4526369Y1022801D01*
X4556502Y1018834D01*
X4683130Y1002163D01*
X4683131Y1002163D01*
X4683132Y1002163D01*
X4735385Y1009043D01*
X4839893Y1022801D01*
X4985972Y1083309D01*
X5111413Y1179563D01*
X5207667Y1305004D01*
X5268175Y1451083D01*
X5288813Y1607845D01*
X5268175Y1764607D01*
X5207667Y1910686D01*
X5111413Y2036127D01*
X4985972Y2132381D01*
X4839893Y2192889D01*
X4839891Y2192890D01*
X4683132Y2213527D01*
X4683130Y2213527D01*
X4526370Y2192890D01*
X4526365Y2192888D01*
X4380294Y2132384D01*
X4380285Y2132379D01*
X4372133Y2126123D01*
X4306964Y2100930D01*
X4296649Y2100500D01*
X-1065893Y2100500D01*
X-1162927Y2074500D01*
X-1162928Y2074501D01*
X-1193182Y2066394D01*
X-1193189Y2066391D01*
X-1307311Y2000502D01*
X-1307317Y2000498D01*
X-3187819Y119995D01*
X-3249142Y86510D01*
X-3318834Y91494D01*
X-3374767Y133366D01*
X-3399184Y198830D01*
X-3399500Y207676D01*
X-3399500Y3941324D01*
X-3379815Y4008363D01*
X-3363181Y4029005D01*
X-3229005Y4163181D01*
X-3167682Y4196666D01*
X-3141324Y4199500D01*
X-3076257Y4199500D01*
X-3009218Y4179815D01*
X-3003901Y4176076D01*
X-3002843Y4175466D01*
X-3002841Y4175464D01*
X-3002840Y4175464D01*
X-3002837Y4175462D01*
X-2929802Y4145210D01*
X-2856762Y4114956D01*
X-2778381Y4104637D01*
X-2700001Y4094318D01*
X-2700000Y4094318D01*
X-2699999Y4094318D01*
X-2647746Y4101198D01*
X-2543238Y4114956D01*
X-2397159Y4175464D01*
X-2271718Y4271718D01*
X-2175464Y4397159D01*
X-2114956Y4543238D01*
X-2094318Y4700000D01*
X-2098137Y4729005D01*
X-2114956Y4856761D01*
X-2114956Y4856762D01*
X-2175464Y5002841D01*
X-2271718Y5128282D01*
X-2397159Y5224536D01*
X-2543238Y5285044D01*
X-2543240Y5285045D01*
X-2699999Y5305682D01*
X-2700001Y5305682D01*
X-2856761Y5285045D01*
X-2856766Y5285043D01*
X-3002837Y5224539D01*
X-3009876Y5220474D01*
X-3010883Y5222217D01*
X-3065932Y5200931D01*
X-3076257Y5200500D01*
X-3465892Y5200500D01*
X-3593188Y5166392D01*
X-3707314Y5100500D01*
X-3707317Y5100498D01*
X-4300498Y4507317D01*
X-4300500Y4507314D01*
X-4368113Y4390206D01*
X-4418681Y4341991D01*
X-4487288Y4328769D01*
X-4552152Y4354737D01*
X-4592680Y4411651D01*
X-4599500Y4452207D01*
X-4599500Y4641324D01*
X-4579815Y4708363D01*
X-4563181Y4729005D01*
X-3329005Y5963181D01*
X-3267682Y5996666D01*
X-3241324Y5999500D01*
X-2776257Y5999500D01*
X-2709218Y5979815D01*
X-2703901Y5976076D01*
X-2702843Y5975466D01*
X-2702841Y5975464D01*
X-2702840Y5975464D01*
X-2702837Y5975462D01*
X-2629802Y5945210D01*
X-2556762Y5914956D01*
X-2478381Y5904637D01*
X-2400001Y5894318D01*
X-2400000Y5894318D01*
X-2399999Y5894318D01*
X-2347746Y5901198D01*
X-2243238Y5914956D01*
X-2097159Y5975464D01*
X-1971718Y6071718D01*
X-1875464Y6197159D01*
X-1814956Y6343238D01*
X-1794318Y6500000D01*
X-1798346Y6530593D01*
X-1814956Y6656761D01*
X-1814956Y6656762D01*
X-1875464Y6802841D01*
X-1971718Y6928282D01*
X-2097159Y7024536D01*
X-2243238Y7085044D01*
X-2243240Y7085045D01*
X-2399999Y7105682D01*
X-2400001Y7105682D01*
X-2556761Y7085045D01*
X-2556766Y7085043D01*
X-2702837Y7024539D01*
X-2709876Y7020474D01*
X-2710883Y7022217D01*
X-2765932Y7000931D01*
X-2776257Y7000500D01*
X-3565892Y7000500D01*
X-3693188Y6966392D01*
X-3807314Y6900500D01*
X-3807317Y6900498D01*
X-5500498Y5207317D01*
X-5500500Y5207314D01*
X-5566392Y5093188D01*
X-5600500Y4965892D01*
X-5600500Y-3423742D01*
X-5620185Y-3490781D01*
X-5623927Y-3496103D01*
X-5624535Y-3497156D01*
X-5685044Y-3643238D01*
X-5692574Y-3700424D01*
X-5695736Y-3716322D01*
X-5700500Y-3734102D01*
X-5700500Y-3752512D01*
X-5701561Y-3768697D01*
X-5705682Y-3799998D01*
X-5705682Y-3800000D01*
X-5701561Y-3831301D01*
X-5700500Y-3847487D01*
X-5700500Y-3865897D01*
X-5695738Y-3883668D01*
X-5692574Y-3899573D01*
X-5690643Y-3914235D01*
X-5685044Y-3956762D01*
X-5644585Y-4054439D01*
X-5631176Y-4086812D01*
X-5624536Y-4102841D01*
X-5528282Y-4228282D01*
X-5402841Y-4324536D01*
X-5256762Y-4385044D01*
X-5178381Y-4395363D01*
X-5100001Y-4405682D01*
X-5100000Y-4405682D01*
X-5099999Y-4405682D01*
X-5047746Y-4398802D01*
X-4943238Y-4385044D01*
X-4797159Y-4324536D01*
X-4671718Y-4228282D01*
X-4575464Y-4102841D01*
X-4514956Y-3956762D01*
X-4494318Y-3800000D01*
X-4497305Y-3777314D01*
X-4511199Y-3671774D01*
X-4514956Y-3643238D01*
X-4575464Y-3497159D01*
X-4575466Y-3497156D01*
X-4579528Y-3490119D01*
X-4577787Y-3489113D01*
X-4599070Y-3434057D01*
X-4599500Y-3423742D01*
X-4599500Y-940115D01*
X-4579815Y-873076D01*
X-4527011Y-827321D01*
X-4457853Y-817377D01*
X-4394297Y-846402D01*
X-4377127Y-864625D01*
X-4328282Y-928282D01*
X-4202841Y-1024536D01*
X-4056762Y-1085044D01*
X-3978381Y-1095363D01*
X-3900001Y-1105682D01*
X-3900000Y-1105682D01*
X-3899999Y-1105682D01*
X-3847746Y-1098802D01*
X-3743238Y-1085044D01*
X-3597159Y-1024536D01*
X-3505442Y-954159D01*
X-3440275Y-928965D01*
X-3371830Y-943003D01*
X-3331590Y-977037D01*
X-3326133Y-984149D01*
X-3300931Y-1049313D01*
X-3300500Y-1059645D01*
X-3300500Y-8891324D01*
X-3320185Y-8958363D01*
X-3336819Y-8979005D01*
X-3820995Y-9463181D01*
X-3882318Y-9496666D01*
X-3908676Y-9499500D01*
X-4923743Y-9499500D01*
X-4990782Y-9479815D01*
X-4996100Y-9476075D01*
X-4997164Y-9475461D01*
X-5143235Y-9414957D01*
X-5143240Y-9414955D01*
X-5299999Y-9394318D01*
X-5300001Y-9394318D01*
X-5456761Y-9414955D01*
X-5456763Y-9414956D01*
X-5602840Y-9475463D01*
X-5728282Y-9571718D01*
X-5824537Y-9697160D01*
X-5885044Y-9843237D01*
X-5885045Y-9843239D01*
X-5905682Y-9999998D01*
X-5905682Y-10000001D01*
X-5885045Y-10156760D01*
X-5885044Y-10156762D01*
X-5830609Y-10288181D01*
X-5824536Y-10302841D01*
X-5728282Y-10428282D01*
X-5602841Y-10524536D01*
X-5456762Y-10585044D01*
X-5378381Y-10595363D01*
X-5300001Y-10605682D01*
X-5300000Y-10605682D01*
X-5299999Y-10605682D01*
X-5247746Y-10598802D01*
X-5143238Y-10585044D01*
X-4997159Y-10524536D01*
X-4997155Y-10524532D01*
X-4990124Y-10520474D01*
X-4989118Y-10522216D01*
X-4934068Y-10500931D01*
X-4923743Y-10500500D01*
X-3584110Y-10500500D01*
X-3584108Y-10500500D01*
X-3456814Y-10466392D01*
X-3342686Y-10400500D01*
X-2542510Y-9600323D01*
X-2481189Y-9566840D01*
X-2411498Y-9571824D01*
X-2355564Y-9613696D01*
X-2347444Y-9626006D01*
X-2301245Y-9706025D01*
X-2285694Y-9751830D01*
X-2285045Y-9756759D01*
X-2285045Y-9756761D01*
X-2285044Y-9756762D01*
X-2224536Y-9902841D01*
X-2128282Y-10028282D01*
X-2002841Y-10124536D01*
X-1856762Y-10185044D01*
X-1778381Y-10195363D01*
X-1700001Y-10205682D01*
X-1700000Y-10205682D01*
X-1699999Y-10205682D01*
X-1647746Y-10198802D01*
X-1543238Y-10185044D01*
X-1397159Y-10124536D01*
X-1271718Y-10028282D01*
X-1175464Y-9902841D01*
X-1114956Y-9756762D01*
X-1094318Y-9600000D01*
X-1098684Y-9566840D01*
X-1111974Y-9465892D01*
X-1114956Y-9443238D01*
X-1175464Y-9297159D01*
X-1271718Y-9171718D01*
X-1271720Y-9171717D01*
X-1271720Y-9171716D01*
X-1350986Y-9110894D01*
X-1392189Y-9054466D01*
X-1399500Y-9012518D01*
X-1399500Y-5722764D01*
X-1379815Y-5655725D01*
X-1327011Y-5609970D01*
X-1257853Y-5600026D01*
X-1194297Y-5629051D01*
X-1160939Y-5675312D01*
X-1149538Y-5702838D01*
X-1149537Y-5702839D01*
X-1149536Y-5702841D01*
X-1053282Y-5828282D01*
X-927841Y-5924536D01*
X-781762Y-5985044D01*
X-703381Y-5995363D01*
X-625001Y-6005682D01*
X-625000Y-6005682D01*
X-624999Y-6005682D01*
X-572746Y-5998802D01*
X-468238Y-5985044D01*
X-322159Y-5924536D01*
X-196718Y-5828282D01*
X-100464Y-5702841D01*
X-39956Y-5556762D01*
X-39956Y-5556754D01*
X-37851Y-5548906D01*
X-35907Y-5549427D01*
X-12033Y-5495456D01*
X-5037Y-5487851D01*
X45997Y-5436818D01*
X107320Y-5403334D01*
X133677Y-5400500D01*
X4275535Y-5400500D01*
X4342574Y-5420185D01*
X4388329Y-5472989D01*
X4398273Y-5542147D01*
X4396426Y-5552093D01*
X4348975Y-5759988D01*
X4330210Y-6010403D01*
X4330210Y-6010412D01*
X4348975Y-6260827D01*
X4377658Y-6386493D01*
X4404856Y-6505655D01*
X4404858Y-6505660D01*
X4496602Y-6739419D01*
X4496601Y-6739419D01*
X4576204Y-6877293D01*
X4622163Y-6956897D01*
X4636970Y-6975464D01*
X4778739Y-7153237D01*
X4952515Y-7314477D01*
X4962822Y-7324040D01*
X5170309Y-7465502D01*
X5170314Y-7465504D01*
X5170315Y-7465505D01*
X5170316Y-7465506D01*
X5247192Y-7502527D01*
X5396559Y-7574458D01*
X5396560Y-7574458D01*
X5396563Y-7574460D01*
X5636529Y-7648480D01*
X5884847Y-7685908D01*
X5884848Y-7685908D01*
X6135968Y-7685908D01*
X6135969Y-7685908D01*
X6384287Y-7648480D01*
X6624253Y-7574460D01*
X6850507Y-7465502D01*
X7057994Y-7324040D01*
X7242080Y-7153233D01*
X7398653Y-6956897D01*
X7524214Y-6739419D01*
X7615960Y-6505655D01*
X7671840Y-6260829D01*
X7678095Y-6177355D01*
X7690606Y-6010412D01*
X7690606Y-6010403D01*
X7671840Y-5759988D01*
X7663344Y-5722764D01*
X7615960Y-5515161D01*
X7524214Y-5281397D01*
X7524213Y-5281396D01*
X7524214Y-5281396D01*
X7438386Y-5132739D01*
X7398653Y-5063919D01*
X7242080Y-4867583D01*
X7242079Y-4867582D01*
X7242076Y-4867578D01*
X7057994Y-4696776D01*
X6978871Y-4642831D01*
X6850507Y-4555314D01*
X6850503Y-4555312D01*
X6850500Y-4555310D01*
X6850499Y-4555309D01*
X6624255Y-4446357D01*
X6624257Y-4446357D01*
X6384295Y-4372338D01*
X6384291Y-4372337D01*
X6384287Y-4372336D01*
X6264840Y-4354332D01*
X6135974Y-4334908D01*
X6135969Y-4334908D01*
X5884847Y-4334908D01*
X5884841Y-4334908D01*
X5730200Y-4358217D01*
X5636529Y-4372336D01*
X5636526Y-4372337D01*
X5636520Y-4372338D01*
X5396560Y-4446357D01*
X5396557Y-4446358D01*
X5302237Y-4491780D01*
X5233295Y-4503131D01*
X5186437Y-4487446D01*
X5115268Y-4446357D01*
X5093187Y-4433608D01*
X5029539Y-4416554D01*
X4965892Y-4399500D01*
X-59107Y-4399500D01*
X-190892Y-4399500D01*
X-318188Y-4433608D01*
X-432314Y-4499500D01*
X-712854Y-4780039D01*
X-774177Y-4813523D01*
X-780585Y-4814640D01*
X-781759Y-4814954D01*
X-927840Y-4875463D01*
X-1053282Y-4971718D01*
X-1149537Y-5097160D01*
X-1160939Y-5124688D01*
X-1204780Y-5179092D01*
X-1271075Y-5201156D01*
X-1338774Y-5183876D01*
X-1386384Y-5132739D01*
X-1399500Y-5077235D01*
X-1399500Y-1458676D01*
X-1379815Y-1391637D01*
X-1363181Y-1370995D01*
X-429005Y-436819D01*
X-367682Y-403334D01*
X-341324Y-400500D01*
X2441324Y-400500D01*
X2508363Y-420185D01*
X2529005Y-436819D01*
X3164953Y-1072767D01*
X3198438Y-1134090D01*
X3200211Y-1144263D01*
X3214955Y-1256260D01*
X3214956Y-1256262D01*
X3265734Y-1378852D01*
X3275464Y-1402341D01*
X3371718Y-1527782D01*
X3497159Y-1624036D01*
X3643238Y-1684544D01*
X3721619Y-1694863D01*
X3799999Y-1705182D01*
X3800000Y-1705182D01*
X3800001Y-1705182D01*
X3852254Y-1698302D01*
X3956762Y-1684544D01*
X4102841Y-1624036D01*
X4228282Y-1527782D01*
X4307924Y-1423989D01*
X4364352Y-1382787D01*
X4434098Y-1378632D01*
X4493981Y-1411795D01*
X6855159Y-3772972D01*
X6855169Y-3772983D01*
X6952687Y-3870501D01*
X6975494Y-3883668D01*
X7028441Y-3914237D01*
X7049242Y-3926247D01*
X7066814Y-3936392D01*
X7194107Y-3970500D01*
X7194108Y-3970500D01*
X10091324Y-3970500D01*
X10158363Y-3990185D01*
X10179005Y-4006819D01*
X10623181Y-4450995D01*
X10656666Y-4512318D01*
X10659500Y-4538676D01*
X10659500Y-5243796D01*
X10639815Y-5310835D01*
X10636015Y-5315854D01*
X10636078Y-5315898D01*
X10535182Y-5462068D01*
X10474860Y-5621125D01*
X10474859Y-5621130D01*
X10454355Y-5790000D01*
X10474859Y-5958869D01*
X10474860Y-5958874D01*
X10535182Y-6117931D01*
X10597475Y-6208177D01*
X10631817Y-6257929D01*
X10737505Y-6351560D01*
X10759150Y-6370736D01*
X10909773Y-6449789D01*
X10909775Y-6449790D01*
X11074944Y-6490500D01*
X11245056Y-6490500D01*
X11410225Y-6449790D01*
X11517325Y-6393579D01*
X11560849Y-6370736D01*
X11560850Y-6370734D01*
X11560852Y-6370734D01*
X11688183Y-6257929D01*
X11784818Y-6117930D01*
X11834558Y-5986773D01*
X11876736Y-5931072D01*
X11942333Y-5907014D01*
X12010523Y-5922241D01*
X12059657Y-5971916D01*
X12074500Y-6030745D01*
X12074500Y-7772390D01*
X12054815Y-7839429D01*
X12038181Y-7860071D01*
X9610071Y-10288181D01*
X9548748Y-10321666D01*
X9522390Y-10324500D01*
X-56018Y-10324500D01*
X-164237Y-10353497D01*
X-164240Y-10353498D01*
X-261260Y-10409513D01*
X-261266Y-10409517D01*
X-1340483Y-11488734D01*
X-1340487Y-11488740D01*
X-1396502Y-11585760D01*
X-1396503Y-11585763D01*
X-1425500Y-11693982D01*
X-1425500Y-12448354D01*
X-1445185Y-12515393D01*
X-1491045Y-12557711D01*
X-1593152Y-12612289D01*
X-1754937Y-12745063D01*
X-1887709Y-12906846D01*
X-1890643Y-12912336D01*
X-1939607Y-12962179D01*
X-2007745Y-12977638D01*
X-2073424Y-12953805D01*
X-2109357Y-12912336D01*
X-2112289Y-12906850D01*
X-2112292Y-12906846D01*
X-2245064Y-12745063D01*
X-2406847Y-12612291D01*
X-2406849Y-12612290D01*
X-2406850Y-12612289D01*
X-2591431Y-12513628D01*
X-2691573Y-12483250D01*
X-2791716Y-12452872D01*
X-3000000Y-12432359D01*
X-3208285Y-12452872D01*
X-3408572Y-12513629D01*
X-3593154Y-12612291D01*
X-3754937Y-12745063D01*
X-3887709Y-12906846D01*
X-3986371Y-13091428D01*
X-4047128Y-13291715D01*
X-4067641Y-13500000D01*
X-4047128Y-13708284D01*
X-4018922Y-13801266D01*
X-3986372Y-13908569D01*
X-3890642Y-14087667D01*
X-3887709Y-14093153D01*
X-3754937Y-14254936D01*
X-3593154Y-14387708D01*
X-3593150Y-14387711D01*
X-3408569Y-14486372D01*
X-3208286Y-14547127D01*
X-3000000Y-14567641D01*
X-2791714Y-14547127D01*
X-2591431Y-14486372D01*
X-2406850Y-14387711D01*
X-2245064Y-14254936D01*
X-2112289Y-14093150D01*
X-2109358Y-14087665D01*
X-2060397Y-14037822D01*
X-1992260Y-14022361D01*
X-1926580Y-14046192D01*
X-1890643Y-14087664D01*
X-1887711Y-14093150D01*
X-1887709Y-14093153D01*
X-1754937Y-14254936D01*
X-1593154Y-14387708D01*
X-1593150Y-14387711D01*
X-1408569Y-14486372D01*
X-1208286Y-14547127D01*
X-1000000Y-14567641D01*
X-791714Y-14547127D01*
X-591431Y-14486372D01*
X-406850Y-14387711D01*
X-245064Y-14254936D01*
X-112289Y-14093150D01*
X-109358Y-14087665D01*
X-60397Y-14037822D01*
X7740Y-14022361D01*
X73420Y-14046192D01*
X109357Y-14087664D01*
X112289Y-14093150D01*
X112291Y-14093153D01*
X245063Y-14254936D01*
X406846Y-14387708D01*
X406850Y-14387711D01*
X591431Y-14486372D01*
X791714Y-14547127D01*
X1000000Y-14567641D01*
X1208286Y-14547127D01*
X1408569Y-14486372D01*
X1593150Y-14387711D01*
X1754936Y-14254936D01*
X1887711Y-14093150D01*
X1890642Y-14087665D01*
X1939603Y-14037822D01*
X2007740Y-14022361D01*
X2073420Y-14046192D01*
X2109357Y-14087664D01*
X2112289Y-14093150D01*
X2112291Y-14093153D01*
X2245063Y-14254936D01*
X2406846Y-14387708D01*
X2406850Y-14387711D01*
X2591431Y-14486372D01*
X2791714Y-14547127D01*
X3000000Y-14567641D01*
X3208286Y-14547127D01*
X3408569Y-14486372D01*
X3593150Y-14387711D01*
X3754936Y-14254936D01*
X3887711Y-14093150D01*
X3986372Y-13908569D01*
X4047127Y-13708286D01*
X4067641Y-13500000D01*
X4047127Y-13291714D01*
X3986372Y-13091431D01*
X3887711Y-12906850D01*
X3887708Y-12906846D01*
X3754936Y-12745063D01*
X3593153Y-12612291D01*
X3593151Y-12612290D01*
X3593150Y-12612289D01*
X3408569Y-12513628D01*
X3308427Y-12483250D01*
X3208284Y-12452872D01*
X3000000Y-12432359D01*
X2791715Y-12452872D01*
X2591428Y-12513629D01*
X2406846Y-12612291D01*
X2245063Y-12745063D01*
X2112291Y-12906846D01*
X2109357Y-12912336D01*
X2060393Y-12962179D01*
X1992255Y-12977638D01*
X1926576Y-12953805D01*
X1890643Y-12912336D01*
X1887711Y-12906850D01*
X1887708Y-12906846D01*
X1754936Y-12745063D01*
X1593153Y-12612291D01*
X1593151Y-12612290D01*
X1593150Y-12612289D01*
X1408569Y-12513628D01*
X1308427Y-12483250D01*
X1208284Y-12452872D01*
X1000000Y-12432359D01*
X791715Y-12452872D01*
X591428Y-12513629D01*
X406846Y-12612291D01*
X245063Y-12745063D01*
X112291Y-12906846D01*
X109357Y-12912336D01*
X60393Y-12962179D01*
X-7745Y-12977638D01*
X-73424Y-12953805D01*
X-109357Y-12912336D01*
X-112289Y-12906850D01*
X-112292Y-12906846D01*
X-245064Y-12745063D01*
X-406849Y-12612289D01*
X-508955Y-12557711D01*
X-558798Y-12508748D01*
X-574500Y-12448354D01*
X-574500Y-11977610D01*
X-554815Y-11910571D01*
X-538181Y-11889929D01*
X139929Y-11211819D01*
X201252Y-11178334D01*
X227610Y-11175500D01*
X9806016Y-11175500D01*
X9806018Y-11175500D01*
X9914237Y-11146503D01*
X10011263Y-11090485D01*
X12751053Y-8350692D01*
X12751058Y-8350689D01*
X12761261Y-8340485D01*
X12761263Y-8340485D01*
X12840485Y-8261263D01*
X12896503Y-8164237D01*
X12925500Y-8056018D01*
X12925500Y-3693982D01*
X12919549Y-3671774D01*
X12896503Y-3585763D01*
X12878128Y-3553937D01*
X12840485Y-3488737D01*
X12761263Y-3409515D01*
X12761262Y-3409514D01*
X12756932Y-3405184D01*
X12756921Y-3405174D01*
X11261265Y-1909517D01*
X11261264Y-1909516D01*
X11261263Y-1909515D01*
X11164237Y-1853497D01*
X11056018Y-1824500D01*
X11056017Y-1824500D01*
X9092179Y-1824500D01*
X9025140Y-1804815D01*
X8979385Y-1752011D01*
X8969441Y-1682853D01*
X8998466Y-1619297D01*
X9055628Y-1582009D01*
X9113845Y-1564052D01*
X9340099Y-1455094D01*
X9547586Y-1313632D01*
X9697533Y-1174501D01*
X9731668Y-1142829D01*
X9731668Y-1142827D01*
X9731672Y-1142825D01*
X9888245Y-946489D01*
X10013806Y-729011D01*
X10105552Y-495247D01*
X10161432Y-250421D01*
X10169583Y-141646D01*
X10194221Y-76266D01*
X10250296Y-34584D01*
X10320005Y-29836D01*
X10380917Y-63231D01*
X11580038Y-1262352D01*
X11613523Y-1323675D01*
X11614641Y-1330088D01*
X11614954Y-1331258D01*
X11675463Y-1477339D01*
X11675464Y-1477341D01*
X11771718Y-1602782D01*
X11897159Y-1699036D01*
X12043238Y-1759544D01*
X12121619Y-1769863D01*
X12199999Y-1780182D01*
X12200000Y-1780182D01*
X12200001Y-1780182D01*
X12252254Y-1773302D01*
X12356762Y-1759544D01*
X12502841Y-1699036D01*
X12628282Y-1602782D01*
X12724536Y-1477341D01*
X12785044Y-1331262D01*
X12805682Y-1174500D01*
X12803346Y-1156760D01*
X12785913Y-1024339D01*
X12785044Y-1017738D01*
X12724536Y-871659D01*
X12628282Y-746218D01*
X12502841Y-649964D01*
X12502839Y-649963D01*
X12356758Y-589454D01*
X12348911Y-587352D01*
X12349430Y-585411D01*
X12295443Y-561523D01*
X12287852Y-554538D01*
X10819408Y913906D01*
X10785923Y975229D01*
X10790907Y1044921D01*
X10832779Y1100854D01*
X10859623Y1116142D01*
X11002841Y1175464D01*
X11037587Y1202127D01*
X11102753Y1227321D01*
X11171198Y1213284D01*
X11200754Y1191432D01*
X13480038Y-1087852D01*
X13513523Y-1149175D01*
X13514641Y-1155588D01*
X13514954Y-1156758D01*
X13575463Y-1302839D01*
X13575464Y-1302841D01*
X13671718Y-1428282D01*
X13797159Y-1524536D01*
X13943238Y-1585044D01*
X14021619Y-1595363D01*
X14099999Y-1605682D01*
X14100000Y-1605682D01*
X14100001Y-1605682D01*
X14152254Y-1598802D01*
X14256762Y-1585044D01*
X14402841Y-1524536D01*
X14528282Y-1428282D01*
X14624536Y-1302841D01*
X14685044Y-1156762D01*
X14705682Y-1000000D01*
X14685044Y-843238D01*
X14624536Y-697159D01*
X14528282Y-571718D01*
X14402841Y-475464D01*
X14402839Y-475463D01*
X14256758Y-414954D01*
X14248911Y-412852D01*
X14249430Y-410911D01*
X14195443Y-387023D01*
X14187852Y-380038D01*
X11936819Y1870995D01*
X11903334Y1932318D01*
X11900500Y1958676D01*
X11900500Y7565890D01*
X11900500Y7565892D01*
X11866392Y7693186D01*
X11800500Y7807314D01*
X11707314Y7900500D01*
X10758707Y8849107D01*
X10725222Y8910430D01*
X10730206Y8980122D01*
X10770900Y9035162D01*
X10860404Y9103840D01*
X10956658Y9229281D01*
X11017166Y9375360D01*
X11036805Y9524536D01*
X11037804Y9532121D01*
X11037804Y9532124D01*
X11018555Y9678334D01*
X11017166Y9688884D01*
X10956658Y9834963D01*
X10860404Y9960404D01*
X10734963Y10056658D01*
X10734961Y10056659D01*
X10588880Y10117168D01*
X10581033Y10119270D01*
X10581552Y10121211D01*
X10527565Y10145099D01*
X10519974Y10152084D01*
X6472695Y14199362D01*
X6472638Y14199413D01*
X6392203Y14279848D01*
X6392195Y14279856D01*
X6392186Y14279864D01*
X6392179Y14279870D01*
X6273070Y14379815D01*
X6106103Y14519918D01*
X6106096Y14519923D01*
X6088628Y14532155D01*
X6045005Y14586732D01*
X6037813Y14656231D01*
X6069337Y14718585D01*
X6129567Y14753998D01*
X6199382Y14751225D01*
G37*
%TD.AperFunction*%
%TD*%
M02*
