%TF.GenerationSoftware,KiCad,Pcbnew,8.0.4*%
%TF.CreationDate,2024-09-03T19:15:54+05:30*%
%TF.ProjectId,OGS_B4_ISB1,4f47535f-4234-45f4-9953-42312e6b6963,rev?*%
%TF.SameCoordinates,Original*%
%TF.FileFunction,Copper,L1,Top*%
%TF.FilePolarity,Positive*%
%FSLAX46Y46*%
G04 Gerber Fmt 4.6, Leading zero omitted, Abs format (unit mm)*
G04 Created by KiCad (PCBNEW 8.0.4) date 2024-09-03 19:15:54*
%MOMM*%
%LPD*%
G01*
G04 APERTURE LIST*
G04 Aperture macros list*
%AMRoundRect*
0 Rectangle with rounded corners*
0 $1 Rounding radius*
0 $2 $3 $4 $5 $6 $7 $8 $9 X,Y pos of 4 corners*
0 Add a 4 corners polygon primitive as box body*
4,1,4,$2,$3,$4,$5,$6,$7,$8,$9,$2,$3,0*
0 Add four circle primitives for the rounded corners*
1,1,$1+$1,$2,$3*
1,1,$1+$1,$4,$5*
1,1,$1+$1,$6,$7*
1,1,$1+$1,$8,$9*
0 Add four rect primitives between the rounded corners*
20,1,$1+$1,$2,$3,$4,$5,0*
20,1,$1+$1,$4,$5,$6,$7,0*
20,1,$1+$1,$6,$7,$8,$9,0*
20,1,$1+$1,$8,$9,$2,$3,0*%
%AMFreePoly0*
4,1,19,0.550000,-0.750000,0.000000,-0.750000,0.000000,-0.744911,-0.071157,-0.744911,-0.207708,-0.704816,-0.327430,-0.627875,-0.420627,-0.520320,-0.479746,-0.390866,-0.500000,-0.250000,-0.500000,0.250000,-0.479746,0.390866,-0.420627,0.520320,-0.327430,0.627875,-0.207708,0.704816,-0.071157,0.744911,0.000000,0.744911,0.000000,0.750000,0.550000,0.750000,0.550000,-0.750000,0.550000,-0.750000,
$1*%
%AMFreePoly1*
4,1,19,0.000000,0.744911,0.071157,0.744911,0.207708,0.704816,0.327430,0.627875,0.420627,0.520320,0.479746,0.390866,0.500000,0.250000,0.500000,-0.250000,0.479746,-0.390866,0.420627,-0.520320,0.327430,-0.627875,0.207708,-0.704816,0.071157,-0.744911,0.000000,-0.744911,0.000000,-0.750000,-0.550000,-0.750000,-0.550000,0.750000,0.000000,0.750000,0.000000,0.744911,0.000000,0.744911,
$1*%
G04 Aperture macros list end*
%TA.AperFunction,SMDPad,CuDef*%
%ADD10RoundRect,0.225000X-0.225000X-0.250000X0.225000X-0.250000X0.225000X0.250000X-0.225000X0.250000X0*%
%TD*%
%TA.AperFunction,SMDPad,CuDef*%
%ADD11RoundRect,0.200000X-0.200000X-0.275000X0.200000X-0.275000X0.200000X0.275000X-0.200000X0.275000X0*%
%TD*%
%TA.AperFunction,SMDPad,CuDef*%
%ADD12RoundRect,0.200000X0.200000X0.275000X-0.200000X0.275000X-0.200000X-0.275000X0.200000X-0.275000X0*%
%TD*%
%TA.AperFunction,SMDPad,CuDef*%
%ADD13RoundRect,0.200000X-0.275000X0.200000X-0.275000X-0.200000X0.275000X-0.200000X0.275000X0.200000X0*%
%TD*%
%TA.AperFunction,SMDPad,CuDef*%
%ADD14RoundRect,0.200000X0.275000X-0.200000X0.275000X0.200000X-0.275000X0.200000X-0.275000X-0.200000X0*%
%TD*%
%TA.AperFunction,SMDPad,CuDef*%
%ADD15RoundRect,0.150000X0.150000X-0.825000X0.150000X0.825000X-0.150000X0.825000X-0.150000X-0.825000X0*%
%TD*%
%TA.AperFunction,SMDPad,CuDef*%
%ADD16RoundRect,0.225000X-0.250000X0.225000X-0.250000X-0.225000X0.250000X-0.225000X0.250000X0.225000X0*%
%TD*%
%TA.AperFunction,SMDPad,CuDef*%
%ADD17RoundRect,0.250000X0.925000X-0.412500X0.925000X0.412500X-0.925000X0.412500X-0.925000X-0.412500X0*%
%TD*%
%TA.AperFunction,SMDPad,CuDef*%
%ADD18FreePoly0,270.000000*%
%TD*%
%TA.AperFunction,SMDPad,CuDef*%
%ADD19R,1.500000X1.000000*%
%TD*%
%TA.AperFunction,SMDPad,CuDef*%
%ADD20FreePoly1,270.000000*%
%TD*%
%TA.AperFunction,SMDPad,CuDef*%
%ADD21RoundRect,0.150000X0.512500X0.150000X-0.512500X0.150000X-0.512500X-0.150000X0.512500X-0.150000X0*%
%TD*%
%TA.AperFunction,SMDPad,CuDef*%
%ADD22RoundRect,0.250000X0.400000X0.600000X-0.400000X0.600000X-0.400000X-0.600000X0.400000X-0.600000X0*%
%TD*%
%TA.AperFunction,SMDPad,CuDef*%
%ADD23RoundRect,0.150000X0.825000X0.150000X-0.825000X0.150000X-0.825000X-0.150000X0.825000X-0.150000X0*%
%TD*%
%TA.AperFunction,ComponentPad*%
%ADD24C,1.524000*%
%TD*%
%TA.AperFunction,ComponentPad*%
%ADD25C,2.750000*%
%TD*%
%TA.AperFunction,ViaPad*%
%ADD26C,0.600000*%
%TD*%
%TA.AperFunction,ViaPad*%
%ADD27C,0.800000*%
%TD*%
%TA.AperFunction,Conductor*%
%ADD28C,0.400000*%
%TD*%
G04 APERTURE END LIST*
D10*
%TO.P,C8,1*%
%TO.N,+6V*%
X1725000Y4800000D03*
%TO.P,C8,2*%
%TO.N,GNDA*%
X3275000Y4800000D03*
%TD*%
D11*
%TO.P,R24,1*%
%TO.N,Net-(C9-Pad1)*%
X-9925000Y6500000D03*
%TO.P,R24,2*%
%TO.N,O{slash}P2*%
X-8275000Y6500000D03*
%TD*%
%TO.P,R17,1*%
%TO.N,Net-(C7-Pad2)*%
X8775000Y4300000D03*
%TO.P,R17,2*%
%TO.N,Net-(R12-Pad2)*%
X10425000Y4300000D03*
%TD*%
D10*
%TO.P,C7,1*%
%TO.N,Net-(U4B--)*%
X8825000Y2500000D03*
%TO.P,C7,2*%
%TO.N,Net-(C7-Pad2)*%
X10375000Y2500000D03*
%TD*%
D12*
%TO.P,R10,1*%
%TO.N,O{slash}P2*%
X-8275000Y8200000D03*
%TO.P,R10,2*%
%TO.N,GNDA*%
X-9925000Y8200000D03*
%TD*%
D10*
%TO.P,C1,1*%
%TO.N,Net-(U1A--)*%
X-9675000Y-4700000D03*
%TO.P,C1,2*%
%TO.N,Net-(C1-Pad2)*%
X-8125000Y-4700000D03*
%TD*%
%TO.P,C11,1*%
%TO.N,GNDA*%
X-9875000Y10000000D03*
%TO.P,C11,2*%
%TO.N,O{slash}P2*%
X-8325000Y10000000D03*
%TD*%
D13*
%TO.P,R18,1*%
%TO.N,Net-(C1-Pad2)*%
X-6300000Y-4775000D03*
%TO.P,R18,2*%
%TO.N,Net-(R18-Pad2)*%
X-6300000Y-6425000D03*
%TD*%
D14*
%TO.P,R31,1*%
%TO.N,VPOT2*%
X-11500000Y-3025000D03*
%TO.P,R31,2*%
%TO.N,Net-(R19B0-Pad2)*%
X-11500000Y-1375000D03*
%TD*%
D15*
%TO.P,U1,1*%
%TO.N,Net-(C1-Pad2)*%
X-5405000Y-2475000D03*
%TO.P,U1,2,-*%
%TO.N,Net-(U1A--)*%
X-4135000Y-2475000D03*
%TO.P,U1,3,+*%
%TO.N,VMID*%
X-2865000Y-2475000D03*
%TO.P,U1,4,V-*%
%TO.N,GNDA*%
X-1595000Y-2475000D03*
%TO.P,U1,5,+*%
%TO.N,Net-(U1B-+)*%
X-1595000Y2475000D03*
%TO.P,U1,6,-*%
%TO.N,Net-(U1B--)*%
X-2865000Y2475000D03*
%TO.P,U1,7*%
%TO.N,Net-(C9-Pad1)*%
X-4135000Y2475000D03*
%TO.P,U1,8,V+*%
%TO.N,+6V*%
X-5405000Y2475000D03*
%TD*%
D10*
%TO.P,C12,1*%
%TO.N,GNDA*%
X1925000Y-4700000D03*
%TO.P,C12,2*%
%TO.N,Net-(LK1-B)*%
X3475000Y-4700000D03*
%TD*%
D11*
%TO.P,R5B0,1*%
%TO.N,Net-(LK1-B)*%
X-13025000Y-4700000D03*
%TO.P,R5B0,2*%
%TO.N,VPOT2*%
X-11375000Y-4700000D03*
%TD*%
D14*
%TO.P,R32,1*%
%TO.N,Net-(R19B0-Pad2)*%
X-13400000Y-3025000D03*
%TO.P,R32,2*%
%TO.N,Net-(R32-Pad2)*%
X-13400000Y-1375000D03*
%TD*%
%TO.P,R7A0,1*%
%TO.N,Net-(U2-+)*%
X9400000Y7775000D03*
%TO.P,R7A0,2*%
%TO.N,Net-(R29-Pad2)*%
X9400000Y9425000D03*
%TD*%
D16*
%TO.P,C3,1*%
%TO.N,GNDA*%
X-6300000Y11575000D03*
%TO.P,C3,2*%
%TO.N,O{slash}P1*%
X-6300000Y10025000D03*
%TD*%
D15*
%TO.P,U4,1*%
%TO.N,Net-(C6-Pad1)*%
X1345000Y-2475000D03*
%TO.P,U4,2,-*%
%TO.N,Net-(U4A--)*%
X2615000Y-2475000D03*
%TO.P,U4,3,+*%
%TO.N,VCE*%
X3885000Y-2475000D03*
%TO.P,U4,4,V-*%
%TO.N,GNDA*%
X5155000Y-2475000D03*
%TO.P,U4,5,+*%
%TO.N,VMID*%
X5155000Y2475000D03*
%TO.P,U4,6,-*%
%TO.N,Net-(U4B--)*%
X3885000Y2475000D03*
%TO.P,U4,7*%
%TO.N,Net-(C7-Pad2)*%
X2615000Y2475000D03*
%TO.P,U4,8,V+*%
%TO.N,+6V*%
X1345000Y2475000D03*
%TD*%
D12*
%TO.P,R23,1*%
%TO.N,Net-(U1B-+)*%
X25000Y8200000D03*
%TO.P,R23,2*%
%TO.N,GNDA*%
X-1625000Y8200000D03*
%TD*%
D14*
%TO.P,R1,1*%
%TO.N,O{slash}P1*%
X-4500000Y9975000D03*
%TO.P,R1,2*%
%TO.N,GNDA*%
X-4500000Y11625000D03*
%TD*%
D11*
%TO.P,R11,1*%
%TO.N,Net-(SN1-CE)*%
X-1325000Y-4700000D03*
%TO.P,R11,2*%
%TO.N,Net-(C6-Pad1)*%
X325000Y-4700000D03*
%TD*%
D10*
%TO.P,C4,1*%
%TO.N,Net-(C4-Pad1)*%
X-975000Y11700000D03*
%TO.P,C4,2*%
%TO.N,Net-(U2--)*%
X575000Y11700000D03*
%TD*%
D11*
%TO.P,R26,1*%
%TO.N,VOFF*%
X-4525000Y-4700000D03*
%TO.P,R26,2*%
%TO.N,Net-(U1A--)*%
X-2875000Y-4700000D03*
%TD*%
D12*
%TO.P,R4,1*%
%TO.N,Net-(U2--)*%
X625000Y10000000D03*
%TO.P,R4,2*%
%TO.N,O{slash}P1*%
X-1025000Y10000000D03*
%TD*%
D16*
%TO.P,C6,1*%
%TO.N,Net-(C6-Pad1)*%
X10400000Y-1925000D03*
%TO.P,C6,2*%
%TO.N,Net-(C6-Pad2)*%
X10400000Y-3475000D03*
%TD*%
D13*
%TO.P,R3,1*%
%TO.N,Net-(C4-Pad1)*%
X-2700000Y11625000D03*
%TO.P,R3,2*%
%TO.N,O{slash}P1*%
X-2700000Y9975000D03*
%TD*%
D14*
%TO.P,R22,1*%
%TO.N,Net-(U1B--)*%
X-6600000Y4775000D03*
%TO.P,R22,2*%
%TO.N,O{slash}P2*%
X-6600000Y6425000D03*
%TD*%
D11*
%TO.P,R9,1*%
%TO.N,Net-(U2-+)*%
X8775000Y6100000D03*
%TO.P,R9,2*%
%TO.N,GNDA*%
X10425000Y6100000D03*
%TD*%
D17*
%TO.P,C13,1*%
%TO.N,Net-(LK1-B)*%
X-3300000Y-11575000D03*
%TO.P,C13,2*%
%TO.N,Net-(LK1-A)*%
X-3300000Y-8500000D03*
%TD*%
D11*
%TO.P,R5A0,1*%
%TO.N,Net-(LK1-B)*%
X-13025000Y-6500000D03*
%TO.P,R5A0,2*%
%TO.N,VPOT1*%
X-11375000Y-6500000D03*
%TD*%
D12*
%TO.P,R25,1*%
%TO.N,VOFF*%
X-9075000Y-8400000D03*
%TO.P,R25,2*%
%TO.N,Net-(U4B--)*%
X-10725000Y-8400000D03*
%TD*%
D11*
%TO.P,R7,1*%
%TO.N,Net-(R32-Pad2)*%
X-13425000Y400000D03*
%TO.P,R7,2*%
%TO.N,GNDA*%
X-11775000Y400000D03*
%TD*%
%TO.P,R6,1*%
%TO.N,Net-(U1A--)*%
X-9725000Y-6500000D03*
%TO.P,R6,2*%
%TO.N,Net-(R18-Pad2)*%
X-8075000Y-6500000D03*
%TD*%
%TO.P,R19B0,1*%
%TO.N,Net-(U1B--)*%
X-4925000Y4800000D03*
%TO.P,R19B0,2*%
%TO.N,Net-(R19B0-Pad2)*%
X-3275000Y4800000D03*
%TD*%
D18*
%TO.P,LK1,1,A*%
%TO.N,Net-(LK1-A)*%
X-6800000Y-8700000D03*
D19*
%TO.P,LK1,2,C*%
%TO.N,VMID*%
X-6800000Y-10000000D03*
D20*
%TO.P,LK1,3,B*%
%TO.N,Net-(LK1-B)*%
X-6800000Y-11300000D03*
%TD*%
D10*
%TO.P,C2,1*%
%TO.N,+6V*%
X1725000Y6500000D03*
%TO.P,C2,2*%
%TO.N,GNDA*%
X3275000Y6500000D03*
%TD*%
D21*
%TO.P,U2,1,+*%
%TO.N,Net-(U2-+)*%
X4837500Y9450000D03*
%TO.P,U2,2,V-*%
%TO.N,GNDA*%
X4837500Y10400000D03*
%TO.P,U2,3,-*%
%TO.N,Net-(U2--)*%
X4837500Y11350000D03*
%TO.P,U2,4*%
%TO.N,Net-(C4-Pad1)*%
X2562500Y11350000D03*
%TO.P,U2,5,V+*%
%TO.N,+6V*%
X2562500Y9450000D03*
%TD*%
D12*
%TO.P,R21B0,1*%
%TO.N,Net-(U1B-+)*%
X25000Y6500000D03*
%TO.P,R21B0,2*%
%TO.N,Net-(C1-Pad2)*%
X-1625000Y6500000D03*
%TD*%
D10*
%TO.P,C9,1*%
%TO.N,Net-(C9-Pad1)*%
X-9875000Y4800000D03*
%TO.P,C9,2*%
%TO.N,Net-(U1B--)*%
X-8325000Y4800000D03*
%TD*%
D12*
%TO.P,R20,1*%
%TO.N,Net-(C1-Pad2)*%
X-3275000Y8200000D03*
%TO.P,R20,2*%
%TO.N,Net-(U4B--)*%
X-4925000Y8200000D03*
%TD*%
D13*
%TO.P,R29,1*%
%TO.N,VPOT1*%
X11200000Y9425000D03*
%TO.P,R29,2*%
%TO.N,Net-(R29-Pad2)*%
X11200000Y7775000D03*
%TD*%
D16*
%TO.P,C5,1*%
%TO.N,GNDA*%
X10500000Y-8125000D03*
%TO.P,C5,2*%
%TO.N,+6V*%
X10500000Y-9675000D03*
%TD*%
D13*
%TO.P,R13,1*%
%TO.N,Net-(SN1-RE)*%
X12200000Y-1875000D03*
%TO.P,R13,2*%
%TO.N,Net-(C6-Pad2)*%
X12200000Y-3525000D03*
%TD*%
D12*
%TO.P,R14,1*%
%TO.N,Net-(C6-Pad2)*%
X8625000Y-3500000D03*
%TO.P,R14,2*%
%TO.N,Net-(U4A--)*%
X6975000Y-3500000D03*
%TD*%
D11*
%TO.P,R28,1*%
%TO.N,VOFF*%
X-4525000Y-6500000D03*
%TO.P,R28,2*%
%TO.N,Net-(LK1-A)*%
X-2875000Y-6500000D03*
%TD*%
%TO.P,R27,1*%
%TO.N,Net-(LK1-B)*%
X-10725000Y-10200000D03*
%TO.P,R27,2*%
%TO.N,VOFF*%
X-9075000Y-10200000D03*
%TD*%
D12*
%TO.P,R21,1*%
%TO.N,Net-(LK1-B)*%
X3525000Y-6500000D03*
%TO.P,R21,2*%
%TO.N,Net-(LK1-A)*%
X1875000Y-6500000D03*
%TD*%
D11*
%TO.P,R6A0,1*%
%TO.N,Net-(U2--)*%
X6675000Y11200000D03*
%TO.P,R6A0,2*%
%TO.N,Net-(C7-Pad2)*%
X8325000Y11200000D03*
%TD*%
D18*
%TO.P,LK2,1,A*%
%TO.N,Net-(LK1-A)*%
X200000Y-8700000D03*
D19*
%TO.P,LK2,2,C*%
%TO.N,VCE*%
X200000Y-10000000D03*
D20*
%TO.P,LK2,3,B*%
%TO.N,Net-(LK1-B)*%
X200000Y-11300000D03*
%TD*%
D11*
%TO.P,R6B0,1*%
%TO.N,Net-(U2--)*%
X5175000Y13100000D03*
%TO.P,R6B0,2*%
%TO.N,Net-(R29-Pad2)*%
X6825000Y13100000D03*
%TD*%
D22*
%TO.P,D1,1,K*%
%TO.N,+6V*%
X12550000Y-5700000D03*
%TO.P,D1,2,A*%
%TO.N,GNDA*%
X9050000Y-5700000D03*
%TD*%
D14*
%TO.P,R12,1*%
%TO.N,Net-(U4B--)*%
X12200000Y375000D03*
%TO.P,R12,2*%
%TO.N,Net-(R12-Pad2)*%
X12200000Y2025000D03*
%TD*%
D13*
%TO.P,R30,1*%
%TO.N,Net-(R29-Pad2)*%
X12200000Y5325000D03*
%TO.P,R30,2*%
%TO.N,Net-(R30-Pad2)*%
X12200000Y3675000D03*
%TD*%
D12*
%TO.P,R21A0,1*%
%TO.N,Net-(U1B-+)*%
X25000Y4800000D03*
%TO.P,R21A0,2*%
%TO.N,Net-(R19B0-Pad2)*%
X-1625000Y4800000D03*
%TD*%
%TO.P,R19,1*%
%TO.N,Net-(LK1-A)*%
X325000Y-6500000D03*
%TO.P,R19,2*%
%TO.N,GNDA*%
X-1325000Y-6500000D03*
%TD*%
D14*
%TO.P,R8,1*%
%TO.N,Net-(R30-Pad2)*%
X14000000Y3675000D03*
%TO.P,R8,2*%
%TO.N,GNDA*%
X14000000Y5325000D03*
%TD*%
D11*
%TO.P,R19A0,1*%
%TO.N,Net-(U1B--)*%
X-4925000Y6500000D03*
%TO.P,R19A0,2*%
%TO.N,Net-(C1-Pad2)*%
X-3275000Y6500000D03*
%TD*%
D14*
%TO.P,R15,1*%
%TO.N,Net-(SN1-WE)*%
X14100000Y375000D03*
%TO.P,R15,2*%
%TO.N,Net-(U4B--)*%
X14100000Y2025000D03*
%TD*%
D13*
%TO.P,R16,1*%
%TO.N,VCC*%
X14100000Y-1875000D03*
%TO.P,R16,2*%
%TO.N,+6V*%
X14100000Y-3525000D03*
%TD*%
D14*
%TO.P,R7B0,1*%
%TO.N,Net-(U2-+)*%
X7600000Y7775000D03*
%TO.P,R7B0,2*%
%TO.N,Net-(C7-Pad2)*%
X7600000Y9425000D03*
%TD*%
D23*
%TO.P,U3,1,GND/NC*%
%TO.N,unconnected-(U3-GND{slash}NC-Pad1)*%
X8175000Y-12005000D03*
%TO.P,U3,2,Vin*%
%TO.N,+6V*%
X8175000Y-10735000D03*
%TO.P,U3,3,NC*%
%TO.N,unconnected-(U3-NC-Pad3)*%
X8175000Y-9465000D03*
%TO.P,U3,4,GND*%
%TO.N,GNDA*%
X8175000Y-8195000D03*
%TO.P,U3,5,Trim/NC*%
%TO.N,unconnected-(U3-Trim{slash}NC-Pad5)*%
X3225000Y-8195000D03*
%TO.P,U3,6,Vout*%
%TO.N,Net-(LK1-B)*%
X3225000Y-9465000D03*
%TO.P,U3,7,NC*%
%TO.N,unconnected-(U3-NC-Pad7)*%
X3225000Y-10735000D03*
%TO.P,U3,8,NC*%
%TO.N,unconnected-(U3-NC-Pad8)*%
X3225000Y-12005000D03*
%TD*%
D12*
%TO.P,R2,1*%
%TO.N,Net-(U1A--)*%
X-8075000Y-2900000D03*
%TO.P,R2,2*%
%TO.N,Net-(SN1-AE)*%
X-9725000Y-2900000D03*
%TD*%
D24*
%TO.P,U5,7,+5V*%
%TO.N,VCC*%
X3000000Y13500000D03*
%TO.P,U5,8,GND*%
%TO.N,GNDA*%
X1000000Y13500000D03*
%TO.P,U5,9,W*%
%TO.N,O{slash}P1*%
X-1000000Y13500000D03*
%TO.P,U5,10,A*%
%TO.N,O{slash}P2*%
X-3000000Y13500000D03*
%TO.P,U5,11,3V3*%
%TO.N,+3V3*%
X3000000Y-13500000D03*
%TO.P,U5,12,GND*%
%TO.N,GND*%
X1000000Y-13500000D03*
%TO.P,U5,13,SCL*%
%TO.N,TEMP*%
X-1000000Y-13500000D03*
%TO.P,U5,14,SDA*%
%TO.N,unconnected-(U5-SDA-Pad14)*%
X-3000000Y-13500000D03*
%TD*%
D25*
%TO.P,SN1,1,AE*%
%TO.N,Net-(SN1-AE)*%
X-8500000Y0D03*
%TO.P,SN1,2,RE*%
%TO.N,Net-(SN1-RE)*%
X6010408Y6010408D03*
%TO.P,SN1,3,WE*%
%TO.N,Net-(SN1-WE)*%
X8500000Y0D03*
%TO.P,SN1,4,CE*%
%TO.N,Net-(SN1-CE)*%
X6010408Y-6010408D03*
%TD*%
D26*
%TO.N,Net-(SN1-CE)*%
X-625000Y-5400000D03*
%TO.N,Net-(C1-Pad2)*%
X-5100000Y-3800000D03*
X-2400000Y6500000D03*
%TO.N,Net-(SN1-RE)*%
X12200000Y-1174500D03*
%TO.N,Net-(C4-Pad1)*%
X-1800000Y11600000D03*
X1524500Y11600000D03*
%TO.N,Net-(U4B--)*%
X-10300000Y-7500000D03*
X-12500000Y3360000D03*
X-5100000Y9000000D03*
%TO.N,Net-(C7-Pad2)*%
X10700000Y1700000D03*
X7600000Y10300000D03*
%TO.N,GNDA*%
X4400000Y8200000D03*
X6600000Y-8300000D03*
D27*
X-15000000Y-500000D03*
D26*
X6100000Y10100000D03*
X-1100000Y-7500000D03*
X4800000Y-3800000D03*
X-1850000Y9300000D03*
X3700000Y9800000D03*
D27*
X5750000Y-13750000D03*
D26*
X-900000Y-1800000D03*
X10300000Y-7000000D03*
X5500000Y-3800000D03*
X2000000Y-3900000D03*
D27*
X-15000000Y2000000D03*
D26*
X-7300000Y11000000D03*
D27*
X-11200000Y7400000D03*
X-14750000Y3500000D03*
D26*
X7700000Y4800000D03*
X-7300000Y11700000D03*
X-4900000Y12600000D03*
X-4200000Y12600000D03*
X-900000Y-3200000D03*
X8900000Y-7400000D03*
X-11440000Y1270000D03*
X3700000Y8800000D03*
X-900000Y-2500000D03*
D27*
X5750000Y-12000000D03*
X-11250000Y3750000D03*
D26*
X9600000Y-7000000D03*
D27*
X-11200000Y6400000D03*
D26*
X14000000Y6300000D03*
D27*
X6250000Y-9500000D03*
X5500000Y-8750000D03*
D26*
X8200000Y-7400000D03*
%TO.N,VPOT1*%
X-11400000Y-7400000D03*
X10432122Y9532122D03*
%TO.N,Net-(R19B0-Pad2)*%
X-3900000Y-500000D03*
X-2700000Y4700000D03*
%TO.N,VCC*%
X14100000Y-1000000D03*
D27*
%TO.N,+6V*%
X11160000Y-5790000D03*
D26*
X-200000Y900000D03*
%TO.N,O{slash}P1*%
X-3600000Y10000000D03*
%TO.N,VMID*%
X4683131Y1607845D03*
X-5300000Y-10000000D03*
X-2811376Y-668563D03*
%TO.N,VCE*%
X-1700000Y-9600000D03*
X3800000Y-1099500D03*
%TD*%
D28*
%TO.N,Net-(SN1-CE)*%
X-625000Y-5400000D02*
X-1325000Y-4700000D01*
%TO.N,Net-(C1-Pad2)*%
X-6300000Y-4775000D02*
X-6180000Y-4775000D01*
X-5405000Y-2475000D02*
X-5405000Y-4000000D01*
X-3275000Y8200000D02*
X-3275000Y6500000D01*
X-2400000Y6500000D02*
X-3275000Y6500000D01*
X-8125000Y-4700000D02*
X-6375000Y-4700000D01*
X-2400000Y6500000D02*
X-1625000Y6500000D01*
X-6180000Y-4775000D02*
X-5405000Y-4000000D01*
X-5405000Y-2475000D02*
X-5405000Y-3063665D01*
X-6375000Y-4700000D02*
X-6300000Y-4775000D01*
X-5405000Y-3063665D02*
G75*
G03*
X-5100010Y-3800010I1041300J-35D01*
G01*
%TO.N,Net-(SN1-RE)*%
X12200000Y-1174500D02*
X12200000Y-1875000D01*
%TO.N,Net-(C4-Pad1)*%
X-2700000Y11625000D02*
X-1825000Y11625000D01*
X-1800000Y11600000D02*
X-1775000Y11625000D01*
X-1775000Y11625000D02*
X-1050000Y11625000D01*
X-1825000Y11625000D02*
X-1800000Y11600000D01*
X-1050000Y11625000D02*
X-975000Y11700000D01*
X1524500Y11600000D02*
X2312500Y11600000D01*
X2312500Y11600000D02*
X2562500Y11350000D01*
%TO.N,Net-(U4A--)*%
X2615000Y-885000D02*
X3100000Y-400000D01*
X6975000Y-2275000D02*
X6975000Y-3500000D01*
X5100000Y-400000D02*
X6975000Y-2275000D01*
X3100000Y-400000D02*
X5100000Y-400000D01*
X2615000Y-2475000D02*
X2615000Y-885000D01*
%TO.N,Net-(SN1-WE)*%
X13250000Y-475000D02*
X8975000Y-475000D01*
X14100000Y375000D02*
X13250000Y-475000D01*
X8975000Y-475000D02*
X8500000Y0D01*
%TO.N,Net-(U4B--)*%
X6194975Y900000D02*
X7794975Y2500000D01*
X3400000Y900000D02*
X6194975Y900000D01*
X12450000Y375000D02*
X14100000Y2025000D01*
X-10725000Y-7925000D02*
X-10725000Y-8400000D01*
X12200000Y375000D02*
X11025000Y375000D01*
X-5100000Y9000000D02*
X-5100000Y8375000D01*
X-11940000Y2800000D02*
X-7300000Y2800000D01*
X3885000Y1385000D02*
X3400000Y900000D01*
X3885000Y2475000D02*
X3885000Y1385000D01*
X-5100000Y8375000D02*
X-4925000Y8200000D01*
X-6125000Y1625000D02*
X-6125000Y819122D01*
X7794975Y2500000D02*
X8825000Y2500000D01*
X1850000Y900000D02*
X3400000Y900000D01*
X-10300000Y-7500000D02*
X-10725000Y-7925000D01*
X8900000Y2500000D02*
X8825000Y2500000D01*
X11025000Y375000D02*
X8900000Y2500000D01*
X-7300000Y2800000D02*
X-6125000Y1625000D01*
X-5505878Y200000D02*
X1150000Y200000D01*
X-12500000Y3360000D02*
X-11940000Y2800000D01*
X12200000Y375000D02*
X12450000Y375000D01*
X1150000Y200000D02*
X1850000Y900000D01*
X-6125000Y819122D02*
X-5505878Y200000D01*
%TO.N,Net-(C6-Pad1)*%
X1345000Y-3055000D02*
X200000Y-4200000D01*
X1345000Y-2475000D02*
X1345000Y-655000D01*
X2300000Y300000D02*
X5300000Y300000D01*
X7732500Y-2132500D02*
X9900000Y-2132500D01*
X1345000Y-2475000D02*
X1345000Y-3055000D01*
X1345000Y-655000D02*
X2300000Y300000D01*
X5300000Y300000D02*
X7732500Y-2132500D01*
%TO.N,Net-(C6-Pad2)*%
X8625000Y-3500000D02*
X10375000Y-3500000D01*
X10400000Y-3475000D02*
X12150000Y-3475000D01*
X12150000Y-3475000D02*
X12200000Y-3525000D01*
X10375000Y-3500000D02*
X10400000Y-3475000D01*
%TO.N,VOFF*%
X-9100000Y-9700000D02*
X-9100000Y-8200000D01*
X-5300000Y-7300000D02*
X-5300000Y-7275000D01*
X-4525000Y-4700000D02*
X-4525000Y-6500000D01*
X-8300000Y-7400000D02*
X-5400000Y-7400000D01*
X-9100000Y-8200000D02*
X-8300000Y-7400000D01*
X-5400000Y-7400000D02*
X-5300000Y-7300000D01*
X-5300000Y-7275000D02*
X-4525000Y-6500000D01*
%TO.N,Net-(C7-Pad2)*%
X10700000Y2375000D02*
X8775000Y4300000D01*
X2615000Y3215000D02*
X3250000Y3850000D01*
X7600000Y10300000D02*
X7600000Y10475000D01*
X3250000Y3850000D02*
X8325000Y3850000D01*
X7600000Y9425000D02*
X7600000Y10300000D01*
X7600000Y10475000D02*
X8325000Y11200000D01*
X10700000Y1700000D02*
X10700000Y2375000D01*
X10700000Y1700000D02*
X10700000Y2175000D01*
X8325000Y3850000D02*
X8775000Y4300000D01*
X10700000Y2175000D02*
X10375000Y2500000D01*
X2615000Y2475000D02*
X2615000Y3215000D01*
%TO.N,Net-(C9-Pad1)*%
X-4945000Y3925000D02*
X-9100000Y3925000D01*
X-9100000Y3925000D02*
X-9925000Y4750000D01*
X-4135000Y3115000D02*
X-4945000Y3925000D01*
X-9925000Y4750000D02*
X-9925000Y6500000D01*
X-4135000Y2475000D02*
X-4135000Y3115000D01*
%TO.N,Net-(U1A--)*%
X-9675000Y-4700000D02*
X-9675000Y-6450000D01*
X-4500000Y-1100000D02*
X-4135000Y-1465000D01*
X-4135000Y-3065000D02*
X-2875000Y-4325000D01*
X-9675000Y-4500000D02*
X-8075000Y-2900000D01*
X-9675000Y-4700000D02*
X-9675000Y-4500000D01*
X-9675000Y-6450000D02*
X-9725000Y-6500000D01*
X-6500000Y-1100000D02*
X-4500000Y-1100000D01*
X-8075000Y-2675000D02*
X-6500000Y-1100000D01*
X-8075000Y-2900000D02*
X-8075000Y-2675000D01*
X-4135000Y-1465000D02*
X-4135000Y-2475000D01*
X-4135000Y-2475000D02*
X-4135000Y-3065000D01*
X-2875000Y-4325000D02*
X-2875000Y-4700000D01*
%TO.N,Net-(SN1-AE)*%
X-9725000Y-1225000D02*
X-8500000Y0D01*
X-9725000Y-2900000D02*
X-9725000Y-1225000D01*
%TO.N,Net-(U1B--)*%
X-4697500Y4526028D02*
X-4021472Y3850000D01*
X-3350000Y3850000D02*
X-2865000Y3365000D01*
X-4925000Y4800000D02*
X-4925000Y6500000D01*
X-4925000Y4800000D02*
X-6575000Y4800000D01*
X-6575000Y4800000D02*
X-6600000Y4775000D01*
X-6600000Y4775000D02*
X-8250000Y4775000D01*
X-4021472Y3850000D02*
X-3350000Y3850000D01*
X-2865000Y3365000D02*
X-2865000Y2475000D01*
%TO.N,Net-(U1B-+)*%
X-1595000Y2475000D02*
X-70000Y4000000D01*
X25000Y8200000D02*
X25000Y6500000D01*
X25000Y4025000D02*
X25000Y4800000D01*
X25000Y6500000D02*
X25000Y4800000D01*
X0Y4000000D02*
X25000Y4025000D01*
X-70000Y4000000D02*
X0Y4000000D01*
%TO.N,Net-(R29-Pad2)*%
X12200000Y6775000D02*
X12200000Y5325000D01*
X9550000Y9425000D02*
X11200000Y7775000D01*
X11200000Y7775000D02*
X12200000Y6775000D01*
X9400000Y9425000D02*
X9550000Y9425000D01*
X9400000Y11519239D02*
X9400000Y9425000D01*
X7819239Y13100000D02*
X9400000Y11519239D01*
X6825000Y13100000D02*
X7819239Y13100000D01*
%TO.N,VPOT2*%
X-11500000Y-3025000D02*
X-11500000Y-4575000D01*
X-11500000Y-4575000D02*
X-11375000Y-4700000D01*
%TO.N,Net-(R18-Pad2)*%
X-8075000Y-6500000D02*
X-6375000Y-6500000D01*
X-6375000Y-6500000D02*
X-6300000Y-6425000D01*
%TO.N,GNDA*%
X-1625000Y9075000D02*
X-1850000Y9300000D01*
X-1625000Y8200000D02*
X-1625000Y9075000D01*
%TO.N,Net-(R32-Pad2)*%
X-13425000Y-1350000D02*
X-13400000Y-1375000D01*
X-13425000Y400000D02*
X-13425000Y-1350000D01*
%TO.N,VPOT1*%
X-11400000Y-6525000D02*
X-11375000Y-6500000D01*
X11092878Y9532122D02*
X11200000Y9425000D01*
X-11400000Y-7400000D02*
X-11400000Y-6525000D01*
X10432122Y9532122D02*
X11092878Y9532122D01*
%TO.N,Net-(R30-Pad2)*%
X12200000Y3675000D02*
X14000000Y3675000D01*
%TO.N,Net-(R12-Pad2)*%
X12200000Y2200000D02*
X10425000Y3975000D01*
X10425000Y3975000D02*
X10425000Y4300000D01*
X12200000Y2025000D02*
X12200000Y2200000D01*
%TO.N,Net-(U2-+)*%
X7600000Y7775000D02*
X9400000Y7775000D01*
X8775000Y6100000D02*
X8775000Y7150000D01*
X8775000Y7150000D02*
X9400000Y7775000D01*
X7600000Y7775000D02*
X6512500Y7775000D01*
X6512500Y7775000D02*
X4837500Y9450000D01*
%TO.N,Net-(U2--)*%
X4800000Y12725000D02*
X4800000Y11387500D01*
X4837500Y11350000D02*
X6525000Y11350000D01*
X4800000Y11387500D02*
X4837500Y11350000D01*
X575000Y11700000D02*
X575000Y10050000D01*
X575000Y10050000D02*
X625000Y10000000D01*
X5175000Y13100000D02*
X4800000Y12725000D01*
X6525000Y11350000D02*
X6675000Y11200000D01*
X625000Y10000000D02*
X625000Y10500000D01*
X625000Y10500000D02*
X3400000Y10500000D01*
X3400000Y10500000D02*
X4250000Y11350000D01*
X4250000Y11350000D02*
X4837500Y11350000D01*
%TO.N,Net-(R19B0-Pad2)*%
X-10600000Y-475000D02*
X-11500000Y-1375000D01*
X-1797500Y4700000D02*
X-2700000Y4700000D01*
X-6725000Y1225000D02*
X-7600000Y2100000D01*
X-7600000Y2100000D02*
X-9700000Y2100000D01*
X-3900000Y-500000D02*
X-5800000Y-500000D01*
X-6725000Y425000D02*
X-6725000Y1225000D01*
X-13400000Y-3025000D02*
X-13150000Y-3025000D01*
X-10600000Y1200000D02*
X-10600000Y-475000D01*
X-5800000Y-500000D02*
X-6725000Y425000D01*
X-13150000Y-3025000D02*
X-11500000Y-1375000D01*
X-9700000Y2100000D02*
X-10600000Y1200000D01*
%TO.N,VCC*%
X14100000Y-1875000D02*
X14100000Y-1000000D01*
%TO.N,+6V*%
X1725000Y4800000D02*
X1725000Y6500000D01*
X1725000Y8612500D02*
X2562500Y9450000D01*
X12550000Y-5700000D02*
X14100000Y-4150000D01*
X-5405000Y2475000D02*
X-5405000Y1205000D01*
X10500000Y-9675000D02*
X12550000Y-7625000D01*
X800000Y900000D02*
X1345000Y1445000D01*
X1345000Y2475000D02*
X1345000Y4420000D01*
X1345000Y4420000D02*
X1725000Y4800000D01*
X1725000Y6500000D02*
X1725000Y8612500D01*
X12550000Y-7625000D02*
X12550000Y-5700000D01*
X-200000Y900000D02*
X800000Y900000D01*
X11160000Y-5790000D02*
X11250000Y-5700000D01*
X11250000Y-5700000D02*
X12550000Y-5700000D01*
X14100000Y-4150000D02*
X14100000Y-3525000D01*
X8175000Y-10735000D02*
X9440000Y-10735000D01*
X-5100000Y900000D02*
X-200000Y900000D01*
X1345000Y1445000D02*
X1345000Y2475000D01*
X9440000Y-10735000D02*
X10500000Y-9675000D01*
X-5405000Y1205000D02*
X-5100000Y900000D01*
%TO.N,Net-(LK1-B)*%
X3062500Y-7400000D02*
X2197500Y-7400000D01*
X200000Y-11300000D02*
X-3025000Y-11300000D01*
X1735000Y-9465000D02*
X1600000Y-9600000D01*
X1600000Y-10800000D02*
X1100000Y-11300000D01*
X-10725000Y-10200000D02*
X-13025000Y-7900000D01*
X3475000Y-6450000D02*
X3525000Y-6500000D01*
X3225000Y-9465000D02*
X1735000Y-9465000D01*
X-3025000Y-11300000D02*
X-3300000Y-11575000D01*
X3525000Y-6937500D02*
X3062500Y-7400000D01*
X3525000Y-6500000D02*
X3525000Y-6937500D01*
X-3575000Y-11300000D02*
X-3300000Y-11575000D01*
X3475000Y-4700000D02*
X3475000Y-6450000D01*
X-9625000Y-11300000D02*
X-6800000Y-11300000D01*
X-10725000Y-10200000D02*
X-9625000Y-11300000D01*
X-13025000Y-4700000D02*
X-13025000Y-6500000D01*
X-6800000Y-11300000D02*
X-3575000Y-11300000D01*
X-13025000Y-7900000D02*
X-13025000Y-6500000D01*
X2197500Y-7400000D02*
X1600000Y-7997500D01*
X1600000Y-7997500D02*
X1600000Y-10800000D01*
X1100000Y-11300000D02*
X200000Y-11300000D01*
%TO.N,Net-(LK1-A)*%
X-2902500Y-6500000D02*
X-2902500Y-8102500D01*
X97500Y-6500000D02*
X97500Y-8597500D01*
X-3500000Y-8700000D02*
X-3300000Y-8500000D01*
X200000Y-8700000D02*
X-3100000Y-8700000D01*
X-6800000Y-8700000D02*
X-3500000Y-8700000D01*
X-2902500Y-8102500D02*
X-3300000Y-8500000D01*
X-3100000Y-8700000D02*
X-3300000Y-8500000D01*
X97500Y-8597500D02*
X200000Y-8700000D01*
X1902500Y-6500000D02*
X97500Y-6500000D01*
%TO.N,O{slash}P1*%
X-3625000Y9975000D02*
X-4500000Y9975000D01*
X-2675000Y10000000D02*
X-2700000Y9975000D01*
X-6250000Y9975000D02*
X-6300000Y10025000D01*
X-1025000Y10000000D02*
X-2675000Y10000000D01*
X-3600000Y10000000D02*
X-3625000Y9975000D01*
X-2700000Y9975000D02*
X-3575000Y9975000D01*
X-3575000Y9975000D02*
X-3600000Y10000000D01*
X-4500000Y9975000D02*
X-6250000Y9975000D01*
%TO.N,O{slash}P2*%
X-6700000Y13500000D02*
X-3000000Y13500000D01*
X-8200000Y6425000D02*
X-8275000Y6500000D01*
X-8275000Y6500000D02*
X-8275000Y10050000D01*
X-6600000Y6425000D02*
X-8200000Y6425000D01*
X-8325000Y11875000D02*
X-6700000Y13500000D01*
X-8325000Y10000000D02*
X-8325000Y11875000D01*
%TO.N,VMID*%
X4683131Y1607845D02*
X4683131Y2003131D01*
X-2811376Y-668563D02*
X-2865000Y-722187D01*
X-6800000Y-10000000D02*
X-5300000Y-10000000D01*
X-2865000Y-722187D02*
X-2865000Y-2475000D01*
X4683131Y2003131D02*
X5155000Y2475000D01*
%TO.N,VCE*%
X3885000Y-1184500D02*
X3885000Y-2475000D01*
X-1700000Y-9600000D02*
X-1300000Y-10000000D01*
X-1300000Y-10000000D02*
X200000Y-10000000D01*
X3800000Y-1099500D02*
X3885000Y-1184500D01*
%TD*%
%TA.AperFunction,Conductor*%
%TO.N,GNDA*%
G36*
X-3619298Y-4288962D02*
G01*
X-3612820Y-4294994D01*
X-3611819Y-4295995D01*
X-3578334Y-4357318D01*
X-3575500Y-4383676D01*
X-3575500Y-5022870D01*
X-3575499Y-5022876D01*
X-3569092Y-5082483D01*
X-3518798Y-5217328D01*
X-3518794Y-5217335D01*
X-3432548Y-5332544D01*
X-3432545Y-5332547D01*
X-3317336Y-5418793D01*
X-3317329Y-5418797D01*
X-3272382Y-5435561D01*
X-3182483Y-5469091D01*
X-3122873Y-5475500D01*
X-2627128Y-5475499D01*
X-2567517Y-5469091D01*
X-2432669Y-5418796D01*
X-2317454Y-5332546D01*
X-2231204Y-5217331D01*
X-2224553Y-5199500D01*
X-2216182Y-5177056D01*
X-2174312Y-5121122D01*
X-2108847Y-5096704D01*
X-2040574Y-5111555D01*
X-1991168Y-5160960D01*
X-1983818Y-5177056D01*
X-1968799Y-5217326D01*
X-1968794Y-5217335D01*
X-1882548Y-5332544D01*
X-1882545Y-5332547D01*
X-1767336Y-5418793D01*
X-1767329Y-5418797D01*
X-1722382Y-5435561D01*
X-1632483Y-5469091D01*
X-1572873Y-5475500D01*
X-1326559Y-5475499D01*
X-1259520Y-5495183D01*
X-1213765Y-5547987D01*
X-1211998Y-5552046D01*
X-1199237Y-5582853D01*
X-1149536Y-5702841D01*
X-1053282Y-5828282D01*
X-927841Y-5924536D01*
X-781762Y-5985044D01*
X-740456Y-5990482D01*
X-625001Y-6005682D01*
X-625000Y-6005682D01*
X-509549Y-5990482D01*
X-440517Y-6001247D01*
X-388261Y-6047627D01*
X-369375Y-6114896D01*
X-370076Y-6126674D01*
X-375499Y-6177123D01*
X-375500Y-6177130D01*
X-375500Y-6315149D01*
X-379725Y-6347241D01*
X-403000Y-6434106D01*
X-403000Y-7899235D01*
X-422685Y-7966274D01*
X-459960Y-8003550D01*
X-523154Y-8044162D01*
X-523170Y-8044173D01*
X-631816Y-8138315D01*
X-635476Y-8142539D01*
X-647751Y-8156704D01*
X-706526Y-8194477D01*
X-741461Y-8199500D01*
X-1700500Y-8199500D01*
X-1767539Y-8179815D01*
X-1813294Y-8127011D01*
X-1824500Y-8075500D01*
X-1824500Y-8044403D01*
X-1824500Y-8044398D01*
X-1835123Y-7955936D01*
X-1890639Y-7815158D01*
X-1890640Y-7815157D01*
X-1890640Y-7815156D01*
X-1982078Y-7694577D01*
X-2102657Y-7603139D01*
X-2175664Y-7574349D01*
X-2243436Y-7547623D01*
X-2243438Y-7547622D01*
X-2243442Y-7547621D01*
X-2292785Y-7541696D01*
X-2356999Y-7514159D01*
X-2396131Y-7456277D01*
X-2402000Y-7418581D01*
X-2402000Y-7257906D01*
X-2382315Y-7190867D01*
X-2352314Y-7158641D01*
X-2317454Y-7132546D01*
X-2231204Y-7017331D01*
X-2180909Y-6882483D01*
X-2174500Y-6822873D01*
X-2174501Y-6177128D01*
X-2180909Y-6117517D01*
X-2181887Y-6114896D01*
X-2231203Y-5982671D01*
X-2231207Y-5982664D01*
X-2317453Y-5867455D01*
X-2317456Y-5867452D01*
X-2432665Y-5781206D01*
X-2432672Y-5781202D01*
X-2567514Y-5730910D01*
X-2567515Y-5730909D01*
X-2567517Y-5730909D01*
X-2627127Y-5724500D01*
X-2627137Y-5724500D01*
X-3122871Y-5724500D01*
X-3122877Y-5724501D01*
X-3182484Y-5730908D01*
X-3317329Y-5781202D01*
X-3317336Y-5781206D01*
X-3432545Y-5867452D01*
X-3432548Y-5867455D01*
X-3518794Y-5982664D01*
X-3518798Y-5982671D01*
X-3569090Y-6117513D01*
X-3569091Y-6117517D01*
X-3575500Y-6177127D01*
X-3575500Y-6177134D01*
X-3575500Y-6177135D01*
X-3575500Y-6822870D01*
X-3575499Y-6822876D01*
X-3569092Y-6882483D01*
X-3518798Y-7017328D01*
X-3518797Y-7017330D01*
X-3479142Y-7070302D01*
X-3471458Y-7080567D01*
X-3427733Y-7138975D01*
X-3403316Y-7204439D01*
X-3403000Y-7213286D01*
X-3403000Y-7413000D01*
X-3422685Y-7480039D01*
X-3475489Y-7525794D01*
X-3527000Y-7537000D01*
X-4268102Y-7537000D01*
X-4307147Y-7541688D01*
X-4356562Y-7547622D01*
X-4497344Y-7603139D01*
X-4617923Y-7694577D01*
X-4709361Y-7815156D01*
X-4764878Y-7955938D01*
X-4770595Y-8003550D01*
X-4775500Y-8044398D01*
X-4775500Y-8044403D01*
X-4775500Y-8075500D01*
X-4795185Y-8142539D01*
X-4847989Y-8188294D01*
X-4899500Y-8199500D01*
X-5858539Y-8199500D01*
X-5925578Y-8179815D01*
X-5952249Y-8156706D01*
X-5968181Y-8138319D01*
X-5991387Y-8118211D01*
X-6029160Y-8059436D01*
X-6029161Y-7989567D01*
X-5991387Y-7930788D01*
X-5927832Y-7901762D01*
X-5910183Y-7900500D01*
X-5334110Y-7900500D01*
X-5334108Y-7900500D01*
X-5206814Y-7866392D01*
X-5092686Y-7800500D01*
X-4899501Y-7607315D01*
X-4893545Y-7597000D01*
X-4873509Y-7562294D01*
X-4853810Y-7536622D01*
X-4629005Y-7311818D01*
X-4567682Y-7278333D01*
X-4541324Y-7275499D01*
X-4277129Y-7275499D01*
X-4277128Y-7275499D01*
X-4217517Y-7269091D01*
X-4082669Y-7218796D01*
X-3967454Y-7132546D01*
X-3881204Y-7017331D01*
X-3830909Y-6882483D01*
X-3824500Y-6822873D01*
X-3824501Y-6177128D01*
X-3830909Y-6117517D01*
X-3831887Y-6114896D01*
X-3881203Y-5982671D01*
X-3881207Y-5982664D01*
X-3967452Y-5867457D01*
X-3967454Y-5867454D01*
X-3967458Y-5867451D01*
X-3967460Y-5867449D01*
X-3974813Y-5861944D01*
X-4016683Y-5806009D01*
X-4024500Y-5762679D01*
X-4024500Y-5437320D01*
X-4004815Y-5370281D01*
X-3974808Y-5338051D01*
X-3967454Y-5332546D01*
X-3881204Y-5217331D01*
X-3830909Y-5082483D01*
X-3824500Y-5022873D01*
X-3824501Y-4382674D01*
X-3804817Y-4315636D01*
X-3752013Y-4269881D01*
X-3682854Y-4259937D01*
X-3619298Y-4288962D01*
G37*
%TD.AperFunction*%
%TA.AperFunction,Conductor*%
G36*
X3337083Y-3522036D02*
G01*
X3349763Y-3536670D01*
X3412850Y-3622150D01*
X3486390Y-3676425D01*
X3519323Y-3700730D01*
X3561573Y-3756377D01*
X3567032Y-3826033D01*
X3533965Y-3887583D01*
X3472871Y-3921484D01*
X3445689Y-3924500D01*
X3208856Y-3924500D01*
X3170841Y-3929065D01*
X3124411Y-3934640D01*
X2990023Y-3987636D01*
X2874921Y-4074921D01*
X2787636Y-4190023D01*
X2734640Y-4324411D01*
X2733380Y-4334908D01*
X2724500Y-4408856D01*
X2724500Y-4991144D01*
X2728311Y-5022876D01*
X2734640Y-5075588D01*
X2787636Y-5209976D01*
X2872642Y-5322072D01*
X2874922Y-5325078D01*
X2925425Y-5363376D01*
X2966948Y-5419567D01*
X2974500Y-5462179D01*
X2974500Y-5816769D01*
X2954815Y-5883808D01*
X2949767Y-5891080D01*
X2881204Y-5982668D01*
X2881202Y-5982671D01*
X2830910Y-6117513D01*
X2830909Y-6117517D01*
X2824500Y-6177127D01*
X2824500Y-6492685D01*
X2824501Y-6775500D01*
X2804817Y-6842539D01*
X2752013Y-6888294D01*
X2700501Y-6899500D01*
X2699500Y-6899500D01*
X2632461Y-6879815D01*
X2586706Y-6827011D01*
X2575500Y-6775500D01*
X2575499Y-6177129D01*
X2575498Y-6177123D01*
X2575497Y-6177116D01*
X2569091Y-6117517D01*
X2568113Y-6114896D01*
X2518797Y-5982671D01*
X2518793Y-5982664D01*
X2432547Y-5867455D01*
X2432544Y-5867452D01*
X2317335Y-5781206D01*
X2317328Y-5781202D01*
X2182486Y-5730910D01*
X2182485Y-5730909D01*
X2182483Y-5730909D01*
X2122873Y-5724500D01*
X2122863Y-5724500D01*
X1627129Y-5724500D01*
X1627123Y-5724501D01*
X1567516Y-5730908D01*
X1432671Y-5781202D01*
X1432664Y-5781206D01*
X1317456Y-5867452D01*
X1317455Y-5867453D01*
X1317454Y-5867454D01*
X1271009Y-5929497D01*
X1255802Y-5949811D01*
X1199868Y-5991682D01*
X1156535Y-5999500D01*
X1043465Y-5999500D01*
X976426Y-5979815D01*
X944198Y-5949811D01*
X928991Y-5929497D01*
X882546Y-5867454D01*
X859709Y-5850358D01*
X767335Y-5781206D01*
X767328Y-5781202D01*
X632486Y-5730910D01*
X632485Y-5730909D01*
X632483Y-5730909D01*
X572873Y-5724500D01*
X572864Y-5724500D01*
X76143Y-5724500D01*
X9104Y-5704815D01*
X-36651Y-5652011D01*
X-46595Y-5582853D01*
X-38443Y-5553109D01*
X-38029Y-5552108D01*
X5782Y-5497681D01*
X72065Y-5475580D01*
X76557Y-5475499D01*
X77118Y-5475499D01*
X77127Y-5475500D01*
X572872Y-5475499D01*
X632483Y-5469091D01*
X767331Y-5418796D01*
X882546Y-5332546D01*
X968796Y-5217331D01*
X1019091Y-5082483D01*
X1025500Y-5022873D01*
X1025499Y-4377128D01*
X1019091Y-4317517D01*
X1019090Y-4317513D01*
X984786Y-4225539D01*
X979802Y-4155847D01*
X1013284Y-4094528D01*
X1320997Y-3786816D01*
X1382318Y-3753334D01*
X1408676Y-3750500D01*
X1549270Y-3750500D01*
X1579699Y-3747646D01*
X1579701Y-3747646D01*
X1643790Y-3725219D01*
X1707882Y-3702793D01*
X1817150Y-3622150D01*
X1880231Y-3536677D01*
X1935877Y-3494428D01*
X2005533Y-3488969D01*
X2067083Y-3522036D01*
X2079763Y-3536670D01*
X2142850Y-3622150D01*
X2252118Y-3702793D01*
X2277910Y-3711818D01*
X2380299Y-3747646D01*
X2410730Y-3750500D01*
X2410734Y-3750500D01*
X2819270Y-3750500D01*
X2849699Y-3747646D01*
X2849701Y-3747646D01*
X2913790Y-3725219D01*
X2977882Y-3702793D01*
X3087150Y-3622150D01*
X3150231Y-3536677D01*
X3205877Y-3494428D01*
X3275533Y-3488969D01*
X3337083Y-3522036D01*
G37*
%TD.AperFunction*%
%TA.AperFunction,Conductor*%
G36*
X4908363Y-920185D02*
G01*
X4929005Y-936819D01*
X6438181Y-2445995D01*
X6471666Y-2507318D01*
X6474500Y-2533676D01*
X6474500Y-2762679D01*
X6454815Y-2829718D01*
X6424813Y-2861944D01*
X6417459Y-2867449D01*
X6417451Y-2867457D01*
X6331206Y-2982664D01*
X6331202Y-2982671D01*
X6293647Y-3083364D01*
X6280909Y-3117517D01*
X6274500Y-3177127D01*
X6274500Y-3177134D01*
X6274500Y-3177135D01*
X6274500Y-3822870D01*
X6274501Y-3822876D01*
X6280908Y-3882483D01*
X6331202Y-4017328D01*
X6331206Y-4017335D01*
X6417452Y-4132544D01*
X6417455Y-4132547D01*
X6432376Y-4143717D01*
X6474247Y-4199650D01*
X6479231Y-4269342D01*
X6445746Y-4330665D01*
X6384422Y-4364149D01*
X6339584Y-4365598D01*
X6135976Y-4334908D01*
X6135969Y-4334908D01*
X5884847Y-4334908D01*
X5884841Y-4334908D01*
X5730200Y-4358217D01*
X5636529Y-4372336D01*
X5636526Y-4372337D01*
X5636520Y-4372338D01*
X5396559Y-4446357D01*
X5170316Y-4555309D01*
X5170315Y-4555310D01*
X5170309Y-4555313D01*
X5170309Y-4555314D01*
X5145946Y-4571923D01*
X4962821Y-4696776D01*
X4778739Y-4867578D01*
X4622163Y-5063919D01*
X4496602Y-5281396D01*
X4404858Y-5515155D01*
X4404853Y-5515172D01*
X4348975Y-5759988D01*
X4342126Y-5851382D01*
X4317487Y-5916763D01*
X4261411Y-5958444D01*
X4191703Y-5963191D01*
X4130494Y-5929497D01*
X4119207Y-5916426D01*
X4082548Y-5867457D01*
X4082546Y-5867454D01*
X4061077Y-5851382D01*
X4025188Y-5824515D01*
X3983318Y-5768581D01*
X3975500Y-5725249D01*
X3975500Y-5462179D01*
X3995185Y-5395140D01*
X4024573Y-5363376D01*
X4075078Y-5325078D01*
X4162364Y-5209975D01*
X4215359Y-5075590D01*
X4225500Y-4991144D01*
X4225500Y-4408856D01*
X4215359Y-4324410D01*
X4162364Y-4190025D01*
X4162363Y-4190024D01*
X4162363Y-4190023D01*
X4075078Y-4074921D01*
X3959973Y-3987634D01*
X3952581Y-3983478D01*
X3954049Y-3980866D01*
X3910453Y-3946941D01*
X3887264Y-3881032D01*
X3903390Y-3813048D01*
X3953711Y-3764576D01*
X4011092Y-3750500D01*
X4089270Y-3750500D01*
X4119699Y-3747646D01*
X4119701Y-3747646D01*
X4183790Y-3725219D01*
X4247882Y-3702793D01*
X4357150Y-3622150D01*
X4437793Y-3512882D01*
X4460219Y-3448790D01*
X4482646Y-3384701D01*
X4482646Y-3384699D01*
X4485500Y-3354269D01*
X4485500Y-1595730D01*
X4482646Y-1565300D01*
X4482646Y-1565298D01*
X4446160Y-1461030D01*
X4437793Y-1437118D01*
X4437791Y-1437115D01*
X4437790Y-1437113D01*
X4409730Y-1399093D01*
X4385759Y-1333464D01*
X4385500Y-1325460D01*
X4385500Y-1260923D01*
X4386561Y-1244738D01*
X4405682Y-1099500D01*
X4405682Y-1099498D01*
X4397939Y-1040685D01*
X4408705Y-971650D01*
X4455085Y-919394D01*
X4520878Y-900500D01*
X4841324Y-900500D01*
X4908363Y-920185D01*
G37*
%TD.AperFunction*%
%TA.AperFunction,Conductor*%
G36*
X827271Y-320185D02*
G01*
X873026Y-372989D01*
X882970Y-442147D01*
X880007Y-456593D01*
X844500Y-589108D01*
X844500Y-1325460D01*
X824815Y-1392499D01*
X820270Y-1399093D01*
X792209Y-1437113D01*
X792206Y-1437119D01*
X747353Y-1565298D01*
X747353Y-1565300D01*
X744500Y-1595730D01*
X744500Y-2896324D01*
X724815Y-2963363D01*
X708181Y-2984005D01*
X-200498Y-3892683D01*
X-200500Y-3892686D01*
X-266392Y-4006812D01*
X-274797Y-4038181D01*
X-300081Y-4132547D01*
X-302603Y-4141958D01*
X-304294Y-4141505D01*
X-317251Y-4173410D01*
X-314546Y-4174887D01*
X-318798Y-4182672D01*
X-369092Y-4317517D01*
X-374985Y-4372336D01*
X-375499Y-4377123D01*
X-375500Y-4377135D01*
X-375500Y-4642324D01*
X-395185Y-4709363D01*
X-447989Y-4755118D01*
X-517147Y-4765062D01*
X-580703Y-4736037D01*
X-587181Y-4730005D01*
X-588182Y-4729004D01*
X-621667Y-4667681D01*
X-624501Y-4641323D01*
X-624501Y-4377129D01*
X-624502Y-4377123D01*
X-624503Y-4377116D01*
X-630909Y-4317517D01*
X-631611Y-4315636D01*
X-681203Y-4182671D01*
X-681207Y-4182664D01*
X-767453Y-4067455D01*
X-767456Y-4067452D01*
X-882665Y-3981206D01*
X-882672Y-3981202D01*
X-1017514Y-3930910D01*
X-1017515Y-3930909D01*
X-1017517Y-3930909D01*
X-1077127Y-3924500D01*
X-1077137Y-3924500D01*
X-1572871Y-3924500D01*
X-1572877Y-3924501D01*
X-1632484Y-3930908D01*
X-1767329Y-3981202D01*
X-1767336Y-3981206D01*
X-1882545Y-4067452D01*
X-1882548Y-4067455D01*
X-1968794Y-4182664D01*
X-1968798Y-4182671D01*
X-1983818Y-4222944D01*
X-2025689Y-4278878D01*
X-2091153Y-4303295D01*
X-2159426Y-4288443D01*
X-2208832Y-4239038D01*
X-2216182Y-4222944D01*
X-2231203Y-4182671D01*
X-2231207Y-4182664D01*
X-2317453Y-4067455D01*
X-2317456Y-4067452D01*
X-2432665Y-3981206D01*
X-2432668Y-3981205D01*
X-2432669Y-3981204D01*
X-2529949Y-3944920D01*
X-2585882Y-3903049D01*
X-2610298Y-3837584D01*
X-2595446Y-3769311D01*
X-2546040Y-3719906D01*
X-2527578Y-3711701D01*
X-2502118Y-3702793D01*
X-2392850Y-3622150D01*
X-2312207Y-3512882D01*
X-2289781Y-3448790D01*
X-2267354Y-3384701D01*
X-2267354Y-3384699D01*
X-2264500Y-3354269D01*
X-2264500Y-1595730D01*
X-2267354Y-1565300D01*
X-2267354Y-1565298D01*
X-2303840Y-1461030D01*
X-2312207Y-1437118D01*
X-2312209Y-1437115D01*
X-2312210Y-1437113D01*
X-2340270Y-1399093D01*
X-2364241Y-1333464D01*
X-2364500Y-1325460D01*
X-2364500Y-1114705D01*
X-2344815Y-1047666D01*
X-2338876Y-1039219D01*
X-2314263Y-1007142D01*
X-2286840Y-971404D01*
X-2226332Y-825325D01*
X-2206476Y-674500D01*
X-2205694Y-668564D01*
X-2205694Y-668561D01*
X-2226332Y-511802D01*
X-2226332Y-511801D01*
X-2242839Y-471951D01*
X-2250307Y-402484D01*
X-2219032Y-340004D01*
X-2158943Y-304352D01*
X-2128277Y-300500D01*
X760232Y-300500D01*
X827271Y-320185D01*
G37*
%TD.AperFunction*%
%TA.AperFunction,Conductor*%
G36*
X-111776Y11187508D02*
G01*
X-101197Y11175299D01*
X-25078Y11074922D01*
X25425Y11036624D01*
X66948Y10980433D01*
X74500Y10937821D01*
X74500Y10683231D01*
X54815Y10616192D01*
X49767Y10608920D01*
X-18796Y10517332D01*
X-18798Y10517329D01*
X-69090Y10382487D01*
X-69091Y10382483D01*
X-75500Y10322873D01*
X-75500Y10322866D01*
X-75500Y10322865D01*
X-75500Y9677130D01*
X-75499Y9677124D01*
X-69092Y9617517D01*
X-18798Y9482672D01*
X-18794Y9482665D01*
X67452Y9367456D01*
X67455Y9367453D01*
X182664Y9281207D01*
X182671Y9281203D01*
X225763Y9265131D01*
X317517Y9230909D01*
X377127Y9224500D01*
X872872Y9224501D01*
X932483Y9230909D01*
X1067331Y9281204D01*
X1182546Y9367454D01*
X1268796Y9482669D01*
X1319091Y9617517D01*
X1325500Y9677127D01*
X1325500Y9875500D01*
X1345185Y9942539D01*
X1397989Y9988294D01*
X1449500Y9999500D01*
X1540049Y9999500D01*
X1607088Y9979815D01*
X1652843Y9927011D01*
X1662787Y9857853D01*
X1649680Y9817560D01*
X1647206Y9812880D01*
X1602353Y9684702D01*
X1602353Y9684700D01*
X1599500Y9654270D01*
X1599500Y9246177D01*
X1579815Y9179138D01*
X1563185Y9158500D01*
X1417686Y9013000D01*
X1324502Y8919817D01*
X1324500Y8919814D01*
X1258608Y8805688D01*
X1224500Y8678392D01*
X1224500Y7262181D01*
X1204815Y7195142D01*
X1175426Y7163378D01*
X1124922Y7125080D01*
X1037636Y7009977D01*
X984640Y6875589D01*
X981201Y6846947D01*
X974500Y6791144D01*
X974500Y6208856D01*
X978311Y6177124D01*
X984640Y6124412D01*
X1037636Y5990024D01*
X1092514Y5917658D01*
X1124922Y5874922D01*
X1175425Y5836624D01*
X1216948Y5780433D01*
X1224500Y5737821D01*
X1224500Y5562181D01*
X1204815Y5495142D01*
X1175426Y5463378D01*
X1124922Y5425080D01*
X1037636Y5309977D01*
X984640Y5175589D01*
X979065Y5129159D01*
X974500Y5091144D01*
X974500Y5091138D01*
X974500Y4808503D01*
X954815Y4741464D01*
X948861Y4732997D01*
X947860Y4731693D01*
X891424Y4690502D01*
X821677Y4686360D01*
X760764Y4720585D01*
X728023Y4782308D01*
X725499Y4807199D01*
X725499Y5122871D01*
X725498Y5122877D01*
X725497Y5122884D01*
X719091Y5182483D01*
X703406Y5224536D01*
X668797Y5317329D01*
X668793Y5317336D01*
X592838Y5418798D01*
X582546Y5432546D01*
X582542Y5432549D01*
X582540Y5432551D01*
X575187Y5438056D01*
X533317Y5493991D01*
X525500Y5537321D01*
X525500Y5762680D01*
X545185Y5829719D01*
X575192Y5861949D01*
X582546Y5867454D01*
X668796Y5982669D01*
X719091Y6117517D01*
X725500Y6177127D01*
X725499Y6822872D01*
X719091Y6882483D01*
X716846Y6888501D01*
X668797Y7017329D01*
X668793Y7017336D01*
X589997Y7122593D01*
X582546Y7132546D01*
X582542Y7132549D01*
X582540Y7132551D01*
X575187Y7138056D01*
X533317Y7193991D01*
X525500Y7237321D01*
X525500Y7462680D01*
X545185Y7529719D01*
X575192Y7561949D01*
X582546Y7567454D01*
X668796Y7682669D01*
X719091Y7817517D01*
X725500Y7877127D01*
X725499Y8522872D01*
X719091Y8582483D01*
X719088Y8582490D01*
X668797Y8717329D01*
X668793Y8717336D01*
X582547Y8832545D01*
X582544Y8832548D01*
X467335Y8918794D01*
X467328Y8918798D01*
X332486Y8969090D01*
X332485Y8969091D01*
X332483Y8969091D01*
X272873Y8975500D01*
X272863Y8975500D01*
X-222871Y8975500D01*
X-222877Y8975499D01*
X-282484Y8969092D01*
X-417329Y8918798D01*
X-417336Y8918794D01*
X-532545Y8832548D01*
X-532548Y8832545D01*
X-618794Y8717336D01*
X-618798Y8717329D01*
X-669090Y8582487D01*
X-669091Y8582483D01*
X-675500Y8522873D01*
X-675500Y8522866D01*
X-675500Y8522865D01*
X-675500Y7877130D01*
X-675499Y7877124D01*
X-669092Y7817517D01*
X-618798Y7682672D01*
X-618797Y7682671D01*
X-618796Y7682669D01*
X-537791Y7574460D01*
X-532546Y7567454D01*
X-525192Y7561949D01*
X-483319Y7506017D01*
X-475500Y7462680D01*
X-475500Y7237321D01*
X-495185Y7170282D01*
X-525187Y7138056D01*
X-532541Y7132551D01*
X-532549Y7132543D01*
X-618794Y7017336D01*
X-618798Y7017329D01*
X-669090Y6882487D01*
X-669091Y6882483D01*
X-675500Y6822873D01*
X-675500Y6822866D01*
X-675500Y6822865D01*
X-675500Y6177130D01*
X-675499Y6177124D01*
X-669092Y6117517D01*
X-618798Y5982672D01*
X-618797Y5982671D01*
X-618796Y5982669D01*
X-538052Y5874809D01*
X-532546Y5867454D01*
X-525192Y5861949D01*
X-483319Y5806017D01*
X-475500Y5762680D01*
X-475500Y5537321D01*
X-495185Y5470282D01*
X-525187Y5438056D01*
X-532541Y5432551D01*
X-532549Y5432543D01*
X-618794Y5317336D01*
X-618798Y5317329D01*
X-669090Y5182487D01*
X-669091Y5182483D01*
X-675500Y5122873D01*
X-675500Y5122866D01*
X-675500Y5122865D01*
X-675500Y4477130D01*
X-675499Y4477124D01*
X-669092Y4417517D01*
X-615697Y4274359D01*
X-617344Y4273745D01*
X-604761Y4215877D01*
X-629183Y4150415D01*
X-640763Y4137053D01*
X-1066276Y3711540D01*
X-1127599Y3678055D01*
X-1197291Y3683039D01*
X-1227589Y3699450D01*
X-1232118Y3702793D01*
X-1232119Y3702794D01*
X-1232121Y3702795D01*
X-1360300Y3747647D01*
X-1390730Y3750500D01*
X-1390734Y3750500D01*
X-1799266Y3750500D01*
X-1799270Y3750500D01*
X-1829700Y3747647D01*
X-1829702Y3747647D01*
X-1957881Y3702794D01*
X-1957883Y3702793D01*
X-2067150Y3622150D01*
X-2130230Y3536679D01*
X-2185877Y3494429D01*
X-2255534Y3488970D01*
X-2317083Y3522038D01*
X-2329770Y3536679D01*
X-2376136Y3599503D01*
X-2392850Y3622150D01*
X-2392852Y3622151D01*
X-2392852Y3622152D01*
X-2467390Y3677163D01*
X-2481438Y3689252D01*
X-2687008Y3894822D01*
X-2720493Y3956145D01*
X-2715509Y4025837D01*
X-2673637Y4081770D01*
X-2615515Y4105441D01*
X-2543238Y4114956D01*
X-2397159Y4175464D01*
X-2397155Y4175468D01*
X-2390124Y4179526D01*
X-2389118Y4177784D01*
X-2334068Y4199069D01*
X-2323743Y4199500D01*
X-2265954Y4199500D01*
X-2198915Y4179815D01*
X-2189843Y4172505D01*
X-2189645Y4172768D01*
X-2067336Y4081207D01*
X-2067329Y4081203D01*
X-2037672Y4070142D01*
X-1932483Y4030909D01*
X-1872873Y4024500D01*
X-1377128Y4024501D01*
X-1317517Y4030909D01*
X-1182669Y4081204D01*
X-1067454Y4167454D01*
X-981204Y4282669D01*
X-930909Y4417517D01*
X-924500Y4477127D01*
X-924501Y5122872D01*
X-930909Y5182483D01*
X-946594Y5224536D01*
X-981203Y5317329D01*
X-981207Y5317336D01*
X-1067453Y5432545D01*
X-1067456Y5432548D01*
X-1182665Y5518794D01*
X-1182674Y5518799D01*
X-1222944Y5533818D01*
X-1278878Y5575688D01*
X-1303296Y5641153D01*
X-1288445Y5709426D01*
X-1239040Y5758832D01*
X-1222944Y5766182D01*
X-1182674Y5781202D01*
X-1182674Y5781203D01*
X-1182669Y5781204D01*
X-1067454Y5867454D01*
X-981204Y5982669D01*
X-930909Y6117517D01*
X-924500Y6177127D01*
X-924501Y6822872D01*
X-930909Y6882483D01*
X-933154Y6888501D01*
X-981203Y7017329D01*
X-981207Y7017336D01*
X-1067453Y7132545D01*
X-1067456Y7132548D01*
X-1182665Y7218794D01*
X-1182672Y7218798D01*
X-1317514Y7269090D01*
X-1317515Y7269091D01*
X-1317517Y7269091D01*
X-1377127Y7275500D01*
X-1377137Y7275500D01*
X-1872871Y7275500D01*
X-1872877Y7275499D01*
X-1932484Y7269092D01*
X-2067329Y7218798D01*
X-2067336Y7218794D01*
X-2182545Y7132548D01*
X-2188351Y7126742D01*
X-2249677Y7093263D01*
X-2292210Y7091492D01*
X-2399999Y7105682D01*
X-2400001Y7105682D01*
X-2556761Y7085045D01*
X-2556769Y7085042D01*
X-2563290Y7082341D01*
X-2632760Y7074875D01*
X-2695237Y7106153D01*
X-2710000Y7122588D01*
X-2717454Y7132546D01*
X-2717458Y7132549D01*
X-2717460Y7132551D01*
X-2724813Y7138056D01*
X-2766683Y7193991D01*
X-2774500Y7237321D01*
X-2774500Y7462680D01*
X-2754815Y7529719D01*
X-2724808Y7561949D01*
X-2717454Y7567454D01*
X-2631204Y7682669D01*
X-2580909Y7817517D01*
X-2574500Y7877127D01*
X-2574501Y8522872D01*
X-2580909Y8582483D01*
X-2580912Y8582490D01*
X-2631203Y8717329D01*
X-2631207Y8717336D01*
X-2717453Y8832545D01*
X-2717456Y8832548D01*
X-2832665Y8918794D01*
X-2832672Y8918798D01*
X-2967514Y8969090D01*
X-2967515Y8969091D01*
X-2967517Y8969091D01*
X-3027127Y8975500D01*
X-3027137Y8975500D01*
X-3522871Y8975500D01*
X-3522877Y8975499D01*
X-3582484Y8969092D01*
X-3717329Y8918798D01*
X-3717336Y8918794D01*
X-3832545Y8832548D01*
X-3832548Y8832545D01*
X-3918794Y8717336D01*
X-3918798Y8717329D01*
X-3969090Y8582487D01*
X-3969091Y8582483D01*
X-3975500Y8522873D01*
X-3975500Y8522866D01*
X-3975500Y8522865D01*
X-3975500Y7877130D01*
X-3975499Y7877124D01*
X-3969092Y7817517D01*
X-3918798Y7682672D01*
X-3918797Y7682671D01*
X-3918796Y7682669D01*
X-3837791Y7574460D01*
X-3832546Y7567454D01*
X-3825192Y7561949D01*
X-3783319Y7506017D01*
X-3775500Y7462680D01*
X-3775500Y7237321D01*
X-3795185Y7170282D01*
X-3825187Y7138056D01*
X-3832541Y7132551D01*
X-3832549Y7132543D01*
X-3918794Y7017336D01*
X-3918798Y7017329D01*
X-3969090Y6882487D01*
X-3969091Y6882483D01*
X-3975500Y6822873D01*
X-3975500Y6822866D01*
X-3975500Y6822865D01*
X-3975500Y6177130D01*
X-3975499Y6177124D01*
X-3969092Y6117517D01*
X-3918798Y5982672D01*
X-3918794Y5982665D01*
X-3832548Y5867456D01*
X-3832545Y5867453D01*
X-3717336Y5781207D01*
X-3717329Y5781203D01*
X-3677056Y5766182D01*
X-3621122Y5724311D01*
X-3596705Y5658847D01*
X-3611557Y5590574D01*
X-3660962Y5541168D01*
X-3677056Y5533818D01*
X-3717329Y5518798D01*
X-3717336Y5518794D01*
X-3832545Y5432548D01*
X-3832548Y5432545D01*
X-3918794Y5317336D01*
X-3918798Y5317329D01*
X-3969092Y5182483D01*
X-3975499Y5122884D01*
X-3975499Y5122877D01*
X-3975500Y5122865D01*
X-3975500Y4811204D01*
X-3995185Y4744165D01*
X-4047989Y4698410D01*
X-4117147Y4688466D01*
X-4180703Y4717491D01*
X-4187181Y4723523D01*
X-4188182Y4724524D01*
X-4221667Y4785847D01*
X-4224501Y4812205D01*
X-4224501Y5122871D01*
X-4224502Y5122877D01*
X-4224503Y5122884D01*
X-4230909Y5182483D01*
X-4246594Y5224536D01*
X-4281203Y5317329D01*
X-4281207Y5317336D01*
X-4357162Y5418798D01*
X-4367454Y5432546D01*
X-4367458Y5432549D01*
X-4367460Y5432551D01*
X-4374813Y5438056D01*
X-4416683Y5493991D01*
X-4424500Y5537321D01*
X-4424500Y5762680D01*
X-4404815Y5829719D01*
X-4374808Y5861949D01*
X-4367454Y5867454D01*
X-4281204Y5982669D01*
X-4230909Y6117517D01*
X-4224500Y6177127D01*
X-4224501Y6822872D01*
X-4230909Y6882483D01*
X-4233154Y6888501D01*
X-4281203Y7017329D01*
X-4281207Y7017336D01*
X-4367453Y7132545D01*
X-4367456Y7132548D01*
X-4482665Y7218794D01*
X-4482674Y7218799D01*
X-4522944Y7233818D01*
X-4578878Y7275688D01*
X-4603296Y7341153D01*
X-4588445Y7409426D01*
X-4539040Y7458832D01*
X-4522944Y7466182D01*
X-4482674Y7481202D01*
X-4482674Y7481203D01*
X-4482669Y7481204D01*
X-4367454Y7567454D01*
X-4281204Y7682669D01*
X-4230909Y7817517D01*
X-4224500Y7877127D01*
X-4224501Y8522872D01*
X-4230909Y8582483D01*
X-4230912Y8582490D01*
X-4281203Y8717329D01*
X-4281207Y8717336D01*
X-4367453Y8832545D01*
X-4367456Y8832548D01*
X-4444903Y8890525D01*
X-4486774Y8946458D01*
X-4491928Y8991871D01*
X-4494318Y8991871D01*
X-4494318Y9000002D01*
X-4512001Y9134316D01*
X-4501235Y9203351D01*
X-4454855Y9255607D01*
X-4389062Y9274501D01*
X-4177129Y9274501D01*
X-4177128Y9274501D01*
X-4117517Y9280909D01*
X-3982669Y9331204D01*
X-3886699Y9403048D01*
X-3821235Y9427465D01*
X-3764932Y9418341D01*
X-3756762Y9414956D01*
X-3620639Y9397036D01*
X-3600001Y9394318D01*
X-3600000Y9394318D01*
X-3599999Y9394318D01*
X-3581763Y9396720D01*
X-3443238Y9414956D01*
X-3435069Y9418341D01*
X-3365600Y9425812D01*
X-3313302Y9403048D01*
X-3265753Y9367453D01*
X-3217332Y9331205D01*
X-3217329Y9331203D01*
X-3191281Y9321488D01*
X-3082483Y9280909D01*
X-3022873Y9274500D01*
X-2377128Y9274501D01*
X-2317517Y9280909D01*
X-2182669Y9331204D01*
X-2067454Y9417454D01*
X-2066790Y9418340D01*
X-2043232Y9449810D01*
X-1987299Y9491682D01*
X-1943965Y9499500D01*
X-1743465Y9499500D01*
X-1676426Y9479815D01*
X-1644200Y9449813D01*
X-1582546Y9367454D01*
X-1549580Y9342776D01*
X-1467336Y9281207D01*
X-1467329Y9281203D01*
X-1424237Y9265131D01*
X-1332483Y9230909D01*
X-1272873Y9224500D01*
X-777128Y9224501D01*
X-717517Y9230909D01*
X-582669Y9281204D01*
X-467454Y9367454D01*
X-381204Y9482669D01*
X-330909Y9617517D01*
X-324500Y9677127D01*
X-324501Y10322872D01*
X-330909Y10382483D01*
X-346581Y10424501D01*
X-381203Y10517329D01*
X-381207Y10517336D01*
X-467453Y10632545D01*
X-467456Y10632548D01*
X-582665Y10718794D01*
X-590454Y10723047D01*
X-589828Y10724196D01*
X-638498Y10760629D01*
X-662914Y10826094D01*
X-648062Y10894367D01*
X-598656Y10943772D01*
X-584730Y10950290D01*
X-490025Y10987636D01*
X-374922Y11074922D01*
X-298804Y11175299D01*
X-242611Y11216822D01*
X-172890Y11221373D01*
X-111776Y11187508D01*
G37*
%TD.AperFunction*%
%TA.AperFunction,Conductor*%
G36*
X5949924Y10829815D02*
G01*
X5995679Y10777011D01*
X5999067Y10768833D01*
X6031202Y10682672D01*
X6031206Y10682665D01*
X6117452Y10567456D01*
X6117455Y10567453D01*
X6232664Y10481207D01*
X6232671Y10481203D01*
X6247962Y10475500D01*
X6367517Y10430909D01*
X6427127Y10424500D01*
X6870318Y10424501D01*
X6937357Y10404817D01*
X6983112Y10352013D01*
X6992690Y10307984D01*
X6993257Y10308058D01*
X6994150Y10301271D01*
X6994318Y10300501D01*
X6994318Y10299999D01*
X7014955Y10143240D01*
X7014956Y10143239D01*
X7014956Y10143238D01*
X7017654Y10136724D01*
X7017657Y10136718D01*
X7025126Y10067248D01*
X6993851Y10004769D01*
X6977411Y9990001D01*
X6967458Y9982550D01*
X6967451Y9982543D01*
X6881206Y9867336D01*
X6881202Y9867329D01*
X6840745Y9758856D01*
X6830909Y9732483D01*
X6824500Y9672873D01*
X6824500Y9672866D01*
X6824500Y9672865D01*
X6824500Y9177130D01*
X6824501Y9177124D01*
X6830908Y9117517D01*
X6881202Y8982672D01*
X6881206Y8982665D01*
X6967452Y8867456D01*
X6967455Y8867453D01*
X7082664Y8781207D01*
X7082671Y8781203D01*
X7127618Y8764439D01*
X7217517Y8730909D01*
X7277127Y8724500D01*
X7922872Y8724501D01*
X7982483Y8730909D01*
X8117331Y8781204D01*
X8232546Y8867454D01*
X8318796Y8982669D01*
X8369091Y9117517D01*
X8375500Y9177127D01*
X8375499Y9672872D01*
X8369091Y9732483D01*
X8337359Y9817560D01*
X8318797Y9867329D01*
X8318793Y9867336D01*
X8234590Y9979815D01*
X8232546Y9982546D01*
X8222593Y9989997D01*
X8180722Y10045928D01*
X8175736Y10115620D01*
X8182343Y10136718D01*
X8185044Y10143238D01*
X8205682Y10300000D01*
X8205682Y10300501D01*
X8205801Y10300910D01*
X8206743Y10308058D01*
X8207857Y10307912D01*
X8225367Y10367540D01*
X8278171Y10413295D01*
X8329682Y10424501D01*
X8572871Y10424501D01*
X8572872Y10424501D01*
X8632483Y10430909D01*
X8732168Y10468090D01*
X8801858Y10473073D01*
X8863181Y10439588D01*
X8896666Y10378265D01*
X8899500Y10351907D01*
X8899500Y10143466D01*
X8879815Y10076427D01*
X8849812Y10044200D01*
X8767452Y9982545D01*
X8681206Y9867336D01*
X8681202Y9867329D01*
X8640745Y9758856D01*
X8630909Y9732483D01*
X8624500Y9672873D01*
X8624500Y9672866D01*
X8624500Y9672865D01*
X8624500Y9177130D01*
X8624501Y9177124D01*
X8630908Y9117517D01*
X8681202Y8982672D01*
X8681206Y8982665D01*
X8767452Y8867456D01*
X8767455Y8867453D01*
X8882664Y8781207D01*
X8882671Y8781203D01*
X8927618Y8764439D01*
X9017517Y8730909D01*
X9077127Y8724500D01*
X9491323Y8724501D01*
X9558362Y8704817D01*
X9579004Y8688182D01*
X9580005Y8687181D01*
X9613490Y8625858D01*
X9608506Y8556166D01*
X9566634Y8500233D01*
X9501170Y8475816D01*
X9492324Y8475500D01*
X9077129Y8475500D01*
X9077123Y8475499D01*
X9017516Y8469092D01*
X8882671Y8418798D01*
X8882664Y8418794D01*
X8767457Y8332549D01*
X8767451Y8332543D01*
X8761948Y8325191D01*
X8706015Y8283319D01*
X8662680Y8275500D01*
X8337320Y8275500D01*
X8270281Y8295185D01*
X8238052Y8325191D01*
X8232548Y8332543D01*
X8232546Y8332546D01*
X8232542Y8332549D01*
X8117335Y8418794D01*
X8117328Y8418798D01*
X7982486Y8469090D01*
X7982485Y8469091D01*
X7982483Y8469091D01*
X7922873Y8475500D01*
X7922863Y8475500D01*
X7277129Y8475500D01*
X7277123Y8475499D01*
X7217516Y8469092D01*
X7082671Y8418798D01*
X7082664Y8418794D01*
X6967457Y8332549D01*
X6967451Y8332543D01*
X6961948Y8325191D01*
X6906015Y8283319D01*
X6862680Y8275500D01*
X6771176Y8275500D01*
X6704137Y8295185D01*
X6683495Y8311819D01*
X5836819Y9158495D01*
X5803334Y9219818D01*
X5800500Y9246176D01*
X5800500Y9654270D01*
X5797646Y9684700D01*
X5797646Y9684702D01*
X5764006Y9780837D01*
X5752793Y9812882D01*
X5672150Y9922150D01*
X5562882Y10002793D01*
X5562880Y10002794D01*
X5434700Y10047647D01*
X5404270Y10050500D01*
X5404266Y10050500D01*
X4270734Y10050500D01*
X4270730Y10050500D01*
X4240300Y10047647D01*
X4240298Y10047647D01*
X4112119Y10002794D01*
X4112117Y10002793D01*
X4002850Y9922150D01*
X3922207Y9812883D01*
X3922206Y9812881D01*
X3877353Y9684702D01*
X3877353Y9684700D01*
X3874500Y9654270D01*
X3874500Y9245731D01*
X3877353Y9215301D01*
X3877353Y9215299D01*
X3922206Y9087120D01*
X3922207Y9087118D01*
X4002850Y8977850D01*
X4112118Y8897207D01*
X4154845Y8882256D01*
X4240299Y8852354D01*
X4270730Y8849500D01*
X4270734Y8849500D01*
X4678824Y8849500D01*
X4745863Y8829815D01*
X4766505Y8813181D01*
X5718921Y7860765D01*
X5752406Y7799442D01*
X5747422Y7729750D01*
X5705550Y7673817D01*
X5649729Y7650470D01*
X5636528Y7648480D01*
X5636520Y7648478D01*
X5396559Y7574459D01*
X5170316Y7465507D01*
X5170315Y7465506D01*
X4962821Y7324040D01*
X4778739Y7153238D01*
X4622163Y6956897D01*
X4496602Y6739420D01*
X4404858Y6505661D01*
X4404853Y6505644D01*
X4348975Y6260828D01*
X4330210Y6010413D01*
X4330210Y6010404D01*
X4348975Y5759989D01*
X4404026Y5518798D01*
X4404856Y5515161D01*
X4404858Y5515156D01*
X4496602Y5281397D01*
X4496601Y5281397D01*
X4557690Y5175589D01*
X4622163Y5063919D01*
X4748625Y4905341D01*
X4778739Y4867579D01*
X4952515Y4706339D01*
X4962822Y4696776D01*
X5138571Y4576953D01*
X5182872Y4522925D01*
X5190931Y4453522D01*
X5160188Y4390779D01*
X5100404Y4354617D01*
X5068718Y4350500D01*
X3184108Y4350500D01*
X3056812Y4316392D01*
X2942686Y4250500D01*
X2942683Y4250498D01*
X2477596Y3785411D01*
X2416273Y3751926D01*
X2401494Y3749634D01*
X2380299Y3747647D01*
X2380298Y3747647D01*
X2252119Y3702794D01*
X2252117Y3702793D01*
X2142850Y3622150D01*
X2079769Y3536679D01*
X2024121Y3494428D01*
X1954465Y3488971D01*
X1892915Y3522038D01*
X1880226Y3536684D01*
X1869727Y3550911D01*
X1845758Y3616541D01*
X1845500Y3624540D01*
X1845500Y3900500D01*
X1865185Y3967539D01*
X1917989Y4013294D01*
X1969500Y4024500D01*
X1991138Y4024500D01*
X1991144Y4024500D01*
X2075590Y4034641D01*
X2209975Y4087636D01*
X2325078Y4174922D01*
X2412364Y4290025D01*
X2465359Y4424410D01*
X2475500Y4508856D01*
X2475500Y5091144D01*
X2465359Y5175590D01*
X2412364Y5309975D01*
X2412363Y5309976D01*
X2412363Y5309977D01*
X2325077Y5425080D01*
X2274574Y5463378D01*
X2233051Y5519571D01*
X2225500Y5562181D01*
X2225500Y5737821D01*
X2245185Y5804860D01*
X2274573Y5836624D01*
X2325078Y5874922D01*
X2412364Y5990025D01*
X2465359Y6124410D01*
X2475500Y6208856D01*
X2475500Y6791144D01*
X2465359Y6875590D01*
X2412364Y7009975D01*
X2412363Y7009976D01*
X2412363Y7009977D01*
X2325077Y7125080D01*
X2274574Y7163378D01*
X2233051Y7219571D01*
X2225500Y7262181D01*
X2225500Y8353824D01*
X2245185Y8420863D01*
X2261819Y8441505D01*
X2633495Y8813181D01*
X2694818Y8846666D01*
X2721176Y8849500D01*
X3129270Y8849500D01*
X3159699Y8852354D01*
X3159701Y8852354D01*
X3225135Y8875251D01*
X3287882Y8897207D01*
X3397150Y8977850D01*
X3477793Y9087118D01*
X3505020Y9164928D01*
X3522646Y9215299D01*
X3522646Y9215301D01*
X3525500Y9245731D01*
X3525500Y9654270D01*
X3522646Y9684700D01*
X3522646Y9684702D01*
X3489006Y9780837D01*
X3477793Y9812882D01*
X3468837Y9825017D01*
X3444867Y9890644D01*
X3460182Y9958814D01*
X3509922Y10007882D01*
X3536511Y10018423D01*
X3593186Y10033608D01*
X3707314Y10099500D01*
X4320995Y10713181D01*
X4382318Y10746666D01*
X4408676Y10749500D01*
X5404270Y10749500D01*
X5434699Y10752354D01*
X5434701Y10752354D01*
X5505165Y10777011D01*
X5562882Y10797207D01*
X5566043Y10799541D01*
X5600907Y10825270D01*
X5666536Y10849241D01*
X5674540Y10849500D01*
X5882885Y10849500D01*
X5949924Y10829815D01*
G37*
%TD.AperFunction*%
%TA.AperFunction,Conductor*%
G36*
X-3944517Y12979815D02*
G01*
X-3902200Y12933956D01*
X-3887711Y12906850D01*
X-3887709Y12906847D01*
X-3754937Y12745064D01*
X-3593155Y12612293D01*
X-3593150Y12612289D01*
X-3408569Y12513628D01*
X-3274168Y12472858D01*
X-3215730Y12434561D01*
X-3187274Y12370749D01*
X-3197834Y12301682D01*
X-3235852Y12254932D01*
X-3332548Y12182545D01*
X-3418794Y12067336D01*
X-3418798Y12067329D01*
X-3469090Y11932487D01*
X-3469091Y11932483D01*
X-3475500Y11872873D01*
X-3475500Y11872866D01*
X-3475500Y11872865D01*
X-3475500Y11377130D01*
X-3475499Y11377124D01*
X-3469092Y11317517D01*
X-3418798Y11182672D01*
X-3418794Y11182665D01*
X-3332548Y11067456D01*
X-3332545Y11067453D01*
X-3217336Y10981207D01*
X-3217329Y10981203D01*
X-3215264Y10980433D01*
X-3082483Y10930909D01*
X-3022873Y10924500D01*
X-2377128Y10924501D01*
X-2317517Y10930909D01*
X-2182669Y10981204D01*
X-2129698Y11020860D01*
X-2064236Y11045276D01*
X-2007937Y11036154D01*
X-1956762Y11014956D01*
X-1818238Y10996720D01*
X-1800001Y10994318D01*
X-1800000Y10994318D01*
X-1799999Y10994318D01*
X-1747746Y11001198D01*
X-1643238Y11014956D01*
X-1613725Y11027182D01*
X-1544256Y11034651D01*
X-1491346Y11011425D01*
X-1459977Y10987637D01*
X-1459976Y10987637D01*
X-1459975Y10987636D01*
X-1413887Y10969461D01*
X-1358744Y10926556D01*
X-1335551Y10860648D01*
X-1351671Y10792664D01*
X-1401988Y10744187D01*
X-1416045Y10737925D01*
X-1467329Y10718798D01*
X-1467336Y10718794D01*
X-1582544Y10632548D01*
X-1582545Y10632547D01*
X-1582546Y10632546D01*
X-1644198Y10550189D01*
X-1700132Y10508318D01*
X-1743465Y10500500D01*
X-1984046Y10500500D01*
X-2051085Y10520185D01*
X-2060158Y10527496D01*
X-2060355Y10527232D01*
X-2182665Y10618794D01*
X-2182672Y10618798D01*
X-2317514Y10669090D01*
X-2317515Y10669091D01*
X-2317517Y10669091D01*
X-2377127Y10675500D01*
X-2377137Y10675500D01*
X-3022871Y10675500D01*
X-3022877Y10675499D01*
X-3082484Y10669092D01*
X-3217329Y10618798D01*
X-3217336Y10618794D01*
X-3270304Y10579142D01*
X-3335768Y10554725D01*
X-3392067Y10563848D01*
X-3400773Y10567454D01*
X-3443238Y10585044D01*
X-3443240Y10585045D01*
X-3599999Y10605682D01*
X-3600001Y10605682D01*
X-3756761Y10585045D01*
X-3756766Y10585043D01*
X-3807935Y10563848D01*
X-3877404Y10556379D01*
X-3929698Y10579142D01*
X-3982669Y10618796D01*
X-3982672Y10618798D01*
X-4117514Y10669090D01*
X-4117515Y10669091D01*
X-4117517Y10669091D01*
X-4177127Y10675500D01*
X-4177137Y10675500D01*
X-4822871Y10675500D01*
X-4822877Y10675499D01*
X-4882484Y10669092D01*
X-5017329Y10618798D01*
X-5017336Y10618794D01*
X-5132543Y10532549D01*
X-5132549Y10532543D01*
X-5138052Y10525191D01*
X-5193985Y10483319D01*
X-5237320Y10475500D01*
X-5499903Y10475500D01*
X-5566942Y10495185D01*
X-5598707Y10524574D01*
X-5600027Y10526315D01*
X-5674922Y10625078D01*
X-5674924Y10625079D01*
X-5674924Y10625080D01*
X-5790024Y10712364D01*
X-5924412Y10765360D01*
X-5967758Y10770565D01*
X-6008856Y10775500D01*
X-6591144Y10775500D01*
X-6629159Y10770935D01*
X-6675589Y10765360D01*
X-6809977Y10712364D01*
X-6925079Y10625079D01*
X-7012364Y10509977D01*
X-7065360Y10375589D01*
X-7068203Y10351907D01*
X-7075500Y10291144D01*
X-7075500Y9758856D01*
X-7072333Y9732487D01*
X-7065360Y9674412D01*
X-7012364Y9540024D01*
X-6925079Y9424922D01*
X-6809977Y9337637D01*
X-6809976Y9337637D01*
X-6809975Y9337636D01*
X-6675590Y9284641D01*
X-6591144Y9274500D01*
X-6591138Y9274500D01*
X-6008862Y9274500D01*
X-6008856Y9274500D01*
X-5924410Y9284641D01*
X-5878258Y9302841D01*
X-5846902Y9315206D01*
X-5777315Y9321488D01*
X-5715379Y9289151D01*
X-5680758Y9228462D01*
X-5684114Y9164928D01*
X-5682940Y9164613D01*
X-5684423Y9159081D01*
X-5684443Y9158690D01*
X-5684724Y9157958D01*
X-5685045Y9156761D01*
X-5705682Y9000002D01*
X-5705682Y8999999D01*
X-5685045Y8843240D01*
X-5685043Y8843235D01*
X-5624538Y8697162D01*
X-5624456Y8697020D01*
X-5624424Y8696886D01*
X-5621426Y8689649D01*
X-5622555Y8689182D01*
X-5607982Y8629120D01*
X-5615658Y8591691D01*
X-5619090Y8582490D01*
X-5619090Y8582487D01*
X-5619091Y8582483D01*
X-5625500Y8522873D01*
X-5625500Y8522866D01*
X-5625500Y8522865D01*
X-5625500Y7877130D01*
X-5625499Y7877124D01*
X-5619092Y7817517D01*
X-5568798Y7682672D01*
X-5568794Y7682665D01*
X-5482548Y7567456D01*
X-5482545Y7567453D01*
X-5367336Y7481207D01*
X-5367329Y7481203D01*
X-5327056Y7466182D01*
X-5271122Y7424311D01*
X-5246705Y7358847D01*
X-5261557Y7290574D01*
X-5310962Y7241168D01*
X-5327056Y7233818D01*
X-5367329Y7218798D01*
X-5367336Y7218794D01*
X-5482545Y7132548D01*
X-5482548Y7132545D01*
X-5568794Y7017336D01*
X-5568798Y7017329D01*
X-5619092Y6882484D01*
X-5622912Y6846947D01*
X-5649650Y6782396D01*
X-5707043Y6742548D01*
X-5776868Y6740055D01*
X-5836957Y6775708D01*
X-5862383Y6816870D01*
X-5881203Y6867329D01*
X-5881207Y6867336D01*
X-5967453Y6982545D01*
X-5967456Y6982548D01*
X-6082665Y7068794D01*
X-6082672Y7068798D01*
X-6217514Y7119090D01*
X-6217515Y7119091D01*
X-6217517Y7119091D01*
X-6277127Y7125500D01*
X-6277137Y7125500D01*
X-6922871Y7125500D01*
X-6922877Y7125499D01*
X-6982484Y7119092D01*
X-7117329Y7068798D01*
X-7117336Y7068794D01*
X-7232543Y6982549D01*
X-7232549Y6982543D01*
X-7238052Y6975191D01*
X-7293985Y6933319D01*
X-7337320Y6925500D01*
X-7510859Y6925500D01*
X-7577898Y6945185D01*
X-7623653Y6997989D01*
X-7627031Y7006141D01*
X-7631204Y7017331D01*
X-7631207Y7017335D01*
X-7631207Y7017336D01*
X-7710003Y7122593D01*
X-7717454Y7132546D01*
X-7717458Y7132549D01*
X-7717460Y7132551D01*
X-7724813Y7138056D01*
X-7766683Y7193991D01*
X-7774500Y7237321D01*
X-7774500Y7462680D01*
X-7754815Y7529719D01*
X-7724808Y7561949D01*
X-7717454Y7567454D01*
X-7631204Y7682669D01*
X-7580909Y7817517D01*
X-7574500Y7877127D01*
X-7574501Y8522872D01*
X-7580909Y8582483D01*
X-7580912Y8582490D01*
X-7631203Y8717329D01*
X-7631207Y8717336D01*
X-7717452Y8832543D01*
X-7717454Y8832546D01*
X-7717458Y8832549D01*
X-7717460Y8832551D01*
X-7724813Y8838056D01*
X-7766683Y8893991D01*
X-7774500Y8937321D01*
X-7774500Y9275737D01*
X-7754815Y9342776D01*
X-7730762Y9368773D01*
X-7730917Y9368928D01*
X-7726926Y9372920D01*
X-7725427Y9374540D01*
X-7724922Y9374922D01*
X-7637636Y9490025D01*
X-7584641Y9624410D01*
X-7574500Y9708856D01*
X-7574500Y10291144D01*
X-7584641Y10375590D01*
X-7637636Y10509975D01*
X-7637637Y10509976D01*
X-7637637Y10509977D01*
X-7724923Y10625080D01*
X-7775426Y10663378D01*
X-7816949Y10719571D01*
X-7824500Y10762181D01*
X-7824500Y11616324D01*
X-7804815Y11683363D01*
X-7788181Y11704005D01*
X-6529005Y12963181D01*
X-6467682Y12996666D01*
X-6441324Y12999500D01*
X-4011556Y12999500D01*
X-3944517Y12979815D01*
G37*
%TD.AperFunction*%
%TA.AperFunction,Conductor*%
G36*
X6819Y16002347D02*
G01*
X8155Y16002323D01*
X794805Y15982573D01*
X796116Y15982533D01*
X801531Y15982329D01*
X804513Y15982179D01*
X809741Y15981849D01*
X811238Y15981746D01*
X1595816Y15922555D01*
X1597225Y15922439D01*
X1602496Y15921975D01*
X1605416Y15921681D01*
X1610879Y15921062D01*
X1612075Y15920918D01*
X2392717Y15822427D01*
X2394231Y15822226D01*
X2397760Y15821737D01*
X2399384Y15821511D01*
X2402458Y15821044D01*
X2407624Y15820193D01*
X2409076Y15819945D01*
X3021250Y15711263D01*
X3183633Y15682434D01*
X3185177Y15682150D01*
X3190297Y15681174D01*
X3193314Y15680560D01*
X3194761Y15680247D01*
X3198510Y15679435D01*
X3199910Y15679122D01*
X3966634Y15502907D01*
X3968075Y15502566D01*
X3973159Y15501330D01*
X3976120Y15500572D01*
X3981300Y15499174D01*
X3982639Y15498803D01*
X4728112Y15287578D01*
X4739503Y15284350D01*
X4740976Y15283923D01*
X4743715Y15283111D01*
X4746014Y15282428D01*
X4748939Y15281520D01*
X4754003Y15279877D01*
X4755338Y15279434D01*
X5274915Y15103606D01*
X5500522Y15027259D01*
X5501990Y15026752D01*
X5506913Y15025017D01*
X5509794Y15023961D01*
X5514770Y15022066D01*
X5516165Y15021524D01*
X6247664Y14732310D01*
X6249092Y14731735D01*
X6251531Y14730736D01*
X6253931Y14729752D01*
X6256730Y14728564D01*
X6261643Y14726405D01*
X6262960Y14725815D01*
X6979065Y14400240D01*
X6980447Y14399601D01*
X6985222Y14397357D01*
X6988004Y14396007D01*
X6992626Y14393693D01*
X6993940Y14393025D01*
X7626770Y14066046D01*
X7692900Y14031877D01*
X7694270Y14031158D01*
X7698840Y14028724D01*
X7701587Y14027216D01*
X7706114Y14024656D01*
X7707437Y14023898D01*
X8100715Y13794992D01*
X8148753Y13744255D01*
X8159793Y13685866D01*
X8211938Y13705315D01*
X8280211Y13690463D01*
X8283161Y13688800D01*
X8387316Y13628177D01*
X8388656Y13627385D01*
X8393127Y13624707D01*
X8395756Y13623088D01*
X8400192Y13620277D01*
X8401412Y13619493D01*
X8480396Y13568048D01*
X9060626Y13190123D01*
X9061926Y13189264D01*
X9066227Y13186385D01*
X9068756Y13184647D01*
X9073107Y13181574D01*
X9074306Y13180715D01*
X9711121Y12718821D01*
X9712365Y12717907D01*
X9716494Y12714833D01*
X9718987Y12712928D01*
X9723063Y12709730D01*
X9724271Y12708770D01*
X10337085Y12215520D01*
X10338290Y12214537D01*
X10342302Y12211224D01*
X10344677Y12209213D01*
X10348597Y12205807D01*
X10349766Y12204778D01*
X10937034Y11681419D01*
X10938190Y11680375D01*
X10942037Y11676859D01*
X10944308Y11674731D01*
X10948038Y11671146D01*
X10949141Y11670072D01*
X11098508Y11522865D01*
X11509440Y11117872D01*
X11510557Y11116757D01*
X11514203Y11113071D01*
X11516337Y11110859D01*
X11519912Y11107061D01*
X11520983Y11105909D01*
X12051999Y10527232D01*
X12052841Y10526315D01*
X12053845Y10525207D01*
X12054412Y10524574D01*
X12057347Y10521294D01*
X12059402Y10518938D01*
X12062738Y10515015D01*
X12063730Y10513834D01*
X12565897Y9908205D01*
X12566821Y9907076D01*
X12570136Y9902976D01*
X12572046Y9900551D01*
X12575243Y9896384D01*
X12576168Y9895162D01*
X12877879Y9491682D01*
X13035268Y9281203D01*
X13047194Y9265255D01*
X13048125Y9263993D01*
X13051228Y9259732D01*
X13053007Y9257225D01*
X13055999Y9252894D01*
X13056847Y9251648D01*
X13495722Y8598822D01*
X13496590Y8597514D01*
X13499439Y8593158D01*
X13501098Y8590551D01*
X13503831Y8586136D01*
X13504646Y8584800D01*
X13910196Y7910795D01*
X13910982Y7909470D01*
X13913624Y7904953D01*
X13915139Y7902288D01*
X13917687Y7897668D01*
X13918420Y7896317D01*
X14289617Y7202849D01*
X14290346Y7201468D01*
X14292782Y7196776D01*
X14294171Y7194017D01*
X14296440Y7189367D01*
X14297121Y7187948D01*
X14347002Y7082341D01*
X14630330Y6482487D01*
X14633080Y6476666D01*
X14633729Y6475270D01*
X14635894Y6470535D01*
X14637170Y6467647D01*
X14639228Y6462825D01*
X14639819Y6461416D01*
X14939635Y5734242D01*
X14940222Y5732792D01*
X14942164Y5727908D01*
X14943277Y5725004D01*
X14945063Y5720162D01*
X14945591Y5718703D01*
X15208565Y4977324D01*
X15209077Y4975852D01*
X15210761Y4970908D01*
X15211726Y4967953D01*
X15213270Y4963018D01*
X15213726Y4961529D01*
X15439179Y4207850D01*
X15439616Y4206353D01*
X15441038Y4201372D01*
X15441849Y4198391D01*
X15443162Y4193316D01*
X15443547Y4191788D01*
X15630870Y3427845D01*
X15631232Y3426330D01*
X15632413Y3421238D01*
X15633076Y3418207D01*
X15634132Y3413066D01*
X15634418Y3411631D01*
X15783181Y2639203D01*
X15783466Y2637676D01*
X15784399Y2632482D01*
X15784912Y2629401D01*
X15785689Y2624347D01*
X15785915Y2622816D01*
X15895750Y1843756D01*
X15895959Y1842204D01*
X15896609Y1837131D01*
X15896964Y1834053D01*
X15897495Y1828888D01*
X15897645Y1827334D01*
X15968240Y1043817D01*
X15968370Y1042268D01*
X15968770Y1037105D01*
X15968971Y1034006D01*
X15969240Y1028865D01*
X15969312Y1027302D01*
X16000504Y241158D01*
X16000555Y239602D01*
X16000693Y234511D01*
X16000739Y231410D01*
X16000750Y226153D01*
X16000743Y224586D01*
X15992447Y-561997D01*
X15992422Y-563523D01*
X15992304Y-568685D01*
X15992191Y-571836D01*
X15991938Y-577072D01*
X15991854Y-578615D01*
X15944104Y-1363724D01*
X15944000Y-1365279D01*
X15943615Y-1370521D01*
X15943349Y-1373610D01*
X15942842Y-1378750D01*
X15942679Y-1380307D01*
X15855581Y-2162125D01*
X15855397Y-2163680D01*
X15854751Y-2168881D01*
X15854336Y-2171910D01*
X15853699Y-2176174D01*
X15853566Y-2177063D01*
X15853326Y-2178595D01*
X15727114Y-2955005D01*
X15726855Y-2956541D01*
X15725946Y-2961721D01*
X15725373Y-2964761D01*
X15724361Y-2969788D01*
X15724041Y-2971329D01*
X15558999Y-3740561D01*
X15558662Y-3742083D01*
X15557526Y-3747071D01*
X15556799Y-3750091D01*
X15555512Y-3755153D01*
X15555118Y-3756662D01*
X15351710Y-4516548D01*
X15351298Y-4518050D01*
X15349887Y-4523068D01*
X15349012Y-4526036D01*
X15347484Y-4530992D01*
X15347011Y-4532492D01*
X15105722Y-5281229D01*
X15105235Y-5282708D01*
X15103579Y-5287634D01*
X15102546Y-5290582D01*
X15100786Y-5295411D01*
X15100249Y-5296858D01*
X14821685Y-6032569D01*
X14821118Y-6034037D01*
X14819218Y-6038869D01*
X14818052Y-6041731D01*
X14816020Y-6046543D01*
X14815403Y-6047977D01*
X14500288Y-6768742D01*
X14499649Y-6770179D01*
X14497521Y-6774883D01*
X14496208Y-6777693D01*
X14493953Y-6782363D01*
X14493270Y-6783755D01*
X14142368Y-7487834D01*
X14141658Y-7489235D01*
X14139283Y-7493853D01*
X14137831Y-7496592D01*
X14135331Y-7501168D01*
X14134577Y-7502527D01*
X13748809Y-8188070D01*
X13748034Y-8189427D01*
X13745448Y-8193890D01*
X13743853Y-8196566D01*
X13741142Y-8200985D01*
X13740325Y-8202299D01*
X13320586Y-8867708D01*
X13319751Y-8869013D01*
X13316946Y-8873339D01*
X13315212Y-8875940D01*
X13312307Y-8880182D01*
X13311424Y-8881455D01*
X12858850Y-9524924D01*
X12857955Y-9526180D01*
X12854915Y-9530390D01*
X12853043Y-9532914D01*
X12849897Y-9537046D01*
X12848956Y-9538266D01*
X12364713Y-10158152D01*
X12363749Y-10159370D01*
X12360457Y-10163477D01*
X12358476Y-10165886D01*
X12355177Y-10169796D01*
X12354169Y-10170976D01*
X11839388Y-10765830D01*
X11838351Y-10767012D01*
X11834869Y-10770934D01*
X11832797Y-10773210D01*
X11829290Y-10776968D01*
X11828209Y-10778113D01*
X11284215Y-11346396D01*
X11283122Y-11347523D01*
X11279503Y-11351209D01*
X11277295Y-11353403D01*
X11273532Y-11357048D01*
X11272417Y-11358114D01*
X10700631Y-11898349D01*
X10699503Y-11899402D01*
X10695705Y-11902902D01*
X10693371Y-11904998D01*
X10689474Y-11908411D01*
X10688306Y-11909422D01*
X10090080Y-12420326D01*
X10088906Y-12421316D01*
X10084934Y-12424624D01*
X10082500Y-12426599D01*
X10078435Y-12429814D01*
X10077210Y-12430771D01*
X9454145Y-12910977D01*
X9452910Y-12911916D01*
X9448734Y-12915052D01*
X9446217Y-12916894D01*
X9442021Y-12919883D01*
X9440749Y-12920776D01*
X8794329Y-13369142D01*
X8793042Y-13370024D01*
X8788754Y-13372919D01*
X8786151Y-13374629D01*
X8781786Y-13377419D01*
X8780474Y-13378245D01*
X8112375Y-13793605D01*
X8111042Y-13794422D01*
X8106639Y-13797083D01*
X8103973Y-13798650D01*
X8099390Y-13801266D01*
X8098023Y-13802035D01*
X7700433Y-14022361D01*
X7409964Y-14183325D01*
X7408733Y-14183997D01*
X7404055Y-14186513D01*
X7401327Y-14187936D01*
X7396652Y-14190301D01*
X7395262Y-14190993D01*
X6688952Y-14537267D01*
X6687575Y-14537931D01*
X6682878Y-14540162D01*
X6680051Y-14541461D01*
X6675231Y-14543602D01*
X6673823Y-14544217D01*
X5950146Y-14854991D01*
X5948890Y-14855522D01*
X5944628Y-14857297D01*
X5942110Y-14858314D01*
X5937954Y-14859939D01*
X5936676Y-14860431D01*
X5624312Y-14978604D01*
X5613660Y-14982092D01*
X5577696Y-14992094D01*
X5555670Y-14996121D01*
X5529149Y-14998525D01*
X5518503Y-14999491D01*
X5507308Y-14999998D01*
X-5507308Y-14999998D01*
X-5518505Y-14999491D01*
X-5524645Y-14998934D01*
X-5555670Y-14996121D01*
X-5577697Y-14992094D01*
X-5613661Y-14982092D01*
X-5624313Y-14978604D01*
X-5936677Y-14860431D01*
X-5937881Y-14859967D01*
X-5942127Y-14858307D01*
X-5944629Y-14857297D01*
X-5948891Y-14855522D01*
X-5950147Y-14854991D01*
X-6673824Y-14544217D01*
X-6675232Y-14543602D01*
X-6680052Y-14541461D01*
X-6682850Y-14540176D01*
X-6687635Y-14537903D01*
X-6688953Y-14537267D01*
X-7395263Y-14190993D01*
X-7396653Y-14190301D01*
X-7401328Y-14187936D01*
X-7404024Y-14186530D01*
X-7408800Y-14183961D01*
X-7409897Y-14183362D01*
X-8098042Y-13802025D01*
X-8099391Y-13801266D01*
X-8103974Y-13798650D01*
X-8106640Y-13797083D01*
X-8111043Y-13794422D01*
X-8112376Y-13793605D01*
X-8780475Y-13378245D01*
X-8781787Y-13377419D01*
X-8784115Y-13375931D01*
X-8786172Y-13374616D01*
X-8788720Y-13372942D01*
X-8793138Y-13369959D01*
X-8794330Y-13369142D01*
X-9440750Y-12920776D01*
X-9442022Y-12919883D01*
X-9446241Y-12916877D01*
X-9448735Y-12915052D01*
X-9452911Y-12911916D01*
X-9454146Y-12910977D01*
X-9906769Y-12562133D01*
X-10077228Y-12430757D01*
X-10078436Y-12429814D01*
X-10082501Y-12426599D01*
X-10084885Y-12424664D01*
X-10088907Y-12421316D01*
X-10090081Y-12420326D01*
X-10688307Y-11909422D01*
X-10689475Y-11908411D01*
X-10693372Y-11904998D01*
X-10695686Y-11902920D01*
X-10699518Y-11899389D01*
X-10700632Y-11898349D01*
X-11272418Y-11358114D01*
X-11273533Y-11357048D01*
X-11277296Y-11353403D01*
X-11279504Y-11351209D01*
X-11283123Y-11347523D01*
X-11284168Y-11346446D01*
X-11828210Y-10778113D01*
X-11829291Y-10776968D01*
X-11832798Y-10773210D01*
X-11834870Y-10770934D01*
X-11838352Y-10767012D01*
X-11839389Y-10765830D01*
X-12340231Y-10187083D01*
X-12354178Y-10170967D01*
X-12355132Y-10169850D01*
X-12358491Y-10165869D01*
X-12360458Y-10163477D01*
X-12363750Y-10159370D01*
X-12364714Y-10158152D01*
X-12488080Y-10000229D01*
X-12848981Y-9538235D01*
X-12849898Y-9537046D01*
X-12851083Y-9535489D01*
X-12853069Y-9532881D01*
X-12854887Y-9530429D01*
X-12857956Y-9526180D01*
X-12858851Y-9524924D01*
X-13156226Y-9102117D01*
X-13311455Y-8881413D01*
X-13312264Y-8880245D01*
X-13315254Y-8875878D01*
X-13316898Y-8873413D01*
X-13319833Y-8868886D01*
X-13320539Y-8867784D01*
X-13678339Y-8300566D01*
X-13740326Y-8202299D01*
X-13741143Y-8200985D01*
X-13743854Y-8196566D01*
X-13745449Y-8193890D01*
X-13748076Y-8189355D01*
X-13748774Y-8188134D01*
X-14134602Y-7502483D01*
X-14135332Y-7501168D01*
X-14135971Y-7499998D01*
X-14137850Y-7496559D01*
X-14139284Y-7493853D01*
X-14141659Y-7489235D01*
X-14142333Y-7487906D01*
X-14475630Y-6819152D01*
X-14493271Y-6783755D01*
X-14493954Y-6782363D01*
X-14496227Y-6777656D01*
X-14497522Y-6774883D01*
X-14499690Y-6770089D01*
X-14500289Y-6768742D01*
X-14588651Y-6566632D01*
X-14684567Y-6347241D01*
X-14815404Y-6047977D01*
X-14816021Y-6046543D01*
X-14818053Y-6041731D01*
X-14819219Y-6038869D01*
X-14821119Y-6034037D01*
X-14821656Y-6032647D01*
X-15100250Y-5296858D01*
X-15100787Y-5295411D01*
X-15102547Y-5290582D01*
X-15103580Y-5287634D01*
X-15105272Y-5282599D01*
X-15105690Y-5281331D01*
X-15347049Y-4532377D01*
X-15347442Y-4531128D01*
X-15349029Y-4525985D01*
X-15349872Y-4523122D01*
X-15351310Y-4518010D01*
X-15351711Y-4516548D01*
X-15370500Y-4446357D01*
X-15555139Y-3756587D01*
X-15555486Y-3755259D01*
X-15556807Y-3750063D01*
X-15557527Y-3747071D01*
X-15558663Y-3742083D01*
X-15559000Y-3740561D01*
X-15724068Y-2971207D01*
X-15724329Y-2969951D01*
X-15725380Y-2964730D01*
X-15725947Y-2961721D01*
X-15726511Y-2958506D01*
X-15726870Y-2956461D01*
X-15727115Y-2955005D01*
X-15727146Y-2954815D01*
X-15853328Y-2178593D01*
X-15853548Y-2177185D01*
X-15854349Y-2171832D01*
X-15854752Y-2168881D01*
X-15855398Y-2163680D01*
X-15855567Y-2162252D01*
X-15942694Y-1380174D01*
X-15942833Y-1378852D01*
X-15943351Y-1373605D01*
X-15943616Y-1370521D01*
X-15944001Y-1365279D01*
X-15944097Y-1363849D01*
X-15958494Y-1127127D01*
X-14175500Y-1127127D01*
X-14175500Y-1127134D01*
X-14175500Y-1127135D01*
X-14175500Y-1622870D01*
X-14175499Y-1622876D01*
X-14169092Y-1682483D01*
X-14118798Y-1817328D01*
X-14118794Y-1817335D01*
X-14032548Y-1932544D01*
X-14032545Y-1932547D01*
X-13917336Y-2018793D01*
X-13917329Y-2018797D01*
X-13872382Y-2035561D01*
X-13782483Y-2069091D01*
X-13722873Y-2075500D01*
X-13207677Y-2075499D01*
X-13140638Y-2095183D01*
X-13094883Y-2147987D01*
X-13084939Y-2217146D01*
X-13113964Y-2280702D01*
X-13119996Y-2287180D01*
X-13120997Y-2288181D01*
X-13182320Y-2321666D01*
X-13208678Y-2324500D01*
X-13722871Y-2324500D01*
X-13722877Y-2324501D01*
X-13782484Y-2330908D01*
X-13917329Y-2381202D01*
X-13917336Y-2381206D01*
X-14032545Y-2467452D01*
X-14032548Y-2467455D01*
X-14118794Y-2582664D01*
X-14118798Y-2582671D01*
X-14164605Y-2705489D01*
X-14169091Y-2717517D01*
X-14175500Y-2777127D01*
X-14175500Y-2777134D01*
X-14175500Y-2777135D01*
X-14175500Y-3272870D01*
X-14175499Y-3272876D01*
X-14169092Y-3332483D01*
X-14118798Y-3467328D01*
X-14118794Y-3467335D01*
X-14032548Y-3582544D01*
X-14032545Y-3582547D01*
X-13917336Y-3668793D01*
X-13917329Y-3668797D01*
X-13899357Y-3675500D01*
X-13782483Y-3719091D01*
X-13722873Y-3725500D01*
X-13469046Y-3725499D01*
X-13402009Y-3745183D01*
X-13356254Y-3797987D01*
X-13346310Y-3867146D01*
X-13375335Y-3930701D01*
X-13425713Y-3965680D01*
X-13467327Y-3981201D01*
X-13467336Y-3981206D01*
X-13582545Y-4067452D01*
X-13582548Y-4067455D01*
X-13668794Y-4182664D01*
X-13668798Y-4182671D01*
X-13719090Y-4317513D01*
X-13719091Y-4317517D01*
X-13725500Y-4377127D01*
X-13725500Y-4377134D01*
X-13725500Y-4377135D01*
X-13725500Y-5022870D01*
X-13725499Y-5022876D01*
X-13719092Y-5082483D01*
X-13668798Y-5217328D01*
X-13668797Y-5217329D01*
X-13668796Y-5217331D01*
X-13582547Y-5332544D01*
X-13582546Y-5332546D01*
X-13575192Y-5338051D01*
X-13533319Y-5393983D01*
X-13525500Y-5437320D01*
X-13525500Y-5762679D01*
X-13545185Y-5829718D01*
X-13575187Y-5861944D01*
X-13582541Y-5867449D01*
X-13582549Y-5867457D01*
X-13668794Y-5982664D01*
X-13668798Y-5982671D01*
X-13719090Y-6117513D01*
X-13719091Y-6117517D01*
X-13725500Y-6177127D01*
X-13725500Y-6177134D01*
X-13725500Y-6177135D01*
X-13725500Y-6822870D01*
X-13725499Y-6822876D01*
X-13719092Y-6882483D01*
X-13668798Y-7017328D01*
X-13668797Y-7017329D01*
X-13668796Y-7017331D01*
X-13582546Y-7132546D01*
X-13578245Y-7135766D01*
X-13575192Y-7138051D01*
X-13533319Y-7193983D01*
X-13525500Y-7237320D01*
X-13525500Y-7834108D01*
X-13525500Y-7965892D01*
X-13517125Y-7997149D01*
X-13491392Y-8093187D01*
X-13465330Y-8138326D01*
X-13425500Y-8207314D01*
X-12432314Y-9200500D01*
X-11461819Y-10170994D01*
X-11428334Y-10232317D01*
X-11425500Y-10258675D01*
X-11425500Y-10522869D01*
X-11425499Y-10522876D01*
X-11419092Y-10582483D01*
X-11368798Y-10717328D01*
X-11368794Y-10717335D01*
X-11282548Y-10832544D01*
X-11282545Y-10832547D01*
X-11167336Y-10918793D01*
X-11167329Y-10918797D01*
X-11122382Y-10935561D01*
X-11032483Y-10969091D01*
X-10972873Y-10975500D01*
X-10708677Y-10975499D01*
X-10641638Y-10995183D01*
X-10620996Y-11011818D01*
X-9932314Y-11700500D01*
X-9818186Y-11766392D01*
X-9690892Y-11800500D01*
X-9559107Y-11800500D01*
X-7741461Y-11800500D01*
X-7674422Y-11820185D01*
X-7647752Y-11843293D01*
X-7631819Y-11861681D01*
X-7631816Y-11861684D01*
X-7523170Y-11955826D01*
X-7523163Y-11955831D01*
X-7523158Y-11955835D01*
X-7493899Y-11974638D01*
X-7450016Y-12002841D01*
X-7449999Y-12002850D01*
X-7319232Y-12062569D01*
X-7319225Y-12062572D01*
X-7235793Y-12087070D01*
X-7235792Y-12087070D01*
X-7235789Y-12087071D01*
X-7193354Y-12093171D01*
X-7093478Y-12107532D01*
X-7006524Y-12107533D01*
X-7001162Y-12106761D01*
X-6983516Y-12105500D01*
X-6616484Y-12105500D01*
X-6598839Y-12106761D01*
X-6593476Y-12107533D01*
X-6506522Y-12107532D01*
X-6392288Y-12091107D01*
X-6364212Y-12087071D01*
X-6364211Y-12087070D01*
X-6364207Y-12087070D01*
X-6280775Y-12062572D01*
X-6210758Y-12030596D01*
X-6150002Y-12002850D01*
X-6149995Y-12002846D01*
X-6149990Y-12002844D01*
X-6076842Y-11955835D01*
X-6076834Y-11955828D01*
X-6076831Y-11955826D01*
X-6010499Y-11898349D01*
X-5968181Y-11861681D01*
X-5952250Y-11843295D01*
X-5893474Y-11805523D01*
X-5858539Y-11800500D01*
X-4899500Y-11800500D01*
X-4832461Y-11820185D01*
X-4786706Y-11872989D01*
X-4775500Y-11924500D01*
X-4775500Y-12030602D01*
X-4771661Y-12062569D01*
X-4764878Y-12119061D01*
X-4709361Y-12259843D01*
X-4617923Y-12380422D01*
X-4497344Y-12471860D01*
X-4497343Y-12471860D01*
X-4497342Y-12471861D01*
X-4356564Y-12527377D01*
X-4268102Y-12538000D01*
X-3847179Y-12538000D01*
X-3780140Y-12557685D01*
X-3734385Y-12610489D01*
X-3724441Y-12679647D01*
X-3751326Y-12740665D01*
X-3887709Y-12906846D01*
X-3986371Y-13091428D01*
X-4047128Y-13291715D01*
X-4067641Y-13500000D01*
X-4047128Y-13708284D01*
X-4018922Y-13801266D01*
X-3986372Y-13908569D01*
X-3890642Y-14087667D01*
X-3887709Y-14093153D01*
X-3754937Y-14254936D01*
X-3593154Y-14387708D01*
X-3593150Y-14387711D01*
X-3408569Y-14486372D01*
X-3208286Y-14547127D01*
X-3000000Y-14567641D01*
X-2791714Y-14547127D01*
X-2591431Y-14486372D01*
X-2406850Y-14387711D01*
X-2245064Y-14254936D01*
X-2112289Y-14093150D01*
X-2109358Y-14087665D01*
X-2060397Y-14037822D01*
X-1992260Y-14022361D01*
X-1926580Y-14046192D01*
X-1890643Y-14087664D01*
X-1887711Y-14093150D01*
X-1887709Y-14093153D01*
X-1754937Y-14254936D01*
X-1593154Y-14387708D01*
X-1593150Y-14387711D01*
X-1408569Y-14486372D01*
X-1208286Y-14547127D01*
X-1000000Y-14567641D01*
X-791714Y-14547127D01*
X-591431Y-14486372D01*
X-406850Y-14387711D01*
X-245064Y-14254936D01*
X-112289Y-14093150D01*
X-109358Y-14087665D01*
X-60397Y-14037822D01*
X7740Y-14022361D01*
X73420Y-14046192D01*
X109357Y-14087664D01*
X112289Y-14093150D01*
X112291Y-14093153D01*
X245063Y-14254936D01*
X406846Y-14387708D01*
X406850Y-14387711D01*
X591431Y-14486372D01*
X791714Y-14547127D01*
X1000000Y-14567641D01*
X1208286Y-14547127D01*
X1408569Y-14486372D01*
X1593150Y-14387711D01*
X1754936Y-14254936D01*
X1887711Y-14093150D01*
X1890642Y-14087665D01*
X1939603Y-14037822D01*
X2007740Y-14022361D01*
X2073420Y-14046192D01*
X2109357Y-14087664D01*
X2112289Y-14093150D01*
X2112291Y-14093153D01*
X2245063Y-14254936D01*
X2406846Y-14387708D01*
X2406850Y-14387711D01*
X2591431Y-14486372D01*
X2791714Y-14547127D01*
X3000000Y-14567641D01*
X3208286Y-14547127D01*
X3408569Y-14486372D01*
X3593150Y-14387711D01*
X3754936Y-14254936D01*
X3887711Y-14093150D01*
X3986372Y-13908569D01*
X4047127Y-13708286D01*
X4067641Y-13500000D01*
X4047127Y-13291714D01*
X3986372Y-13091431D01*
X3887711Y-12906850D01*
X3806722Y-12808165D01*
X3779409Y-12743855D01*
X3791200Y-12674988D01*
X3838352Y-12623427D01*
X3902575Y-12605500D01*
X4104270Y-12605500D01*
X4134699Y-12602646D01*
X4134701Y-12602646D01*
X4198790Y-12580219D01*
X4262882Y-12557793D01*
X4372150Y-12477150D01*
X4452793Y-12367882D01*
X4475219Y-12303790D01*
X4497646Y-12239701D01*
X4497646Y-12239699D01*
X4500500Y-12209269D01*
X4500500Y-11800730D01*
X4497646Y-11770300D01*
X4497646Y-11770298D01*
X4452793Y-11642119D01*
X4452792Y-11642117D01*
X4372150Y-11532850D01*
X4286677Y-11469768D01*
X4244428Y-11414123D01*
X4238969Y-11344467D01*
X4272036Y-11282917D01*
X4286670Y-11270236D01*
X4372150Y-11207150D01*
X4452793Y-11097882D01*
X4488729Y-10995183D01*
X4497646Y-10969701D01*
X4497646Y-10969699D01*
X4500500Y-10939269D01*
X4500500Y-10530730D01*
X4497646Y-10500300D01*
X4497646Y-10500298D01*
X4452793Y-10372119D01*
X4452792Y-10372117D01*
X4445593Y-10362363D01*
X4372150Y-10262850D01*
X4286677Y-10199768D01*
X4244428Y-10144123D01*
X4238969Y-10074467D01*
X4272036Y-10012917D01*
X4286670Y-10000236D01*
X4372150Y-9937150D01*
X4452793Y-9827882D01*
X4482604Y-9742686D01*
X4497646Y-9699701D01*
X4497646Y-9699699D01*
X4500500Y-9669269D01*
X4500500Y-9260730D01*
X6899500Y-9260730D01*
X6899500Y-9669269D01*
X6902353Y-9699699D01*
X6902353Y-9699701D01*
X6943580Y-9817517D01*
X6947207Y-9827882D01*
X7027850Y-9937150D01*
X7113321Y-10000230D01*
X7155571Y-10055877D01*
X7161030Y-10125534D01*
X7127962Y-10187083D01*
X7113321Y-10199769D01*
X7085962Y-10219962D01*
X7027850Y-10262850D01*
X6947207Y-10372117D01*
X6947206Y-10372119D01*
X6902353Y-10500298D01*
X6902353Y-10500300D01*
X6899500Y-10530730D01*
X6899500Y-10939269D01*
X6902353Y-10969699D01*
X6902353Y-10969701D01*
X6947206Y-11097880D01*
X6947207Y-11097882D01*
X7027850Y-11207150D01*
X7113321Y-11270230D01*
X7155571Y-11325877D01*
X7161030Y-11395534D01*
X7127962Y-11457083D01*
X7113321Y-11469769D01*
X7027850Y-11532850D01*
X6947207Y-11642117D01*
X6947206Y-11642119D01*
X6902353Y-11770298D01*
X6902353Y-11770300D01*
X6899500Y-11800730D01*
X6899500Y-12209269D01*
X6902353Y-12239699D01*
X6902353Y-12239701D01*
X6947206Y-12367880D01*
X6947207Y-12367882D01*
X7027850Y-12477150D01*
X7137118Y-12557793D01*
X7179845Y-12572744D01*
X7265299Y-12602646D01*
X7295730Y-12605500D01*
X7295734Y-12605500D01*
X9054270Y-12605500D01*
X9084699Y-12602646D01*
X9084701Y-12602646D01*
X9148790Y-12580219D01*
X9212882Y-12557793D01*
X9322150Y-12477150D01*
X9402793Y-12367882D01*
X9425219Y-12303790D01*
X9447646Y-12239701D01*
X9447646Y-12239699D01*
X9450500Y-12209269D01*
X9450500Y-11800730D01*
X9447646Y-11770300D01*
X9447646Y-11770298D01*
X9402793Y-11642119D01*
X9402792Y-11642117D01*
X9322150Y-11532850D01*
X9236678Y-11469769D01*
X9194428Y-11414121D01*
X9188969Y-11344465D01*
X9222037Y-11282916D01*
X9236670Y-11270236D01*
X9250914Y-11259723D01*
X9316545Y-11235758D01*
X9324540Y-11235500D01*
X9505890Y-11235500D01*
X9505892Y-11235500D01*
X9633186Y-11201392D01*
X9747314Y-11135500D01*
X10420995Y-10461819D01*
X10482318Y-10428334D01*
X10508676Y-10425500D01*
X10791138Y-10425500D01*
X10791144Y-10425500D01*
X10875590Y-10415359D01*
X11009975Y-10362364D01*
X11125078Y-10275078D01*
X11212364Y-10159975D01*
X11265359Y-10025590D01*
X11275500Y-9941144D01*
X11275500Y-9658676D01*
X11295185Y-9591637D01*
X11311819Y-9570995D01*
X12100331Y-8782483D01*
X12950500Y-7932314D01*
X13016392Y-7818186D01*
X13050500Y-7690892D01*
X13050500Y-7559107D01*
X13050500Y-6936521D01*
X13070185Y-6869482D01*
X13122989Y-6823727D01*
X13128990Y-6821174D01*
X13222342Y-6784361D01*
X13342922Y-6692922D01*
X13434361Y-6572342D01*
X13489877Y-6431564D01*
X13500500Y-6343102D01*
X13500500Y-5508676D01*
X13520185Y-5441637D01*
X13536819Y-5420995D01*
X13989378Y-4968436D01*
X14500500Y-4457314D01*
X14566392Y-4343186D01*
X14600500Y-4215892D01*
X14600500Y-4215888D01*
X14600954Y-4214194D01*
X14637319Y-4154534D01*
X14646399Y-4147035D01*
X14732546Y-4082546D01*
X14818796Y-3967331D01*
X14869091Y-3832483D01*
X14875500Y-3772873D01*
X14875499Y-3277128D01*
X14869091Y-3217517D01*
X14854027Y-3177129D01*
X14818797Y-3082671D01*
X14818793Y-3082664D01*
X14732547Y-2967455D01*
X14732544Y-2967452D01*
X14617335Y-2881206D01*
X14617328Y-2881202D01*
X14482486Y-2830910D01*
X14482485Y-2830909D01*
X14482483Y-2830909D01*
X14422873Y-2824500D01*
X14422863Y-2824500D01*
X13777129Y-2824500D01*
X13777123Y-2824501D01*
X13717516Y-2830908D01*
X13582671Y-2881202D01*
X13582664Y-2881206D01*
X13467455Y-2967452D01*
X13467452Y-2967455D01*
X13381206Y-3082664D01*
X13381202Y-3082671D01*
X13334714Y-3207314D01*
X13330909Y-3217517D01*
X13324500Y-3277127D01*
X13324500Y-3277134D01*
X13324500Y-3277135D01*
X13324500Y-3772870D01*
X13324501Y-3772876D01*
X13330908Y-3832483D01*
X13381202Y-3967328D01*
X13381203Y-3967330D01*
X13399717Y-3992061D01*
X13424134Y-4057525D01*
X13409283Y-4125798D01*
X13388131Y-4154053D01*
X13029005Y-4513181D01*
X12967682Y-4546666D01*
X12941324Y-4549500D01*
X12106898Y-4549500D01*
X12067853Y-4554188D01*
X12018438Y-4560122D01*
X11877656Y-4615639D01*
X11757077Y-4707077D01*
X11665639Y-4827656D01*
X11610122Y-4968437D01*
X11607396Y-4991144D01*
X11603587Y-5022869D01*
X11601446Y-5040697D01*
X11573909Y-5104911D01*
X11516026Y-5144044D01*
X11446176Y-5145671D01*
X11420708Y-5135712D01*
X11410225Y-5130210D01*
X11410222Y-5130209D01*
X11245056Y-5089500D01*
X11074944Y-5089500D01*
X10909773Y-5130210D01*
X10759150Y-5209263D01*
X10631816Y-5322072D01*
X10535182Y-5462068D01*
X10474860Y-5621125D01*
X10474859Y-5621130D01*
X10454355Y-5790000D01*
X10474859Y-5958869D01*
X10474860Y-5958874D01*
X10535182Y-6117931D01*
X10576049Y-6177136D01*
X10631817Y-6257929D01*
X10720499Y-6336494D01*
X10759150Y-6370736D01*
X10909773Y-6449789D01*
X10909775Y-6449790D01*
X11074944Y-6490500D01*
X11245056Y-6490500D01*
X11410225Y-6449790D01*
X11459494Y-6423931D01*
X11527999Y-6410206D01*
X11593052Y-6435697D01*
X11632471Y-6488236D01*
X11648549Y-6529005D01*
X11665639Y-6572343D01*
X11757077Y-6692922D01*
X11877656Y-6784360D01*
X11877657Y-6784360D01*
X11877658Y-6784361D01*
X11970991Y-6821167D01*
X12026134Y-6864072D01*
X12049327Y-6929980D01*
X12049500Y-6936521D01*
X12049500Y-7366324D01*
X12029815Y-7433363D01*
X12013181Y-7454005D01*
X10579005Y-8888181D01*
X10517682Y-8921666D01*
X10491324Y-8924500D01*
X10208856Y-8924500D01*
X10170841Y-8929065D01*
X10124411Y-8934640D01*
X9990023Y-8987636D01*
X9874921Y-9074921D01*
X9787636Y-9190023D01*
X9734640Y-9324411D01*
X9733182Y-9336557D01*
X9724500Y-9408856D01*
X9724500Y-9408862D01*
X9724500Y-9691323D01*
X9704815Y-9758362D01*
X9688181Y-9779004D01*
X9657344Y-9809841D01*
X9596021Y-9843326D01*
X9526329Y-9838342D01*
X9470396Y-9796470D01*
X9445979Y-9731006D01*
X9447687Y-9707281D01*
X9446942Y-9707212D01*
X9450500Y-9669269D01*
X9450500Y-9260730D01*
X9447646Y-9230300D01*
X9447646Y-9230298D01*
X9402793Y-9102119D01*
X9402792Y-9102117D01*
X9393552Y-9089597D01*
X9322150Y-8992850D01*
X9212882Y-8912207D01*
X9212880Y-8912206D01*
X9084700Y-8867353D01*
X9054270Y-8864500D01*
X9054266Y-8864500D01*
X7295734Y-8864500D01*
X7295730Y-8864500D01*
X7265300Y-8867353D01*
X7265298Y-8867353D01*
X7137119Y-8912206D01*
X7137117Y-8912207D01*
X7027850Y-8992850D01*
X6947207Y-9102117D01*
X6947206Y-9102119D01*
X6902353Y-9230298D01*
X6902353Y-9230300D01*
X6899500Y-9260730D01*
X4500500Y-9260730D01*
X4497646Y-9230300D01*
X4497646Y-9230298D01*
X4452793Y-9102119D01*
X4452792Y-9102117D01*
X4432721Y-9074922D01*
X4372150Y-8992850D01*
X4286677Y-8929768D01*
X4244428Y-8874123D01*
X4238969Y-8804467D01*
X4272036Y-8742917D01*
X4286670Y-8730236D01*
X4372150Y-8667150D01*
X4452793Y-8557882D01*
X4475732Y-8492325D01*
X4497646Y-8429701D01*
X4497646Y-8429699D01*
X4500500Y-8399269D01*
X4500500Y-7990730D01*
X4497646Y-7960300D01*
X4497646Y-7960298D01*
X4452793Y-7832119D01*
X4452792Y-7832117D01*
X4448757Y-7826650D01*
X4372150Y-7722850D01*
X4262882Y-7642207D01*
X4262880Y-7642206D01*
X4134700Y-7597353D01*
X4104270Y-7594500D01*
X4104266Y-7594500D01*
X3875177Y-7594500D01*
X3808138Y-7574815D01*
X3762383Y-7522011D01*
X3752439Y-7452853D01*
X3781464Y-7389297D01*
X3787495Y-7382819D01*
X3846926Y-7323388D01*
X3923039Y-7247274D01*
X3959858Y-7223614D01*
X3959548Y-7223046D01*
X3967325Y-7218797D01*
X3967331Y-7218796D01*
X4082546Y-7132546D01*
X4168796Y-7017331D01*
X4219091Y-6882483D01*
X4225500Y-6822873D01*
X4225499Y-6704014D01*
X4245183Y-6636977D01*
X4297987Y-6591222D01*
X4367145Y-6581278D01*
X4430701Y-6610302D01*
X4464927Y-6658713D01*
X4496603Y-6739421D01*
X4521396Y-6782363D01*
X4622163Y-6956897D01*
X4670357Y-7017330D01*
X4778739Y-7153237D01*
X4930870Y-7294393D01*
X4962822Y-7324040D01*
X5170309Y-7465502D01*
X5170314Y-7465504D01*
X5170315Y-7465505D01*
X5170316Y-7465506D01*
X5247192Y-7502527D01*
X5396559Y-7574458D01*
X5396560Y-7574458D01*
X5396563Y-7574460D01*
X5636529Y-7648480D01*
X5884847Y-7685908D01*
X5884848Y-7685908D01*
X6135968Y-7685908D01*
X6135969Y-7685908D01*
X6384287Y-7648480D01*
X6624253Y-7574460D01*
X6850507Y-7465502D01*
X7057994Y-7324040D01*
X7236254Y-7158639D01*
X7242076Y-7153237D01*
X7242076Y-7153235D01*
X7242080Y-7153233D01*
X7398653Y-6956897D01*
X7524214Y-6739419D01*
X7615960Y-6505655D01*
X7671840Y-6260829D01*
X7681893Y-6126674D01*
X7690606Y-6010412D01*
X7690606Y-6010403D01*
X7671840Y-5759988D01*
X7663911Y-5725249D01*
X7615960Y-5515161D01*
X7524214Y-5281397D01*
X7524213Y-5281396D01*
X7524214Y-5281396D01*
X7463973Y-5177056D01*
X7398653Y-5063919D01*
X7242080Y-4867583D01*
X7242079Y-4867582D01*
X7242076Y-4867578D01*
X7057994Y-4696776D01*
X6976659Y-4641323D01*
X6850507Y-4555314D01*
X6850504Y-4555313D01*
X6850502Y-4555311D01*
X6758943Y-4511219D01*
X6707084Y-4464397D01*
X6688771Y-4396969D01*
X6709819Y-4330346D01*
X6763545Y-4285677D01*
X6812741Y-4275499D01*
X7222872Y-4275499D01*
X7282483Y-4269091D01*
X7417331Y-4218796D01*
X7532546Y-4132546D01*
X7618796Y-4017331D01*
X7669091Y-3882483D01*
X7675500Y-3822873D01*
X7675499Y-3177128D01*
X7669091Y-3117517D01*
X7656094Y-3082671D01*
X7618797Y-2982671D01*
X7618793Y-2982664D01*
X7538137Y-2874923D01*
X7532546Y-2867454D01*
X7532542Y-2867451D01*
X7532540Y-2867449D01*
X7525187Y-2861944D01*
X7483317Y-2806009D01*
X7475500Y-2762679D01*
X7475500Y-2743392D01*
X7495185Y-2676353D01*
X7547989Y-2630598D01*
X7617147Y-2620654D01*
X7631585Y-2623616D01*
X7666607Y-2633000D01*
X7666608Y-2633000D01*
X8008088Y-2633000D01*
X8075127Y-2652685D01*
X8120882Y-2705489D01*
X8130826Y-2774647D01*
X8101801Y-2838203D01*
X8082403Y-2856262D01*
X8070854Y-2864908D01*
X8067451Y-2867456D01*
X7981206Y-2982664D01*
X7981202Y-2982671D01*
X7943647Y-3083364D01*
X7930909Y-3117517D01*
X7924500Y-3177127D01*
X7924500Y-3177134D01*
X7924500Y-3177135D01*
X7924500Y-3822870D01*
X7924501Y-3822876D01*
X7930908Y-3882483D01*
X7981202Y-4017328D01*
X7981206Y-4017335D01*
X8067452Y-4132544D01*
X8067455Y-4132547D01*
X8182664Y-4218793D01*
X8182671Y-4218797D01*
X8200643Y-4225500D01*
X8317517Y-4269091D01*
X8377127Y-4275500D01*
X8872872Y-4275499D01*
X8932483Y-4269091D01*
X9067331Y-4218796D01*
X9182546Y-4132546D01*
X9244199Y-4050188D01*
X9300132Y-4008318D01*
X9343465Y-4000500D01*
X9656779Y-4000500D01*
X9723818Y-4020185D01*
X9755580Y-4049572D01*
X9774922Y-4075078D01*
X9774926Y-4075081D01*
X9890023Y-4162363D01*
X9890024Y-4162363D01*
X9890025Y-4162364D01*
X10024410Y-4215359D01*
X10108856Y-4225500D01*
X10108862Y-4225500D01*
X10691138Y-4225500D01*
X10691144Y-4225500D01*
X10775590Y-4215359D01*
X10909975Y-4162364D01*
X11025078Y-4075078D01*
X11025079Y-4075077D01*
X11063378Y-4024574D01*
X11119571Y-3983051D01*
X11162181Y-3975500D01*
X11425249Y-3975500D01*
X11492288Y-3995185D01*
X11524515Y-4025188D01*
X11556156Y-4067454D01*
X11567454Y-4082546D01*
X11567457Y-4082548D01*
X11682664Y-4168793D01*
X11682671Y-4168797D01*
X11727618Y-4185561D01*
X11817517Y-4219091D01*
X11877127Y-4225500D01*
X12522872Y-4225499D01*
X12582483Y-4219091D01*
X12717331Y-4168796D01*
X12832546Y-4082546D01*
X12918796Y-3967331D01*
X12969091Y-3832483D01*
X12975500Y-3772873D01*
X12975499Y-3277128D01*
X12969091Y-3217517D01*
X12954027Y-3177129D01*
X12918797Y-3082671D01*
X12918793Y-3082664D01*
X12832547Y-2967455D01*
X12832544Y-2967452D01*
X12717335Y-2881206D01*
X12717328Y-2881202D01*
X12582486Y-2830910D01*
X12582485Y-2830909D01*
X12582483Y-2830909D01*
X12522873Y-2824500D01*
X12522863Y-2824500D01*
X11877129Y-2824500D01*
X11877123Y-2824501D01*
X11817516Y-2830908D01*
X11682671Y-2881202D01*
X11682668Y-2881204D01*
X11591080Y-2949767D01*
X11525615Y-2974184D01*
X11516769Y-2974500D01*
X11162181Y-2974500D01*
X11095142Y-2954815D01*
X11063378Y-2925426D01*
X11025079Y-2874922D01*
X10924702Y-2798804D01*
X10883178Y-2742611D01*
X10878627Y-2672890D01*
X10912492Y-2611776D01*
X10924702Y-2601196D01*
X11025078Y-2525078D01*
X11112363Y-2409976D01*
X11112362Y-2409976D01*
X11112364Y-2409975D01*
X11165359Y-2275590D01*
X11175500Y-2191144D01*
X11175500Y-1658856D01*
X11165359Y-1574410D01*
X11112364Y-1440025D01*
X11112363Y-1440024D01*
X11112363Y-1440023D01*
X11025078Y-1324921D01*
X10909973Y-1237634D01*
X10852206Y-1214854D01*
X10797062Y-1171949D01*
X10773869Y-1106041D01*
X10789990Y-1038056D01*
X10840307Y-989580D01*
X10897696Y-975500D01*
X11479122Y-975500D01*
X11546161Y-995185D01*
X11591916Y-1047989D01*
X11602061Y-1115685D01*
X11594318Y-1174498D01*
X11594318Y-1174503D01*
X11599841Y-1216460D01*
X11589075Y-1285495D01*
X11572000Y-1309780D01*
X11572768Y-1310355D01*
X11481206Y-1432664D01*
X11481202Y-1432671D01*
X11430910Y-1567513D01*
X11430909Y-1567517D01*
X11424500Y-1627127D01*
X11424500Y-1627134D01*
X11424500Y-1627135D01*
X11424500Y-2122870D01*
X11424501Y-2122876D01*
X11430908Y-2182483D01*
X11481202Y-2317328D01*
X11481206Y-2317335D01*
X11567452Y-2432544D01*
X11567455Y-2432547D01*
X11682664Y-2518793D01*
X11682671Y-2518797D01*
X11699512Y-2525078D01*
X11817517Y-2569091D01*
X11877127Y-2575500D01*
X12522872Y-2575499D01*
X12582483Y-2569091D01*
X12717331Y-2518796D01*
X12832546Y-2432546D01*
X12918796Y-2317331D01*
X12969091Y-2182483D01*
X12975500Y-2122873D01*
X12975499Y-1627128D01*
X12969091Y-1567517D01*
X12968761Y-1566633D01*
X12918797Y-1432671D01*
X12918793Y-1432664D01*
X12827232Y-1310355D01*
X12829177Y-1308898D01*
X12801931Y-1259001D01*
X12800158Y-1216457D01*
X12805682Y-1174500D01*
X12805682Y-1174498D01*
X12797939Y-1115685D01*
X12808705Y-1046650D01*
X12855085Y-994394D01*
X12920878Y-975500D01*
X13315889Y-975500D01*
X13315892Y-975500D01*
X13348547Y-966750D01*
X13418395Y-968413D01*
X13476258Y-1007575D01*
X13503578Y-1070339D01*
X13505514Y-1085044D01*
X13514956Y-1156762D01*
X13517654Y-1163276D01*
X13517657Y-1163282D01*
X13525126Y-1232752D01*
X13493851Y-1295231D01*
X13477411Y-1309999D01*
X13467458Y-1317450D01*
X13467451Y-1317457D01*
X13381206Y-1432664D01*
X13381202Y-1432671D01*
X13330910Y-1567513D01*
X13330909Y-1567517D01*
X13324500Y-1627127D01*
X13324500Y-1627134D01*
X13324500Y-1627135D01*
X13324500Y-2122870D01*
X13324501Y-2122876D01*
X13330908Y-2182483D01*
X13381202Y-2317328D01*
X13381206Y-2317335D01*
X13467452Y-2432544D01*
X13467455Y-2432547D01*
X13582664Y-2518793D01*
X13582671Y-2518797D01*
X13599512Y-2525078D01*
X13717517Y-2569091D01*
X13777127Y-2575500D01*
X14422872Y-2575499D01*
X14482483Y-2569091D01*
X14617331Y-2518796D01*
X14732546Y-2432546D01*
X14818796Y-2317331D01*
X14869091Y-2182483D01*
X14875500Y-2122873D01*
X14875499Y-1627128D01*
X14869091Y-1567517D01*
X14868761Y-1566633D01*
X14818797Y-1432671D01*
X14818793Y-1432664D01*
X14738539Y-1325460D01*
X14732546Y-1317454D01*
X14722593Y-1310003D01*
X14680722Y-1254072D01*
X14675736Y-1184380D01*
X14682343Y-1163282D01*
X14685044Y-1156762D01*
X14705682Y-1000000D01*
X14685044Y-843238D01*
X14624536Y-697159D01*
X14528282Y-571718D01*
X14488110Y-540893D01*
X14469399Y-526535D01*
X14428197Y-470107D01*
X14424042Y-400361D01*
X14458255Y-339441D01*
X14501554Y-311978D01*
X14617326Y-268798D01*
X14617326Y-268797D01*
X14617331Y-268796D01*
X14732546Y-182546D01*
X14818796Y-67331D01*
X14869091Y67517D01*
X14875500Y127127D01*
X14875499Y622872D01*
X14869091Y682483D01*
X14854027Y722871D01*
X14818797Y817329D01*
X14818793Y817336D01*
X14732547Y932545D01*
X14732544Y932548D01*
X14617335Y1018794D01*
X14617328Y1018798D01*
X14482482Y1069092D01*
X14482483Y1069092D01*
X14422883Y1075499D01*
X14422881Y1075500D01*
X14422873Y1075500D01*
X14422865Y1075500D01*
X14157675Y1075500D01*
X14090636Y1095185D01*
X14044881Y1147989D01*
X14034937Y1217147D01*
X14063962Y1280703D01*
X14069994Y1287181D01*
X14070995Y1288182D01*
X14132318Y1321667D01*
X14158676Y1324501D01*
X14422871Y1324501D01*
X14422872Y1324501D01*
X14482483Y1330909D01*
X14617331Y1381204D01*
X14732546Y1467454D01*
X14818796Y1582669D01*
X14869091Y1717517D01*
X14875500Y1777127D01*
X14875499Y2272872D01*
X14869091Y2332483D01*
X14868671Y2333608D01*
X14818797Y2467329D01*
X14818793Y2467336D01*
X14732547Y2582545D01*
X14732544Y2582548D01*
X14617335Y2668794D01*
X14617328Y2668798D01*
X14482486Y2719090D01*
X14482485Y2719091D01*
X14482483Y2719091D01*
X14422873Y2725500D01*
X14422863Y2725500D01*
X13777129Y2725500D01*
X13777123Y2725499D01*
X13717516Y2719092D01*
X13582671Y2668798D01*
X13582664Y2668794D01*
X13467455Y2582548D01*
X13467452Y2582545D01*
X13381206Y2467336D01*
X13381202Y2467329D01*
X13330908Y2332483D01*
X13325246Y2279815D01*
X13324501Y2272877D01*
X13324500Y2272865D01*
X13324500Y2008677D01*
X13304815Y1941638D01*
X13288185Y1921001D01*
X13234559Y1867374D01*
X13187180Y1819995D01*
X13125856Y1786511D01*
X13056165Y1791495D01*
X13000232Y1833367D01*
X12975815Y1898832D01*
X12975499Y1907657D01*
X12975499Y2272872D01*
X12969091Y2332483D01*
X12968671Y2333608D01*
X12918797Y2467329D01*
X12918793Y2467336D01*
X12832547Y2582545D01*
X12832544Y2582548D01*
X12717335Y2668794D01*
X12717328Y2668798D01*
X12582482Y2719092D01*
X12582483Y2719092D01*
X12522883Y2725499D01*
X12522881Y2725500D01*
X12522873Y2725500D01*
X12522865Y2725500D01*
X12433676Y2725500D01*
X12366637Y2745185D01*
X12345995Y2761819D01*
X12344994Y2762820D01*
X12311509Y2824143D01*
X12316493Y2893835D01*
X12358365Y2949768D01*
X12423829Y2974185D01*
X12432675Y2974501D01*
X12522871Y2974501D01*
X12522872Y2974501D01*
X12582483Y2980909D01*
X12717331Y3031204D01*
X12832546Y3117454D01*
X12838052Y3124809D01*
X12893985Y3166681D01*
X12937320Y3174500D01*
X13262680Y3174500D01*
X13329719Y3154815D01*
X13361948Y3124809D01*
X13367454Y3117454D01*
X13396095Y3096013D01*
X13482664Y3031207D01*
X13482671Y3031203D01*
X13527618Y3014439D01*
X13617517Y2980909D01*
X13677127Y2974500D01*
X14322872Y2974501D01*
X14382483Y2980909D01*
X14517331Y3031204D01*
X14632546Y3117454D01*
X14718796Y3232669D01*
X14769091Y3367517D01*
X14775500Y3427127D01*
X14775499Y3922872D01*
X14769091Y3982483D01*
X14757599Y4013294D01*
X14718797Y4117329D01*
X14718793Y4117336D01*
X14632547Y4232545D01*
X14632544Y4232548D01*
X14517335Y4318794D01*
X14517328Y4318798D01*
X14382486Y4369090D01*
X14382485Y4369091D01*
X14382483Y4369091D01*
X14322873Y4375500D01*
X14322863Y4375500D01*
X13677129Y4375500D01*
X13677123Y4375499D01*
X13617516Y4369092D01*
X13482671Y4318798D01*
X13482664Y4318794D01*
X13367457Y4232549D01*
X13367451Y4232543D01*
X13361948Y4225191D01*
X13306015Y4183319D01*
X13262680Y4175500D01*
X12937320Y4175500D01*
X12870281Y4195185D01*
X12838052Y4225191D01*
X12832548Y4232543D01*
X12832546Y4232546D01*
X12816067Y4244882D01*
X12717335Y4318794D01*
X12717328Y4318798D01*
X12582486Y4369090D01*
X12582485Y4369091D01*
X12582483Y4369091D01*
X12522873Y4375500D01*
X12522863Y4375500D01*
X11877129Y4375500D01*
X11877123Y4375499D01*
X11817516Y4369092D01*
X11682671Y4318798D01*
X11682664Y4318794D01*
X11567455Y4232548D01*
X11567452Y4232545D01*
X11481206Y4117336D01*
X11481202Y4117329D01*
X11430908Y3982484D01*
X11428949Y3964258D01*
X11402209Y3899707D01*
X11344816Y3859861D01*
X11274991Y3857369D01*
X11217979Y3889835D01*
X11161818Y3945996D01*
X11128333Y4007319D01*
X11125499Y4033677D01*
X11125499Y4622871D01*
X11125498Y4622877D01*
X11125497Y4622884D01*
X11119229Y4681203D01*
X11119091Y4682484D01*
X11068797Y4817329D01*
X11068793Y4817336D01*
X10982547Y4932545D01*
X10982544Y4932548D01*
X10867335Y5018794D01*
X10867328Y5018798D01*
X10732486Y5069090D01*
X10732485Y5069091D01*
X10732483Y5069091D01*
X10672873Y5075500D01*
X10672863Y5075500D01*
X10177129Y5075500D01*
X10177123Y5075499D01*
X10117516Y5069092D01*
X9982671Y5018798D01*
X9982664Y5018794D01*
X9867455Y4932548D01*
X9867452Y4932545D01*
X9781206Y4817336D01*
X9781202Y4817329D01*
X9730908Y4682483D01*
X9725364Y4630911D01*
X9724501Y4622877D01*
X9724500Y4622865D01*
X9724500Y4357676D01*
X9704815Y4290637D01*
X9652011Y4244882D01*
X9582853Y4234938D01*
X9519297Y4263963D01*
X9512819Y4269995D01*
X9511818Y4270996D01*
X9478333Y4332319D01*
X9475499Y4358677D01*
X9475499Y4622871D01*
X9475498Y4622877D01*
X9475497Y4622884D01*
X9469229Y4681203D01*
X9469091Y4682484D01*
X9418797Y4817329D01*
X9418793Y4817336D01*
X9332547Y4932545D01*
X9332544Y4932548D01*
X9217335Y5018794D01*
X9217328Y5018798D01*
X9082486Y5069090D01*
X9082485Y5069091D01*
X9082483Y5069091D01*
X9022873Y5075500D01*
X9022863Y5075500D01*
X8527129Y5075500D01*
X8527123Y5075499D01*
X8467516Y5069092D01*
X8332671Y5018798D01*
X8332664Y5018794D01*
X8217455Y4932548D01*
X8217452Y4932545D01*
X8131206Y4817336D01*
X8131202Y4817329D01*
X8080908Y4682483D01*
X8075364Y4630911D01*
X8074501Y4622877D01*
X8074500Y4622865D01*
X8074500Y4474500D01*
X8054815Y4407461D01*
X8002011Y4361706D01*
X7950500Y4350500D01*
X6952098Y4350500D01*
X6885059Y4370185D01*
X6839304Y4422989D01*
X6829360Y4492147D01*
X6858385Y4555703D01*
X6882242Y4576951D01*
X7057994Y4696776D01*
X7242080Y4867583D01*
X7398653Y5063919D01*
X7524214Y5281397D01*
X7615960Y5515161D01*
X7671840Y5759987D01*
X7679893Y5867454D01*
X7690606Y6010404D01*
X7690606Y6010413D01*
X7671840Y6260828D01*
X7634855Y6422871D01*
X7615960Y6505655D01*
X7524214Y6739419D01*
X7524213Y6739420D01*
X7524214Y6739420D01*
X7465630Y6840890D01*
X7438140Y6888503D01*
X7421668Y6956401D01*
X7444520Y7022428D01*
X7499441Y7065618D01*
X7545528Y7074501D01*
X7922871Y7074501D01*
X7922872Y7074501D01*
X7982483Y7080909D01*
X8084852Y7119090D01*
X8107167Y7127413D01*
X8176859Y7132397D01*
X8238182Y7098912D01*
X8271666Y7037589D01*
X8274500Y7011231D01*
X8274500Y6837321D01*
X8254815Y6770282D01*
X8224813Y6738056D01*
X8217459Y6732551D01*
X8217451Y6732543D01*
X8131206Y6617336D01*
X8131202Y6617329D01*
X8089547Y6505644D01*
X8080909Y6482483D01*
X8074500Y6422873D01*
X8074500Y6422866D01*
X8074500Y6422865D01*
X8074500Y5777130D01*
X8074501Y5777124D01*
X8080908Y5717517D01*
X8131202Y5582672D01*
X8131206Y5582665D01*
X8217452Y5467456D01*
X8217455Y5467453D01*
X8332664Y5381207D01*
X8332671Y5381203D01*
X8377618Y5364439D01*
X8467517Y5330909D01*
X8527127Y5324500D01*
X9022872Y5324501D01*
X9082483Y5330909D01*
X9217331Y5381204D01*
X9332546Y5467454D01*
X9418796Y5582669D01*
X9469091Y5717517D01*
X9475500Y5777127D01*
X9475499Y6422872D01*
X9469091Y6482483D01*
X9460448Y6505655D01*
X9418797Y6617329D01*
X9418793Y6617336D01*
X9332548Y6732543D01*
X9332546Y6732546D01*
X9332542Y6732549D01*
X9332540Y6732551D01*
X9325187Y6738056D01*
X9283317Y6793991D01*
X9275500Y6837321D01*
X9275500Y6891324D01*
X9295185Y6958363D01*
X9311819Y6979005D01*
X9370996Y7038182D01*
X9432319Y7071667D01*
X9458677Y7074501D01*
X9722871Y7074501D01*
X9722872Y7074501D01*
X9782483Y7080909D01*
X9917331Y7131204D01*
X10032546Y7217454D01*
X10118796Y7332669D01*
X10169091Y7467517D01*
X10175500Y7527127D01*
X10175499Y7792327D01*
X10195183Y7859364D01*
X10247987Y7905119D01*
X10317146Y7915063D01*
X10380701Y7886038D01*
X10387180Y7880006D01*
X10388181Y7879005D01*
X10421666Y7817682D01*
X10424500Y7791324D01*
X10424500Y7527131D01*
X10424501Y7527124D01*
X10430908Y7467517D01*
X10481202Y7332672D01*
X10481206Y7332665D01*
X10567452Y7217456D01*
X10567455Y7217453D01*
X10682664Y7131207D01*
X10682671Y7131203D01*
X10715148Y7119090D01*
X10817517Y7080909D01*
X10877127Y7074500D01*
X11141323Y7074501D01*
X11208362Y7054817D01*
X11229004Y7038182D01*
X11663181Y6604005D01*
X11696666Y6542682D01*
X11699500Y6516324D01*
X11699500Y6043466D01*
X11679815Y5976427D01*
X11649812Y5944200D01*
X11567452Y5882545D01*
X11481206Y5767336D01*
X11481202Y5767329D01*
X11430910Y5632487D01*
X11430909Y5632483D01*
X11424500Y5572873D01*
X11424500Y5572866D01*
X11424500Y5572865D01*
X11424500Y5077130D01*
X11424501Y5077124D01*
X11430908Y5017517D01*
X11481202Y4882672D01*
X11481206Y4882665D01*
X11567452Y4767456D01*
X11567455Y4767453D01*
X11682664Y4681207D01*
X11682671Y4681203D01*
X11727618Y4664439D01*
X11817517Y4630909D01*
X11877127Y4624500D01*
X12522872Y4624501D01*
X12582483Y4630909D01*
X12717331Y4681204D01*
X12832546Y4767454D01*
X12918796Y4882669D01*
X12969091Y5017517D01*
X12975500Y5077127D01*
X12975499Y5572872D01*
X12969091Y5632483D01*
X12966528Y5639354D01*
X12918797Y5767329D01*
X12918793Y5767336D01*
X12832547Y5882545D01*
X12750188Y5944200D01*
X12708318Y6000134D01*
X12700500Y6043466D01*
X12700500Y6840890D01*
X12700500Y6840892D01*
X12666392Y6968186D01*
X12658099Y6982549D01*
X12626322Y7037589D01*
X12600500Y7082314D01*
X12507314Y7175500D01*
X12011818Y7670996D01*
X11978333Y7732319D01*
X11975499Y7758677D01*
X11975499Y8022871D01*
X11975498Y8022877D01*
X11969091Y8082484D01*
X11918797Y8217329D01*
X11918793Y8217336D01*
X11832547Y8332545D01*
X11832544Y8332548D01*
X11717335Y8418794D01*
X11717328Y8418798D01*
X11582482Y8469092D01*
X11582483Y8469092D01*
X11522883Y8475499D01*
X11522881Y8475500D01*
X11522873Y8475500D01*
X11522865Y8475500D01*
X11258676Y8475500D01*
X11191637Y8495185D01*
X11170995Y8511819D01*
X11169994Y8512820D01*
X11136509Y8574143D01*
X11141493Y8643835D01*
X11183365Y8699768D01*
X11248829Y8724185D01*
X11257675Y8724501D01*
X11522871Y8724501D01*
X11522872Y8724501D01*
X11582483Y8730909D01*
X11717331Y8781204D01*
X11832546Y8867454D01*
X11918796Y8982669D01*
X11969091Y9117517D01*
X11975500Y9177127D01*
X11975499Y9672872D01*
X11969091Y9732483D01*
X11937359Y9817560D01*
X11918797Y9867329D01*
X11918793Y9867336D01*
X11832547Y9982545D01*
X11832544Y9982548D01*
X11717335Y10068794D01*
X11717328Y10068798D01*
X11582486Y10119090D01*
X11582485Y10119091D01*
X11582483Y10119091D01*
X11522873Y10125500D01*
X11522863Y10125500D01*
X10877129Y10125500D01*
X10877123Y10125499D01*
X10817520Y10119092D01*
X10817517Y10119092D01*
X10817517Y10119091D01*
X10740475Y10090357D01*
X10670784Y10085374D01*
X10649701Y10091976D01*
X10588884Y10117166D01*
X10588881Y10117167D01*
X10588880Y10117167D01*
X10432123Y10137804D01*
X10432121Y10137804D01*
X10275361Y10117167D01*
X10275359Y10117166D01*
X10129280Y10056658D01*
X10107181Y10039701D01*
X10042011Y10014508D01*
X9973566Y10028547D01*
X9957384Y10038813D01*
X9950179Y10044206D01*
X9908314Y10100144D01*
X9900500Y10143466D01*
X9900500Y11585129D01*
X9900500Y11585131D01*
X9866392Y11712425D01*
X9800500Y11826553D01*
X9707314Y11919739D01*
X8133103Y13493950D01*
X8099618Y13555273D01*
X8101890Y13587046D01*
X8078482Y13570501D01*
X8008681Y13567422D01*
X8006245Y13568048D01*
X7935342Y13587046D01*
X7885131Y13600500D01*
X7885130Y13600500D01*
X7543465Y13600500D01*
X7476426Y13620185D01*
X7444198Y13650189D01*
X7382546Y13732546D01*
X7359709Y13749642D01*
X7267335Y13818794D01*
X7267328Y13818798D01*
X7132486Y13869090D01*
X7132485Y13869091D01*
X7132483Y13869091D01*
X7072873Y13875500D01*
X7072863Y13875500D01*
X6577129Y13875500D01*
X6577123Y13875499D01*
X6517516Y13869092D01*
X6382671Y13818798D01*
X6382664Y13818794D01*
X6267455Y13732548D01*
X6267452Y13732545D01*
X6181206Y13617336D01*
X6181202Y13617329D01*
X6130910Y13482487D01*
X6130909Y13482483D01*
X6124500Y13422873D01*
X6124500Y13422866D01*
X6124500Y13422865D01*
X6124500Y12777130D01*
X6124501Y12777124D01*
X6130908Y12717517D01*
X6181202Y12582672D01*
X6181206Y12582665D01*
X6267452Y12467456D01*
X6267455Y12467453D01*
X6382664Y12381207D01*
X6382671Y12381203D01*
X6410175Y12370945D01*
X6517517Y12330909D01*
X6577127Y12324500D01*
X7072872Y12324501D01*
X7132483Y12330909D01*
X7267331Y12381204D01*
X7382546Y12467454D01*
X7444199Y12549812D01*
X7500132Y12591682D01*
X7543465Y12599500D01*
X7560563Y12599500D01*
X7627602Y12579815D01*
X7648244Y12563181D01*
X8044825Y12166600D01*
X8078310Y12105277D01*
X8073326Y12035585D01*
X8031454Y11979652D01*
X8000478Y11962737D01*
X7882669Y11918797D01*
X7882664Y11918794D01*
X7767455Y11832548D01*
X7767452Y11832545D01*
X7681206Y11717336D01*
X7681202Y11717329D01*
X7630908Y11582483D01*
X7625901Y11535907D01*
X7624501Y11522877D01*
X7624500Y11522865D01*
X7624500Y11258677D01*
X7604815Y11191638D01*
X7588181Y11170996D01*
X7587180Y11169995D01*
X7525857Y11136510D01*
X7456165Y11141494D01*
X7400232Y11183366D01*
X7375815Y11248830D01*
X7375499Y11257676D01*
X7375499Y11522871D01*
X7375498Y11522877D01*
X7375497Y11522884D01*
X7369091Y11582483D01*
X7368264Y11584699D01*
X7318797Y11717329D01*
X7318793Y11717336D01*
X7232547Y11832545D01*
X7232544Y11832548D01*
X7117335Y11918794D01*
X7117328Y11918798D01*
X6982486Y11969090D01*
X6982485Y11969091D01*
X6982483Y11969091D01*
X6922873Y11975500D01*
X6922863Y11975500D01*
X6427129Y11975500D01*
X6427123Y11975499D01*
X6367516Y11969092D01*
X6232671Y11918798D01*
X6232668Y11918796D01*
X6174476Y11875233D01*
X6109011Y11850816D01*
X6100165Y11850500D01*
X5674540Y11850500D01*
X5607501Y11870185D01*
X5600907Y11874730D01*
X5562886Y11902791D01*
X5562880Y11902794D01*
X5434700Y11947647D01*
X5412921Y11949689D01*
X5348013Y11975547D01*
X5307388Y12032393D01*
X5300500Y12073147D01*
X5300500Y12200501D01*
X5320185Y12267540D01*
X5372989Y12313295D01*
X5419611Y12323438D01*
X5419576Y12324100D01*
X5419571Y12324146D01*
X5419573Y12324147D01*
X5419564Y12324324D01*
X5422857Y12324501D01*
X5422872Y12324501D01*
X5482483Y12330909D01*
X5617331Y12381204D01*
X5732546Y12467454D01*
X5818796Y12582669D01*
X5869091Y12717517D01*
X5875500Y12777127D01*
X5875499Y13422872D01*
X5869091Y13482483D01*
X5837177Y13568048D01*
X5818797Y13617329D01*
X5818793Y13617336D01*
X5732547Y13732545D01*
X5732544Y13732548D01*
X5617335Y13818794D01*
X5617328Y13818798D01*
X5482486Y13869090D01*
X5482485Y13869091D01*
X5482483Y13869091D01*
X5422873Y13875500D01*
X5422863Y13875500D01*
X4927129Y13875500D01*
X4927123Y13875499D01*
X4867516Y13869092D01*
X4732671Y13818798D01*
X4732664Y13818794D01*
X4617455Y13732548D01*
X4617452Y13732545D01*
X4531206Y13617336D01*
X4531202Y13617329D01*
X4480908Y13482483D01*
X4474501Y13422884D01*
X4474501Y13422877D01*
X4474500Y13422865D01*
X4474500Y13158678D01*
X4454815Y13091639D01*
X4438182Y13070998D01*
X4399504Y13032320D01*
X4399501Y13032316D01*
X4399500Y13032314D01*
X4380555Y12999500D01*
X4333608Y12918187D01*
X4299500Y12790892D01*
X4299500Y12056344D01*
X4279815Y11989305D01*
X4227011Y11943550D01*
X4216456Y11939303D01*
X4112117Y11902793D01*
X4002850Y11822150D01*
X4002845Y11822146D01*
X3969875Y11777473D01*
X3945603Y11752741D01*
X3942691Y11750507D01*
X3728091Y11535907D01*
X3666768Y11502422D01*
X3597076Y11507406D01*
X3541143Y11549278D01*
X3523369Y11582633D01*
X3492746Y11670149D01*
X3477793Y11712882D01*
X3397150Y11822150D01*
X3287882Y11902793D01*
X3287880Y11902794D01*
X3159700Y11947647D01*
X3129270Y11950500D01*
X3129266Y11950500D01*
X2721176Y11950500D01*
X2654137Y11970185D01*
X2633495Y11986819D01*
X2619816Y12000498D01*
X2619814Y12000500D01*
X2523090Y12056344D01*
X2505687Y12066392D01*
X2442039Y12083446D01*
X2378392Y12100500D01*
X2378391Y12100500D01*
X1900757Y12100500D01*
X1833718Y12120185D01*
X1828400Y12123925D01*
X1827336Y12124539D01*
X1681265Y12185043D01*
X1681260Y12185045D01*
X1524501Y12205682D01*
X1524499Y12205682D01*
X1360564Y12184100D01*
X1291529Y12194866D01*
X1245575Y12232114D01*
X1175078Y12325079D01*
X1059976Y12412364D01*
X925588Y12465360D01*
X882242Y12470565D01*
X841144Y12475500D01*
X308856Y12475500D01*
X270841Y12470935D01*
X224411Y12465360D01*
X90023Y12412364D01*
X-25077Y12325080D01*
X-101196Y12224702D01*
X-157389Y12183179D01*
X-227110Y12178628D01*
X-288224Y12212493D01*
X-298804Y12224702D01*
X-304425Y12232114D01*
X-374922Y12325078D01*
X-456078Y12386621D01*
X-497600Y12442813D01*
X-502151Y12512534D01*
X-468286Y12573648D01*
X-439612Y12594778D01*
X-406850Y12612289D01*
X-245064Y12745064D01*
X-112289Y12906850D01*
X-13628Y13091431D01*
X47127Y13291714D01*
X67641Y13500000D01*
X1932359Y13500000D01*
X1952872Y13291716D01*
X1952873Y13291714D01*
X2013628Y13091431D01*
X2109358Y12912333D01*
X2112291Y12906847D01*
X2245063Y12745064D01*
X2406845Y12612293D01*
X2406850Y12612289D01*
X2591431Y12513628D01*
X2791714Y12452873D01*
X3000000Y12432359D01*
X3208286Y12452873D01*
X3408569Y12513628D01*
X3593150Y12612289D01*
X3754936Y12745064D01*
X3887711Y12906850D01*
X3986372Y13091431D01*
X4047127Y13291714D01*
X4067641Y13500000D01*
X4047127Y13708286D01*
X3986372Y13908569D01*
X3887711Y14093150D01*
X3887708Y14093154D01*
X3754936Y14254937D01*
X3593153Y14387709D01*
X3593151Y14387710D01*
X3593150Y14387711D01*
X3408569Y14486372D01*
X3308427Y14516750D01*
X3208284Y14547128D01*
X3000000Y14567641D01*
X2791715Y14547128D01*
X2591428Y14486371D01*
X2406846Y14387709D01*
X2245063Y14254937D01*
X2112291Y14093154D01*
X2013629Y13908572D01*
X1952872Y13708285D01*
X1932359Y13500000D01*
X67641Y13500000D01*
X47127Y13708286D01*
X-13628Y13908569D01*
X-112289Y14093150D01*
X-112292Y14093154D01*
X-245064Y14254937D01*
X-406847Y14387709D01*
X-406849Y14387710D01*
X-406850Y14387711D01*
X-591431Y14486372D01*
X-691573Y14516750D01*
X-791716Y14547128D01*
X-1000000Y14567641D01*
X-1208285Y14547128D01*
X-1408572Y14486371D01*
X-1593154Y14387709D01*
X-1754937Y14254937D01*
X-1887709Y14093154D01*
X-1890643Y14087664D01*
X-1939607Y14037821D01*
X-2007745Y14022362D01*
X-2073424Y14046195D01*
X-2109357Y14087664D01*
X-2112289Y14093150D01*
X-2112292Y14093154D01*
X-2245064Y14254937D01*
X-2406847Y14387709D01*
X-2406849Y14387710D01*
X-2406850Y14387711D01*
X-2591431Y14486372D01*
X-2691573Y14516750D01*
X-2791716Y14547128D01*
X-3000000Y14567641D01*
X-3208285Y14547128D01*
X-3408572Y14486371D01*
X-3593154Y14387709D01*
X-3754937Y14254937D01*
X-3887709Y14093154D01*
X-3887711Y14093150D01*
X-3902200Y14066045D01*
X-3951161Y14016202D01*
X-4011556Y14000500D01*
X-6765892Y14000500D01*
X-6893188Y13966392D01*
X-7007314Y13900500D01*
X-7007317Y13900498D01*
X-8725498Y12182317D01*
X-8725500Y12182314D01*
X-8791392Y12068188D01*
X-8825500Y11940892D01*
X-8825500Y10762181D01*
X-8845185Y10695142D01*
X-8874574Y10663378D01*
X-8925078Y10625080D01*
X-9012364Y10509977D01*
X-9065360Y10375589D01*
X-9068203Y10351907D01*
X-9075500Y10291144D01*
X-9075500Y9708856D01*
X-9071178Y9672865D01*
X-9065360Y9624412D01*
X-9012364Y9490024D01*
X-8925079Y9374922D01*
X-8875501Y9337326D01*
X-8824575Y9298708D01*
X-8783052Y9242516D01*
X-8775500Y9199904D01*
X-8775500Y8937321D01*
X-8795185Y8870282D01*
X-8825187Y8838056D01*
X-8832541Y8832551D01*
X-8832549Y8832543D01*
X-8918794Y8717336D01*
X-8918798Y8717329D01*
X-8969090Y8582487D01*
X-8969091Y8582483D01*
X-8975500Y8522873D01*
X-8975500Y8522866D01*
X-8975500Y8522865D01*
X-8975500Y7877130D01*
X-8975499Y7877124D01*
X-8969092Y7817517D01*
X-8918798Y7682672D01*
X-8918797Y7682671D01*
X-8918796Y7682669D01*
X-8837791Y7574460D01*
X-8832546Y7567454D01*
X-8825192Y7561949D01*
X-8783319Y7506017D01*
X-8775500Y7462680D01*
X-8775500Y7237321D01*
X-8795185Y7170282D01*
X-8825187Y7138056D01*
X-8832541Y7132551D01*
X-8832549Y7132543D01*
X-8918794Y7017336D01*
X-8918798Y7017329D01*
X-8969090Y6882487D01*
X-8969091Y6882483D01*
X-8975500Y6822873D01*
X-8975500Y6822866D01*
X-8975500Y6822865D01*
X-8975500Y6177130D01*
X-8975499Y6177124D01*
X-8969092Y6117517D01*
X-8918798Y5982672D01*
X-8918794Y5982665D01*
X-8832548Y5867456D01*
X-8832545Y5867453D01*
X-8717336Y5781207D01*
X-8709546Y5776953D01*
X-8710174Y5775804D01*
X-8661508Y5739378D01*
X-8637087Y5673915D01*
X-8651935Y5605642D01*
X-8701338Y5556233D01*
X-8715280Y5549708D01*
X-8809975Y5512365D01*
X-8925077Y5425080D01*
X-8958347Y5381207D01*
X-8999277Y5327232D01*
X-9001196Y5324702D01*
X-9057389Y5283179D01*
X-9127110Y5278628D01*
X-9188224Y5312493D01*
X-9198804Y5324702D01*
X-9199175Y5325191D01*
X-9274922Y5425078D01*
X-9375427Y5501294D01*
X-9416949Y5557486D01*
X-9424500Y5600097D01*
X-9424500Y5762680D01*
X-9404815Y5829719D01*
X-9374808Y5861949D01*
X-9367454Y5867454D01*
X-9281204Y5982669D01*
X-9230909Y6117517D01*
X-9224500Y6177127D01*
X-9224501Y6822872D01*
X-9230909Y6882483D01*
X-9233154Y6888501D01*
X-9281203Y7017329D01*
X-9281207Y7017336D01*
X-9367453Y7132545D01*
X-9367456Y7132548D01*
X-9482665Y7218794D01*
X-9482672Y7218798D01*
X-9617514Y7269090D01*
X-9617515Y7269091D01*
X-9617517Y7269091D01*
X-9677127Y7275500D01*
X-9677137Y7275500D01*
X-10172871Y7275500D01*
X-10172877Y7275499D01*
X-10232484Y7269092D01*
X-10367329Y7218798D01*
X-10367336Y7218794D01*
X-10482545Y7132548D01*
X-10482548Y7132545D01*
X-10568794Y7017336D01*
X-10568798Y7017329D01*
X-10619090Y6882487D01*
X-10619091Y6882483D01*
X-10625500Y6822873D01*
X-10625500Y6822866D01*
X-10625500Y6822865D01*
X-10625500Y6177130D01*
X-10625499Y6177124D01*
X-10619092Y6117517D01*
X-10568798Y5982672D01*
X-10568797Y5982671D01*
X-10568796Y5982669D01*
X-10488052Y5874809D01*
X-10482546Y5867454D01*
X-10475192Y5861949D01*
X-10433319Y5806017D01*
X-10425500Y5762680D01*
X-10425500Y5524264D01*
X-10445185Y5457225D01*
X-10469239Y5431226D01*
X-10469084Y5431071D01*
X-10473054Y5427102D01*
X-10474566Y5425467D01*
X-10475074Y5425083D01*
X-10475082Y5425074D01*
X-10562364Y5309977D01*
X-10615360Y5175589D01*
X-10620935Y5129159D01*
X-10625500Y5091144D01*
X-10625500Y4508856D01*
X-10621689Y4477124D01*
X-10615360Y4424412D01*
X-10562364Y4290024D01*
X-10475079Y4174922D01*
X-10359977Y4087637D01*
X-10359976Y4087637D01*
X-10359975Y4087636D01*
X-10225590Y4034641D01*
X-10141144Y4024500D01*
X-9958676Y4024500D01*
X-9891637Y4004815D01*
X-9870995Y3988181D01*
X-9504841Y3622028D01*
X-9504831Y3622017D01*
X-9500501Y3617687D01*
X-9500500Y3617686D01*
X-9407314Y3524500D01*
X-9407310Y3524498D01*
X-9405198Y3522877D01*
X-9403867Y3521054D01*
X-9401567Y3518754D01*
X-9401926Y3518396D01*
X-9363994Y3466449D01*
X-9359839Y3396703D01*
X-9394050Y3335783D01*
X-9455767Y3303029D01*
X-9480683Y3300500D01*
X-11681324Y3300500D01*
X-11748363Y3320185D01*
X-11769005Y3336819D01*
X-11880038Y3447852D01*
X-11913523Y3509175D01*
X-11914639Y3515577D01*
X-11914956Y3516761D01*
X-11914956Y3516762D01*
X-11975464Y3662841D01*
X-12071718Y3788282D01*
X-12197159Y3884536D01*
X-12221992Y3894822D01*
X-12343238Y3945044D01*
X-12343240Y3945045D01*
X-12499999Y3965682D01*
X-12500001Y3965682D01*
X-12656761Y3945045D01*
X-12656763Y3945044D01*
X-12802840Y3884537D01*
X-12928282Y3788282D01*
X-13024537Y3662840D01*
X-13085044Y3516763D01*
X-13085045Y3516761D01*
X-13105682Y3360002D01*
X-13105682Y3359999D01*
X-13085045Y3203240D01*
X-13085044Y3203238D01*
X-13032625Y3076686D01*
X-13024536Y3057159D01*
X-12928282Y2931718D01*
X-12802841Y2835464D01*
X-12656762Y2774956D01*
X-12656757Y2774956D01*
X-12648906Y2772851D01*
X-12649428Y2770907D01*
X-12595456Y2747033D01*
X-12587852Y2740038D01*
X-12247314Y2399500D01*
X-12133186Y2333608D01*
X-12005892Y2299500D01*
X-11874107Y2299500D01*
X-10507676Y2299500D01*
X-10440637Y2279815D01*
X-10394882Y2227011D01*
X-10384938Y2157853D01*
X-10413963Y2094297D01*
X-10419995Y2087819D01*
X-10924755Y1583060D01*
X-10924756Y1583060D01*
X-10924755Y1583059D01*
X-11000500Y1507314D01*
X-11066392Y1393188D01*
X-11100500Y1265892D01*
X-11100500Y-216323D01*
X-11120185Y-283362D01*
X-11136819Y-304004D01*
X-11470997Y-638181D01*
X-11532320Y-671666D01*
X-11558678Y-674500D01*
X-11822870Y-674500D01*
X-11822877Y-674501D01*
X-11882484Y-680908D01*
X-12017329Y-731202D01*
X-12017336Y-731206D01*
X-12132545Y-817452D01*
X-12132548Y-817455D01*
X-12218794Y-932664D01*
X-12218798Y-932671D01*
X-12269092Y-1067517D01*
X-12274270Y-1115685D01*
X-12275499Y-1127123D01*
X-12275500Y-1127135D01*
X-12275500Y-1391323D01*
X-12295185Y-1458362D01*
X-12311815Y-1478999D01*
X-12383593Y-1550778D01*
X-12412820Y-1580005D01*
X-12474144Y-1613489D01*
X-12543835Y-1608505D01*
X-12599768Y-1566633D01*
X-12624185Y-1501168D01*
X-12624501Y-1492343D01*
X-12624501Y-1127128D01*
X-12630909Y-1067517D01*
X-12640917Y-1040685D01*
X-12681203Y-932671D01*
X-12681207Y-932664D01*
X-12767453Y-817455D01*
X-12874812Y-737085D01*
X-12916682Y-681151D01*
X-12924500Y-637819D01*
X-12924500Y-337320D01*
X-12904815Y-270281D01*
X-12874808Y-238051D01*
X-12867454Y-232546D01*
X-12781204Y-117331D01*
X-12730909Y17517D01*
X-12724500Y77127D01*
X-12724501Y722872D01*
X-12730909Y782483D01*
X-12743906Y817329D01*
X-12781203Y917329D01*
X-12781207Y917336D01*
X-12867453Y1032545D01*
X-12867456Y1032548D01*
X-12982665Y1118794D01*
X-12982672Y1118798D01*
X-13117514Y1169090D01*
X-13117515Y1169091D01*
X-13117517Y1169091D01*
X-13177127Y1175500D01*
X-13177137Y1175500D01*
X-13672871Y1175500D01*
X-13672877Y1175499D01*
X-13732484Y1169092D01*
X-13867329Y1118798D01*
X-13867336Y1118794D01*
X-13982545Y1032548D01*
X-13982548Y1032545D01*
X-14068794Y917336D01*
X-14068798Y917329D01*
X-14119090Y782487D01*
X-14119091Y782483D01*
X-14125500Y722873D01*
X-14125500Y722866D01*
X-14125500Y722865D01*
X-14125500Y77130D01*
X-14125499Y77124D01*
X-14119092Y17517D01*
X-14068798Y-117328D01*
X-14068797Y-117329D01*
X-14068796Y-117331D01*
X-13991782Y-220208D01*
X-13982546Y-232546D01*
X-13975192Y-238051D01*
X-13933319Y-293983D01*
X-13925500Y-337320D01*
X-13925500Y-675249D01*
X-13945185Y-742288D01*
X-13975188Y-774515D01*
X-14032543Y-817451D01*
X-14032549Y-817457D01*
X-14118794Y-932664D01*
X-14118798Y-932671D01*
X-14161808Y-1047989D01*
X-14169091Y-1067517D01*
X-14175500Y-1127127D01*
X-15958494Y-1127127D01*
X-15991858Y-578564D01*
X-15991939Y-577072D01*
X-15992192Y-571836D01*
X-15992302Y-568784D01*
X-15992425Y-563424D01*
X-15992448Y-561997D01*
X-15994809Y-338104D01*
X-16000745Y224684D01*
X-16000751Y226063D01*
X-16000740Y231471D01*
X-16000695Y234445D01*
X-16000552Y239744D01*
X-16000509Y241046D01*
X-15969308Y1027427D01*
X-15969251Y1028669D01*
X-15968968Y1034077D01*
X-15968776Y1037032D01*
X-15968356Y1042458D01*
X-15968252Y1043695D01*
X-15897640Y1827401D01*
X-15897506Y1828786D01*
X-15896960Y1834098D01*
X-15896623Y1837024D01*
X-15895932Y1842414D01*
X-15895751Y1843756D01*
X-15886739Y1907677D01*
X-15785893Y2622974D01*
X-15785723Y2624125D01*
X-15784897Y2629501D01*
X-15784414Y2632402D01*
X-15783447Y2637786D01*
X-15783210Y2639058D01*
X-15660345Y3277011D01*
X-15634418Y3411632D01*
X-15634117Y3413143D01*
X-15633081Y3418184D01*
X-15632425Y3421189D01*
X-15631191Y3426507D01*
X-15630910Y3427683D01*
X-15443517Y4191912D01*
X-15443163Y4193316D01*
X-15441850Y4198391D01*
X-15441039Y4201372D01*
X-15439617Y4206353D01*
X-15439208Y4207758D01*
X-15213705Y4961604D01*
X-15213271Y4963018D01*
X-15211727Y4967953D01*
X-15210762Y4970908D01*
X-15209078Y4975852D01*
X-15208566Y4977324D01*
X-15193854Y5018798D01*
X-14945576Y5718748D01*
X-14945064Y5720162D01*
X-14943269Y5725029D01*
X-14942165Y5727908D01*
X-14940223Y5732792D01*
X-14939687Y5734117D01*
X-14639807Y6461450D01*
X-14639229Y6462825D01*
X-14638616Y6464264D01*
X-14637150Y6467695D01*
X-14635930Y6470458D01*
X-14633664Y6475413D01*
X-14633156Y6476507D01*
X-14297066Y7188067D01*
X-14296517Y7189210D01*
X-14294155Y7194053D01*
X-14292783Y7196776D01*
X-14290347Y7201468D01*
X-14289618Y7202849D01*
X-13918378Y7896398D01*
X-13917776Y7897508D01*
X-13915107Y7902347D01*
X-13913657Y7904898D01*
X-13910983Y7909470D01*
X-13910197Y7910795D01*
X-13907629Y7915063D01*
X-13504585Y8584904D01*
X-13503915Y8586001D01*
X-13501071Y8590596D01*
X-13499440Y8593158D01*
X-13496546Y8597583D01*
X-13495723Y8598822D01*
X-13465462Y8643835D01*
X-13056794Y9251728D01*
X-13056069Y9252793D01*
X-13052972Y9257277D01*
X-13051229Y9259732D01*
X-13048126Y9263993D01*
X-13047287Y9265131D01*
X-12576152Y9895185D01*
X-12575244Y9896384D01*
X-12571996Y9900617D01*
X-12570175Y9902928D01*
X-12566746Y9907171D01*
X-12565953Y9908139D01*
X-12063678Y10513899D01*
X-12062820Y10514919D01*
X-12059356Y10518993D01*
X-12057396Y10521240D01*
X-12053768Y10525294D01*
X-12052940Y10526208D01*
X-11520912Y11105987D01*
X-11519913Y11107061D01*
X-11516338Y11110859D01*
X-11514204Y11113071D01*
X-11510472Y11116843D01*
X-11509519Y11117795D01*
X-10949064Y11670149D01*
X-10948136Y11671053D01*
X-10944263Y11674775D01*
X-10942038Y11676859D01*
X-10938191Y11680375D01*
X-10937109Y11681353D01*
X-10349717Y12204823D01*
X-10348670Y12205745D01*
X-10344651Y12209236D01*
X-10342303Y12211224D01*
X-10338291Y12214537D01*
X-10337144Y12215474D01*
X-9724205Y12708824D01*
X-9723154Y12709660D01*
X-9718947Y12712960D01*
X-9716516Y12714818D01*
X-9712346Y12717923D01*
X-9711122Y12718821D01*
X-9104689Y13158678D01*
X-9074251Y13180756D01*
X-9073179Y13181524D01*
X-9068721Y13184673D01*
X-9066266Y13186360D01*
X-9061906Y13189279D01*
X-9060685Y13190086D01*
X-8401341Y13619540D01*
X-8400267Y13620230D01*
X-8395723Y13623110D01*
X-8393128Y13624707D01*
X-8388657Y13627385D01*
X-8387377Y13628142D01*
X-7707370Y14023937D01*
X-7706166Y14024628D01*
X-7701553Y14027236D01*
X-7698887Y14028699D01*
X-7694204Y14031194D01*
X-7692981Y14031836D01*
X-6993881Y14393055D01*
X-6992696Y14393658D01*
X-6987989Y14396015D01*
X-6985223Y14397357D01*
X-6980448Y14399601D01*
X-6979126Y14400213D01*
X-6262898Y14725844D01*
X-6261700Y14726380D01*
X-6256703Y14728577D01*
X-6253961Y14729740D01*
X-6249082Y14731740D01*
X-6247721Y14732288D01*
X-5516092Y15021554D01*
X-5514821Y15022047D01*
X-5509770Y15023971D01*
X-5506941Y15025008D01*
X-5501980Y15026757D01*
X-5500552Y15027250D01*
X-4755291Y15279451D01*
X-4754052Y15279861D01*
X-4748918Y15281527D01*
X-4746037Y15282421D01*
X-4740975Y15283924D01*
X-4739547Y15284338D01*
X-3982597Y15498816D01*
X-3981340Y15499164D01*
X-3976102Y15500577D01*
X-3973188Y15501324D01*
X-3968036Y15502576D01*
X-3966670Y15502899D01*
X-3199875Y15679130D01*
X-3198543Y15679428D01*
X-3193312Y15680561D01*
X-3190298Y15681174D01*
X-3185162Y15682153D01*
X-3183651Y15682432D01*
X-2409051Y15819950D01*
X-2407652Y15820189D01*
X-2402447Y15821046D01*
X-2399397Y15821509D01*
X-2396063Y15821972D01*
X-2394232Y15822226D01*
X-2392738Y15822425D01*
X-1612057Y15920921D01*
X-1610898Y15921059D01*
X-1605409Y15921682D01*
X-1602505Y15921974D01*
X-1597213Y15922441D01*
X-1595830Y15922554D01*
X-811229Y15981747D01*
X-809754Y15981849D01*
X-804510Y15982179D01*
X-801536Y15982329D01*
X-796112Y15982533D01*
X-794811Y15982573D01*
X-8153Y16002323D01*
X-6820Y16002347D01*
X-1522Y16002413D01*
X1522Y16002413D01*
X6819Y16002347D01*
G37*
%TD.AperFunction*%
%TD*%
M02*
